%TF.GenerationSoftware,KiCad,Pcbnew,9.0.2*%
%TF.CreationDate,2025-11-08T13:29:07-08:00*%
%TF.ProjectId,A3-Flight-Computer-Hardware-Rectangular,41332d46-6c69-4676-9874-2d436f6d7075,rev?*%
%TF.SameCoordinates,Original*%
%TF.FileFunction,Copper,L2,Inr*%
%TF.FilePolarity,Positive*%
%FSLAX46Y46*%
G04 Gerber Fmt 4.6, Leading zero omitted, Abs format (unit mm)*
G04 Created by KiCad (PCBNEW 9.0.2) date 2025-11-08 13:29:07*
%MOMM*%
%LPD*%
G01*
G04 APERTURE LIST*
G04 Aperture macros list*
%AMRoundRect*
0 Rectangle with rounded corners*
0 $1 Rounding radius*
0 $2 $3 $4 $5 $6 $7 $8 $9 X,Y pos of 4 corners*
0 Add a 4 corners polygon primitive as box body*
4,1,4,$2,$3,$4,$5,$6,$7,$8,$9,$2,$3,0*
0 Add four circle primitives for the rounded corners*
1,1,$1+$1,$2,$3*
1,1,$1+$1,$4,$5*
1,1,$1+$1,$6,$7*
1,1,$1+$1,$8,$9*
0 Add four rect primitives between the rounded corners*
20,1,$1+$1,$2,$3,$4,$5,0*
20,1,$1+$1,$4,$5,$6,$7,0*
20,1,$1+$1,$6,$7,$8,$9,0*
20,1,$1+$1,$8,$9,$2,$3,0*%
G04 Aperture macros list end*
%TA.AperFunction,ComponentPad*%
%ADD10RoundRect,0.250000X-0.750000X0.600000X-0.750000X-0.600000X0.750000X-0.600000X0.750000X0.600000X0*%
%TD*%
%TA.AperFunction,ComponentPad*%
%ADD11O,2.000000X1.700000*%
%TD*%
%TA.AperFunction,HeatsinkPad*%
%ADD12O,2.000000X0.900000*%
%TD*%
%TA.AperFunction,HeatsinkPad*%
%ADD13O,1.700000X0.900000*%
%TD*%
%TA.AperFunction,ComponentPad*%
%ADD14C,6.000000*%
%TD*%
%TA.AperFunction,ComponentPad*%
%ADD15RoundRect,0.250000X-0.600000X-0.725000X0.600000X-0.725000X0.600000X0.725000X-0.600000X0.725000X0*%
%TD*%
%TA.AperFunction,ComponentPad*%
%ADD16O,1.700000X1.950000*%
%TD*%
%TA.AperFunction,ComponentPad*%
%ADD17RoundRect,0.250000X0.600000X0.750000X-0.600000X0.750000X-0.600000X-0.750000X0.600000X-0.750000X0*%
%TD*%
%TA.AperFunction,ComponentPad*%
%ADD18O,1.700000X2.000000*%
%TD*%
%TA.AperFunction,ComponentPad*%
%ADD19RoundRect,0.250000X-0.600000X-0.750000X0.600000X-0.750000X0.600000X0.750000X-0.600000X0.750000X0*%
%TD*%
%TA.AperFunction,ComponentPad*%
%ADD20R,1.700000X1.700000*%
%TD*%
%TA.AperFunction,ComponentPad*%
%ADD21C,1.700000*%
%TD*%
%TA.AperFunction,ViaPad*%
%ADD22C,0.600000*%
%TD*%
G04 APERTURE END LIST*
D10*
%TO.N,/CAM1_TX*%
%TO.C,J5*%
X119025000Y-99250000D03*
D11*
%TO.N,/CAM1_RX*%
X119025000Y-101750000D03*
%TD*%
D12*
%TO.N,GND*%
%TO.C,J3*%
X178195000Y-106320000D03*
D13*
X182365000Y-106320000D03*
D12*
X178195000Y-97680000D03*
D13*
X182365000Y-97680000D03*
%TD*%
D14*
%TO.N,N/C*%
%TO.C,REF\u002A\u002A*%
X118000000Y-118000000D03*
%TD*%
%TO.N,N/C*%
%TO.C,*%
X181000000Y-85000000D03*
%TD*%
%TO.N,N/C*%
%TO.C,REF\u002A\u002A*%
X118000000Y-85000000D03*
%TD*%
%TO.N,N/C*%
%TO.C,REF\u002A\u002A*%
X181000000Y-118000000D03*
%TD*%
D15*
%TO.N,/TELEM_TX*%
%TO.C,J8*%
X118000000Y-92000000D03*
D16*
%TO.N,/TELEM_RX*%
X120500000Y-92000000D03*
%TO.N,GND*%
X123000000Y-92000000D03*
%TD*%
D10*
%TO.N,/CAM2_TX*%
%TO.C,J6*%
X119000000Y-108500000D03*
D11*
%TO.N,/CAM2_RX*%
X119000000Y-111000000D03*
%TD*%
D17*
%TO.N,Net-(D1-A)*%
%TO.C,J1*%
X174250000Y-91445000D03*
D18*
%TO.N,GND*%
X171750000Y-91445000D03*
%TD*%
D19*
%TO.N,Net-(D7-A2)*%
%TO.C,J9*%
X171750000Y-111555000D03*
D18*
%TO.N,Net-(D6-A1)*%
X174250000Y-111555000D03*
%TD*%
D20*
%TO.N,/JTDO-SWO*%
%TO.C,J4*%
X142725000Y-85460000D03*
D21*
%TO.N,/JTMS-SWDIO*%
X145265000Y-85460000D03*
%TO.N,/JTDI*%
X142725000Y-88000000D03*
%TO.N,/JTCK-SWCLK*%
X145265000Y-88000000D03*
%TO.N,/DEBUG_RX*%
X142725000Y-90540000D03*
%TO.N,/DEBUG_TX*%
X145265000Y-90540000D03*
%TD*%
D22*
%TO.N,*%
X133700000Y-101900000D03*
X132100000Y-101900000D03*
X130500000Y-101900000D03*
%TO.N,+3.3V*%
X163200000Y-99800000D03*
X151150000Y-119750000D03*
X135700000Y-85000000D03*
X171260000Y-102040000D03*
X182500000Y-89480000D03*
X163200000Y-102200000D03*
X160000000Y-119030000D03*
X142000000Y-108200000D03*
X134975000Y-94200000D03*
X153500000Y-107500000D03*
X133700000Y-110200000D03*
X148200000Y-115400000D03*
X140700000Y-115500000D03*
X138900000Y-92000000D03*
X154000000Y-98100000D03*
X161850000Y-116700000D03*
X127300000Y-117500000D03*
X167700000Y-92500000D03*
X163200000Y-101000000D03*
X156311663Y-117109482D03*
X166029000Y-119729000D03*
X150400000Y-109400000D03*
%TO.N,GND*%
X164420870Y-118230783D03*
X145600000Y-117600000D03*
X155700000Y-107600000D03*
X151300000Y-113400000D03*
X165400000Y-96900000D03*
X149087500Y-89500000D03*
X142000000Y-95000000D03*
X165500000Y-120600000D03*
X153900000Y-99700000D03*
X179600000Y-113400000D03*
X133100000Y-93900000D03*
X140800000Y-108200000D03*
X179640000Y-94400000D03*
X133700000Y-111900000D03*
X152500000Y-116100000D03*
X162100000Y-119030000D03*
X130550000Y-104700000D03*
X167000000Y-110400000D03*
X164050000Y-116500000D03*
X150384265Y-113715735D03*
X162300000Y-90600000D03*
X167000000Y-116500000D03*
X149200000Y-116400000D03*
X133400000Y-104800000D03*
X162700000Y-84100000D03*
X131550000Y-99300000D03*
X176360000Y-105760000D03*
X155500000Y-120500000D03*
X168400000Y-104400000D03*
X139300000Y-115300000D03*
X172600000Y-102200000D03*
X169500000Y-99510000D03*
X179300000Y-99100000D03*
X127775000Y-88900000D03*
X160000000Y-117100000D03*
X164000000Y-110900000D03*
%TO.N,/STAT_LED*%
X182490000Y-108580000D03*
X146280000Y-108270000D03*
%TO.N,/SD_D0*%
X158000000Y-93530000D03*
X152446656Y-103751511D03*
%TO.N,/SD_D3*%
X158790000Y-86250000D03*
X149302000Y-95821000D03*
%TO.N,/SD_D2*%
X151680000Y-96400000D03*
X157949265Y-87729265D03*
%TO.N,/SD_D1*%
X156260000Y-94210000D03*
X151840000Y-103230000D03*
%TO.N,/JTDI*%
X147310000Y-99850000D03*
%TO.N,/JTMS-SWDIO*%
X148720000Y-100850000D03*
%TO.N,/JTCK-SWCLK*%
X148295000Y-99835000D03*
%TO.N,/JTDO-SWO*%
X145890000Y-94810000D03*
%TO.N,/CAM1_TX*%
X137030000Y-107470000D03*
%TO.N,/CAM1_RX*%
X137321900Y-108214848D03*
%TO.N,/CAM2_RX*%
X138475000Y-110120000D03*
%TO.N,/CAM2_TX*%
X138640000Y-108800000D03*
%TO.N,/TELEM_TX*%
X145350000Y-101190000D03*
%TO.N,/TELEM_RX*%
X145510000Y-100300000D03*
%TO.N,/BUZZ*%
X141000000Y-111150000D03*
X140950000Y-105300000D03*
%TO.N,/I2C_SCL*%
X145450000Y-103900000D03*
X144775000Y-115205000D03*
X143445024Y-112590000D03*
X162760000Y-119840000D03*
X155420000Y-118540000D03*
%TO.N,/I2C_SDA*%
X145294265Y-105025735D03*
X164182499Y-119470002D03*
X146005000Y-115085000D03*
X154340000Y-117074998D03*
%TO.N,/LPS22HB_INT*%
X164000000Y-117610000D03*
X144850000Y-108370000D03*
%TO.N,/LSM6_INT2*%
X157550000Y-117520000D03*
X144820000Y-112080000D03*
%TO.N,/CAN_STBD*%
X145185000Y-107045000D03*
X157410000Y-114050000D03*
%TO.N,/LSM6_INT1*%
X144790000Y-112960000D03*
X150940000Y-116490000D03*
%TO.N,/ADXL375_INT1*%
X148200000Y-119400000D03*
X141800000Y-111780000D03*
%TO.N,/ADXL375_INT2*%
X142650000Y-112040000D03*
X145570000Y-118760000D03*
%TO.N,/CAN_SHD*%
X153720000Y-114110000D03*
X144860000Y-111130000D03*
%TD*%
%TA.AperFunction,Conductor*%
%TO.N,GND*%
G36*
X178857513Y-82020185D02*
G01*
X178903268Y-82072989D01*
X178913212Y-82142147D01*
X178884187Y-82205703D01*
X178869139Y-82220353D01*
X178646367Y-82403176D01*
X178403176Y-82646367D01*
X178184985Y-82912234D01*
X178184975Y-82912248D01*
X177993904Y-83198206D01*
X177993893Y-83198224D01*
X177831772Y-83501530D01*
X177831770Y-83501535D01*
X177700150Y-83819293D01*
X177600308Y-84148427D01*
X177533210Y-84485750D01*
X177499500Y-84828034D01*
X177499500Y-85171965D01*
X177533210Y-85514249D01*
X177600308Y-85851572D01*
X177700150Y-86180706D01*
X177831770Y-86498464D01*
X177831772Y-86498469D01*
X177993893Y-86801775D01*
X177993904Y-86801793D01*
X178019758Y-86840486D01*
X178139529Y-87019737D01*
X178184975Y-87087751D01*
X178184985Y-87087765D01*
X178403176Y-87353632D01*
X178646367Y-87596823D01*
X178646372Y-87596827D01*
X178646373Y-87596828D01*
X178912240Y-87815019D01*
X179198213Y-88006100D01*
X179198222Y-88006105D01*
X179198224Y-88006106D01*
X179501530Y-88168227D01*
X179501532Y-88168227D01*
X179501538Y-88168231D01*
X179819295Y-88299850D01*
X180148422Y-88399690D01*
X180485750Y-88466789D01*
X180828031Y-88500500D01*
X180828034Y-88500500D01*
X181171966Y-88500500D01*
X181171969Y-88500500D01*
X181514250Y-88466789D01*
X181851578Y-88399690D01*
X182180705Y-88299850D01*
X182498462Y-88168231D01*
X182801787Y-88006100D01*
X183087760Y-87815019D01*
X183353627Y-87596828D01*
X183596828Y-87353627D01*
X183779648Y-87130859D01*
X183837392Y-87091526D01*
X183907237Y-87089655D01*
X183967005Y-87125842D01*
X183997721Y-87188598D01*
X183999500Y-87209525D01*
X183999500Y-115790474D01*
X183979815Y-115857513D01*
X183927011Y-115903268D01*
X183857853Y-115913212D01*
X183794297Y-115884187D01*
X183779647Y-115869139D01*
X183596823Y-115646367D01*
X183353632Y-115403176D01*
X183087765Y-115184985D01*
X183087764Y-115184984D01*
X183087760Y-115184981D01*
X182801787Y-114993900D01*
X182801782Y-114993897D01*
X182801775Y-114993893D01*
X182498469Y-114831772D01*
X182498464Y-114831770D01*
X182484116Y-114825827D01*
X182369159Y-114778210D01*
X182180706Y-114700150D01*
X181851572Y-114600308D01*
X181514248Y-114533210D01*
X181514249Y-114533210D01*
X181256456Y-114507821D01*
X181171969Y-114499500D01*
X180828031Y-114499500D01*
X180749966Y-114507188D01*
X180485750Y-114533210D01*
X180148427Y-114600308D01*
X179819293Y-114700150D01*
X179501535Y-114831770D01*
X179501530Y-114831772D01*
X179198224Y-114993893D01*
X179198206Y-114993904D01*
X178912248Y-115184975D01*
X178912234Y-115184985D01*
X178646367Y-115403176D01*
X178403176Y-115646367D01*
X178184985Y-115912234D01*
X178184975Y-115912248D01*
X177993904Y-116198206D01*
X177993893Y-116198224D01*
X177831772Y-116501530D01*
X177831770Y-116501535D01*
X177700150Y-116819293D01*
X177600308Y-117148427D01*
X177533210Y-117485750D01*
X177513208Y-117688844D01*
X177499500Y-117828031D01*
X177499500Y-118171969D01*
X177505156Y-118229394D01*
X177533210Y-118514249D01*
X177600308Y-118851572D01*
X177700150Y-119180706D01*
X177761870Y-119329711D01*
X177830543Y-119495503D01*
X177831770Y-119498464D01*
X177831772Y-119498469D01*
X177993893Y-119801775D01*
X177993904Y-119801793D01*
X178184975Y-120087751D01*
X178184985Y-120087765D01*
X178403176Y-120353632D01*
X178646367Y-120596823D01*
X178869139Y-120779647D01*
X178908473Y-120837392D01*
X178910344Y-120907237D01*
X178874157Y-120967005D01*
X178811401Y-120997721D01*
X178790474Y-120999500D01*
X120209526Y-120999500D01*
X120142487Y-120979815D01*
X120096732Y-120927011D01*
X120086788Y-120857853D01*
X120115813Y-120794297D01*
X120130861Y-120779647D01*
X120300412Y-120640500D01*
X120353627Y-120596828D01*
X120596828Y-120353627D01*
X120815019Y-120087760D01*
X121006100Y-119801787D01*
X121168231Y-119498462D01*
X121299850Y-119180705D01*
X121399690Y-118851578D01*
X121431709Y-118690609D01*
X121433590Y-118681153D01*
X144769500Y-118681153D01*
X144769500Y-118838846D01*
X144800261Y-118993489D01*
X144800264Y-118993501D01*
X144860602Y-119139172D01*
X144860609Y-119139185D01*
X144948210Y-119270288D01*
X144948213Y-119270292D01*
X145059707Y-119381786D01*
X145059711Y-119381789D01*
X145190814Y-119469390D01*
X145190827Y-119469397D01*
X145304541Y-119516498D01*
X145336503Y-119529737D01*
X145491153Y-119560499D01*
X145491156Y-119560500D01*
X145491158Y-119560500D01*
X145648844Y-119560500D01*
X145648845Y-119560499D01*
X145803497Y-119529737D01*
X145949179Y-119469394D01*
X146080289Y-119381789D01*
X146140925Y-119321153D01*
X147399500Y-119321153D01*
X147399500Y-119478846D01*
X147430261Y-119633489D01*
X147430264Y-119633501D01*
X147490602Y-119779172D01*
X147490609Y-119779185D01*
X147578210Y-119910288D01*
X147578213Y-119910292D01*
X147689707Y-120021786D01*
X147689711Y-120021789D01*
X147820814Y-120109390D01*
X147820827Y-120109397D01*
X147925758Y-120152860D01*
X147966503Y-120169737D01*
X148121153Y-120200499D01*
X148121156Y-120200500D01*
X148121158Y-120200500D01*
X148278844Y-120200500D01*
X148278845Y-120200499D01*
X148433497Y-120169737D01*
X148579179Y-120109394D01*
X148710289Y-120021789D01*
X148821789Y-119910289D01*
X148909394Y-119779179D01*
X148916859Y-119761158D01*
X148954137Y-119671158D01*
X148954139Y-119671153D01*
X150349500Y-119671153D01*
X150349500Y-119828846D01*
X150380261Y-119983489D01*
X150380264Y-119983501D01*
X150440602Y-120129172D01*
X150440609Y-120129185D01*
X150528210Y-120260288D01*
X150528213Y-120260292D01*
X150639707Y-120371786D01*
X150639711Y-120371789D01*
X150770814Y-120459390D01*
X150770827Y-120459397D01*
X150916498Y-120519735D01*
X150916503Y-120519737D01*
X151065578Y-120549390D01*
X151071153Y-120550499D01*
X151071156Y-120550500D01*
X151071158Y-120550500D01*
X151228844Y-120550500D01*
X151228845Y-120550499D01*
X151383497Y-120519737D01*
X151529179Y-120459394D01*
X151660289Y-120371789D01*
X151771789Y-120260289D01*
X151859394Y-120129179D01*
X151919737Y-119983497D01*
X151950500Y-119828842D01*
X151950500Y-119671158D01*
X151950500Y-119671155D01*
X151950499Y-119671153D01*
X151946322Y-119650153D01*
X151919737Y-119516503D01*
X151912264Y-119498462D01*
X151859397Y-119370827D01*
X151859390Y-119370814D01*
X151771789Y-119239711D01*
X151771786Y-119239707D01*
X151660292Y-119128213D01*
X151660288Y-119128210D01*
X151529185Y-119040609D01*
X151529172Y-119040602D01*
X151383501Y-118980264D01*
X151383489Y-118980261D01*
X151228845Y-118949500D01*
X151228842Y-118949500D01*
X151071158Y-118949500D01*
X151071155Y-118949500D01*
X150916510Y-118980261D01*
X150916498Y-118980264D01*
X150770827Y-119040602D01*
X150770814Y-119040609D01*
X150639711Y-119128210D01*
X150639707Y-119128213D01*
X150528213Y-119239707D01*
X150528210Y-119239711D01*
X150440609Y-119370814D01*
X150440602Y-119370827D01*
X150380264Y-119516498D01*
X150380261Y-119516510D01*
X150349500Y-119671153D01*
X148954139Y-119671153D01*
X148969737Y-119633497D01*
X149000500Y-119478842D01*
X149000500Y-119321158D01*
X149000500Y-119321155D01*
X149000499Y-119321153D01*
X148980022Y-119218210D01*
X148969737Y-119166503D01*
X148958416Y-119139172D01*
X148909397Y-119020827D01*
X148909390Y-119020814D01*
X148821789Y-118889711D01*
X148821786Y-118889707D01*
X148710292Y-118778213D01*
X148710288Y-118778210D01*
X148579185Y-118690609D01*
X148579172Y-118690602D01*
X148433501Y-118630264D01*
X148433489Y-118630261D01*
X148278845Y-118599500D01*
X148278842Y-118599500D01*
X148121158Y-118599500D01*
X148121155Y-118599500D01*
X147966510Y-118630261D01*
X147966498Y-118630264D01*
X147820827Y-118690602D01*
X147820814Y-118690609D01*
X147689711Y-118778210D01*
X147689707Y-118778213D01*
X147578213Y-118889707D01*
X147578210Y-118889711D01*
X147490609Y-119020814D01*
X147490602Y-119020827D01*
X147430264Y-119166498D01*
X147430261Y-119166510D01*
X147399500Y-119321153D01*
X146140925Y-119321153D01*
X146191789Y-119270289D01*
X146205751Y-119249394D01*
X146207902Y-119246175D01*
X146279390Y-119139185D01*
X146279390Y-119139184D01*
X146279394Y-119139179D01*
X146283938Y-119128210D01*
X146307940Y-119070263D01*
X146339737Y-118993497D01*
X146370500Y-118838842D01*
X146370500Y-118681158D01*
X146370500Y-118681155D01*
X146370499Y-118681153D01*
X146364467Y-118650827D01*
X146339737Y-118526503D01*
X146328759Y-118500000D01*
X146279397Y-118380827D01*
X146279390Y-118380814D01*
X146191789Y-118249711D01*
X146191786Y-118249707D01*
X146080292Y-118138213D01*
X146080288Y-118138210D01*
X145949185Y-118050609D01*
X145949172Y-118050602D01*
X145803501Y-117990264D01*
X145803489Y-117990261D01*
X145648845Y-117959500D01*
X145648842Y-117959500D01*
X145491158Y-117959500D01*
X145491155Y-117959500D01*
X145336510Y-117990261D01*
X145336498Y-117990264D01*
X145190827Y-118050602D01*
X145190814Y-118050609D01*
X145059711Y-118138210D01*
X145059707Y-118138213D01*
X144948213Y-118249707D01*
X144948210Y-118249711D01*
X144860609Y-118380814D01*
X144860602Y-118380827D01*
X144800264Y-118526498D01*
X144800261Y-118526510D01*
X144769500Y-118681153D01*
X121433590Y-118681153D01*
X121439613Y-118650874D01*
X121439613Y-118650873D01*
X121465703Y-118519711D01*
X121466789Y-118514250D01*
X121500500Y-118171969D01*
X121500500Y-117828031D01*
X121466789Y-117485750D01*
X121453940Y-117421153D01*
X126499500Y-117421153D01*
X126499500Y-117578846D01*
X126530261Y-117733489D01*
X126530264Y-117733501D01*
X126590602Y-117879172D01*
X126590609Y-117879185D01*
X126678210Y-118010288D01*
X126678213Y-118010292D01*
X126789707Y-118121786D01*
X126789711Y-118121789D01*
X126920814Y-118209390D01*
X126920827Y-118209397D01*
X127043633Y-118260264D01*
X127066503Y-118269737D01*
X127221153Y-118300499D01*
X127221156Y-118300500D01*
X127221158Y-118300500D01*
X127378844Y-118300500D01*
X127378845Y-118300499D01*
X127533497Y-118269737D01*
X127679179Y-118209394D01*
X127810289Y-118121789D01*
X127921789Y-118010289D01*
X128009394Y-117879179D01*
X128069737Y-117733497D01*
X128100500Y-117578842D01*
X128100500Y-117421158D01*
X128100500Y-117421155D01*
X128100499Y-117421153D01*
X128091619Y-117376510D01*
X128069737Y-117266503D01*
X128066935Y-117259738D01*
X128009397Y-117120827D01*
X128009390Y-117120814D01*
X127921789Y-116989711D01*
X127921786Y-116989707D01*
X127810292Y-116878213D01*
X127810288Y-116878210D01*
X127679185Y-116790609D01*
X127679172Y-116790602D01*
X127533501Y-116730264D01*
X127533489Y-116730261D01*
X127378845Y-116699500D01*
X127378842Y-116699500D01*
X127221158Y-116699500D01*
X127221155Y-116699500D01*
X127066510Y-116730261D01*
X127066498Y-116730264D01*
X126920827Y-116790602D01*
X126920814Y-116790609D01*
X126789711Y-116878210D01*
X126789707Y-116878213D01*
X126678213Y-116989707D01*
X126678210Y-116989711D01*
X126590609Y-117120814D01*
X126590602Y-117120827D01*
X126530264Y-117266498D01*
X126530261Y-117266510D01*
X126499500Y-117421153D01*
X121453940Y-117421153D01*
X121399690Y-117148422D01*
X121299850Y-116819295D01*
X121168231Y-116501538D01*
X121149504Y-116466503D01*
X121119919Y-116411153D01*
X150139500Y-116411153D01*
X150139500Y-116568846D01*
X150170261Y-116723489D01*
X150170264Y-116723501D01*
X150230602Y-116869172D01*
X150230609Y-116869185D01*
X150318210Y-117000288D01*
X150318213Y-117000292D01*
X150429707Y-117111786D01*
X150429711Y-117111789D01*
X150560814Y-117199390D01*
X150560827Y-117199397D01*
X150706498Y-117259735D01*
X150706503Y-117259737D01*
X150841039Y-117286498D01*
X150861153Y-117290499D01*
X150861156Y-117290500D01*
X150861158Y-117290500D01*
X151018844Y-117290500D01*
X151018845Y-117290499D01*
X151173497Y-117259737D01*
X151319179Y-117199394D01*
X151450289Y-117111789D01*
X151561789Y-117000289D01*
X151564554Y-116996151D01*
X153539500Y-116996151D01*
X153539500Y-117153844D01*
X153570261Y-117308487D01*
X153570264Y-117308499D01*
X153630602Y-117454170D01*
X153630609Y-117454183D01*
X153718210Y-117585286D01*
X153718213Y-117585290D01*
X153829707Y-117696784D01*
X153829711Y-117696787D01*
X153960814Y-117784388D01*
X153960827Y-117784395D01*
X154072392Y-117830606D01*
X154106503Y-117844735D01*
X154261153Y-117875497D01*
X154261156Y-117875498D01*
X154261158Y-117875498D01*
X154418844Y-117875498D01*
X154418845Y-117875497D01*
X154573497Y-117844735D01*
X154696944Y-117793601D01*
X154766411Y-117786133D01*
X154828891Y-117817408D01*
X154864543Y-117877497D01*
X154862049Y-117947322D01*
X154832077Y-117995843D01*
X154798214Y-118029706D01*
X154798210Y-118029711D01*
X154710609Y-118160814D01*
X154710602Y-118160827D01*
X154650264Y-118306498D01*
X154650261Y-118306510D01*
X154619500Y-118461153D01*
X154619500Y-118618846D01*
X154650261Y-118773489D01*
X154650264Y-118773501D01*
X154710602Y-118919172D01*
X154710609Y-118919185D01*
X154798210Y-119050288D01*
X154798213Y-119050292D01*
X154909707Y-119161786D01*
X154909711Y-119161789D01*
X155040814Y-119249390D01*
X155040827Y-119249397D01*
X155186498Y-119309735D01*
X155186503Y-119309737D01*
X155341153Y-119340499D01*
X155341156Y-119340500D01*
X155341158Y-119340500D01*
X155498844Y-119340500D01*
X155498845Y-119340499D01*
X155653497Y-119309737D01*
X155799179Y-119249394D01*
X155930289Y-119161789D01*
X156041789Y-119050289D01*
X156108030Y-118951153D01*
X159199500Y-118951153D01*
X159199500Y-119108846D01*
X159230261Y-119263489D01*
X159230264Y-119263501D01*
X159290602Y-119409172D01*
X159290609Y-119409185D01*
X159378210Y-119540288D01*
X159378213Y-119540292D01*
X159489707Y-119651786D01*
X159489711Y-119651789D01*
X159620814Y-119739390D01*
X159620827Y-119739397D01*
X159766498Y-119799735D01*
X159766503Y-119799737D01*
X159912823Y-119828842D01*
X159921153Y-119830499D01*
X159921156Y-119830500D01*
X159921158Y-119830500D01*
X160078844Y-119830500D01*
X160078845Y-119830499D01*
X160233497Y-119799737D01*
X160326648Y-119761153D01*
X161959500Y-119761153D01*
X161959500Y-119918846D01*
X161990261Y-120073489D01*
X161990264Y-120073501D01*
X162050602Y-120219172D01*
X162050609Y-120219185D01*
X162138210Y-120350288D01*
X162138213Y-120350292D01*
X162249707Y-120461786D01*
X162249711Y-120461789D01*
X162380814Y-120549390D01*
X162380827Y-120549397D01*
X162526498Y-120609735D01*
X162526503Y-120609737D01*
X162681153Y-120640499D01*
X162681156Y-120640500D01*
X162681158Y-120640500D01*
X162838844Y-120640500D01*
X162838845Y-120640499D01*
X162993497Y-120609737D01*
X163139179Y-120549394D01*
X163270289Y-120461789D01*
X163381789Y-120350289D01*
X163469394Y-120219179D01*
X163496865Y-120152857D01*
X163540703Y-120098455D01*
X163606997Y-120076389D01*
X163674696Y-120093667D01*
X163680316Y-120097208D01*
X163803313Y-120179392D01*
X163803326Y-120179399D01*
X163947923Y-120239292D01*
X163949002Y-120239739D01*
X164103652Y-120270501D01*
X164103655Y-120270502D01*
X164103657Y-120270502D01*
X164261343Y-120270502D01*
X164261344Y-120270501D01*
X164415996Y-120239739D01*
X164561678Y-120179396D01*
X164692788Y-120091791D01*
X164804288Y-119980291D01*
X164891893Y-119849181D01*
X164952236Y-119703499D01*
X164962522Y-119651789D01*
X164962847Y-119650153D01*
X165228500Y-119650153D01*
X165228500Y-119807846D01*
X165259261Y-119962489D01*
X165259264Y-119962501D01*
X165319602Y-120108172D01*
X165319609Y-120108185D01*
X165407210Y-120239288D01*
X165407213Y-120239292D01*
X165518707Y-120350786D01*
X165518711Y-120350789D01*
X165649814Y-120438390D01*
X165649827Y-120438397D01*
X165795498Y-120498735D01*
X165795503Y-120498737D01*
X165950153Y-120529499D01*
X165950156Y-120529500D01*
X165950158Y-120529500D01*
X166107844Y-120529500D01*
X166107845Y-120529499D01*
X166262497Y-120498737D01*
X166408179Y-120438394D01*
X166539289Y-120350789D01*
X166650789Y-120239289D01*
X166738394Y-120108179D01*
X166746856Y-120087751D01*
X166752763Y-120073489D01*
X166798737Y-119962497D01*
X166829500Y-119807842D01*
X166829500Y-119650158D01*
X166829500Y-119650155D01*
X166829499Y-119650153D01*
X166811666Y-119560500D01*
X166798737Y-119495503D01*
X166798735Y-119495498D01*
X166738397Y-119349827D01*
X166738390Y-119349814D01*
X166650789Y-119218711D01*
X166650786Y-119218707D01*
X166539292Y-119107213D01*
X166539288Y-119107210D01*
X166408185Y-119019609D01*
X166408172Y-119019602D01*
X166262501Y-118959264D01*
X166262489Y-118959261D01*
X166107845Y-118928500D01*
X166107842Y-118928500D01*
X165950158Y-118928500D01*
X165950155Y-118928500D01*
X165795510Y-118959261D01*
X165795498Y-118959264D01*
X165649827Y-119019602D01*
X165649814Y-119019609D01*
X165518711Y-119107210D01*
X165518707Y-119107213D01*
X165407213Y-119218707D01*
X165407210Y-119218711D01*
X165319609Y-119349814D01*
X165319602Y-119349827D01*
X165259264Y-119495498D01*
X165259261Y-119495510D01*
X165228500Y-119650153D01*
X164962847Y-119650153D01*
X164968871Y-119619874D01*
X164968871Y-119619873D01*
X164982998Y-119548848D01*
X164982999Y-119548846D01*
X164982999Y-119391157D01*
X164982998Y-119391155D01*
X164978952Y-119370814D01*
X164952236Y-119236505D01*
X164944659Y-119218213D01*
X164891896Y-119090829D01*
X164891889Y-119090816D01*
X164804288Y-118959713D01*
X164804285Y-118959709D01*
X164692791Y-118848215D01*
X164692787Y-118848212D01*
X164561684Y-118760611D01*
X164561671Y-118760604D01*
X164416000Y-118700266D01*
X164415988Y-118700263D01*
X164261344Y-118669502D01*
X164261341Y-118669502D01*
X164103657Y-118669502D01*
X164103654Y-118669502D01*
X163949009Y-118700263D01*
X163948997Y-118700266D01*
X163803326Y-118760604D01*
X163803313Y-118760611D01*
X163672210Y-118848212D01*
X163672206Y-118848215D01*
X163560712Y-118959709D01*
X163560709Y-118959713D01*
X163473108Y-119090816D01*
X163473105Y-119090823D01*
X163445633Y-119157145D01*
X163401791Y-119211548D01*
X163335497Y-119233612D01*
X163267798Y-119216332D01*
X163262181Y-119212793D01*
X163139185Y-119130609D01*
X163139172Y-119130602D01*
X162993501Y-119070264D01*
X162993489Y-119070261D01*
X162838845Y-119039500D01*
X162838842Y-119039500D01*
X162681158Y-119039500D01*
X162681155Y-119039500D01*
X162526510Y-119070261D01*
X162526498Y-119070264D01*
X162380827Y-119130602D01*
X162380814Y-119130609D01*
X162249711Y-119218210D01*
X162249707Y-119218213D01*
X162138213Y-119329707D01*
X162138210Y-119329711D01*
X162050609Y-119460814D01*
X162050602Y-119460827D01*
X161990264Y-119606498D01*
X161990261Y-119606510D01*
X161959500Y-119761153D01*
X160326648Y-119761153D01*
X160379179Y-119739394D01*
X160432909Y-119703493D01*
X160510028Y-119651964D01*
X160510194Y-119651852D01*
X160510289Y-119651789D01*
X160621789Y-119540289D01*
X160709394Y-119409179D01*
X160769737Y-119263497D01*
X160800500Y-119108842D01*
X160800500Y-118951158D01*
X160800500Y-118951155D01*
X160800499Y-118951153D01*
X160794139Y-118919179D01*
X160769737Y-118796503D01*
X160760208Y-118773497D01*
X160709397Y-118650827D01*
X160709390Y-118650814D01*
X160621789Y-118519711D01*
X160621786Y-118519707D01*
X160510292Y-118408213D01*
X160510288Y-118408210D01*
X160379185Y-118320609D01*
X160379172Y-118320602D01*
X160233501Y-118260264D01*
X160233489Y-118260261D01*
X160078845Y-118229500D01*
X160078842Y-118229500D01*
X159921158Y-118229500D01*
X159921155Y-118229500D01*
X159766510Y-118260261D01*
X159766498Y-118260264D01*
X159620827Y-118320602D01*
X159620814Y-118320609D01*
X159489711Y-118408210D01*
X159489707Y-118408213D01*
X159378213Y-118519707D01*
X159378210Y-118519711D01*
X159290609Y-118650814D01*
X159290602Y-118650827D01*
X159230264Y-118796498D01*
X159230261Y-118796510D01*
X159199500Y-118951153D01*
X156108030Y-118951153D01*
X156129394Y-118919179D01*
X156129397Y-118919172D01*
X156138327Y-118897614D01*
X156180205Y-118796510D01*
X156189737Y-118773497D01*
X156220500Y-118618842D01*
X156220500Y-118461158D01*
X156220500Y-118461155D01*
X156220499Y-118461153D01*
X156210423Y-118410499D01*
X156189737Y-118306503D01*
X156189735Y-118306498D01*
X156129397Y-118160827D01*
X156129390Y-118160814D01*
X156086562Y-118096718D01*
X156065684Y-118030041D01*
X156084168Y-117962661D01*
X156136147Y-117915970D01*
X156205117Y-117904794D01*
X156213856Y-117906210D01*
X156232818Y-117909982D01*
X156232821Y-117909982D01*
X156390507Y-117909982D01*
X156390508Y-117909981D01*
X156545160Y-117879219D01*
X156675722Y-117825138D01*
X156745190Y-117817670D01*
X156807669Y-117848945D01*
X156837733Y-117892244D01*
X156840604Y-117899176D01*
X156840609Y-117899185D01*
X156928210Y-118030288D01*
X156928213Y-118030292D01*
X157039707Y-118141786D01*
X157039711Y-118141789D01*
X157170814Y-118229390D01*
X157170827Y-118229397D01*
X157316498Y-118289735D01*
X157316503Y-118289737D01*
X157465578Y-118319390D01*
X157471153Y-118320499D01*
X157471156Y-118320500D01*
X157471158Y-118320500D01*
X157628844Y-118320500D01*
X157628845Y-118320499D01*
X157783497Y-118289737D01*
X157929179Y-118229394D01*
X158060289Y-118141789D01*
X158171789Y-118030289D01*
X158259394Y-117899179D01*
X158319737Y-117753497D01*
X158350500Y-117598842D01*
X158350500Y-117531153D01*
X163199500Y-117531153D01*
X163199500Y-117688846D01*
X163230261Y-117843489D01*
X163230264Y-117843501D01*
X163290602Y-117989172D01*
X163290609Y-117989185D01*
X163378210Y-118120288D01*
X163378213Y-118120292D01*
X163489707Y-118231786D01*
X163489711Y-118231789D01*
X163620814Y-118319390D01*
X163620827Y-118319397D01*
X163766498Y-118379735D01*
X163766503Y-118379737D01*
X163909661Y-118408213D01*
X163921153Y-118410499D01*
X163921156Y-118410500D01*
X163921158Y-118410500D01*
X164078844Y-118410500D01*
X164078845Y-118410499D01*
X164233497Y-118379737D01*
X164379179Y-118319394D01*
X164510289Y-118231789D01*
X164621789Y-118120289D01*
X164709394Y-117989179D01*
X164769737Y-117843497D01*
X164800500Y-117688842D01*
X164800500Y-117531158D01*
X164800500Y-117531155D01*
X164800499Y-117531153D01*
X164794402Y-117500500D01*
X164769737Y-117376503D01*
X164741569Y-117308499D01*
X164709397Y-117230827D01*
X164709390Y-117230814D01*
X164621789Y-117099711D01*
X164621786Y-117099707D01*
X164510292Y-116988213D01*
X164510288Y-116988210D01*
X164379185Y-116900609D01*
X164379172Y-116900602D01*
X164233501Y-116840264D01*
X164233489Y-116840261D01*
X164078845Y-116809500D01*
X164078842Y-116809500D01*
X163921158Y-116809500D01*
X163921155Y-116809500D01*
X163766510Y-116840261D01*
X163766498Y-116840264D01*
X163620827Y-116900602D01*
X163620814Y-116900609D01*
X163489711Y-116988210D01*
X163489707Y-116988213D01*
X163378213Y-117099707D01*
X163378210Y-117099711D01*
X163290609Y-117230814D01*
X163290602Y-117230827D01*
X163230264Y-117376498D01*
X163230261Y-117376510D01*
X163199500Y-117531153D01*
X158350500Y-117531153D01*
X158350500Y-117441158D01*
X158350500Y-117441155D01*
X158350499Y-117441153D01*
X158344181Y-117409390D01*
X158319737Y-117286503D01*
X158308650Y-117259737D01*
X158259397Y-117140827D01*
X158259390Y-117140814D01*
X158171789Y-117009711D01*
X158171786Y-117009707D01*
X158060292Y-116898213D01*
X158060288Y-116898210D01*
X157929185Y-116810609D01*
X157929172Y-116810602D01*
X157783501Y-116750264D01*
X157783489Y-116750261D01*
X157715229Y-116736683D01*
X157715228Y-116736683D01*
X157628844Y-116719500D01*
X157628842Y-116719500D01*
X157471158Y-116719500D01*
X157471155Y-116719500D01*
X157316510Y-116750261D01*
X157316498Y-116750264D01*
X157185941Y-116804342D01*
X157116471Y-116811811D01*
X157053992Y-116780535D01*
X157023929Y-116737236D01*
X157021056Y-116730301D01*
X157021055Y-116730299D01*
X156948125Y-116621153D01*
X161049500Y-116621153D01*
X161049500Y-116778846D01*
X161080261Y-116933489D01*
X161080264Y-116933501D01*
X161140602Y-117079172D01*
X161140609Y-117079185D01*
X161228210Y-117210288D01*
X161228213Y-117210292D01*
X161339707Y-117321786D01*
X161339711Y-117321789D01*
X161470814Y-117409390D01*
X161470827Y-117409397D01*
X161578952Y-117454183D01*
X161616503Y-117469737D01*
X161771153Y-117500499D01*
X161771156Y-117500500D01*
X161771158Y-117500500D01*
X161928844Y-117500500D01*
X161928845Y-117500499D01*
X162083497Y-117469737D01*
X162152501Y-117441155D01*
X162226498Y-117410505D01*
X162226499Y-117410504D01*
X162229179Y-117409394D01*
X162360289Y-117321789D01*
X162471789Y-117210289D01*
X162559394Y-117079179D01*
X162619737Y-116933497D01*
X162650500Y-116778842D01*
X162650500Y-116621158D01*
X162650500Y-116621155D01*
X162650499Y-116621153D01*
X162640094Y-116568844D01*
X162619737Y-116466503D01*
X162614231Y-116453211D01*
X162559397Y-116320827D01*
X162559390Y-116320814D01*
X162471789Y-116189711D01*
X162471786Y-116189707D01*
X162360292Y-116078213D01*
X162360288Y-116078210D01*
X162229185Y-115990609D01*
X162229172Y-115990602D01*
X162083501Y-115930264D01*
X162083489Y-115930261D01*
X161928845Y-115899500D01*
X161928842Y-115899500D01*
X161771158Y-115899500D01*
X161771155Y-115899500D01*
X161616510Y-115930261D01*
X161616498Y-115930264D01*
X161470827Y-115990602D01*
X161470814Y-115990609D01*
X161339711Y-116078210D01*
X161339707Y-116078213D01*
X161228213Y-116189707D01*
X161228210Y-116189711D01*
X161140609Y-116320814D01*
X161140602Y-116320827D01*
X161080264Y-116466498D01*
X161080261Y-116466510D01*
X161049500Y-116621153D01*
X156948125Y-116621153D01*
X156933452Y-116599193D01*
X156933449Y-116599189D01*
X156821955Y-116487695D01*
X156821951Y-116487692D01*
X156690848Y-116400091D01*
X156690835Y-116400084D01*
X156545164Y-116339746D01*
X156545152Y-116339743D01*
X156390508Y-116308982D01*
X156390505Y-116308982D01*
X156232821Y-116308982D01*
X156232818Y-116308982D01*
X156078173Y-116339743D01*
X156078161Y-116339746D01*
X155932490Y-116400084D01*
X155932477Y-116400091D01*
X155801374Y-116487692D01*
X155801370Y-116487695D01*
X155689876Y-116599189D01*
X155689873Y-116599193D01*
X155602272Y-116730296D01*
X155602265Y-116730309D01*
X155541927Y-116875980D01*
X155541924Y-116875992D01*
X155511163Y-117030635D01*
X155511163Y-117188328D01*
X155541924Y-117342971D01*
X155541927Y-117342983D01*
X155602265Y-117488654D01*
X155602272Y-117488667D01*
X155645100Y-117552763D01*
X155665978Y-117619441D01*
X155647493Y-117686821D01*
X155595515Y-117733511D01*
X155526545Y-117744687D01*
X155517810Y-117743272D01*
X155498844Y-117739500D01*
X155498842Y-117739500D01*
X155341158Y-117739500D01*
X155341155Y-117739500D01*
X155186510Y-117770261D01*
X155186498Y-117770264D01*
X155063056Y-117821395D01*
X154993586Y-117828864D01*
X154931107Y-117797588D01*
X154895456Y-117737499D01*
X154897950Y-117667674D01*
X154927924Y-117619152D01*
X154961786Y-117585290D01*
X154961789Y-117585287D01*
X155049394Y-117454177D01*
X155109737Y-117308495D01*
X155140500Y-117153840D01*
X155140500Y-116996156D01*
X155140500Y-116996153D01*
X155140499Y-116996151D01*
X155121017Y-116898210D01*
X155109737Y-116841501D01*
X155096482Y-116809500D01*
X155049397Y-116695825D01*
X155049390Y-116695812D01*
X154961789Y-116564709D01*
X154961786Y-116564705D01*
X154850292Y-116453211D01*
X154850288Y-116453208D01*
X154719185Y-116365607D01*
X154719172Y-116365600D01*
X154573501Y-116305262D01*
X154573489Y-116305259D01*
X154418845Y-116274498D01*
X154418842Y-116274498D01*
X154261158Y-116274498D01*
X154261155Y-116274498D01*
X154106510Y-116305259D01*
X154106498Y-116305262D01*
X153960827Y-116365600D01*
X153960814Y-116365607D01*
X153829711Y-116453208D01*
X153829707Y-116453211D01*
X153718213Y-116564705D01*
X153718210Y-116564709D01*
X153630609Y-116695812D01*
X153630602Y-116695825D01*
X153570264Y-116841496D01*
X153570261Y-116841508D01*
X153539500Y-116996151D01*
X151564554Y-116996151D01*
X151597560Y-116946753D01*
X151614653Y-116921173D01*
X151649390Y-116869185D01*
X151649390Y-116869184D01*
X151649394Y-116869179D01*
X151709737Y-116723497D01*
X151740500Y-116568842D01*
X151740500Y-116411158D01*
X151740500Y-116411155D01*
X151740499Y-116411153D01*
X151726295Y-116339745D01*
X151709737Y-116256503D01*
X151690224Y-116209394D01*
X151649397Y-116110827D01*
X151649390Y-116110814D01*
X151561789Y-115979711D01*
X151561786Y-115979707D01*
X151450292Y-115868213D01*
X151450288Y-115868210D01*
X151319185Y-115780609D01*
X151319172Y-115780602D01*
X151173501Y-115720264D01*
X151173489Y-115720261D01*
X151018845Y-115689500D01*
X151018842Y-115689500D01*
X150861158Y-115689500D01*
X150861155Y-115689500D01*
X150706510Y-115720261D01*
X150706498Y-115720264D01*
X150560827Y-115780602D01*
X150560814Y-115780609D01*
X150429711Y-115868210D01*
X150429707Y-115868213D01*
X150318213Y-115979707D01*
X150318210Y-115979711D01*
X150230609Y-116110814D01*
X150230602Y-116110827D01*
X150170264Y-116256498D01*
X150170261Y-116256510D01*
X150139500Y-116411153D01*
X121119919Y-116411153D01*
X121006106Y-116198224D01*
X121006105Y-116198222D01*
X121006100Y-116198213D01*
X120815019Y-115912240D01*
X120596828Y-115646373D01*
X120596827Y-115646372D01*
X120596823Y-115646367D01*
X120371609Y-115421153D01*
X139899500Y-115421153D01*
X139899500Y-115578846D01*
X139930261Y-115733489D01*
X139930264Y-115733501D01*
X139990602Y-115879172D01*
X139990609Y-115879185D01*
X140078210Y-116010288D01*
X140078213Y-116010292D01*
X140189707Y-116121786D01*
X140189711Y-116121789D01*
X140320814Y-116209390D01*
X140320827Y-116209397D01*
X140434541Y-116256498D01*
X140466503Y-116269737D01*
X140621153Y-116300499D01*
X140621156Y-116300500D01*
X140621158Y-116300500D01*
X140778844Y-116300500D01*
X140778845Y-116300499D01*
X140804236Y-116295448D01*
X140864560Y-116283450D01*
X140864565Y-116283449D01*
X140913691Y-116273676D01*
X140933497Y-116269737D01*
X141079179Y-116209394D01*
X141210289Y-116121789D01*
X141321789Y-116010289D01*
X141409394Y-115879179D01*
X141413938Y-115868210D01*
X141437468Y-115811401D01*
X141469737Y-115733497D01*
X141500500Y-115578842D01*
X141500500Y-115421158D01*
X141500500Y-115421155D01*
X141500499Y-115421153D01*
X141496922Y-115403172D01*
X141469737Y-115266503D01*
X141469735Y-115266498D01*
X141428737Y-115167518D01*
X141411603Y-115126153D01*
X143974500Y-115126153D01*
X143974500Y-115283846D01*
X144005261Y-115438489D01*
X144005264Y-115438501D01*
X144065602Y-115584172D01*
X144065609Y-115584185D01*
X144153210Y-115715288D01*
X144153213Y-115715292D01*
X144264707Y-115826786D01*
X144264711Y-115826789D01*
X144395814Y-115914390D01*
X144395827Y-115914397D01*
X144541498Y-115974735D01*
X144541503Y-115974737D01*
X144696153Y-116005499D01*
X144696156Y-116005500D01*
X144696158Y-116005500D01*
X144853844Y-116005500D01*
X144853845Y-116005499D01*
X145008497Y-115974737D01*
X145154179Y-115914394D01*
X145285289Y-115826789D01*
X145369149Y-115742928D01*
X145430470Y-115709445D01*
X145500162Y-115714429D01*
X145525720Y-115727509D01*
X145625814Y-115794390D01*
X145625827Y-115794397D01*
X145704032Y-115826790D01*
X145771503Y-115854737D01*
X145894411Y-115879185D01*
X145926153Y-115885499D01*
X145926156Y-115885500D01*
X145926158Y-115885500D01*
X146083844Y-115885500D01*
X146083845Y-115885499D01*
X146238497Y-115854737D01*
X146384179Y-115794394D01*
X146515289Y-115706789D01*
X146626789Y-115595289D01*
X146714394Y-115464179D01*
X146773637Y-115321153D01*
X147399500Y-115321153D01*
X147399500Y-115478846D01*
X147430261Y-115633489D01*
X147430264Y-115633501D01*
X147490602Y-115779172D01*
X147490609Y-115779185D01*
X147578210Y-115910288D01*
X147578213Y-115910292D01*
X147689707Y-116021786D01*
X147689711Y-116021789D01*
X147820814Y-116109390D01*
X147820827Y-116109397D01*
X147966498Y-116169735D01*
X147966503Y-116169737D01*
X148109661Y-116198213D01*
X148121153Y-116200499D01*
X148121156Y-116200500D01*
X148121158Y-116200500D01*
X148278844Y-116200500D01*
X148278845Y-116200499D01*
X148433497Y-116169737D01*
X148549262Y-116121786D01*
X148579172Y-116109397D01*
X148579172Y-116109396D01*
X148579179Y-116109394D01*
X148710289Y-116021789D01*
X148821789Y-115910289D01*
X148909394Y-115779179D01*
X148969737Y-115633497D01*
X149000500Y-115478842D01*
X149000500Y-115321158D01*
X149000500Y-115321155D01*
X149000499Y-115321153D01*
X148973413Y-115184985D01*
X148969737Y-115166503D01*
X148969735Y-115166498D01*
X148909397Y-115020827D01*
X148909390Y-115020814D01*
X148821789Y-114889711D01*
X148821786Y-114889707D01*
X148710292Y-114778213D01*
X148710288Y-114778210D01*
X148579185Y-114690609D01*
X148579172Y-114690602D01*
X148433501Y-114630264D01*
X148433489Y-114630261D01*
X148278845Y-114599500D01*
X148278842Y-114599500D01*
X148121158Y-114599500D01*
X148121155Y-114599500D01*
X147966510Y-114630261D01*
X147966498Y-114630264D01*
X147820827Y-114690602D01*
X147820814Y-114690609D01*
X147689711Y-114778210D01*
X147689707Y-114778213D01*
X147578213Y-114889707D01*
X147578210Y-114889711D01*
X147490609Y-115020814D01*
X147490602Y-115020827D01*
X147430264Y-115166498D01*
X147430261Y-115166510D01*
X147399500Y-115321153D01*
X146773637Y-115321153D01*
X146774737Y-115318497D01*
X146781631Y-115283842D01*
X146804969Y-115166510D01*
X146805500Y-115163842D01*
X146805500Y-115006158D01*
X146805500Y-115006155D01*
X146805499Y-115006153D01*
X146774737Y-114851503D01*
X146766564Y-114831772D01*
X146714397Y-114705827D01*
X146714390Y-114705814D01*
X146626789Y-114574711D01*
X146626786Y-114574707D01*
X146515292Y-114463213D01*
X146515288Y-114463210D01*
X146384185Y-114375609D01*
X146384172Y-114375602D01*
X146238501Y-114315264D01*
X146238489Y-114315261D01*
X146083845Y-114284500D01*
X146083842Y-114284500D01*
X145926158Y-114284500D01*
X145926155Y-114284500D01*
X145771510Y-114315261D01*
X145771498Y-114315264D01*
X145625827Y-114375602D01*
X145625814Y-114375609D01*
X145494711Y-114463210D01*
X145410851Y-114547070D01*
X145349527Y-114580554D01*
X145279836Y-114575570D01*
X145254279Y-114562490D01*
X145154185Y-114495609D01*
X145154172Y-114495602D01*
X145008501Y-114435264D01*
X145008489Y-114435261D01*
X144853845Y-114404500D01*
X144853842Y-114404500D01*
X144696158Y-114404500D01*
X144696155Y-114404500D01*
X144541510Y-114435261D01*
X144541498Y-114435264D01*
X144395827Y-114495602D01*
X144395814Y-114495609D01*
X144264711Y-114583210D01*
X144264707Y-114583213D01*
X144153213Y-114694707D01*
X144153210Y-114694711D01*
X144065609Y-114825814D01*
X144065602Y-114825827D01*
X144005264Y-114971498D01*
X144005261Y-114971510D01*
X143974500Y-115126153D01*
X141411603Y-115126153D01*
X141409397Y-115120827D01*
X141409390Y-115120814D01*
X141321789Y-114989711D01*
X141321786Y-114989707D01*
X141210292Y-114878213D01*
X141210288Y-114878210D01*
X141079185Y-114790609D01*
X141079172Y-114790602D01*
X140933501Y-114730264D01*
X140933489Y-114730261D01*
X140778845Y-114699500D01*
X140778842Y-114699500D01*
X140621158Y-114699500D01*
X140621155Y-114699500D01*
X140466510Y-114730261D01*
X140466498Y-114730264D01*
X140320827Y-114790602D01*
X140320814Y-114790609D01*
X140189711Y-114878210D01*
X140189707Y-114878213D01*
X140078213Y-114989707D01*
X140078210Y-114989711D01*
X139990609Y-115120814D01*
X139990602Y-115120827D01*
X139930264Y-115266498D01*
X139930261Y-115266510D01*
X139899500Y-115421153D01*
X120371609Y-115421153D01*
X120353632Y-115403176D01*
X120087765Y-115184985D01*
X120087764Y-115184984D01*
X120087760Y-115184981D01*
X119801787Y-114993900D01*
X119801782Y-114993897D01*
X119801775Y-114993893D01*
X119498469Y-114831772D01*
X119498464Y-114831770D01*
X119484116Y-114825827D01*
X119369159Y-114778210D01*
X119180706Y-114700150D01*
X118851572Y-114600308D01*
X118514248Y-114533210D01*
X118514249Y-114533210D01*
X118256456Y-114507821D01*
X118171969Y-114499500D01*
X117828031Y-114499500D01*
X117749966Y-114507188D01*
X117485750Y-114533210D01*
X117148427Y-114600308D01*
X116819293Y-114700150D01*
X116501535Y-114831770D01*
X116501530Y-114831772D01*
X116198224Y-114993893D01*
X116198206Y-114993904D01*
X115912248Y-115184975D01*
X115912234Y-115184985D01*
X115646367Y-115403176D01*
X115403176Y-115646367D01*
X115220353Y-115869139D01*
X115162608Y-115908473D01*
X115092763Y-115910344D01*
X115032995Y-115874157D01*
X115002279Y-115811401D01*
X115000500Y-115790474D01*
X115000500Y-114031153D01*
X152919500Y-114031153D01*
X152919500Y-114188846D01*
X152950261Y-114343489D01*
X152950264Y-114343501D01*
X153010602Y-114489172D01*
X153010609Y-114489185D01*
X153098210Y-114620288D01*
X153098213Y-114620292D01*
X153209707Y-114731786D01*
X153209711Y-114731789D01*
X153340814Y-114819390D01*
X153340827Y-114819397D01*
X153418356Y-114851510D01*
X153486503Y-114879737D01*
X153641153Y-114910499D01*
X153641156Y-114910500D01*
X153641158Y-114910500D01*
X153798844Y-114910500D01*
X153798845Y-114910499D01*
X153953497Y-114879737D01*
X154099179Y-114819394D01*
X154230289Y-114731789D01*
X154341789Y-114620289D01*
X154429394Y-114489179D01*
X154489737Y-114343497D01*
X154520500Y-114188842D01*
X154520500Y-114031158D01*
X154520500Y-114031155D01*
X154520499Y-114031153D01*
X154512166Y-113989257D01*
X154508565Y-113971153D01*
X156609500Y-113971153D01*
X156609500Y-114128846D01*
X156640261Y-114283489D01*
X156640264Y-114283501D01*
X156700602Y-114429172D01*
X156700609Y-114429185D01*
X156788210Y-114560288D01*
X156788213Y-114560292D01*
X156899707Y-114671786D01*
X156899711Y-114671789D01*
X157030814Y-114759390D01*
X157030827Y-114759397D01*
X157106181Y-114790609D01*
X157176503Y-114819737D01*
X157331153Y-114850499D01*
X157331156Y-114850500D01*
X157331158Y-114850500D01*
X157488844Y-114850500D01*
X157488845Y-114850499D01*
X157643497Y-114819737D01*
X157789179Y-114759394D01*
X157920289Y-114671789D01*
X158031789Y-114560289D01*
X158119394Y-114429179D01*
X158179737Y-114283497D01*
X158210500Y-114128842D01*
X158210500Y-113971158D01*
X158210500Y-113971155D01*
X158210499Y-113971153D01*
X158179738Y-113816510D01*
X158179737Y-113816503D01*
X158143797Y-113729735D01*
X158119397Y-113670827D01*
X158119390Y-113670814D01*
X158031789Y-113539711D01*
X158031786Y-113539707D01*
X157920292Y-113428213D01*
X157920288Y-113428210D01*
X157789185Y-113340609D01*
X157789172Y-113340602D01*
X157643501Y-113280264D01*
X157643489Y-113280261D01*
X157488845Y-113249500D01*
X157488842Y-113249500D01*
X157331158Y-113249500D01*
X157331155Y-113249500D01*
X157176510Y-113280261D01*
X157176498Y-113280264D01*
X157030827Y-113340602D01*
X157030814Y-113340609D01*
X156899711Y-113428210D01*
X156899707Y-113428213D01*
X156788213Y-113539707D01*
X156788210Y-113539711D01*
X156700609Y-113670814D01*
X156700602Y-113670827D01*
X156640264Y-113816498D01*
X156640261Y-113816510D01*
X156609500Y-113971153D01*
X154508565Y-113971153D01*
X154489738Y-113876508D01*
X154489737Y-113876507D01*
X154489737Y-113876503D01*
X154489735Y-113876498D01*
X154429397Y-113730827D01*
X154429390Y-113730814D01*
X154341789Y-113599711D01*
X154341786Y-113599707D01*
X154230292Y-113488213D01*
X154230288Y-113488210D01*
X154099185Y-113400609D01*
X154099172Y-113400602D01*
X153953501Y-113340264D01*
X153953489Y-113340261D01*
X153798845Y-113309500D01*
X153798842Y-113309500D01*
X153641158Y-113309500D01*
X153641155Y-113309500D01*
X153486510Y-113340261D01*
X153486498Y-113340264D01*
X153340827Y-113400602D01*
X153340814Y-113400609D01*
X153209711Y-113488210D01*
X153209707Y-113488213D01*
X153098213Y-113599707D01*
X153098210Y-113599711D01*
X153010609Y-113730814D01*
X153010602Y-113730827D01*
X152950264Y-113876498D01*
X152950261Y-113876510D01*
X152919500Y-114031153D01*
X115000500Y-114031153D01*
X115000500Y-107849983D01*
X117499500Y-107849983D01*
X117499500Y-109150001D01*
X117499501Y-109150018D01*
X117510000Y-109252796D01*
X117510001Y-109252799D01*
X117565185Y-109419331D01*
X117565187Y-109419336D01*
X117598628Y-109473552D01*
X117613837Y-109498211D01*
X117657289Y-109568657D01*
X117781344Y-109692712D01*
X117936120Y-109788178D01*
X117982845Y-109840126D01*
X117994068Y-109909088D01*
X117966224Y-109973171D01*
X117958706Y-109981398D01*
X117819889Y-110120215D01*
X117694951Y-110292179D01*
X117598444Y-110481585D01*
X117532753Y-110683760D01*
X117499500Y-110893713D01*
X117499500Y-111106286D01*
X117529977Y-111298713D01*
X117532754Y-111316243D01*
X117597525Y-111515588D01*
X117598444Y-111518414D01*
X117694951Y-111707820D01*
X117819890Y-111879786D01*
X117970213Y-112030109D01*
X118142179Y-112155048D01*
X118142181Y-112155049D01*
X118142184Y-112155051D01*
X118331588Y-112251557D01*
X118533757Y-112317246D01*
X118743713Y-112350500D01*
X118743714Y-112350500D01*
X119256286Y-112350500D01*
X119256287Y-112350500D01*
X119466243Y-112317246D01*
X119668412Y-112251557D01*
X119857816Y-112155051D01*
X120026635Y-112032398D01*
X120029786Y-112030109D01*
X120029788Y-112030106D01*
X120029792Y-112030104D01*
X120180104Y-111879792D01*
X120180106Y-111879788D01*
X120180109Y-111879786D01*
X120298370Y-111717011D01*
X120305051Y-111707816D01*
X120401557Y-111518412D01*
X120467246Y-111316243D01*
X120500500Y-111106287D01*
X120500500Y-111071153D01*
X140199500Y-111071153D01*
X140199500Y-111228846D01*
X140230261Y-111383489D01*
X140230264Y-111383501D01*
X140290602Y-111529172D01*
X140290609Y-111529185D01*
X140378210Y-111660288D01*
X140378213Y-111660292D01*
X140489707Y-111771786D01*
X140489711Y-111771789D01*
X140620814Y-111859390D01*
X140620827Y-111859397D01*
X140737141Y-111907575D01*
X140766503Y-111919737D01*
X140921153Y-111950499D01*
X140921156Y-111950500D01*
X140921158Y-111950500D01*
X140921315Y-111950500D01*
X140921395Y-111950523D01*
X140927218Y-111951097D01*
X140927109Y-111952201D01*
X140988354Y-111970185D01*
X141034109Y-112022989D01*
X141035876Y-112027048D01*
X141090602Y-112159172D01*
X141090609Y-112159185D01*
X141178210Y-112290288D01*
X141178213Y-112290292D01*
X141289707Y-112401786D01*
X141289711Y-112401789D01*
X141420814Y-112489390D01*
X141420827Y-112489397D01*
X141548908Y-112542449D01*
X141566503Y-112549737D01*
X141721153Y-112580499D01*
X141721156Y-112580500D01*
X141721158Y-112580500D01*
X141878843Y-112580500D01*
X141932316Y-112569863D01*
X141963620Y-112563636D01*
X142033211Y-112569863D01*
X142075493Y-112597572D01*
X142139707Y-112661786D01*
X142139711Y-112661789D01*
X142270814Y-112749390D01*
X142270827Y-112749397D01*
X142416498Y-112809735D01*
X142416503Y-112809737D01*
X142571153Y-112840499D01*
X142571156Y-112840500D01*
X142571158Y-112840500D01*
X142599476Y-112840500D01*
X142666515Y-112860185D01*
X142712270Y-112912989D01*
X142714037Y-112917048D01*
X142735630Y-112969179D01*
X142735631Y-112969182D01*
X142823234Y-113100288D01*
X142823237Y-113100292D01*
X142934731Y-113211786D01*
X142934735Y-113211789D01*
X143065838Y-113299390D01*
X143065851Y-113299397D01*
X143211522Y-113359735D01*
X143211527Y-113359737D01*
X143366177Y-113390499D01*
X143366180Y-113390500D01*
X143366182Y-113390500D01*
X143523868Y-113390500D01*
X143523869Y-113390499D01*
X143678521Y-113359737D01*
X143824203Y-113299394D01*
X143886486Y-113257777D01*
X143953162Y-113236899D01*
X144020542Y-113255383D01*
X144067233Y-113307361D01*
X144069937Y-113313424D01*
X144080603Y-113339173D01*
X144080609Y-113339185D01*
X144168210Y-113470288D01*
X144168213Y-113470292D01*
X144279707Y-113581786D01*
X144279711Y-113581789D01*
X144410814Y-113669390D01*
X144410827Y-113669397D01*
X144556498Y-113729735D01*
X144556503Y-113729737D01*
X144711153Y-113760499D01*
X144711156Y-113760500D01*
X144711158Y-113760500D01*
X144868844Y-113760500D01*
X144868845Y-113760499D01*
X145023497Y-113729737D01*
X145136166Y-113683067D01*
X145169172Y-113669397D01*
X145169172Y-113669396D01*
X145169179Y-113669394D01*
X145300289Y-113581789D01*
X145411789Y-113470289D01*
X145499394Y-113339179D01*
X145559737Y-113193497D01*
X145590500Y-113038842D01*
X145590500Y-112881158D01*
X145590500Y-112881155D01*
X145590499Y-112881153D01*
X145586328Y-112860185D01*
X145559737Y-112726503D01*
X145532931Y-112661786D01*
X145505134Y-112594678D01*
X145497665Y-112525209D01*
X145516593Y-112478336D01*
X145529394Y-112459179D01*
X145589737Y-112313497D01*
X145620500Y-112158842D01*
X145620500Y-112001158D01*
X145620500Y-112001155D01*
X145620499Y-112001153D01*
X145596521Y-111880608D01*
X145589737Y-111846503D01*
X145558790Y-111771789D01*
X145529396Y-111700825D01*
X145526525Y-111695454D01*
X145528458Y-111694420D01*
X145510521Y-111637168D01*
X145528994Y-111569784D01*
X145531371Y-111566082D01*
X145569394Y-111509179D01*
X145629737Y-111363497D01*
X145660500Y-111208842D01*
X145660500Y-111051158D01*
X145660500Y-111051155D01*
X145660499Y-111051153D01*
X145644304Y-110969735D01*
X145629737Y-110896503D01*
X145626935Y-110889738D01*
X145589469Y-110799286D01*
X145571118Y-110754983D01*
X170399500Y-110754983D01*
X170399500Y-112355001D01*
X170399501Y-112355018D01*
X170410000Y-112457796D01*
X170410001Y-112457799D01*
X170455359Y-112594678D01*
X170465186Y-112624334D01*
X170557288Y-112773656D01*
X170681344Y-112897712D01*
X170830666Y-112989814D01*
X170997203Y-113044999D01*
X171099991Y-113055500D01*
X172400008Y-113055499D01*
X172502797Y-113044999D01*
X172669334Y-112989814D01*
X172818656Y-112897712D01*
X172942712Y-112773656D01*
X173034814Y-112624334D01*
X173034814Y-112624331D01*
X173038178Y-112618879D01*
X173090126Y-112572154D01*
X173159088Y-112560931D01*
X173223170Y-112588774D01*
X173231398Y-112596294D01*
X173370213Y-112735109D01*
X173542179Y-112860048D01*
X173542181Y-112860049D01*
X173542184Y-112860051D01*
X173731588Y-112956557D01*
X173933757Y-113022246D01*
X174143713Y-113055500D01*
X174143714Y-113055500D01*
X174356286Y-113055500D01*
X174356287Y-113055500D01*
X174566243Y-113022246D01*
X174768412Y-112956557D01*
X174957816Y-112860051D01*
X174984727Y-112840499D01*
X175129786Y-112735109D01*
X175129788Y-112735106D01*
X175129792Y-112735104D01*
X175280104Y-112584792D01*
X175280106Y-112584788D01*
X175280109Y-112584786D01*
X175405048Y-112412820D01*
X175405047Y-112412820D01*
X175405051Y-112412816D01*
X175501557Y-112223412D01*
X175567246Y-112021243D01*
X175600500Y-111811287D01*
X175600500Y-111298713D01*
X175567246Y-111088757D01*
X175501557Y-110886588D01*
X175405051Y-110697184D01*
X175405049Y-110697181D01*
X175405048Y-110697179D01*
X175280109Y-110525213D01*
X175129786Y-110374890D01*
X174957820Y-110249951D01*
X174768414Y-110153444D01*
X174768413Y-110153443D01*
X174768412Y-110153443D01*
X174566243Y-110087754D01*
X174566241Y-110087753D01*
X174566240Y-110087753D01*
X174404957Y-110062208D01*
X174356287Y-110054500D01*
X174143713Y-110054500D01*
X174095042Y-110062208D01*
X173933760Y-110087753D01*
X173731585Y-110153444D01*
X173542179Y-110249951D01*
X173370215Y-110374889D01*
X173231398Y-110513706D01*
X173170075Y-110547190D01*
X173100383Y-110542206D01*
X173044450Y-110500334D01*
X173038178Y-110491120D01*
X172942712Y-110336344D01*
X172818657Y-110212289D01*
X172818656Y-110212288D01*
X172669381Y-110120215D01*
X172669336Y-110120187D01*
X172669331Y-110120185D01*
X172636754Y-110109390D01*
X172502797Y-110065001D01*
X172502795Y-110065000D01*
X172400010Y-110054500D01*
X171099998Y-110054500D01*
X171099981Y-110054501D01*
X170997203Y-110065000D01*
X170997200Y-110065001D01*
X170830668Y-110120185D01*
X170830663Y-110120187D01*
X170681342Y-110212289D01*
X170557289Y-110336342D01*
X170465187Y-110485663D01*
X170465185Y-110485668D01*
X170455894Y-110513706D01*
X170410001Y-110652203D01*
X170410001Y-110652204D01*
X170410000Y-110652204D01*
X170399500Y-110754983D01*
X145571118Y-110754983D01*
X145569397Y-110750827D01*
X145569390Y-110750814D01*
X145481789Y-110619711D01*
X145481786Y-110619707D01*
X145370292Y-110508213D01*
X145370288Y-110508210D01*
X145239185Y-110420609D01*
X145239172Y-110420602D01*
X145093501Y-110360264D01*
X145093489Y-110360261D01*
X144938845Y-110329500D01*
X144938842Y-110329500D01*
X144781158Y-110329500D01*
X144781155Y-110329500D01*
X144626510Y-110360261D01*
X144626498Y-110360264D01*
X144480827Y-110420602D01*
X144480814Y-110420609D01*
X144349711Y-110508210D01*
X144349707Y-110508213D01*
X144238213Y-110619707D01*
X144238210Y-110619711D01*
X144150609Y-110750814D01*
X144150602Y-110750827D01*
X144090264Y-110896498D01*
X144090261Y-110896510D01*
X144059500Y-111051153D01*
X144059500Y-111208846D01*
X144090261Y-111363489D01*
X144090264Y-111363501D01*
X144150602Y-111509172D01*
X144153479Y-111514554D01*
X144151544Y-111515588D01*
X144169477Y-111572845D01*
X144150997Y-111640226D01*
X144148600Y-111643956D01*
X144110611Y-111700812D01*
X144110604Y-111700824D01*
X144048017Y-111851925D01*
X144004176Y-111906328D01*
X143937882Y-111928393D01*
X143870183Y-111911114D01*
X143864566Y-111907575D01*
X143824207Y-111880608D01*
X143824196Y-111880602D01*
X143678525Y-111820264D01*
X143678513Y-111820261D01*
X143523869Y-111789500D01*
X143523866Y-111789500D01*
X143495548Y-111789500D01*
X143428509Y-111769815D01*
X143382754Y-111717011D01*
X143380987Y-111712952D01*
X143375964Y-111700825D01*
X143359394Y-111660821D01*
X143359392Y-111660819D01*
X143359392Y-111660817D01*
X143271789Y-111529711D01*
X143271786Y-111529707D01*
X143160292Y-111418213D01*
X143160288Y-111418210D01*
X143029185Y-111330609D01*
X143029172Y-111330602D01*
X142883501Y-111270264D01*
X142883489Y-111270261D01*
X142728845Y-111239500D01*
X142728842Y-111239500D01*
X142571158Y-111239500D01*
X142486376Y-111256363D01*
X142416785Y-111250136D01*
X142374506Y-111222428D01*
X142310289Y-111158211D01*
X142310288Y-111158210D01*
X142310287Y-111158209D01*
X142179185Y-111070609D01*
X142179172Y-111070602D01*
X142033501Y-111010264D01*
X142033489Y-111010261D01*
X141878845Y-110979500D01*
X141878842Y-110979500D01*
X141878685Y-110979500D01*
X141878604Y-110979476D01*
X141872782Y-110978903D01*
X141872890Y-110977798D01*
X141811646Y-110959815D01*
X141765891Y-110907011D01*
X141764124Y-110902952D01*
X141709397Y-110770827D01*
X141709390Y-110770814D01*
X141621789Y-110639711D01*
X141621786Y-110639707D01*
X141510292Y-110528213D01*
X141510288Y-110528210D01*
X141379185Y-110440609D01*
X141379172Y-110440602D01*
X141233501Y-110380264D01*
X141233489Y-110380261D01*
X141078845Y-110349500D01*
X141078842Y-110349500D01*
X140921158Y-110349500D01*
X140921155Y-110349500D01*
X140766510Y-110380261D01*
X140766498Y-110380264D01*
X140620827Y-110440602D01*
X140620814Y-110440609D01*
X140489711Y-110528210D01*
X140489707Y-110528213D01*
X140378213Y-110639707D01*
X140378210Y-110639711D01*
X140290609Y-110770814D01*
X140290602Y-110770827D01*
X140230264Y-110916498D01*
X140230261Y-110916510D01*
X140199500Y-111071153D01*
X120500500Y-111071153D01*
X120500500Y-110893713D01*
X120467246Y-110683757D01*
X120401557Y-110481588D01*
X120305051Y-110292184D01*
X120238439Y-110200500D01*
X120229322Y-110187951D01*
X120229321Y-110187948D01*
X120180791Y-110121153D01*
X132899500Y-110121153D01*
X132899500Y-110278846D01*
X132930261Y-110433489D01*
X132930264Y-110433501D01*
X132990602Y-110579172D01*
X132990609Y-110579185D01*
X133078210Y-110710288D01*
X133078213Y-110710292D01*
X133189707Y-110821786D01*
X133189711Y-110821789D01*
X133320814Y-110909390D01*
X133320827Y-110909397D01*
X133420070Y-110950504D01*
X133466503Y-110969737D01*
X133621153Y-111000499D01*
X133621156Y-111000500D01*
X133621158Y-111000500D01*
X133778844Y-111000500D01*
X133778845Y-111000499D01*
X133933497Y-110969737D01*
X134079179Y-110909394D01*
X134210289Y-110821789D01*
X134321789Y-110710289D01*
X134409394Y-110579179D01*
X134469737Y-110433497D01*
X134500500Y-110278842D01*
X134500500Y-110121158D01*
X134500500Y-110121155D01*
X134500499Y-110121153D01*
X134493855Y-110087753D01*
X134469737Y-109966503D01*
X134421639Y-109850383D01*
X134409397Y-109820827D01*
X134409390Y-109820814D01*
X134321789Y-109689711D01*
X134321786Y-109689707D01*
X134210292Y-109578213D01*
X134210288Y-109578210D01*
X134079185Y-109490609D01*
X134079172Y-109490602D01*
X133933501Y-109430264D01*
X133933489Y-109430261D01*
X133778845Y-109399500D01*
X133778842Y-109399500D01*
X133621158Y-109399500D01*
X133621155Y-109399500D01*
X133466510Y-109430261D01*
X133466498Y-109430264D01*
X133320827Y-109490602D01*
X133320814Y-109490609D01*
X133189711Y-109578210D01*
X133189707Y-109578213D01*
X133078213Y-109689707D01*
X133078210Y-109689711D01*
X132990609Y-109820814D01*
X132990602Y-109820827D01*
X132930264Y-109966498D01*
X132930261Y-109966510D01*
X132899500Y-110121153D01*
X120180791Y-110121153D01*
X120180109Y-110120214D01*
X120180105Y-110120209D01*
X120041294Y-109981398D01*
X120007809Y-109920075D01*
X120012793Y-109850383D01*
X120054665Y-109794450D01*
X120063879Y-109788178D01*
X120069331Y-109784814D01*
X120069334Y-109784814D01*
X120218656Y-109692712D01*
X120342712Y-109568656D01*
X120434814Y-109419334D01*
X120489999Y-109252797D01*
X120500500Y-109150009D01*
X120500499Y-107849992D01*
X120497518Y-107820814D01*
X120489999Y-107747203D01*
X120489998Y-107747200D01*
X120475867Y-107704555D01*
X120434814Y-107580666D01*
X120342712Y-107431344D01*
X120302521Y-107391153D01*
X136229500Y-107391153D01*
X136229500Y-107548846D01*
X136260261Y-107703489D01*
X136260264Y-107703501D01*
X136320602Y-107849172D01*
X136320609Y-107849185D01*
X136408209Y-107980287D01*
X136408210Y-107980288D01*
X136408211Y-107980289D01*
X136485082Y-108057160D01*
X136518566Y-108118481D01*
X136521400Y-108144840D01*
X136521400Y-108293694D01*
X136552161Y-108448337D01*
X136552164Y-108448349D01*
X136612502Y-108594020D01*
X136612509Y-108594033D01*
X136700110Y-108725136D01*
X136700113Y-108725140D01*
X136811607Y-108836634D01*
X136811611Y-108836637D01*
X136942714Y-108924238D01*
X136942727Y-108924245D01*
X137075878Y-108979397D01*
X137088403Y-108984585D01*
X137243053Y-109015347D01*
X137243056Y-109015348D01*
X137243058Y-109015348D01*
X137400744Y-109015348D01*
X137400745Y-109015347D01*
X137555397Y-108984585D01*
X137697714Y-108925636D01*
X137767183Y-108918167D01*
X137829662Y-108949442D01*
X137865314Y-109009531D01*
X137866783Y-109016004D01*
X137870261Y-109033492D01*
X137870264Y-109033501D01*
X137930602Y-109179172D01*
X137930609Y-109179185D01*
X138019615Y-109312391D01*
X138040493Y-109379069D01*
X138022008Y-109446449D01*
X137985404Y-109484384D01*
X137964711Y-109498210D01*
X137964707Y-109498213D01*
X137853213Y-109609707D01*
X137853210Y-109609711D01*
X137765609Y-109740814D01*
X137765602Y-109740827D01*
X137705264Y-109886498D01*
X137705261Y-109886510D01*
X137674500Y-110041153D01*
X137674500Y-110198846D01*
X137705261Y-110353489D01*
X137705264Y-110353501D01*
X137765602Y-110499172D01*
X137765609Y-110499185D01*
X137853210Y-110630288D01*
X137853213Y-110630292D01*
X137964707Y-110741786D01*
X137964711Y-110741789D01*
X138095814Y-110829390D01*
X138095827Y-110829397D01*
X138241498Y-110889735D01*
X138241503Y-110889737D01*
X138376039Y-110916498D01*
X138396153Y-110920499D01*
X138396156Y-110920500D01*
X138396158Y-110920500D01*
X138553844Y-110920500D01*
X138553845Y-110920499D01*
X138708497Y-110889737D01*
X138854179Y-110829394D01*
X138985289Y-110741789D01*
X139096789Y-110630289D01*
X139184394Y-110499179D01*
X139189993Y-110485663D01*
X139208654Y-110440609D01*
X139244737Y-110353497D01*
X139275500Y-110198842D01*
X139275500Y-110041158D01*
X139275500Y-110041155D01*
X139275499Y-110041153D01*
X139244738Y-109886510D01*
X139244737Y-109886503D01*
X139225475Y-109839999D01*
X139184397Y-109740827D01*
X139184395Y-109740823D01*
X139184394Y-109740821D01*
X139096789Y-109609711D01*
X139096787Y-109609709D01*
X139095384Y-109607609D01*
X139074506Y-109540932D01*
X139092990Y-109473552D01*
X139129597Y-109435615D01*
X139137610Y-109430261D01*
X139150289Y-109421789D01*
X139250925Y-109321153D01*
X149599500Y-109321153D01*
X149599500Y-109478846D01*
X149630261Y-109633489D01*
X149630264Y-109633501D01*
X149690602Y-109779172D01*
X149690609Y-109779185D01*
X149778210Y-109910288D01*
X149778213Y-109910292D01*
X149889707Y-110021786D01*
X149889711Y-110021789D01*
X150020814Y-110109390D01*
X150020827Y-110109397D01*
X150166498Y-110169735D01*
X150166503Y-110169737D01*
X150312823Y-110198842D01*
X150321153Y-110200499D01*
X150321156Y-110200500D01*
X150321158Y-110200500D01*
X150478844Y-110200500D01*
X150478845Y-110200499D01*
X150633497Y-110169737D01*
X150753069Y-110120209D01*
X150779172Y-110109397D01*
X150779172Y-110109396D01*
X150779179Y-110109394D01*
X150910289Y-110021789D01*
X151021789Y-109910289D01*
X151109394Y-109779179D01*
X151169737Y-109633497D01*
X151200500Y-109478842D01*
X151200500Y-109321158D01*
X151200500Y-109321155D01*
X151200499Y-109321153D01*
X151186902Y-109252796D01*
X151169737Y-109166503D01*
X151158650Y-109139737D01*
X151109397Y-109020827D01*
X151109390Y-109020814D01*
X151021789Y-108889711D01*
X151021786Y-108889707D01*
X150910292Y-108778213D01*
X150910288Y-108778210D01*
X150779185Y-108690609D01*
X150779172Y-108690602D01*
X150633501Y-108630264D01*
X150633489Y-108630261D01*
X150565229Y-108616683D01*
X150565228Y-108616683D01*
X150478844Y-108599500D01*
X150478842Y-108599500D01*
X150321158Y-108599500D01*
X150321155Y-108599500D01*
X150166510Y-108630261D01*
X150166498Y-108630264D01*
X150020827Y-108690602D01*
X150020814Y-108690609D01*
X149889711Y-108778210D01*
X149889707Y-108778213D01*
X149778213Y-108889707D01*
X149778210Y-108889711D01*
X149690609Y-109020814D01*
X149690602Y-109020827D01*
X149630264Y-109166498D01*
X149630261Y-109166510D01*
X149599500Y-109321153D01*
X139250925Y-109321153D01*
X139261789Y-109310289D01*
X139300205Y-109252796D01*
X139304629Y-109246175D01*
X139349390Y-109179185D01*
X139349390Y-109179184D01*
X139349394Y-109179179D01*
X139409737Y-109033497D01*
X139440500Y-108878842D01*
X139440500Y-108721158D01*
X139440500Y-108721155D01*
X139440499Y-108721153D01*
X139428104Y-108658842D01*
X139409737Y-108566503D01*
X139383641Y-108503501D01*
X139349397Y-108420827D01*
X139349390Y-108420814D01*
X139261789Y-108289711D01*
X139261786Y-108289707D01*
X139150292Y-108178213D01*
X139150288Y-108178210D01*
X139064897Y-108121153D01*
X141199500Y-108121153D01*
X141199500Y-108278846D01*
X141230261Y-108433489D01*
X141230264Y-108433501D01*
X141290602Y-108579172D01*
X141290609Y-108579185D01*
X141378210Y-108710288D01*
X141378213Y-108710292D01*
X141489707Y-108821786D01*
X141489711Y-108821789D01*
X141620814Y-108909390D01*
X141620827Y-108909397D01*
X141741028Y-108959185D01*
X141766503Y-108969737D01*
X141921153Y-109000499D01*
X141921156Y-109000500D01*
X141921158Y-109000500D01*
X142078844Y-109000500D01*
X142078845Y-109000499D01*
X142233497Y-108969737D01*
X142379179Y-108909394D01*
X142510289Y-108821789D01*
X142621789Y-108710289D01*
X142709394Y-108579179D01*
X142769737Y-108433497D01*
X142798051Y-108291153D01*
X144049500Y-108291153D01*
X144049500Y-108448846D01*
X144080261Y-108603489D01*
X144080264Y-108603501D01*
X144140602Y-108749172D01*
X144140609Y-108749185D01*
X144228210Y-108880288D01*
X144228213Y-108880292D01*
X144339707Y-108991786D01*
X144339711Y-108991789D01*
X144470814Y-109079390D01*
X144470827Y-109079397D01*
X144616498Y-109139735D01*
X144616503Y-109139737D01*
X144751039Y-109166498D01*
X144771153Y-109170499D01*
X144771156Y-109170500D01*
X144771158Y-109170500D01*
X144928844Y-109170500D01*
X144928845Y-109170499D01*
X145083497Y-109139737D01*
X145229179Y-109079394D01*
X145360289Y-108991789D01*
X145471789Y-108880289D01*
X145502569Y-108834222D01*
X145556182Y-108789417D01*
X145625506Y-108780710D01*
X145688534Y-108810864D01*
X145693353Y-108815432D01*
X145769707Y-108891786D01*
X145769711Y-108891789D01*
X145900814Y-108979390D01*
X145900827Y-108979397D01*
X146031419Y-109033489D01*
X146046503Y-109039737D01*
X146201153Y-109070499D01*
X146201156Y-109070500D01*
X146201158Y-109070500D01*
X146358844Y-109070500D01*
X146358845Y-109070499D01*
X146513497Y-109039737D01*
X146659179Y-108979394D01*
X146790289Y-108891789D01*
X146901789Y-108780289D01*
X146989394Y-108649179D01*
X147049737Y-108503497D01*
X147050203Y-108501153D01*
X181689500Y-108501153D01*
X181689500Y-108658846D01*
X181720261Y-108813489D01*
X181720264Y-108813501D01*
X181780602Y-108959172D01*
X181780609Y-108959185D01*
X181868210Y-109090288D01*
X181868213Y-109090292D01*
X181979707Y-109201786D01*
X181979711Y-109201789D01*
X182110814Y-109289390D01*
X182110827Y-109289397D01*
X182256498Y-109349735D01*
X182256503Y-109349737D01*
X182403964Y-109379069D01*
X182411153Y-109380499D01*
X182411156Y-109380500D01*
X182411158Y-109380500D01*
X182568844Y-109380500D01*
X182568845Y-109380499D01*
X182723497Y-109349737D01*
X182869179Y-109289394D01*
X183000289Y-109201789D01*
X183111789Y-109090289D01*
X183199394Y-108959179D01*
X183259737Y-108813497D01*
X183290500Y-108658842D01*
X183290500Y-108501158D01*
X183290500Y-108501155D01*
X183290499Y-108501153D01*
X183280094Y-108448846D01*
X183259737Y-108346503D01*
X183237863Y-108293694D01*
X183199397Y-108200827D01*
X183199390Y-108200814D01*
X183111789Y-108069711D01*
X183111786Y-108069707D01*
X183000292Y-107958213D01*
X183000288Y-107958210D01*
X182869185Y-107870609D01*
X182869172Y-107870602D01*
X182723501Y-107810264D01*
X182723489Y-107810261D01*
X182568845Y-107779500D01*
X182568842Y-107779500D01*
X182411158Y-107779500D01*
X182411155Y-107779500D01*
X182256510Y-107810261D01*
X182256498Y-107810264D01*
X182110827Y-107870602D01*
X182110814Y-107870609D01*
X181979711Y-107958210D01*
X181979707Y-107958213D01*
X181868213Y-108069707D01*
X181868210Y-108069711D01*
X181780609Y-108200814D01*
X181780602Y-108200827D01*
X181720264Y-108346498D01*
X181720261Y-108346510D01*
X181689500Y-108501153D01*
X147050203Y-108501153D01*
X147080500Y-108348842D01*
X147080500Y-108191158D01*
X147080500Y-108191155D01*
X147080499Y-108191153D01*
X147069627Y-108136498D01*
X147049737Y-108036503D01*
X147047152Y-108030262D01*
X146989397Y-107890827D01*
X146989390Y-107890814D01*
X146901789Y-107759711D01*
X146901786Y-107759707D01*
X146790292Y-107648213D01*
X146790288Y-107648210D01*
X146659185Y-107560609D01*
X146659172Y-107560602D01*
X146584389Y-107529627D01*
X146513501Y-107500264D01*
X146513489Y-107500261D01*
X146358845Y-107469500D01*
X146358842Y-107469500D01*
X146201158Y-107469500D01*
X146201153Y-107469500D01*
X146073920Y-107494808D01*
X146004328Y-107488581D01*
X145949151Y-107445717D01*
X145940485Y-107421153D01*
X152699500Y-107421153D01*
X152699500Y-107578846D01*
X152730261Y-107733489D01*
X152730264Y-107733501D01*
X152790602Y-107879172D01*
X152790609Y-107879185D01*
X152878210Y-108010288D01*
X152878213Y-108010292D01*
X152989707Y-108121786D01*
X152989711Y-108121789D01*
X153120814Y-108209390D01*
X153120827Y-108209397D01*
X153266498Y-108269735D01*
X153266503Y-108269737D01*
X153421153Y-108300499D01*
X153421156Y-108300500D01*
X153421158Y-108300500D01*
X153578844Y-108300500D01*
X153578845Y-108300499D01*
X153733497Y-108269737D01*
X153879179Y-108209394D01*
X154010289Y-108121789D01*
X154121789Y-108010289D01*
X154209394Y-107879179D01*
X154269737Y-107733497D01*
X154300500Y-107578842D01*
X154300500Y-107421158D01*
X154300500Y-107421155D01*
X154300499Y-107421153D01*
X154277850Y-107307289D01*
X154269737Y-107266503D01*
X154256063Y-107233491D01*
X154209397Y-107120827D01*
X154209390Y-107120814D01*
X154121789Y-106989711D01*
X154121786Y-106989707D01*
X154010292Y-106878213D01*
X154010288Y-106878210D01*
X153879185Y-106790609D01*
X153879172Y-106790602D01*
X153733501Y-106730264D01*
X153733489Y-106730261D01*
X153578845Y-106699500D01*
X153578842Y-106699500D01*
X153421158Y-106699500D01*
X153421155Y-106699500D01*
X153266510Y-106730261D01*
X153266498Y-106730264D01*
X153120827Y-106790602D01*
X153120814Y-106790609D01*
X152989711Y-106878210D01*
X152989707Y-106878213D01*
X152878213Y-106989707D01*
X152878210Y-106989711D01*
X152790609Y-107120814D01*
X152790602Y-107120827D01*
X152730264Y-107266498D01*
X152730261Y-107266510D01*
X152699500Y-107421153D01*
X145940485Y-107421153D01*
X145925907Y-107379828D01*
X145935168Y-107325739D01*
X145954737Y-107278497D01*
X145985500Y-107123842D01*
X145985500Y-106966158D01*
X145985500Y-106966155D01*
X145985499Y-106966153D01*
X145977430Y-106925589D01*
X145954737Y-106811503D01*
X145954735Y-106811498D01*
X145894397Y-106665827D01*
X145894395Y-106665823D01*
X145894394Y-106665821D01*
X145848476Y-106597100D01*
X145806789Y-106534710D01*
X145695292Y-106423213D01*
X145695288Y-106423210D01*
X145564185Y-106335609D01*
X145564172Y-106335602D01*
X145418501Y-106275264D01*
X145418489Y-106275261D01*
X145263845Y-106244500D01*
X145263842Y-106244500D01*
X145106158Y-106244500D01*
X145106155Y-106244500D01*
X144951510Y-106275261D01*
X144951498Y-106275264D01*
X144805827Y-106335602D01*
X144805814Y-106335609D01*
X144674711Y-106423210D01*
X144674707Y-106423213D01*
X144563213Y-106534707D01*
X144563210Y-106534711D01*
X144475609Y-106665814D01*
X144475602Y-106665827D01*
X144415264Y-106811498D01*
X144415261Y-106811510D01*
X144384500Y-106966153D01*
X144384500Y-107123846D01*
X144415261Y-107278489D01*
X144415264Y-107278501D01*
X144475602Y-107424172D01*
X144475609Y-107424185D01*
X144514739Y-107482746D01*
X144535617Y-107549423D01*
X144517133Y-107616803D01*
X144475202Y-107656197D01*
X144475886Y-107657221D01*
X144339711Y-107748210D01*
X144339707Y-107748213D01*
X144228213Y-107859707D01*
X144228210Y-107859711D01*
X144140609Y-107990814D01*
X144140602Y-107990827D01*
X144080264Y-108136498D01*
X144080261Y-108136510D01*
X144049500Y-108291153D01*
X142798051Y-108291153D01*
X142800500Y-108278842D01*
X142800500Y-108121158D01*
X142800500Y-108121155D01*
X142800499Y-108121153D01*
X142769737Y-107966503D01*
X142766302Y-107958210D01*
X142709397Y-107820827D01*
X142709390Y-107820814D01*
X142621789Y-107689711D01*
X142621786Y-107689707D01*
X142510292Y-107578213D01*
X142510288Y-107578210D01*
X142379185Y-107490609D01*
X142379172Y-107490602D01*
X142233501Y-107430264D01*
X142233489Y-107430261D01*
X142078845Y-107399500D01*
X142078842Y-107399500D01*
X141921158Y-107399500D01*
X141921155Y-107399500D01*
X141766510Y-107430261D01*
X141766498Y-107430264D01*
X141620827Y-107490602D01*
X141620814Y-107490609D01*
X141489711Y-107578210D01*
X141489707Y-107578213D01*
X141378213Y-107689707D01*
X141378210Y-107689711D01*
X141290609Y-107820814D01*
X141290602Y-107820827D01*
X141230264Y-107966498D01*
X141230261Y-107966510D01*
X141199500Y-108121153D01*
X139064897Y-108121153D01*
X139019185Y-108090609D01*
X139019172Y-108090602D01*
X138873501Y-108030264D01*
X138873489Y-108030261D01*
X138718845Y-107999500D01*
X138718842Y-107999500D01*
X138561158Y-107999500D01*
X138561155Y-107999500D01*
X138406510Y-108030261D01*
X138406507Y-108030262D01*
X138406506Y-108030262D01*
X138406503Y-108030263D01*
X138341572Y-108057158D01*
X138264185Y-108089212D01*
X138194715Y-108096680D01*
X138132236Y-108065404D01*
X138096584Y-108005315D01*
X138095119Y-107998860D01*
X138091637Y-107981351D01*
X138049319Y-107879185D01*
X138031297Y-107835675D01*
X138031290Y-107835662D01*
X137943689Y-107704559D01*
X137943686Y-107704555D01*
X137866819Y-107627688D01*
X137833334Y-107566365D01*
X137830500Y-107540007D01*
X137830500Y-107391155D01*
X137830499Y-107391153D01*
X137808090Y-107278497D01*
X137799737Y-107236503D01*
X137790907Y-107215185D01*
X137739397Y-107090827D01*
X137739390Y-107090814D01*
X137651789Y-106959711D01*
X137651786Y-106959707D01*
X137540292Y-106848213D01*
X137540288Y-106848210D01*
X137409185Y-106760609D01*
X137409172Y-106760602D01*
X137263501Y-106700264D01*
X137263489Y-106700261D01*
X137108845Y-106669500D01*
X137108842Y-106669500D01*
X136951158Y-106669500D01*
X136951155Y-106669500D01*
X136796510Y-106700261D01*
X136796498Y-106700264D01*
X136650827Y-106760602D01*
X136650814Y-106760609D01*
X136519711Y-106848210D01*
X136519707Y-106848213D01*
X136408213Y-106959707D01*
X136408210Y-106959711D01*
X136320609Y-107090814D01*
X136320602Y-107090827D01*
X136260264Y-107236498D01*
X136260261Y-107236510D01*
X136229500Y-107391153D01*
X120302521Y-107391153D01*
X120218656Y-107307288D01*
X120103895Y-107236503D01*
X120069336Y-107215187D01*
X120069331Y-107215185D01*
X120067862Y-107214698D01*
X119902797Y-107160001D01*
X119902795Y-107160000D01*
X119800010Y-107149500D01*
X118199998Y-107149500D01*
X118199981Y-107149501D01*
X118097203Y-107160000D01*
X118097200Y-107160001D01*
X117930668Y-107215185D01*
X117930663Y-107215187D01*
X117781342Y-107307289D01*
X117657289Y-107431342D01*
X117565187Y-107580663D01*
X117565185Y-107580668D01*
X117561079Y-107593059D01*
X117510001Y-107747203D01*
X117510001Y-107747204D01*
X117510000Y-107747204D01*
X117499500Y-107849983D01*
X115000500Y-107849983D01*
X115000500Y-105221153D01*
X140149500Y-105221153D01*
X140149500Y-105378846D01*
X140180261Y-105533489D01*
X140180264Y-105533501D01*
X140240602Y-105679172D01*
X140240609Y-105679185D01*
X140328210Y-105810288D01*
X140328213Y-105810292D01*
X140439707Y-105921786D01*
X140439711Y-105921789D01*
X140570814Y-106009390D01*
X140570827Y-106009397D01*
X140716498Y-106069735D01*
X140716503Y-106069737D01*
X140871153Y-106100499D01*
X140871156Y-106100500D01*
X140871158Y-106100500D01*
X141028844Y-106100500D01*
X141028845Y-106100499D01*
X141182180Y-106069999D01*
X176726115Y-106069999D01*
X176726116Y-106070000D01*
X177478012Y-106070000D01*
X177460795Y-106079940D01*
X177404940Y-106135795D01*
X177365444Y-106204204D01*
X177345000Y-106280504D01*
X177345000Y-106359496D01*
X177365444Y-106435796D01*
X177404940Y-106504205D01*
X177460795Y-106560060D01*
X177478012Y-106570000D01*
X176726116Y-106570000D01*
X176731506Y-106597100D01*
X176731507Y-106597103D01*
X176803119Y-106769991D01*
X176803124Y-106770000D01*
X176907086Y-106925589D01*
X176907089Y-106925593D01*
X177039406Y-107057910D01*
X177039410Y-107057913D01*
X177194999Y-107161875D01*
X177195008Y-107161880D01*
X177367894Y-107233491D01*
X177367902Y-107233493D01*
X177551428Y-107269999D01*
X177551431Y-107270000D01*
X177945000Y-107270000D01*
X177945000Y-106620000D01*
X178445000Y-106620000D01*
X178445000Y-107270000D01*
X178838569Y-107270000D01*
X178838571Y-107269999D01*
X179022097Y-107233493D01*
X179022105Y-107233491D01*
X179194991Y-107161880D01*
X179195000Y-107161875D01*
X179350589Y-107057913D01*
X179350593Y-107057910D01*
X179482910Y-106925593D01*
X179482913Y-106925589D01*
X179586875Y-106770000D01*
X179586880Y-106769991D01*
X179658492Y-106597103D01*
X179658493Y-106597100D01*
X179663884Y-106570000D01*
X178911988Y-106570000D01*
X178929205Y-106560060D01*
X178985060Y-106504205D01*
X179024556Y-106435796D01*
X179045000Y-106359496D01*
X179045000Y-106280504D01*
X179024556Y-106204204D01*
X178985060Y-106135795D01*
X178929205Y-106079940D01*
X178911988Y-106070000D01*
X179663884Y-106070000D01*
X179663884Y-106069999D01*
X181046115Y-106069999D01*
X181046116Y-106070000D01*
X181798012Y-106070000D01*
X181780795Y-106079940D01*
X181724940Y-106135795D01*
X181685444Y-106204204D01*
X181665000Y-106280504D01*
X181665000Y-106359496D01*
X181685444Y-106435796D01*
X181724940Y-106504205D01*
X181780795Y-106560060D01*
X181798012Y-106570000D01*
X181046116Y-106570000D01*
X181051506Y-106597100D01*
X181051507Y-106597103D01*
X181123119Y-106769991D01*
X181123124Y-106770000D01*
X181227086Y-106925589D01*
X181227089Y-106925593D01*
X181359406Y-107057910D01*
X181359410Y-107057913D01*
X181514999Y-107161875D01*
X181515008Y-107161880D01*
X181687894Y-107233491D01*
X181687902Y-107233493D01*
X181871428Y-107269999D01*
X181871431Y-107270000D01*
X182115000Y-107270000D01*
X182115000Y-106620000D01*
X182615000Y-106620000D01*
X182615000Y-107270000D01*
X182858569Y-107270000D01*
X182858571Y-107269999D01*
X183042097Y-107233493D01*
X183042105Y-107233491D01*
X183214991Y-107161880D01*
X183215000Y-107161875D01*
X183370589Y-107057913D01*
X183370593Y-107057910D01*
X183502910Y-106925593D01*
X183502913Y-106925589D01*
X183606875Y-106770000D01*
X183606880Y-106769991D01*
X183678492Y-106597103D01*
X183678493Y-106597100D01*
X183683884Y-106570000D01*
X182931988Y-106570000D01*
X182949205Y-106560060D01*
X183005060Y-106504205D01*
X183044556Y-106435796D01*
X183065000Y-106359496D01*
X183065000Y-106280504D01*
X183044556Y-106204204D01*
X183005060Y-106135795D01*
X182949205Y-106079940D01*
X182931988Y-106070000D01*
X183683884Y-106070000D01*
X183683884Y-106069999D01*
X183678493Y-106042899D01*
X183678492Y-106042896D01*
X183606880Y-105870008D01*
X183606875Y-105869999D01*
X183502913Y-105714410D01*
X183502910Y-105714406D01*
X183370593Y-105582089D01*
X183370589Y-105582086D01*
X183215000Y-105478124D01*
X183214991Y-105478119D01*
X183042105Y-105406508D01*
X183042097Y-105406506D01*
X182858570Y-105370000D01*
X182615000Y-105370000D01*
X182615000Y-106020000D01*
X182115000Y-106020000D01*
X182115000Y-105370000D01*
X181871430Y-105370000D01*
X181687902Y-105406506D01*
X181687894Y-105406508D01*
X181515008Y-105478119D01*
X181514999Y-105478124D01*
X181359410Y-105582086D01*
X181359406Y-105582089D01*
X181227089Y-105714406D01*
X181227086Y-105714410D01*
X181123124Y-105869999D01*
X181123119Y-105870008D01*
X181051507Y-106042896D01*
X181051506Y-106042899D01*
X181046115Y-106069999D01*
X179663884Y-106069999D01*
X179658493Y-106042899D01*
X179658492Y-106042896D01*
X179586880Y-105870008D01*
X179586875Y-105869999D01*
X179482913Y-105714410D01*
X179482910Y-105714406D01*
X179350593Y-105582089D01*
X179350589Y-105582086D01*
X179195000Y-105478124D01*
X179194991Y-105478119D01*
X179022105Y-105406508D01*
X179022097Y-105406506D01*
X178838570Y-105370000D01*
X178445000Y-105370000D01*
X178445000Y-106020000D01*
X177945000Y-106020000D01*
X177945000Y-105370000D01*
X177551430Y-105370000D01*
X177367902Y-105406506D01*
X177367894Y-105406508D01*
X177195008Y-105478119D01*
X177194999Y-105478124D01*
X177039410Y-105582086D01*
X177039406Y-105582089D01*
X176907089Y-105714406D01*
X176907086Y-105714410D01*
X176803124Y-105869999D01*
X176803119Y-105870008D01*
X176731507Y-106042896D01*
X176731506Y-106042899D01*
X176726115Y-106069999D01*
X141182180Y-106069999D01*
X141183497Y-106069737D01*
X141329179Y-106009394D01*
X141329186Y-106009388D01*
X141329190Y-106009387D01*
X141342897Y-106000228D01*
X141342901Y-106000226D01*
X141405275Y-105958547D01*
X141460289Y-105921789D01*
X141571789Y-105810289D01*
X141659394Y-105679179D01*
X141719737Y-105533497D01*
X141750500Y-105378842D01*
X141750500Y-105221158D01*
X141750500Y-105221155D01*
X141750499Y-105221153D01*
X141719738Y-105066510D01*
X141719737Y-105066503D01*
X141670191Y-104946888D01*
X144493765Y-104946888D01*
X144493765Y-105104581D01*
X144524526Y-105259224D01*
X144524529Y-105259236D01*
X144584867Y-105404907D01*
X144584874Y-105404920D01*
X144672475Y-105536023D01*
X144672478Y-105536027D01*
X144783972Y-105647521D01*
X144783976Y-105647524D01*
X144915079Y-105735125D01*
X144915092Y-105735132D01*
X145060763Y-105795470D01*
X145060768Y-105795472D01*
X145215418Y-105826234D01*
X145215421Y-105826235D01*
X145215423Y-105826235D01*
X145373109Y-105826235D01*
X145373110Y-105826234D01*
X145527762Y-105795472D01*
X145673444Y-105735129D01*
X145804554Y-105647524D01*
X145916054Y-105536024D01*
X146003659Y-105404914D01*
X146064002Y-105259232D01*
X146094765Y-105104577D01*
X146094765Y-104946893D01*
X146094765Y-104946890D01*
X146094764Y-104946888D01*
X146089578Y-104920818D01*
X146064002Y-104792238D01*
X146003659Y-104646556D01*
X145992849Y-104630377D01*
X145971971Y-104563703D01*
X145990454Y-104496323D01*
X146008263Y-104473814D01*
X146071789Y-104410289D01*
X146159394Y-104279179D01*
X146219737Y-104133497D01*
X146250500Y-103978842D01*
X146250500Y-103821158D01*
X146250500Y-103821155D01*
X146250499Y-103821153D01*
X146219737Y-103666503D01*
X146219735Y-103666498D01*
X146159397Y-103520827D01*
X146159390Y-103520814D01*
X146071789Y-103389711D01*
X146071786Y-103389707D01*
X145960292Y-103278213D01*
X145960288Y-103278210D01*
X145915327Y-103248168D01*
X145829185Y-103190609D01*
X145829172Y-103190602D01*
X145733932Y-103151153D01*
X151039500Y-103151153D01*
X151039500Y-103308846D01*
X151070261Y-103463489D01*
X151070264Y-103463501D01*
X151130602Y-103609172D01*
X151130609Y-103609185D01*
X151218210Y-103740288D01*
X151218213Y-103740292D01*
X151329707Y-103851786D01*
X151329711Y-103851789D01*
X151460814Y-103939390D01*
X151460827Y-103939397D01*
X151548230Y-103975599D01*
X151606503Y-103999737D01*
X151624884Y-104003393D01*
X151686793Y-104035776D01*
X151715254Y-104077558D01*
X151737258Y-104130684D01*
X151737265Y-104130696D01*
X151824866Y-104261799D01*
X151824869Y-104261803D01*
X151936363Y-104373297D01*
X151936367Y-104373300D01*
X152067470Y-104460901D01*
X152067483Y-104460908D01*
X152213154Y-104521246D01*
X152213159Y-104521248D01*
X152367809Y-104552010D01*
X152367812Y-104552011D01*
X152367814Y-104552011D01*
X152525500Y-104552011D01*
X152525501Y-104552010D01*
X152680153Y-104521248D01*
X152825835Y-104460905D01*
X152956945Y-104373300D01*
X153068445Y-104261800D01*
X153156050Y-104130690D01*
X153216393Y-103985008D01*
X153247156Y-103830353D01*
X153247156Y-103672669D01*
X153247156Y-103672666D01*
X153247155Y-103672664D01*
X153245929Y-103666503D01*
X153216393Y-103518014D01*
X153193813Y-103463501D01*
X153156053Y-103372338D01*
X153156046Y-103372325D01*
X153068445Y-103241222D01*
X153068442Y-103241218D01*
X152956948Y-103129724D01*
X152956944Y-103129721D01*
X152825841Y-103042120D01*
X152825828Y-103042113D01*
X152680157Y-102981775D01*
X152680147Y-102981772D01*
X152661770Y-102978117D01*
X152599859Y-102945732D01*
X152571401Y-102903953D01*
X152549394Y-102850821D01*
X152542497Y-102840499D01*
X152461789Y-102719710D01*
X152350292Y-102608213D01*
X152350288Y-102608210D01*
X152219185Y-102520609D01*
X152219172Y-102520602D01*
X152073501Y-102460264D01*
X152073489Y-102460261D01*
X151918845Y-102429500D01*
X151918842Y-102429500D01*
X151761158Y-102429500D01*
X151761155Y-102429500D01*
X151606510Y-102460261D01*
X151606498Y-102460264D01*
X151460827Y-102520602D01*
X151460814Y-102520609D01*
X151329711Y-102608210D01*
X151329707Y-102608213D01*
X151218213Y-102719707D01*
X151218210Y-102719711D01*
X151130609Y-102850814D01*
X151130602Y-102850827D01*
X151070264Y-102996498D01*
X151070261Y-102996510D01*
X151039500Y-103151153D01*
X145733932Y-103151153D01*
X145683501Y-103130264D01*
X145683489Y-103130261D01*
X145528845Y-103099500D01*
X145528842Y-103099500D01*
X145371158Y-103099500D01*
X145371155Y-103099500D01*
X145216510Y-103130261D01*
X145216498Y-103130264D01*
X145070827Y-103190602D01*
X145070814Y-103190609D01*
X144939711Y-103278210D01*
X144939707Y-103278213D01*
X144828213Y-103389707D01*
X144828210Y-103389711D01*
X144740609Y-103520814D01*
X144740602Y-103520827D01*
X144680264Y-103666498D01*
X144680261Y-103666510D01*
X144649500Y-103821153D01*
X144649500Y-103978846D01*
X144680261Y-104133489D01*
X144680264Y-104133501D01*
X144740602Y-104279172D01*
X144740609Y-104279184D01*
X144751414Y-104295355D01*
X144772292Y-104362032D01*
X144753808Y-104429412D01*
X144735994Y-104451927D01*
X144672475Y-104515446D01*
X144584874Y-104646549D01*
X144584867Y-104646562D01*
X144524529Y-104792233D01*
X144524526Y-104792245D01*
X144493765Y-104946888D01*
X141670191Y-104946888D01*
X141659394Y-104920821D01*
X141659392Y-104920818D01*
X141659390Y-104920814D01*
X141571789Y-104789711D01*
X141571786Y-104789707D01*
X141460292Y-104678213D01*
X141460288Y-104678210D01*
X141329185Y-104590609D01*
X141329172Y-104590602D01*
X141183501Y-104530264D01*
X141183489Y-104530261D01*
X141028845Y-104499500D01*
X141028842Y-104499500D01*
X140871158Y-104499500D01*
X140871155Y-104499500D01*
X140716510Y-104530261D01*
X140716498Y-104530264D01*
X140570827Y-104590602D01*
X140570814Y-104590609D01*
X140439711Y-104678210D01*
X140439707Y-104678213D01*
X140328213Y-104789707D01*
X140328210Y-104789711D01*
X140240609Y-104920814D01*
X140240602Y-104920827D01*
X140180264Y-105066498D01*
X140180261Y-105066510D01*
X140149500Y-105221153D01*
X115000500Y-105221153D01*
X115000500Y-98599983D01*
X117524500Y-98599983D01*
X117524500Y-99900001D01*
X117524501Y-99900018D01*
X117535000Y-100002796D01*
X117535001Y-100002799D01*
X117568620Y-100104252D01*
X117590186Y-100169334D01*
X117682288Y-100318656D01*
X117806344Y-100442712D01*
X117909949Y-100506616D01*
X117961120Y-100538178D01*
X118007845Y-100590126D01*
X118019068Y-100659088D01*
X117991224Y-100723171D01*
X117983706Y-100731398D01*
X117844889Y-100870215D01*
X117719951Y-101042179D01*
X117623444Y-101231585D01*
X117557753Y-101433760D01*
X117524500Y-101643713D01*
X117524500Y-101856286D01*
X117543911Y-101978846D01*
X117557754Y-102066243D01*
X117579606Y-102133497D01*
X117623444Y-102268414D01*
X117719951Y-102457820D01*
X117844890Y-102629786D01*
X117995213Y-102780109D01*
X118167179Y-102905048D01*
X118167181Y-102905049D01*
X118167184Y-102905051D01*
X118356588Y-103001557D01*
X118558757Y-103067246D01*
X118768713Y-103100500D01*
X118768714Y-103100500D01*
X119281286Y-103100500D01*
X119281287Y-103100500D01*
X119491243Y-103067246D01*
X119693412Y-103001557D01*
X119882816Y-102905051D01*
X119904789Y-102889086D01*
X120054786Y-102780109D01*
X120054788Y-102780106D01*
X120054792Y-102780104D01*
X120205104Y-102629792D01*
X120205106Y-102629788D01*
X120205109Y-102629786D01*
X120330048Y-102457820D01*
X120330047Y-102457820D01*
X120330051Y-102457816D01*
X120426557Y-102268412D01*
X120492246Y-102066243D01*
X120525500Y-101856287D01*
X120525500Y-101821153D01*
X129699500Y-101821153D01*
X129699500Y-101978846D01*
X129730261Y-102133489D01*
X129730264Y-102133501D01*
X129790602Y-102279172D01*
X129790609Y-102279185D01*
X129878210Y-102410288D01*
X129878213Y-102410292D01*
X129989707Y-102521786D01*
X129989711Y-102521789D01*
X130120814Y-102609390D01*
X130120827Y-102609397D01*
X130266498Y-102669735D01*
X130266503Y-102669737D01*
X130421153Y-102700499D01*
X130421156Y-102700500D01*
X130421158Y-102700500D01*
X130578844Y-102700500D01*
X130578845Y-102700499D01*
X130733497Y-102669737D01*
X130879179Y-102609394D01*
X131010289Y-102521789D01*
X131121789Y-102410289D01*
X131196898Y-102297881D01*
X131250510Y-102253076D01*
X131319835Y-102244369D01*
X131382863Y-102274523D01*
X131403102Y-102297881D01*
X131478210Y-102410288D01*
X131478213Y-102410292D01*
X131589707Y-102521786D01*
X131589711Y-102521789D01*
X131720814Y-102609390D01*
X131720827Y-102609397D01*
X131866498Y-102669735D01*
X131866503Y-102669737D01*
X132021153Y-102700499D01*
X132021156Y-102700500D01*
X132021158Y-102700500D01*
X132178844Y-102700500D01*
X132178845Y-102700499D01*
X132333497Y-102669737D01*
X132479179Y-102609394D01*
X132610289Y-102521789D01*
X132721789Y-102410289D01*
X132796898Y-102297881D01*
X132850510Y-102253076D01*
X132919835Y-102244369D01*
X132982863Y-102274523D01*
X133003102Y-102297881D01*
X133078210Y-102410288D01*
X133078213Y-102410292D01*
X133189707Y-102521786D01*
X133189711Y-102521789D01*
X133320814Y-102609390D01*
X133320827Y-102609397D01*
X133466498Y-102669735D01*
X133466503Y-102669737D01*
X133621153Y-102700499D01*
X133621156Y-102700500D01*
X133621158Y-102700500D01*
X133778844Y-102700500D01*
X133778845Y-102700499D01*
X133933497Y-102669737D01*
X134079179Y-102609394D01*
X134210289Y-102521789D01*
X134321789Y-102410289D01*
X134409394Y-102279179D01*
X134469737Y-102133497D01*
X134500500Y-101978842D01*
X134500500Y-101821158D01*
X134500500Y-101821155D01*
X134500499Y-101821153D01*
X134474353Y-101689711D01*
X134469737Y-101666503D01*
X134467386Y-101660827D01*
X134409397Y-101520827D01*
X134409390Y-101520814D01*
X134321789Y-101389711D01*
X134321786Y-101389707D01*
X134210292Y-101278213D01*
X134210288Y-101278210D01*
X134105463Y-101208168D01*
X134079184Y-101190609D01*
X134079172Y-101190602D01*
X133933501Y-101130264D01*
X133933489Y-101130261D01*
X133837428Y-101111153D01*
X144549500Y-101111153D01*
X144549500Y-101268846D01*
X144580261Y-101423489D01*
X144580264Y-101423501D01*
X144640602Y-101569172D01*
X144640609Y-101569185D01*
X144728210Y-101700288D01*
X144728213Y-101700292D01*
X144839707Y-101811786D01*
X144839711Y-101811789D01*
X144970814Y-101899390D01*
X144970827Y-101899397D01*
X145116498Y-101959735D01*
X145116503Y-101959737D01*
X145271153Y-101990499D01*
X145271156Y-101990500D01*
X145271158Y-101990500D01*
X145428844Y-101990500D01*
X145428845Y-101990499D01*
X145583497Y-101959737D01*
X145729179Y-101899394D01*
X145860289Y-101811789D01*
X145971789Y-101700289D01*
X146059394Y-101569179D01*
X146119737Y-101423497D01*
X146150500Y-101268842D01*
X146150500Y-101111158D01*
X146150500Y-101111155D01*
X146150499Y-101111153D01*
X146119739Y-100956511D01*
X146119738Y-100956508D01*
X146119737Y-100956503D01*
X146111970Y-100937753D01*
X146104504Y-100868285D01*
X146128834Y-100815641D01*
X146128405Y-100815354D01*
X146130229Y-100812623D01*
X146130691Y-100811625D01*
X146131777Y-100810300D01*
X146131789Y-100810289D01*
X146219394Y-100679179D01*
X146219735Y-100678357D01*
X146254283Y-100594949D01*
X146279737Y-100533497D01*
X146310500Y-100378842D01*
X146310500Y-100221158D01*
X146310500Y-100221155D01*
X146310499Y-100221153D01*
X146289954Y-100117868D01*
X146279737Y-100066503D01*
X146253350Y-100002799D01*
X146219397Y-99920827D01*
X146219390Y-99920814D01*
X146161354Y-99833957D01*
X146131789Y-99789711D01*
X146131786Y-99789707D01*
X146113232Y-99771153D01*
X146509500Y-99771153D01*
X146509500Y-99928846D01*
X146540261Y-100083489D01*
X146540264Y-100083501D01*
X146600602Y-100229172D01*
X146600609Y-100229185D01*
X146688210Y-100360288D01*
X146688213Y-100360292D01*
X146799707Y-100471786D01*
X146799711Y-100471789D01*
X146930814Y-100559390D01*
X146930827Y-100559397D01*
X147068683Y-100616498D01*
X147076503Y-100619737D01*
X147229021Y-100650075D01*
X147231153Y-100650499D01*
X147231156Y-100650500D01*
X147231158Y-100650500D01*
X147388844Y-100650500D01*
X147388845Y-100650499D01*
X147543497Y-100619737D01*
X147689179Y-100559394D01*
X147744835Y-100522205D01*
X147763910Y-100516232D01*
X147780919Y-100505726D01*
X147796569Y-100506005D01*
X147811508Y-100501328D01*
X147830788Y-100506616D01*
X147850778Y-100506974D01*
X147875886Y-100518987D01*
X147878888Y-100519811D01*
X147882615Y-100522207D01*
X147889993Y-100527137D01*
X147934798Y-100580750D01*
X147943504Y-100650075D01*
X147942718Y-100654429D01*
X147919500Y-100771153D01*
X147919500Y-100928846D01*
X147950261Y-101083489D01*
X147950264Y-101083501D01*
X148010602Y-101229172D01*
X148010609Y-101229185D01*
X148098210Y-101360288D01*
X148098213Y-101360292D01*
X148209707Y-101471786D01*
X148209711Y-101471789D01*
X148340814Y-101559390D01*
X148340827Y-101559397D01*
X148438853Y-101600000D01*
X148486503Y-101619737D01*
X148607038Y-101643713D01*
X148641153Y-101650499D01*
X148641156Y-101650500D01*
X148641158Y-101650500D01*
X148798844Y-101650500D01*
X148798845Y-101650499D01*
X148953497Y-101619737D01*
X149099179Y-101559394D01*
X149230289Y-101471789D01*
X149341789Y-101360289D01*
X149429394Y-101229179D01*
X149489737Y-101083497D01*
X149520500Y-100928842D01*
X149520500Y-100771158D01*
X149520500Y-100771155D01*
X149520499Y-100771153D01*
X149502204Y-100679179D01*
X149489737Y-100616503D01*
X149480687Y-100594653D01*
X149429397Y-100470827D01*
X149429390Y-100470814D01*
X149341789Y-100339711D01*
X149341786Y-100339707D01*
X149230292Y-100228213D01*
X149230284Y-100228207D01*
X149125008Y-100157864D01*
X149080202Y-100104252D01*
X149071495Y-100034927D01*
X149072281Y-100030570D01*
X149095500Y-99913844D01*
X149095500Y-99756155D01*
X149095499Y-99756153D01*
X149092139Y-99739257D01*
X149088538Y-99721153D01*
X162399500Y-99721153D01*
X162399500Y-99878846D01*
X162430261Y-100033489D01*
X162430264Y-100033501D01*
X162490602Y-100179172D01*
X162490609Y-100179185D01*
X162578210Y-100310288D01*
X162578213Y-100310292D01*
X162580240Y-100312319D01*
X162580962Y-100313642D01*
X162582076Y-100314999D01*
X162581818Y-100315210D01*
X162613725Y-100373642D01*
X162608741Y-100443334D01*
X162582001Y-100484939D01*
X162582076Y-100485001D01*
X162581552Y-100485639D01*
X162580240Y-100487681D01*
X162578213Y-100489707D01*
X162578210Y-100489711D01*
X162490609Y-100620814D01*
X162490602Y-100620827D01*
X162430264Y-100766498D01*
X162430261Y-100766510D01*
X162399500Y-100921153D01*
X162399500Y-101078846D01*
X162430261Y-101233489D01*
X162430264Y-101233501D01*
X162490602Y-101379172D01*
X162490609Y-101379185D01*
X162578210Y-101510288D01*
X162578213Y-101510292D01*
X162580240Y-101512319D01*
X162580962Y-101513642D01*
X162582076Y-101514999D01*
X162581818Y-101515210D01*
X162613725Y-101573642D01*
X162608741Y-101643334D01*
X162582001Y-101684939D01*
X162582076Y-101685001D01*
X162581552Y-101685639D01*
X162580240Y-101687681D01*
X162578213Y-101689707D01*
X162578210Y-101689711D01*
X162490609Y-101820814D01*
X162490602Y-101820827D01*
X162430264Y-101966498D01*
X162430261Y-101966510D01*
X162399500Y-102121153D01*
X162399500Y-102278846D01*
X162430261Y-102433489D01*
X162430264Y-102433501D01*
X162490602Y-102579172D01*
X162490609Y-102579185D01*
X162578210Y-102710288D01*
X162578213Y-102710292D01*
X162689707Y-102821786D01*
X162689711Y-102821789D01*
X162820814Y-102909390D01*
X162820827Y-102909397D01*
X162908549Y-102945732D01*
X162966503Y-102969737D01*
X163101039Y-102996498D01*
X163121153Y-103000499D01*
X163121156Y-103000500D01*
X163121158Y-103000500D01*
X163278844Y-103000500D01*
X163278845Y-103000499D01*
X163433497Y-102969737D01*
X163579179Y-102909394D01*
X163710289Y-102821789D01*
X163821789Y-102710289D01*
X163909394Y-102579179D01*
X163969737Y-102433497D01*
X164000500Y-102278842D01*
X164000500Y-102121158D01*
X164000500Y-102121155D01*
X163972274Y-101979258D01*
X163969737Y-101966503D01*
X163967521Y-101961153D01*
X170459500Y-101961153D01*
X170459500Y-102118846D01*
X170490261Y-102273489D01*
X170490264Y-102273501D01*
X170550602Y-102419172D01*
X170550609Y-102419185D01*
X170638210Y-102550288D01*
X170638213Y-102550292D01*
X170749707Y-102661786D01*
X170749711Y-102661789D01*
X170880814Y-102749390D01*
X170880827Y-102749397D01*
X171026498Y-102809735D01*
X171026503Y-102809737D01*
X171181153Y-102840499D01*
X171181156Y-102840500D01*
X171181158Y-102840500D01*
X171338844Y-102840500D01*
X171338845Y-102840499D01*
X171493497Y-102809737D01*
X171639179Y-102749394D01*
X171770289Y-102661789D01*
X171881789Y-102550289D01*
X171969394Y-102419179D01*
X172029737Y-102273497D01*
X172060500Y-102118842D01*
X172060500Y-101961158D01*
X172060500Y-101961155D01*
X172060499Y-101961153D01*
X172048213Y-101899390D01*
X172029737Y-101806503D01*
X172029735Y-101806498D01*
X171969397Y-101660827D01*
X171969390Y-101660814D01*
X171881789Y-101529711D01*
X171881786Y-101529707D01*
X171770292Y-101418213D01*
X171770288Y-101418210D01*
X171639185Y-101330609D01*
X171639172Y-101330602D01*
X171493501Y-101270264D01*
X171493489Y-101270261D01*
X171338845Y-101239500D01*
X171338842Y-101239500D01*
X171181158Y-101239500D01*
X171181155Y-101239500D01*
X171026510Y-101270261D01*
X171026498Y-101270264D01*
X170880827Y-101330602D01*
X170880814Y-101330609D01*
X170749711Y-101418210D01*
X170749707Y-101418213D01*
X170638213Y-101529707D01*
X170638210Y-101529711D01*
X170550609Y-101660814D01*
X170550602Y-101660827D01*
X170490264Y-101806498D01*
X170490261Y-101806510D01*
X170459500Y-101961153D01*
X163967521Y-101961153D01*
X163966935Y-101959738D01*
X163909397Y-101820827D01*
X163909390Y-101820814D01*
X163821789Y-101689711D01*
X163819766Y-101687688D01*
X163819043Y-101686365D01*
X163817924Y-101685001D01*
X163818182Y-101684788D01*
X163786276Y-101626368D01*
X163791255Y-101556676D01*
X163817999Y-101515060D01*
X163817924Y-101514999D01*
X163818454Y-101514351D01*
X163819766Y-101512312D01*
X163821789Y-101510289D01*
X163909394Y-101379179D01*
X163969737Y-101233497D01*
X164000500Y-101078842D01*
X164000500Y-100921158D01*
X164000500Y-100921155D01*
X164000499Y-100921153D01*
X163978712Y-100811625D01*
X163969737Y-100766503D01*
X163955196Y-100731398D01*
X163909397Y-100620827D01*
X163909390Y-100620814D01*
X163821789Y-100489711D01*
X163819766Y-100487688D01*
X163819043Y-100486365D01*
X163817924Y-100485001D01*
X163818182Y-100484788D01*
X163786276Y-100426368D01*
X163791255Y-100356676D01*
X163817999Y-100315060D01*
X163817924Y-100314999D01*
X163818454Y-100314351D01*
X163819766Y-100312312D01*
X163821789Y-100310289D01*
X163909394Y-100179179D01*
X163969737Y-100033497D01*
X164000500Y-99878842D01*
X164000500Y-99721158D01*
X164000500Y-99721155D01*
X164000499Y-99721153D01*
X163979684Y-99616510D01*
X163969737Y-99566503D01*
X163969735Y-99566498D01*
X163909397Y-99420827D01*
X163909390Y-99420814D01*
X163821789Y-99289711D01*
X163821786Y-99289707D01*
X163710292Y-99178213D01*
X163710288Y-99178210D01*
X163579185Y-99090609D01*
X163579172Y-99090602D01*
X163433501Y-99030264D01*
X163433489Y-99030261D01*
X163278845Y-98999500D01*
X163278842Y-98999500D01*
X163121158Y-98999500D01*
X163121155Y-98999500D01*
X162966510Y-99030261D01*
X162966498Y-99030264D01*
X162820827Y-99090602D01*
X162820814Y-99090609D01*
X162689711Y-99178210D01*
X162689707Y-99178213D01*
X162578213Y-99289707D01*
X162578210Y-99289711D01*
X162490609Y-99420814D01*
X162490602Y-99420827D01*
X162430264Y-99566498D01*
X162430261Y-99566510D01*
X162399500Y-99721153D01*
X149088538Y-99721153D01*
X149064738Y-99601508D01*
X149064737Y-99601507D01*
X149064737Y-99601503D01*
X149035228Y-99530261D01*
X149004397Y-99455827D01*
X149004390Y-99455814D01*
X148916789Y-99324711D01*
X148916786Y-99324707D01*
X148805292Y-99213213D01*
X148805288Y-99213210D01*
X148674185Y-99125609D01*
X148674172Y-99125602D01*
X148528501Y-99065264D01*
X148528489Y-99065261D01*
X148373845Y-99034500D01*
X148373842Y-99034500D01*
X148216158Y-99034500D01*
X148216155Y-99034500D01*
X148061510Y-99065261D01*
X148061498Y-99065264D01*
X147915828Y-99125602D01*
X147915814Y-99125610D01*
X147860162Y-99162794D01*
X147793484Y-99183670D01*
X147726105Y-99165184D01*
X147722384Y-99162792D01*
X147689189Y-99140612D01*
X147689182Y-99140608D01*
X147689179Y-99140606D01*
X147689175Y-99140604D01*
X147689171Y-99140602D01*
X147543501Y-99080264D01*
X147543489Y-99080261D01*
X147388845Y-99049500D01*
X147388842Y-99049500D01*
X147231158Y-99049500D01*
X147231155Y-99049500D01*
X147076510Y-99080261D01*
X147076498Y-99080264D01*
X146930827Y-99140602D01*
X146930814Y-99140609D01*
X146799711Y-99228210D01*
X146799707Y-99228213D01*
X146688213Y-99339707D01*
X146688210Y-99339711D01*
X146600609Y-99470814D01*
X146600602Y-99470827D01*
X146540264Y-99616498D01*
X146540261Y-99616510D01*
X146509500Y-99771153D01*
X146113232Y-99771153D01*
X146020292Y-99678213D01*
X146020288Y-99678210D01*
X145889185Y-99590609D01*
X145889172Y-99590602D01*
X145743501Y-99530264D01*
X145743489Y-99530261D01*
X145588845Y-99499500D01*
X145588842Y-99499500D01*
X145431158Y-99499500D01*
X145431155Y-99499500D01*
X145276510Y-99530261D01*
X145276498Y-99530264D01*
X145130827Y-99590602D01*
X145130814Y-99590609D01*
X144999711Y-99678210D01*
X144999707Y-99678213D01*
X144888213Y-99789707D01*
X144888210Y-99789711D01*
X144800609Y-99920814D01*
X144800602Y-99920827D01*
X144740264Y-100066498D01*
X144740261Y-100066510D01*
X144709500Y-100221153D01*
X144709500Y-100378846D01*
X144740261Y-100533494D01*
X144740263Y-100533498D01*
X144748027Y-100552242D01*
X144755496Y-100621712D01*
X144731168Y-100674360D01*
X144731595Y-100674646D01*
X144729785Y-100677354D01*
X144729322Y-100678357D01*
X144728209Y-100679712D01*
X144640609Y-100810814D01*
X144640602Y-100810827D01*
X144580264Y-100956498D01*
X144580261Y-100956510D01*
X144549500Y-101111153D01*
X133837428Y-101111153D01*
X133778845Y-101099500D01*
X133778842Y-101099500D01*
X133621158Y-101099500D01*
X133621155Y-101099500D01*
X133466510Y-101130261D01*
X133466498Y-101130264D01*
X133320827Y-101190602D01*
X133320814Y-101190609D01*
X133189711Y-101278210D01*
X133189707Y-101278213D01*
X133078213Y-101389707D01*
X133078210Y-101389711D01*
X133003102Y-101502118D01*
X132949490Y-101546923D01*
X132880165Y-101555630D01*
X132817137Y-101525475D01*
X132796898Y-101502118D01*
X132721789Y-101389711D01*
X132721786Y-101389707D01*
X132610292Y-101278213D01*
X132610288Y-101278210D01*
X132479185Y-101190609D01*
X132479172Y-101190602D01*
X132333501Y-101130264D01*
X132333489Y-101130261D01*
X132178845Y-101099500D01*
X132178842Y-101099500D01*
X132021158Y-101099500D01*
X132021155Y-101099500D01*
X131866510Y-101130261D01*
X131866498Y-101130264D01*
X131720827Y-101190602D01*
X131720814Y-101190609D01*
X131589711Y-101278210D01*
X131589707Y-101278213D01*
X131478213Y-101389707D01*
X131478210Y-101389711D01*
X131403102Y-101502118D01*
X131349490Y-101546923D01*
X131280165Y-101555630D01*
X131217137Y-101525475D01*
X131196898Y-101502118D01*
X131121789Y-101389711D01*
X131121786Y-101389707D01*
X131010292Y-101278213D01*
X131010288Y-101278210D01*
X130879185Y-101190609D01*
X130879172Y-101190602D01*
X130733501Y-101130264D01*
X130733489Y-101130261D01*
X130578845Y-101099500D01*
X130578842Y-101099500D01*
X130421158Y-101099500D01*
X130421155Y-101099500D01*
X130266510Y-101130261D01*
X130266498Y-101130264D01*
X130120827Y-101190602D01*
X130120814Y-101190609D01*
X129989711Y-101278210D01*
X129989707Y-101278213D01*
X129878213Y-101389707D01*
X129878210Y-101389711D01*
X129790609Y-101520814D01*
X129790602Y-101520827D01*
X129730264Y-101666498D01*
X129730261Y-101666510D01*
X129699500Y-101821153D01*
X120525500Y-101821153D01*
X120525500Y-101643713D01*
X120492246Y-101433757D01*
X120426557Y-101231588D01*
X120330051Y-101042184D01*
X120330049Y-101042181D01*
X120330048Y-101042179D01*
X120205109Y-100870213D01*
X120066294Y-100731398D01*
X120032809Y-100670075D01*
X120037793Y-100600383D01*
X120079665Y-100544450D01*
X120088879Y-100538178D01*
X120094331Y-100534814D01*
X120094334Y-100534814D01*
X120243656Y-100442712D01*
X120367712Y-100318656D01*
X120459814Y-100169334D01*
X120514999Y-100002797D01*
X120525500Y-99900009D01*
X120525499Y-98599992D01*
X120514999Y-98497203D01*
X120459814Y-98330666D01*
X120367712Y-98181344D01*
X120243656Y-98057288D01*
X120185071Y-98021153D01*
X153199500Y-98021153D01*
X153199500Y-98178846D01*
X153230261Y-98333489D01*
X153230264Y-98333501D01*
X153290602Y-98479172D01*
X153290609Y-98479185D01*
X153378210Y-98610288D01*
X153378213Y-98610292D01*
X153489707Y-98721786D01*
X153489711Y-98721789D01*
X153620814Y-98809390D01*
X153620827Y-98809397D01*
X153766498Y-98869735D01*
X153766503Y-98869737D01*
X153921153Y-98900499D01*
X153921156Y-98900500D01*
X153921158Y-98900500D01*
X154078844Y-98900500D01*
X154078845Y-98900499D01*
X154233497Y-98869737D01*
X154379179Y-98809394D01*
X154510289Y-98721789D01*
X154621789Y-98610289D01*
X154709394Y-98479179D01*
X154769737Y-98333497D01*
X154800500Y-98178842D01*
X154800500Y-98021158D01*
X154800500Y-98021155D01*
X154800499Y-98021153D01*
X154780551Y-97920863D01*
X154769738Y-97866508D01*
X154769737Y-97866507D01*
X154769737Y-97866503D01*
X154768785Y-97864205D01*
X154709397Y-97720827D01*
X154709390Y-97720814D01*
X154621789Y-97589711D01*
X154621786Y-97589707D01*
X154510292Y-97478213D01*
X154510288Y-97478210D01*
X154438136Y-97429999D01*
X176726115Y-97429999D01*
X176726116Y-97430000D01*
X177478012Y-97430000D01*
X177460795Y-97439940D01*
X177404940Y-97495795D01*
X177365444Y-97564204D01*
X177345000Y-97640504D01*
X177345000Y-97719496D01*
X177365444Y-97795796D01*
X177404940Y-97864205D01*
X177460795Y-97920060D01*
X177478012Y-97930000D01*
X176726116Y-97930000D01*
X176731506Y-97957100D01*
X176731507Y-97957103D01*
X176803119Y-98129991D01*
X176803124Y-98130000D01*
X176907086Y-98285589D01*
X176907089Y-98285593D01*
X177039406Y-98417910D01*
X177039410Y-98417913D01*
X177194999Y-98521875D01*
X177195008Y-98521880D01*
X177367894Y-98593491D01*
X177367902Y-98593493D01*
X177551428Y-98629999D01*
X177551431Y-98630000D01*
X177945000Y-98630000D01*
X177945000Y-97980000D01*
X178445000Y-97980000D01*
X178445000Y-98630000D01*
X178838569Y-98630000D01*
X178838571Y-98629999D01*
X179022097Y-98593493D01*
X179022105Y-98593491D01*
X179194991Y-98521880D01*
X179195000Y-98521875D01*
X179350589Y-98417913D01*
X179350593Y-98417910D01*
X179482910Y-98285593D01*
X179482913Y-98285589D01*
X179586875Y-98130000D01*
X179586880Y-98129991D01*
X179658492Y-97957103D01*
X179658493Y-97957100D01*
X179663884Y-97930000D01*
X178911988Y-97930000D01*
X178929205Y-97920060D01*
X178985060Y-97864205D01*
X179024556Y-97795796D01*
X179045000Y-97719496D01*
X179045000Y-97640504D01*
X179024556Y-97564204D01*
X178985060Y-97495795D01*
X178929205Y-97439940D01*
X178911988Y-97430000D01*
X179663884Y-97430000D01*
X179663884Y-97429999D01*
X181046115Y-97429999D01*
X181046116Y-97430000D01*
X181798012Y-97430000D01*
X181780795Y-97439940D01*
X181724940Y-97495795D01*
X181685444Y-97564204D01*
X181665000Y-97640504D01*
X181665000Y-97719496D01*
X181685444Y-97795796D01*
X181724940Y-97864205D01*
X181780795Y-97920060D01*
X181798012Y-97930000D01*
X181046116Y-97930000D01*
X181051506Y-97957100D01*
X181051507Y-97957103D01*
X181123119Y-98129991D01*
X181123124Y-98130000D01*
X181227086Y-98285589D01*
X181227089Y-98285593D01*
X181359406Y-98417910D01*
X181359410Y-98417913D01*
X181514999Y-98521875D01*
X181515008Y-98521880D01*
X181687894Y-98593491D01*
X181687902Y-98593493D01*
X181871428Y-98629999D01*
X181871431Y-98630000D01*
X182115000Y-98630000D01*
X182115000Y-97980000D01*
X182615000Y-97980000D01*
X182615000Y-98630000D01*
X182858569Y-98630000D01*
X182858571Y-98629999D01*
X183042097Y-98593493D01*
X183042105Y-98593491D01*
X183214991Y-98521880D01*
X183215000Y-98521875D01*
X183370589Y-98417913D01*
X183370593Y-98417910D01*
X183502910Y-98285593D01*
X183502913Y-98285589D01*
X183606875Y-98130000D01*
X183606880Y-98129991D01*
X183678492Y-97957103D01*
X183678493Y-97957100D01*
X183683884Y-97930000D01*
X182931988Y-97930000D01*
X182949205Y-97920060D01*
X183005060Y-97864205D01*
X183044556Y-97795796D01*
X183065000Y-97719496D01*
X183065000Y-97640504D01*
X183044556Y-97564204D01*
X183005060Y-97495795D01*
X182949205Y-97439940D01*
X182931988Y-97430000D01*
X183683884Y-97430000D01*
X183683884Y-97429999D01*
X183678493Y-97402899D01*
X183678492Y-97402896D01*
X183606880Y-97230008D01*
X183606875Y-97229999D01*
X183502913Y-97074410D01*
X183502910Y-97074406D01*
X183370593Y-96942089D01*
X183370589Y-96942086D01*
X183215000Y-96838124D01*
X183214991Y-96838119D01*
X183042105Y-96766508D01*
X183042097Y-96766506D01*
X182858570Y-96730000D01*
X182615000Y-96730000D01*
X182615000Y-97380000D01*
X182115000Y-97380000D01*
X182115000Y-96730000D01*
X181871430Y-96730000D01*
X181687902Y-96766506D01*
X181687894Y-96766508D01*
X181515008Y-96838119D01*
X181514999Y-96838124D01*
X181359410Y-96942086D01*
X181359406Y-96942089D01*
X181227089Y-97074406D01*
X181227086Y-97074410D01*
X181123124Y-97229999D01*
X181123119Y-97230008D01*
X181051507Y-97402896D01*
X181051506Y-97402899D01*
X181046115Y-97429999D01*
X179663884Y-97429999D01*
X179658493Y-97402899D01*
X179658492Y-97402896D01*
X179586880Y-97230008D01*
X179586875Y-97229999D01*
X179482913Y-97074410D01*
X179482910Y-97074406D01*
X179350593Y-96942089D01*
X179350589Y-96942086D01*
X179195000Y-96838124D01*
X179194991Y-96838119D01*
X179022105Y-96766508D01*
X179022097Y-96766506D01*
X178838570Y-96730000D01*
X178445000Y-96730000D01*
X178445000Y-97380000D01*
X177945000Y-97380000D01*
X177945000Y-96730000D01*
X177551430Y-96730000D01*
X177367902Y-96766506D01*
X177367894Y-96766508D01*
X177195008Y-96838119D01*
X177194999Y-96838124D01*
X177039410Y-96942086D01*
X177039406Y-96942089D01*
X176907089Y-97074406D01*
X176907086Y-97074410D01*
X176803124Y-97229999D01*
X176803119Y-97230008D01*
X176731507Y-97402896D01*
X176731506Y-97402899D01*
X176726115Y-97429999D01*
X154438136Y-97429999D01*
X154379185Y-97390609D01*
X154379172Y-97390602D01*
X154233501Y-97330264D01*
X154233489Y-97330261D01*
X154078845Y-97299500D01*
X154078842Y-97299500D01*
X153921158Y-97299500D01*
X153921155Y-97299500D01*
X153766510Y-97330261D01*
X153766498Y-97330264D01*
X153620827Y-97390602D01*
X153620814Y-97390609D01*
X153489711Y-97478210D01*
X153489707Y-97478213D01*
X153378213Y-97589707D01*
X153378210Y-97589711D01*
X153290609Y-97720814D01*
X153290602Y-97720827D01*
X153230264Y-97866498D01*
X153230261Y-97866510D01*
X153199500Y-98021153D01*
X120185071Y-98021153D01*
X120150888Y-98000069D01*
X120094336Y-97965187D01*
X120094331Y-97965185D01*
X120069932Y-97957100D01*
X119927797Y-97910001D01*
X119927795Y-97910000D01*
X119825010Y-97899500D01*
X118224998Y-97899500D01*
X118224981Y-97899501D01*
X118122203Y-97910000D01*
X118122200Y-97910001D01*
X117955668Y-97965185D01*
X117955663Y-97965187D01*
X117806342Y-98057289D01*
X117682289Y-98181342D01*
X117590187Y-98330663D01*
X117590185Y-98330668D01*
X117562349Y-98414670D01*
X117535001Y-98497203D01*
X117535001Y-98497204D01*
X117535000Y-98497204D01*
X117524500Y-98599983D01*
X115000500Y-98599983D01*
X115000500Y-95742153D01*
X148501500Y-95742153D01*
X148501500Y-95899846D01*
X148532261Y-96054489D01*
X148532264Y-96054501D01*
X148592602Y-96200172D01*
X148592609Y-96200185D01*
X148680210Y-96331288D01*
X148680213Y-96331292D01*
X148791707Y-96442786D01*
X148791711Y-96442789D01*
X148922814Y-96530390D01*
X148922827Y-96530397D01*
X149068498Y-96590735D01*
X149068503Y-96590737D01*
X149223153Y-96621499D01*
X149223156Y-96621500D01*
X149223158Y-96621500D01*
X149380844Y-96621500D01*
X149380845Y-96621499D01*
X149535497Y-96590737D01*
X149681179Y-96530394D01*
X149812289Y-96442789D01*
X149923789Y-96331289D01*
X149930561Y-96321153D01*
X150879500Y-96321153D01*
X150879500Y-96478846D01*
X150910261Y-96633489D01*
X150910264Y-96633501D01*
X150970602Y-96779172D01*
X150970609Y-96779185D01*
X151058210Y-96910288D01*
X151058213Y-96910292D01*
X151169707Y-97021786D01*
X151169711Y-97021789D01*
X151300814Y-97109390D01*
X151300827Y-97109397D01*
X151446498Y-97169735D01*
X151446503Y-97169737D01*
X151601153Y-97200499D01*
X151601156Y-97200500D01*
X151601158Y-97200500D01*
X151758844Y-97200500D01*
X151758845Y-97200499D01*
X151913497Y-97169737D01*
X152059179Y-97109394D01*
X152190289Y-97021789D01*
X152301789Y-96910289D01*
X152389394Y-96779179D01*
X152394643Y-96766508D01*
X152449735Y-96633501D01*
X152449737Y-96633497D01*
X152480500Y-96478842D01*
X152480500Y-96321158D01*
X152480500Y-96321155D01*
X152480499Y-96321153D01*
X152456437Y-96200185D01*
X152449737Y-96166503D01*
X152403340Y-96054489D01*
X152389397Y-96020827D01*
X152389390Y-96020814D01*
X152301789Y-95889711D01*
X152301786Y-95889707D01*
X152190292Y-95778213D01*
X152190288Y-95778210D01*
X152059185Y-95690609D01*
X152059172Y-95690602D01*
X151913501Y-95630264D01*
X151913489Y-95630261D01*
X151758845Y-95599500D01*
X151758842Y-95599500D01*
X151601158Y-95599500D01*
X151601155Y-95599500D01*
X151446510Y-95630261D01*
X151446498Y-95630264D01*
X151300827Y-95690602D01*
X151300814Y-95690609D01*
X151169711Y-95778210D01*
X151169707Y-95778213D01*
X151058213Y-95889707D01*
X151058210Y-95889711D01*
X150970609Y-96020814D01*
X150970602Y-96020827D01*
X150910264Y-96166498D01*
X150910261Y-96166510D01*
X150879500Y-96321153D01*
X149930561Y-96321153D01*
X149954251Y-96285698D01*
X149980661Y-96246175D01*
X150011390Y-96200185D01*
X150011390Y-96200184D01*
X150011394Y-96200179D01*
X150071737Y-96054497D01*
X150102500Y-95899842D01*
X150102500Y-95742158D01*
X150102500Y-95742155D01*
X150102499Y-95742153D01*
X150092246Y-95690609D01*
X150071737Y-95587503D01*
X150068520Y-95579737D01*
X150011397Y-95441827D01*
X150011390Y-95441814D01*
X149923789Y-95310711D01*
X149923786Y-95310707D01*
X149812292Y-95199213D01*
X149812288Y-95199210D01*
X149681185Y-95111609D01*
X149681172Y-95111602D01*
X149535501Y-95051264D01*
X149535489Y-95051261D01*
X149380845Y-95020500D01*
X149380842Y-95020500D01*
X149223158Y-95020500D01*
X149223155Y-95020500D01*
X149068510Y-95051261D01*
X149068498Y-95051264D01*
X148922827Y-95111602D01*
X148922814Y-95111609D01*
X148791711Y-95199210D01*
X148791707Y-95199213D01*
X148680213Y-95310707D01*
X148680210Y-95310711D01*
X148592609Y-95441814D01*
X148592602Y-95441827D01*
X148532264Y-95587498D01*
X148532261Y-95587510D01*
X148501500Y-95742153D01*
X115000500Y-95742153D01*
X115000500Y-94121153D01*
X134174500Y-94121153D01*
X134174500Y-94278846D01*
X134205261Y-94433489D01*
X134205264Y-94433501D01*
X134265602Y-94579172D01*
X134265609Y-94579185D01*
X134353210Y-94710288D01*
X134353213Y-94710292D01*
X134464707Y-94821786D01*
X134464711Y-94821789D01*
X134595814Y-94909390D01*
X134595827Y-94909397D01*
X134741498Y-94969735D01*
X134741503Y-94969737D01*
X134896153Y-95000499D01*
X134896156Y-95000500D01*
X134896158Y-95000500D01*
X135053844Y-95000500D01*
X135053845Y-95000499D01*
X135208497Y-94969737D01*
X135321166Y-94923067D01*
X135354172Y-94909397D01*
X135354172Y-94909396D01*
X135354179Y-94909394D01*
X135485289Y-94821789D01*
X135575925Y-94731153D01*
X145089500Y-94731153D01*
X145089500Y-94888846D01*
X145120261Y-95043489D01*
X145120264Y-95043501D01*
X145180602Y-95189172D01*
X145180609Y-95189185D01*
X145268210Y-95320288D01*
X145268213Y-95320292D01*
X145379707Y-95431786D01*
X145379711Y-95431789D01*
X145510814Y-95519390D01*
X145510827Y-95519397D01*
X145656498Y-95579735D01*
X145656503Y-95579737D01*
X145755858Y-95599500D01*
X145811153Y-95610499D01*
X145811156Y-95610500D01*
X145811158Y-95610500D01*
X145968844Y-95610500D01*
X145968845Y-95610499D01*
X146123497Y-95579737D01*
X146269179Y-95519394D01*
X146400289Y-95431789D01*
X146511789Y-95320289D01*
X146599394Y-95189179D01*
X146659737Y-95043497D01*
X146690500Y-94888842D01*
X146690500Y-94731158D01*
X146690500Y-94731155D01*
X146690499Y-94731153D01*
X146675585Y-94656175D01*
X146659737Y-94576503D01*
X146659735Y-94576498D01*
X146599397Y-94430827D01*
X146599390Y-94430814D01*
X146511789Y-94299711D01*
X146511786Y-94299707D01*
X146400292Y-94188213D01*
X146400288Y-94188210D01*
X146314897Y-94131153D01*
X155459500Y-94131153D01*
X155459500Y-94288846D01*
X155490261Y-94443489D01*
X155490264Y-94443501D01*
X155550602Y-94589172D01*
X155550609Y-94589185D01*
X155638210Y-94720288D01*
X155638213Y-94720292D01*
X155749707Y-94831786D01*
X155749711Y-94831789D01*
X155880814Y-94919390D01*
X155880827Y-94919397D01*
X156002363Y-94969738D01*
X156026503Y-94979737D01*
X156181153Y-95010499D01*
X156181156Y-95010500D01*
X156181158Y-95010500D01*
X156338844Y-95010500D01*
X156338845Y-95010499D01*
X156493497Y-94979737D01*
X156639179Y-94919394D01*
X156770289Y-94831789D01*
X156881789Y-94720289D01*
X156969394Y-94589179D01*
X157029737Y-94443497D01*
X157060500Y-94288842D01*
X157060500Y-94131158D01*
X157060500Y-94131155D01*
X157060499Y-94131153D01*
X157054422Y-94100602D01*
X157029737Y-93976503D01*
X157001848Y-93909172D01*
X156969397Y-93830827D01*
X156969390Y-93830814D01*
X156881789Y-93699711D01*
X156881786Y-93699707D01*
X156770292Y-93588213D01*
X156770288Y-93588210D01*
X156710361Y-93548168D01*
X156639185Y-93500609D01*
X156639172Y-93500602D01*
X156519790Y-93451153D01*
X157199500Y-93451153D01*
X157199500Y-93608846D01*
X157230261Y-93763489D01*
X157230264Y-93763501D01*
X157290602Y-93909172D01*
X157290609Y-93909185D01*
X157378210Y-94040288D01*
X157378213Y-94040292D01*
X157489707Y-94151786D01*
X157489711Y-94151789D01*
X157620814Y-94239390D01*
X157620827Y-94239397D01*
X157766440Y-94299711D01*
X157766503Y-94299737D01*
X157921153Y-94330499D01*
X157921156Y-94330500D01*
X157921158Y-94330500D01*
X158078844Y-94330500D01*
X158078845Y-94330499D01*
X158233497Y-94299737D01*
X158379179Y-94239394D01*
X158510289Y-94151789D01*
X158621789Y-94040289D01*
X158709394Y-93909179D01*
X158769737Y-93763497D01*
X158800500Y-93608842D01*
X158800500Y-93451158D01*
X158800500Y-93451155D01*
X158800499Y-93451153D01*
X158792214Y-93409500D01*
X158769737Y-93296503D01*
X158769735Y-93296498D01*
X158709397Y-93150827D01*
X158709390Y-93150814D01*
X158621789Y-93019711D01*
X158621786Y-93019707D01*
X158510292Y-92908213D01*
X158510288Y-92908210D01*
X158379185Y-92820609D01*
X158379172Y-92820602D01*
X158233501Y-92760264D01*
X158233489Y-92760261D01*
X158078845Y-92729500D01*
X158078842Y-92729500D01*
X157921158Y-92729500D01*
X157921155Y-92729500D01*
X157766510Y-92760261D01*
X157766498Y-92760264D01*
X157620827Y-92820602D01*
X157620814Y-92820609D01*
X157489711Y-92908210D01*
X157489707Y-92908213D01*
X157378213Y-93019707D01*
X157378210Y-93019711D01*
X157290609Y-93150814D01*
X157290602Y-93150827D01*
X157230264Y-93296498D01*
X157230261Y-93296510D01*
X157199500Y-93451153D01*
X156519790Y-93451153D01*
X156493501Y-93440264D01*
X156493489Y-93440261D01*
X156338845Y-93409500D01*
X156338842Y-93409500D01*
X156181158Y-93409500D01*
X156181155Y-93409500D01*
X156026510Y-93440261D01*
X156026498Y-93440264D01*
X155880827Y-93500602D01*
X155880814Y-93500609D01*
X155749711Y-93588210D01*
X155749707Y-93588213D01*
X155638213Y-93699707D01*
X155638210Y-93699711D01*
X155550609Y-93830814D01*
X155550602Y-93830827D01*
X155490264Y-93976498D01*
X155490261Y-93976510D01*
X155459500Y-94131153D01*
X146314897Y-94131153D01*
X146269185Y-94100609D01*
X146269172Y-94100602D01*
X146123501Y-94040264D01*
X146123489Y-94040261D01*
X145968845Y-94009500D01*
X145968842Y-94009500D01*
X145811158Y-94009500D01*
X145811155Y-94009500D01*
X145656510Y-94040261D01*
X145656498Y-94040264D01*
X145510827Y-94100602D01*
X145510814Y-94100609D01*
X145379711Y-94188210D01*
X145379707Y-94188213D01*
X145268213Y-94299707D01*
X145268210Y-94299711D01*
X145180609Y-94430814D01*
X145180602Y-94430827D01*
X145120264Y-94576498D01*
X145120261Y-94576510D01*
X145089500Y-94731153D01*
X135575925Y-94731153D01*
X135596789Y-94710289D01*
X135684394Y-94579179D01*
X135685503Y-94576503D01*
X135744735Y-94433501D01*
X135744737Y-94433497D01*
X135775500Y-94278842D01*
X135775500Y-94121158D01*
X135775500Y-94121155D01*
X135775499Y-94121153D01*
X135744737Y-93966503D01*
X135744735Y-93966498D01*
X135684397Y-93820827D01*
X135684390Y-93820814D01*
X135596789Y-93689711D01*
X135596786Y-93689707D01*
X135485292Y-93578213D01*
X135485288Y-93578210D01*
X135354185Y-93490609D01*
X135354172Y-93490602D01*
X135208501Y-93430264D01*
X135208489Y-93430261D01*
X135053845Y-93399500D01*
X135053842Y-93399500D01*
X134896158Y-93399500D01*
X134896155Y-93399500D01*
X134741510Y-93430261D01*
X134741498Y-93430264D01*
X134595827Y-93490602D01*
X134595814Y-93490609D01*
X134464711Y-93578210D01*
X134464707Y-93578213D01*
X134353213Y-93689707D01*
X134353210Y-93689711D01*
X134265609Y-93820814D01*
X134265602Y-93820827D01*
X134205264Y-93966498D01*
X134205261Y-93966510D01*
X134174500Y-94121153D01*
X115000500Y-94121153D01*
X115000500Y-91224983D01*
X116649500Y-91224983D01*
X116649500Y-92775001D01*
X116649501Y-92775018D01*
X116660000Y-92877796D01*
X116660001Y-92877799D01*
X116705894Y-93016294D01*
X116715186Y-93044334D01*
X116807288Y-93193656D01*
X116931344Y-93317712D01*
X117080666Y-93409814D01*
X117247203Y-93464999D01*
X117349991Y-93475500D01*
X118650008Y-93475499D01*
X118752797Y-93464999D01*
X118919334Y-93409814D01*
X119068656Y-93317712D01*
X119192712Y-93193656D01*
X119284814Y-93044334D01*
X119284814Y-93044331D01*
X119288178Y-93038879D01*
X119340126Y-92992154D01*
X119409088Y-92980931D01*
X119473170Y-93008774D01*
X119481398Y-93016294D01*
X119620213Y-93155109D01*
X119792179Y-93280048D01*
X119792181Y-93280049D01*
X119792184Y-93280051D01*
X119981588Y-93376557D01*
X120183757Y-93442246D01*
X120393713Y-93475500D01*
X120393714Y-93475500D01*
X120606286Y-93475500D01*
X120606287Y-93475500D01*
X120816243Y-93442246D01*
X121018412Y-93376557D01*
X121207816Y-93280051D01*
X121305068Y-93209394D01*
X121379786Y-93155109D01*
X121379788Y-93155106D01*
X121379792Y-93155104D01*
X121530104Y-93004792D01*
X121649991Y-92839779D01*
X121705320Y-92797115D01*
X121774933Y-92791136D01*
X121836729Y-92823741D01*
X121850627Y-92839781D01*
X121970272Y-93004459D01*
X121970276Y-93004464D01*
X122120535Y-93154723D01*
X122120540Y-93154727D01*
X122292442Y-93279620D01*
X122481782Y-93376095D01*
X122683871Y-93441757D01*
X122750000Y-93452231D01*
X122750000Y-92404145D01*
X122816657Y-92442630D01*
X122937465Y-92475000D01*
X123062535Y-92475000D01*
X123183343Y-92442630D01*
X123250000Y-92404145D01*
X123250000Y-93452230D01*
X123316126Y-93441757D01*
X123316129Y-93441757D01*
X123518217Y-93376095D01*
X123707557Y-93279620D01*
X123879459Y-93154727D01*
X123879464Y-93154723D01*
X124029723Y-93004464D01*
X124029727Y-93004459D01*
X124154620Y-92832557D01*
X124251095Y-92643217D01*
X124316757Y-92441130D01*
X124316757Y-92441127D01*
X124347030Y-92250000D01*
X123404146Y-92250000D01*
X123442630Y-92183343D01*
X123475000Y-92062535D01*
X123475000Y-91937465D01*
X123470629Y-91921153D01*
X138099500Y-91921153D01*
X138099500Y-92078846D01*
X138130261Y-92233489D01*
X138130264Y-92233501D01*
X138190602Y-92379172D01*
X138190609Y-92379185D01*
X138278210Y-92510288D01*
X138278213Y-92510292D01*
X138389707Y-92621786D01*
X138389711Y-92621789D01*
X138520814Y-92709390D01*
X138520827Y-92709397D01*
X138643633Y-92760264D01*
X138666503Y-92769737D01*
X138804141Y-92797115D01*
X138821153Y-92800499D01*
X138821156Y-92800500D01*
X138821158Y-92800500D01*
X138978844Y-92800500D01*
X138978845Y-92800499D01*
X139133497Y-92769737D01*
X139279179Y-92709394D01*
X139410289Y-92621789D01*
X139521789Y-92510289D01*
X139581348Y-92421153D01*
X166899500Y-92421153D01*
X166899500Y-92578846D01*
X166930261Y-92733489D01*
X166930264Y-92733501D01*
X166990602Y-92879172D01*
X166990609Y-92879185D01*
X167078210Y-93010288D01*
X167078213Y-93010292D01*
X167189707Y-93121786D01*
X167189711Y-93121789D01*
X167320814Y-93209390D01*
X167320827Y-93209397D01*
X167466498Y-93269735D01*
X167466503Y-93269737D01*
X167601039Y-93296498D01*
X167621153Y-93300499D01*
X167621156Y-93300500D01*
X167621158Y-93300500D01*
X167778844Y-93300500D01*
X167778845Y-93300499D01*
X167933497Y-93269737D01*
X168079179Y-93209394D01*
X168210289Y-93121789D01*
X168321789Y-93010289D01*
X168409394Y-92879179D01*
X168409967Y-92877797D01*
X168433654Y-92820609D01*
X168469737Y-92733497D01*
X168500500Y-92578842D01*
X168500500Y-92421158D01*
X168500500Y-92421155D01*
X168500499Y-92421153D01*
X168485907Y-92347795D01*
X168469737Y-92266503D01*
X168455150Y-92231287D01*
X168409397Y-92120827D01*
X168409390Y-92120814D01*
X168321789Y-91989711D01*
X168321786Y-91989707D01*
X168210292Y-91878213D01*
X168210288Y-91878210D01*
X168079185Y-91790609D01*
X168079172Y-91790602D01*
X168000942Y-91758199D01*
X167933501Y-91730264D01*
X167933489Y-91730261D01*
X167778845Y-91699500D01*
X167778842Y-91699500D01*
X167621158Y-91699500D01*
X167621155Y-91699500D01*
X167466510Y-91730261D01*
X167466498Y-91730264D01*
X167320827Y-91790602D01*
X167320814Y-91790609D01*
X167189711Y-91878210D01*
X167189707Y-91878213D01*
X167078213Y-91989707D01*
X167078210Y-91989711D01*
X166990609Y-92120814D01*
X166990602Y-92120827D01*
X166930264Y-92266498D01*
X166930261Y-92266510D01*
X166899500Y-92421153D01*
X139581348Y-92421153D01*
X139609394Y-92379179D01*
X139669737Y-92233497D01*
X139700500Y-92078842D01*
X139700500Y-91921158D01*
X139700500Y-91921155D01*
X139700499Y-91921153D01*
X139698505Y-91911127D01*
X139669737Y-91766503D01*
X139662901Y-91750000D01*
X139609397Y-91620827D01*
X139609390Y-91620814D01*
X139521789Y-91489711D01*
X139521786Y-91489707D01*
X139410292Y-91378213D01*
X139410288Y-91378210D01*
X139279185Y-91290609D01*
X139279172Y-91290602D01*
X139133501Y-91230264D01*
X139133489Y-91230261D01*
X138978845Y-91199500D01*
X138978842Y-91199500D01*
X138821158Y-91199500D01*
X138821155Y-91199500D01*
X138666510Y-91230261D01*
X138666498Y-91230264D01*
X138520827Y-91290602D01*
X138520814Y-91290609D01*
X138389711Y-91378210D01*
X138389707Y-91378213D01*
X138278213Y-91489707D01*
X138278210Y-91489711D01*
X138190609Y-91620814D01*
X138190602Y-91620827D01*
X138130264Y-91766498D01*
X138130261Y-91766510D01*
X138099500Y-91921153D01*
X123470629Y-91921153D01*
X123442630Y-91816657D01*
X123404146Y-91750000D01*
X124347030Y-91750000D01*
X124316757Y-91558872D01*
X124316757Y-91558869D01*
X124251095Y-91356782D01*
X124154620Y-91167442D01*
X124029727Y-90995540D01*
X124029723Y-90995535D01*
X123879464Y-90845276D01*
X123879459Y-90845272D01*
X123707557Y-90720379D01*
X123518215Y-90623903D01*
X123316124Y-90558241D01*
X123250000Y-90547768D01*
X123250000Y-91595854D01*
X123183343Y-91557370D01*
X123062535Y-91525000D01*
X122937465Y-91525000D01*
X122816657Y-91557370D01*
X122750000Y-91595854D01*
X122750000Y-90547768D01*
X122749999Y-90547768D01*
X122683875Y-90558241D01*
X122481784Y-90623903D01*
X122292442Y-90720379D01*
X122120540Y-90845272D01*
X122120535Y-90845276D01*
X121970276Y-90995535D01*
X121970272Y-90995540D01*
X121850627Y-91160218D01*
X121795297Y-91202884D01*
X121725684Y-91208863D01*
X121663889Y-91176257D01*
X121649991Y-91160218D01*
X121530109Y-90995214D01*
X121530105Y-90995209D01*
X121379786Y-90844890D01*
X121207820Y-90719951D01*
X121018414Y-90623444D01*
X121018413Y-90623443D01*
X121018412Y-90623443D01*
X120816243Y-90557754D01*
X120816241Y-90557753D01*
X120816240Y-90557753D01*
X120654957Y-90532208D01*
X120606287Y-90524500D01*
X120393713Y-90524500D01*
X120345042Y-90532208D01*
X120183760Y-90557753D01*
X119981585Y-90623444D01*
X119792179Y-90719951D01*
X119620215Y-90844889D01*
X119481398Y-90983706D01*
X119420075Y-91017190D01*
X119350383Y-91012206D01*
X119294450Y-90970334D01*
X119288178Y-90961120D01*
X119192712Y-90806344D01*
X119068657Y-90682289D01*
X119068656Y-90682288D01*
X118919334Y-90590186D01*
X118752797Y-90535001D01*
X118752795Y-90535000D01*
X118650010Y-90524500D01*
X117349998Y-90524500D01*
X117349981Y-90524501D01*
X117247203Y-90535000D01*
X117247200Y-90535001D01*
X117080668Y-90590185D01*
X117080663Y-90590187D01*
X116931342Y-90682289D01*
X116807289Y-90806342D01*
X116715187Y-90955663D01*
X116715185Y-90955668D01*
X116710325Y-90970334D01*
X116660001Y-91122203D01*
X116660001Y-91122204D01*
X116660000Y-91122204D01*
X116649500Y-91224983D01*
X115000500Y-91224983D01*
X115000500Y-87209525D01*
X115020185Y-87142486D01*
X115072989Y-87096731D01*
X115142147Y-87086787D01*
X115205703Y-87115812D01*
X115220347Y-87130854D01*
X115352747Y-87292184D01*
X115403177Y-87353633D01*
X115646367Y-87596823D01*
X115646372Y-87596827D01*
X115646373Y-87596828D01*
X115912240Y-87815019D01*
X116198213Y-88006100D01*
X116198222Y-88006105D01*
X116198224Y-88006106D01*
X116501530Y-88168227D01*
X116501532Y-88168227D01*
X116501538Y-88168231D01*
X116819295Y-88299850D01*
X117148422Y-88399690D01*
X117485750Y-88466789D01*
X117828031Y-88500500D01*
X117828034Y-88500500D01*
X118171966Y-88500500D01*
X118171969Y-88500500D01*
X118514250Y-88466789D01*
X118851578Y-88399690D01*
X119180705Y-88299850D01*
X119498462Y-88168231D01*
X119801787Y-88006100D01*
X120087760Y-87815019D01*
X120353627Y-87596828D01*
X120596828Y-87353627D01*
X120815019Y-87087760D01*
X121006100Y-86801787D01*
X121168231Y-86498462D01*
X121299850Y-86180705D01*
X121399690Y-85851578D01*
X121466789Y-85514250D01*
X121500500Y-85171969D01*
X121500500Y-84921153D01*
X134899500Y-84921153D01*
X134899500Y-85078846D01*
X134930261Y-85233489D01*
X134930264Y-85233501D01*
X134990602Y-85379172D01*
X134990609Y-85379185D01*
X135078210Y-85510288D01*
X135078213Y-85510292D01*
X135189707Y-85621786D01*
X135189711Y-85621789D01*
X135320814Y-85709390D01*
X135320827Y-85709397D01*
X135394013Y-85739711D01*
X135466503Y-85769737D01*
X135621153Y-85800499D01*
X135621156Y-85800500D01*
X135621158Y-85800500D01*
X135778844Y-85800500D01*
X135778845Y-85800499D01*
X135933497Y-85769737D01*
X136079179Y-85709394D01*
X136210289Y-85621789D01*
X136321789Y-85510289D01*
X136409394Y-85379179D01*
X136469737Y-85233497D01*
X136500500Y-85078842D01*
X136500500Y-84921158D01*
X136500500Y-84921155D01*
X136500499Y-84921153D01*
X136481976Y-84828031D01*
X136469737Y-84766503D01*
X136463804Y-84752179D01*
X136409395Y-84620822D01*
X136409393Y-84620819D01*
X136370181Y-84562135D01*
X141374500Y-84562135D01*
X141374500Y-86357870D01*
X141374501Y-86357876D01*
X141380908Y-86417483D01*
X141431202Y-86552328D01*
X141431206Y-86552335D01*
X141517452Y-86667544D01*
X141517455Y-86667547D01*
X141632664Y-86753793D01*
X141632671Y-86753797D01*
X141764082Y-86802810D01*
X141820016Y-86844681D01*
X141844433Y-86910145D01*
X141829582Y-86978418D01*
X141808431Y-87006673D01*
X141694889Y-87120215D01*
X141569951Y-87292179D01*
X141473444Y-87481585D01*
X141407753Y-87683760D01*
X141374500Y-87893713D01*
X141374500Y-88106286D01*
X141405157Y-88299850D01*
X141407754Y-88316243D01*
X141467136Y-88499002D01*
X141473444Y-88518414D01*
X141569951Y-88707820D01*
X141694890Y-88879786D01*
X141845213Y-89030109D01*
X142017182Y-89155050D01*
X142025946Y-89159516D01*
X142076742Y-89207491D01*
X142093536Y-89275312D01*
X142070998Y-89341447D01*
X142025946Y-89380484D01*
X142017182Y-89384949D01*
X141845213Y-89509890D01*
X141694890Y-89660213D01*
X141569951Y-89832179D01*
X141473444Y-90021585D01*
X141407753Y-90223760D01*
X141374500Y-90433713D01*
X141374500Y-90646286D01*
X141405956Y-90844896D01*
X141407754Y-90856243D01*
X141449169Y-90983706D01*
X141473444Y-91058414D01*
X141569951Y-91247820D01*
X141694890Y-91419786D01*
X141845213Y-91570109D01*
X142017179Y-91695048D01*
X142017181Y-91695049D01*
X142017184Y-91695051D01*
X142206588Y-91791557D01*
X142408757Y-91857246D01*
X142618713Y-91890500D01*
X142618714Y-91890500D01*
X142831286Y-91890500D01*
X142831287Y-91890500D01*
X143041243Y-91857246D01*
X143243412Y-91791557D01*
X143432816Y-91695051D01*
X143511350Y-91637993D01*
X143604786Y-91570109D01*
X143604788Y-91570106D01*
X143604792Y-91570104D01*
X143755104Y-91419792D01*
X143755106Y-91419788D01*
X143755109Y-91419786D01*
X143880048Y-91247820D01*
X143880047Y-91247820D01*
X143880051Y-91247816D01*
X143884514Y-91239054D01*
X143932488Y-91188259D01*
X144000308Y-91171463D01*
X144066444Y-91193999D01*
X144105486Y-91239056D01*
X144109951Y-91247820D01*
X144234890Y-91419786D01*
X144385213Y-91570109D01*
X144557179Y-91695048D01*
X144557181Y-91695049D01*
X144557184Y-91695051D01*
X144746588Y-91791557D01*
X144948757Y-91857246D01*
X145158713Y-91890500D01*
X145158714Y-91890500D01*
X145371286Y-91890500D01*
X145371287Y-91890500D01*
X145581243Y-91857246D01*
X145783412Y-91791557D01*
X145972816Y-91695051D01*
X146051350Y-91637993D01*
X146144786Y-91570109D01*
X146144788Y-91570106D01*
X146144792Y-91570104D01*
X146295104Y-91419792D01*
X146295106Y-91419788D01*
X146295109Y-91419786D01*
X146420048Y-91247820D01*
X146420047Y-91247820D01*
X146420051Y-91247816D01*
X146450145Y-91188753D01*
X170400000Y-91188753D01*
X170400000Y-91195000D01*
X171316988Y-91195000D01*
X171284075Y-91252007D01*
X171250000Y-91379174D01*
X171250000Y-91510826D01*
X171284075Y-91637993D01*
X171316988Y-91695000D01*
X170400000Y-91695000D01*
X170400000Y-91701246D01*
X170433242Y-91911127D01*
X170433242Y-91911130D01*
X170498904Y-92113217D01*
X170595379Y-92302557D01*
X170720272Y-92474459D01*
X170720276Y-92474464D01*
X170870535Y-92624723D01*
X170870540Y-92624727D01*
X171042442Y-92749620D01*
X171231782Y-92846095D01*
X171433871Y-92911757D01*
X171500000Y-92922231D01*
X171500000Y-91878012D01*
X171557007Y-91910925D01*
X171684174Y-91945000D01*
X171815826Y-91945000D01*
X171942993Y-91910925D01*
X172000000Y-91878012D01*
X172000000Y-92922230D01*
X172066126Y-92911757D01*
X172066129Y-92911757D01*
X172268217Y-92846095D01*
X172457557Y-92749620D01*
X172629458Y-92624728D01*
X172768330Y-92485856D01*
X172829653Y-92452371D01*
X172899345Y-92457355D01*
X172955279Y-92499226D01*
X172961551Y-92508440D01*
X172965185Y-92514331D01*
X172965186Y-92514334D01*
X173057288Y-92663656D01*
X173181344Y-92787712D01*
X173330666Y-92879814D01*
X173497203Y-92934999D01*
X173599991Y-92945500D01*
X174900008Y-92945499D01*
X175002797Y-92934999D01*
X175169334Y-92879814D01*
X175318656Y-92787712D01*
X175442712Y-92663656D01*
X175534814Y-92514334D01*
X175589999Y-92347797D01*
X175600500Y-92245009D01*
X175600499Y-90644992D01*
X175589999Y-90542203D01*
X175534814Y-90375666D01*
X175442712Y-90226344D01*
X175318656Y-90102288D01*
X175169334Y-90010186D01*
X175002797Y-89955001D01*
X175002795Y-89955000D01*
X174900010Y-89944500D01*
X173599998Y-89944500D01*
X173599981Y-89944501D01*
X173497203Y-89955000D01*
X173497200Y-89955001D01*
X173330668Y-90010185D01*
X173330663Y-90010187D01*
X173181342Y-90102289D01*
X173057289Y-90226342D01*
X172961551Y-90381559D01*
X172909603Y-90428283D01*
X172840640Y-90439506D01*
X172776558Y-90411662D01*
X172768331Y-90404143D01*
X172629464Y-90265276D01*
X172629459Y-90265272D01*
X172457557Y-90140379D01*
X172268215Y-90043903D01*
X172066124Y-89978241D01*
X172000000Y-89967768D01*
X172000000Y-91011988D01*
X171942993Y-90979075D01*
X171815826Y-90945000D01*
X171684174Y-90945000D01*
X171557007Y-90979075D01*
X171500000Y-91011988D01*
X171500000Y-89967768D01*
X171499999Y-89967768D01*
X171433875Y-89978241D01*
X171231784Y-90043903D01*
X171042442Y-90140379D01*
X170870540Y-90265272D01*
X170870535Y-90265276D01*
X170720276Y-90415535D01*
X170720272Y-90415540D01*
X170595379Y-90587442D01*
X170498904Y-90776782D01*
X170433242Y-90978869D01*
X170433242Y-90978872D01*
X170400000Y-91188753D01*
X146450145Y-91188753D01*
X146516557Y-91058412D01*
X146582246Y-90856243D01*
X146615500Y-90646287D01*
X146615500Y-90433713D01*
X146582246Y-90223757D01*
X146516557Y-90021588D01*
X146420051Y-89832184D01*
X146420049Y-89832181D01*
X146420048Y-89832179D01*
X146295109Y-89660213D01*
X146144792Y-89509896D01*
X146125513Y-89495889D01*
X146125509Y-89495886D01*
X145995119Y-89401153D01*
X181699500Y-89401153D01*
X181699500Y-89558846D01*
X181730261Y-89713489D01*
X181730264Y-89713501D01*
X181790602Y-89859172D01*
X181790609Y-89859185D01*
X181878210Y-89990288D01*
X181878213Y-89990292D01*
X181989707Y-90101786D01*
X181989711Y-90101789D01*
X182120814Y-90189390D01*
X182120827Y-90189397D01*
X182266498Y-90249735D01*
X182266503Y-90249737D01*
X182421153Y-90280499D01*
X182421156Y-90280500D01*
X182421158Y-90280500D01*
X182578844Y-90280500D01*
X182578845Y-90280499D01*
X182733497Y-90249737D01*
X182879179Y-90189394D01*
X183010289Y-90101789D01*
X183121789Y-89990289D01*
X183209394Y-89859179D01*
X183269737Y-89713497D01*
X183300500Y-89558842D01*
X183300500Y-89401158D01*
X183300500Y-89401155D01*
X183300499Y-89401153D01*
X183278079Y-89288443D01*
X183269737Y-89246503D01*
X183249877Y-89198556D01*
X183209397Y-89100827D01*
X183209390Y-89100814D01*
X183121789Y-88969711D01*
X183121786Y-88969707D01*
X183010292Y-88858213D01*
X183010288Y-88858210D01*
X182879185Y-88770609D01*
X182879172Y-88770602D01*
X182733501Y-88710264D01*
X182733489Y-88710261D01*
X182578845Y-88679500D01*
X182578842Y-88679500D01*
X182421158Y-88679500D01*
X182421155Y-88679500D01*
X182266510Y-88710261D01*
X182266498Y-88710264D01*
X182120827Y-88770602D01*
X182120814Y-88770609D01*
X181989711Y-88858210D01*
X181989707Y-88858213D01*
X181878213Y-88969707D01*
X181878210Y-88969711D01*
X181790609Y-89100814D01*
X181790602Y-89100827D01*
X181730264Y-89246498D01*
X181730261Y-89246510D01*
X181699500Y-89401153D01*
X145995119Y-89401153D01*
X145972816Y-89384949D01*
X145956141Y-89376452D01*
X145948888Y-89371338D01*
X145932463Y-89350649D01*
X145913259Y-89332512D01*
X145911080Y-89323714D01*
X145905445Y-89316616D01*
X145902812Y-89290332D01*
X145896463Y-89264692D01*
X145899386Y-89256113D01*
X145898483Y-89247094D01*
X145910478Y-89223560D01*
X145918999Y-89198556D01*
X145926566Y-89191998D01*
X145930213Y-89184845D01*
X145944327Y-89176608D01*
X145964054Y-89159515D01*
X145972816Y-89155051D01*
X145994789Y-89139086D01*
X146144786Y-89030109D01*
X146144788Y-89030106D01*
X146144792Y-89030104D01*
X146295104Y-88879792D01*
X146295106Y-88879788D01*
X146295109Y-88879786D01*
X146420048Y-88707820D01*
X146420047Y-88707820D01*
X146420051Y-88707816D01*
X146516557Y-88518412D01*
X146582246Y-88316243D01*
X146615500Y-88106287D01*
X146615500Y-87893713D01*
X146582246Y-87683757D01*
X146571413Y-87650418D01*
X157148765Y-87650418D01*
X157148765Y-87808111D01*
X157179526Y-87962754D01*
X157179529Y-87962766D01*
X157239867Y-88108437D01*
X157239874Y-88108450D01*
X157327475Y-88239553D01*
X157327478Y-88239557D01*
X157438972Y-88351051D01*
X157438976Y-88351054D01*
X157570079Y-88438655D01*
X157570092Y-88438662D01*
X157637998Y-88466789D01*
X157715768Y-88499002D01*
X157870418Y-88529764D01*
X157870421Y-88529765D01*
X157870423Y-88529765D01*
X158028109Y-88529765D01*
X158028110Y-88529764D01*
X158182762Y-88499002D01*
X158328444Y-88438659D01*
X158459554Y-88351054D01*
X158571054Y-88239554D01*
X158658659Y-88108444D01*
X158659553Y-88106287D01*
X158719000Y-87962766D01*
X158719002Y-87962762D01*
X158749765Y-87808107D01*
X158749765Y-87650423D01*
X158749765Y-87650420D01*
X158749764Y-87650418D01*
X158719003Y-87495775D01*
X158719002Y-87495768D01*
X158719000Y-87495763D01*
X158658662Y-87350092D01*
X158658655Y-87350079D01*
X158586069Y-87241447D01*
X158565191Y-87174770D01*
X158583675Y-87107389D01*
X158635654Y-87060699D01*
X158704624Y-87049523D01*
X158709879Y-87050374D01*
X158711156Y-87050500D01*
X158711158Y-87050500D01*
X158868844Y-87050500D01*
X158868845Y-87050499D01*
X159023497Y-87019737D01*
X159168853Y-86959529D01*
X159169172Y-86959397D01*
X159169172Y-86959396D01*
X159169179Y-86959394D01*
X159300289Y-86871789D01*
X159411789Y-86760289D01*
X159499394Y-86629179D01*
X159559737Y-86483497D01*
X159590500Y-86328842D01*
X159590500Y-86171158D01*
X159590500Y-86171155D01*
X159590499Y-86171153D01*
X159559738Y-86016510D01*
X159559737Y-86016503D01*
X159543959Y-85978412D01*
X159499397Y-85870827D01*
X159499390Y-85870814D01*
X159411789Y-85739711D01*
X159411786Y-85739707D01*
X159300292Y-85628213D01*
X159300288Y-85628210D01*
X159169185Y-85540609D01*
X159169172Y-85540602D01*
X159023501Y-85480264D01*
X159023489Y-85480261D01*
X158868845Y-85449500D01*
X158868842Y-85449500D01*
X158711158Y-85449500D01*
X158711155Y-85449500D01*
X158556510Y-85480261D01*
X158556498Y-85480264D01*
X158410827Y-85540602D01*
X158410814Y-85540609D01*
X158279711Y-85628210D01*
X158279707Y-85628213D01*
X158168213Y-85739707D01*
X158168210Y-85739711D01*
X158080609Y-85870814D01*
X158080602Y-85870827D01*
X158020264Y-86016498D01*
X158020261Y-86016510D01*
X157989500Y-86171153D01*
X157989500Y-86328846D01*
X158020261Y-86483489D01*
X158020264Y-86483501D01*
X158080602Y-86629172D01*
X158080609Y-86629185D01*
X158153195Y-86737817D01*
X158174073Y-86804495D01*
X158155588Y-86871875D01*
X158103610Y-86918565D01*
X158034640Y-86929741D01*
X158029389Y-86928891D01*
X158028110Y-86928765D01*
X158028107Y-86928765D01*
X157870423Y-86928765D01*
X157870420Y-86928765D01*
X157715775Y-86959526D01*
X157715763Y-86959529D01*
X157570092Y-87019867D01*
X157570079Y-87019874D01*
X157438976Y-87107475D01*
X157438972Y-87107478D01*
X157327478Y-87218972D01*
X157327475Y-87218976D01*
X157239874Y-87350079D01*
X157239867Y-87350092D01*
X157179529Y-87495763D01*
X157179526Y-87495775D01*
X157148765Y-87650418D01*
X146571413Y-87650418D01*
X146553999Y-87596823D01*
X146516557Y-87481588D01*
X146420051Y-87292184D01*
X146420049Y-87292181D01*
X146420048Y-87292179D01*
X146295109Y-87120213D01*
X146144786Y-86969890D01*
X145972820Y-86844951D01*
X145972115Y-86844591D01*
X145964054Y-86840485D01*
X145913259Y-86792512D01*
X145896463Y-86724692D01*
X145918999Y-86658556D01*
X145964054Y-86619515D01*
X145972816Y-86615051D01*
X146059138Y-86552335D01*
X146144786Y-86490109D01*
X146144788Y-86490106D01*
X146144792Y-86490104D01*
X146295104Y-86339792D01*
X146295106Y-86339788D01*
X146295109Y-86339786D01*
X146417625Y-86171155D01*
X146420051Y-86167816D01*
X146516557Y-85978412D01*
X146582246Y-85776243D01*
X146615500Y-85566287D01*
X146615500Y-85353713D01*
X146582246Y-85143757D01*
X146516557Y-84941588D01*
X146420051Y-84752184D01*
X146420049Y-84752181D01*
X146420048Y-84752179D01*
X146295109Y-84580213D01*
X146144786Y-84429890D01*
X145972820Y-84304951D01*
X145783414Y-84208444D01*
X145783413Y-84208443D01*
X145783412Y-84208443D01*
X145581243Y-84142754D01*
X145581241Y-84142753D01*
X145581240Y-84142753D01*
X145419957Y-84117208D01*
X145371287Y-84109500D01*
X145158713Y-84109500D01*
X145110042Y-84117208D01*
X144948760Y-84142753D01*
X144746585Y-84208444D01*
X144557179Y-84304951D01*
X144385215Y-84429889D01*
X144271673Y-84543431D01*
X144210350Y-84576915D01*
X144140658Y-84571931D01*
X144084725Y-84530059D01*
X144067810Y-84499082D01*
X144018797Y-84367671D01*
X144018793Y-84367664D01*
X143932547Y-84252455D01*
X143932544Y-84252452D01*
X143817335Y-84166206D01*
X143817328Y-84166202D01*
X143682482Y-84115908D01*
X143682483Y-84115908D01*
X143622883Y-84109501D01*
X143622881Y-84109500D01*
X143622873Y-84109500D01*
X143622864Y-84109500D01*
X141827129Y-84109500D01*
X141827123Y-84109501D01*
X141767516Y-84115908D01*
X141632671Y-84166202D01*
X141632664Y-84166206D01*
X141517455Y-84252452D01*
X141517452Y-84252455D01*
X141431206Y-84367664D01*
X141431202Y-84367671D01*
X141380908Y-84502517D01*
X141374501Y-84562116D01*
X141374500Y-84562135D01*
X136370181Y-84562135D01*
X136321789Y-84489711D01*
X136321786Y-84489707D01*
X136210292Y-84378213D01*
X136210288Y-84378210D01*
X136079185Y-84290609D01*
X136079172Y-84290602D01*
X135933501Y-84230264D01*
X135933489Y-84230261D01*
X135778845Y-84199500D01*
X135778842Y-84199500D01*
X135621158Y-84199500D01*
X135621155Y-84199500D01*
X135466510Y-84230261D01*
X135466498Y-84230264D01*
X135320827Y-84290602D01*
X135320814Y-84290609D01*
X135189711Y-84378210D01*
X135189707Y-84378213D01*
X135078213Y-84489707D01*
X135078210Y-84489711D01*
X134990609Y-84620814D01*
X134990602Y-84620827D01*
X134930264Y-84766498D01*
X134930261Y-84766510D01*
X134899500Y-84921153D01*
X121500500Y-84921153D01*
X121500500Y-84828031D01*
X121466789Y-84485750D01*
X121399690Y-84148422D01*
X121299850Y-83819295D01*
X121196173Y-83568995D01*
X125899499Y-83568995D01*
X125926418Y-83704322D01*
X125926421Y-83704332D01*
X125979221Y-83831804D01*
X125979228Y-83831817D01*
X126055885Y-83946541D01*
X126055888Y-83946545D01*
X126153454Y-84044111D01*
X126153458Y-84044114D01*
X126268182Y-84120771D01*
X126268195Y-84120778D01*
X126395667Y-84173578D01*
X126395672Y-84173580D01*
X126395676Y-84173580D01*
X126395677Y-84173581D01*
X126531004Y-84200500D01*
X126531007Y-84200500D01*
X126668995Y-84200500D01*
X126760041Y-84182389D01*
X126804328Y-84173580D01*
X126931811Y-84120775D01*
X127046542Y-84044114D01*
X127144114Y-83946542D01*
X127220775Y-83831811D01*
X127273580Y-83704328D01*
X127282389Y-83660041D01*
X127300500Y-83568995D01*
X132699499Y-83568995D01*
X132726418Y-83704322D01*
X132726421Y-83704332D01*
X132779221Y-83831804D01*
X132779228Y-83831817D01*
X132855885Y-83946541D01*
X132855888Y-83946545D01*
X132953454Y-84044111D01*
X132953458Y-84044114D01*
X133068182Y-84120771D01*
X133068195Y-84120778D01*
X133195667Y-84173578D01*
X133195672Y-84173580D01*
X133195676Y-84173580D01*
X133195677Y-84173581D01*
X133331004Y-84200500D01*
X133331007Y-84200500D01*
X133468995Y-84200500D01*
X133560041Y-84182389D01*
X133604328Y-84173580D01*
X133731811Y-84120775D01*
X133846542Y-84044114D01*
X133944114Y-83946542D01*
X134020775Y-83831811D01*
X134073580Y-83704328D01*
X134082389Y-83660041D01*
X134100500Y-83568995D01*
X134100500Y-83431004D01*
X134073581Y-83295677D01*
X134073580Y-83295676D01*
X134073580Y-83295672D01*
X134033216Y-83198224D01*
X134020778Y-83168195D01*
X134020771Y-83168182D01*
X133944114Y-83053458D01*
X133944111Y-83053454D01*
X133846545Y-82955888D01*
X133846541Y-82955885D01*
X133731817Y-82879228D01*
X133731804Y-82879221D01*
X133604332Y-82826421D01*
X133604322Y-82826418D01*
X133468995Y-82799500D01*
X133468993Y-82799500D01*
X133331007Y-82799500D01*
X133331005Y-82799500D01*
X133195677Y-82826418D01*
X133195667Y-82826421D01*
X133068195Y-82879221D01*
X133068182Y-82879228D01*
X132953458Y-82955885D01*
X132953454Y-82955888D01*
X132855888Y-83053454D01*
X132855885Y-83053458D01*
X132779228Y-83168182D01*
X132779221Y-83168195D01*
X132726421Y-83295667D01*
X132726418Y-83295677D01*
X132699500Y-83431004D01*
X132699500Y-83431007D01*
X132699500Y-83568993D01*
X132699500Y-83568995D01*
X132699499Y-83568995D01*
X127300500Y-83568995D01*
X127300500Y-83431004D01*
X127273581Y-83295677D01*
X127273580Y-83295676D01*
X127273580Y-83295672D01*
X127233216Y-83198224D01*
X127220778Y-83168195D01*
X127220771Y-83168182D01*
X127144114Y-83053458D01*
X127144111Y-83053454D01*
X127046545Y-82955888D01*
X127046541Y-82955885D01*
X126931817Y-82879228D01*
X126931804Y-82879221D01*
X126804332Y-82826421D01*
X126804322Y-82826418D01*
X126668995Y-82799500D01*
X126668993Y-82799500D01*
X126531007Y-82799500D01*
X126531005Y-82799500D01*
X126395677Y-82826418D01*
X126395667Y-82826421D01*
X126268195Y-82879221D01*
X126268182Y-82879228D01*
X126153458Y-82955885D01*
X126153454Y-82955888D01*
X126055888Y-83053454D01*
X126055885Y-83053458D01*
X125979228Y-83168182D01*
X125979221Y-83168195D01*
X125926421Y-83295667D01*
X125926418Y-83295677D01*
X125899500Y-83431004D01*
X125899500Y-83431007D01*
X125899500Y-83568993D01*
X125899500Y-83568995D01*
X125899499Y-83568995D01*
X121196173Y-83568995D01*
X121168231Y-83501538D01*
X121006100Y-83198213D01*
X120815019Y-82912240D01*
X120596828Y-82646373D01*
X120596827Y-82646372D01*
X120596823Y-82646367D01*
X120353632Y-82403176D01*
X120130861Y-82220353D01*
X120091527Y-82162608D01*
X120089656Y-82092763D01*
X120125843Y-82032995D01*
X120188599Y-82002279D01*
X120209526Y-82000500D01*
X178790474Y-82000500D01*
X178857513Y-82020185D01*
G37*
%TD.AperFunction*%
%TD*%
M02*
