%TF.GenerationSoftware,KiCad,Pcbnew,9.0.2*%
%TF.CreationDate,2025-11-08T13:29:07-08:00*%
%TF.ProjectId,A3-Flight-Computer-Hardware-Rectangular,41332d46-6c69-4676-9874-2d436f6d7075,rev?*%
%TF.SameCoordinates,Original*%
%TF.FileFunction,Soldermask,Top*%
%TF.FilePolarity,Negative*%
%FSLAX46Y46*%
G04 Gerber Fmt 4.6, Leading zero omitted, Abs format (unit mm)*
G04 Created by KiCad (PCBNEW 9.0.2) date 2025-11-08 13:29:07*
%MOMM*%
%LPD*%
G01*
G04 APERTURE LIST*
G04 Aperture macros list*
%AMRoundRect*
0 Rectangle with rounded corners*
0 $1 Rounding radius*
0 $2 $3 $4 $5 $6 $7 $8 $9 X,Y pos of 4 corners*
0 Add a 4 corners polygon primitive as box body*
4,1,4,$2,$3,$4,$5,$6,$7,$8,$9,$2,$3,0*
0 Add four circle primitives for the rounded corners*
1,1,$1+$1,$2,$3*
1,1,$1+$1,$4,$5*
1,1,$1+$1,$6,$7*
1,1,$1+$1,$8,$9*
0 Add four rect primitives between the rounded corners*
20,1,$1+$1,$2,$3,$4,$5,0*
20,1,$1+$1,$4,$5,$6,$7,0*
20,1,$1+$1,$6,$7,$8,$9,0*
20,1,$1+$1,$8,$9,$2,$3,0*%
G04 Aperture macros list end*
%ADD10RoundRect,0.250000X-0.475000X0.250000X-0.475000X-0.250000X0.475000X-0.250000X0.475000X0.250000X0*%
%ADD11RoundRect,0.250000X-0.250000X-0.475000X0.250000X-0.475000X0.250000X0.475000X-0.250000X0.475000X0*%
%ADD12RoundRect,0.250000X0.450000X-0.400000X0.450000X0.400000X-0.450000X0.400000X-0.450000X-0.400000X0*%
%ADD13RoundRect,0.250000X-0.750000X0.600000X-0.750000X-0.600000X0.750000X-0.600000X0.750000X0.600000X0*%
%ADD14O,2.000000X1.700000*%
%ADD15R,1.900000X1.100000*%
%ADD16R,1.160000X0.600000*%
%ADD17R,1.160000X0.300000*%
%ADD18O,2.000000X0.900000*%
%ADD19O,1.700000X0.900000*%
%ADD20C,6.000000*%
%ADD21R,1.117800X0.449200*%
%ADD22R,0.500000X0.813000*%
%ADD23C,0.900000*%
%ADD24RoundRect,0.250000X0.375000X1.000000X-0.375000X1.000000X-0.375000X-1.000000X0.375000X-1.000000X0*%
%ADD25RoundRect,0.250000X-0.262500X-0.450000X0.262500X-0.450000X0.262500X0.450000X-0.262500X0.450000X0*%
%ADD26RoundRect,0.250000X0.250000X0.475000X-0.250000X0.475000X-0.250000X-0.475000X0.250000X-0.475000X0*%
%ADD27RoundRect,0.250000X0.475000X-0.250000X0.475000X0.250000X-0.475000X0.250000X-0.475000X-0.250000X0*%
%ADD28RoundRect,0.225000X-0.225000X-0.375000X0.225000X-0.375000X0.225000X0.375000X-0.225000X0.375000X0*%
%ADD29R,1.800000X0.800000*%
%ADD30R,1.200000X1.800000*%
%ADD31R,1.400000X1.800000*%
%ADD32RoundRect,0.250000X0.450000X-0.325000X0.450000X0.325000X-0.450000X0.325000X-0.450000X-0.325000X0*%
%ADD33RoundRect,0.250000X0.450000X-0.262500X0.450000X0.262500X-0.450000X0.262500X-0.450000X-0.262500X0*%
%ADD34R,0.430000X0.350000*%
%ADD35R,0.350000X0.430000*%
%ADD36RoundRect,0.250000X-0.450000X0.262500X-0.450000X-0.262500X0.450000X-0.262500X0.450000X0.262500X0*%
%ADD37RoundRect,0.250000X-0.600000X-0.725000X0.600000X-0.725000X0.600000X0.725000X-0.600000X0.725000X0*%
%ADD38O,1.700000X1.950000*%
%ADD39RoundRect,0.150000X0.587500X0.150000X-0.587500X0.150000X-0.587500X-0.150000X0.587500X-0.150000X0*%
%ADD40R,0.575000X0.350000*%
%ADD41R,0.350000X0.575000*%
%ADD42RoundRect,0.250000X0.262500X0.450000X-0.262500X0.450000X-0.262500X-0.450000X0.262500X-0.450000X0*%
%ADD43RoundRect,0.250000X1.000000X0.650000X-1.000000X0.650000X-1.000000X-0.650000X1.000000X-0.650000X0*%
%ADD44RoundRect,0.250000X0.600000X0.750000X-0.600000X0.750000X-0.600000X-0.750000X0.600000X-0.750000X0*%
%ADD45O,1.700000X2.000000*%
%ADD46RoundRect,0.250000X-0.600000X-0.750000X0.600000X-0.750000X0.600000X0.750000X-0.600000X0.750000X0*%
%ADD47R,2.200000X1.200000*%
%ADD48R,2.200000X3.500000*%
%ADD49RoundRect,0.075000X-0.700000X-0.075000X0.700000X-0.075000X0.700000X0.075000X-0.700000X0.075000X0*%
%ADD50RoundRect,0.075000X-0.075000X-0.700000X0.075000X-0.700000X0.075000X0.700000X-0.075000X0.700000X0*%
%ADD51R,1.150000X1.400000*%
%ADD52R,3.400000X1.300000*%
%ADD53R,1.700000X1.700000*%
%ADD54C,1.700000*%
%ADD55RoundRect,0.250000X-0.275000X-0.750000X0.275000X-0.750000X0.275000X0.750000X-0.275000X0.750000X0*%
%ADD56R,0.558000X1.454899*%
G04 APERTURE END LIST*
D10*
%TO.C,C4*%
X150500000Y-110550000D03*
X150500000Y-112450000D03*
%TD*%
D11*
%TO.C,C2*%
X139100000Y-93500000D03*
X141000000Y-93500000D03*
%TD*%
D12*
%TO.C,D6*%
X167000000Y-111950000D03*
X167000000Y-109050000D03*
%TD*%
D13*
%TO.C,J5*%
X119025000Y-99250000D03*
D14*
X119025000Y-101750000D03*
%TD*%
D15*
%TO.C,Y2*%
X136000000Y-98250000D03*
X136000000Y-100750000D03*
%TD*%
D10*
%TO.C,C21*%
X141500000Y-117050000D03*
X141500000Y-118950000D03*
%TD*%
D16*
%TO.C,J3*%
X177615000Y-105200000D03*
X177615000Y-104400000D03*
D17*
X177615000Y-103250000D03*
X177615000Y-102250000D03*
X177615000Y-101750000D03*
X177615000Y-100750000D03*
D16*
X177615000Y-99600000D03*
X177615000Y-98800000D03*
X177615000Y-98800000D03*
X177615000Y-99600000D03*
D17*
X177615000Y-100250000D03*
X177615000Y-101250000D03*
X177615000Y-102750000D03*
X177615000Y-103750000D03*
D16*
X177615000Y-104400000D03*
X177615000Y-105200000D03*
D18*
X178195000Y-106320000D03*
D19*
X182365000Y-106320000D03*
D18*
X178195000Y-97680000D03*
D19*
X182365000Y-97680000D03*
%TD*%
D20*
%TO.C,REF\u002A\u002A*%
X118000000Y-118000000D03*
%TD*%
%TO.C,*%
X181000000Y-85000000D03*
%TD*%
D21*
%TO.C,U2*%
X144129099Y-115999999D03*
X144129099Y-116800000D03*
X144129099Y-117600001D03*
X144129099Y-118399999D03*
X144129099Y-119200000D03*
X144129099Y-119999999D03*
D22*
X145500000Y-119718498D03*
D21*
X146870901Y-120000001D03*
X146870901Y-119200000D03*
X146870901Y-118399999D03*
X146870901Y-117600001D03*
X146870901Y-116800000D03*
X146870901Y-116000001D03*
D22*
X145500000Y-116281502D03*
%TD*%
D23*
%TO.C,SW1*%
X133400000Y-83500000D03*
X126600000Y-83500000D03*
D24*
X132500000Y-86250000D03*
X130000000Y-86250000D03*
X127500000Y-86250000D03*
%TD*%
D20*
%TO.C,REF\u002A\u002A*%
X118000000Y-85000000D03*
%TD*%
D25*
%TO.C,R2*%
X173087500Y-101000000D03*
X174912500Y-101000000D03*
%TD*%
%TO.C,R1*%
X173087500Y-105000000D03*
X174912500Y-105000000D03*
%TD*%
D11*
%TO.C,C1*%
X139100000Y-96000000D03*
X141000000Y-96000000D03*
%TD*%
D10*
%TO.C,C5*%
X135500000Y-108550000D03*
X135500000Y-110450000D03*
%TD*%
%TO.C,C3*%
X152500000Y-98550000D03*
X152500000Y-100450000D03*
%TD*%
D26*
%TO.C,C10*%
X132450000Y-103500000D03*
X130550000Y-103500000D03*
%TD*%
D27*
%TO.C,C18*%
X152500000Y-119450000D03*
X152500000Y-117550000D03*
%TD*%
D25*
%TO.C,R3*%
X154587500Y-103500000D03*
X156412500Y-103500000D03*
%TD*%
D27*
%TO.C,C17*%
X159000000Y-119950000D03*
X159000000Y-118050000D03*
%TD*%
D28*
%TO.C,D1*%
X171850000Y-95500000D03*
X175150000Y-95500000D03*
%TD*%
D29*
%TO.C,J2*%
X160637500Y-85150000D03*
X160637500Y-86250000D03*
X160637500Y-87350000D03*
X160637500Y-88450000D03*
X160637500Y-89550000D03*
X160637500Y-90650000D03*
X160637500Y-91750000D03*
X160637500Y-92850000D03*
D30*
X149087500Y-85700000D03*
X149087500Y-93050000D03*
D31*
X162637500Y-85750000D03*
X162637500Y-92250000D03*
%TD*%
D10*
%TO.C,C16*%
X135500000Y-91050000D03*
X135500000Y-92950000D03*
%TD*%
D32*
%TO.C,D4*%
X182500000Y-112025000D03*
X182500000Y-109975000D03*
%TD*%
D20*
%TO.C,REF\u002A\u002A*%
X181000000Y-118000000D03*
%TD*%
D33*
%TO.C,R12*%
X160500000Y-111912500D03*
X160500000Y-110087500D03*
%TD*%
D26*
%TO.C,C14*%
X133450000Y-98000000D03*
X131550000Y-98000000D03*
%TD*%
D32*
%TO.C,D3*%
X182500000Y-93025000D03*
X182500000Y-90975000D03*
%TD*%
D26*
%TO.C,C15*%
X133450000Y-100500000D03*
X131550000Y-100500000D03*
%TD*%
D34*
%TO.C,U4*%
X163467500Y-119250000D03*
X163467500Y-119750000D03*
D35*
X163712500Y-120245000D03*
X164212500Y-120245000D03*
X164712500Y-120245000D03*
D34*
X164957500Y-119750000D03*
X164957500Y-119250000D03*
D35*
X164712500Y-118755000D03*
X164212500Y-118755000D03*
X163712500Y-118755000D03*
%TD*%
D27*
%TO.C,C24*%
X164000000Y-113950000D03*
X164000000Y-112050000D03*
%TD*%
%TO.C,C7*%
X169500000Y-102450000D03*
X169500000Y-100550000D03*
%TD*%
D36*
%TO.C,R6*%
X135500000Y-87087500D03*
X135500000Y-88912500D03*
%TD*%
D25*
%TO.C,R10*%
X142087500Y-114000000D03*
X143912500Y-114000000D03*
%TD*%
D37*
%TO.C,J8*%
X118000000Y-92000000D03*
D38*
X120500000Y-92000000D03*
X123000000Y-92000000D03*
%TD*%
D39*
%TO.C,Q1*%
X135437500Y-114362500D03*
X135437500Y-112462500D03*
X133562500Y-113412500D03*
%TD*%
D33*
%TO.C,R13*%
X160500000Y-115912500D03*
X160500000Y-114087500D03*
%TD*%
D10*
%TO.C,C20*%
X161000000Y-118050000D03*
X161000000Y-119950000D03*
%TD*%
%TO.C,C9*%
X166500000Y-93550000D03*
X166500000Y-95450000D03*
%TD*%
D13*
%TO.C,J6*%
X119000000Y-108500000D03*
D14*
X119000000Y-111000000D03*
%TD*%
D40*
%TO.C,U3*%
X154337500Y-117750000D03*
X154337500Y-118250000D03*
X154337500Y-118750000D03*
X154337500Y-119250000D03*
D41*
X155000000Y-119412500D03*
X155500000Y-119412500D03*
X156000000Y-119412500D03*
D40*
X156662500Y-119250000D03*
X156662500Y-118750000D03*
X156662500Y-118250000D03*
X156662500Y-117750000D03*
D41*
X156000000Y-117587500D03*
X155500000Y-117587500D03*
X155000000Y-117587500D03*
%TD*%
D42*
%TO.C,R9*%
X139912500Y-114000000D03*
X138087500Y-114000000D03*
%TD*%
D43*
%TO.C,D5*%
X138500000Y-118000000D03*
X134500000Y-118000000D03*
%TD*%
D11*
%TO.C,C23*%
X154685000Y-107721348D03*
X156585000Y-107721348D03*
%TD*%
D33*
%TO.C,R5*%
X179500000Y-92912500D03*
X179500000Y-91087500D03*
%TD*%
D44*
%TO.C,J1*%
X174250000Y-91445000D03*
D45*
X171750000Y-91445000D03*
%TD*%
D27*
%TO.C,C13*%
X143000000Y-95950000D03*
X143000000Y-94050000D03*
%TD*%
D26*
%TO.C,C6*%
X135950000Y-95500000D03*
X134050000Y-95500000D03*
%TD*%
D11*
%TO.C,C12*%
X146050000Y-112000000D03*
X147950000Y-112000000D03*
%TD*%
D46*
%TO.C,J9*%
X171750000Y-111555000D03*
D45*
X174250000Y-111555000D03*
%TD*%
D47*
%TO.C,VR1*%
X166362500Y-103300000D03*
X166362500Y-101000000D03*
X166362500Y-98700000D03*
D48*
X160162500Y-101000000D03*
%TD*%
D49*
%TO.C,U1*%
X138825000Y-100250000D03*
X138825000Y-100750000D03*
X138825000Y-101250000D03*
X138825000Y-101750000D03*
X138825000Y-102250000D03*
X138825000Y-102750000D03*
X138825000Y-103250000D03*
X138825000Y-103750000D03*
X138825000Y-104250000D03*
X138825000Y-104750000D03*
X138825000Y-105250000D03*
X138825000Y-105750000D03*
X138825000Y-106250000D03*
X138825000Y-106750000D03*
X138825000Y-107250000D03*
X138825000Y-107750000D03*
D50*
X140750000Y-109675000D03*
X141250000Y-109675000D03*
X141750000Y-109675000D03*
X142250000Y-109675000D03*
X142750000Y-109675000D03*
X143250000Y-109675000D03*
X143750000Y-109675000D03*
X144250000Y-109675000D03*
X144750000Y-109675000D03*
X145250000Y-109675000D03*
X145750000Y-109675000D03*
X146250000Y-109675000D03*
X146750000Y-109675000D03*
X147250000Y-109675000D03*
X147750000Y-109675000D03*
X148250000Y-109675000D03*
D49*
X150175000Y-107750000D03*
X150175000Y-107250000D03*
X150175000Y-106750000D03*
X150175000Y-106250000D03*
X150175000Y-105750000D03*
X150175000Y-105250000D03*
X150175000Y-104750000D03*
X150175000Y-104250000D03*
X150175000Y-103750000D03*
X150175000Y-103250000D03*
X150175000Y-102750000D03*
X150175000Y-102250000D03*
X150175000Y-101750000D03*
X150175000Y-101250000D03*
X150175000Y-100750000D03*
X150175000Y-100250000D03*
D50*
X148250000Y-98325000D03*
X147750000Y-98325000D03*
X147250000Y-98325000D03*
X146750000Y-98325000D03*
X146250000Y-98325000D03*
X145750000Y-98325000D03*
X145250000Y-98325000D03*
X144750000Y-98325000D03*
X144250000Y-98325000D03*
X143750000Y-98325000D03*
X143250000Y-98325000D03*
X142750000Y-98325000D03*
X142250000Y-98325000D03*
X141750000Y-98325000D03*
X141250000Y-98325000D03*
X140750000Y-98325000D03*
%TD*%
D12*
%TO.C,D7*%
X167000000Y-117950000D03*
X167000000Y-115050000D03*
%TD*%
D11*
%TO.C,C19*%
X163000000Y-116500000D03*
X164900000Y-116500000D03*
%TD*%
D27*
%TO.C,C22*%
X149500000Y-119450000D03*
X149500000Y-117550000D03*
%TD*%
D51*
%TO.C,Y1*%
X134537500Y-103400000D03*
X134537500Y-105600000D03*
X136137500Y-105600000D03*
X136137500Y-103400000D03*
%TD*%
D10*
%TO.C,C8*%
X169500000Y-96550000D03*
X169500000Y-98450000D03*
%TD*%
D33*
%TO.C,R7*%
X179500000Y-112000000D03*
X179500000Y-110175000D03*
%TD*%
D25*
%TO.C,R4*%
X154587500Y-101500000D03*
X156412500Y-101500000D03*
%TD*%
D52*
%TO.C,BZ1*%
X127500000Y-119350000D03*
X127500000Y-110650000D03*
%TD*%
D28*
%TO.C,D2*%
X171872500Y-98500000D03*
X175172500Y-98500000D03*
%TD*%
D42*
%TO.C,R8*%
X139912500Y-112000000D03*
X138087500Y-112000000D03*
%TD*%
%TO.C,R11*%
X147912500Y-114000000D03*
X146087500Y-114000000D03*
%TD*%
D26*
%TO.C,C11*%
X132450000Y-106000000D03*
X130550000Y-106000000D03*
%TD*%
D53*
%TO.C,J4*%
X142725000Y-85460000D03*
D54*
X145265000Y-85460000D03*
X142725000Y-88000000D03*
X145265000Y-88000000D03*
X142725000Y-90540000D03*
X145265000Y-90540000D03*
%TD*%
D55*
%TO.C,SW2*%
X127775000Y-91500000D03*
X132225000Y-91500000D03*
%TD*%
D56*
%TO.C,U5*%
X157540000Y-110000000D03*
X156270000Y-110000000D03*
X155000000Y-110000000D03*
X153730000Y-110000000D03*
X153730000Y-115442696D03*
X155000000Y-115442696D03*
X156270000Y-115442696D03*
X157540000Y-115442696D03*
%TD*%
M02*
