%TF.GenerationSoftware,KiCad,Pcbnew,9.0.2*%
%TF.CreationDate,2025-11-08T13:29:07-08:00*%
%TF.ProjectId,A3-Flight-Computer-Hardware-Rectangular,41332d46-6c69-4676-9874-2d436f6d7075,rev?*%
%TF.SameCoordinates,Original*%
%TF.FileFunction,Legend,Top*%
%TF.FilePolarity,Positive*%
%FSLAX46Y46*%
G04 Gerber Fmt 4.6, Leading zero omitted, Abs format (unit mm)*
G04 Created by KiCad (PCBNEW 9.0.2) date 2025-11-08 13:29:07*
%MOMM*%
%LPD*%
G01*
G04 APERTURE LIST*
%ADD10C,0.153000*%
%ADD11C,0.150000*%
%ADD12C,0.120000*%
%ADD13C,0.127000*%
%ADD14C,0.300000*%
%ADD15C,0.152400*%
%ADD16C,0.000000*%
%ADD17C,0.200000*%
G04 APERTURE END LIST*
D10*
X172340180Y-108484424D02*
X172292561Y-108532044D01*
X172292561Y-108532044D02*
X172149704Y-108579663D01*
X172149704Y-108579663D02*
X172054466Y-108579663D01*
X172054466Y-108579663D02*
X171911609Y-108532044D01*
X171911609Y-108532044D02*
X171816371Y-108436805D01*
X171816371Y-108436805D02*
X171768752Y-108341567D01*
X171768752Y-108341567D02*
X171721133Y-108151091D01*
X171721133Y-108151091D02*
X171721133Y-108008234D01*
X171721133Y-108008234D02*
X171768752Y-107817758D01*
X171768752Y-107817758D02*
X171816371Y-107722520D01*
X171816371Y-107722520D02*
X171911609Y-107627282D01*
X171911609Y-107627282D02*
X172054466Y-107579663D01*
X172054466Y-107579663D02*
X172149704Y-107579663D01*
X172149704Y-107579663D02*
X172292561Y-107627282D01*
X172292561Y-107627282D02*
X172340180Y-107674901D01*
X172721133Y-108293948D02*
X173197323Y-108293948D01*
X172625895Y-108579663D02*
X172959228Y-107579663D01*
X172959228Y-107579663D02*
X173292561Y-108579663D01*
X173625895Y-108579663D02*
X173625895Y-107579663D01*
X173625895Y-107579663D02*
X174197323Y-108579663D01*
X174197323Y-108579663D02*
X174197323Y-107579663D01*
X122275575Y-97160180D02*
X122227956Y-97112561D01*
X122227956Y-97112561D02*
X122180336Y-96969704D01*
X122180336Y-96969704D02*
X122180336Y-96874466D01*
X122180336Y-96874466D02*
X122227956Y-96731609D01*
X122227956Y-96731609D02*
X122323194Y-96636371D01*
X122323194Y-96636371D02*
X122418432Y-96588752D01*
X122418432Y-96588752D02*
X122608908Y-96541133D01*
X122608908Y-96541133D02*
X122751765Y-96541133D01*
X122751765Y-96541133D02*
X122942241Y-96588752D01*
X122942241Y-96588752D02*
X123037479Y-96636371D01*
X123037479Y-96636371D02*
X123132717Y-96731609D01*
X123132717Y-96731609D02*
X123180336Y-96874466D01*
X123180336Y-96874466D02*
X123180336Y-96969704D01*
X123180336Y-96969704D02*
X123132717Y-97112561D01*
X123132717Y-97112561D02*
X123085098Y-97160180D01*
X122466051Y-97541133D02*
X122466051Y-98017323D01*
X122180336Y-97445895D02*
X123180336Y-97779228D01*
X123180336Y-97779228D02*
X122180336Y-98112561D01*
X122180336Y-98445895D02*
X123180336Y-98445895D01*
X123180336Y-98445895D02*
X122466051Y-98779228D01*
X122466051Y-98779228D02*
X123180336Y-99112561D01*
X123180336Y-99112561D02*
X122180336Y-99112561D01*
X122180336Y-100874466D02*
X122180336Y-100303038D01*
X122180336Y-100588752D02*
X123180336Y-100588752D01*
X123180336Y-100588752D02*
X123037479Y-100493514D01*
X123037479Y-100493514D02*
X122942241Y-100398276D01*
X122942241Y-100398276D02*
X122894622Y-100303038D01*
X167845853Y-88427914D02*
X167893472Y-88285057D01*
X167893472Y-88285057D02*
X167941091Y-88237438D01*
X167941091Y-88237438D02*
X168036329Y-88189819D01*
X168036329Y-88189819D02*
X168179186Y-88189819D01*
X168179186Y-88189819D02*
X168274424Y-88237438D01*
X168274424Y-88237438D02*
X168322044Y-88285057D01*
X168322044Y-88285057D02*
X168369663Y-88380295D01*
X168369663Y-88380295D02*
X168369663Y-88761247D01*
X168369663Y-88761247D02*
X167369663Y-88761247D01*
X167369663Y-88761247D02*
X167369663Y-88427914D01*
X167369663Y-88427914D02*
X167417282Y-88332676D01*
X167417282Y-88332676D02*
X167464901Y-88285057D01*
X167464901Y-88285057D02*
X167560139Y-88237438D01*
X167560139Y-88237438D02*
X167655377Y-88237438D01*
X167655377Y-88237438D02*
X167750615Y-88285057D01*
X167750615Y-88285057D02*
X167798234Y-88332676D01*
X167798234Y-88332676D02*
X167845853Y-88427914D01*
X167845853Y-88427914D02*
X167845853Y-88761247D01*
X168083948Y-87808866D02*
X168083948Y-87332676D01*
X168369663Y-87904104D02*
X167369663Y-87570771D01*
X167369663Y-87570771D02*
X168369663Y-87237438D01*
X167369663Y-87046961D02*
X167369663Y-86475533D01*
X168369663Y-86761247D02*
X167369663Y-86761247D01*
X122425575Y-106260180D02*
X122377956Y-106212561D01*
X122377956Y-106212561D02*
X122330336Y-106069704D01*
X122330336Y-106069704D02*
X122330336Y-105974466D01*
X122330336Y-105974466D02*
X122377956Y-105831609D01*
X122377956Y-105831609D02*
X122473194Y-105736371D01*
X122473194Y-105736371D02*
X122568432Y-105688752D01*
X122568432Y-105688752D02*
X122758908Y-105641133D01*
X122758908Y-105641133D02*
X122901765Y-105641133D01*
X122901765Y-105641133D02*
X123092241Y-105688752D01*
X123092241Y-105688752D02*
X123187479Y-105736371D01*
X123187479Y-105736371D02*
X123282717Y-105831609D01*
X123282717Y-105831609D02*
X123330336Y-105974466D01*
X123330336Y-105974466D02*
X123330336Y-106069704D01*
X123330336Y-106069704D02*
X123282717Y-106212561D01*
X123282717Y-106212561D02*
X123235098Y-106260180D01*
X122616051Y-106641133D02*
X122616051Y-107117323D01*
X122330336Y-106545895D02*
X123330336Y-106879228D01*
X123330336Y-106879228D02*
X122330336Y-107212561D01*
X122330336Y-107545895D02*
X123330336Y-107545895D01*
X123330336Y-107545895D02*
X122616051Y-107879228D01*
X122616051Y-107879228D02*
X123330336Y-108212561D01*
X123330336Y-108212561D02*
X122330336Y-108212561D01*
X123235098Y-109403038D02*
X123282717Y-109450657D01*
X123282717Y-109450657D02*
X123330336Y-109545895D01*
X123330336Y-109545895D02*
X123330336Y-109783990D01*
X123330336Y-109783990D02*
X123282717Y-109879228D01*
X123282717Y-109879228D02*
X123235098Y-109926847D01*
X123235098Y-109926847D02*
X123139860Y-109974466D01*
X123139860Y-109974466D02*
X123044622Y-109974466D01*
X123044622Y-109974466D02*
X122901765Y-109926847D01*
X122901765Y-109926847D02*
X122330336Y-109355419D01*
X122330336Y-109355419D02*
X122330336Y-109974466D01*
X179738752Y-95669663D02*
X179738752Y-94669663D01*
X179738752Y-94669663D02*
X180119704Y-94669663D01*
X180119704Y-94669663D02*
X180214942Y-94717282D01*
X180214942Y-94717282D02*
X180262561Y-94764901D01*
X180262561Y-94764901D02*
X180310180Y-94860139D01*
X180310180Y-94860139D02*
X180310180Y-95002996D01*
X180310180Y-95002996D02*
X180262561Y-95098234D01*
X180262561Y-95098234D02*
X180214942Y-95145853D01*
X180214942Y-95145853D02*
X180119704Y-95193472D01*
X180119704Y-95193472D02*
X179738752Y-95193472D01*
X180643514Y-94669663D02*
X180881609Y-95669663D01*
X180881609Y-95669663D02*
X181072085Y-94955377D01*
X181072085Y-94955377D02*
X181262561Y-95669663D01*
X181262561Y-95669663D02*
X181500657Y-94669663D01*
X182453037Y-95669663D02*
X182119704Y-95193472D01*
X181881609Y-95669663D02*
X181881609Y-94669663D01*
X181881609Y-94669663D02*
X182262561Y-94669663D01*
X182262561Y-94669663D02*
X182357799Y-94717282D01*
X182357799Y-94717282D02*
X182405418Y-94764901D01*
X182405418Y-94764901D02*
X182453037Y-94860139D01*
X182453037Y-94860139D02*
X182453037Y-95002996D01*
X182453037Y-95002996D02*
X182405418Y-95098234D01*
X182405418Y-95098234D02*
X182357799Y-95145853D01*
X182357799Y-95145853D02*
X182262561Y-95193472D01*
X182262561Y-95193472D02*
X181881609Y-95193472D01*
X179591133Y-108822044D02*
X179733990Y-108869663D01*
X179733990Y-108869663D02*
X179972085Y-108869663D01*
X179972085Y-108869663D02*
X180067323Y-108822044D01*
X180067323Y-108822044D02*
X180114942Y-108774424D01*
X180114942Y-108774424D02*
X180162561Y-108679186D01*
X180162561Y-108679186D02*
X180162561Y-108583948D01*
X180162561Y-108583948D02*
X180114942Y-108488710D01*
X180114942Y-108488710D02*
X180067323Y-108441091D01*
X180067323Y-108441091D02*
X179972085Y-108393472D01*
X179972085Y-108393472D02*
X179781609Y-108345853D01*
X179781609Y-108345853D02*
X179686371Y-108298234D01*
X179686371Y-108298234D02*
X179638752Y-108250615D01*
X179638752Y-108250615D02*
X179591133Y-108155377D01*
X179591133Y-108155377D02*
X179591133Y-108060139D01*
X179591133Y-108060139D02*
X179638752Y-107964901D01*
X179638752Y-107964901D02*
X179686371Y-107917282D01*
X179686371Y-107917282D02*
X179781609Y-107869663D01*
X179781609Y-107869663D02*
X180019704Y-107869663D01*
X180019704Y-107869663D02*
X180162561Y-107917282D01*
X180448276Y-107869663D02*
X181019704Y-107869663D01*
X180733990Y-108869663D02*
X180733990Y-107869663D01*
X181305419Y-108583948D02*
X181781609Y-108583948D01*
X181210181Y-108869663D02*
X181543514Y-107869663D01*
X181543514Y-107869663D02*
X181876847Y-108869663D01*
X182067324Y-107869663D02*
X182638752Y-107869663D01*
X182353038Y-108869663D02*
X182353038Y-107869663D01*
X129560180Y-94519663D02*
X129226847Y-94043472D01*
X128988752Y-94519663D02*
X128988752Y-93519663D01*
X128988752Y-93519663D02*
X129369704Y-93519663D01*
X129369704Y-93519663D02*
X129464942Y-93567282D01*
X129464942Y-93567282D02*
X129512561Y-93614901D01*
X129512561Y-93614901D02*
X129560180Y-93710139D01*
X129560180Y-93710139D02*
X129560180Y-93852996D01*
X129560180Y-93852996D02*
X129512561Y-93948234D01*
X129512561Y-93948234D02*
X129464942Y-93995853D01*
X129464942Y-93995853D02*
X129369704Y-94043472D01*
X129369704Y-94043472D02*
X128988752Y-94043472D01*
X129941133Y-94472044D02*
X130083990Y-94519663D01*
X130083990Y-94519663D02*
X130322085Y-94519663D01*
X130322085Y-94519663D02*
X130417323Y-94472044D01*
X130417323Y-94472044D02*
X130464942Y-94424424D01*
X130464942Y-94424424D02*
X130512561Y-94329186D01*
X130512561Y-94329186D02*
X130512561Y-94233948D01*
X130512561Y-94233948D02*
X130464942Y-94138710D01*
X130464942Y-94138710D02*
X130417323Y-94091091D01*
X130417323Y-94091091D02*
X130322085Y-94043472D01*
X130322085Y-94043472D02*
X130131609Y-93995853D01*
X130131609Y-93995853D02*
X130036371Y-93948234D01*
X130036371Y-93948234D02*
X129988752Y-93900615D01*
X129988752Y-93900615D02*
X129941133Y-93805377D01*
X129941133Y-93805377D02*
X129941133Y-93710139D01*
X129941133Y-93710139D02*
X129988752Y-93614901D01*
X129988752Y-93614901D02*
X130036371Y-93567282D01*
X130036371Y-93567282D02*
X130131609Y-93519663D01*
X130131609Y-93519663D02*
X130369704Y-93519663D01*
X130369704Y-93519663D02*
X130512561Y-93567282D01*
X130798276Y-93519663D02*
X131369704Y-93519663D01*
X131083990Y-94519663D02*
X131083990Y-93519663D01*
X128722085Y-88645853D02*
X128864942Y-88693472D01*
X128864942Y-88693472D02*
X128912561Y-88741091D01*
X128912561Y-88741091D02*
X128960180Y-88836329D01*
X128960180Y-88836329D02*
X128960180Y-88979186D01*
X128960180Y-88979186D02*
X128912561Y-89074424D01*
X128912561Y-89074424D02*
X128864942Y-89122044D01*
X128864942Y-89122044D02*
X128769704Y-89169663D01*
X128769704Y-89169663D02*
X128388752Y-89169663D01*
X128388752Y-89169663D02*
X128388752Y-88169663D01*
X128388752Y-88169663D02*
X128722085Y-88169663D01*
X128722085Y-88169663D02*
X128817323Y-88217282D01*
X128817323Y-88217282D02*
X128864942Y-88264901D01*
X128864942Y-88264901D02*
X128912561Y-88360139D01*
X128912561Y-88360139D02*
X128912561Y-88455377D01*
X128912561Y-88455377D02*
X128864942Y-88550615D01*
X128864942Y-88550615D02*
X128817323Y-88598234D01*
X128817323Y-88598234D02*
X128722085Y-88645853D01*
X128722085Y-88645853D02*
X128388752Y-88645853D01*
X129579228Y-88169663D02*
X129769704Y-88169663D01*
X129769704Y-88169663D02*
X129864942Y-88217282D01*
X129864942Y-88217282D02*
X129960180Y-88312520D01*
X129960180Y-88312520D02*
X130007799Y-88502996D01*
X130007799Y-88502996D02*
X130007799Y-88836329D01*
X130007799Y-88836329D02*
X129960180Y-89026805D01*
X129960180Y-89026805D02*
X129864942Y-89122044D01*
X129864942Y-89122044D02*
X129769704Y-89169663D01*
X129769704Y-89169663D02*
X129579228Y-89169663D01*
X129579228Y-89169663D02*
X129483990Y-89122044D01*
X129483990Y-89122044D02*
X129388752Y-89026805D01*
X129388752Y-89026805D02*
X129341133Y-88836329D01*
X129341133Y-88836329D02*
X129341133Y-88502996D01*
X129341133Y-88502996D02*
X129388752Y-88312520D01*
X129388752Y-88312520D02*
X129483990Y-88217282D01*
X129483990Y-88217282D02*
X129579228Y-88169663D01*
X130626847Y-88169663D02*
X130817323Y-88169663D01*
X130817323Y-88169663D02*
X130912561Y-88217282D01*
X130912561Y-88217282D02*
X131007799Y-88312520D01*
X131007799Y-88312520D02*
X131055418Y-88502996D01*
X131055418Y-88502996D02*
X131055418Y-88836329D01*
X131055418Y-88836329D02*
X131007799Y-89026805D01*
X131007799Y-89026805D02*
X130912561Y-89122044D01*
X130912561Y-89122044D02*
X130817323Y-89169663D01*
X130817323Y-89169663D02*
X130626847Y-89169663D01*
X130626847Y-89169663D02*
X130531609Y-89122044D01*
X130531609Y-89122044D02*
X130436371Y-89026805D01*
X130436371Y-89026805D02*
X130388752Y-88836329D01*
X130388752Y-88836329D02*
X130388752Y-88502996D01*
X130388752Y-88502996D02*
X130436371Y-88312520D01*
X130436371Y-88312520D02*
X130531609Y-88217282D01*
X130531609Y-88217282D02*
X130626847Y-88169663D01*
X131341133Y-88169663D02*
X131912561Y-88169663D01*
X131626847Y-89169663D02*
X131626847Y-88169663D01*
X121595895Y-87919663D02*
X122167323Y-87919663D01*
X121881609Y-88919663D02*
X121881609Y-87919663D01*
X122500657Y-88395853D02*
X122833990Y-88395853D01*
X122976847Y-88919663D02*
X122500657Y-88919663D01*
X122500657Y-88919663D02*
X122500657Y-87919663D01*
X122500657Y-87919663D02*
X122976847Y-87919663D01*
X123881609Y-88919663D02*
X123405419Y-88919663D01*
X123405419Y-88919663D02*
X123405419Y-87919663D01*
X124214943Y-88395853D02*
X124548276Y-88395853D01*
X124691133Y-88919663D02*
X124214943Y-88919663D01*
X124214943Y-88919663D02*
X124214943Y-87919663D01*
X124214943Y-87919663D02*
X124691133Y-87919663D01*
X125119705Y-88919663D02*
X125119705Y-87919663D01*
X125119705Y-87919663D02*
X125453038Y-88633948D01*
X125453038Y-88633948D02*
X125786371Y-87919663D01*
X125786371Y-87919663D02*
X125786371Y-88919663D01*
D11*
X152539580Y-111666666D02*
X152587200Y-111714285D01*
X152587200Y-111714285D02*
X152634819Y-111857142D01*
X152634819Y-111857142D02*
X152634819Y-111952380D01*
X152634819Y-111952380D02*
X152587200Y-112095237D01*
X152587200Y-112095237D02*
X152491961Y-112190475D01*
X152491961Y-112190475D02*
X152396723Y-112238094D01*
X152396723Y-112238094D02*
X152206247Y-112285713D01*
X152206247Y-112285713D02*
X152063390Y-112285713D01*
X152063390Y-112285713D02*
X151872914Y-112238094D01*
X151872914Y-112238094D02*
X151777676Y-112190475D01*
X151777676Y-112190475D02*
X151682438Y-112095237D01*
X151682438Y-112095237D02*
X151634819Y-111952380D01*
X151634819Y-111952380D02*
X151634819Y-111857142D01*
X151634819Y-111857142D02*
X151682438Y-111714285D01*
X151682438Y-111714285D02*
X151730057Y-111666666D01*
X151968152Y-110809523D02*
X152634819Y-110809523D01*
X151587200Y-111047618D02*
X152301485Y-111285713D01*
X152301485Y-111285713D02*
X152301485Y-110666666D01*
X138159580Y-93766666D02*
X138207200Y-93814285D01*
X138207200Y-93814285D02*
X138254819Y-93957142D01*
X138254819Y-93957142D02*
X138254819Y-94052380D01*
X138254819Y-94052380D02*
X138207200Y-94195237D01*
X138207200Y-94195237D02*
X138111961Y-94290475D01*
X138111961Y-94290475D02*
X138016723Y-94338094D01*
X138016723Y-94338094D02*
X137826247Y-94385713D01*
X137826247Y-94385713D02*
X137683390Y-94385713D01*
X137683390Y-94385713D02*
X137492914Y-94338094D01*
X137492914Y-94338094D02*
X137397676Y-94290475D01*
X137397676Y-94290475D02*
X137302438Y-94195237D01*
X137302438Y-94195237D02*
X137254819Y-94052380D01*
X137254819Y-94052380D02*
X137254819Y-93957142D01*
X137254819Y-93957142D02*
X137302438Y-93814285D01*
X137302438Y-93814285D02*
X137350057Y-93766666D01*
X137350057Y-93385713D02*
X137302438Y-93338094D01*
X137302438Y-93338094D02*
X137254819Y-93242856D01*
X137254819Y-93242856D02*
X137254819Y-93004761D01*
X137254819Y-93004761D02*
X137302438Y-92909523D01*
X137302438Y-92909523D02*
X137350057Y-92861904D01*
X137350057Y-92861904D02*
X137445295Y-92814285D01*
X137445295Y-92814285D02*
X137540533Y-92814285D01*
X137540533Y-92814285D02*
X137683390Y-92861904D01*
X137683390Y-92861904D02*
X138254819Y-93433332D01*
X138254819Y-93433332D02*
X138254819Y-92814285D01*
X166291905Y-107904819D02*
X166291905Y-106904819D01*
X166291905Y-106904819D02*
X166530000Y-106904819D01*
X166530000Y-106904819D02*
X166672857Y-106952438D01*
X166672857Y-106952438D02*
X166768095Y-107047676D01*
X166768095Y-107047676D02*
X166815714Y-107142914D01*
X166815714Y-107142914D02*
X166863333Y-107333390D01*
X166863333Y-107333390D02*
X166863333Y-107476247D01*
X166863333Y-107476247D02*
X166815714Y-107666723D01*
X166815714Y-107666723D02*
X166768095Y-107761961D01*
X166768095Y-107761961D02*
X166672857Y-107857200D01*
X166672857Y-107857200D02*
X166530000Y-107904819D01*
X166530000Y-107904819D02*
X166291905Y-107904819D01*
X167720476Y-106904819D02*
X167530000Y-106904819D01*
X167530000Y-106904819D02*
X167434762Y-106952438D01*
X167434762Y-106952438D02*
X167387143Y-107000057D01*
X167387143Y-107000057D02*
X167291905Y-107142914D01*
X167291905Y-107142914D02*
X167244286Y-107333390D01*
X167244286Y-107333390D02*
X167244286Y-107714342D01*
X167244286Y-107714342D02*
X167291905Y-107809580D01*
X167291905Y-107809580D02*
X167339524Y-107857200D01*
X167339524Y-107857200D02*
X167434762Y-107904819D01*
X167434762Y-107904819D02*
X167625238Y-107904819D01*
X167625238Y-107904819D02*
X167720476Y-107857200D01*
X167720476Y-107857200D02*
X167768095Y-107809580D01*
X167768095Y-107809580D02*
X167815714Y-107714342D01*
X167815714Y-107714342D02*
X167815714Y-107476247D01*
X167815714Y-107476247D02*
X167768095Y-107381009D01*
X167768095Y-107381009D02*
X167720476Y-107333390D01*
X167720476Y-107333390D02*
X167625238Y-107285771D01*
X167625238Y-107285771D02*
X167434762Y-107285771D01*
X167434762Y-107285771D02*
X167339524Y-107333390D01*
X167339524Y-107333390D02*
X167291905Y-107381009D01*
X167291905Y-107381009D02*
X167244286Y-107476247D01*
X116654819Y-100833333D02*
X117369104Y-100833333D01*
X117369104Y-100833333D02*
X117511961Y-100880952D01*
X117511961Y-100880952D02*
X117607200Y-100976190D01*
X117607200Y-100976190D02*
X117654819Y-101119047D01*
X117654819Y-101119047D02*
X117654819Y-101214285D01*
X116654819Y-99880952D02*
X116654819Y-100357142D01*
X116654819Y-100357142D02*
X117131009Y-100404761D01*
X117131009Y-100404761D02*
X117083390Y-100357142D01*
X117083390Y-100357142D02*
X117035771Y-100261904D01*
X117035771Y-100261904D02*
X117035771Y-100023809D01*
X117035771Y-100023809D02*
X117083390Y-99928571D01*
X117083390Y-99928571D02*
X117131009Y-99880952D01*
X117131009Y-99880952D02*
X117226247Y-99833333D01*
X117226247Y-99833333D02*
X117464342Y-99833333D01*
X117464342Y-99833333D02*
X117559580Y-99880952D01*
X117559580Y-99880952D02*
X117607200Y-99928571D01*
X117607200Y-99928571D02*
X117654819Y-100023809D01*
X117654819Y-100023809D02*
X117654819Y-100261904D01*
X117654819Y-100261904D02*
X117607200Y-100357142D01*
X117607200Y-100357142D02*
X117559580Y-100404761D01*
D10*
X137723809Y-98178472D02*
X137723809Y-98654663D01*
X137390476Y-97654663D02*
X137723809Y-98178472D01*
X137723809Y-98178472D02*
X138057142Y-97654663D01*
X138342857Y-97749901D02*
X138390476Y-97702282D01*
X138390476Y-97702282D02*
X138485714Y-97654663D01*
X138485714Y-97654663D02*
X138723809Y-97654663D01*
X138723809Y-97654663D02*
X138819047Y-97702282D01*
X138819047Y-97702282D02*
X138866666Y-97749901D01*
X138866666Y-97749901D02*
X138914285Y-97845139D01*
X138914285Y-97845139D02*
X138914285Y-97940377D01*
X138914285Y-97940377D02*
X138866666Y-98083234D01*
X138866666Y-98083234D02*
X138295238Y-98654663D01*
X138295238Y-98654663D02*
X138914285Y-98654663D01*
D11*
X140887142Y-120819580D02*
X140839523Y-120867200D01*
X140839523Y-120867200D02*
X140696666Y-120914819D01*
X140696666Y-120914819D02*
X140601428Y-120914819D01*
X140601428Y-120914819D02*
X140458571Y-120867200D01*
X140458571Y-120867200D02*
X140363333Y-120771961D01*
X140363333Y-120771961D02*
X140315714Y-120676723D01*
X140315714Y-120676723D02*
X140268095Y-120486247D01*
X140268095Y-120486247D02*
X140268095Y-120343390D01*
X140268095Y-120343390D02*
X140315714Y-120152914D01*
X140315714Y-120152914D02*
X140363333Y-120057676D01*
X140363333Y-120057676D02*
X140458571Y-119962438D01*
X140458571Y-119962438D02*
X140601428Y-119914819D01*
X140601428Y-119914819D02*
X140696666Y-119914819D01*
X140696666Y-119914819D02*
X140839523Y-119962438D01*
X140839523Y-119962438D02*
X140887142Y-120010057D01*
X141268095Y-120010057D02*
X141315714Y-119962438D01*
X141315714Y-119962438D02*
X141410952Y-119914819D01*
X141410952Y-119914819D02*
X141649047Y-119914819D01*
X141649047Y-119914819D02*
X141744285Y-119962438D01*
X141744285Y-119962438D02*
X141791904Y-120010057D01*
X141791904Y-120010057D02*
X141839523Y-120105295D01*
X141839523Y-120105295D02*
X141839523Y-120200533D01*
X141839523Y-120200533D02*
X141791904Y-120343390D01*
X141791904Y-120343390D02*
X141220476Y-120914819D01*
X141220476Y-120914819D02*
X141839523Y-120914819D01*
X142791904Y-120914819D02*
X142220476Y-120914819D01*
X142506190Y-120914819D02*
X142506190Y-119914819D01*
X142506190Y-119914819D02*
X142410952Y-120057676D01*
X142410952Y-120057676D02*
X142315714Y-120152914D01*
X142315714Y-120152914D02*
X142220476Y-120200533D01*
X179579819Y-102333333D02*
X180294104Y-102333333D01*
X180294104Y-102333333D02*
X180436961Y-102380952D01*
X180436961Y-102380952D02*
X180532200Y-102476190D01*
X180532200Y-102476190D02*
X180579819Y-102619047D01*
X180579819Y-102619047D02*
X180579819Y-102714285D01*
X179579819Y-101952380D02*
X179579819Y-101333333D01*
X179579819Y-101333333D02*
X179960771Y-101666666D01*
X179960771Y-101666666D02*
X179960771Y-101523809D01*
X179960771Y-101523809D02*
X180008390Y-101428571D01*
X180008390Y-101428571D02*
X180056009Y-101380952D01*
X180056009Y-101380952D02*
X180151247Y-101333333D01*
X180151247Y-101333333D02*
X180389342Y-101333333D01*
X180389342Y-101333333D02*
X180484580Y-101380952D01*
X180484580Y-101380952D02*
X180532200Y-101428571D01*
X180532200Y-101428571D02*
X180579819Y-101523809D01*
X180579819Y-101523809D02*
X180579819Y-101809523D01*
X180579819Y-101809523D02*
X180532200Y-101904761D01*
X180532200Y-101904761D02*
X180484580Y-101952380D01*
X147638095Y-120254819D02*
X147638095Y-121064342D01*
X147638095Y-121064342D02*
X147685714Y-121159580D01*
X147685714Y-121159580D02*
X147733333Y-121207200D01*
X147733333Y-121207200D02*
X147828571Y-121254819D01*
X147828571Y-121254819D02*
X148019047Y-121254819D01*
X148019047Y-121254819D02*
X148114285Y-121207200D01*
X148114285Y-121207200D02*
X148161904Y-121159580D01*
X148161904Y-121159580D02*
X148209523Y-121064342D01*
X148209523Y-121064342D02*
X148209523Y-120254819D01*
X148638095Y-120350057D02*
X148685714Y-120302438D01*
X148685714Y-120302438D02*
X148780952Y-120254819D01*
X148780952Y-120254819D02*
X149019047Y-120254819D01*
X149019047Y-120254819D02*
X149114285Y-120302438D01*
X149114285Y-120302438D02*
X149161904Y-120350057D01*
X149161904Y-120350057D02*
X149209523Y-120445295D01*
X149209523Y-120445295D02*
X149209523Y-120540533D01*
X149209523Y-120540533D02*
X149161904Y-120683390D01*
X149161904Y-120683390D02*
X148590476Y-121254819D01*
X148590476Y-121254819D02*
X149209523Y-121254819D01*
X142935200Y-115054819D02*
X142935200Y-115292914D01*
X142697105Y-115197676D02*
X142935200Y-115292914D01*
X142935200Y-115292914D02*
X143173295Y-115197676D01*
X142792343Y-115483390D02*
X142935200Y-115292914D01*
X142935200Y-115292914D02*
X143078057Y-115483390D01*
X128666667Y-83907200D02*
X128809524Y-83954819D01*
X128809524Y-83954819D02*
X129047619Y-83954819D01*
X129047619Y-83954819D02*
X129142857Y-83907200D01*
X129142857Y-83907200D02*
X129190476Y-83859580D01*
X129190476Y-83859580D02*
X129238095Y-83764342D01*
X129238095Y-83764342D02*
X129238095Y-83669104D01*
X129238095Y-83669104D02*
X129190476Y-83573866D01*
X129190476Y-83573866D02*
X129142857Y-83526247D01*
X129142857Y-83526247D02*
X129047619Y-83478628D01*
X129047619Y-83478628D02*
X128857143Y-83431009D01*
X128857143Y-83431009D02*
X128761905Y-83383390D01*
X128761905Y-83383390D02*
X128714286Y-83335771D01*
X128714286Y-83335771D02*
X128666667Y-83240533D01*
X128666667Y-83240533D02*
X128666667Y-83145295D01*
X128666667Y-83145295D02*
X128714286Y-83050057D01*
X128714286Y-83050057D02*
X128761905Y-83002438D01*
X128761905Y-83002438D02*
X128857143Y-82954819D01*
X128857143Y-82954819D02*
X129095238Y-82954819D01*
X129095238Y-82954819D02*
X129238095Y-83002438D01*
X129571429Y-82954819D02*
X129809524Y-83954819D01*
X129809524Y-83954819D02*
X130000000Y-83240533D01*
X130000000Y-83240533D02*
X130190476Y-83954819D01*
X130190476Y-83954819D02*
X130428572Y-82954819D01*
X131333333Y-83954819D02*
X130761905Y-83954819D01*
X131047619Y-83954819D02*
X131047619Y-82954819D01*
X131047619Y-82954819D02*
X130952381Y-83097676D01*
X130952381Y-83097676D02*
X130857143Y-83192914D01*
X130857143Y-83192914D02*
X130761905Y-83240533D01*
X171854819Y-101166666D02*
X171378628Y-101499999D01*
X171854819Y-101738094D02*
X170854819Y-101738094D01*
X170854819Y-101738094D02*
X170854819Y-101357142D01*
X170854819Y-101357142D02*
X170902438Y-101261904D01*
X170902438Y-101261904D02*
X170950057Y-101214285D01*
X170950057Y-101214285D02*
X171045295Y-101166666D01*
X171045295Y-101166666D02*
X171188152Y-101166666D01*
X171188152Y-101166666D02*
X171283390Y-101214285D01*
X171283390Y-101214285D02*
X171331009Y-101261904D01*
X171331009Y-101261904D02*
X171378628Y-101357142D01*
X171378628Y-101357142D02*
X171378628Y-101738094D01*
X170950057Y-100785713D02*
X170902438Y-100738094D01*
X170902438Y-100738094D02*
X170854819Y-100642856D01*
X170854819Y-100642856D02*
X170854819Y-100404761D01*
X170854819Y-100404761D02*
X170902438Y-100309523D01*
X170902438Y-100309523D02*
X170950057Y-100261904D01*
X170950057Y-100261904D02*
X171045295Y-100214285D01*
X171045295Y-100214285D02*
X171140533Y-100214285D01*
X171140533Y-100214285D02*
X171283390Y-100261904D01*
X171283390Y-100261904D02*
X171854819Y-100833332D01*
X171854819Y-100833332D02*
X171854819Y-100214285D01*
X173833333Y-103804819D02*
X173500000Y-103328628D01*
X173261905Y-103804819D02*
X173261905Y-102804819D01*
X173261905Y-102804819D02*
X173642857Y-102804819D01*
X173642857Y-102804819D02*
X173738095Y-102852438D01*
X173738095Y-102852438D02*
X173785714Y-102900057D01*
X173785714Y-102900057D02*
X173833333Y-102995295D01*
X173833333Y-102995295D02*
X173833333Y-103138152D01*
X173833333Y-103138152D02*
X173785714Y-103233390D01*
X173785714Y-103233390D02*
X173738095Y-103281009D01*
X173738095Y-103281009D02*
X173642857Y-103328628D01*
X173642857Y-103328628D02*
X173261905Y-103328628D01*
X174785714Y-103804819D02*
X174214286Y-103804819D01*
X174500000Y-103804819D02*
X174500000Y-102804819D01*
X174500000Y-102804819D02*
X174404762Y-102947676D01*
X174404762Y-102947676D02*
X174309524Y-103042914D01*
X174309524Y-103042914D02*
X174214286Y-103090533D01*
X138159580Y-96166666D02*
X138207200Y-96214285D01*
X138207200Y-96214285D02*
X138254819Y-96357142D01*
X138254819Y-96357142D02*
X138254819Y-96452380D01*
X138254819Y-96452380D02*
X138207200Y-96595237D01*
X138207200Y-96595237D02*
X138111961Y-96690475D01*
X138111961Y-96690475D02*
X138016723Y-96738094D01*
X138016723Y-96738094D02*
X137826247Y-96785713D01*
X137826247Y-96785713D02*
X137683390Y-96785713D01*
X137683390Y-96785713D02*
X137492914Y-96738094D01*
X137492914Y-96738094D02*
X137397676Y-96690475D01*
X137397676Y-96690475D02*
X137302438Y-96595237D01*
X137302438Y-96595237D02*
X137254819Y-96452380D01*
X137254819Y-96452380D02*
X137254819Y-96357142D01*
X137254819Y-96357142D02*
X137302438Y-96214285D01*
X137302438Y-96214285D02*
X137350057Y-96166666D01*
X138254819Y-95214285D02*
X138254819Y-95785713D01*
X138254819Y-95499999D02*
X137254819Y-95499999D01*
X137254819Y-95499999D02*
X137397676Y-95595237D01*
X137397676Y-95595237D02*
X137492914Y-95690475D01*
X137492914Y-95690475D02*
X137540533Y-95785713D01*
X137539580Y-109666666D02*
X137587200Y-109714285D01*
X137587200Y-109714285D02*
X137634819Y-109857142D01*
X137634819Y-109857142D02*
X137634819Y-109952380D01*
X137634819Y-109952380D02*
X137587200Y-110095237D01*
X137587200Y-110095237D02*
X137491961Y-110190475D01*
X137491961Y-110190475D02*
X137396723Y-110238094D01*
X137396723Y-110238094D02*
X137206247Y-110285713D01*
X137206247Y-110285713D02*
X137063390Y-110285713D01*
X137063390Y-110285713D02*
X136872914Y-110238094D01*
X136872914Y-110238094D02*
X136777676Y-110190475D01*
X136777676Y-110190475D02*
X136682438Y-110095237D01*
X136682438Y-110095237D02*
X136634819Y-109952380D01*
X136634819Y-109952380D02*
X136634819Y-109857142D01*
X136634819Y-109857142D02*
X136682438Y-109714285D01*
X136682438Y-109714285D02*
X136730057Y-109666666D01*
X136634819Y-108761904D02*
X136634819Y-109238094D01*
X136634819Y-109238094D02*
X137111009Y-109285713D01*
X137111009Y-109285713D02*
X137063390Y-109238094D01*
X137063390Y-109238094D02*
X137015771Y-109142856D01*
X137015771Y-109142856D02*
X137015771Y-108904761D01*
X137015771Y-108904761D02*
X137063390Y-108809523D01*
X137063390Y-108809523D02*
X137111009Y-108761904D01*
X137111009Y-108761904D02*
X137206247Y-108714285D01*
X137206247Y-108714285D02*
X137444342Y-108714285D01*
X137444342Y-108714285D02*
X137539580Y-108761904D01*
X137539580Y-108761904D02*
X137587200Y-108809523D01*
X137587200Y-108809523D02*
X137634819Y-108904761D01*
X137634819Y-108904761D02*
X137634819Y-109142856D01*
X137634819Y-109142856D02*
X137587200Y-109238094D01*
X137587200Y-109238094D02*
X137539580Y-109285713D01*
X154539580Y-99666666D02*
X154587200Y-99714285D01*
X154587200Y-99714285D02*
X154634819Y-99857142D01*
X154634819Y-99857142D02*
X154634819Y-99952380D01*
X154634819Y-99952380D02*
X154587200Y-100095237D01*
X154587200Y-100095237D02*
X154491961Y-100190475D01*
X154491961Y-100190475D02*
X154396723Y-100238094D01*
X154396723Y-100238094D02*
X154206247Y-100285713D01*
X154206247Y-100285713D02*
X154063390Y-100285713D01*
X154063390Y-100285713D02*
X153872914Y-100238094D01*
X153872914Y-100238094D02*
X153777676Y-100190475D01*
X153777676Y-100190475D02*
X153682438Y-100095237D01*
X153682438Y-100095237D02*
X153634819Y-99952380D01*
X153634819Y-99952380D02*
X153634819Y-99857142D01*
X153634819Y-99857142D02*
X153682438Y-99714285D01*
X153682438Y-99714285D02*
X153730057Y-99666666D01*
X153634819Y-99333332D02*
X153634819Y-98714285D01*
X153634819Y-98714285D02*
X154015771Y-99047618D01*
X154015771Y-99047618D02*
X154015771Y-98904761D01*
X154015771Y-98904761D02*
X154063390Y-98809523D01*
X154063390Y-98809523D02*
X154111009Y-98761904D01*
X154111009Y-98761904D02*
X154206247Y-98714285D01*
X154206247Y-98714285D02*
X154444342Y-98714285D01*
X154444342Y-98714285D02*
X154539580Y-98761904D01*
X154539580Y-98761904D02*
X154587200Y-98809523D01*
X154587200Y-98809523D02*
X154634819Y-98904761D01*
X154634819Y-98904761D02*
X154634819Y-99190475D01*
X154634819Y-99190475D02*
X154587200Y-99285713D01*
X154587200Y-99285713D02*
X154539580Y-99333332D01*
X127557142Y-103959580D02*
X127509523Y-104007200D01*
X127509523Y-104007200D02*
X127366666Y-104054819D01*
X127366666Y-104054819D02*
X127271428Y-104054819D01*
X127271428Y-104054819D02*
X127128571Y-104007200D01*
X127128571Y-104007200D02*
X127033333Y-103911961D01*
X127033333Y-103911961D02*
X126985714Y-103816723D01*
X126985714Y-103816723D02*
X126938095Y-103626247D01*
X126938095Y-103626247D02*
X126938095Y-103483390D01*
X126938095Y-103483390D02*
X126985714Y-103292914D01*
X126985714Y-103292914D02*
X127033333Y-103197676D01*
X127033333Y-103197676D02*
X127128571Y-103102438D01*
X127128571Y-103102438D02*
X127271428Y-103054819D01*
X127271428Y-103054819D02*
X127366666Y-103054819D01*
X127366666Y-103054819D02*
X127509523Y-103102438D01*
X127509523Y-103102438D02*
X127557142Y-103150057D01*
X128509523Y-104054819D02*
X127938095Y-104054819D01*
X128223809Y-104054819D02*
X128223809Y-103054819D01*
X128223809Y-103054819D02*
X128128571Y-103197676D01*
X128128571Y-103197676D02*
X128033333Y-103292914D01*
X128033333Y-103292914D02*
X127938095Y-103340533D01*
X129128571Y-103054819D02*
X129223809Y-103054819D01*
X129223809Y-103054819D02*
X129319047Y-103102438D01*
X129319047Y-103102438D02*
X129366666Y-103150057D01*
X129366666Y-103150057D02*
X129414285Y-103245295D01*
X129414285Y-103245295D02*
X129461904Y-103435771D01*
X129461904Y-103435771D02*
X129461904Y-103673866D01*
X129461904Y-103673866D02*
X129414285Y-103864342D01*
X129414285Y-103864342D02*
X129366666Y-103959580D01*
X129366666Y-103959580D02*
X129319047Y-104007200D01*
X129319047Y-104007200D02*
X129223809Y-104054819D01*
X129223809Y-104054819D02*
X129128571Y-104054819D01*
X129128571Y-104054819D02*
X129033333Y-104007200D01*
X129033333Y-104007200D02*
X128985714Y-103959580D01*
X128985714Y-103959580D02*
X128938095Y-103864342D01*
X128938095Y-103864342D02*
X128890476Y-103673866D01*
X128890476Y-103673866D02*
X128890476Y-103435771D01*
X128890476Y-103435771D02*
X128938095Y-103245295D01*
X128938095Y-103245295D02*
X128985714Y-103150057D01*
X128985714Y-103150057D02*
X129033333Y-103102438D01*
X129033333Y-103102438D02*
X129128571Y-103054819D01*
X151249366Y-118950000D02*
X151282700Y-118983333D01*
X151282700Y-118983333D02*
X151316033Y-119083333D01*
X151316033Y-119083333D02*
X151316033Y-119150000D01*
X151316033Y-119150000D02*
X151282700Y-119250000D01*
X151282700Y-119250000D02*
X151216033Y-119316667D01*
X151216033Y-119316667D02*
X151149366Y-119350000D01*
X151149366Y-119350000D02*
X151016033Y-119383333D01*
X151016033Y-119383333D02*
X150916033Y-119383333D01*
X150916033Y-119383333D02*
X150782700Y-119350000D01*
X150782700Y-119350000D02*
X150716033Y-119316667D01*
X150716033Y-119316667D02*
X150649366Y-119250000D01*
X150649366Y-119250000D02*
X150616033Y-119150000D01*
X150616033Y-119150000D02*
X150616033Y-119083333D01*
X150616033Y-119083333D02*
X150649366Y-118983333D01*
X150649366Y-118983333D02*
X150682700Y-118950000D01*
X151316033Y-118283333D02*
X151316033Y-118683333D01*
X151316033Y-118483333D02*
X150616033Y-118483333D01*
X150616033Y-118483333D02*
X150716033Y-118550000D01*
X150716033Y-118550000D02*
X150782700Y-118616667D01*
X150782700Y-118616667D02*
X150816033Y-118683333D01*
X150916033Y-117883333D02*
X150882700Y-117950000D01*
X150882700Y-117950000D02*
X150849366Y-117983333D01*
X150849366Y-117983333D02*
X150782700Y-118016666D01*
X150782700Y-118016666D02*
X150749366Y-118016666D01*
X150749366Y-118016666D02*
X150682700Y-117983333D01*
X150682700Y-117983333D02*
X150649366Y-117950000D01*
X150649366Y-117950000D02*
X150616033Y-117883333D01*
X150616033Y-117883333D02*
X150616033Y-117750000D01*
X150616033Y-117750000D02*
X150649366Y-117683333D01*
X150649366Y-117683333D02*
X150682700Y-117650000D01*
X150682700Y-117650000D02*
X150749366Y-117616666D01*
X150749366Y-117616666D02*
X150782700Y-117616666D01*
X150782700Y-117616666D02*
X150849366Y-117650000D01*
X150849366Y-117650000D02*
X150882700Y-117683333D01*
X150882700Y-117683333D02*
X150916033Y-117750000D01*
X150916033Y-117750000D02*
X150916033Y-117883333D01*
X150916033Y-117883333D02*
X150949366Y-117950000D01*
X150949366Y-117950000D02*
X150982700Y-117983333D01*
X150982700Y-117983333D02*
X151049366Y-118016666D01*
X151049366Y-118016666D02*
X151182700Y-118016666D01*
X151182700Y-118016666D02*
X151249366Y-117983333D01*
X151249366Y-117983333D02*
X151282700Y-117950000D01*
X151282700Y-117950000D02*
X151316033Y-117883333D01*
X151316033Y-117883333D02*
X151316033Y-117750000D01*
X151316033Y-117750000D02*
X151282700Y-117683333D01*
X151282700Y-117683333D02*
X151249366Y-117650000D01*
X151249366Y-117650000D02*
X151182700Y-117616666D01*
X151182700Y-117616666D02*
X151049366Y-117616666D01*
X151049366Y-117616666D02*
X150982700Y-117650000D01*
X150982700Y-117650000D02*
X150949366Y-117683333D01*
X150949366Y-117683333D02*
X150916033Y-117750000D01*
X158454819Y-103766666D02*
X157978628Y-104099999D01*
X158454819Y-104338094D02*
X157454819Y-104338094D01*
X157454819Y-104338094D02*
X157454819Y-103957142D01*
X157454819Y-103957142D02*
X157502438Y-103861904D01*
X157502438Y-103861904D02*
X157550057Y-103814285D01*
X157550057Y-103814285D02*
X157645295Y-103766666D01*
X157645295Y-103766666D02*
X157788152Y-103766666D01*
X157788152Y-103766666D02*
X157883390Y-103814285D01*
X157883390Y-103814285D02*
X157931009Y-103861904D01*
X157931009Y-103861904D02*
X157978628Y-103957142D01*
X157978628Y-103957142D02*
X157978628Y-104338094D01*
X157454819Y-103433332D02*
X157454819Y-102814285D01*
X157454819Y-102814285D02*
X157835771Y-103147618D01*
X157835771Y-103147618D02*
X157835771Y-103004761D01*
X157835771Y-103004761D02*
X157883390Y-102909523D01*
X157883390Y-102909523D02*
X157931009Y-102861904D01*
X157931009Y-102861904D02*
X158026247Y-102814285D01*
X158026247Y-102814285D02*
X158264342Y-102814285D01*
X158264342Y-102814285D02*
X158359580Y-102861904D01*
X158359580Y-102861904D02*
X158407200Y-102909523D01*
X158407200Y-102909523D02*
X158454819Y-103004761D01*
X158454819Y-103004761D02*
X158454819Y-103290475D01*
X158454819Y-103290475D02*
X158407200Y-103385713D01*
X158407200Y-103385713D02*
X158359580Y-103433332D01*
X158149999Y-117249366D02*
X158116666Y-117282700D01*
X158116666Y-117282700D02*
X158016666Y-117316033D01*
X158016666Y-117316033D02*
X157949999Y-117316033D01*
X157949999Y-117316033D02*
X157849999Y-117282700D01*
X157849999Y-117282700D02*
X157783333Y-117216033D01*
X157783333Y-117216033D02*
X157749999Y-117149366D01*
X157749999Y-117149366D02*
X157716666Y-117016033D01*
X157716666Y-117016033D02*
X157716666Y-116916033D01*
X157716666Y-116916033D02*
X157749999Y-116782700D01*
X157749999Y-116782700D02*
X157783333Y-116716033D01*
X157783333Y-116716033D02*
X157849999Y-116649366D01*
X157849999Y-116649366D02*
X157949999Y-116616033D01*
X157949999Y-116616033D02*
X158016666Y-116616033D01*
X158016666Y-116616033D02*
X158116666Y-116649366D01*
X158116666Y-116649366D02*
X158149999Y-116682700D01*
X158816666Y-117316033D02*
X158416666Y-117316033D01*
X158616666Y-117316033D02*
X158616666Y-116616033D01*
X158616666Y-116616033D02*
X158549999Y-116716033D01*
X158549999Y-116716033D02*
X158483333Y-116782700D01*
X158483333Y-116782700D02*
X158416666Y-116816033D01*
X159050000Y-116616033D02*
X159516666Y-116616033D01*
X159516666Y-116616033D02*
X159216666Y-117316033D01*
X172761905Y-95954819D02*
X172761905Y-94954819D01*
X172761905Y-94954819D02*
X173000000Y-94954819D01*
X173000000Y-94954819D02*
X173142857Y-95002438D01*
X173142857Y-95002438D02*
X173238095Y-95097676D01*
X173238095Y-95097676D02*
X173285714Y-95192914D01*
X173285714Y-95192914D02*
X173333333Y-95383390D01*
X173333333Y-95383390D02*
X173333333Y-95526247D01*
X173333333Y-95526247D02*
X173285714Y-95716723D01*
X173285714Y-95716723D02*
X173238095Y-95811961D01*
X173238095Y-95811961D02*
X173142857Y-95907200D01*
X173142857Y-95907200D02*
X173000000Y-95954819D01*
X173000000Y-95954819D02*
X172761905Y-95954819D01*
X174285714Y-95954819D02*
X173714286Y-95954819D01*
X174000000Y-95954819D02*
X174000000Y-94954819D01*
X174000000Y-94954819D02*
X173904762Y-95097676D01*
X173904762Y-95097676D02*
X173809524Y-95192914D01*
X173809524Y-95192914D02*
X173714286Y-95240533D01*
X156304166Y-88454819D02*
X156304166Y-89169104D01*
X156304166Y-89169104D02*
X156256547Y-89311961D01*
X156256547Y-89311961D02*
X156161309Y-89407200D01*
X156161309Y-89407200D02*
X156018452Y-89454819D01*
X156018452Y-89454819D02*
X155923214Y-89454819D01*
X156732738Y-88550057D02*
X156780357Y-88502438D01*
X156780357Y-88502438D02*
X156875595Y-88454819D01*
X156875595Y-88454819D02*
X157113690Y-88454819D01*
X157113690Y-88454819D02*
X157208928Y-88502438D01*
X157208928Y-88502438D02*
X157256547Y-88550057D01*
X157256547Y-88550057D02*
X157304166Y-88645295D01*
X157304166Y-88645295D02*
X157304166Y-88740533D01*
X157304166Y-88740533D02*
X157256547Y-88883390D01*
X157256547Y-88883390D02*
X156685119Y-89454819D01*
X156685119Y-89454819D02*
X157304166Y-89454819D01*
X134159580Y-92642857D02*
X134207200Y-92690476D01*
X134207200Y-92690476D02*
X134254819Y-92833333D01*
X134254819Y-92833333D02*
X134254819Y-92928571D01*
X134254819Y-92928571D02*
X134207200Y-93071428D01*
X134207200Y-93071428D02*
X134111961Y-93166666D01*
X134111961Y-93166666D02*
X134016723Y-93214285D01*
X134016723Y-93214285D02*
X133826247Y-93261904D01*
X133826247Y-93261904D02*
X133683390Y-93261904D01*
X133683390Y-93261904D02*
X133492914Y-93214285D01*
X133492914Y-93214285D02*
X133397676Y-93166666D01*
X133397676Y-93166666D02*
X133302438Y-93071428D01*
X133302438Y-93071428D02*
X133254819Y-92928571D01*
X133254819Y-92928571D02*
X133254819Y-92833333D01*
X133254819Y-92833333D02*
X133302438Y-92690476D01*
X133302438Y-92690476D02*
X133350057Y-92642857D01*
X134254819Y-91690476D02*
X134254819Y-92261904D01*
X134254819Y-91976190D02*
X133254819Y-91976190D01*
X133254819Y-91976190D02*
X133397676Y-92071428D01*
X133397676Y-92071428D02*
X133492914Y-92166666D01*
X133492914Y-92166666D02*
X133540533Y-92261904D01*
X133254819Y-90833333D02*
X133254819Y-91023809D01*
X133254819Y-91023809D02*
X133302438Y-91119047D01*
X133302438Y-91119047D02*
X133350057Y-91166666D01*
X133350057Y-91166666D02*
X133492914Y-91261904D01*
X133492914Y-91261904D02*
X133683390Y-91309523D01*
X133683390Y-91309523D02*
X134064342Y-91309523D01*
X134064342Y-91309523D02*
X134159580Y-91261904D01*
X134159580Y-91261904D02*
X134207200Y-91214285D01*
X134207200Y-91214285D02*
X134254819Y-91119047D01*
X134254819Y-91119047D02*
X134254819Y-90928571D01*
X134254819Y-90928571D02*
X134207200Y-90833333D01*
X134207200Y-90833333D02*
X134159580Y-90785714D01*
X134159580Y-90785714D02*
X134064342Y-90738095D01*
X134064342Y-90738095D02*
X133826247Y-90738095D01*
X133826247Y-90738095D02*
X133731009Y-90785714D01*
X133731009Y-90785714D02*
X133683390Y-90833333D01*
X133683390Y-90833333D02*
X133635771Y-90928571D01*
X133635771Y-90928571D02*
X133635771Y-91119047D01*
X133635771Y-91119047D02*
X133683390Y-91214285D01*
X133683390Y-91214285D02*
X133731009Y-91261904D01*
X133731009Y-91261904D02*
X133826247Y-91309523D01*
X181761905Y-114054819D02*
X181761905Y-113054819D01*
X181761905Y-113054819D02*
X182000000Y-113054819D01*
X182000000Y-113054819D02*
X182142857Y-113102438D01*
X182142857Y-113102438D02*
X182238095Y-113197676D01*
X182238095Y-113197676D02*
X182285714Y-113292914D01*
X182285714Y-113292914D02*
X182333333Y-113483390D01*
X182333333Y-113483390D02*
X182333333Y-113626247D01*
X182333333Y-113626247D02*
X182285714Y-113816723D01*
X182285714Y-113816723D02*
X182238095Y-113911961D01*
X182238095Y-113911961D02*
X182142857Y-114007200D01*
X182142857Y-114007200D02*
X182000000Y-114054819D01*
X182000000Y-114054819D02*
X181761905Y-114054819D01*
X183190476Y-113388152D02*
X183190476Y-114054819D01*
X182952381Y-113007200D02*
X182714286Y-113721485D01*
X182714286Y-113721485D02*
X183333333Y-113721485D01*
X159957142Y-109254819D02*
X159623809Y-108778628D01*
X159385714Y-109254819D02*
X159385714Y-108254819D01*
X159385714Y-108254819D02*
X159766666Y-108254819D01*
X159766666Y-108254819D02*
X159861904Y-108302438D01*
X159861904Y-108302438D02*
X159909523Y-108350057D01*
X159909523Y-108350057D02*
X159957142Y-108445295D01*
X159957142Y-108445295D02*
X159957142Y-108588152D01*
X159957142Y-108588152D02*
X159909523Y-108683390D01*
X159909523Y-108683390D02*
X159861904Y-108731009D01*
X159861904Y-108731009D02*
X159766666Y-108778628D01*
X159766666Y-108778628D02*
X159385714Y-108778628D01*
X160909523Y-109254819D02*
X160338095Y-109254819D01*
X160623809Y-109254819D02*
X160623809Y-108254819D01*
X160623809Y-108254819D02*
X160528571Y-108397676D01*
X160528571Y-108397676D02*
X160433333Y-108492914D01*
X160433333Y-108492914D02*
X160338095Y-108540533D01*
X161290476Y-108350057D02*
X161338095Y-108302438D01*
X161338095Y-108302438D02*
X161433333Y-108254819D01*
X161433333Y-108254819D02*
X161671428Y-108254819D01*
X161671428Y-108254819D02*
X161766666Y-108302438D01*
X161766666Y-108302438D02*
X161814285Y-108350057D01*
X161814285Y-108350057D02*
X161861904Y-108445295D01*
X161861904Y-108445295D02*
X161861904Y-108540533D01*
X161861904Y-108540533D02*
X161814285Y-108683390D01*
X161814285Y-108683390D02*
X161242857Y-109254819D01*
X161242857Y-109254819D02*
X161861904Y-109254819D01*
X128557142Y-98359580D02*
X128509523Y-98407200D01*
X128509523Y-98407200D02*
X128366666Y-98454819D01*
X128366666Y-98454819D02*
X128271428Y-98454819D01*
X128271428Y-98454819D02*
X128128571Y-98407200D01*
X128128571Y-98407200D02*
X128033333Y-98311961D01*
X128033333Y-98311961D02*
X127985714Y-98216723D01*
X127985714Y-98216723D02*
X127938095Y-98026247D01*
X127938095Y-98026247D02*
X127938095Y-97883390D01*
X127938095Y-97883390D02*
X127985714Y-97692914D01*
X127985714Y-97692914D02*
X128033333Y-97597676D01*
X128033333Y-97597676D02*
X128128571Y-97502438D01*
X128128571Y-97502438D02*
X128271428Y-97454819D01*
X128271428Y-97454819D02*
X128366666Y-97454819D01*
X128366666Y-97454819D02*
X128509523Y-97502438D01*
X128509523Y-97502438D02*
X128557142Y-97550057D01*
X129509523Y-98454819D02*
X128938095Y-98454819D01*
X129223809Y-98454819D02*
X129223809Y-97454819D01*
X129223809Y-97454819D02*
X129128571Y-97597676D01*
X129128571Y-97597676D02*
X129033333Y-97692914D01*
X129033333Y-97692914D02*
X128938095Y-97740533D01*
X130366666Y-97788152D02*
X130366666Y-98454819D01*
X130128571Y-97407200D02*
X129890476Y-98121485D01*
X129890476Y-98121485D02*
X130509523Y-98121485D01*
X181761905Y-89854819D02*
X181761905Y-88854819D01*
X181761905Y-88854819D02*
X182000000Y-88854819D01*
X182000000Y-88854819D02*
X182142857Y-88902438D01*
X182142857Y-88902438D02*
X182238095Y-88997676D01*
X182238095Y-88997676D02*
X182285714Y-89092914D01*
X182285714Y-89092914D02*
X182333333Y-89283390D01*
X182333333Y-89283390D02*
X182333333Y-89426247D01*
X182333333Y-89426247D02*
X182285714Y-89616723D01*
X182285714Y-89616723D02*
X182238095Y-89711961D01*
X182238095Y-89711961D02*
X182142857Y-89807200D01*
X182142857Y-89807200D02*
X182000000Y-89854819D01*
X182000000Y-89854819D02*
X181761905Y-89854819D01*
X182666667Y-88854819D02*
X183285714Y-88854819D01*
X183285714Y-88854819D02*
X182952381Y-89235771D01*
X182952381Y-89235771D02*
X183095238Y-89235771D01*
X183095238Y-89235771D02*
X183190476Y-89283390D01*
X183190476Y-89283390D02*
X183238095Y-89331009D01*
X183238095Y-89331009D02*
X183285714Y-89426247D01*
X183285714Y-89426247D02*
X183285714Y-89664342D01*
X183285714Y-89664342D02*
X183238095Y-89759580D01*
X183238095Y-89759580D02*
X183190476Y-89807200D01*
X183190476Y-89807200D02*
X183095238Y-89854819D01*
X183095238Y-89854819D02*
X182809524Y-89854819D01*
X182809524Y-89854819D02*
X182714286Y-89807200D01*
X182714286Y-89807200D02*
X182666667Y-89759580D01*
X128557142Y-100959580D02*
X128509523Y-101007200D01*
X128509523Y-101007200D02*
X128366666Y-101054819D01*
X128366666Y-101054819D02*
X128271428Y-101054819D01*
X128271428Y-101054819D02*
X128128571Y-101007200D01*
X128128571Y-101007200D02*
X128033333Y-100911961D01*
X128033333Y-100911961D02*
X127985714Y-100816723D01*
X127985714Y-100816723D02*
X127938095Y-100626247D01*
X127938095Y-100626247D02*
X127938095Y-100483390D01*
X127938095Y-100483390D02*
X127985714Y-100292914D01*
X127985714Y-100292914D02*
X128033333Y-100197676D01*
X128033333Y-100197676D02*
X128128571Y-100102438D01*
X128128571Y-100102438D02*
X128271428Y-100054819D01*
X128271428Y-100054819D02*
X128366666Y-100054819D01*
X128366666Y-100054819D02*
X128509523Y-100102438D01*
X128509523Y-100102438D02*
X128557142Y-100150057D01*
X129509523Y-101054819D02*
X128938095Y-101054819D01*
X129223809Y-101054819D02*
X129223809Y-100054819D01*
X129223809Y-100054819D02*
X129128571Y-100197676D01*
X129128571Y-100197676D02*
X129033333Y-100292914D01*
X129033333Y-100292914D02*
X128938095Y-100340533D01*
X130414285Y-100054819D02*
X129938095Y-100054819D01*
X129938095Y-100054819D02*
X129890476Y-100531009D01*
X129890476Y-100531009D02*
X129938095Y-100483390D01*
X129938095Y-100483390D02*
X130033333Y-100435771D01*
X130033333Y-100435771D02*
X130271428Y-100435771D01*
X130271428Y-100435771D02*
X130366666Y-100483390D01*
X130366666Y-100483390D02*
X130414285Y-100531009D01*
X130414285Y-100531009D02*
X130461904Y-100626247D01*
X130461904Y-100626247D02*
X130461904Y-100864342D01*
X130461904Y-100864342D02*
X130414285Y-100959580D01*
X130414285Y-100959580D02*
X130366666Y-101007200D01*
X130366666Y-101007200D02*
X130271428Y-101054819D01*
X130271428Y-101054819D02*
X130033333Y-101054819D01*
X130033333Y-101054819D02*
X129938095Y-101007200D01*
X129938095Y-101007200D02*
X129890476Y-100959580D01*
D12*
X163870785Y-117631017D02*
X163870785Y-118019588D01*
X163870785Y-118019588D02*
X163893642Y-118065302D01*
X163893642Y-118065302D02*
X163916500Y-118088160D01*
X163916500Y-118088160D02*
X163962214Y-118111017D01*
X163962214Y-118111017D02*
X164053642Y-118111017D01*
X164053642Y-118111017D02*
X164099357Y-118088160D01*
X164099357Y-118088160D02*
X164122214Y-118065302D01*
X164122214Y-118065302D02*
X164145071Y-118019588D01*
X164145071Y-118019588D02*
X164145071Y-117631017D01*
X164579357Y-117791017D02*
X164579357Y-118111017D01*
X164465071Y-117608160D02*
X164350785Y-117951017D01*
X164350785Y-117951017D02*
X164647928Y-117951017D01*
D11*
X162679580Y-113642857D02*
X162727200Y-113690476D01*
X162727200Y-113690476D02*
X162774819Y-113833333D01*
X162774819Y-113833333D02*
X162774819Y-113928571D01*
X162774819Y-113928571D02*
X162727200Y-114071428D01*
X162727200Y-114071428D02*
X162631961Y-114166666D01*
X162631961Y-114166666D02*
X162536723Y-114214285D01*
X162536723Y-114214285D02*
X162346247Y-114261904D01*
X162346247Y-114261904D02*
X162203390Y-114261904D01*
X162203390Y-114261904D02*
X162012914Y-114214285D01*
X162012914Y-114214285D02*
X161917676Y-114166666D01*
X161917676Y-114166666D02*
X161822438Y-114071428D01*
X161822438Y-114071428D02*
X161774819Y-113928571D01*
X161774819Y-113928571D02*
X161774819Y-113833333D01*
X161774819Y-113833333D02*
X161822438Y-113690476D01*
X161822438Y-113690476D02*
X161870057Y-113642857D01*
X161870057Y-113261904D02*
X161822438Y-113214285D01*
X161822438Y-113214285D02*
X161774819Y-113119047D01*
X161774819Y-113119047D02*
X161774819Y-112880952D01*
X161774819Y-112880952D02*
X161822438Y-112785714D01*
X161822438Y-112785714D02*
X161870057Y-112738095D01*
X161870057Y-112738095D02*
X161965295Y-112690476D01*
X161965295Y-112690476D02*
X162060533Y-112690476D01*
X162060533Y-112690476D02*
X162203390Y-112738095D01*
X162203390Y-112738095D02*
X162774819Y-113309523D01*
X162774819Y-113309523D02*
X162774819Y-112690476D01*
X162108152Y-111833333D02*
X162774819Y-111833333D01*
X161727200Y-112071428D02*
X162441485Y-112309523D01*
X162441485Y-112309523D02*
X162441485Y-111690476D01*
X169433333Y-104359580D02*
X169385714Y-104407200D01*
X169385714Y-104407200D02*
X169242857Y-104454819D01*
X169242857Y-104454819D02*
X169147619Y-104454819D01*
X169147619Y-104454819D02*
X169004762Y-104407200D01*
X169004762Y-104407200D02*
X168909524Y-104311961D01*
X168909524Y-104311961D02*
X168861905Y-104216723D01*
X168861905Y-104216723D02*
X168814286Y-104026247D01*
X168814286Y-104026247D02*
X168814286Y-103883390D01*
X168814286Y-103883390D02*
X168861905Y-103692914D01*
X168861905Y-103692914D02*
X168909524Y-103597676D01*
X168909524Y-103597676D02*
X169004762Y-103502438D01*
X169004762Y-103502438D02*
X169147619Y-103454819D01*
X169147619Y-103454819D02*
X169242857Y-103454819D01*
X169242857Y-103454819D02*
X169385714Y-103502438D01*
X169385714Y-103502438D02*
X169433333Y-103550057D01*
X169766667Y-103454819D02*
X170433333Y-103454819D01*
X170433333Y-103454819D02*
X170004762Y-104454819D01*
X137604819Y-88166666D02*
X137128628Y-88499999D01*
X137604819Y-88738094D02*
X136604819Y-88738094D01*
X136604819Y-88738094D02*
X136604819Y-88357142D01*
X136604819Y-88357142D02*
X136652438Y-88261904D01*
X136652438Y-88261904D02*
X136700057Y-88214285D01*
X136700057Y-88214285D02*
X136795295Y-88166666D01*
X136795295Y-88166666D02*
X136938152Y-88166666D01*
X136938152Y-88166666D02*
X137033390Y-88214285D01*
X137033390Y-88214285D02*
X137081009Y-88261904D01*
X137081009Y-88261904D02*
X137128628Y-88357142D01*
X137128628Y-88357142D02*
X137128628Y-88738094D01*
X136604819Y-87309523D02*
X136604819Y-87499999D01*
X136604819Y-87499999D02*
X136652438Y-87595237D01*
X136652438Y-87595237D02*
X136700057Y-87642856D01*
X136700057Y-87642856D02*
X136842914Y-87738094D01*
X136842914Y-87738094D02*
X137033390Y-87785713D01*
X137033390Y-87785713D02*
X137414342Y-87785713D01*
X137414342Y-87785713D02*
X137509580Y-87738094D01*
X137509580Y-87738094D02*
X137557200Y-87690475D01*
X137557200Y-87690475D02*
X137604819Y-87595237D01*
X137604819Y-87595237D02*
X137604819Y-87404761D01*
X137604819Y-87404761D02*
X137557200Y-87309523D01*
X137557200Y-87309523D02*
X137509580Y-87261904D01*
X137509580Y-87261904D02*
X137414342Y-87214285D01*
X137414342Y-87214285D02*
X137176247Y-87214285D01*
X137176247Y-87214285D02*
X137081009Y-87261904D01*
X137081009Y-87261904D02*
X137033390Y-87309523D01*
X137033390Y-87309523D02*
X136985771Y-87404761D01*
X136985771Y-87404761D02*
X136985771Y-87595237D01*
X136985771Y-87595237D02*
X137033390Y-87690475D01*
X137033390Y-87690475D02*
X137081009Y-87738094D01*
X137081009Y-87738094D02*
X137176247Y-87785713D01*
X142357142Y-112804819D02*
X142023809Y-112328628D01*
X141785714Y-112804819D02*
X141785714Y-111804819D01*
X141785714Y-111804819D02*
X142166666Y-111804819D01*
X142166666Y-111804819D02*
X142261904Y-111852438D01*
X142261904Y-111852438D02*
X142309523Y-111900057D01*
X142309523Y-111900057D02*
X142357142Y-111995295D01*
X142357142Y-111995295D02*
X142357142Y-112138152D01*
X142357142Y-112138152D02*
X142309523Y-112233390D01*
X142309523Y-112233390D02*
X142261904Y-112281009D01*
X142261904Y-112281009D02*
X142166666Y-112328628D01*
X142166666Y-112328628D02*
X141785714Y-112328628D01*
X143309523Y-112804819D02*
X142738095Y-112804819D01*
X143023809Y-112804819D02*
X143023809Y-111804819D01*
X143023809Y-111804819D02*
X142928571Y-111947676D01*
X142928571Y-111947676D02*
X142833333Y-112042914D01*
X142833333Y-112042914D02*
X142738095Y-112090533D01*
X143928571Y-111804819D02*
X144023809Y-111804819D01*
X144023809Y-111804819D02*
X144119047Y-111852438D01*
X144119047Y-111852438D02*
X144166666Y-111900057D01*
X144166666Y-111900057D02*
X144214285Y-111995295D01*
X144214285Y-111995295D02*
X144261904Y-112185771D01*
X144261904Y-112185771D02*
X144261904Y-112423866D01*
X144261904Y-112423866D02*
X144214285Y-112614342D01*
X144214285Y-112614342D02*
X144166666Y-112709580D01*
X144166666Y-112709580D02*
X144119047Y-112757200D01*
X144119047Y-112757200D02*
X144023809Y-112804819D01*
X144023809Y-112804819D02*
X143928571Y-112804819D01*
X143928571Y-112804819D02*
X143833333Y-112757200D01*
X143833333Y-112757200D02*
X143785714Y-112709580D01*
X143785714Y-112709580D02*
X143738095Y-112614342D01*
X143738095Y-112614342D02*
X143690476Y-112423866D01*
X143690476Y-112423866D02*
X143690476Y-112185771D01*
X143690476Y-112185771D02*
X143738095Y-111995295D01*
X143738095Y-111995295D02*
X143785714Y-111900057D01*
X143785714Y-111900057D02*
X143833333Y-111852438D01*
X143833333Y-111852438D02*
X143928571Y-111804819D01*
X120166666Y-93454819D02*
X120166666Y-94169104D01*
X120166666Y-94169104D02*
X120119047Y-94311961D01*
X120119047Y-94311961D02*
X120023809Y-94407200D01*
X120023809Y-94407200D02*
X119880952Y-94454819D01*
X119880952Y-94454819D02*
X119785714Y-94454819D01*
X120785714Y-93883390D02*
X120690476Y-93835771D01*
X120690476Y-93835771D02*
X120642857Y-93788152D01*
X120642857Y-93788152D02*
X120595238Y-93692914D01*
X120595238Y-93692914D02*
X120595238Y-93645295D01*
X120595238Y-93645295D02*
X120642857Y-93550057D01*
X120642857Y-93550057D02*
X120690476Y-93502438D01*
X120690476Y-93502438D02*
X120785714Y-93454819D01*
X120785714Y-93454819D02*
X120976190Y-93454819D01*
X120976190Y-93454819D02*
X121071428Y-93502438D01*
X121071428Y-93502438D02*
X121119047Y-93550057D01*
X121119047Y-93550057D02*
X121166666Y-93645295D01*
X121166666Y-93645295D02*
X121166666Y-93692914D01*
X121166666Y-93692914D02*
X121119047Y-93788152D01*
X121119047Y-93788152D02*
X121071428Y-93835771D01*
X121071428Y-93835771D02*
X120976190Y-93883390D01*
X120976190Y-93883390D02*
X120785714Y-93883390D01*
X120785714Y-93883390D02*
X120690476Y-93931009D01*
X120690476Y-93931009D02*
X120642857Y-93978628D01*
X120642857Y-93978628D02*
X120595238Y-94073866D01*
X120595238Y-94073866D02*
X120595238Y-94264342D01*
X120595238Y-94264342D02*
X120642857Y-94359580D01*
X120642857Y-94359580D02*
X120690476Y-94407200D01*
X120690476Y-94407200D02*
X120785714Y-94454819D01*
X120785714Y-94454819D02*
X120976190Y-94454819D01*
X120976190Y-94454819D02*
X121071428Y-94407200D01*
X121071428Y-94407200D02*
X121119047Y-94359580D01*
X121119047Y-94359580D02*
X121166666Y-94264342D01*
X121166666Y-94264342D02*
X121166666Y-94073866D01*
X121166666Y-94073866D02*
X121119047Y-93978628D01*
X121119047Y-93978628D02*
X121071428Y-93931009D01*
X121071428Y-93931009D02*
X120976190Y-93883390D01*
X133329761Y-111575057D02*
X133234523Y-111527438D01*
X133234523Y-111527438D02*
X133139285Y-111432200D01*
X133139285Y-111432200D02*
X132996428Y-111289342D01*
X132996428Y-111289342D02*
X132901190Y-111241723D01*
X132901190Y-111241723D02*
X132805952Y-111241723D01*
X132853571Y-111479819D02*
X132758333Y-111432200D01*
X132758333Y-111432200D02*
X132663095Y-111336961D01*
X132663095Y-111336961D02*
X132615476Y-111146485D01*
X132615476Y-111146485D02*
X132615476Y-110813152D01*
X132615476Y-110813152D02*
X132663095Y-110622676D01*
X132663095Y-110622676D02*
X132758333Y-110527438D01*
X132758333Y-110527438D02*
X132853571Y-110479819D01*
X132853571Y-110479819D02*
X133044047Y-110479819D01*
X133044047Y-110479819D02*
X133139285Y-110527438D01*
X133139285Y-110527438D02*
X133234523Y-110622676D01*
X133234523Y-110622676D02*
X133282142Y-110813152D01*
X133282142Y-110813152D02*
X133282142Y-111146485D01*
X133282142Y-111146485D02*
X133234523Y-111336961D01*
X133234523Y-111336961D02*
X133139285Y-111432200D01*
X133139285Y-111432200D02*
X133044047Y-111479819D01*
X133044047Y-111479819D02*
X132853571Y-111479819D01*
X134234523Y-111479819D02*
X133663095Y-111479819D01*
X133948809Y-111479819D02*
X133948809Y-110479819D01*
X133948809Y-110479819D02*
X133853571Y-110622676D01*
X133853571Y-110622676D02*
X133758333Y-110717914D01*
X133758333Y-110717914D02*
X133663095Y-110765533D01*
X159316033Y-115450000D02*
X158982700Y-115683333D01*
X159316033Y-115850000D02*
X158616033Y-115850000D01*
X158616033Y-115850000D02*
X158616033Y-115583333D01*
X158616033Y-115583333D02*
X158649366Y-115516667D01*
X158649366Y-115516667D02*
X158682700Y-115483333D01*
X158682700Y-115483333D02*
X158749366Y-115450000D01*
X158749366Y-115450000D02*
X158849366Y-115450000D01*
X158849366Y-115450000D02*
X158916033Y-115483333D01*
X158916033Y-115483333D02*
X158949366Y-115516667D01*
X158949366Y-115516667D02*
X158982700Y-115583333D01*
X158982700Y-115583333D02*
X158982700Y-115850000D01*
X159316033Y-114783333D02*
X159316033Y-115183333D01*
X159316033Y-114983333D02*
X158616033Y-114983333D01*
X158616033Y-114983333D02*
X158716033Y-115050000D01*
X158716033Y-115050000D02*
X158782700Y-115116667D01*
X158782700Y-115116667D02*
X158816033Y-115183333D01*
X158616033Y-114550000D02*
X158616033Y-114116666D01*
X158616033Y-114116666D02*
X158882700Y-114350000D01*
X158882700Y-114350000D02*
X158882700Y-114250000D01*
X158882700Y-114250000D02*
X158916033Y-114183333D01*
X158916033Y-114183333D02*
X158949366Y-114150000D01*
X158949366Y-114150000D02*
X159016033Y-114116666D01*
X159016033Y-114116666D02*
X159182700Y-114116666D01*
X159182700Y-114116666D02*
X159249366Y-114150000D01*
X159249366Y-114150000D02*
X159282700Y-114183333D01*
X159282700Y-114183333D02*
X159316033Y-114250000D01*
X159316033Y-114250000D02*
X159316033Y-114450000D01*
X159316033Y-114450000D02*
X159282700Y-114516666D01*
X159282700Y-114516666D02*
X159249366Y-114550000D01*
X160749999Y-117249366D02*
X160716666Y-117282700D01*
X160716666Y-117282700D02*
X160616666Y-117316033D01*
X160616666Y-117316033D02*
X160549999Y-117316033D01*
X160549999Y-117316033D02*
X160449999Y-117282700D01*
X160449999Y-117282700D02*
X160383333Y-117216033D01*
X160383333Y-117216033D02*
X160349999Y-117149366D01*
X160349999Y-117149366D02*
X160316666Y-117016033D01*
X160316666Y-117016033D02*
X160316666Y-116916033D01*
X160316666Y-116916033D02*
X160349999Y-116782700D01*
X160349999Y-116782700D02*
X160383333Y-116716033D01*
X160383333Y-116716033D02*
X160449999Y-116649366D01*
X160449999Y-116649366D02*
X160549999Y-116616033D01*
X160549999Y-116616033D02*
X160616666Y-116616033D01*
X160616666Y-116616033D02*
X160716666Y-116649366D01*
X160716666Y-116649366D02*
X160749999Y-116682700D01*
X161016666Y-116682700D02*
X161049999Y-116649366D01*
X161049999Y-116649366D02*
X161116666Y-116616033D01*
X161116666Y-116616033D02*
X161283333Y-116616033D01*
X161283333Y-116616033D02*
X161349999Y-116649366D01*
X161349999Y-116649366D02*
X161383333Y-116682700D01*
X161383333Y-116682700D02*
X161416666Y-116749366D01*
X161416666Y-116749366D02*
X161416666Y-116816033D01*
X161416666Y-116816033D02*
X161383333Y-116916033D01*
X161383333Y-116916033D02*
X160983333Y-117316033D01*
X160983333Y-117316033D02*
X161416666Y-117316033D01*
X161850000Y-116616033D02*
X161916666Y-116616033D01*
X161916666Y-116616033D02*
X161983333Y-116649366D01*
X161983333Y-116649366D02*
X162016666Y-116682700D01*
X162016666Y-116682700D02*
X162050000Y-116749366D01*
X162050000Y-116749366D02*
X162083333Y-116882700D01*
X162083333Y-116882700D02*
X162083333Y-117049366D01*
X162083333Y-117049366D02*
X162050000Y-117182700D01*
X162050000Y-117182700D02*
X162016666Y-117249366D01*
X162016666Y-117249366D02*
X161983333Y-117282700D01*
X161983333Y-117282700D02*
X161916666Y-117316033D01*
X161916666Y-117316033D02*
X161850000Y-117316033D01*
X161850000Y-117316033D02*
X161783333Y-117282700D01*
X161783333Y-117282700D02*
X161750000Y-117249366D01*
X161750000Y-117249366D02*
X161716666Y-117182700D01*
X161716666Y-117182700D02*
X161683333Y-117049366D01*
X161683333Y-117049366D02*
X161683333Y-116882700D01*
X161683333Y-116882700D02*
X161716666Y-116749366D01*
X161716666Y-116749366D02*
X161750000Y-116682700D01*
X161750000Y-116682700D02*
X161783333Y-116649366D01*
X161783333Y-116649366D02*
X161850000Y-116616033D01*
X166433333Y-92559580D02*
X166385714Y-92607200D01*
X166385714Y-92607200D02*
X166242857Y-92654819D01*
X166242857Y-92654819D02*
X166147619Y-92654819D01*
X166147619Y-92654819D02*
X166004762Y-92607200D01*
X166004762Y-92607200D02*
X165909524Y-92511961D01*
X165909524Y-92511961D02*
X165861905Y-92416723D01*
X165861905Y-92416723D02*
X165814286Y-92226247D01*
X165814286Y-92226247D02*
X165814286Y-92083390D01*
X165814286Y-92083390D02*
X165861905Y-91892914D01*
X165861905Y-91892914D02*
X165909524Y-91797676D01*
X165909524Y-91797676D02*
X166004762Y-91702438D01*
X166004762Y-91702438D02*
X166147619Y-91654819D01*
X166147619Y-91654819D02*
X166242857Y-91654819D01*
X166242857Y-91654819D02*
X166385714Y-91702438D01*
X166385714Y-91702438D02*
X166433333Y-91750057D01*
X166909524Y-92654819D02*
X167100000Y-92654819D01*
X167100000Y-92654819D02*
X167195238Y-92607200D01*
X167195238Y-92607200D02*
X167242857Y-92559580D01*
X167242857Y-92559580D02*
X167338095Y-92416723D01*
X167338095Y-92416723D02*
X167385714Y-92226247D01*
X167385714Y-92226247D02*
X167385714Y-91845295D01*
X167385714Y-91845295D02*
X167338095Y-91750057D01*
X167338095Y-91750057D02*
X167290476Y-91702438D01*
X167290476Y-91702438D02*
X167195238Y-91654819D01*
X167195238Y-91654819D02*
X167004762Y-91654819D01*
X167004762Y-91654819D02*
X166909524Y-91702438D01*
X166909524Y-91702438D02*
X166861905Y-91750057D01*
X166861905Y-91750057D02*
X166814286Y-91845295D01*
X166814286Y-91845295D02*
X166814286Y-92083390D01*
X166814286Y-92083390D02*
X166861905Y-92178628D01*
X166861905Y-92178628D02*
X166909524Y-92226247D01*
X166909524Y-92226247D02*
X167004762Y-92273866D01*
X167004762Y-92273866D02*
X167195238Y-92273866D01*
X167195238Y-92273866D02*
X167290476Y-92226247D01*
X167290476Y-92226247D02*
X167338095Y-92178628D01*
X167338095Y-92178628D02*
X167385714Y-92083390D01*
X116454819Y-110083333D02*
X117169104Y-110083333D01*
X117169104Y-110083333D02*
X117311961Y-110130952D01*
X117311961Y-110130952D02*
X117407200Y-110226190D01*
X117407200Y-110226190D02*
X117454819Y-110369047D01*
X117454819Y-110369047D02*
X117454819Y-110464285D01*
X116454819Y-109178571D02*
X116454819Y-109369047D01*
X116454819Y-109369047D02*
X116502438Y-109464285D01*
X116502438Y-109464285D02*
X116550057Y-109511904D01*
X116550057Y-109511904D02*
X116692914Y-109607142D01*
X116692914Y-109607142D02*
X116883390Y-109654761D01*
X116883390Y-109654761D02*
X117264342Y-109654761D01*
X117264342Y-109654761D02*
X117359580Y-109607142D01*
X117359580Y-109607142D02*
X117407200Y-109559523D01*
X117407200Y-109559523D02*
X117454819Y-109464285D01*
X117454819Y-109464285D02*
X117454819Y-109273809D01*
X117454819Y-109273809D02*
X117407200Y-109178571D01*
X117407200Y-109178571D02*
X117359580Y-109130952D01*
X117359580Y-109130952D02*
X117264342Y-109083333D01*
X117264342Y-109083333D02*
X117026247Y-109083333D01*
X117026247Y-109083333D02*
X116931009Y-109130952D01*
X116931009Y-109130952D02*
X116883390Y-109178571D01*
X116883390Y-109178571D02*
X116835771Y-109273809D01*
X116835771Y-109273809D02*
X116835771Y-109464285D01*
X116835771Y-109464285D02*
X116883390Y-109559523D01*
X116883390Y-109559523D02*
X116931009Y-109607142D01*
X116931009Y-109607142D02*
X117026247Y-109654761D01*
X155012380Y-118148276D02*
X155012380Y-118666371D01*
X155012380Y-118666371D02*
X155042857Y-118727323D01*
X155042857Y-118727323D02*
X155073333Y-118757800D01*
X155073333Y-118757800D02*
X155134285Y-118788276D01*
X155134285Y-118788276D02*
X155256190Y-118788276D01*
X155256190Y-118788276D02*
X155317142Y-118757800D01*
X155317142Y-118757800D02*
X155347619Y-118727323D01*
X155347619Y-118727323D02*
X155378095Y-118666371D01*
X155378095Y-118666371D02*
X155378095Y-118148276D01*
X155621904Y-118148276D02*
X156018095Y-118148276D01*
X156018095Y-118148276D02*
X155804761Y-118392085D01*
X155804761Y-118392085D02*
X155896190Y-118392085D01*
X155896190Y-118392085D02*
X155957142Y-118422561D01*
X155957142Y-118422561D02*
X155987618Y-118453038D01*
X155987618Y-118453038D02*
X156018095Y-118513990D01*
X156018095Y-118513990D02*
X156018095Y-118666371D01*
X156018095Y-118666371D02*
X155987618Y-118727323D01*
X155987618Y-118727323D02*
X155957142Y-118757800D01*
X155957142Y-118757800D02*
X155896190Y-118788276D01*
X155896190Y-118788276D02*
X155713333Y-118788276D01*
X155713333Y-118788276D02*
X155652380Y-118757800D01*
X155652380Y-118757800D02*
X155621904Y-118727323D01*
X138833333Y-116104819D02*
X138500000Y-115628628D01*
X138261905Y-116104819D02*
X138261905Y-115104819D01*
X138261905Y-115104819D02*
X138642857Y-115104819D01*
X138642857Y-115104819D02*
X138738095Y-115152438D01*
X138738095Y-115152438D02*
X138785714Y-115200057D01*
X138785714Y-115200057D02*
X138833333Y-115295295D01*
X138833333Y-115295295D02*
X138833333Y-115438152D01*
X138833333Y-115438152D02*
X138785714Y-115533390D01*
X138785714Y-115533390D02*
X138738095Y-115581009D01*
X138738095Y-115581009D02*
X138642857Y-115628628D01*
X138642857Y-115628628D02*
X138261905Y-115628628D01*
X139309524Y-116104819D02*
X139500000Y-116104819D01*
X139500000Y-116104819D02*
X139595238Y-116057200D01*
X139595238Y-116057200D02*
X139642857Y-116009580D01*
X139642857Y-116009580D02*
X139738095Y-115866723D01*
X139738095Y-115866723D02*
X139785714Y-115676247D01*
X139785714Y-115676247D02*
X139785714Y-115295295D01*
X139785714Y-115295295D02*
X139738095Y-115200057D01*
X139738095Y-115200057D02*
X139690476Y-115152438D01*
X139690476Y-115152438D02*
X139595238Y-115104819D01*
X139595238Y-115104819D02*
X139404762Y-115104819D01*
X139404762Y-115104819D02*
X139309524Y-115152438D01*
X139309524Y-115152438D02*
X139261905Y-115200057D01*
X139261905Y-115200057D02*
X139214286Y-115295295D01*
X139214286Y-115295295D02*
X139214286Y-115533390D01*
X139214286Y-115533390D02*
X139261905Y-115628628D01*
X139261905Y-115628628D02*
X139309524Y-115676247D01*
X139309524Y-115676247D02*
X139404762Y-115723866D01*
X139404762Y-115723866D02*
X139595238Y-115723866D01*
X139595238Y-115723866D02*
X139690476Y-115676247D01*
X139690476Y-115676247D02*
X139738095Y-115628628D01*
X139738095Y-115628628D02*
X139785714Y-115533390D01*
X135761905Y-120954819D02*
X135761905Y-119954819D01*
X135761905Y-119954819D02*
X136000000Y-119954819D01*
X136000000Y-119954819D02*
X136142857Y-120002438D01*
X136142857Y-120002438D02*
X136238095Y-120097676D01*
X136238095Y-120097676D02*
X136285714Y-120192914D01*
X136285714Y-120192914D02*
X136333333Y-120383390D01*
X136333333Y-120383390D02*
X136333333Y-120526247D01*
X136333333Y-120526247D02*
X136285714Y-120716723D01*
X136285714Y-120716723D02*
X136238095Y-120811961D01*
X136238095Y-120811961D02*
X136142857Y-120907200D01*
X136142857Y-120907200D02*
X136000000Y-120954819D01*
X136000000Y-120954819D02*
X135761905Y-120954819D01*
X137238095Y-119954819D02*
X136761905Y-119954819D01*
X136761905Y-119954819D02*
X136714286Y-120431009D01*
X136714286Y-120431009D02*
X136761905Y-120383390D01*
X136761905Y-120383390D02*
X136857143Y-120335771D01*
X136857143Y-120335771D02*
X137095238Y-120335771D01*
X137095238Y-120335771D02*
X137190476Y-120383390D01*
X137190476Y-120383390D02*
X137238095Y-120431009D01*
X137238095Y-120431009D02*
X137285714Y-120526247D01*
X137285714Y-120526247D02*
X137285714Y-120764342D01*
X137285714Y-120764342D02*
X137238095Y-120859580D01*
X137238095Y-120859580D02*
X137190476Y-120907200D01*
X137190476Y-120907200D02*
X137095238Y-120954819D01*
X137095238Y-120954819D02*
X136857143Y-120954819D01*
X136857143Y-120954819D02*
X136761905Y-120907200D01*
X136761905Y-120907200D02*
X136714286Y-120859580D01*
X154992142Y-106400928D02*
X154944523Y-106448548D01*
X154944523Y-106448548D02*
X154801666Y-106496167D01*
X154801666Y-106496167D02*
X154706428Y-106496167D01*
X154706428Y-106496167D02*
X154563571Y-106448548D01*
X154563571Y-106448548D02*
X154468333Y-106353309D01*
X154468333Y-106353309D02*
X154420714Y-106258071D01*
X154420714Y-106258071D02*
X154373095Y-106067595D01*
X154373095Y-106067595D02*
X154373095Y-105924738D01*
X154373095Y-105924738D02*
X154420714Y-105734262D01*
X154420714Y-105734262D02*
X154468333Y-105639024D01*
X154468333Y-105639024D02*
X154563571Y-105543786D01*
X154563571Y-105543786D02*
X154706428Y-105496167D01*
X154706428Y-105496167D02*
X154801666Y-105496167D01*
X154801666Y-105496167D02*
X154944523Y-105543786D01*
X154944523Y-105543786D02*
X154992142Y-105591405D01*
X155373095Y-105591405D02*
X155420714Y-105543786D01*
X155420714Y-105543786D02*
X155515952Y-105496167D01*
X155515952Y-105496167D02*
X155754047Y-105496167D01*
X155754047Y-105496167D02*
X155849285Y-105543786D01*
X155849285Y-105543786D02*
X155896904Y-105591405D01*
X155896904Y-105591405D02*
X155944523Y-105686643D01*
X155944523Y-105686643D02*
X155944523Y-105781881D01*
X155944523Y-105781881D02*
X155896904Y-105924738D01*
X155896904Y-105924738D02*
X155325476Y-106496167D01*
X155325476Y-106496167D02*
X155944523Y-106496167D01*
X156277857Y-105496167D02*
X156896904Y-105496167D01*
X156896904Y-105496167D02*
X156563571Y-105877119D01*
X156563571Y-105877119D02*
X156706428Y-105877119D01*
X156706428Y-105877119D02*
X156801666Y-105924738D01*
X156801666Y-105924738D02*
X156849285Y-105972357D01*
X156849285Y-105972357D02*
X156896904Y-106067595D01*
X156896904Y-106067595D02*
X156896904Y-106305690D01*
X156896904Y-106305690D02*
X156849285Y-106400928D01*
X156849285Y-106400928D02*
X156801666Y-106448548D01*
X156801666Y-106448548D02*
X156706428Y-106496167D01*
X156706428Y-106496167D02*
X156420714Y-106496167D01*
X156420714Y-106496167D02*
X156325476Y-106448548D01*
X156325476Y-106448548D02*
X156277857Y-106400928D01*
X179433333Y-90054819D02*
X179100000Y-89578628D01*
X178861905Y-90054819D02*
X178861905Y-89054819D01*
X178861905Y-89054819D02*
X179242857Y-89054819D01*
X179242857Y-89054819D02*
X179338095Y-89102438D01*
X179338095Y-89102438D02*
X179385714Y-89150057D01*
X179385714Y-89150057D02*
X179433333Y-89245295D01*
X179433333Y-89245295D02*
X179433333Y-89388152D01*
X179433333Y-89388152D02*
X179385714Y-89483390D01*
X179385714Y-89483390D02*
X179338095Y-89531009D01*
X179338095Y-89531009D02*
X179242857Y-89578628D01*
X179242857Y-89578628D02*
X178861905Y-89578628D01*
X180338095Y-89054819D02*
X179861905Y-89054819D01*
X179861905Y-89054819D02*
X179814286Y-89531009D01*
X179814286Y-89531009D02*
X179861905Y-89483390D01*
X179861905Y-89483390D02*
X179957143Y-89435771D01*
X179957143Y-89435771D02*
X180195238Y-89435771D01*
X180195238Y-89435771D02*
X180290476Y-89483390D01*
X180290476Y-89483390D02*
X180338095Y-89531009D01*
X180338095Y-89531009D02*
X180385714Y-89626247D01*
X180385714Y-89626247D02*
X180385714Y-89864342D01*
X180385714Y-89864342D02*
X180338095Y-89959580D01*
X180338095Y-89959580D02*
X180290476Y-90007200D01*
X180290476Y-90007200D02*
X180195238Y-90054819D01*
X180195238Y-90054819D02*
X179957143Y-90054819D01*
X179957143Y-90054819D02*
X179861905Y-90007200D01*
X179861905Y-90007200D02*
X179814286Y-89959580D01*
X172666666Y-87454819D02*
X172666666Y-88169104D01*
X172666666Y-88169104D02*
X172619047Y-88311961D01*
X172619047Y-88311961D02*
X172523809Y-88407200D01*
X172523809Y-88407200D02*
X172380952Y-88454819D01*
X172380952Y-88454819D02*
X172285714Y-88454819D01*
X173666666Y-88454819D02*
X173095238Y-88454819D01*
X173380952Y-88454819D02*
X173380952Y-87454819D01*
X173380952Y-87454819D02*
X173285714Y-87597676D01*
X173285714Y-87597676D02*
X173190476Y-87692914D01*
X173190476Y-87692914D02*
X173095238Y-87740533D01*
X144757142Y-95359580D02*
X144709523Y-95407200D01*
X144709523Y-95407200D02*
X144566666Y-95454819D01*
X144566666Y-95454819D02*
X144471428Y-95454819D01*
X144471428Y-95454819D02*
X144328571Y-95407200D01*
X144328571Y-95407200D02*
X144233333Y-95311961D01*
X144233333Y-95311961D02*
X144185714Y-95216723D01*
X144185714Y-95216723D02*
X144138095Y-95026247D01*
X144138095Y-95026247D02*
X144138095Y-94883390D01*
X144138095Y-94883390D02*
X144185714Y-94692914D01*
X144185714Y-94692914D02*
X144233333Y-94597676D01*
X144233333Y-94597676D02*
X144328571Y-94502438D01*
X144328571Y-94502438D02*
X144471428Y-94454819D01*
X144471428Y-94454819D02*
X144566666Y-94454819D01*
X144566666Y-94454819D02*
X144709523Y-94502438D01*
X144709523Y-94502438D02*
X144757142Y-94550057D01*
X145709523Y-95454819D02*
X145138095Y-95454819D01*
X145423809Y-95454819D02*
X145423809Y-94454819D01*
X145423809Y-94454819D02*
X145328571Y-94597676D01*
X145328571Y-94597676D02*
X145233333Y-94692914D01*
X145233333Y-94692914D02*
X145138095Y-94740533D01*
X146042857Y-94454819D02*
X146661904Y-94454819D01*
X146661904Y-94454819D02*
X146328571Y-94835771D01*
X146328571Y-94835771D02*
X146471428Y-94835771D01*
X146471428Y-94835771D02*
X146566666Y-94883390D01*
X146566666Y-94883390D02*
X146614285Y-94931009D01*
X146614285Y-94931009D02*
X146661904Y-95026247D01*
X146661904Y-95026247D02*
X146661904Y-95264342D01*
X146661904Y-95264342D02*
X146614285Y-95359580D01*
X146614285Y-95359580D02*
X146566666Y-95407200D01*
X146566666Y-95407200D02*
X146471428Y-95454819D01*
X146471428Y-95454819D02*
X146185714Y-95454819D01*
X146185714Y-95454819D02*
X146090476Y-95407200D01*
X146090476Y-95407200D02*
X146042857Y-95359580D01*
X132033333Y-95959580D02*
X131985714Y-96007200D01*
X131985714Y-96007200D02*
X131842857Y-96054819D01*
X131842857Y-96054819D02*
X131747619Y-96054819D01*
X131747619Y-96054819D02*
X131604762Y-96007200D01*
X131604762Y-96007200D02*
X131509524Y-95911961D01*
X131509524Y-95911961D02*
X131461905Y-95816723D01*
X131461905Y-95816723D02*
X131414286Y-95626247D01*
X131414286Y-95626247D02*
X131414286Y-95483390D01*
X131414286Y-95483390D02*
X131461905Y-95292914D01*
X131461905Y-95292914D02*
X131509524Y-95197676D01*
X131509524Y-95197676D02*
X131604762Y-95102438D01*
X131604762Y-95102438D02*
X131747619Y-95054819D01*
X131747619Y-95054819D02*
X131842857Y-95054819D01*
X131842857Y-95054819D02*
X131985714Y-95102438D01*
X131985714Y-95102438D02*
X132033333Y-95150057D01*
X132890476Y-95054819D02*
X132700000Y-95054819D01*
X132700000Y-95054819D02*
X132604762Y-95102438D01*
X132604762Y-95102438D02*
X132557143Y-95150057D01*
X132557143Y-95150057D02*
X132461905Y-95292914D01*
X132461905Y-95292914D02*
X132414286Y-95483390D01*
X132414286Y-95483390D02*
X132414286Y-95864342D01*
X132414286Y-95864342D02*
X132461905Y-95959580D01*
X132461905Y-95959580D02*
X132509524Y-96007200D01*
X132509524Y-96007200D02*
X132604762Y-96054819D01*
X132604762Y-96054819D02*
X132795238Y-96054819D01*
X132795238Y-96054819D02*
X132890476Y-96007200D01*
X132890476Y-96007200D02*
X132938095Y-95959580D01*
X132938095Y-95959580D02*
X132985714Y-95864342D01*
X132985714Y-95864342D02*
X132985714Y-95626247D01*
X132985714Y-95626247D02*
X132938095Y-95531009D01*
X132938095Y-95531009D02*
X132890476Y-95483390D01*
X132890476Y-95483390D02*
X132795238Y-95435771D01*
X132795238Y-95435771D02*
X132604762Y-95435771D01*
X132604762Y-95435771D02*
X132509524Y-95483390D01*
X132509524Y-95483390D02*
X132461905Y-95531009D01*
X132461905Y-95531009D02*
X132414286Y-95626247D01*
X149379366Y-112450000D02*
X149412700Y-112483333D01*
X149412700Y-112483333D02*
X149446033Y-112583333D01*
X149446033Y-112583333D02*
X149446033Y-112650000D01*
X149446033Y-112650000D02*
X149412700Y-112750000D01*
X149412700Y-112750000D02*
X149346033Y-112816667D01*
X149346033Y-112816667D02*
X149279366Y-112850000D01*
X149279366Y-112850000D02*
X149146033Y-112883333D01*
X149146033Y-112883333D02*
X149046033Y-112883333D01*
X149046033Y-112883333D02*
X148912700Y-112850000D01*
X148912700Y-112850000D02*
X148846033Y-112816667D01*
X148846033Y-112816667D02*
X148779366Y-112750000D01*
X148779366Y-112750000D02*
X148746033Y-112650000D01*
X148746033Y-112650000D02*
X148746033Y-112583333D01*
X148746033Y-112583333D02*
X148779366Y-112483333D01*
X148779366Y-112483333D02*
X148812700Y-112450000D01*
X149446033Y-111783333D02*
X149446033Y-112183333D01*
X149446033Y-111983333D02*
X148746033Y-111983333D01*
X148746033Y-111983333D02*
X148846033Y-112050000D01*
X148846033Y-112050000D02*
X148912700Y-112116667D01*
X148912700Y-112116667D02*
X148946033Y-112183333D01*
X148812700Y-111516666D02*
X148779366Y-111483333D01*
X148779366Y-111483333D02*
X148746033Y-111416666D01*
X148746033Y-111416666D02*
X148746033Y-111250000D01*
X148746033Y-111250000D02*
X148779366Y-111183333D01*
X148779366Y-111183333D02*
X148812700Y-111150000D01*
X148812700Y-111150000D02*
X148879366Y-111116666D01*
X148879366Y-111116666D02*
X148946033Y-111116666D01*
X148946033Y-111116666D02*
X149046033Y-111150000D01*
X149046033Y-111150000D02*
X149446033Y-111550000D01*
X149446033Y-111550000D02*
X149446033Y-111116666D01*
X172666666Y-114454819D02*
X172666666Y-115169104D01*
X172666666Y-115169104D02*
X172619047Y-115311961D01*
X172619047Y-115311961D02*
X172523809Y-115407200D01*
X172523809Y-115407200D02*
X172380952Y-115454819D01*
X172380952Y-115454819D02*
X172285714Y-115454819D01*
X173190476Y-115454819D02*
X173380952Y-115454819D01*
X173380952Y-115454819D02*
X173476190Y-115407200D01*
X173476190Y-115407200D02*
X173523809Y-115359580D01*
X173523809Y-115359580D02*
X173619047Y-115216723D01*
X173619047Y-115216723D02*
X173666666Y-115026247D01*
X173666666Y-115026247D02*
X173666666Y-114645295D01*
X173666666Y-114645295D02*
X173619047Y-114550057D01*
X173619047Y-114550057D02*
X173571428Y-114502438D01*
X173571428Y-114502438D02*
X173476190Y-114454819D01*
X173476190Y-114454819D02*
X173285714Y-114454819D01*
X173285714Y-114454819D02*
X173190476Y-114502438D01*
X173190476Y-114502438D02*
X173142857Y-114550057D01*
X173142857Y-114550057D02*
X173095238Y-114645295D01*
X173095238Y-114645295D02*
X173095238Y-114883390D01*
X173095238Y-114883390D02*
X173142857Y-114978628D01*
X173142857Y-114978628D02*
X173190476Y-115026247D01*
X173190476Y-115026247D02*
X173285714Y-115073866D01*
X173285714Y-115073866D02*
X173476190Y-115073866D01*
X173476190Y-115073866D02*
X173571428Y-115026247D01*
X173571428Y-115026247D02*
X173619047Y-114978628D01*
X173619047Y-114978628D02*
X173666666Y-114883390D01*
X162877976Y-104779819D02*
X163211309Y-105779819D01*
X163211309Y-105779819D02*
X163544642Y-104779819D01*
X164449404Y-105779819D02*
X164116071Y-105303628D01*
X163877976Y-105779819D02*
X163877976Y-104779819D01*
X163877976Y-104779819D02*
X164258928Y-104779819D01*
X164258928Y-104779819D02*
X164354166Y-104827438D01*
X164354166Y-104827438D02*
X164401785Y-104875057D01*
X164401785Y-104875057D02*
X164449404Y-104970295D01*
X164449404Y-104970295D02*
X164449404Y-105113152D01*
X164449404Y-105113152D02*
X164401785Y-105208390D01*
X164401785Y-105208390D02*
X164354166Y-105256009D01*
X164354166Y-105256009D02*
X164258928Y-105303628D01*
X164258928Y-105303628D02*
X163877976Y-105303628D01*
X165401785Y-105779819D02*
X164830357Y-105779819D01*
X165116071Y-105779819D02*
X165116071Y-104779819D01*
X165116071Y-104779819D02*
X165020833Y-104922676D01*
X165020833Y-104922676D02*
X164925595Y-105017914D01*
X164925595Y-105017914D02*
X164830357Y-105065533D01*
X143738095Y-103454819D02*
X143738095Y-104264342D01*
X143738095Y-104264342D02*
X143785714Y-104359580D01*
X143785714Y-104359580D02*
X143833333Y-104407200D01*
X143833333Y-104407200D02*
X143928571Y-104454819D01*
X143928571Y-104454819D02*
X144119047Y-104454819D01*
X144119047Y-104454819D02*
X144214285Y-104407200D01*
X144214285Y-104407200D02*
X144261904Y-104359580D01*
X144261904Y-104359580D02*
X144309523Y-104264342D01*
X144309523Y-104264342D02*
X144309523Y-103454819D01*
X145309523Y-104454819D02*
X144738095Y-104454819D01*
X145023809Y-104454819D02*
X145023809Y-103454819D01*
X145023809Y-103454819D02*
X144928571Y-103597676D01*
X144928571Y-103597676D02*
X144833333Y-103692914D01*
X144833333Y-103692914D02*
X144738095Y-103740533D01*
X166261905Y-120184819D02*
X166261905Y-119184819D01*
X166261905Y-119184819D02*
X166500000Y-119184819D01*
X166500000Y-119184819D02*
X166642857Y-119232438D01*
X166642857Y-119232438D02*
X166738095Y-119327676D01*
X166738095Y-119327676D02*
X166785714Y-119422914D01*
X166785714Y-119422914D02*
X166833333Y-119613390D01*
X166833333Y-119613390D02*
X166833333Y-119756247D01*
X166833333Y-119756247D02*
X166785714Y-119946723D01*
X166785714Y-119946723D02*
X166738095Y-120041961D01*
X166738095Y-120041961D02*
X166642857Y-120137200D01*
X166642857Y-120137200D02*
X166500000Y-120184819D01*
X166500000Y-120184819D02*
X166261905Y-120184819D01*
X167166667Y-119184819D02*
X167833333Y-119184819D01*
X167833333Y-119184819D02*
X167404762Y-120184819D01*
X163499999Y-115449366D02*
X163466666Y-115482700D01*
X163466666Y-115482700D02*
X163366666Y-115516033D01*
X163366666Y-115516033D02*
X163299999Y-115516033D01*
X163299999Y-115516033D02*
X163199999Y-115482700D01*
X163199999Y-115482700D02*
X163133333Y-115416033D01*
X163133333Y-115416033D02*
X163099999Y-115349366D01*
X163099999Y-115349366D02*
X163066666Y-115216033D01*
X163066666Y-115216033D02*
X163066666Y-115116033D01*
X163066666Y-115116033D02*
X163099999Y-114982700D01*
X163099999Y-114982700D02*
X163133333Y-114916033D01*
X163133333Y-114916033D02*
X163199999Y-114849366D01*
X163199999Y-114849366D02*
X163299999Y-114816033D01*
X163299999Y-114816033D02*
X163366666Y-114816033D01*
X163366666Y-114816033D02*
X163466666Y-114849366D01*
X163466666Y-114849366D02*
X163499999Y-114882700D01*
X164166666Y-115516033D02*
X163766666Y-115516033D01*
X163966666Y-115516033D02*
X163966666Y-114816033D01*
X163966666Y-114816033D02*
X163899999Y-114916033D01*
X163899999Y-114916033D02*
X163833333Y-114982700D01*
X163833333Y-114982700D02*
X163766666Y-115016033D01*
X164500000Y-115516033D02*
X164633333Y-115516033D01*
X164633333Y-115516033D02*
X164700000Y-115482700D01*
X164700000Y-115482700D02*
X164733333Y-115449366D01*
X164733333Y-115449366D02*
X164800000Y-115349366D01*
X164800000Y-115349366D02*
X164833333Y-115216033D01*
X164833333Y-115216033D02*
X164833333Y-114949366D01*
X164833333Y-114949366D02*
X164800000Y-114882700D01*
X164800000Y-114882700D02*
X164766666Y-114849366D01*
X164766666Y-114849366D02*
X164700000Y-114816033D01*
X164700000Y-114816033D02*
X164566666Y-114816033D01*
X164566666Y-114816033D02*
X164500000Y-114849366D01*
X164500000Y-114849366D02*
X164466666Y-114882700D01*
X164466666Y-114882700D02*
X164433333Y-114949366D01*
X164433333Y-114949366D02*
X164433333Y-115116033D01*
X164433333Y-115116033D02*
X164466666Y-115182700D01*
X164466666Y-115182700D02*
X164500000Y-115216033D01*
X164500000Y-115216033D02*
X164566666Y-115249366D01*
X164566666Y-115249366D02*
X164700000Y-115249366D01*
X164700000Y-115249366D02*
X164766666Y-115216033D01*
X164766666Y-115216033D02*
X164800000Y-115182700D01*
X164800000Y-115182700D02*
X164833333Y-115116033D01*
X148757142Y-116559580D02*
X148709523Y-116607200D01*
X148709523Y-116607200D02*
X148566666Y-116654819D01*
X148566666Y-116654819D02*
X148471428Y-116654819D01*
X148471428Y-116654819D02*
X148328571Y-116607200D01*
X148328571Y-116607200D02*
X148233333Y-116511961D01*
X148233333Y-116511961D02*
X148185714Y-116416723D01*
X148185714Y-116416723D02*
X148138095Y-116226247D01*
X148138095Y-116226247D02*
X148138095Y-116083390D01*
X148138095Y-116083390D02*
X148185714Y-115892914D01*
X148185714Y-115892914D02*
X148233333Y-115797676D01*
X148233333Y-115797676D02*
X148328571Y-115702438D01*
X148328571Y-115702438D02*
X148471428Y-115654819D01*
X148471428Y-115654819D02*
X148566666Y-115654819D01*
X148566666Y-115654819D02*
X148709523Y-115702438D01*
X148709523Y-115702438D02*
X148757142Y-115750057D01*
X149138095Y-115750057D02*
X149185714Y-115702438D01*
X149185714Y-115702438D02*
X149280952Y-115654819D01*
X149280952Y-115654819D02*
X149519047Y-115654819D01*
X149519047Y-115654819D02*
X149614285Y-115702438D01*
X149614285Y-115702438D02*
X149661904Y-115750057D01*
X149661904Y-115750057D02*
X149709523Y-115845295D01*
X149709523Y-115845295D02*
X149709523Y-115940533D01*
X149709523Y-115940533D02*
X149661904Y-116083390D01*
X149661904Y-116083390D02*
X149090476Y-116654819D01*
X149090476Y-116654819D02*
X149709523Y-116654819D01*
X150090476Y-115750057D02*
X150138095Y-115702438D01*
X150138095Y-115702438D02*
X150233333Y-115654819D01*
X150233333Y-115654819D02*
X150471428Y-115654819D01*
X150471428Y-115654819D02*
X150566666Y-115702438D01*
X150566666Y-115702438D02*
X150614285Y-115750057D01*
X150614285Y-115750057D02*
X150661904Y-115845295D01*
X150661904Y-115845295D02*
X150661904Y-115940533D01*
X150661904Y-115940533D02*
X150614285Y-116083390D01*
X150614285Y-116083390D02*
X150042857Y-116654819D01*
X150042857Y-116654819D02*
X150661904Y-116654819D01*
X134123809Y-107178628D02*
X134123809Y-107654819D01*
X133790476Y-106654819D02*
X134123809Y-107178628D01*
X134123809Y-107178628D02*
X134457142Y-106654819D01*
X135314285Y-107654819D02*
X134742857Y-107654819D01*
X135028571Y-107654819D02*
X135028571Y-106654819D01*
X135028571Y-106654819D02*
X134933333Y-106797676D01*
X134933333Y-106797676D02*
X134838095Y-106892914D01*
X134838095Y-106892914D02*
X134742857Y-106940533D01*
X169433333Y-95559580D02*
X169385714Y-95607200D01*
X169385714Y-95607200D02*
X169242857Y-95654819D01*
X169242857Y-95654819D02*
X169147619Y-95654819D01*
X169147619Y-95654819D02*
X169004762Y-95607200D01*
X169004762Y-95607200D02*
X168909524Y-95511961D01*
X168909524Y-95511961D02*
X168861905Y-95416723D01*
X168861905Y-95416723D02*
X168814286Y-95226247D01*
X168814286Y-95226247D02*
X168814286Y-95083390D01*
X168814286Y-95083390D02*
X168861905Y-94892914D01*
X168861905Y-94892914D02*
X168909524Y-94797676D01*
X168909524Y-94797676D02*
X169004762Y-94702438D01*
X169004762Y-94702438D02*
X169147619Y-94654819D01*
X169147619Y-94654819D02*
X169242857Y-94654819D01*
X169242857Y-94654819D02*
X169385714Y-94702438D01*
X169385714Y-94702438D02*
X169433333Y-94750057D01*
X170004762Y-95083390D02*
X169909524Y-95035771D01*
X169909524Y-95035771D02*
X169861905Y-94988152D01*
X169861905Y-94988152D02*
X169814286Y-94892914D01*
X169814286Y-94892914D02*
X169814286Y-94845295D01*
X169814286Y-94845295D02*
X169861905Y-94750057D01*
X169861905Y-94750057D02*
X169909524Y-94702438D01*
X169909524Y-94702438D02*
X170004762Y-94654819D01*
X170004762Y-94654819D02*
X170195238Y-94654819D01*
X170195238Y-94654819D02*
X170290476Y-94702438D01*
X170290476Y-94702438D02*
X170338095Y-94750057D01*
X170338095Y-94750057D02*
X170385714Y-94845295D01*
X170385714Y-94845295D02*
X170385714Y-94892914D01*
X170385714Y-94892914D02*
X170338095Y-94988152D01*
X170338095Y-94988152D02*
X170290476Y-95035771D01*
X170290476Y-95035771D02*
X170195238Y-95083390D01*
X170195238Y-95083390D02*
X170004762Y-95083390D01*
X170004762Y-95083390D02*
X169909524Y-95131009D01*
X169909524Y-95131009D02*
X169861905Y-95178628D01*
X169861905Y-95178628D02*
X169814286Y-95273866D01*
X169814286Y-95273866D02*
X169814286Y-95464342D01*
X169814286Y-95464342D02*
X169861905Y-95559580D01*
X169861905Y-95559580D02*
X169909524Y-95607200D01*
X169909524Y-95607200D02*
X170004762Y-95654819D01*
X170004762Y-95654819D02*
X170195238Y-95654819D01*
X170195238Y-95654819D02*
X170290476Y-95607200D01*
X170290476Y-95607200D02*
X170338095Y-95559580D01*
X170338095Y-95559580D02*
X170385714Y-95464342D01*
X170385714Y-95464342D02*
X170385714Y-95273866D01*
X170385714Y-95273866D02*
X170338095Y-95178628D01*
X170338095Y-95178628D02*
X170290476Y-95131009D01*
X170290476Y-95131009D02*
X170195238Y-95083390D01*
X179333333Y-114054819D02*
X179000000Y-113578628D01*
X178761905Y-114054819D02*
X178761905Y-113054819D01*
X178761905Y-113054819D02*
X179142857Y-113054819D01*
X179142857Y-113054819D02*
X179238095Y-113102438D01*
X179238095Y-113102438D02*
X179285714Y-113150057D01*
X179285714Y-113150057D02*
X179333333Y-113245295D01*
X179333333Y-113245295D02*
X179333333Y-113388152D01*
X179333333Y-113388152D02*
X179285714Y-113483390D01*
X179285714Y-113483390D02*
X179238095Y-113531009D01*
X179238095Y-113531009D02*
X179142857Y-113578628D01*
X179142857Y-113578628D02*
X178761905Y-113578628D01*
X179666667Y-113054819D02*
X180333333Y-113054819D01*
X180333333Y-113054819D02*
X179904762Y-114054819D01*
X158454819Y-101566666D02*
X157978628Y-101899999D01*
X158454819Y-102138094D02*
X157454819Y-102138094D01*
X157454819Y-102138094D02*
X157454819Y-101757142D01*
X157454819Y-101757142D02*
X157502438Y-101661904D01*
X157502438Y-101661904D02*
X157550057Y-101614285D01*
X157550057Y-101614285D02*
X157645295Y-101566666D01*
X157645295Y-101566666D02*
X157788152Y-101566666D01*
X157788152Y-101566666D02*
X157883390Y-101614285D01*
X157883390Y-101614285D02*
X157931009Y-101661904D01*
X157931009Y-101661904D02*
X157978628Y-101757142D01*
X157978628Y-101757142D02*
X157978628Y-102138094D01*
X157788152Y-100709523D02*
X158454819Y-100709523D01*
X157407200Y-100947618D02*
X158121485Y-101185713D01*
X158121485Y-101185713D02*
X158121485Y-100566666D01*
X127431009Y-115880952D02*
X127478628Y-115738095D01*
X127478628Y-115738095D02*
X127526247Y-115690476D01*
X127526247Y-115690476D02*
X127621485Y-115642857D01*
X127621485Y-115642857D02*
X127764342Y-115642857D01*
X127764342Y-115642857D02*
X127859580Y-115690476D01*
X127859580Y-115690476D02*
X127907200Y-115738095D01*
X127907200Y-115738095D02*
X127954819Y-115833333D01*
X127954819Y-115833333D02*
X127954819Y-116214285D01*
X127954819Y-116214285D02*
X126954819Y-116214285D01*
X126954819Y-116214285D02*
X126954819Y-115880952D01*
X126954819Y-115880952D02*
X127002438Y-115785714D01*
X127002438Y-115785714D02*
X127050057Y-115738095D01*
X127050057Y-115738095D02*
X127145295Y-115690476D01*
X127145295Y-115690476D02*
X127240533Y-115690476D01*
X127240533Y-115690476D02*
X127335771Y-115738095D01*
X127335771Y-115738095D02*
X127383390Y-115785714D01*
X127383390Y-115785714D02*
X127431009Y-115880952D01*
X127431009Y-115880952D02*
X127431009Y-116214285D01*
X126954819Y-115309523D02*
X126954819Y-114642857D01*
X126954819Y-114642857D02*
X127954819Y-115309523D01*
X127954819Y-115309523D02*
X127954819Y-114642857D01*
X127954819Y-113738095D02*
X127954819Y-114309523D01*
X127954819Y-114023809D02*
X126954819Y-114023809D01*
X126954819Y-114023809D02*
X127097676Y-114119047D01*
X127097676Y-114119047D02*
X127192914Y-114214285D01*
X127192914Y-114214285D02*
X127240533Y-114309523D01*
X172784405Y-98954819D02*
X172784405Y-97954819D01*
X172784405Y-97954819D02*
X173022500Y-97954819D01*
X173022500Y-97954819D02*
X173165357Y-98002438D01*
X173165357Y-98002438D02*
X173260595Y-98097676D01*
X173260595Y-98097676D02*
X173308214Y-98192914D01*
X173308214Y-98192914D02*
X173355833Y-98383390D01*
X173355833Y-98383390D02*
X173355833Y-98526247D01*
X173355833Y-98526247D02*
X173308214Y-98716723D01*
X173308214Y-98716723D02*
X173260595Y-98811961D01*
X173260595Y-98811961D02*
X173165357Y-98907200D01*
X173165357Y-98907200D02*
X173022500Y-98954819D01*
X173022500Y-98954819D02*
X172784405Y-98954819D01*
X173736786Y-98050057D02*
X173784405Y-98002438D01*
X173784405Y-98002438D02*
X173879643Y-97954819D01*
X173879643Y-97954819D02*
X174117738Y-97954819D01*
X174117738Y-97954819D02*
X174212976Y-98002438D01*
X174212976Y-98002438D02*
X174260595Y-98050057D01*
X174260595Y-98050057D02*
X174308214Y-98145295D01*
X174308214Y-98145295D02*
X174308214Y-98240533D01*
X174308214Y-98240533D02*
X174260595Y-98383390D01*
X174260595Y-98383390D02*
X173689167Y-98954819D01*
X173689167Y-98954819D02*
X174308214Y-98954819D01*
X139033333Y-110854819D02*
X138700000Y-110378628D01*
X138461905Y-110854819D02*
X138461905Y-109854819D01*
X138461905Y-109854819D02*
X138842857Y-109854819D01*
X138842857Y-109854819D02*
X138938095Y-109902438D01*
X138938095Y-109902438D02*
X138985714Y-109950057D01*
X138985714Y-109950057D02*
X139033333Y-110045295D01*
X139033333Y-110045295D02*
X139033333Y-110188152D01*
X139033333Y-110188152D02*
X138985714Y-110283390D01*
X138985714Y-110283390D02*
X138938095Y-110331009D01*
X138938095Y-110331009D02*
X138842857Y-110378628D01*
X138842857Y-110378628D02*
X138461905Y-110378628D01*
X139604762Y-110283390D02*
X139509524Y-110235771D01*
X139509524Y-110235771D02*
X139461905Y-110188152D01*
X139461905Y-110188152D02*
X139414286Y-110092914D01*
X139414286Y-110092914D02*
X139414286Y-110045295D01*
X139414286Y-110045295D02*
X139461905Y-109950057D01*
X139461905Y-109950057D02*
X139509524Y-109902438D01*
X139509524Y-109902438D02*
X139604762Y-109854819D01*
X139604762Y-109854819D02*
X139795238Y-109854819D01*
X139795238Y-109854819D02*
X139890476Y-109902438D01*
X139890476Y-109902438D02*
X139938095Y-109950057D01*
X139938095Y-109950057D02*
X139985714Y-110045295D01*
X139985714Y-110045295D02*
X139985714Y-110092914D01*
X139985714Y-110092914D02*
X139938095Y-110188152D01*
X139938095Y-110188152D02*
X139890476Y-110235771D01*
X139890476Y-110235771D02*
X139795238Y-110283390D01*
X139795238Y-110283390D02*
X139604762Y-110283390D01*
X139604762Y-110283390D02*
X139509524Y-110331009D01*
X139509524Y-110331009D02*
X139461905Y-110378628D01*
X139461905Y-110378628D02*
X139414286Y-110473866D01*
X139414286Y-110473866D02*
X139414286Y-110664342D01*
X139414286Y-110664342D02*
X139461905Y-110759580D01*
X139461905Y-110759580D02*
X139509524Y-110807200D01*
X139509524Y-110807200D02*
X139604762Y-110854819D01*
X139604762Y-110854819D02*
X139795238Y-110854819D01*
X139795238Y-110854819D02*
X139890476Y-110807200D01*
X139890476Y-110807200D02*
X139938095Y-110759580D01*
X139938095Y-110759580D02*
X139985714Y-110664342D01*
X139985714Y-110664342D02*
X139985714Y-110473866D01*
X139985714Y-110473866D02*
X139938095Y-110378628D01*
X139938095Y-110378628D02*
X139890476Y-110331009D01*
X139890476Y-110331009D02*
X139795238Y-110283390D01*
X149446033Y-114460000D02*
X149112700Y-114693333D01*
X149446033Y-114860000D02*
X148746033Y-114860000D01*
X148746033Y-114860000D02*
X148746033Y-114593333D01*
X148746033Y-114593333D02*
X148779366Y-114526667D01*
X148779366Y-114526667D02*
X148812700Y-114493333D01*
X148812700Y-114493333D02*
X148879366Y-114460000D01*
X148879366Y-114460000D02*
X148979366Y-114460000D01*
X148979366Y-114460000D02*
X149046033Y-114493333D01*
X149046033Y-114493333D02*
X149079366Y-114526667D01*
X149079366Y-114526667D02*
X149112700Y-114593333D01*
X149112700Y-114593333D02*
X149112700Y-114860000D01*
X149446033Y-113793333D02*
X149446033Y-114193333D01*
X149446033Y-113993333D02*
X148746033Y-113993333D01*
X148746033Y-113993333D02*
X148846033Y-114060000D01*
X148846033Y-114060000D02*
X148912700Y-114126667D01*
X148912700Y-114126667D02*
X148946033Y-114193333D01*
X149446033Y-113126666D02*
X149446033Y-113526666D01*
X149446033Y-113326666D02*
X148746033Y-113326666D01*
X148746033Y-113326666D02*
X148846033Y-113393333D01*
X148846033Y-113393333D02*
X148912700Y-113460000D01*
X148912700Y-113460000D02*
X148946033Y-113526666D01*
X127557142Y-106359580D02*
X127509523Y-106407200D01*
X127509523Y-106407200D02*
X127366666Y-106454819D01*
X127366666Y-106454819D02*
X127271428Y-106454819D01*
X127271428Y-106454819D02*
X127128571Y-106407200D01*
X127128571Y-106407200D02*
X127033333Y-106311961D01*
X127033333Y-106311961D02*
X126985714Y-106216723D01*
X126985714Y-106216723D02*
X126938095Y-106026247D01*
X126938095Y-106026247D02*
X126938095Y-105883390D01*
X126938095Y-105883390D02*
X126985714Y-105692914D01*
X126985714Y-105692914D02*
X127033333Y-105597676D01*
X127033333Y-105597676D02*
X127128571Y-105502438D01*
X127128571Y-105502438D02*
X127271428Y-105454819D01*
X127271428Y-105454819D02*
X127366666Y-105454819D01*
X127366666Y-105454819D02*
X127509523Y-105502438D01*
X127509523Y-105502438D02*
X127557142Y-105550057D01*
X128509523Y-106454819D02*
X127938095Y-106454819D01*
X128223809Y-106454819D02*
X128223809Y-105454819D01*
X128223809Y-105454819D02*
X128128571Y-105597676D01*
X128128571Y-105597676D02*
X128033333Y-105692914D01*
X128033333Y-105692914D02*
X127938095Y-105740533D01*
X129461904Y-106454819D02*
X128890476Y-106454819D01*
X129176190Y-106454819D02*
X129176190Y-105454819D01*
X129176190Y-105454819D02*
X129080952Y-105597676D01*
X129080952Y-105597676D02*
X128985714Y-105692914D01*
X128985714Y-105692914D02*
X128890476Y-105740533D01*
X143661666Y-82534819D02*
X143661666Y-83249104D01*
X143661666Y-83249104D02*
X143614047Y-83391961D01*
X143614047Y-83391961D02*
X143518809Y-83487200D01*
X143518809Y-83487200D02*
X143375952Y-83534819D01*
X143375952Y-83534819D02*
X143280714Y-83534819D01*
X144566428Y-82868152D02*
X144566428Y-83534819D01*
X144328333Y-82487200D02*
X144090238Y-83201485D01*
X144090238Y-83201485D02*
X144709285Y-83201485D01*
X128666667Y-91907200D02*
X128809524Y-91954819D01*
X128809524Y-91954819D02*
X129047619Y-91954819D01*
X129047619Y-91954819D02*
X129142857Y-91907200D01*
X129142857Y-91907200D02*
X129190476Y-91859580D01*
X129190476Y-91859580D02*
X129238095Y-91764342D01*
X129238095Y-91764342D02*
X129238095Y-91669104D01*
X129238095Y-91669104D02*
X129190476Y-91573866D01*
X129190476Y-91573866D02*
X129142857Y-91526247D01*
X129142857Y-91526247D02*
X129047619Y-91478628D01*
X129047619Y-91478628D02*
X128857143Y-91431009D01*
X128857143Y-91431009D02*
X128761905Y-91383390D01*
X128761905Y-91383390D02*
X128714286Y-91335771D01*
X128714286Y-91335771D02*
X128666667Y-91240533D01*
X128666667Y-91240533D02*
X128666667Y-91145295D01*
X128666667Y-91145295D02*
X128714286Y-91050057D01*
X128714286Y-91050057D02*
X128761905Y-91002438D01*
X128761905Y-91002438D02*
X128857143Y-90954819D01*
X128857143Y-90954819D02*
X129095238Y-90954819D01*
X129095238Y-90954819D02*
X129238095Y-91002438D01*
X129571429Y-90954819D02*
X129809524Y-91954819D01*
X129809524Y-91954819D02*
X130000000Y-91240533D01*
X130000000Y-91240533D02*
X130190476Y-91954819D01*
X130190476Y-91954819D02*
X130428572Y-90954819D01*
X130761905Y-91050057D02*
X130809524Y-91002438D01*
X130809524Y-91002438D02*
X130904762Y-90954819D01*
X130904762Y-90954819D02*
X131142857Y-90954819D01*
X131142857Y-90954819D02*
X131238095Y-91002438D01*
X131238095Y-91002438D02*
X131285714Y-91050057D01*
X131285714Y-91050057D02*
X131333333Y-91145295D01*
X131333333Y-91145295D02*
X131333333Y-91240533D01*
X131333333Y-91240533D02*
X131285714Y-91383390D01*
X131285714Y-91383390D02*
X130714286Y-91954819D01*
X130714286Y-91954819D02*
X131333333Y-91954819D01*
X154873095Y-112176167D02*
X154873095Y-112985690D01*
X154873095Y-112985690D02*
X154920714Y-113080928D01*
X154920714Y-113080928D02*
X154968333Y-113128548D01*
X154968333Y-113128548D02*
X155063571Y-113176167D01*
X155063571Y-113176167D02*
X155254047Y-113176167D01*
X155254047Y-113176167D02*
X155349285Y-113128548D01*
X155349285Y-113128548D02*
X155396904Y-113080928D01*
X155396904Y-113080928D02*
X155444523Y-112985690D01*
X155444523Y-112985690D02*
X155444523Y-112176167D01*
X156396904Y-112176167D02*
X155920714Y-112176167D01*
X155920714Y-112176167D02*
X155873095Y-112652357D01*
X155873095Y-112652357D02*
X155920714Y-112604738D01*
X155920714Y-112604738D02*
X156015952Y-112557119D01*
X156015952Y-112557119D02*
X156254047Y-112557119D01*
X156254047Y-112557119D02*
X156349285Y-112604738D01*
X156349285Y-112604738D02*
X156396904Y-112652357D01*
X156396904Y-112652357D02*
X156444523Y-112747595D01*
X156444523Y-112747595D02*
X156444523Y-112985690D01*
X156444523Y-112985690D02*
X156396904Y-113080928D01*
X156396904Y-113080928D02*
X156349285Y-113128548D01*
X156349285Y-113128548D02*
X156254047Y-113176167D01*
X156254047Y-113176167D02*
X156015952Y-113176167D01*
X156015952Y-113176167D02*
X155920714Y-113128548D01*
X155920714Y-113128548D02*
X155873095Y-113080928D01*
X158730180Y-109871348D02*
X158492085Y-109871348D01*
X158587323Y-109633253D02*
X158492085Y-109871348D01*
X158492085Y-109871348D02*
X158587323Y-110109443D01*
X158301609Y-109728491D02*
X158492085Y-109871348D01*
X158492085Y-109871348D02*
X158301609Y-110014205D01*
D12*
%TO.C,C4*%
X149765000Y-111238748D02*
X149765000Y-111761252D01*
X151235000Y-111238748D02*
X151235000Y-111761252D01*
%TO.C,C2*%
X139788748Y-92765000D02*
X140311252Y-92765000D01*
X139788748Y-94235000D02*
X140311252Y-94235000D01*
%TO.C,D6*%
X165990000Y-112860000D02*
X165990000Y-109100000D01*
X165990000Y-112860000D02*
X168010000Y-112860000D01*
X168010000Y-112860000D02*
X168010000Y-109100000D01*
%TO.C,J5*%
X115515000Y-96690000D02*
X115515000Y-104310000D01*
X115515000Y-104310000D02*
X121485000Y-104310000D01*
X116275000Y-97450000D02*
X116275000Y-100500000D01*
X116275000Y-103550000D02*
X116275000Y-100500000D01*
X119225000Y-96700000D02*
X119225000Y-97450000D01*
X119225000Y-97450000D02*
X116275000Y-97450000D01*
X119225000Y-103550000D02*
X116275000Y-103550000D01*
X119225000Y-104300000D02*
X119225000Y-103550000D01*
X120725000Y-96700000D02*
X120725000Y-98500000D01*
X120725000Y-98500000D02*
X121475000Y-98500000D01*
X120725000Y-100000000D02*
X120725000Y-101000000D01*
X120725000Y-101000000D02*
X121475000Y-101000000D01*
X120725000Y-102500000D02*
X120725000Y-104300000D01*
X120725000Y-104300000D02*
X121475000Y-104300000D01*
X121475000Y-96700000D02*
X120725000Y-96700000D01*
X121475000Y-98500000D02*
X121475000Y-96700000D01*
X121475000Y-100000000D02*
X120725000Y-100000000D01*
X121475000Y-101000000D02*
X121475000Y-100000000D01*
X121475000Y-102500000D02*
X120725000Y-102500000D01*
X121475000Y-104300000D02*
X121475000Y-102500000D01*
X121485000Y-96690000D02*
X115515000Y-96690000D01*
X121485000Y-104310000D02*
X121485000Y-96690000D01*
X121775000Y-96400000D02*
X120525000Y-96400000D01*
X121775000Y-97650000D02*
X121775000Y-96400000D01*
D13*
%TO.C,Y2*%
X135250000Y-99060000D02*
X135250000Y-99940000D01*
X136750000Y-99060000D02*
X136750000Y-99940000D01*
D14*
X136100000Y-96900000D02*
G75*
G02*
X135900000Y-96900000I-100000J0D01*
G01*
X135900000Y-96900000D02*
G75*
G02*
X136100000Y-96900000I100000J0D01*
G01*
D12*
%TO.C,C21*%
X140765000Y-117738748D02*
X140765000Y-118261252D01*
X142235000Y-117738748D02*
X142235000Y-118261252D01*
%TO.C,J3*%
X179455000Y-97530000D02*
X181255000Y-97530000D01*
X179455000Y-106470000D02*
X181255000Y-106470000D01*
D15*
%TO.C,U2*%
X143873000Y-120627000D02*
X147127000Y-120627000D01*
X147127000Y-115373000D02*
X143873000Y-115373000D01*
D16*
G36*
X147785401Y-118590499D02*
G01*
X147531401Y-118590499D01*
X147531401Y-118209499D01*
X147785401Y-118209499D01*
X147785401Y-118590499D01*
G37*
D12*
%TO.C,SW1*%
X125400000Y-85400000D02*
X125400000Y-83100000D01*
X126600000Y-85400000D02*
X125400000Y-85400000D01*
X128400000Y-85400000D02*
X129100000Y-85400000D01*
X130900000Y-85400000D02*
X131600000Y-85400000D01*
X134600000Y-83100000D02*
X134600000Y-85400000D01*
X134600000Y-85400000D02*
X133400000Y-85400000D01*
%TO.C,R2*%
X173772936Y-100265000D02*
X174227064Y-100265000D01*
X173772936Y-101735000D02*
X174227064Y-101735000D01*
%TO.C,R1*%
X173772936Y-104265000D02*
X174227064Y-104265000D01*
X173772936Y-105735000D02*
X174227064Y-105735000D01*
%TO.C,C1*%
X139788748Y-95265000D02*
X140311252Y-95265000D01*
X139788748Y-96735000D02*
X140311252Y-96735000D01*
%TO.C,C5*%
X134765000Y-109238748D02*
X134765000Y-109761252D01*
X136235000Y-109238748D02*
X136235000Y-109761252D01*
%TO.C,C3*%
X151765000Y-99238748D02*
X151765000Y-99761252D01*
X153235000Y-99238748D02*
X153235000Y-99761252D01*
%TO.C,C10*%
X131761252Y-102765000D02*
X131238748Y-102765000D01*
X131761252Y-104235000D02*
X131238748Y-104235000D01*
%TO.C,C18*%
X151765000Y-118761252D02*
X151765000Y-118238748D01*
X153235000Y-118761252D02*
X153235000Y-118238748D01*
%TO.C,R3*%
X155272936Y-102765000D02*
X155727064Y-102765000D01*
X155272936Y-104235000D02*
X155727064Y-104235000D01*
%TO.C,C17*%
X158265000Y-119261252D02*
X158265000Y-118738748D01*
X159735000Y-119261252D02*
X159735000Y-118738748D01*
%TO.C,D1*%
X171140000Y-94500000D02*
X171140000Y-96500000D01*
X171140000Y-94500000D02*
X175150000Y-94500000D01*
X171140000Y-96500000D02*
X175150000Y-96500000D01*
D13*
%TO.C,J2*%
X148137500Y-82200000D02*
X164437500Y-82200000D01*
X148137500Y-96450000D02*
X148137500Y-82200000D01*
X164437500Y-82200000D02*
X164437500Y-96450000D01*
X164437500Y-96450000D02*
X148137500Y-96450000D01*
D17*
X165037500Y-85150000D02*
G75*
G02*
X164837500Y-85150000I-100000J0D01*
G01*
X164837500Y-85150000D02*
G75*
G02*
X165037500Y-85150000I100000J0D01*
G01*
D12*
%TO.C,C16*%
X134765000Y-91738748D02*
X134765000Y-92261252D01*
X136235000Y-91738748D02*
X136235000Y-92261252D01*
%TO.C,D4*%
X181540000Y-110000000D02*
X181540000Y-112860000D01*
X181540000Y-112860000D02*
X183460000Y-112860000D01*
X183460000Y-112860000D02*
X183460000Y-110000000D01*
%TO.C,R12*%
X159765000Y-111227064D02*
X159765000Y-110772936D01*
X161235000Y-111227064D02*
X161235000Y-110772936D01*
%TO.C,C14*%
X132761252Y-97265000D02*
X132238748Y-97265000D01*
X132761252Y-98735000D02*
X132238748Y-98735000D01*
%TO.C,D3*%
X181540000Y-91000000D02*
X181540000Y-93860000D01*
X181540000Y-93860000D02*
X183460000Y-93860000D01*
X183460000Y-93860000D02*
X183460000Y-91000000D01*
%TO.C,C15*%
X132761252Y-99765000D02*
X132238748Y-99765000D01*
X132761252Y-101235000D02*
X132238748Y-101235000D01*
D13*
%TO.C,U4*%
X163212500Y-118750000D02*
X163212500Y-118500000D01*
X163212500Y-120500000D02*
X163212500Y-120250000D01*
X165212500Y-118500000D02*
X165212500Y-118750000D01*
X165212500Y-120500000D02*
X165212500Y-120250000D01*
D17*
X162812500Y-119200000D02*
G75*
G02*
X162612500Y-119200000I-100000J0D01*
G01*
X162612500Y-119200000D02*
G75*
G02*
X162812500Y-119200000I100000J0D01*
G01*
D12*
%TO.C,C24*%
X163265000Y-113261252D02*
X163265000Y-112738748D01*
X164735000Y-113261252D02*
X164735000Y-112738748D01*
%TO.C,C7*%
X168765000Y-101761252D02*
X168765000Y-101238748D01*
X170235000Y-101761252D02*
X170235000Y-101238748D01*
%TO.C,R6*%
X134765000Y-87772936D02*
X134765000Y-88227064D01*
X136235000Y-87772936D02*
X136235000Y-88227064D01*
%TO.C,R10*%
X142772936Y-113265000D02*
X143227064Y-113265000D01*
X142772936Y-114735000D02*
X143227064Y-114735000D01*
%TO.C,J8*%
X115150000Y-89250000D02*
X115150000Y-90500000D01*
X115440000Y-89540000D02*
X115440000Y-95510000D01*
X115440000Y-95510000D02*
X125560000Y-95510000D01*
X115450000Y-89550000D02*
X115450000Y-90300000D01*
X115450000Y-90300000D02*
X117250000Y-90300000D01*
X115450000Y-91800000D02*
X116200000Y-91800000D01*
X116200000Y-91800000D02*
X116200000Y-94750000D01*
X116200000Y-94750000D02*
X120500000Y-94750000D01*
X116400000Y-89250000D02*
X115150000Y-89250000D01*
X117250000Y-89550000D02*
X115450000Y-89550000D01*
X117250000Y-90300000D02*
X117250000Y-89550000D01*
X118750000Y-89550000D02*
X118750000Y-90300000D01*
X118750000Y-90300000D02*
X122250000Y-90300000D01*
X122250000Y-89550000D02*
X118750000Y-89550000D01*
X122250000Y-90300000D02*
X122250000Y-89550000D01*
X123750000Y-89550000D02*
X123750000Y-90300000D01*
X123750000Y-90300000D02*
X125550000Y-90300000D01*
X124800000Y-91800000D02*
X124800000Y-94750000D01*
X124800000Y-94750000D02*
X120500000Y-94750000D01*
X125550000Y-89550000D02*
X123750000Y-89550000D01*
X125550000Y-90300000D02*
X125550000Y-89550000D01*
X125550000Y-91800000D02*
X124800000Y-91800000D01*
X125560000Y-89540000D02*
X115440000Y-89540000D01*
X125560000Y-95510000D02*
X125560000Y-89540000D01*
%TO.C,Q1*%
X134500000Y-111852500D02*
X133850000Y-111852500D01*
X134500000Y-111852500D02*
X135150000Y-111852500D01*
X134500000Y-114972500D02*
X133850000Y-114972500D01*
X134500000Y-114972500D02*
X135150000Y-114972500D01*
X135902500Y-115252500D02*
X135422500Y-115252500D01*
X135662500Y-114922500D01*
X135902500Y-115252500D01*
G36*
X135902500Y-115252500D02*
G01*
X135422500Y-115252500D01*
X135662500Y-114922500D01*
X135902500Y-115252500D01*
G37*
%TO.C,R13*%
X159765000Y-115227064D02*
X159765000Y-114772936D01*
X161235000Y-115227064D02*
X161235000Y-114772936D01*
%TO.C,C20*%
X160265000Y-118738748D02*
X160265000Y-119261252D01*
X161735000Y-118738748D02*
X161735000Y-119261252D01*
%TO.C,C9*%
X165765000Y-94238748D02*
X165765000Y-94761252D01*
X167235000Y-94238748D02*
X167235000Y-94761252D01*
%TO.C,J6*%
X115490000Y-105940000D02*
X115490000Y-113560000D01*
X115490000Y-113560000D02*
X121460000Y-113560000D01*
X116250000Y-106700000D02*
X116250000Y-109750000D01*
X116250000Y-112800000D02*
X116250000Y-109750000D01*
X119200000Y-105950000D02*
X119200000Y-106700000D01*
X119200000Y-106700000D02*
X116250000Y-106700000D01*
X119200000Y-112800000D02*
X116250000Y-112800000D01*
X119200000Y-113550000D02*
X119200000Y-112800000D01*
X120700000Y-105950000D02*
X120700000Y-107750000D01*
X120700000Y-107750000D02*
X121450000Y-107750000D01*
X120700000Y-109250000D02*
X120700000Y-110250000D01*
X120700000Y-110250000D02*
X121450000Y-110250000D01*
X120700000Y-111750000D02*
X120700000Y-113550000D01*
X120700000Y-113550000D02*
X121450000Y-113550000D01*
X121450000Y-105950000D02*
X120700000Y-105950000D01*
X121450000Y-107750000D02*
X121450000Y-105950000D01*
X121450000Y-109250000D02*
X120700000Y-109250000D01*
X121450000Y-110250000D02*
X121450000Y-109250000D01*
X121450000Y-111750000D02*
X120700000Y-111750000D01*
X121450000Y-113550000D02*
X121450000Y-111750000D01*
X121460000Y-105940000D02*
X115490000Y-105940000D01*
X121460000Y-113560000D02*
X121460000Y-105940000D01*
X121750000Y-105650000D02*
X120500000Y-105650000D01*
X121750000Y-106900000D02*
X121750000Y-105650000D01*
D13*
%TO.C,U3*%
X154000000Y-117250000D02*
X154500000Y-117250000D01*
X154000000Y-119750000D02*
X154500000Y-119750000D01*
X157000000Y-117250000D02*
X156500000Y-117250000D01*
X157000000Y-119750000D02*
X156500000Y-119750000D01*
D17*
X153600000Y-117750000D02*
G75*
G02*
X153400000Y-117750000I-100000J0D01*
G01*
X153400000Y-117750000D02*
G75*
G02*
X153600000Y-117750000I100000J0D01*
G01*
D12*
%TO.C,R9*%
X139227064Y-113265000D02*
X138772936Y-113265000D01*
X139227064Y-114735000D02*
X138772936Y-114735000D01*
%TO.C,D5*%
X140010000Y-116350000D02*
X134500000Y-116350000D01*
X140010000Y-119650000D02*
X134500000Y-119650000D01*
X140010000Y-119650000D02*
X140010000Y-116350000D01*
%TO.C,C23*%
X155373748Y-106986348D02*
X155896252Y-106986348D01*
X155373748Y-108456348D02*
X155896252Y-108456348D01*
%TO.C,R5*%
X178765000Y-92227064D02*
X178765000Y-91772936D01*
X180235000Y-92227064D02*
X180235000Y-91772936D01*
%TO.C,J1*%
X169190000Y-82135000D02*
X169190000Y-93855000D01*
X169190000Y-93855000D02*
X170610000Y-93855000D01*
X170610000Y-89355000D02*
X173000000Y-89355000D01*
X170610000Y-93855000D02*
X170610000Y-89355000D01*
X171500000Y-82745000D02*
X171500000Y-88245000D01*
X171500000Y-88245000D02*
X172000000Y-88245000D01*
X172000000Y-82745000D02*
X171500000Y-82745000D01*
X172000000Y-88245000D02*
X172000000Y-82745000D01*
X173000000Y-82135000D02*
X169190000Y-82135000D01*
X173000000Y-82135000D02*
X176810000Y-82135000D01*
X173950000Y-93545000D02*
X174250000Y-92945000D01*
X174000000Y-82745000D02*
X174000000Y-88245000D01*
X174000000Y-88245000D02*
X174500000Y-88245000D01*
X174250000Y-92945000D02*
X174550000Y-93545000D01*
X174500000Y-82745000D02*
X174000000Y-82745000D01*
X174500000Y-88245000D02*
X174500000Y-82745000D01*
X174550000Y-93545000D02*
X173950000Y-93545000D01*
X175390000Y-89355000D02*
X173000000Y-89355000D01*
X175390000Y-93855000D02*
X175390000Y-89355000D01*
X176810000Y-82135000D02*
X176810000Y-93855000D01*
X176810000Y-93855000D02*
X175390000Y-93855000D01*
%TO.C,C13*%
X142265000Y-95261252D02*
X142265000Y-94738748D01*
X143735000Y-95261252D02*
X143735000Y-94738748D01*
%TO.C,C6*%
X135261252Y-94765000D02*
X134738748Y-94765000D01*
X135261252Y-96235000D02*
X134738748Y-96235000D01*
%TO.C,C12*%
X146738748Y-111265000D02*
X147261252Y-111265000D01*
X146738748Y-112735000D02*
X147261252Y-112735000D01*
%TO.C,J9*%
X169190000Y-109145000D02*
X170610000Y-109145000D01*
X169190000Y-120865000D02*
X169190000Y-109145000D01*
X170610000Y-109145000D02*
X170610000Y-113645000D01*
X170610000Y-113645000D02*
X173000000Y-113645000D01*
X171450000Y-109455000D02*
X172050000Y-109455000D01*
X171500000Y-114755000D02*
X171500000Y-120255000D01*
X171500000Y-120255000D02*
X172000000Y-120255000D01*
X171750000Y-110055000D02*
X171450000Y-109455000D01*
X172000000Y-114755000D02*
X171500000Y-114755000D01*
X172000000Y-120255000D02*
X172000000Y-114755000D01*
X172050000Y-109455000D02*
X171750000Y-110055000D01*
X173000000Y-120865000D02*
X169190000Y-120865000D01*
X173000000Y-120865000D02*
X176810000Y-120865000D01*
X174000000Y-114755000D02*
X174000000Y-120255000D01*
X174000000Y-120255000D02*
X174500000Y-120255000D01*
X174500000Y-114755000D02*
X174000000Y-114755000D01*
X174500000Y-120255000D02*
X174500000Y-114755000D01*
X175390000Y-109145000D02*
X175390000Y-113645000D01*
X175390000Y-113645000D02*
X173000000Y-113645000D01*
X176810000Y-109145000D02*
X175390000Y-109145000D01*
X176810000Y-120865000D02*
X176810000Y-109145000D01*
D13*
%TO.C,VR1*%
X161512500Y-97750000D02*
X161512500Y-98930000D01*
X161512500Y-97750000D02*
X165012500Y-97750000D01*
X161512500Y-104250000D02*
X161512500Y-103070000D01*
X165012500Y-104250000D02*
X161512500Y-104250000D01*
D17*
X168112500Y-103300000D02*
G75*
G02*
X167912500Y-103300000I-100000J0D01*
G01*
X167912500Y-103300000D02*
G75*
G02*
X168112500Y-103300000I100000J0D01*
G01*
D12*
%TO.C,U1*%
X139390000Y-98890000D02*
X139390000Y-99840000D01*
X139390000Y-109110000D02*
X139390000Y-108160000D01*
X140340000Y-98890000D02*
X139390000Y-98890000D01*
X140340000Y-109110000D02*
X139390000Y-109110000D01*
X148660000Y-98890000D02*
X149610000Y-98890000D01*
X148660000Y-109110000D02*
X149610000Y-109110000D01*
X149610000Y-98890000D02*
X149610000Y-99840000D01*
X149610000Y-109110000D02*
X149610000Y-108160000D01*
X138775000Y-99840000D02*
X138435000Y-99370000D01*
X139115000Y-99370000D01*
X138775000Y-99840000D01*
G36*
X138775000Y-99840000D02*
G01*
X138435000Y-99370000D01*
X139115000Y-99370000D01*
X138775000Y-99840000D01*
G37*
%TO.C,D7*%
X165990000Y-118860000D02*
X165990000Y-115100000D01*
X165990000Y-118860000D02*
X168010000Y-118860000D01*
X168010000Y-118860000D02*
X168010000Y-115100000D01*
%TO.C,C19*%
X163688748Y-115765000D02*
X164211252Y-115765000D01*
X163688748Y-117235000D02*
X164211252Y-117235000D01*
%TO.C,C22*%
X148765000Y-118761252D02*
X148765000Y-118238748D01*
X150235000Y-118761252D02*
X150235000Y-118238748D01*
D13*
%TO.C,Y1*%
X134087500Y-104420000D02*
X134087500Y-104580000D01*
X136587500Y-104420000D02*
X136587500Y-104580000D01*
D17*
X133312500Y-103400000D02*
G75*
G02*
X133112500Y-103400000I-100000J0D01*
G01*
X133112500Y-103400000D02*
G75*
G02*
X133312500Y-103400000I100000J0D01*
G01*
D12*
%TO.C,C8*%
X168765000Y-97238748D02*
X168765000Y-97761252D01*
X170235000Y-97238748D02*
X170235000Y-97761252D01*
%TO.C,R7*%
X178765000Y-111314564D02*
X178765000Y-110860436D01*
X180235000Y-111314564D02*
X180235000Y-110860436D01*
%TO.C,R4*%
X155272936Y-100765000D02*
X155727064Y-100765000D01*
X155272936Y-102235000D02*
X155727064Y-102235000D01*
%TO.C,BZ1*%
X122890000Y-110390000D02*
X125540000Y-110390000D01*
X122890000Y-119610000D02*
X122890000Y-110390000D01*
X125540000Y-119610000D02*
X122890000Y-119610000D01*
X125540000Y-119610000D02*
X125540000Y-119940000D01*
X129460000Y-110390000D02*
X132110000Y-110390000D01*
X132110000Y-110390000D02*
X132110000Y-119610000D01*
X132110000Y-119610000D02*
X129460000Y-119610000D01*
%TO.C,D2*%
X171162500Y-97500000D02*
X171162500Y-99500000D01*
X171162500Y-97500000D02*
X175172500Y-97500000D01*
X171162500Y-99500000D02*
X175172500Y-99500000D01*
%TO.C,R8*%
X139227064Y-111265000D02*
X138772936Y-111265000D01*
X139227064Y-112735000D02*
X138772936Y-112735000D01*
%TO.C,R11*%
X147227064Y-113265000D02*
X146772936Y-113265000D01*
X147227064Y-114735000D02*
X146772936Y-114735000D01*
%TO.C,C11*%
X131761252Y-105265000D02*
X131238748Y-105265000D01*
X131761252Y-106735000D02*
X131238748Y-106735000D01*
%TO.C,J4*%
X141345000Y-84080000D02*
X142725000Y-84080000D01*
X141345000Y-85460000D02*
X141345000Y-84080000D01*
X141345000Y-86730000D02*
X141345000Y-91920000D01*
X141345000Y-86730000D02*
X143995000Y-86730000D01*
X141345000Y-91920000D02*
X146645000Y-91920000D01*
X143995000Y-84080000D02*
X146645000Y-84080000D01*
X143995000Y-86730000D02*
X143995000Y-84080000D01*
X146645000Y-84080000D02*
X146645000Y-91920000D01*
%TO.C,SW2*%
X127900000Y-89850000D02*
X132100000Y-89850000D01*
X127900000Y-90240000D02*
X127900000Y-89850000D01*
X127900000Y-92760000D02*
X127900000Y-93150000D01*
X127900000Y-93150000D02*
X132100000Y-93150000D01*
X132100000Y-89850000D02*
X132100000Y-90240000D01*
X132100000Y-93150000D02*
X132100000Y-92760000D01*
D15*
%TO.C,U5*%
X153006100Y-110600448D02*
X153006100Y-114842248D01*
X158263900Y-114842248D02*
X158263900Y-110600448D01*
%TD*%
M02*
