%TF.GenerationSoftware,KiCad,Pcbnew,9.0.2*%
%TF.CreationDate,2025-11-08T13:29:07-08:00*%
%TF.ProjectId,A3-Flight-Computer-Hardware-Rectangular,41332d46-6c69-4676-9874-2d436f6d7075,rev?*%
%TF.SameCoordinates,Original*%
%TF.FileFunction,Copper,L3,Inr*%
%TF.FilePolarity,Positive*%
%FSLAX46Y46*%
G04 Gerber Fmt 4.6, Leading zero omitted, Abs format (unit mm)*
G04 Created by KiCad (PCBNEW 9.0.2) date 2025-11-08 13:29:07*
%MOMM*%
%LPD*%
G01*
G04 APERTURE LIST*
G04 Aperture macros list*
%AMRoundRect*
0 Rectangle with rounded corners*
0 $1 Rounding radius*
0 $2 $3 $4 $5 $6 $7 $8 $9 X,Y pos of 4 corners*
0 Add a 4 corners polygon primitive as box body*
4,1,4,$2,$3,$4,$5,$6,$7,$8,$9,$2,$3,0*
0 Add four circle primitives for the rounded corners*
1,1,$1+$1,$2,$3*
1,1,$1+$1,$4,$5*
1,1,$1+$1,$6,$7*
1,1,$1+$1,$8,$9*
0 Add four rect primitives between the rounded corners*
20,1,$1+$1,$2,$3,$4,$5,0*
20,1,$1+$1,$4,$5,$6,$7,0*
20,1,$1+$1,$6,$7,$8,$9,0*
20,1,$1+$1,$8,$9,$2,$3,0*%
G04 Aperture macros list end*
%TA.AperFunction,ComponentPad*%
%ADD10RoundRect,0.250000X-0.750000X0.600000X-0.750000X-0.600000X0.750000X-0.600000X0.750000X0.600000X0*%
%TD*%
%TA.AperFunction,ComponentPad*%
%ADD11O,2.000000X1.700000*%
%TD*%
%TA.AperFunction,HeatsinkPad*%
%ADD12O,2.000000X0.900000*%
%TD*%
%TA.AperFunction,HeatsinkPad*%
%ADD13O,1.700000X0.900000*%
%TD*%
%TA.AperFunction,ComponentPad*%
%ADD14C,6.000000*%
%TD*%
%TA.AperFunction,ComponentPad*%
%ADD15RoundRect,0.250000X-0.600000X-0.725000X0.600000X-0.725000X0.600000X0.725000X-0.600000X0.725000X0*%
%TD*%
%TA.AperFunction,ComponentPad*%
%ADD16O,1.700000X1.950000*%
%TD*%
%TA.AperFunction,ComponentPad*%
%ADD17RoundRect,0.250000X0.600000X0.750000X-0.600000X0.750000X-0.600000X-0.750000X0.600000X-0.750000X0*%
%TD*%
%TA.AperFunction,ComponentPad*%
%ADD18O,1.700000X2.000000*%
%TD*%
%TA.AperFunction,ComponentPad*%
%ADD19RoundRect,0.250000X-0.600000X-0.750000X0.600000X-0.750000X0.600000X0.750000X-0.600000X0.750000X0*%
%TD*%
%TA.AperFunction,ComponentPad*%
%ADD20R,1.700000X1.700000*%
%TD*%
%TA.AperFunction,ComponentPad*%
%ADD21C,1.700000*%
%TD*%
%TA.AperFunction,ViaPad*%
%ADD22C,0.600000*%
%TD*%
G04 APERTURE END LIST*
D10*
%TO.N,/CAM1_TX*%
%TO.C,J5*%
X119025000Y-99250000D03*
D11*
%TO.N,/CAM1_RX*%
X119025000Y-101750000D03*
%TD*%
D12*
%TO.N,GND*%
%TO.C,J3*%
X178195000Y-106320000D03*
D13*
X182365000Y-106320000D03*
D12*
X178195000Y-97680000D03*
D13*
X182365000Y-97680000D03*
%TD*%
D14*
%TO.N,N/C*%
%TO.C,REF\u002A\u002A*%
X118000000Y-118000000D03*
%TD*%
%TO.N,N/C*%
%TO.C,*%
X181000000Y-85000000D03*
%TD*%
%TO.N,N/C*%
%TO.C,REF\u002A\u002A*%
X118000000Y-85000000D03*
%TD*%
%TO.N,N/C*%
%TO.C,REF\u002A\u002A*%
X181000000Y-118000000D03*
%TD*%
D15*
%TO.N,/TELEM_TX*%
%TO.C,J8*%
X118000000Y-92000000D03*
D16*
%TO.N,/TELEM_RX*%
X120500000Y-92000000D03*
%TO.N,GND*%
X123000000Y-92000000D03*
%TD*%
D10*
%TO.N,/CAM2_TX*%
%TO.C,J6*%
X119000000Y-108500000D03*
D11*
%TO.N,/CAM2_RX*%
X119000000Y-111000000D03*
%TD*%
D17*
%TO.N,Net-(D1-A)*%
%TO.C,J1*%
X174250000Y-91445000D03*
D18*
%TO.N,GND*%
X171750000Y-91445000D03*
%TD*%
D19*
%TO.N,Net-(D7-A2)*%
%TO.C,J9*%
X171750000Y-111555000D03*
D18*
%TO.N,Net-(D6-A1)*%
X174250000Y-111555000D03*
%TD*%
D20*
%TO.N,/JTDO-SWO*%
%TO.C,J4*%
X142725000Y-85460000D03*
D21*
%TO.N,/JTMS-SWDIO*%
X145265000Y-85460000D03*
%TO.N,/JTDI*%
X142725000Y-88000000D03*
%TO.N,/JTCK-SWCLK*%
X145265000Y-88000000D03*
%TO.N,/DEBUG_RX*%
X142725000Y-90540000D03*
%TO.N,/DEBUG_TX*%
X145265000Y-90540000D03*
%TD*%
D22*
%TO.N,*%
X133700000Y-101900000D03*
X132100000Y-101900000D03*
X130500000Y-101900000D03*
%TO.N,+3.3V*%
X163200000Y-99800000D03*
X151150000Y-119750000D03*
X135700000Y-85000000D03*
X171260000Y-102040000D03*
X182500000Y-89480000D03*
X163200000Y-102200000D03*
X160000000Y-119030000D03*
X142000000Y-108200000D03*
X134975000Y-94200000D03*
X153500000Y-107500000D03*
X133700000Y-110200000D03*
X148200000Y-115400000D03*
X140700000Y-115500000D03*
X138900000Y-92000000D03*
X154000000Y-98100000D03*
X161850000Y-116700000D03*
X127300000Y-117500000D03*
X167700000Y-92500000D03*
X163200000Y-101000000D03*
X156311663Y-117109482D03*
X166029000Y-119729000D03*
X150400000Y-109400000D03*
%TO.N,GND*%
X164420870Y-118230783D03*
X145600000Y-117600000D03*
X155700000Y-107600000D03*
X151300000Y-113400000D03*
X165400000Y-96900000D03*
X149087500Y-89500000D03*
X142000000Y-95000000D03*
X165500000Y-120600000D03*
X153900000Y-99700000D03*
X179600000Y-113400000D03*
X133100000Y-93900000D03*
X140800000Y-108200000D03*
X179640000Y-94400000D03*
X133700000Y-111900000D03*
X152500000Y-116100000D03*
X162100000Y-119030000D03*
X130550000Y-104700000D03*
X167000000Y-110400000D03*
X164050000Y-116500000D03*
X150384265Y-113715735D03*
X162300000Y-90600000D03*
X167000000Y-116500000D03*
X149200000Y-116400000D03*
X133400000Y-104800000D03*
X162700000Y-84100000D03*
X131550000Y-99300000D03*
X176360000Y-105760000D03*
X155500000Y-120500000D03*
X168400000Y-104400000D03*
X139300000Y-115300000D03*
X172600000Y-102200000D03*
X169500000Y-99510000D03*
X179300000Y-99100000D03*
X127775000Y-88900000D03*
X160000000Y-117100000D03*
X164000000Y-110900000D03*
%TO.N,/STAT_LED*%
X182490000Y-108580000D03*
X146280000Y-108270000D03*
%TO.N,/SD_D0*%
X158000000Y-93530000D03*
X152446656Y-103751511D03*
%TO.N,/SD_D3*%
X158790000Y-86250000D03*
X149302000Y-95821000D03*
%TO.N,/SD_D2*%
X151680000Y-96400000D03*
X157949265Y-87729265D03*
%TO.N,/SD_D1*%
X156260000Y-94210000D03*
X151840000Y-103230000D03*
%TO.N,/JTDI*%
X147310000Y-99850000D03*
%TO.N,/JTMS-SWDIO*%
X148720000Y-100850000D03*
%TO.N,/JTCK-SWCLK*%
X148295000Y-99835000D03*
%TO.N,/JTDO-SWO*%
X145890000Y-94810000D03*
%TO.N,/CAM1_TX*%
X137030000Y-107470000D03*
%TO.N,/CAM1_RX*%
X137321900Y-108214848D03*
%TO.N,/CAM2_RX*%
X138475000Y-110120000D03*
%TO.N,/CAM2_TX*%
X138640000Y-108800000D03*
%TO.N,/TELEM_TX*%
X145350000Y-101190000D03*
%TO.N,/TELEM_RX*%
X145510000Y-100300000D03*
%TO.N,/BUZZ*%
X141000000Y-111150000D03*
X140950000Y-105300000D03*
%TO.N,/I2C_SCL*%
X145450000Y-103900000D03*
X144775000Y-115205000D03*
X143445024Y-112590000D03*
X162760000Y-119840000D03*
X155420000Y-118540000D03*
%TO.N,/I2C_SDA*%
X145294265Y-105025735D03*
X164182499Y-119470002D03*
X146005000Y-115085000D03*
X154340000Y-117074998D03*
%TO.N,/LPS22HB_INT*%
X164000000Y-117610000D03*
X144850000Y-108370000D03*
%TO.N,/LSM6_INT2*%
X157550000Y-117520000D03*
X144820000Y-112080000D03*
%TO.N,/CAN_STBD*%
X145185000Y-107045000D03*
X157410000Y-114050000D03*
%TO.N,/LSM6_INT1*%
X144790000Y-112960000D03*
X150940000Y-116490000D03*
%TO.N,/ADXL375_INT1*%
X148200000Y-119400000D03*
X141800000Y-111780000D03*
%TO.N,/ADXL375_INT2*%
X142650000Y-112040000D03*
X145570000Y-118760000D03*
%TO.N,/CAN_SHD*%
X153720000Y-114110000D03*
X144860000Y-111130000D03*
%TD*%
%TA.AperFunction,Conductor*%
%TO.N,+3.3V*%
G36*
X178857513Y-82020185D02*
G01*
X178903268Y-82072989D01*
X178913212Y-82142147D01*
X178884187Y-82205703D01*
X178869139Y-82220353D01*
X178646367Y-82403176D01*
X178403176Y-82646367D01*
X178184985Y-82912234D01*
X178184975Y-82912248D01*
X177993904Y-83198206D01*
X177993893Y-83198224D01*
X177831772Y-83501530D01*
X177831770Y-83501535D01*
X177700150Y-83819293D01*
X177600308Y-84148427D01*
X177533210Y-84485750D01*
X177499500Y-84828034D01*
X177499500Y-85171965D01*
X177533210Y-85514249D01*
X177600308Y-85851572D01*
X177700150Y-86180706D01*
X177831770Y-86498464D01*
X177831772Y-86498469D01*
X177993893Y-86801775D01*
X177993904Y-86801793D01*
X178019758Y-86840486D01*
X178139529Y-87019737D01*
X178184975Y-87087751D01*
X178184985Y-87087765D01*
X178403176Y-87353632D01*
X178646367Y-87596823D01*
X178646372Y-87596827D01*
X178646373Y-87596828D01*
X178912240Y-87815019D01*
X179198213Y-88006100D01*
X179198222Y-88006105D01*
X179198224Y-88006106D01*
X179501530Y-88168227D01*
X179501532Y-88168227D01*
X179501538Y-88168231D01*
X179819295Y-88299850D01*
X180148422Y-88399690D01*
X180485750Y-88466789D01*
X180828031Y-88500500D01*
X180828034Y-88500500D01*
X181171966Y-88500500D01*
X181171969Y-88500500D01*
X181514250Y-88466789D01*
X181851578Y-88399690D01*
X182180705Y-88299850D01*
X182498462Y-88168231D01*
X182801787Y-88006100D01*
X183087760Y-87815019D01*
X183353627Y-87596828D01*
X183596828Y-87353627D01*
X183779648Y-87130859D01*
X183837392Y-87091526D01*
X183907237Y-87089655D01*
X183967005Y-87125842D01*
X183997721Y-87188598D01*
X183999500Y-87209525D01*
X183999500Y-115790474D01*
X183979815Y-115857513D01*
X183927011Y-115903268D01*
X183857853Y-115913212D01*
X183794297Y-115884187D01*
X183779647Y-115869139D01*
X183596823Y-115646367D01*
X183353632Y-115403176D01*
X183087765Y-115184985D01*
X183087764Y-115184984D01*
X183087760Y-115184981D01*
X182801787Y-114993900D01*
X182801782Y-114993897D01*
X182801775Y-114993893D01*
X182498469Y-114831772D01*
X182498464Y-114831770D01*
X182484116Y-114825827D01*
X182396915Y-114789707D01*
X182180706Y-114700150D01*
X181851572Y-114600308D01*
X181514248Y-114533210D01*
X181514249Y-114533210D01*
X181256456Y-114507821D01*
X181171969Y-114499500D01*
X180828031Y-114499500D01*
X180749966Y-114507188D01*
X180485750Y-114533210D01*
X180148427Y-114600308D01*
X179819293Y-114700150D01*
X179501535Y-114831770D01*
X179501530Y-114831772D01*
X179198224Y-114993893D01*
X179198206Y-114993904D01*
X178912248Y-115184975D01*
X178912234Y-115184985D01*
X178646367Y-115403176D01*
X178403176Y-115646367D01*
X178184985Y-115912234D01*
X178184975Y-115912248D01*
X177993904Y-116198206D01*
X177993893Y-116198224D01*
X177831772Y-116501530D01*
X177831770Y-116501535D01*
X177700150Y-116819293D01*
X177600308Y-117148427D01*
X177533210Y-117485750D01*
X177513208Y-117688846D01*
X177499500Y-117828031D01*
X177499500Y-118171969D01*
X177505392Y-118231789D01*
X177533210Y-118514249D01*
X177600308Y-118851572D01*
X177700150Y-119180706D01*
X177831770Y-119498464D01*
X177831772Y-119498469D01*
X177993893Y-119801775D01*
X177993904Y-119801793D01*
X178184975Y-120087751D01*
X178184985Y-120087765D01*
X178403176Y-120353632D01*
X178646367Y-120596823D01*
X178869139Y-120779647D01*
X178908473Y-120837392D01*
X178910344Y-120907237D01*
X178874157Y-120967005D01*
X178811401Y-120997721D01*
X178790474Y-120999500D01*
X166386555Y-120999500D01*
X166319516Y-120979815D01*
X166273761Y-120927011D01*
X166263817Y-120857853D01*
X166268840Y-120839588D01*
X166267969Y-120839324D01*
X166269731Y-120833509D01*
X166269737Y-120833497D01*
X166300500Y-120678842D01*
X166300500Y-120521158D01*
X166300500Y-120521155D01*
X166300499Y-120521153D01*
X166288690Y-120461786D01*
X166269737Y-120366503D01*
X166241233Y-120297687D01*
X166209397Y-120220827D01*
X166209390Y-120220814D01*
X166121789Y-120089711D01*
X166121786Y-120089707D01*
X166010292Y-119978213D01*
X166010288Y-119978210D01*
X165879185Y-119890609D01*
X165879172Y-119890602D01*
X165733501Y-119830264D01*
X165733489Y-119830261D01*
X165578845Y-119799500D01*
X165578842Y-119799500D01*
X165421158Y-119799500D01*
X165421155Y-119799500D01*
X165266510Y-119830261D01*
X165266498Y-119830264D01*
X165120827Y-119890602D01*
X165120808Y-119890612D01*
X165120431Y-119890865D01*
X165120203Y-119890936D01*
X165115446Y-119893479D01*
X165114963Y-119892576D01*
X165053751Y-119911735D01*
X164986373Y-119893243D01*
X164939689Y-119841259D01*
X164928520Y-119772288D01*
X164936988Y-119740309D01*
X164952236Y-119703499D01*
X164982999Y-119548844D01*
X164982999Y-119391160D01*
X164982999Y-119391157D01*
X164982998Y-119391155D01*
X164981134Y-119381786D01*
X164952236Y-119236505D01*
X164951038Y-119233612D01*
X164891896Y-119090829D01*
X164891892Y-119090822D01*
X164878155Y-119070263D01*
X164862845Y-119047350D01*
X164841968Y-118980674D01*
X164860452Y-118913294D01*
X164897056Y-118875358D01*
X164931159Y-118852572D01*
X165042659Y-118741072D01*
X165130264Y-118609962D01*
X165134598Y-118599500D01*
X165164831Y-118526510D01*
X165190607Y-118464280D01*
X165221370Y-118309625D01*
X165221370Y-118151941D01*
X165221370Y-118151938D01*
X165221369Y-118151936D01*
X165217935Y-118134673D01*
X165190607Y-117997286D01*
X165190009Y-117995843D01*
X165130267Y-117851610D01*
X165130260Y-117851597D01*
X165042659Y-117720494D01*
X165042656Y-117720490D01*
X164931162Y-117608996D01*
X164931158Y-117608993D01*
X164841033Y-117548773D01*
X164796228Y-117495161D01*
X164788308Y-117469869D01*
X164769737Y-117376503D01*
X164725514Y-117269738D01*
X164709397Y-117230827D01*
X164709393Y-117230820D01*
X164702712Y-117220821D01*
X164662385Y-117160467D01*
X164641508Y-117093792D01*
X164659992Y-117026412D01*
X164669641Y-117012906D01*
X164671785Y-117010292D01*
X164671789Y-117010289D01*
X164759394Y-116879179D01*
X164819737Y-116733497D01*
X164850500Y-116578842D01*
X164850500Y-116421158D01*
X164850500Y-116421155D01*
X164850499Y-116421153D01*
X166199500Y-116421153D01*
X166199500Y-116578846D01*
X166230261Y-116733489D01*
X166230264Y-116733501D01*
X166290602Y-116879172D01*
X166290609Y-116879185D01*
X166378210Y-117010288D01*
X166378213Y-117010292D01*
X166489707Y-117121786D01*
X166489711Y-117121789D01*
X166620814Y-117209390D01*
X166620827Y-117209397D01*
X166742363Y-117259738D01*
X166766503Y-117269737D01*
X166921153Y-117300499D01*
X166921156Y-117300500D01*
X166921158Y-117300500D01*
X167078844Y-117300500D01*
X167078845Y-117300499D01*
X167233497Y-117269737D01*
X167351592Y-117220821D01*
X167379172Y-117209397D01*
X167379172Y-117209396D01*
X167379179Y-117209394D01*
X167510289Y-117121789D01*
X167621789Y-117010289D01*
X167709394Y-116879179D01*
X167769737Y-116733497D01*
X167800500Y-116578842D01*
X167800500Y-116421158D01*
X167800500Y-116421155D01*
X167800499Y-116421153D01*
X167789450Y-116365607D01*
X167769737Y-116266503D01*
X167728314Y-116166498D01*
X167709397Y-116120827D01*
X167709390Y-116120814D01*
X167621789Y-115989711D01*
X167621786Y-115989707D01*
X167510292Y-115878213D01*
X167510288Y-115878210D01*
X167379185Y-115790609D01*
X167379172Y-115790602D01*
X167233501Y-115730264D01*
X167233489Y-115730261D01*
X167078845Y-115699500D01*
X167078842Y-115699500D01*
X166921158Y-115699500D01*
X166921155Y-115699500D01*
X166766510Y-115730261D01*
X166766498Y-115730264D01*
X166620827Y-115790602D01*
X166620814Y-115790609D01*
X166489711Y-115878210D01*
X166489707Y-115878213D01*
X166378213Y-115989707D01*
X166378210Y-115989711D01*
X166290609Y-116120814D01*
X166290602Y-116120827D01*
X166230264Y-116266498D01*
X166230261Y-116266510D01*
X166199500Y-116421153D01*
X164850499Y-116421153D01*
X164839450Y-116365607D01*
X164819737Y-116266503D01*
X164778314Y-116166498D01*
X164759397Y-116120827D01*
X164759390Y-116120814D01*
X164671789Y-115989711D01*
X164671786Y-115989707D01*
X164560292Y-115878213D01*
X164560288Y-115878210D01*
X164429185Y-115790609D01*
X164429172Y-115790602D01*
X164283501Y-115730264D01*
X164283489Y-115730261D01*
X164128845Y-115699500D01*
X164128842Y-115699500D01*
X163971158Y-115699500D01*
X163971155Y-115699500D01*
X163816510Y-115730261D01*
X163816498Y-115730264D01*
X163670827Y-115790602D01*
X163670814Y-115790609D01*
X163539711Y-115878210D01*
X163539707Y-115878213D01*
X163428213Y-115989707D01*
X163428210Y-115989711D01*
X163340609Y-116120814D01*
X163340602Y-116120827D01*
X163280264Y-116266498D01*
X163280261Y-116266510D01*
X163249500Y-116421153D01*
X163249500Y-116578846D01*
X163280261Y-116733489D01*
X163280264Y-116733501D01*
X163340602Y-116879172D01*
X163340609Y-116879184D01*
X163387613Y-116949530D01*
X163408491Y-117016207D01*
X163390007Y-117083587D01*
X163380370Y-117097079D01*
X163378212Y-117099708D01*
X163290609Y-117230814D01*
X163290602Y-117230827D01*
X163230264Y-117376498D01*
X163230261Y-117376510D01*
X163199500Y-117531153D01*
X163199500Y-117688846D01*
X163230261Y-117843489D01*
X163230264Y-117843501D01*
X163290602Y-117989172D01*
X163290609Y-117989185D01*
X163378210Y-118120288D01*
X163378213Y-118120292D01*
X163489708Y-118231787D01*
X163489711Y-118231789D01*
X163579836Y-118292009D01*
X163624640Y-118345619D01*
X163632562Y-118370919D01*
X163651131Y-118464272D01*
X163651134Y-118464284D01*
X163711472Y-118609955D01*
X163711479Y-118609968D01*
X163740522Y-118653433D01*
X163761400Y-118720110D01*
X163742916Y-118787490D01*
X163706313Y-118825425D01*
X163672208Y-118848213D01*
X163560712Y-118959709D01*
X163560709Y-118959713D01*
X163473108Y-119090816D01*
X163473105Y-119090823D01*
X163445633Y-119157145D01*
X163401791Y-119211548D01*
X163335497Y-119233612D01*
X163267798Y-119216332D01*
X163262181Y-119212793D01*
X163139185Y-119130609D01*
X163139172Y-119130602D01*
X162993494Y-119070261D01*
X162988493Y-119068744D01*
X162930058Y-119030441D01*
X162901608Y-118966626D01*
X162900723Y-118953429D01*
X162900500Y-118951163D01*
X162900500Y-118951158D01*
X162869737Y-118796503D01*
X162860208Y-118773497D01*
X162809397Y-118650827D01*
X162809390Y-118650814D01*
X162721789Y-118519711D01*
X162721786Y-118519707D01*
X162610292Y-118408213D01*
X162610288Y-118408210D01*
X162479185Y-118320609D01*
X162479172Y-118320602D01*
X162333501Y-118260264D01*
X162333489Y-118260261D01*
X162178845Y-118229500D01*
X162178842Y-118229500D01*
X162021158Y-118229500D01*
X162021155Y-118229500D01*
X161866510Y-118260261D01*
X161866498Y-118260264D01*
X161720827Y-118320602D01*
X161720814Y-118320609D01*
X161589711Y-118408210D01*
X161589707Y-118408213D01*
X161478213Y-118519707D01*
X161478210Y-118519711D01*
X161390609Y-118650814D01*
X161390602Y-118650827D01*
X161330264Y-118796498D01*
X161330261Y-118796510D01*
X161299500Y-118951153D01*
X161299500Y-119108846D01*
X161330261Y-119263489D01*
X161330264Y-119263501D01*
X161390602Y-119409172D01*
X161390609Y-119409185D01*
X161478210Y-119540288D01*
X161478213Y-119540292D01*
X161589707Y-119651786D01*
X161589711Y-119651789D01*
X161720814Y-119739390D01*
X161720827Y-119739397D01*
X161866503Y-119799737D01*
X161871500Y-119801253D01*
X161929937Y-119839553D01*
X161958391Y-119903366D01*
X161959275Y-119916569D01*
X161959500Y-119918846D01*
X161990261Y-120073489D01*
X161990264Y-120073501D01*
X162050602Y-120219172D01*
X162050609Y-120219185D01*
X162138210Y-120350288D01*
X162138213Y-120350292D01*
X162249707Y-120461786D01*
X162249711Y-120461789D01*
X162380814Y-120549390D01*
X162380827Y-120549397D01*
X162526498Y-120609735D01*
X162526503Y-120609737D01*
X162681153Y-120640499D01*
X162681156Y-120640500D01*
X162681158Y-120640500D01*
X162838844Y-120640500D01*
X162838845Y-120640499D01*
X162993497Y-120609737D01*
X163139179Y-120549394D01*
X163270289Y-120461789D01*
X163381789Y-120350289D01*
X163469394Y-120219179D01*
X163496865Y-120152857D01*
X163540703Y-120098455D01*
X163606997Y-120076389D01*
X163674696Y-120093667D01*
X163680316Y-120097208D01*
X163803313Y-120179392D01*
X163803326Y-120179399D01*
X163903344Y-120220827D01*
X163949002Y-120239739D01*
X164083528Y-120266498D01*
X164103652Y-120270501D01*
X164103655Y-120270502D01*
X164103657Y-120270502D01*
X164261343Y-120270502D01*
X164261344Y-120270501D01*
X164415996Y-120239739D01*
X164561678Y-120179396D01*
X164562045Y-120179151D01*
X164562265Y-120179082D01*
X164567053Y-120176523D01*
X164567538Y-120177430D01*
X164628721Y-120158266D01*
X164696103Y-120176744D01*
X164742798Y-120228719D01*
X164753981Y-120297687D01*
X164745508Y-120329697D01*
X164730263Y-120366502D01*
X164730261Y-120366510D01*
X164699500Y-120521153D01*
X164699500Y-120678846D01*
X164730261Y-120833489D01*
X164732031Y-120839324D01*
X164729279Y-120840158D01*
X164735503Y-120897359D01*
X164704309Y-120959878D01*
X164644266Y-120995608D01*
X164613445Y-120999500D01*
X156345134Y-120999500D01*
X156278095Y-120979815D01*
X156232340Y-120927011D01*
X156222396Y-120857853D01*
X156230573Y-120828047D01*
X156269737Y-120733497D01*
X156300500Y-120578842D01*
X156300500Y-120421158D01*
X156300500Y-120421155D01*
X156300499Y-120421153D01*
X156269738Y-120266510D01*
X156269737Y-120266503D01*
X156269735Y-120266498D01*
X156209397Y-120120827D01*
X156209390Y-120120814D01*
X156121789Y-119989711D01*
X156121786Y-119989707D01*
X156010292Y-119878213D01*
X156010288Y-119878210D01*
X155879185Y-119790609D01*
X155879172Y-119790602D01*
X155733501Y-119730264D01*
X155733489Y-119730261D01*
X155578845Y-119699500D01*
X155578842Y-119699500D01*
X155421158Y-119699500D01*
X155421155Y-119699500D01*
X155266510Y-119730261D01*
X155266498Y-119730264D01*
X155120827Y-119790602D01*
X155120814Y-119790609D01*
X154989711Y-119878210D01*
X154989707Y-119878213D01*
X154878213Y-119989707D01*
X154878210Y-119989711D01*
X154790609Y-120120814D01*
X154790602Y-120120827D01*
X154730264Y-120266498D01*
X154730261Y-120266510D01*
X154699500Y-120421153D01*
X154699500Y-120578846D01*
X154719392Y-120678846D01*
X154730263Y-120733497D01*
X154764030Y-120815019D01*
X154769427Y-120828047D01*
X154776896Y-120897517D01*
X154745621Y-120959996D01*
X154685532Y-120995648D01*
X154654866Y-120999500D01*
X120209526Y-120999500D01*
X120142487Y-120979815D01*
X120096732Y-120927011D01*
X120086788Y-120857853D01*
X120115813Y-120794297D01*
X120130861Y-120779647D01*
X120187105Y-120733489D01*
X120353627Y-120596828D01*
X120596828Y-120353627D01*
X120815019Y-120087760D01*
X121006100Y-119801787D01*
X121168231Y-119498462D01*
X121299850Y-119180705D01*
X121399690Y-118851578D01*
X121431709Y-118690609D01*
X121433590Y-118681153D01*
X144769500Y-118681153D01*
X144769500Y-118838846D01*
X144800261Y-118993489D01*
X144800264Y-118993501D01*
X144860602Y-119139172D01*
X144860609Y-119139185D01*
X144948210Y-119270288D01*
X144948213Y-119270292D01*
X145059707Y-119381786D01*
X145059711Y-119381789D01*
X145190814Y-119469390D01*
X145190827Y-119469397D01*
X145336498Y-119529735D01*
X145336503Y-119529737D01*
X145491153Y-119560499D01*
X145491156Y-119560500D01*
X145491158Y-119560500D01*
X145648844Y-119560500D01*
X145648845Y-119560499D01*
X145803497Y-119529737D01*
X145949179Y-119469394D01*
X146080289Y-119381789D01*
X146140925Y-119321153D01*
X147399500Y-119321153D01*
X147399500Y-119478846D01*
X147430261Y-119633489D01*
X147430264Y-119633501D01*
X147490602Y-119779172D01*
X147490609Y-119779185D01*
X147578210Y-119910288D01*
X147578213Y-119910292D01*
X147689707Y-120021786D01*
X147689711Y-120021789D01*
X147820814Y-120109390D01*
X147820827Y-120109397D01*
X147925758Y-120152860D01*
X147966503Y-120169737D01*
X148121153Y-120200499D01*
X148121156Y-120200500D01*
X148121158Y-120200500D01*
X148278844Y-120200500D01*
X148278845Y-120200499D01*
X148433497Y-120169737D01*
X148551592Y-120120821D01*
X148579172Y-120109397D01*
X148579172Y-120109396D01*
X148579179Y-120109394D01*
X148710289Y-120021789D01*
X148821789Y-119910289D01*
X148909394Y-119779179D01*
X148969737Y-119633497D01*
X149000500Y-119478842D01*
X149000500Y-119321158D01*
X149000500Y-119321155D01*
X149000499Y-119321153D01*
X148980022Y-119218211D01*
X148969737Y-119166503D01*
X148958416Y-119139172D01*
X148909397Y-119020827D01*
X148909390Y-119020814D01*
X148821789Y-118889711D01*
X148821786Y-118889707D01*
X148710292Y-118778213D01*
X148710288Y-118778210D01*
X148579185Y-118690609D01*
X148579172Y-118690602D01*
X148433501Y-118630264D01*
X148433489Y-118630261D01*
X148278845Y-118599500D01*
X148278842Y-118599500D01*
X148121158Y-118599500D01*
X148121155Y-118599500D01*
X147966510Y-118630261D01*
X147966498Y-118630264D01*
X147820827Y-118690602D01*
X147820814Y-118690609D01*
X147689711Y-118778210D01*
X147689707Y-118778213D01*
X147578213Y-118889707D01*
X147578210Y-118889711D01*
X147490609Y-119020814D01*
X147490602Y-119020827D01*
X147430264Y-119166498D01*
X147430261Y-119166510D01*
X147399500Y-119321153D01*
X146140925Y-119321153D01*
X146191789Y-119270289D01*
X146205751Y-119249394D01*
X146207902Y-119246175D01*
X146279390Y-119139185D01*
X146279390Y-119139184D01*
X146279394Y-119139179D01*
X146339737Y-118993497D01*
X146370500Y-118838842D01*
X146370500Y-118681158D01*
X146370500Y-118681155D01*
X146370499Y-118681153D01*
X146364467Y-118650827D01*
X146339737Y-118526503D01*
X146328759Y-118500000D01*
X146279397Y-118380827D01*
X146279390Y-118380814D01*
X146204498Y-118268731D01*
X146183620Y-118202054D01*
X146202104Y-118134673D01*
X146219926Y-118112152D01*
X146221789Y-118110289D01*
X146309394Y-117979179D01*
X146369737Y-117833497D01*
X146400500Y-117678842D01*
X146400500Y-117521158D01*
X146400500Y-117521155D01*
X146400499Y-117521153D01*
X146392148Y-117479172D01*
X146369737Y-117366503D01*
X146345711Y-117308499D01*
X146309397Y-117220827D01*
X146309390Y-117220814D01*
X146221789Y-117089711D01*
X146221786Y-117089707D01*
X146110292Y-116978213D01*
X146110288Y-116978210D01*
X145979185Y-116890609D01*
X145979172Y-116890602D01*
X145833501Y-116830264D01*
X145833489Y-116830261D01*
X145678845Y-116799500D01*
X145678842Y-116799500D01*
X145521158Y-116799500D01*
X145521155Y-116799500D01*
X145366510Y-116830261D01*
X145366498Y-116830264D01*
X145220827Y-116890602D01*
X145220814Y-116890609D01*
X145089711Y-116978210D01*
X145089707Y-116978213D01*
X144978213Y-117089707D01*
X144978210Y-117089711D01*
X144890609Y-117220814D01*
X144890602Y-117220827D01*
X144830264Y-117366498D01*
X144830261Y-117366510D01*
X144799500Y-117521153D01*
X144799500Y-117678846D01*
X144830261Y-117833489D01*
X144830264Y-117833501D01*
X144890602Y-117979172D01*
X144890609Y-117979185D01*
X144965501Y-118091268D01*
X144986379Y-118157946D01*
X144967894Y-118225326D01*
X144950087Y-118247833D01*
X144948216Y-118249703D01*
X144948210Y-118249711D01*
X144860609Y-118380814D01*
X144860602Y-118380827D01*
X144800264Y-118526498D01*
X144800261Y-118526510D01*
X144769500Y-118681153D01*
X121433590Y-118681153D01*
X121439613Y-118650874D01*
X121439613Y-118650873D01*
X121465703Y-118519711D01*
X121466789Y-118514250D01*
X121500500Y-118171969D01*
X121500500Y-117828031D01*
X121466789Y-117485750D01*
X121399690Y-117148422D01*
X121299850Y-116819295D01*
X121168231Y-116501538D01*
X121156100Y-116478842D01*
X121099805Y-116373521D01*
X121099804Y-116373520D01*
X121071813Y-116321153D01*
X148399500Y-116321153D01*
X148399500Y-116478846D01*
X148430261Y-116633489D01*
X148430264Y-116633501D01*
X148490602Y-116779172D01*
X148490609Y-116779185D01*
X148578210Y-116910288D01*
X148578213Y-116910292D01*
X148689707Y-117021786D01*
X148689711Y-117021789D01*
X148820814Y-117109390D01*
X148820827Y-117109397D01*
X148944130Y-117160470D01*
X148966503Y-117169737D01*
X149115578Y-117199390D01*
X149121153Y-117200499D01*
X149121156Y-117200500D01*
X149121158Y-117200500D01*
X149278844Y-117200500D01*
X149278845Y-117200499D01*
X149433497Y-117169737D01*
X149579179Y-117109394D01*
X149710289Y-117021789D01*
X149821789Y-116910289D01*
X149909394Y-116779179D01*
X149937111Y-116712263D01*
X149980950Y-116657863D01*
X150047244Y-116635797D01*
X150114943Y-116653076D01*
X150162554Y-116704212D01*
X150169693Y-116722122D01*
X150230602Y-116869172D01*
X150230609Y-116869185D01*
X150318210Y-117000288D01*
X150318213Y-117000292D01*
X150429707Y-117111786D01*
X150429711Y-117111789D01*
X150560814Y-117199390D01*
X150560827Y-117199397D01*
X150706498Y-117259735D01*
X150706503Y-117259737D01*
X150841039Y-117286498D01*
X150861153Y-117290499D01*
X150861156Y-117290500D01*
X150861158Y-117290500D01*
X151018844Y-117290500D01*
X151018845Y-117290499D01*
X151173497Y-117259737D01*
X151286166Y-117213067D01*
X151319172Y-117199397D01*
X151319172Y-117199396D01*
X151319179Y-117199394D01*
X151450289Y-117111789D01*
X151561789Y-117000289D01*
X151564554Y-116996151D01*
X153539500Y-116996151D01*
X153539500Y-117153844D01*
X153570261Y-117308487D01*
X153570264Y-117308499D01*
X153630602Y-117454170D01*
X153630609Y-117454183D01*
X153718210Y-117585286D01*
X153718213Y-117585290D01*
X153829707Y-117696784D01*
X153829711Y-117696787D01*
X153960814Y-117784388D01*
X153960827Y-117784395D01*
X154103495Y-117843489D01*
X154106503Y-117844735D01*
X154232186Y-117869735D01*
X154261153Y-117875497D01*
X154261156Y-117875498D01*
X154261158Y-117875498D01*
X154418844Y-117875498D01*
X154418845Y-117875497D01*
X154573497Y-117844735D01*
X154696944Y-117793601D01*
X154766411Y-117786133D01*
X154828891Y-117817408D01*
X154864543Y-117877497D01*
X154862049Y-117947322D01*
X154832077Y-117995843D01*
X154798214Y-118029706D01*
X154798210Y-118029711D01*
X154710609Y-118160814D01*
X154710602Y-118160827D01*
X154650264Y-118306498D01*
X154650261Y-118306510D01*
X154619500Y-118461153D01*
X154619500Y-118618846D01*
X154650261Y-118773489D01*
X154650264Y-118773501D01*
X154710602Y-118919172D01*
X154710609Y-118919185D01*
X154798210Y-119050288D01*
X154798213Y-119050292D01*
X154909707Y-119161786D01*
X154909711Y-119161789D01*
X155040814Y-119249390D01*
X155040827Y-119249397D01*
X155186498Y-119309735D01*
X155186503Y-119309737D01*
X155341153Y-119340499D01*
X155341156Y-119340500D01*
X155341158Y-119340500D01*
X155498844Y-119340500D01*
X155498845Y-119340499D01*
X155653497Y-119309737D01*
X155799179Y-119249394D01*
X155930289Y-119161789D01*
X156041789Y-119050289D01*
X156129394Y-118919179D01*
X156189737Y-118773497D01*
X156220500Y-118618842D01*
X156220500Y-118461158D01*
X156220500Y-118461155D01*
X156220499Y-118461153D01*
X156215119Y-118434108D01*
X156189737Y-118306503D01*
X156182792Y-118289735D01*
X156129397Y-118160827D01*
X156129390Y-118160814D01*
X156041789Y-118029711D01*
X156041786Y-118029707D01*
X155930292Y-117918213D01*
X155930288Y-117918210D01*
X155799185Y-117830609D01*
X155799172Y-117830602D01*
X155653501Y-117770264D01*
X155653489Y-117770261D01*
X155498845Y-117739500D01*
X155498842Y-117739500D01*
X155341158Y-117739500D01*
X155341155Y-117739500D01*
X155186510Y-117770261D01*
X155186498Y-117770264D01*
X155063056Y-117821395D01*
X154993586Y-117828864D01*
X154931107Y-117797588D01*
X154895456Y-117737499D01*
X154897950Y-117667674D01*
X154927924Y-117619152D01*
X154961786Y-117585290D01*
X154961789Y-117585287D01*
X155049394Y-117454177D01*
X155054789Y-117441153D01*
X156749500Y-117441153D01*
X156749500Y-117598846D01*
X156780261Y-117753489D01*
X156780264Y-117753501D01*
X156840602Y-117899172D01*
X156840609Y-117899185D01*
X156928210Y-118030288D01*
X156928213Y-118030292D01*
X157039707Y-118141786D01*
X157039711Y-118141789D01*
X157170814Y-118229390D01*
X157170827Y-118229397D01*
X157316498Y-118289735D01*
X157316503Y-118289737D01*
X157465598Y-118319394D01*
X157471153Y-118320499D01*
X157471156Y-118320500D01*
X157471158Y-118320500D01*
X157628844Y-118320500D01*
X157628845Y-118320499D01*
X157783497Y-118289737D01*
X157929179Y-118229394D01*
X158060289Y-118141789D01*
X158171789Y-118030289D01*
X158259394Y-117899179D01*
X158319737Y-117753497D01*
X158350500Y-117598842D01*
X158350500Y-117441158D01*
X158350500Y-117441155D01*
X158350499Y-117441153D01*
X158339849Y-117387614D01*
X158319737Y-117286503D01*
X158308650Y-117259737D01*
X158259397Y-117140827D01*
X158259390Y-117140814D01*
X158221399Y-117083957D01*
X158179434Y-117021153D01*
X159199500Y-117021153D01*
X159199500Y-117178846D01*
X159230261Y-117333489D01*
X159230264Y-117333501D01*
X159290602Y-117479172D01*
X159290609Y-117479185D01*
X159378210Y-117610288D01*
X159378213Y-117610292D01*
X159489707Y-117721786D01*
X159489711Y-117721789D01*
X159620814Y-117809390D01*
X159620827Y-117809397D01*
X159722740Y-117851610D01*
X159766503Y-117869737D01*
X159914482Y-117899172D01*
X159921153Y-117900499D01*
X159921156Y-117900500D01*
X159921158Y-117900500D01*
X160078844Y-117900500D01*
X160078845Y-117900499D01*
X160233497Y-117869737D01*
X160379179Y-117809394D01*
X160510289Y-117721789D01*
X160621789Y-117610289D01*
X160709394Y-117479179D01*
X160769737Y-117333497D01*
X160800500Y-117178842D01*
X160800500Y-117021158D01*
X160800500Y-117021155D01*
X160800499Y-117021153D01*
X160778447Y-116910292D01*
X160769737Y-116866503D01*
X160759379Y-116841496D01*
X160709397Y-116720827D01*
X160709390Y-116720814D01*
X160621789Y-116589711D01*
X160621786Y-116589707D01*
X160510292Y-116478213D01*
X160510288Y-116478210D01*
X160379185Y-116390609D01*
X160379172Y-116390602D01*
X160233501Y-116330264D01*
X160233489Y-116330261D01*
X160078845Y-116299500D01*
X160078842Y-116299500D01*
X159921158Y-116299500D01*
X159921155Y-116299500D01*
X159766510Y-116330261D01*
X159766498Y-116330264D01*
X159620827Y-116390602D01*
X159620814Y-116390609D01*
X159489711Y-116478210D01*
X159489707Y-116478213D01*
X159378213Y-116589707D01*
X159378210Y-116589711D01*
X159290609Y-116720814D01*
X159290602Y-116720827D01*
X159230264Y-116866498D01*
X159230261Y-116866510D01*
X159199500Y-117021153D01*
X158179434Y-117021153D01*
X158171789Y-117009711D01*
X158171786Y-117009707D01*
X158060292Y-116898213D01*
X158060288Y-116898210D01*
X157929185Y-116810609D01*
X157929172Y-116810602D01*
X157783501Y-116750264D01*
X157783489Y-116750261D01*
X157628845Y-116719500D01*
X157628842Y-116719500D01*
X157471158Y-116719500D01*
X157471155Y-116719500D01*
X157316510Y-116750261D01*
X157316498Y-116750264D01*
X157170827Y-116810602D01*
X157170814Y-116810609D01*
X157039711Y-116898210D01*
X157039707Y-116898213D01*
X156928213Y-117009707D01*
X156928210Y-117009711D01*
X156840609Y-117140814D01*
X156840602Y-117140827D01*
X156780264Y-117286498D01*
X156780261Y-117286510D01*
X156749500Y-117441153D01*
X155054789Y-117441153D01*
X155109737Y-117308495D01*
X155140500Y-117153840D01*
X155140500Y-116996156D01*
X155140500Y-116996153D01*
X155140499Y-116996151D01*
X155123420Y-116910289D01*
X155109737Y-116841501D01*
X155083925Y-116779185D01*
X155049397Y-116695825D01*
X155049390Y-116695812D01*
X154961789Y-116564709D01*
X154961786Y-116564705D01*
X154850292Y-116453211D01*
X154850288Y-116453208D01*
X154719185Y-116365607D01*
X154719172Y-116365600D01*
X154573501Y-116305262D01*
X154573489Y-116305259D01*
X154418845Y-116274498D01*
X154418842Y-116274498D01*
X154261158Y-116274498D01*
X154261155Y-116274498D01*
X154106510Y-116305259D01*
X154106498Y-116305262D01*
X153960827Y-116365600D01*
X153960814Y-116365607D01*
X153829711Y-116453208D01*
X153829707Y-116453211D01*
X153718213Y-116564705D01*
X153718210Y-116564709D01*
X153630609Y-116695812D01*
X153630602Y-116695825D01*
X153570264Y-116841496D01*
X153570261Y-116841508D01*
X153539500Y-116996151D01*
X151564554Y-116996151D01*
X151649394Y-116869179D01*
X151650503Y-116866503D01*
X151673654Y-116810609D01*
X151709737Y-116723497D01*
X151711211Y-116716085D01*
X151743590Y-116654174D01*
X151804303Y-116619596D01*
X151874073Y-116623330D01*
X151920510Y-116652589D01*
X151989707Y-116721786D01*
X151989711Y-116721789D01*
X152120814Y-116809390D01*
X152120827Y-116809397D01*
X152258683Y-116866498D01*
X152266503Y-116869737D01*
X152409661Y-116898213D01*
X152421153Y-116900499D01*
X152421156Y-116900500D01*
X152421158Y-116900500D01*
X152578844Y-116900500D01*
X152578845Y-116900499D01*
X152733497Y-116869737D01*
X152879179Y-116809394D01*
X153010289Y-116721789D01*
X153121789Y-116610289D01*
X153209394Y-116479179D01*
X153269737Y-116333497D01*
X153300500Y-116178842D01*
X153300500Y-116021158D01*
X153300500Y-116021155D01*
X153300499Y-116021153D01*
X153290405Y-115970406D01*
X153269737Y-115866503D01*
X153264864Y-115854738D01*
X153209397Y-115720827D01*
X153209390Y-115720814D01*
X153121789Y-115589711D01*
X153121786Y-115589707D01*
X153010292Y-115478213D01*
X153010288Y-115478210D01*
X152879185Y-115390609D01*
X152879172Y-115390602D01*
X152733501Y-115330264D01*
X152733489Y-115330261D01*
X152578845Y-115299500D01*
X152578842Y-115299500D01*
X152421158Y-115299500D01*
X152421155Y-115299500D01*
X152266510Y-115330261D01*
X152266498Y-115330264D01*
X152120827Y-115390602D01*
X152120814Y-115390609D01*
X151989711Y-115478210D01*
X151989707Y-115478213D01*
X151878213Y-115589707D01*
X151878210Y-115589711D01*
X151790609Y-115720814D01*
X151790602Y-115720827D01*
X151730264Y-115866498D01*
X151730261Y-115866507D01*
X151728787Y-115873922D01*
X151696401Y-115935832D01*
X151635685Y-115970406D01*
X151565916Y-115966665D01*
X151519489Y-115937410D01*
X151450292Y-115868213D01*
X151450288Y-115868210D01*
X151319185Y-115780609D01*
X151319172Y-115780602D01*
X151173501Y-115720264D01*
X151173489Y-115720261D01*
X151018845Y-115689500D01*
X151018842Y-115689500D01*
X150861158Y-115689500D01*
X150861155Y-115689500D01*
X150706510Y-115720261D01*
X150706498Y-115720264D01*
X150560827Y-115780602D01*
X150560814Y-115780609D01*
X150429711Y-115868210D01*
X150429707Y-115868213D01*
X150318213Y-115979707D01*
X150318210Y-115979711D01*
X150230609Y-116110814D01*
X150230604Y-116110824D01*
X150202889Y-116177734D01*
X150159047Y-116232138D01*
X150092753Y-116254202D01*
X150025054Y-116236922D01*
X149977444Y-116185785D01*
X149970319Y-116167907D01*
X149909397Y-116020827D01*
X149909390Y-116020814D01*
X149821789Y-115889711D01*
X149821786Y-115889707D01*
X149710292Y-115778213D01*
X149710288Y-115778210D01*
X149579185Y-115690609D01*
X149579172Y-115690602D01*
X149433501Y-115630264D01*
X149433489Y-115630261D01*
X149278845Y-115599500D01*
X149278842Y-115599500D01*
X149121158Y-115599500D01*
X149121155Y-115599500D01*
X148966510Y-115630261D01*
X148966498Y-115630264D01*
X148820827Y-115690602D01*
X148820814Y-115690609D01*
X148689711Y-115778210D01*
X148689707Y-115778213D01*
X148578213Y-115889707D01*
X148578210Y-115889711D01*
X148490609Y-116020814D01*
X148490602Y-116020827D01*
X148430264Y-116166498D01*
X148430261Y-116166510D01*
X148399500Y-116321153D01*
X121071813Y-116321153D01*
X121046875Y-116274498D01*
X121006100Y-116198213D01*
X120815019Y-115912240D01*
X120596828Y-115646373D01*
X120596827Y-115646372D01*
X120596823Y-115646367D01*
X120353632Y-115403176D01*
X120264787Y-115330263D01*
X120131836Y-115221153D01*
X138499500Y-115221153D01*
X138499500Y-115378846D01*
X138530261Y-115533489D01*
X138530264Y-115533501D01*
X138590602Y-115679172D01*
X138590609Y-115679185D01*
X138678210Y-115810288D01*
X138678213Y-115810292D01*
X138789707Y-115921786D01*
X138789711Y-115921789D01*
X138920814Y-116009390D01*
X138920827Y-116009397D01*
X139066498Y-116069735D01*
X139066503Y-116069737D01*
X139221153Y-116100499D01*
X139221156Y-116100500D01*
X139221158Y-116100500D01*
X139378844Y-116100500D01*
X139378845Y-116100499D01*
X139533497Y-116069737D01*
X139651592Y-116020821D01*
X139679172Y-116009397D01*
X139679172Y-116009396D01*
X139679179Y-116009394D01*
X139810289Y-115921789D01*
X139921789Y-115810289D01*
X140009394Y-115679179D01*
X140069737Y-115533497D01*
X140100500Y-115378842D01*
X140100500Y-115221158D01*
X140100500Y-115221155D01*
X140100499Y-115221153D01*
X140085204Y-115144257D01*
X140081603Y-115126153D01*
X143974500Y-115126153D01*
X143974500Y-115283846D01*
X144005261Y-115438489D01*
X144005264Y-115438501D01*
X144065602Y-115584172D01*
X144065609Y-115584185D01*
X144153210Y-115715288D01*
X144153213Y-115715292D01*
X144264707Y-115826786D01*
X144264711Y-115826789D01*
X144395814Y-115914390D01*
X144395827Y-115914397D01*
X144522015Y-115966665D01*
X144541503Y-115974737D01*
X144696153Y-116005499D01*
X144696156Y-116005500D01*
X144696158Y-116005500D01*
X144853844Y-116005500D01*
X144853845Y-116005499D01*
X145008497Y-115974737D01*
X145154179Y-115914394D01*
X145285289Y-115826789D01*
X145369149Y-115742928D01*
X145430470Y-115709445D01*
X145500162Y-115714429D01*
X145525720Y-115727509D01*
X145625814Y-115794390D01*
X145625827Y-115794397D01*
X145704032Y-115826790D01*
X145771503Y-115854737D01*
X145919557Y-115884187D01*
X145926153Y-115885499D01*
X145926156Y-115885500D01*
X145926158Y-115885500D01*
X146083844Y-115885500D01*
X146083845Y-115885499D01*
X146238497Y-115854737D01*
X146384179Y-115794394D01*
X146515289Y-115706789D01*
X146626789Y-115595289D01*
X146714394Y-115464179D01*
X146774737Y-115318497D01*
X146805500Y-115163842D01*
X146805500Y-115006158D01*
X146805500Y-115006155D01*
X146805499Y-115006153D01*
X146774737Y-114851503D01*
X146766564Y-114831772D01*
X146714397Y-114705827D01*
X146714390Y-114705814D01*
X146626789Y-114574711D01*
X146626786Y-114574707D01*
X146515292Y-114463213D01*
X146515288Y-114463210D01*
X146384185Y-114375609D01*
X146384172Y-114375602D01*
X146238501Y-114315264D01*
X146238489Y-114315261D01*
X146083845Y-114284500D01*
X146083842Y-114284500D01*
X145926158Y-114284500D01*
X145926155Y-114284500D01*
X145771510Y-114315261D01*
X145771498Y-114315264D01*
X145625827Y-114375602D01*
X145625814Y-114375609D01*
X145494711Y-114463210D01*
X145410851Y-114547070D01*
X145349527Y-114580554D01*
X145279836Y-114575570D01*
X145254279Y-114562490D01*
X145154185Y-114495609D01*
X145154172Y-114495602D01*
X145008501Y-114435264D01*
X145008489Y-114435261D01*
X144853845Y-114404500D01*
X144853842Y-114404500D01*
X144696158Y-114404500D01*
X144696155Y-114404500D01*
X144541510Y-114435261D01*
X144541498Y-114435264D01*
X144395827Y-114495602D01*
X144395814Y-114495609D01*
X144264711Y-114583210D01*
X144264707Y-114583213D01*
X144153213Y-114694707D01*
X144153210Y-114694711D01*
X144065609Y-114825814D01*
X144065602Y-114825827D01*
X144005264Y-114971498D01*
X144005261Y-114971510D01*
X143974500Y-115126153D01*
X140081603Y-115126153D01*
X140069738Y-115066508D01*
X140069737Y-115066507D01*
X140069737Y-115066503D01*
X140069735Y-115066498D01*
X140009397Y-114920827D01*
X140009390Y-114920814D01*
X139921789Y-114789711D01*
X139921786Y-114789707D01*
X139810292Y-114678213D01*
X139810288Y-114678210D01*
X139679185Y-114590609D01*
X139679172Y-114590602D01*
X139533501Y-114530264D01*
X139533489Y-114530261D01*
X139378845Y-114499500D01*
X139378842Y-114499500D01*
X139221158Y-114499500D01*
X139221155Y-114499500D01*
X139066510Y-114530261D01*
X139066498Y-114530264D01*
X138920827Y-114590602D01*
X138920814Y-114590609D01*
X138789711Y-114678210D01*
X138789707Y-114678213D01*
X138678213Y-114789707D01*
X138678210Y-114789711D01*
X138590609Y-114920814D01*
X138590602Y-114920827D01*
X138530264Y-115066498D01*
X138530261Y-115066510D01*
X138499500Y-115221153D01*
X120131836Y-115221153D01*
X120087760Y-115184981D01*
X119801787Y-114993900D01*
X119801782Y-114993897D01*
X119801775Y-114993893D01*
X119498469Y-114831772D01*
X119498464Y-114831770D01*
X119484116Y-114825827D01*
X119396915Y-114789707D01*
X119180706Y-114700150D01*
X118851572Y-114600308D01*
X118514248Y-114533210D01*
X118514249Y-114533210D01*
X118256456Y-114507821D01*
X118171969Y-114499500D01*
X117828031Y-114499500D01*
X117749966Y-114507188D01*
X117485750Y-114533210D01*
X117148427Y-114600308D01*
X116819293Y-114700150D01*
X116501535Y-114831770D01*
X116501530Y-114831772D01*
X116198224Y-114993893D01*
X116198206Y-114993904D01*
X115912248Y-115184975D01*
X115912234Y-115184985D01*
X115646367Y-115403176D01*
X115403176Y-115646367D01*
X115220353Y-115869139D01*
X115162608Y-115908473D01*
X115092763Y-115910344D01*
X115032995Y-115874157D01*
X115002279Y-115811401D01*
X115000500Y-115790474D01*
X115000500Y-107849983D01*
X117499500Y-107849983D01*
X117499500Y-109150001D01*
X117499501Y-109150018D01*
X117510000Y-109252796D01*
X117510001Y-109252799D01*
X117565185Y-109419331D01*
X117565187Y-109419336D01*
X117598628Y-109473552D01*
X117613837Y-109498211D01*
X117657289Y-109568657D01*
X117781344Y-109692712D01*
X117936120Y-109788178D01*
X117982845Y-109840126D01*
X117994068Y-109909088D01*
X117966224Y-109973171D01*
X117958706Y-109981398D01*
X117819889Y-110120215D01*
X117694951Y-110292179D01*
X117598444Y-110481585D01*
X117532753Y-110683760D01*
X117509688Y-110829390D01*
X117499500Y-110893713D01*
X117499500Y-111106287D01*
X117503298Y-111130264D01*
X117529977Y-111298713D01*
X117532754Y-111316243D01*
X117597525Y-111515588D01*
X117598444Y-111518414D01*
X117694951Y-111707820D01*
X117819890Y-111879786D01*
X117970213Y-112030109D01*
X118142179Y-112155048D01*
X118142181Y-112155049D01*
X118142184Y-112155051D01*
X118331588Y-112251557D01*
X118533757Y-112317246D01*
X118743713Y-112350500D01*
X118743714Y-112350500D01*
X119256286Y-112350500D01*
X119256287Y-112350500D01*
X119466243Y-112317246D01*
X119668412Y-112251557D01*
X119857816Y-112155051D01*
X120026635Y-112032398D01*
X120029786Y-112030109D01*
X120029788Y-112030106D01*
X120029792Y-112030104D01*
X120180104Y-111879792D01*
X120222707Y-111821153D01*
X132899500Y-111821153D01*
X132899500Y-111978846D01*
X132930261Y-112133489D01*
X132930264Y-112133501D01*
X132990602Y-112279172D01*
X132990609Y-112279185D01*
X133078210Y-112410288D01*
X133078213Y-112410292D01*
X133189707Y-112521786D01*
X133189711Y-112521789D01*
X133320814Y-112609390D01*
X133320827Y-112609397D01*
X133466498Y-112669735D01*
X133466503Y-112669737D01*
X133621153Y-112700499D01*
X133621156Y-112700500D01*
X133621158Y-112700500D01*
X133778844Y-112700500D01*
X133778845Y-112700499D01*
X133933497Y-112669737D01*
X134079179Y-112609394D01*
X134210289Y-112521789D01*
X134321789Y-112410289D01*
X134409394Y-112279179D01*
X134469737Y-112133497D01*
X134500500Y-111978842D01*
X134500500Y-111821158D01*
X134500500Y-111821155D01*
X134500499Y-111821153D01*
X134500322Y-111820261D01*
X134469737Y-111666503D01*
X134469735Y-111666498D01*
X134409397Y-111520827D01*
X134409390Y-111520814D01*
X134321789Y-111389711D01*
X134321786Y-111389707D01*
X134210292Y-111278213D01*
X134210288Y-111278210D01*
X134079185Y-111190609D01*
X134079173Y-111190602D01*
X134052674Y-111179627D01*
X133933501Y-111130264D01*
X133933489Y-111130261D01*
X133778845Y-111099500D01*
X133778842Y-111099500D01*
X133621158Y-111099500D01*
X133621155Y-111099500D01*
X133466510Y-111130261D01*
X133466498Y-111130264D01*
X133320827Y-111190602D01*
X133320814Y-111190609D01*
X133189711Y-111278210D01*
X133189707Y-111278213D01*
X133078213Y-111389707D01*
X133078210Y-111389711D01*
X132990609Y-111520814D01*
X132990602Y-111520827D01*
X132930264Y-111666498D01*
X132930261Y-111666510D01*
X132899500Y-111821153D01*
X120222707Y-111821153D01*
X120305051Y-111707816D01*
X120401557Y-111518412D01*
X120467246Y-111316243D01*
X120500500Y-111106287D01*
X120500500Y-111071153D01*
X140199500Y-111071153D01*
X140199500Y-111228846D01*
X140230261Y-111383489D01*
X140230264Y-111383501D01*
X140290602Y-111529172D01*
X140290609Y-111529185D01*
X140378210Y-111660288D01*
X140378213Y-111660292D01*
X140489707Y-111771786D01*
X140489711Y-111771789D01*
X140620814Y-111859390D01*
X140620827Y-111859397D01*
X140737141Y-111907575D01*
X140766503Y-111919737D01*
X140921153Y-111950499D01*
X140921156Y-111950500D01*
X140921158Y-111950500D01*
X140921315Y-111950500D01*
X140921395Y-111950523D01*
X140927218Y-111951097D01*
X140927109Y-111952201D01*
X140988354Y-111970185D01*
X141034109Y-112022989D01*
X141035876Y-112027048D01*
X141090602Y-112159172D01*
X141090609Y-112159185D01*
X141178210Y-112290288D01*
X141178213Y-112290292D01*
X141289707Y-112401786D01*
X141289711Y-112401789D01*
X141420814Y-112489390D01*
X141420827Y-112489397D01*
X141548908Y-112542449D01*
X141566503Y-112549737D01*
X141721153Y-112580499D01*
X141721156Y-112580500D01*
X141721158Y-112580500D01*
X141878843Y-112580500D01*
X141932316Y-112569863D01*
X141963620Y-112563636D01*
X142033211Y-112569863D01*
X142075493Y-112597572D01*
X142139707Y-112661786D01*
X142139711Y-112661789D01*
X142270814Y-112749390D01*
X142270827Y-112749397D01*
X142416498Y-112809735D01*
X142416503Y-112809737D01*
X142571153Y-112840499D01*
X142571156Y-112840500D01*
X142571158Y-112840500D01*
X142599476Y-112840500D01*
X142666515Y-112860185D01*
X142712270Y-112912989D01*
X142714037Y-112917048D01*
X142735630Y-112969179D01*
X142735631Y-112969182D01*
X142823234Y-113100288D01*
X142823237Y-113100292D01*
X142934731Y-113211786D01*
X142934735Y-113211789D01*
X143065838Y-113299390D01*
X143065851Y-113299397D01*
X143211522Y-113359735D01*
X143211527Y-113359737D01*
X143366177Y-113390499D01*
X143366180Y-113390500D01*
X143366182Y-113390500D01*
X143523868Y-113390500D01*
X143523869Y-113390499D01*
X143678521Y-113359737D01*
X143824203Y-113299394D01*
X143886486Y-113257777D01*
X143953162Y-113236899D01*
X144020542Y-113255383D01*
X144067233Y-113307361D01*
X144069937Y-113313424D01*
X144080603Y-113339173D01*
X144080609Y-113339185D01*
X144168210Y-113470288D01*
X144168213Y-113470292D01*
X144279707Y-113581786D01*
X144279711Y-113581789D01*
X144410814Y-113669390D01*
X144410827Y-113669397D01*
X144556498Y-113729735D01*
X144556503Y-113729737D01*
X144711153Y-113760499D01*
X144711156Y-113760500D01*
X144711158Y-113760500D01*
X144868844Y-113760500D01*
X144868845Y-113760499D01*
X145023497Y-113729737D01*
X145136166Y-113683067D01*
X145169172Y-113669397D01*
X145169172Y-113669396D01*
X145169179Y-113669394D01*
X145217828Y-113636888D01*
X149583765Y-113636888D01*
X149583765Y-113794581D01*
X149614526Y-113949224D01*
X149614529Y-113949236D01*
X149674867Y-114094907D01*
X149674874Y-114094920D01*
X149762475Y-114226023D01*
X149762478Y-114226027D01*
X149873972Y-114337521D01*
X149873976Y-114337524D01*
X150005079Y-114425125D01*
X150005092Y-114425132D01*
X150150763Y-114485470D01*
X150150768Y-114485472D01*
X150305418Y-114516234D01*
X150305421Y-114516235D01*
X150305423Y-114516235D01*
X150463109Y-114516235D01*
X150463110Y-114516234D01*
X150617762Y-114485472D01*
X150753652Y-114429185D01*
X150763437Y-114425132D01*
X150763437Y-114425131D01*
X150763444Y-114425129D01*
X150894554Y-114337524D01*
X151006054Y-114226024D01*
X151006061Y-114226013D01*
X151007087Y-114224764D01*
X151007802Y-114224276D01*
X151010362Y-114221717D01*
X151010847Y-114222202D01*
X151064828Y-114185422D01*
X151127142Y-114181799D01*
X151143687Y-114185090D01*
X151221155Y-114200500D01*
X151221158Y-114200500D01*
X151378844Y-114200500D01*
X151378845Y-114200499D01*
X151533497Y-114169737D01*
X151679179Y-114109394D01*
X151796275Y-114031153D01*
X152919500Y-114031153D01*
X152919500Y-114188846D01*
X152950261Y-114343489D01*
X152950264Y-114343501D01*
X153010602Y-114489172D01*
X153010609Y-114489185D01*
X153098210Y-114620288D01*
X153098213Y-114620292D01*
X153209707Y-114731786D01*
X153209711Y-114731789D01*
X153340814Y-114819390D01*
X153340827Y-114819397D01*
X153418356Y-114851510D01*
X153486503Y-114879737D01*
X153641153Y-114910499D01*
X153641156Y-114910500D01*
X153641158Y-114910500D01*
X153798844Y-114910500D01*
X153798845Y-114910499D01*
X153953497Y-114879737D01*
X154099179Y-114819394D01*
X154230289Y-114731789D01*
X154341789Y-114620289D01*
X154429394Y-114489179D01*
X154430930Y-114485472D01*
X154454247Y-114429179D01*
X154489737Y-114343497D01*
X154520500Y-114188842D01*
X154520500Y-114031158D01*
X154520500Y-114031155D01*
X154520499Y-114031153D01*
X154512166Y-113989257D01*
X154508565Y-113971153D01*
X156609500Y-113971153D01*
X156609500Y-114128846D01*
X156640261Y-114283489D01*
X156640264Y-114283501D01*
X156700602Y-114429172D01*
X156700609Y-114429185D01*
X156788210Y-114560288D01*
X156788213Y-114560292D01*
X156899707Y-114671786D01*
X156899711Y-114671789D01*
X157030814Y-114759390D01*
X157030827Y-114759397D01*
X157104013Y-114789711D01*
X157176503Y-114819737D01*
X157331153Y-114850499D01*
X157331156Y-114850500D01*
X157331158Y-114850500D01*
X157488844Y-114850500D01*
X157488845Y-114850499D01*
X157643497Y-114819737D01*
X157789179Y-114759394D01*
X157920289Y-114671789D01*
X158031789Y-114560289D01*
X158119394Y-114429179D01*
X158179737Y-114283497D01*
X158210500Y-114128842D01*
X158210500Y-113971158D01*
X158210500Y-113971155D01*
X158210499Y-113971153D01*
X158179738Y-113816510D01*
X158179737Y-113816503D01*
X158170655Y-113794577D01*
X158119397Y-113670827D01*
X158119390Y-113670814D01*
X158031789Y-113539711D01*
X158031786Y-113539707D01*
X157920289Y-113428210D01*
X157905259Y-113418168D01*
X157789185Y-113340609D01*
X157789172Y-113340602D01*
X157742217Y-113321153D01*
X178799500Y-113321153D01*
X178799500Y-113478846D01*
X178830261Y-113633489D01*
X178830264Y-113633501D01*
X178890602Y-113779172D01*
X178890609Y-113779185D01*
X178978210Y-113910288D01*
X178978213Y-113910292D01*
X179089707Y-114021786D01*
X179089711Y-114021789D01*
X179220814Y-114109390D01*
X179220827Y-114109397D01*
X179366498Y-114169735D01*
X179366503Y-114169737D01*
X179521153Y-114200499D01*
X179521156Y-114200500D01*
X179521158Y-114200500D01*
X179678844Y-114200500D01*
X179678845Y-114200499D01*
X179833497Y-114169737D01*
X179979179Y-114109394D01*
X180110289Y-114021789D01*
X180221789Y-113910289D01*
X180309394Y-113779179D01*
X180369737Y-113633497D01*
X180400500Y-113478842D01*
X180400500Y-113321158D01*
X180400500Y-113321155D01*
X180400499Y-113321153D01*
X180377483Y-113205446D01*
X180369737Y-113166503D01*
X180342312Y-113100292D01*
X180309397Y-113020827D01*
X180309390Y-113020814D01*
X180221789Y-112889711D01*
X180221786Y-112889707D01*
X180110292Y-112778213D01*
X180110288Y-112778210D01*
X179979185Y-112690609D01*
X179979172Y-112690602D01*
X179833501Y-112630264D01*
X179833489Y-112630261D01*
X179678845Y-112599500D01*
X179678842Y-112599500D01*
X179521158Y-112599500D01*
X179521155Y-112599500D01*
X179366510Y-112630261D01*
X179366498Y-112630264D01*
X179220827Y-112690602D01*
X179220814Y-112690609D01*
X179089711Y-112778210D01*
X179089707Y-112778213D01*
X178978213Y-112889707D01*
X178978210Y-112889711D01*
X178890609Y-113020814D01*
X178890602Y-113020827D01*
X178830264Y-113166498D01*
X178830261Y-113166510D01*
X178799500Y-113321153D01*
X157742217Y-113321153D01*
X157643501Y-113280264D01*
X157643489Y-113280261D01*
X157488845Y-113249500D01*
X157488842Y-113249500D01*
X157331158Y-113249500D01*
X157331155Y-113249500D01*
X157176510Y-113280261D01*
X157176498Y-113280264D01*
X157030827Y-113340602D01*
X157030814Y-113340609D01*
X156899711Y-113428210D01*
X156899707Y-113428213D01*
X156788213Y-113539707D01*
X156788210Y-113539711D01*
X156700609Y-113670814D01*
X156700602Y-113670827D01*
X156640264Y-113816498D01*
X156640261Y-113816510D01*
X156609500Y-113971153D01*
X154508565Y-113971153D01*
X154489738Y-113876508D01*
X154489737Y-113876507D01*
X154489737Y-113876503D01*
X154489735Y-113876498D01*
X154429397Y-113730827D01*
X154429390Y-113730814D01*
X154341789Y-113599711D01*
X154341786Y-113599707D01*
X154230292Y-113488213D01*
X154230288Y-113488210D01*
X154099185Y-113400609D01*
X154099172Y-113400602D01*
X153953501Y-113340264D01*
X153953489Y-113340261D01*
X153798845Y-113309500D01*
X153798842Y-113309500D01*
X153641158Y-113309500D01*
X153641155Y-113309500D01*
X153486510Y-113340261D01*
X153486498Y-113340264D01*
X153340827Y-113400602D01*
X153340814Y-113400609D01*
X153209711Y-113488210D01*
X153209707Y-113488213D01*
X153098213Y-113599707D01*
X153098210Y-113599711D01*
X153010609Y-113730814D01*
X153010602Y-113730827D01*
X152950264Y-113876498D01*
X152950261Y-113876510D01*
X152919500Y-114031153D01*
X151796275Y-114031153D01*
X151810289Y-114021789D01*
X151842821Y-113989257D01*
X151894694Y-113937385D01*
X151921786Y-113910292D01*
X151921789Y-113910289D01*
X152009394Y-113779179D01*
X152069737Y-113633497D01*
X152100500Y-113478842D01*
X152100500Y-113321158D01*
X152100500Y-113321155D01*
X152100499Y-113321153D01*
X152077483Y-113205446D01*
X152069737Y-113166503D01*
X152042312Y-113100292D01*
X152009397Y-113020827D01*
X152009390Y-113020814D01*
X151921789Y-112889711D01*
X151921786Y-112889707D01*
X151810292Y-112778213D01*
X151810288Y-112778210D01*
X151679185Y-112690609D01*
X151679172Y-112690602D01*
X151533501Y-112630264D01*
X151533489Y-112630261D01*
X151378845Y-112599500D01*
X151378842Y-112599500D01*
X151221158Y-112599500D01*
X151221155Y-112599500D01*
X151066510Y-112630261D01*
X151066498Y-112630264D01*
X150920827Y-112690602D01*
X150920814Y-112690609D01*
X150789711Y-112778210D01*
X150789707Y-112778213D01*
X150678210Y-112889710D01*
X150677162Y-112890988D01*
X150676443Y-112891477D01*
X150673903Y-112894018D01*
X150673420Y-112893535D01*
X150619414Y-112930319D01*
X150557122Y-112933935D01*
X150463111Y-112915235D01*
X150463107Y-112915235D01*
X150305423Y-112915235D01*
X150305420Y-112915235D01*
X150150775Y-112945996D01*
X150150763Y-112945999D01*
X150005092Y-113006337D01*
X150005079Y-113006344D01*
X149873976Y-113093945D01*
X149873972Y-113093948D01*
X149762478Y-113205442D01*
X149762475Y-113205446D01*
X149674874Y-113336549D01*
X149674867Y-113336562D01*
X149614529Y-113482233D01*
X149614526Y-113482245D01*
X149583765Y-113636888D01*
X145217828Y-113636888D01*
X145300289Y-113581789D01*
X145300292Y-113581786D01*
X145338959Y-113543120D01*
X145411786Y-113470292D01*
X145411789Y-113470289D01*
X145499394Y-113339179D01*
X145500481Y-113336556D01*
X145552160Y-113211789D01*
X145559737Y-113193497D01*
X145590500Y-113038842D01*
X145590500Y-112881158D01*
X145590500Y-112881155D01*
X145590499Y-112881153D01*
X145586328Y-112860185D01*
X145559737Y-112726503D01*
X145544868Y-112690606D01*
X145505134Y-112594678D01*
X145497665Y-112525209D01*
X145516593Y-112478336D01*
X145529394Y-112459179D01*
X145589737Y-112313497D01*
X145620500Y-112158842D01*
X145620500Y-112001158D01*
X145620500Y-112001155D01*
X145620499Y-112001153D01*
X145596521Y-111880608D01*
X145589737Y-111846503D01*
X145558790Y-111771789D01*
X145529396Y-111700825D01*
X145526525Y-111695454D01*
X145528458Y-111694420D01*
X145510521Y-111637168D01*
X145528994Y-111569784D01*
X145531371Y-111566082D01*
X145569394Y-111509179D01*
X145629737Y-111363497D01*
X145660500Y-111208842D01*
X145660500Y-111051158D01*
X145660500Y-111051155D01*
X145660499Y-111051153D01*
X145654658Y-111021789D01*
X145629737Y-110896503D01*
X145598526Y-110821153D01*
X163199500Y-110821153D01*
X163199500Y-110978846D01*
X163230261Y-111133489D01*
X163230264Y-111133501D01*
X163290602Y-111279172D01*
X163290609Y-111279185D01*
X163378210Y-111410288D01*
X163378213Y-111410292D01*
X163489707Y-111521786D01*
X163489711Y-111521789D01*
X163620814Y-111609390D01*
X163620827Y-111609397D01*
X163758683Y-111666498D01*
X163766503Y-111669737D01*
X163921153Y-111700499D01*
X163921156Y-111700500D01*
X163921158Y-111700500D01*
X164078844Y-111700500D01*
X164078845Y-111700499D01*
X164233497Y-111669737D01*
X164379179Y-111609394D01*
X164510289Y-111521789D01*
X164621789Y-111410289D01*
X164709394Y-111279179D01*
X164713489Y-111269294D01*
X164741984Y-111200499D01*
X164769737Y-111133497D01*
X164800500Y-110978842D01*
X164800500Y-110821158D01*
X164800500Y-110821155D01*
X164800499Y-110821153D01*
X164786509Y-110750821D01*
X164769737Y-110666503D01*
X164763814Y-110652203D01*
X164709397Y-110520827D01*
X164709390Y-110520814D01*
X164621790Y-110389712D01*
X164621784Y-110389705D01*
X164553232Y-110321153D01*
X166199500Y-110321153D01*
X166199500Y-110478846D01*
X166230261Y-110633489D01*
X166230264Y-110633501D01*
X166290602Y-110779172D01*
X166290609Y-110779185D01*
X166378210Y-110910288D01*
X166378213Y-110910292D01*
X166489707Y-111021786D01*
X166489711Y-111021789D01*
X166620814Y-111109390D01*
X166620827Y-111109397D01*
X166766498Y-111169735D01*
X166766503Y-111169737D01*
X166921153Y-111200499D01*
X166921156Y-111200500D01*
X166921158Y-111200500D01*
X167078844Y-111200500D01*
X167078845Y-111200499D01*
X167233497Y-111169737D01*
X167379179Y-111109394D01*
X167510289Y-111021789D01*
X167621789Y-110910289D01*
X167709394Y-110779179D01*
X167709397Y-110779172D01*
X167719416Y-110754983D01*
X170399500Y-110754983D01*
X170399500Y-112355001D01*
X170399501Y-112355018D01*
X170410000Y-112457796D01*
X170410001Y-112457799D01*
X170465185Y-112624331D01*
X170465187Y-112624336D01*
X170488286Y-112661786D01*
X170557288Y-112773656D01*
X170681344Y-112897712D01*
X170830666Y-112989814D01*
X170997203Y-113044999D01*
X171099991Y-113055500D01*
X172400008Y-113055499D01*
X172502797Y-113044999D01*
X172669334Y-112989814D01*
X172818656Y-112897712D01*
X172942712Y-112773656D01*
X173034814Y-112624334D01*
X173034814Y-112624331D01*
X173038178Y-112618879D01*
X173090126Y-112572154D01*
X173159088Y-112560931D01*
X173223170Y-112588774D01*
X173231398Y-112596294D01*
X173370213Y-112735109D01*
X173542179Y-112860048D01*
X173542181Y-112860049D01*
X173542184Y-112860051D01*
X173731588Y-112956557D01*
X173933757Y-113022246D01*
X174143713Y-113055500D01*
X174143714Y-113055500D01*
X174356286Y-113055500D01*
X174356287Y-113055500D01*
X174566243Y-113022246D01*
X174768412Y-112956557D01*
X174957816Y-112860051D01*
X174984727Y-112840499D01*
X175129786Y-112735109D01*
X175129788Y-112735106D01*
X175129792Y-112735104D01*
X175280104Y-112584792D01*
X175280106Y-112584788D01*
X175280109Y-112584786D01*
X175405048Y-112412820D01*
X175405047Y-112412820D01*
X175405051Y-112412816D01*
X175501557Y-112223412D01*
X175567246Y-112021243D01*
X175600500Y-111811287D01*
X175600500Y-111298713D01*
X175567246Y-111088757D01*
X175501557Y-110886588D01*
X175405051Y-110697184D01*
X175405049Y-110697181D01*
X175405048Y-110697179D01*
X175280109Y-110525213D01*
X175129786Y-110374890D01*
X174957820Y-110249951D01*
X174768414Y-110153444D01*
X174768413Y-110153443D01*
X174768412Y-110153443D01*
X174566243Y-110087754D01*
X174566241Y-110087753D01*
X174566240Y-110087753D01*
X174404957Y-110062208D01*
X174356287Y-110054500D01*
X174143713Y-110054500D01*
X174095042Y-110062208D01*
X173933760Y-110087753D01*
X173731585Y-110153444D01*
X173542179Y-110249951D01*
X173370215Y-110374889D01*
X173231398Y-110513706D01*
X173170075Y-110547190D01*
X173100383Y-110542206D01*
X173044450Y-110500334D01*
X173038178Y-110491120D01*
X172942712Y-110336344D01*
X172818657Y-110212289D01*
X172818656Y-110212288D01*
X172685672Y-110130263D01*
X172669336Y-110120187D01*
X172669331Y-110120185D01*
X172667862Y-110119698D01*
X172502797Y-110065001D01*
X172502795Y-110065000D01*
X172400010Y-110054500D01*
X171099998Y-110054500D01*
X171099981Y-110054501D01*
X170997203Y-110065000D01*
X170997200Y-110065001D01*
X170830668Y-110120185D01*
X170830663Y-110120187D01*
X170681342Y-110212289D01*
X170557289Y-110336342D01*
X170465187Y-110485663D01*
X170465185Y-110485668D01*
X170455894Y-110513706D01*
X170410001Y-110652203D01*
X170410001Y-110652204D01*
X170410000Y-110652204D01*
X170399500Y-110754983D01*
X167719416Y-110754983D01*
X167740376Y-110704382D01*
X167767163Y-110639711D01*
X167769737Y-110633497D01*
X167800500Y-110478842D01*
X167800500Y-110321158D01*
X167800500Y-110321155D01*
X167800499Y-110321153D01*
X167786336Y-110249951D01*
X167769737Y-110166503D01*
X167764328Y-110153444D01*
X167709397Y-110020827D01*
X167709390Y-110020814D01*
X167621789Y-109889711D01*
X167621786Y-109889707D01*
X167510292Y-109778213D01*
X167510288Y-109778210D01*
X167379185Y-109690609D01*
X167379172Y-109690602D01*
X167233501Y-109630264D01*
X167233489Y-109630261D01*
X167078845Y-109599500D01*
X167078842Y-109599500D01*
X166921158Y-109599500D01*
X166921155Y-109599500D01*
X166766510Y-109630261D01*
X166766498Y-109630264D01*
X166620827Y-109690602D01*
X166620814Y-109690609D01*
X166489711Y-109778210D01*
X166489707Y-109778213D01*
X166378213Y-109889707D01*
X166378210Y-109889711D01*
X166290609Y-110020814D01*
X166290602Y-110020827D01*
X166230264Y-110166498D01*
X166230261Y-110166510D01*
X166199500Y-110321153D01*
X164553232Y-110321153D01*
X164510292Y-110278213D01*
X164510288Y-110278210D01*
X164379185Y-110190609D01*
X164379172Y-110190602D01*
X164233501Y-110130264D01*
X164233489Y-110130261D01*
X164078845Y-110099500D01*
X164078842Y-110099500D01*
X163921158Y-110099500D01*
X163921155Y-110099500D01*
X163766510Y-110130261D01*
X163766498Y-110130264D01*
X163620827Y-110190602D01*
X163620814Y-110190609D01*
X163489711Y-110278210D01*
X163489707Y-110278213D01*
X163378213Y-110389707D01*
X163378210Y-110389711D01*
X163290609Y-110520814D01*
X163290602Y-110520827D01*
X163230264Y-110666498D01*
X163230261Y-110666510D01*
X163199500Y-110821153D01*
X145598526Y-110821153D01*
X145577681Y-110770827D01*
X145569397Y-110750827D01*
X145569390Y-110750814D01*
X145481789Y-110619711D01*
X145481786Y-110619707D01*
X145370292Y-110508213D01*
X145370288Y-110508210D01*
X145239185Y-110420609D01*
X145239172Y-110420602D01*
X145093501Y-110360264D01*
X145093489Y-110360261D01*
X144938845Y-110329500D01*
X144938842Y-110329500D01*
X144781158Y-110329500D01*
X144781155Y-110329500D01*
X144626510Y-110360261D01*
X144626498Y-110360264D01*
X144480827Y-110420602D01*
X144480814Y-110420609D01*
X144349711Y-110508210D01*
X144349707Y-110508213D01*
X144238213Y-110619707D01*
X144238210Y-110619711D01*
X144150609Y-110750814D01*
X144150602Y-110750827D01*
X144090264Y-110896498D01*
X144090261Y-110896510D01*
X144059500Y-111051153D01*
X144059500Y-111208846D01*
X144090261Y-111363489D01*
X144090264Y-111363501D01*
X144150602Y-111509172D01*
X144153479Y-111514554D01*
X144151544Y-111515588D01*
X144169477Y-111572845D01*
X144150997Y-111640226D01*
X144148600Y-111643956D01*
X144110611Y-111700812D01*
X144110604Y-111700824D01*
X144048017Y-111851925D01*
X144004176Y-111906328D01*
X143937882Y-111928393D01*
X143870183Y-111911114D01*
X143864566Y-111907575D01*
X143824207Y-111880608D01*
X143824196Y-111880602D01*
X143678525Y-111820264D01*
X143678513Y-111820261D01*
X143523869Y-111789500D01*
X143523866Y-111789500D01*
X143495548Y-111789500D01*
X143428509Y-111769815D01*
X143382754Y-111717011D01*
X143380987Y-111712952D01*
X143375964Y-111700825D01*
X143359394Y-111660821D01*
X143359392Y-111660819D01*
X143359392Y-111660817D01*
X143271789Y-111529711D01*
X143271786Y-111529707D01*
X143160292Y-111418213D01*
X143160288Y-111418210D01*
X143029185Y-111330609D01*
X143029172Y-111330602D01*
X142883501Y-111270264D01*
X142883489Y-111270261D01*
X142728845Y-111239500D01*
X142728842Y-111239500D01*
X142571158Y-111239500D01*
X142486376Y-111256363D01*
X142416785Y-111250136D01*
X142374506Y-111222428D01*
X142310289Y-111158211D01*
X142310288Y-111158210D01*
X142310287Y-111158209D01*
X142179185Y-111070609D01*
X142179172Y-111070602D01*
X142033501Y-111010264D01*
X142033489Y-111010261D01*
X141878845Y-110979500D01*
X141878842Y-110979500D01*
X141878685Y-110979500D01*
X141878604Y-110979476D01*
X141872782Y-110978903D01*
X141872890Y-110977798D01*
X141811646Y-110959815D01*
X141765891Y-110907011D01*
X141764124Y-110902952D01*
X141709397Y-110770827D01*
X141709390Y-110770814D01*
X141621789Y-110639711D01*
X141621786Y-110639707D01*
X141510292Y-110528213D01*
X141510288Y-110528210D01*
X141379185Y-110440609D01*
X141379172Y-110440602D01*
X141233501Y-110380264D01*
X141233489Y-110380261D01*
X141078845Y-110349500D01*
X141078842Y-110349500D01*
X140921158Y-110349500D01*
X140921155Y-110349500D01*
X140766510Y-110380261D01*
X140766498Y-110380264D01*
X140620827Y-110440602D01*
X140620814Y-110440609D01*
X140489711Y-110528210D01*
X140489707Y-110528213D01*
X140378213Y-110639707D01*
X140378210Y-110639711D01*
X140290609Y-110770814D01*
X140290602Y-110770827D01*
X140230264Y-110916498D01*
X140230261Y-110916510D01*
X140199500Y-111071153D01*
X120500500Y-111071153D01*
X120500500Y-110893713D01*
X120467246Y-110683757D01*
X120401557Y-110481588D01*
X120305051Y-110292184D01*
X120305049Y-110292181D01*
X120305048Y-110292179D01*
X120180109Y-110120213D01*
X120041294Y-109981398D01*
X120007809Y-109920075D01*
X120012793Y-109850383D01*
X120054665Y-109794450D01*
X120063879Y-109788178D01*
X120069331Y-109784814D01*
X120069334Y-109784814D01*
X120218656Y-109692712D01*
X120342712Y-109568656D01*
X120434814Y-109419334D01*
X120489999Y-109252797D01*
X120500500Y-109150009D01*
X120500499Y-107849992D01*
X120498814Y-107833501D01*
X120489999Y-107747203D01*
X120489998Y-107747200D01*
X120475867Y-107704555D01*
X120434814Y-107580666D01*
X120342712Y-107431344D01*
X120302521Y-107391153D01*
X136229500Y-107391153D01*
X136229500Y-107548846D01*
X136260261Y-107703489D01*
X136260264Y-107703501D01*
X136320602Y-107849172D01*
X136320609Y-107849185D01*
X136408209Y-107980287D01*
X136408210Y-107980288D01*
X136408211Y-107980289D01*
X136485082Y-108057160D01*
X136518566Y-108118481D01*
X136521400Y-108144840D01*
X136521400Y-108293694D01*
X136552161Y-108448337D01*
X136552164Y-108448349D01*
X136612502Y-108594020D01*
X136612509Y-108594033D01*
X136700110Y-108725136D01*
X136700113Y-108725140D01*
X136811607Y-108836634D01*
X136811611Y-108836637D01*
X136942714Y-108924238D01*
X136942727Y-108924245D01*
X137075878Y-108979397D01*
X137088403Y-108984585D01*
X137243053Y-109015347D01*
X137243056Y-109015348D01*
X137243058Y-109015348D01*
X137400744Y-109015348D01*
X137400745Y-109015347D01*
X137555397Y-108984585D01*
X137697714Y-108925636D01*
X137767183Y-108918167D01*
X137829662Y-108949442D01*
X137865314Y-109009531D01*
X137866783Y-109016004D01*
X137870261Y-109033492D01*
X137870264Y-109033501D01*
X137930602Y-109179172D01*
X137930609Y-109179185D01*
X138019615Y-109312391D01*
X138040493Y-109379069D01*
X138022008Y-109446449D01*
X137985404Y-109484384D01*
X137964711Y-109498210D01*
X137964707Y-109498213D01*
X137853213Y-109609707D01*
X137853210Y-109609711D01*
X137765609Y-109740814D01*
X137765602Y-109740827D01*
X137705264Y-109886498D01*
X137705261Y-109886510D01*
X137674500Y-110041153D01*
X137674500Y-110198846D01*
X137705261Y-110353489D01*
X137705264Y-110353501D01*
X137765602Y-110499172D01*
X137765609Y-110499185D01*
X137853210Y-110630288D01*
X137853213Y-110630292D01*
X137964707Y-110741786D01*
X137964711Y-110741789D01*
X138095814Y-110829390D01*
X138095827Y-110829397D01*
X138241498Y-110889735D01*
X138241503Y-110889737D01*
X138376039Y-110916498D01*
X138396153Y-110920499D01*
X138396156Y-110920500D01*
X138396158Y-110920500D01*
X138553844Y-110920500D01*
X138553845Y-110920499D01*
X138708497Y-110889737D01*
X138854179Y-110829394D01*
X138985289Y-110741789D01*
X139096789Y-110630289D01*
X139184394Y-110499179D01*
X139189993Y-110485663D01*
X139208654Y-110440609D01*
X139244737Y-110353497D01*
X139275500Y-110198842D01*
X139275500Y-110041158D01*
X139275500Y-110041155D01*
X139275499Y-110041153D01*
X139244738Y-109886510D01*
X139244737Y-109886503D01*
X139204010Y-109788178D01*
X139184397Y-109740827D01*
X139184395Y-109740823D01*
X139184394Y-109740821D01*
X139096789Y-109609711D01*
X139096787Y-109609709D01*
X139095384Y-109607609D01*
X139074506Y-109540932D01*
X139092990Y-109473552D01*
X139129597Y-109435615D01*
X139131396Y-109434412D01*
X139150289Y-109421789D01*
X139261789Y-109310289D01*
X139349394Y-109179179D01*
X139409737Y-109033497D01*
X139440500Y-108878842D01*
X139440500Y-108721158D01*
X139440500Y-108721155D01*
X139440499Y-108721153D01*
X139428104Y-108658842D01*
X139409737Y-108566503D01*
X139383641Y-108503501D01*
X139349397Y-108420827D01*
X139349390Y-108420814D01*
X139261789Y-108289711D01*
X139261786Y-108289707D01*
X139150292Y-108178213D01*
X139150288Y-108178210D01*
X139064897Y-108121153D01*
X139999500Y-108121153D01*
X139999500Y-108278846D01*
X140030261Y-108433489D01*
X140030264Y-108433501D01*
X140090602Y-108579172D01*
X140090609Y-108579185D01*
X140178210Y-108710288D01*
X140178213Y-108710292D01*
X140289707Y-108821786D01*
X140289711Y-108821789D01*
X140420814Y-108909390D01*
X140420827Y-108909397D01*
X140541028Y-108959185D01*
X140566503Y-108969737D01*
X140721153Y-109000499D01*
X140721156Y-109000500D01*
X140721158Y-109000500D01*
X140878844Y-109000500D01*
X140878845Y-109000499D01*
X141033497Y-108969737D01*
X141179179Y-108909394D01*
X141310289Y-108821789D01*
X141421789Y-108710289D01*
X141509394Y-108579179D01*
X141569737Y-108433497D01*
X141598051Y-108291153D01*
X144049500Y-108291153D01*
X144049500Y-108448846D01*
X144080261Y-108603489D01*
X144080264Y-108603501D01*
X144140602Y-108749172D01*
X144140609Y-108749185D01*
X144228210Y-108880288D01*
X144228213Y-108880292D01*
X144339707Y-108991786D01*
X144339711Y-108991789D01*
X144470814Y-109079390D01*
X144470827Y-109079397D01*
X144616498Y-109139735D01*
X144616503Y-109139737D01*
X144771153Y-109170499D01*
X144771156Y-109170500D01*
X144771158Y-109170500D01*
X144928844Y-109170500D01*
X144928845Y-109170499D01*
X145083497Y-109139737D01*
X145229179Y-109079394D01*
X145360289Y-108991789D01*
X145471789Y-108880289D01*
X145502569Y-108834222D01*
X145556182Y-108789417D01*
X145625506Y-108780710D01*
X145688534Y-108810864D01*
X145693353Y-108815432D01*
X145769707Y-108891786D01*
X145769711Y-108891789D01*
X145900814Y-108979390D01*
X145900827Y-108979397D01*
X146031419Y-109033489D01*
X146046503Y-109039737D01*
X146201153Y-109070499D01*
X146201156Y-109070500D01*
X146201158Y-109070500D01*
X146358844Y-109070500D01*
X146358845Y-109070499D01*
X146513497Y-109039737D01*
X146659179Y-108979394D01*
X146790289Y-108891789D01*
X146901789Y-108780289D01*
X146989394Y-108649179D01*
X147049737Y-108503497D01*
X147050203Y-108501153D01*
X181689500Y-108501153D01*
X181689500Y-108658846D01*
X181720261Y-108813489D01*
X181720264Y-108813501D01*
X181780602Y-108959172D01*
X181780609Y-108959185D01*
X181868210Y-109090288D01*
X181868213Y-109090292D01*
X181979707Y-109201786D01*
X181979711Y-109201789D01*
X182110814Y-109289390D01*
X182110827Y-109289397D01*
X182256498Y-109349735D01*
X182256503Y-109349737D01*
X182403964Y-109379069D01*
X182411153Y-109380499D01*
X182411156Y-109380500D01*
X182411158Y-109380500D01*
X182568844Y-109380500D01*
X182568845Y-109380499D01*
X182723497Y-109349737D01*
X182869179Y-109289394D01*
X183000289Y-109201789D01*
X183111789Y-109090289D01*
X183199394Y-108959179D01*
X183259737Y-108813497D01*
X183290500Y-108658842D01*
X183290500Y-108501158D01*
X183290500Y-108501155D01*
X183290499Y-108501153D01*
X183280094Y-108448846D01*
X183259737Y-108346503D01*
X183244366Y-108309394D01*
X183199397Y-108200827D01*
X183199390Y-108200814D01*
X183111789Y-108069711D01*
X183111786Y-108069707D01*
X183000292Y-107958213D01*
X183000288Y-107958210D01*
X182869185Y-107870609D01*
X182869172Y-107870602D01*
X182723501Y-107810264D01*
X182723489Y-107810261D01*
X182568845Y-107779500D01*
X182568842Y-107779500D01*
X182411158Y-107779500D01*
X182411155Y-107779500D01*
X182256510Y-107810261D01*
X182256498Y-107810264D01*
X182110827Y-107870602D01*
X182110814Y-107870609D01*
X181979711Y-107958210D01*
X181979707Y-107958213D01*
X181868213Y-108069707D01*
X181868210Y-108069711D01*
X181780609Y-108200814D01*
X181780602Y-108200827D01*
X181720264Y-108346498D01*
X181720261Y-108346510D01*
X181689500Y-108501153D01*
X147050203Y-108501153D01*
X147080500Y-108348842D01*
X147080500Y-108191158D01*
X147080500Y-108191155D01*
X147080499Y-108191153D01*
X147069627Y-108136498D01*
X147049737Y-108036503D01*
X147047152Y-108030262D01*
X146989397Y-107890827D01*
X146989390Y-107890814D01*
X146901789Y-107759711D01*
X146901786Y-107759707D01*
X146790292Y-107648213D01*
X146790288Y-107648210D01*
X146745327Y-107618168D01*
X146659185Y-107560609D01*
X146659172Y-107560602D01*
X146563932Y-107521153D01*
X154899500Y-107521153D01*
X154899500Y-107678846D01*
X154930261Y-107833489D01*
X154930264Y-107833501D01*
X154990602Y-107979172D01*
X154990609Y-107979185D01*
X155078210Y-108110288D01*
X155078213Y-108110292D01*
X155189707Y-108221786D01*
X155189711Y-108221789D01*
X155320814Y-108309390D01*
X155320827Y-108309397D01*
X155416062Y-108348844D01*
X155466503Y-108369737D01*
X155621153Y-108400499D01*
X155621156Y-108400500D01*
X155621158Y-108400500D01*
X155778844Y-108400500D01*
X155914837Y-108373449D01*
X155914837Y-108373448D01*
X155933497Y-108369737D01*
X156079179Y-108309394D01*
X156210289Y-108221789D01*
X156321789Y-108110289D01*
X156409394Y-107979179D01*
X156469737Y-107833497D01*
X156500500Y-107678842D01*
X156500500Y-107521158D01*
X156500500Y-107521155D01*
X156500499Y-107521153D01*
X156492859Y-107482746D01*
X156469737Y-107366503D01*
X156429972Y-107270500D01*
X156409397Y-107220827D01*
X156409390Y-107220814D01*
X156321789Y-107089711D01*
X156321786Y-107089707D01*
X156210292Y-106978213D01*
X156210288Y-106978210D01*
X156079185Y-106890609D01*
X156079172Y-106890602D01*
X155933501Y-106830264D01*
X155933489Y-106830261D01*
X155778845Y-106799500D01*
X155778842Y-106799500D01*
X155621158Y-106799500D01*
X155621155Y-106799500D01*
X155466510Y-106830261D01*
X155466498Y-106830264D01*
X155320827Y-106890602D01*
X155320814Y-106890609D01*
X155189711Y-106978210D01*
X155189707Y-106978213D01*
X155078213Y-107089707D01*
X155078210Y-107089711D01*
X154990609Y-107220814D01*
X154990602Y-107220827D01*
X154930264Y-107366498D01*
X154930261Y-107366510D01*
X154899500Y-107521153D01*
X146563932Y-107521153D01*
X146513501Y-107500264D01*
X146513489Y-107500261D01*
X146358845Y-107469500D01*
X146358842Y-107469500D01*
X146201158Y-107469500D01*
X146201153Y-107469500D01*
X146073920Y-107494808D01*
X146004328Y-107488581D01*
X145949151Y-107445717D01*
X145925907Y-107379828D01*
X145935168Y-107325739D01*
X145954737Y-107278497D01*
X145985500Y-107123842D01*
X145985500Y-106966158D01*
X145985500Y-106966155D01*
X145985499Y-106966153D01*
X145977494Y-106925908D01*
X145954737Y-106811503D01*
X145937642Y-106770231D01*
X145894397Y-106665827D01*
X145894390Y-106665814D01*
X145806789Y-106534711D01*
X145806786Y-106534707D01*
X145695292Y-106423213D01*
X145695288Y-106423210D01*
X145564185Y-106335609D01*
X145564172Y-106335602D01*
X145418501Y-106275264D01*
X145418489Y-106275261D01*
X145263845Y-106244500D01*
X145263842Y-106244500D01*
X145106158Y-106244500D01*
X145106155Y-106244500D01*
X144951510Y-106275261D01*
X144951498Y-106275264D01*
X144805827Y-106335602D01*
X144805814Y-106335609D01*
X144674711Y-106423210D01*
X144674707Y-106423213D01*
X144563213Y-106534707D01*
X144563210Y-106534711D01*
X144475609Y-106665814D01*
X144475602Y-106665827D01*
X144415264Y-106811498D01*
X144415261Y-106811510D01*
X144384500Y-106966153D01*
X144384500Y-107123846D01*
X144415261Y-107278489D01*
X144415264Y-107278501D01*
X144475602Y-107424172D01*
X144475609Y-107424185D01*
X144514739Y-107482746D01*
X144535617Y-107549423D01*
X144517133Y-107616803D01*
X144475202Y-107656197D01*
X144475886Y-107657221D01*
X144339711Y-107748210D01*
X144339707Y-107748213D01*
X144228213Y-107859707D01*
X144228210Y-107859711D01*
X144140609Y-107990814D01*
X144140602Y-107990827D01*
X144080264Y-108136498D01*
X144080261Y-108136510D01*
X144049500Y-108291153D01*
X141598051Y-108291153D01*
X141600500Y-108278842D01*
X141600500Y-108121158D01*
X141600500Y-108121155D01*
X141600499Y-108121153D01*
X141569737Y-107966503D01*
X141566302Y-107958210D01*
X141509397Y-107820827D01*
X141509390Y-107820814D01*
X141421789Y-107689711D01*
X141421786Y-107689707D01*
X141310292Y-107578213D01*
X141310288Y-107578210D01*
X141179185Y-107490609D01*
X141179172Y-107490602D01*
X141033501Y-107430264D01*
X141033489Y-107430261D01*
X140878845Y-107399500D01*
X140878842Y-107399500D01*
X140721158Y-107399500D01*
X140721155Y-107399500D01*
X140566510Y-107430261D01*
X140566498Y-107430264D01*
X140420827Y-107490602D01*
X140420814Y-107490609D01*
X140289711Y-107578210D01*
X140289707Y-107578213D01*
X140178213Y-107689707D01*
X140178210Y-107689711D01*
X140090609Y-107820814D01*
X140090602Y-107820827D01*
X140030264Y-107966498D01*
X140030261Y-107966510D01*
X139999500Y-108121153D01*
X139064897Y-108121153D01*
X139019185Y-108090609D01*
X139019172Y-108090602D01*
X138873501Y-108030264D01*
X138873489Y-108030261D01*
X138718845Y-107999500D01*
X138718842Y-107999500D01*
X138561158Y-107999500D01*
X138561155Y-107999500D01*
X138406510Y-108030261D01*
X138406507Y-108030262D01*
X138406506Y-108030262D01*
X138406503Y-108030263D01*
X138341572Y-108057158D01*
X138264185Y-108089212D01*
X138194715Y-108096680D01*
X138132236Y-108065404D01*
X138096584Y-108005315D01*
X138095119Y-107998860D01*
X138091637Y-107981351D01*
X138090737Y-107979179D01*
X138031297Y-107835675D01*
X138031290Y-107835662D01*
X137943689Y-107704559D01*
X137943686Y-107704555D01*
X137866819Y-107627688D01*
X137833334Y-107566365D01*
X137830500Y-107540007D01*
X137830500Y-107391155D01*
X137830499Y-107391153D01*
X137808090Y-107278497D01*
X137799737Y-107236503D01*
X137799735Y-107236498D01*
X137739397Y-107090827D01*
X137739390Y-107090814D01*
X137651789Y-106959711D01*
X137651786Y-106959707D01*
X137540292Y-106848213D01*
X137540288Y-106848210D01*
X137409185Y-106760609D01*
X137409172Y-106760602D01*
X137263501Y-106700264D01*
X137263489Y-106700261D01*
X137108845Y-106669500D01*
X137108842Y-106669500D01*
X136951158Y-106669500D01*
X136951155Y-106669500D01*
X136796510Y-106700261D01*
X136796498Y-106700264D01*
X136650827Y-106760602D01*
X136650814Y-106760609D01*
X136519711Y-106848210D01*
X136519707Y-106848213D01*
X136408213Y-106959707D01*
X136408210Y-106959711D01*
X136320609Y-107090814D01*
X136320602Y-107090827D01*
X136260264Y-107236498D01*
X136260261Y-107236510D01*
X136229500Y-107391153D01*
X120302521Y-107391153D01*
X120218656Y-107307288D01*
X120103895Y-107236503D01*
X120069336Y-107215187D01*
X120069331Y-107215185D01*
X120067862Y-107214698D01*
X119902797Y-107160001D01*
X119902795Y-107160000D01*
X119800010Y-107149500D01*
X118199998Y-107149500D01*
X118199981Y-107149501D01*
X118097203Y-107160000D01*
X118097200Y-107160001D01*
X117930668Y-107215185D01*
X117930663Y-107215187D01*
X117781342Y-107307289D01*
X117657289Y-107431342D01*
X117565187Y-107580663D01*
X117565185Y-107580668D01*
X117561079Y-107593059D01*
X117510001Y-107747203D01*
X117510001Y-107747204D01*
X117510000Y-107747204D01*
X117499500Y-107849983D01*
X115000500Y-107849983D01*
X115000500Y-104621153D01*
X129749500Y-104621153D01*
X129749500Y-104778846D01*
X129780261Y-104933489D01*
X129780264Y-104933501D01*
X129840602Y-105079172D01*
X129840609Y-105079185D01*
X129928210Y-105210288D01*
X129928213Y-105210292D01*
X130039707Y-105321786D01*
X130039711Y-105321789D01*
X130170814Y-105409390D01*
X130170827Y-105409397D01*
X130316498Y-105469735D01*
X130316503Y-105469737D01*
X130471153Y-105500499D01*
X130471156Y-105500500D01*
X130471158Y-105500500D01*
X130628844Y-105500500D01*
X130628845Y-105500499D01*
X130783497Y-105469737D01*
X130929179Y-105409394D01*
X131060289Y-105321789D01*
X131171789Y-105210289D01*
X131259394Y-105079179D01*
X131319737Y-104933497D01*
X131350500Y-104778842D01*
X131350500Y-104721153D01*
X132599500Y-104721153D01*
X132599500Y-104878846D01*
X132630261Y-105033489D01*
X132630264Y-105033501D01*
X132690602Y-105179172D01*
X132690609Y-105179185D01*
X132778210Y-105310288D01*
X132778213Y-105310292D01*
X132889707Y-105421786D01*
X132889711Y-105421789D01*
X133020814Y-105509390D01*
X133020827Y-105509397D01*
X133166498Y-105569735D01*
X133166503Y-105569737D01*
X133321153Y-105600499D01*
X133321156Y-105600500D01*
X133321158Y-105600500D01*
X133478844Y-105600500D01*
X133478845Y-105600499D01*
X133633497Y-105569737D01*
X133779179Y-105509394D01*
X133910289Y-105421789D01*
X134021789Y-105310289D01*
X134081348Y-105221153D01*
X140149500Y-105221153D01*
X140149500Y-105378846D01*
X140180261Y-105533489D01*
X140180264Y-105533501D01*
X140240602Y-105679172D01*
X140240609Y-105679185D01*
X140328210Y-105810288D01*
X140328213Y-105810292D01*
X140439707Y-105921786D01*
X140439711Y-105921789D01*
X140570814Y-106009390D01*
X140570827Y-106009397D01*
X140716498Y-106069735D01*
X140716503Y-106069737D01*
X140871153Y-106100499D01*
X140871156Y-106100500D01*
X140871158Y-106100500D01*
X141028844Y-106100500D01*
X141028845Y-106100499D01*
X141183497Y-106069737D01*
X141329179Y-106009394D01*
X141460289Y-105921789D01*
X141571789Y-105810289D01*
X141659394Y-105679179D01*
X141719737Y-105533497D01*
X141750500Y-105378842D01*
X141750500Y-105221158D01*
X141750500Y-105221155D01*
X141750499Y-105221153D01*
X141734001Y-105138213D01*
X141719737Y-105066503D01*
X141670191Y-104946888D01*
X144493765Y-104946888D01*
X144493765Y-105104581D01*
X144524526Y-105259224D01*
X144524529Y-105259236D01*
X144584867Y-105404907D01*
X144584874Y-105404920D01*
X144672475Y-105536023D01*
X144672478Y-105536027D01*
X144783972Y-105647521D01*
X144783976Y-105647524D01*
X144915079Y-105735125D01*
X144915092Y-105735132D01*
X145060763Y-105795470D01*
X145060768Y-105795472D01*
X145215418Y-105826234D01*
X145215421Y-105826235D01*
X145215423Y-105826235D01*
X145373109Y-105826235D01*
X145373110Y-105826234D01*
X145527762Y-105795472D01*
X145673444Y-105735129D01*
X145754225Y-105681153D01*
X175559500Y-105681153D01*
X175559500Y-105838846D01*
X175590261Y-105993489D01*
X175590264Y-105993501D01*
X175650602Y-106139172D01*
X175650609Y-106139185D01*
X175738210Y-106270288D01*
X175738213Y-106270292D01*
X175849707Y-106381786D01*
X175849711Y-106381789D01*
X175980814Y-106469390D01*
X175980827Y-106469397D01*
X176125822Y-106529455D01*
X176126503Y-106529737D01*
X176281153Y-106560499D01*
X176281156Y-106560500D01*
X176281158Y-106560500D01*
X176438844Y-106560500D01*
X176505253Y-106547289D01*
X176593497Y-106529737D01*
X176593499Y-106529735D01*
X176594912Y-106529455D01*
X176664504Y-106535682D01*
X176719681Y-106578544D01*
X176733665Y-106603619D01*
X176802676Y-106770228D01*
X176802681Y-106770237D01*
X176906697Y-106925907D01*
X176906700Y-106925911D01*
X177039088Y-107058299D01*
X177039092Y-107058302D01*
X177194762Y-107162318D01*
X177194768Y-107162321D01*
X177194769Y-107162322D01*
X177367749Y-107233973D01*
X177551379Y-107270499D01*
X177551383Y-107270500D01*
X177551384Y-107270500D01*
X178838617Y-107270500D01*
X178838618Y-107270499D01*
X179022251Y-107233973D01*
X179195231Y-107162322D01*
X179350908Y-107058302D01*
X179483302Y-106925908D01*
X179587322Y-106770231D01*
X179658973Y-106597251D01*
X179695500Y-106413616D01*
X179695500Y-106226384D01*
X179695499Y-106226379D01*
X181014500Y-106226379D01*
X181014500Y-106413620D01*
X181051025Y-106597243D01*
X181051027Y-106597251D01*
X181122676Y-106770228D01*
X181122681Y-106770237D01*
X181226697Y-106925907D01*
X181226700Y-106925911D01*
X181359088Y-107058299D01*
X181359092Y-107058302D01*
X181514762Y-107162318D01*
X181514768Y-107162321D01*
X181514769Y-107162322D01*
X181687749Y-107233973D01*
X181871379Y-107270499D01*
X181871383Y-107270500D01*
X181871384Y-107270500D01*
X182858617Y-107270500D01*
X182858618Y-107270499D01*
X183042251Y-107233973D01*
X183215231Y-107162322D01*
X183370908Y-107058302D01*
X183503302Y-106925908D01*
X183607322Y-106770231D01*
X183678973Y-106597251D01*
X183715500Y-106413616D01*
X183715500Y-106226384D01*
X183678973Y-106042749D01*
X183607322Y-105869769D01*
X183607321Y-105869768D01*
X183607318Y-105869762D01*
X183503302Y-105714092D01*
X183503299Y-105714088D01*
X183370911Y-105581700D01*
X183370907Y-105581697D01*
X183215237Y-105477681D01*
X183215228Y-105477676D01*
X183042251Y-105406027D01*
X183042243Y-105406025D01*
X182858620Y-105369500D01*
X182858616Y-105369500D01*
X181871384Y-105369500D01*
X181871379Y-105369500D01*
X181687756Y-105406025D01*
X181687748Y-105406027D01*
X181514771Y-105477676D01*
X181514762Y-105477681D01*
X181359092Y-105581697D01*
X181359088Y-105581700D01*
X181226700Y-105714088D01*
X181226697Y-105714092D01*
X181122681Y-105869762D01*
X181122676Y-105869771D01*
X181051027Y-106042748D01*
X181051025Y-106042756D01*
X181014500Y-106226379D01*
X179695499Y-106226379D01*
X179658973Y-106042749D01*
X179587322Y-105869769D01*
X179587321Y-105869768D01*
X179587318Y-105869762D01*
X179483302Y-105714092D01*
X179483299Y-105714088D01*
X179350911Y-105581700D01*
X179350907Y-105581697D01*
X179195237Y-105477681D01*
X179195228Y-105477676D01*
X179022251Y-105406027D01*
X179022243Y-105406025D01*
X178838620Y-105369500D01*
X178838616Y-105369500D01*
X177551384Y-105369500D01*
X177551379Y-105369500D01*
X177367756Y-105406025D01*
X177367744Y-105406028D01*
X177236559Y-105460367D01*
X177167090Y-105467836D01*
X177104611Y-105436561D01*
X177074546Y-105393258D01*
X177069397Y-105380826D01*
X177069390Y-105380814D01*
X176981789Y-105249711D01*
X176981786Y-105249707D01*
X176870292Y-105138213D01*
X176870288Y-105138210D01*
X176739185Y-105050609D01*
X176739172Y-105050602D01*
X176593501Y-104990264D01*
X176593489Y-104990261D01*
X176438845Y-104959500D01*
X176438842Y-104959500D01*
X176281158Y-104959500D01*
X176281155Y-104959500D01*
X176126510Y-104990261D01*
X176126498Y-104990264D01*
X175980827Y-105050602D01*
X175980814Y-105050609D01*
X175849711Y-105138210D01*
X175849707Y-105138213D01*
X175738213Y-105249707D01*
X175738210Y-105249711D01*
X175650609Y-105380814D01*
X175650602Y-105380827D01*
X175590264Y-105526498D01*
X175590261Y-105526510D01*
X175559500Y-105681153D01*
X145754225Y-105681153D01*
X145804554Y-105647524D01*
X145804557Y-105647521D01*
X145864694Y-105587385D01*
X145916051Y-105536027D01*
X145916054Y-105536024D01*
X146003659Y-105404914D01*
X146064002Y-105259232D01*
X146094765Y-105104577D01*
X146094765Y-104946893D01*
X146094765Y-104946890D01*
X146094764Y-104946888D01*
X146089578Y-104920818D01*
X146064002Y-104792238D01*
X146003659Y-104646556D01*
X145992849Y-104630377D01*
X145971971Y-104563703D01*
X145990454Y-104496323D01*
X146008263Y-104473814D01*
X146071789Y-104410289D01*
X146159394Y-104279179D01*
X146219737Y-104133497D01*
X146250500Y-103978842D01*
X146250500Y-103821158D01*
X146250500Y-103821155D01*
X146250499Y-103821153D01*
X146241957Y-103778210D01*
X146219737Y-103666503D01*
X146219735Y-103666498D01*
X146159397Y-103520827D01*
X146159390Y-103520814D01*
X146071789Y-103389711D01*
X146071786Y-103389707D01*
X145960292Y-103278213D01*
X145960288Y-103278210D01*
X145915327Y-103248168D01*
X145829185Y-103190609D01*
X145829172Y-103190602D01*
X145733932Y-103151153D01*
X151039500Y-103151153D01*
X151039500Y-103308846D01*
X151070261Y-103463489D01*
X151070264Y-103463501D01*
X151130602Y-103609172D01*
X151130609Y-103609185D01*
X151218210Y-103740288D01*
X151218213Y-103740292D01*
X151329707Y-103851786D01*
X151329711Y-103851789D01*
X151460814Y-103939390D01*
X151460827Y-103939397D01*
X151548230Y-103975599D01*
X151606503Y-103999737D01*
X151624884Y-104003393D01*
X151686793Y-104035776D01*
X151715254Y-104077558D01*
X151737258Y-104130684D01*
X151737265Y-104130696D01*
X151824866Y-104261799D01*
X151824869Y-104261803D01*
X151936363Y-104373297D01*
X151936367Y-104373300D01*
X152067470Y-104460901D01*
X152067483Y-104460908D01*
X152213154Y-104521246D01*
X152213159Y-104521248D01*
X152367809Y-104552010D01*
X152367812Y-104552011D01*
X152367814Y-104552011D01*
X152525500Y-104552011D01*
X152525501Y-104552010D01*
X152680153Y-104521248D01*
X152825835Y-104460905D01*
X152956945Y-104373300D01*
X153009092Y-104321153D01*
X167599500Y-104321153D01*
X167599500Y-104478846D01*
X167630261Y-104633489D01*
X167630264Y-104633501D01*
X167690602Y-104779172D01*
X167690609Y-104779185D01*
X167778210Y-104910288D01*
X167778213Y-104910292D01*
X167889707Y-105021786D01*
X167889711Y-105021789D01*
X168020814Y-105109390D01*
X168020827Y-105109397D01*
X168161370Y-105167611D01*
X168166503Y-105169737D01*
X168321153Y-105200499D01*
X168321156Y-105200500D01*
X168321158Y-105200500D01*
X168478844Y-105200500D01*
X168478845Y-105200499D01*
X168633497Y-105169737D01*
X168779179Y-105109394D01*
X168910289Y-105021789D01*
X169021789Y-104910289D01*
X169109394Y-104779179D01*
X169169737Y-104633497D01*
X169200500Y-104478842D01*
X169200500Y-104321158D01*
X169200500Y-104321155D01*
X169200499Y-104321153D01*
X169188692Y-104261797D01*
X169169737Y-104166503D01*
X169156062Y-104133489D01*
X169109397Y-104020827D01*
X169109390Y-104020814D01*
X169021789Y-103889711D01*
X169021786Y-103889707D01*
X168910292Y-103778213D01*
X168910288Y-103778210D01*
X168779185Y-103690609D01*
X168779172Y-103690602D01*
X168633501Y-103630264D01*
X168633489Y-103630261D01*
X168478845Y-103599500D01*
X168478842Y-103599500D01*
X168321158Y-103599500D01*
X168321155Y-103599500D01*
X168166510Y-103630261D01*
X168166498Y-103630264D01*
X168020827Y-103690602D01*
X168020814Y-103690609D01*
X167889711Y-103778210D01*
X167889707Y-103778213D01*
X167778213Y-103889707D01*
X167778210Y-103889711D01*
X167690609Y-104020814D01*
X167690602Y-104020827D01*
X167630264Y-104166498D01*
X167630261Y-104166510D01*
X167599500Y-104321153D01*
X153009092Y-104321153D01*
X153068445Y-104261800D01*
X153068492Y-104261728D01*
X153078887Y-104246174D01*
X153156046Y-104130696D01*
X153156046Y-104130695D01*
X153156050Y-104130690D01*
X153216393Y-103985008D01*
X153247156Y-103830353D01*
X153247156Y-103672669D01*
X153247156Y-103672666D01*
X153247155Y-103672664D01*
X153245929Y-103666503D01*
X153216393Y-103518014D01*
X153193813Y-103463501D01*
X153156053Y-103372338D01*
X153156046Y-103372325D01*
X153068445Y-103241222D01*
X153068442Y-103241218D01*
X152956948Y-103129724D01*
X152956944Y-103129721D01*
X152825841Y-103042120D01*
X152825828Y-103042113D01*
X152680157Y-102981775D01*
X152680147Y-102981772D01*
X152661770Y-102978117D01*
X152599859Y-102945732D01*
X152571401Y-102903953D01*
X152549394Y-102850821D01*
X152549389Y-102850814D01*
X152461789Y-102719710D01*
X152350292Y-102608213D01*
X152350288Y-102608210D01*
X152219185Y-102520609D01*
X152219172Y-102520602D01*
X152073501Y-102460264D01*
X152073489Y-102460261D01*
X151918845Y-102429500D01*
X151918842Y-102429500D01*
X151761158Y-102429500D01*
X151761155Y-102429500D01*
X151606510Y-102460261D01*
X151606498Y-102460264D01*
X151460827Y-102520602D01*
X151460814Y-102520609D01*
X151329711Y-102608210D01*
X151329707Y-102608213D01*
X151218213Y-102719707D01*
X151218210Y-102719711D01*
X151130609Y-102850814D01*
X151130602Y-102850827D01*
X151070264Y-102996498D01*
X151070261Y-102996510D01*
X151039500Y-103151153D01*
X145733932Y-103151153D01*
X145683501Y-103130264D01*
X145683489Y-103130261D01*
X145528845Y-103099500D01*
X145528842Y-103099500D01*
X145371158Y-103099500D01*
X145371155Y-103099500D01*
X145216510Y-103130261D01*
X145216498Y-103130264D01*
X145070827Y-103190602D01*
X145070814Y-103190609D01*
X144939711Y-103278210D01*
X144939707Y-103278213D01*
X144828213Y-103389707D01*
X144828210Y-103389711D01*
X144740609Y-103520814D01*
X144740602Y-103520827D01*
X144680264Y-103666498D01*
X144680261Y-103666510D01*
X144649500Y-103821153D01*
X144649500Y-103978846D01*
X144680261Y-104133489D01*
X144680264Y-104133501D01*
X144740602Y-104279172D01*
X144740609Y-104279184D01*
X144751414Y-104295355D01*
X144772292Y-104362032D01*
X144753808Y-104429412D01*
X144735994Y-104451927D01*
X144672475Y-104515446D01*
X144584874Y-104646549D01*
X144584867Y-104646562D01*
X144524529Y-104792233D01*
X144524526Y-104792245D01*
X144493765Y-104946888D01*
X141670191Y-104946888D01*
X141659394Y-104920821D01*
X141659392Y-104920818D01*
X141659390Y-104920814D01*
X141571789Y-104789711D01*
X141571786Y-104789707D01*
X141460292Y-104678213D01*
X141460288Y-104678210D01*
X141329185Y-104590609D01*
X141329172Y-104590602D01*
X141183501Y-104530264D01*
X141183489Y-104530261D01*
X141028845Y-104499500D01*
X141028842Y-104499500D01*
X140871158Y-104499500D01*
X140871155Y-104499500D01*
X140716510Y-104530261D01*
X140716498Y-104530264D01*
X140570827Y-104590602D01*
X140570814Y-104590609D01*
X140439711Y-104678210D01*
X140439707Y-104678213D01*
X140328213Y-104789707D01*
X140328210Y-104789711D01*
X140240609Y-104920814D01*
X140240602Y-104920827D01*
X140180264Y-105066498D01*
X140180261Y-105066510D01*
X140149500Y-105221153D01*
X134081348Y-105221153D01*
X134109394Y-105179179D01*
X134169737Y-105033497D01*
X134200500Y-104878842D01*
X134200500Y-104721158D01*
X134200500Y-104721155D01*
X134200499Y-104721153D01*
X134185662Y-104646562D01*
X134169737Y-104566503D01*
X134158869Y-104540265D01*
X134109397Y-104420827D01*
X134109390Y-104420814D01*
X134021789Y-104289711D01*
X134021786Y-104289707D01*
X133910292Y-104178213D01*
X133910288Y-104178210D01*
X133779185Y-104090609D01*
X133779172Y-104090602D01*
X133633501Y-104030264D01*
X133633489Y-104030261D01*
X133478845Y-103999500D01*
X133478842Y-103999500D01*
X133321158Y-103999500D01*
X133321155Y-103999500D01*
X133166510Y-104030261D01*
X133166498Y-104030264D01*
X133020827Y-104090602D01*
X133020814Y-104090609D01*
X132889711Y-104178210D01*
X132889707Y-104178213D01*
X132778213Y-104289707D01*
X132778210Y-104289711D01*
X132690609Y-104420814D01*
X132690602Y-104420827D01*
X132630264Y-104566498D01*
X132630261Y-104566510D01*
X132599500Y-104721153D01*
X131350500Y-104721153D01*
X131350500Y-104621158D01*
X131350500Y-104621155D01*
X131350499Y-104621153D01*
X131336746Y-104552011D01*
X131319737Y-104466503D01*
X131319735Y-104466498D01*
X131259397Y-104320827D01*
X131259390Y-104320814D01*
X131171789Y-104189711D01*
X131171786Y-104189707D01*
X131060292Y-104078213D01*
X131060288Y-104078210D01*
X130929185Y-103990609D01*
X130929172Y-103990602D01*
X130783501Y-103930264D01*
X130783489Y-103930261D01*
X130628845Y-103899500D01*
X130628842Y-103899500D01*
X130471158Y-103899500D01*
X130471155Y-103899500D01*
X130316510Y-103930261D01*
X130316498Y-103930264D01*
X130170827Y-103990602D01*
X130170814Y-103990609D01*
X130039711Y-104078210D01*
X130039707Y-104078213D01*
X129928213Y-104189707D01*
X129928210Y-104189711D01*
X129840609Y-104320814D01*
X129840602Y-104320827D01*
X129780264Y-104466498D01*
X129780261Y-104466510D01*
X129749500Y-104621153D01*
X115000500Y-104621153D01*
X115000500Y-98599983D01*
X117524500Y-98599983D01*
X117524500Y-99900001D01*
X117524501Y-99900018D01*
X117535000Y-100002796D01*
X117535001Y-100002799D01*
X117568620Y-100104252D01*
X117590186Y-100169334D01*
X117682288Y-100318656D01*
X117806344Y-100442712D01*
X117909949Y-100506616D01*
X117961120Y-100538178D01*
X118007845Y-100590126D01*
X118019068Y-100659088D01*
X117991224Y-100723171D01*
X117983706Y-100731398D01*
X117844889Y-100870215D01*
X117719951Y-101042179D01*
X117623444Y-101231585D01*
X117557753Y-101433760D01*
X117524500Y-101643713D01*
X117524500Y-101856286D01*
X117543911Y-101978846D01*
X117557754Y-102066243D01*
X117579606Y-102133497D01*
X117623444Y-102268414D01*
X117719951Y-102457820D01*
X117844890Y-102629786D01*
X117995213Y-102780109D01*
X118167179Y-102905048D01*
X118167181Y-102905049D01*
X118167184Y-102905051D01*
X118356588Y-103001557D01*
X118558757Y-103067246D01*
X118768713Y-103100500D01*
X118768714Y-103100500D01*
X119281286Y-103100500D01*
X119281287Y-103100500D01*
X119491243Y-103067246D01*
X119693412Y-103001557D01*
X119882816Y-102905051D01*
X119904789Y-102889086D01*
X120054786Y-102780109D01*
X120054788Y-102780106D01*
X120054792Y-102780104D01*
X120205104Y-102629792D01*
X120205106Y-102629788D01*
X120205109Y-102629786D01*
X120330048Y-102457820D01*
X120330047Y-102457820D01*
X120330051Y-102457816D01*
X120426557Y-102268412D01*
X120492246Y-102066243D01*
X120525500Y-101856287D01*
X120525500Y-101821153D01*
X129699500Y-101821153D01*
X129699500Y-101978846D01*
X129730261Y-102133489D01*
X129730264Y-102133501D01*
X129790602Y-102279172D01*
X129790609Y-102279185D01*
X129878210Y-102410288D01*
X129878213Y-102410292D01*
X129989707Y-102521786D01*
X129989711Y-102521789D01*
X130120814Y-102609390D01*
X130120827Y-102609397D01*
X130266498Y-102669735D01*
X130266503Y-102669737D01*
X130421153Y-102700499D01*
X130421156Y-102700500D01*
X130421158Y-102700500D01*
X130578844Y-102700500D01*
X130578845Y-102700499D01*
X130733497Y-102669737D01*
X130879179Y-102609394D01*
X131010289Y-102521789D01*
X131121789Y-102410289D01*
X131196898Y-102297881D01*
X131250510Y-102253076D01*
X131319835Y-102244369D01*
X131382863Y-102274523D01*
X131403102Y-102297881D01*
X131478210Y-102410288D01*
X131478213Y-102410292D01*
X131589707Y-102521786D01*
X131589711Y-102521789D01*
X131720814Y-102609390D01*
X131720827Y-102609397D01*
X131866498Y-102669735D01*
X131866503Y-102669737D01*
X132021153Y-102700499D01*
X132021156Y-102700500D01*
X132021158Y-102700500D01*
X132178844Y-102700500D01*
X132178845Y-102700499D01*
X132333497Y-102669737D01*
X132479179Y-102609394D01*
X132610289Y-102521789D01*
X132721789Y-102410289D01*
X132796898Y-102297881D01*
X132850510Y-102253076D01*
X132919835Y-102244369D01*
X132982863Y-102274523D01*
X133003102Y-102297881D01*
X133078210Y-102410288D01*
X133078213Y-102410292D01*
X133189707Y-102521786D01*
X133189711Y-102521789D01*
X133320814Y-102609390D01*
X133320827Y-102609397D01*
X133466498Y-102669735D01*
X133466503Y-102669737D01*
X133621153Y-102700499D01*
X133621156Y-102700500D01*
X133621158Y-102700500D01*
X133778844Y-102700500D01*
X133778845Y-102700499D01*
X133933497Y-102669737D01*
X134079179Y-102609394D01*
X134210289Y-102521789D01*
X134321789Y-102410289D01*
X134409394Y-102279179D01*
X134469737Y-102133497D01*
X134472192Y-102121153D01*
X171799500Y-102121153D01*
X171799500Y-102278846D01*
X171830261Y-102433489D01*
X171830264Y-102433501D01*
X171890602Y-102579172D01*
X171890609Y-102579185D01*
X171978210Y-102710288D01*
X171978213Y-102710292D01*
X172089707Y-102821786D01*
X172089711Y-102821789D01*
X172220814Y-102909390D01*
X172220827Y-102909397D01*
X172308549Y-102945732D01*
X172366503Y-102969737D01*
X172501039Y-102996498D01*
X172521153Y-103000499D01*
X172521156Y-103000500D01*
X172521158Y-103000500D01*
X172678844Y-103000500D01*
X172678845Y-103000499D01*
X172833497Y-102969737D01*
X172979179Y-102909394D01*
X173110289Y-102821789D01*
X173221789Y-102710289D01*
X173309394Y-102579179D01*
X173369737Y-102433497D01*
X173400500Y-102278842D01*
X173400500Y-102121158D01*
X173400500Y-102121155D01*
X173400499Y-102121153D01*
X173372192Y-101978846D01*
X173369737Y-101966503D01*
X173366935Y-101959738D01*
X173309397Y-101820827D01*
X173309390Y-101820814D01*
X173221789Y-101689711D01*
X173221786Y-101689707D01*
X173110292Y-101578213D01*
X173110288Y-101578210D01*
X172979185Y-101490609D01*
X172979172Y-101490602D01*
X172833501Y-101430264D01*
X172833489Y-101430261D01*
X172678845Y-101399500D01*
X172678842Y-101399500D01*
X172521158Y-101399500D01*
X172521155Y-101399500D01*
X172366510Y-101430261D01*
X172366498Y-101430264D01*
X172220827Y-101490602D01*
X172220814Y-101490609D01*
X172089711Y-101578210D01*
X172089707Y-101578213D01*
X171978213Y-101689707D01*
X171978210Y-101689711D01*
X171890609Y-101820814D01*
X171890602Y-101820827D01*
X171830264Y-101966498D01*
X171830261Y-101966510D01*
X171799500Y-102121153D01*
X134472192Y-102121153D01*
X134478216Y-102090874D01*
X134478216Y-102090873D01*
X134500499Y-101978846D01*
X134500500Y-101978844D01*
X134500500Y-101821155D01*
X134500499Y-101821153D01*
X134474353Y-101689711D01*
X134469737Y-101666503D01*
X134469735Y-101666498D01*
X134409397Y-101520827D01*
X134409390Y-101520814D01*
X134321789Y-101389711D01*
X134321786Y-101389707D01*
X134210292Y-101278213D01*
X134210288Y-101278210D01*
X134105463Y-101208168D01*
X134079184Y-101190609D01*
X134079172Y-101190602D01*
X133933501Y-101130264D01*
X133933489Y-101130261D01*
X133837428Y-101111153D01*
X144549500Y-101111153D01*
X144549500Y-101268846D01*
X144580261Y-101423489D01*
X144580264Y-101423501D01*
X144640602Y-101569172D01*
X144640609Y-101569185D01*
X144728210Y-101700288D01*
X144728213Y-101700292D01*
X144839707Y-101811786D01*
X144839711Y-101811789D01*
X144970814Y-101899390D01*
X144970827Y-101899397D01*
X145116498Y-101959735D01*
X145116503Y-101959737D01*
X145271153Y-101990499D01*
X145271156Y-101990500D01*
X145271158Y-101990500D01*
X145428844Y-101990500D01*
X145428845Y-101990499D01*
X145583497Y-101959737D01*
X145729179Y-101899394D01*
X145860289Y-101811789D01*
X145971789Y-101700289D01*
X146059394Y-101569179D01*
X146119737Y-101423497D01*
X146150500Y-101268842D01*
X146150500Y-101111158D01*
X146150500Y-101111155D01*
X146150499Y-101111153D01*
X146119739Y-100956511D01*
X146119738Y-100956508D01*
X146119737Y-100956503D01*
X146111970Y-100937753D01*
X146104504Y-100868285D01*
X146128834Y-100815641D01*
X146128405Y-100815354D01*
X146130229Y-100812623D01*
X146130691Y-100811625D01*
X146131777Y-100810300D01*
X146131789Y-100810289D01*
X146219394Y-100679179D01*
X146219735Y-100678357D01*
X146254283Y-100594949D01*
X146279737Y-100533497D01*
X146310500Y-100378842D01*
X146310500Y-100221158D01*
X146310500Y-100221155D01*
X146310499Y-100221153D01*
X146292723Y-100131789D01*
X146279737Y-100066503D01*
X146253350Y-100002799D01*
X146219397Y-99920827D01*
X146219390Y-99920814D01*
X146161354Y-99833957D01*
X146131789Y-99789711D01*
X146131786Y-99789707D01*
X146113232Y-99771153D01*
X146509500Y-99771153D01*
X146509500Y-99928846D01*
X146540261Y-100083489D01*
X146540264Y-100083501D01*
X146600602Y-100229172D01*
X146600609Y-100229185D01*
X146688210Y-100360288D01*
X146688213Y-100360292D01*
X146799707Y-100471786D01*
X146799711Y-100471789D01*
X146930814Y-100559390D01*
X146930827Y-100559397D01*
X147068683Y-100616498D01*
X147076503Y-100619737D01*
X147229021Y-100650075D01*
X147231153Y-100650499D01*
X147231156Y-100650500D01*
X147231158Y-100650500D01*
X147388844Y-100650500D01*
X147388845Y-100650499D01*
X147543497Y-100619737D01*
X147689179Y-100559394D01*
X147744835Y-100522205D01*
X147763910Y-100516232D01*
X147780919Y-100505726D01*
X147796569Y-100506005D01*
X147811508Y-100501328D01*
X147830788Y-100506616D01*
X147850778Y-100506974D01*
X147875886Y-100518987D01*
X147878888Y-100519811D01*
X147882615Y-100522207D01*
X147889993Y-100527137D01*
X147934798Y-100580750D01*
X147943504Y-100650075D01*
X147942718Y-100654429D01*
X147919500Y-100771153D01*
X147919500Y-100928846D01*
X147950261Y-101083489D01*
X147950264Y-101083501D01*
X148010602Y-101229172D01*
X148010609Y-101229185D01*
X148098210Y-101360288D01*
X148098213Y-101360292D01*
X148209707Y-101471786D01*
X148209711Y-101471789D01*
X148340814Y-101559390D01*
X148340827Y-101559397D01*
X148386254Y-101578213D01*
X148486503Y-101619737D01*
X148607038Y-101643713D01*
X148641153Y-101650499D01*
X148641156Y-101650500D01*
X148641158Y-101650500D01*
X148798844Y-101650500D01*
X148798845Y-101650499D01*
X148953497Y-101619737D01*
X149099179Y-101559394D01*
X149230289Y-101471789D01*
X149341789Y-101360289D01*
X149429394Y-101229179D01*
X149489737Y-101083497D01*
X149520500Y-100928842D01*
X149520500Y-100771158D01*
X149520500Y-100771155D01*
X149520499Y-100771153D01*
X149502204Y-100679179D01*
X149489737Y-100616503D01*
X149480687Y-100594653D01*
X149429397Y-100470827D01*
X149429390Y-100470814D01*
X149341789Y-100339711D01*
X149341786Y-100339707D01*
X149230292Y-100228213D01*
X149230284Y-100228207D01*
X149125008Y-100157864D01*
X149080202Y-100104252D01*
X149071495Y-100034927D01*
X149072281Y-100030570D01*
X149074326Y-100020292D01*
X149091590Y-99933501D01*
X149095500Y-99913844D01*
X149095500Y-99756155D01*
X149072248Y-99639263D01*
X149072247Y-99639262D01*
X149068645Y-99621153D01*
X153099500Y-99621153D01*
X153099500Y-99778846D01*
X153130261Y-99933489D01*
X153130264Y-99933501D01*
X153190602Y-100079172D01*
X153190609Y-100079185D01*
X153278210Y-100210288D01*
X153278213Y-100210292D01*
X153389707Y-100321786D01*
X153389711Y-100321789D01*
X153520814Y-100409390D01*
X153520827Y-100409397D01*
X153601258Y-100442712D01*
X153666503Y-100469737D01*
X153821153Y-100500499D01*
X153821156Y-100500500D01*
X153821158Y-100500500D01*
X153978844Y-100500500D01*
X153978845Y-100500499D01*
X154133497Y-100469737D01*
X154279179Y-100409394D01*
X154410289Y-100321789D01*
X154521789Y-100210289D01*
X154609394Y-100079179D01*
X154669737Y-99933497D01*
X154700500Y-99778842D01*
X154700500Y-99621158D01*
X154700500Y-99621155D01*
X154700499Y-99621153D01*
X154682419Y-99530261D01*
X154669737Y-99466503D01*
X154665315Y-99455827D01*
X154655095Y-99431153D01*
X168699500Y-99431153D01*
X168699500Y-99588846D01*
X168730261Y-99743489D01*
X168730264Y-99743501D01*
X168790602Y-99889172D01*
X168790609Y-99889185D01*
X168878210Y-100020288D01*
X168878213Y-100020292D01*
X168989707Y-100131786D01*
X168989711Y-100131789D01*
X169120814Y-100219390D01*
X169120827Y-100219397D01*
X169266498Y-100279735D01*
X169266503Y-100279737D01*
X169421153Y-100310499D01*
X169421156Y-100310500D01*
X169421158Y-100310500D01*
X169578844Y-100310500D01*
X169578845Y-100310499D01*
X169733497Y-100279737D01*
X169857902Y-100228207D01*
X169879172Y-100219397D01*
X169879172Y-100219396D01*
X169879179Y-100219394D01*
X170010289Y-100131789D01*
X170121789Y-100020289D01*
X170209394Y-99889179D01*
X170269737Y-99743497D01*
X170300500Y-99588842D01*
X170300500Y-99431158D01*
X170300500Y-99431155D01*
X170300499Y-99431153D01*
X170290094Y-99378844D01*
X170269737Y-99276503D01*
X170246813Y-99221158D01*
X170209397Y-99130827D01*
X170209390Y-99130814D01*
X170121789Y-98999711D01*
X170121786Y-98999707D01*
X170010292Y-98888213D01*
X170010288Y-98888210D01*
X169879185Y-98800609D01*
X169879172Y-98800602D01*
X169733501Y-98740264D01*
X169733489Y-98740261D01*
X169578845Y-98709500D01*
X169578842Y-98709500D01*
X169421158Y-98709500D01*
X169421155Y-98709500D01*
X169266510Y-98740261D01*
X169266498Y-98740264D01*
X169120827Y-98800602D01*
X169120814Y-98800609D01*
X168989711Y-98888210D01*
X168989707Y-98888213D01*
X168878213Y-98999707D01*
X168878210Y-98999711D01*
X168790609Y-99130814D01*
X168790602Y-99130827D01*
X168730264Y-99276498D01*
X168730261Y-99276510D01*
X168699500Y-99431153D01*
X154655095Y-99431153D01*
X154609397Y-99320827D01*
X154609390Y-99320814D01*
X154521789Y-99189711D01*
X154521786Y-99189707D01*
X154410292Y-99078213D01*
X154410288Y-99078210D01*
X154279185Y-98990609D01*
X154279172Y-98990602D01*
X154133501Y-98930264D01*
X154133489Y-98930261D01*
X153978845Y-98899500D01*
X153978842Y-98899500D01*
X153821158Y-98899500D01*
X153821155Y-98899500D01*
X153666510Y-98930261D01*
X153666498Y-98930264D01*
X153520827Y-98990602D01*
X153520814Y-98990609D01*
X153389711Y-99078210D01*
X153389707Y-99078213D01*
X153278213Y-99189707D01*
X153278210Y-99189711D01*
X153190609Y-99320814D01*
X153190602Y-99320827D01*
X153130264Y-99466498D01*
X153130261Y-99466510D01*
X153099500Y-99621153D01*
X149068645Y-99621153D01*
X149064737Y-99601503D01*
X149035228Y-99530261D01*
X149004397Y-99455827D01*
X149004390Y-99455814D01*
X148916789Y-99324711D01*
X148916786Y-99324707D01*
X148805292Y-99213213D01*
X148805288Y-99213210D01*
X148674185Y-99125609D01*
X148674172Y-99125602D01*
X148528501Y-99065264D01*
X148528489Y-99065261D01*
X148373845Y-99034500D01*
X148373842Y-99034500D01*
X148216158Y-99034500D01*
X148216155Y-99034500D01*
X148061510Y-99065261D01*
X148061498Y-99065264D01*
X147915828Y-99125602D01*
X147915814Y-99125610D01*
X147860162Y-99162794D01*
X147793484Y-99183670D01*
X147726105Y-99165184D01*
X147722384Y-99162792D01*
X147689189Y-99140612D01*
X147689182Y-99140608D01*
X147689179Y-99140606D01*
X147689175Y-99140604D01*
X147689171Y-99140602D01*
X147543501Y-99080264D01*
X147543489Y-99080261D01*
X147388845Y-99049500D01*
X147388842Y-99049500D01*
X147231158Y-99049500D01*
X147231155Y-99049500D01*
X147076510Y-99080261D01*
X147076498Y-99080264D01*
X146930827Y-99140602D01*
X146930814Y-99140609D01*
X146799711Y-99228210D01*
X146799707Y-99228213D01*
X146688213Y-99339707D01*
X146688210Y-99339711D01*
X146600609Y-99470814D01*
X146600602Y-99470827D01*
X146540264Y-99616498D01*
X146540261Y-99616510D01*
X146509500Y-99771153D01*
X146113232Y-99771153D01*
X146020292Y-99678213D01*
X146020288Y-99678210D01*
X145889185Y-99590609D01*
X145889172Y-99590602D01*
X145743501Y-99530264D01*
X145743489Y-99530261D01*
X145588845Y-99499500D01*
X145588842Y-99499500D01*
X145431158Y-99499500D01*
X145431155Y-99499500D01*
X145276510Y-99530261D01*
X145276498Y-99530264D01*
X145130827Y-99590602D01*
X145130814Y-99590609D01*
X144999711Y-99678210D01*
X144999707Y-99678213D01*
X144888213Y-99789707D01*
X144888210Y-99789711D01*
X144800609Y-99920814D01*
X144800602Y-99920827D01*
X144740264Y-100066498D01*
X144740261Y-100066510D01*
X144709500Y-100221153D01*
X144709500Y-100378846D01*
X144740261Y-100533494D01*
X144740263Y-100533498D01*
X144748027Y-100552242D01*
X144755496Y-100621712D01*
X144731168Y-100674360D01*
X144731595Y-100674646D01*
X144729785Y-100677354D01*
X144729322Y-100678357D01*
X144728209Y-100679712D01*
X144640609Y-100810814D01*
X144640602Y-100810827D01*
X144580264Y-100956498D01*
X144580261Y-100956510D01*
X144549500Y-101111153D01*
X133837428Y-101111153D01*
X133778845Y-101099500D01*
X133778842Y-101099500D01*
X133621158Y-101099500D01*
X133621155Y-101099500D01*
X133466510Y-101130261D01*
X133466498Y-101130264D01*
X133320827Y-101190602D01*
X133320814Y-101190609D01*
X133189711Y-101278210D01*
X133189707Y-101278213D01*
X133078213Y-101389707D01*
X133078210Y-101389711D01*
X133003102Y-101502118D01*
X132949490Y-101546923D01*
X132880165Y-101555630D01*
X132817137Y-101525475D01*
X132796898Y-101502118D01*
X132721789Y-101389711D01*
X132721786Y-101389707D01*
X132610292Y-101278213D01*
X132610288Y-101278210D01*
X132479185Y-101190609D01*
X132479172Y-101190602D01*
X132333501Y-101130264D01*
X132333489Y-101130261D01*
X132178845Y-101099500D01*
X132178842Y-101099500D01*
X132021158Y-101099500D01*
X132021155Y-101099500D01*
X131866510Y-101130261D01*
X131866498Y-101130264D01*
X131720827Y-101190602D01*
X131720814Y-101190609D01*
X131589711Y-101278210D01*
X131589707Y-101278213D01*
X131478213Y-101389707D01*
X131478210Y-101389711D01*
X131403102Y-101502118D01*
X131349490Y-101546923D01*
X131280165Y-101555630D01*
X131217137Y-101525475D01*
X131196898Y-101502118D01*
X131121789Y-101389711D01*
X131121786Y-101389707D01*
X131010292Y-101278213D01*
X131010288Y-101278210D01*
X130879185Y-101190609D01*
X130879172Y-101190602D01*
X130733501Y-101130264D01*
X130733489Y-101130261D01*
X130578845Y-101099500D01*
X130578842Y-101099500D01*
X130421158Y-101099500D01*
X130421155Y-101099500D01*
X130266510Y-101130261D01*
X130266498Y-101130264D01*
X130120827Y-101190602D01*
X130120814Y-101190609D01*
X129989711Y-101278210D01*
X129989707Y-101278213D01*
X129878213Y-101389707D01*
X129878210Y-101389711D01*
X129790609Y-101520814D01*
X129790602Y-101520827D01*
X129730264Y-101666498D01*
X129730261Y-101666510D01*
X129699500Y-101821153D01*
X120525500Y-101821153D01*
X120525500Y-101643713D01*
X120492246Y-101433757D01*
X120426557Y-101231588D01*
X120330051Y-101042184D01*
X120330049Y-101042181D01*
X120330048Y-101042179D01*
X120205109Y-100870213D01*
X120066294Y-100731398D01*
X120032809Y-100670075D01*
X120037793Y-100600383D01*
X120079665Y-100544450D01*
X120088879Y-100538178D01*
X120094331Y-100534814D01*
X120094334Y-100534814D01*
X120243656Y-100442712D01*
X120367712Y-100318656D01*
X120459814Y-100169334D01*
X120514999Y-100002797D01*
X120525500Y-99900009D01*
X120525499Y-99221153D01*
X130749500Y-99221153D01*
X130749500Y-99378846D01*
X130780261Y-99533489D01*
X130780264Y-99533501D01*
X130840602Y-99679172D01*
X130840609Y-99679185D01*
X130928210Y-99810288D01*
X130928213Y-99810292D01*
X131039707Y-99921786D01*
X131039711Y-99921789D01*
X131170814Y-100009390D01*
X131170827Y-100009397D01*
X131308683Y-100066498D01*
X131316503Y-100069737D01*
X131471153Y-100100499D01*
X131471156Y-100100500D01*
X131471158Y-100100500D01*
X131628844Y-100100500D01*
X131628845Y-100100499D01*
X131783497Y-100069737D01*
X131929179Y-100009394D01*
X132060289Y-99921789D01*
X132171789Y-99810289D01*
X132259394Y-99679179D01*
X132319737Y-99533497D01*
X132350500Y-99378842D01*
X132350500Y-99221158D01*
X132350500Y-99221155D01*
X132350499Y-99221153D01*
X132343043Y-99183670D01*
X132319737Y-99066503D01*
X132300955Y-99021158D01*
X132259397Y-98920827D01*
X132259390Y-98920814D01*
X132171789Y-98789711D01*
X132171786Y-98789707D01*
X132060292Y-98678213D01*
X132060288Y-98678210D01*
X131929185Y-98590609D01*
X131929172Y-98590602D01*
X131783501Y-98530264D01*
X131783489Y-98530261D01*
X131628845Y-98499500D01*
X131628842Y-98499500D01*
X131471158Y-98499500D01*
X131471155Y-98499500D01*
X131316510Y-98530261D01*
X131316498Y-98530264D01*
X131170827Y-98590602D01*
X131170814Y-98590609D01*
X131039711Y-98678210D01*
X131039707Y-98678213D01*
X130928213Y-98789707D01*
X130928210Y-98789711D01*
X130840609Y-98920814D01*
X130840602Y-98920827D01*
X130780264Y-99066498D01*
X130780261Y-99066510D01*
X130749500Y-99221153D01*
X120525499Y-99221153D01*
X120525499Y-98599992D01*
X120514999Y-98497203D01*
X120459814Y-98330666D01*
X120367712Y-98181344D01*
X120243656Y-98057288D01*
X120094334Y-97965186D01*
X119927797Y-97910001D01*
X119927795Y-97910000D01*
X119825010Y-97899500D01*
X118224998Y-97899500D01*
X118224981Y-97899501D01*
X118122203Y-97910000D01*
X118122200Y-97910001D01*
X117955668Y-97965185D01*
X117955663Y-97965187D01*
X117806342Y-98057289D01*
X117682289Y-98181342D01*
X117590187Y-98330663D01*
X117590186Y-98330666D01*
X117535001Y-98497203D01*
X117535001Y-98497204D01*
X117535000Y-98497204D01*
X117524500Y-98599983D01*
X115000500Y-98599983D01*
X115000500Y-94921153D01*
X141199500Y-94921153D01*
X141199500Y-95078846D01*
X141230261Y-95233489D01*
X141230264Y-95233501D01*
X141290602Y-95379172D01*
X141290609Y-95379185D01*
X141378210Y-95510288D01*
X141378213Y-95510292D01*
X141489707Y-95621786D01*
X141489711Y-95621789D01*
X141620814Y-95709390D01*
X141620827Y-95709397D01*
X141766498Y-95769735D01*
X141766503Y-95769737D01*
X141921153Y-95800499D01*
X141921156Y-95800500D01*
X141921158Y-95800500D01*
X142078844Y-95800500D01*
X142078845Y-95800499D01*
X142233497Y-95769737D01*
X142300091Y-95742153D01*
X148501500Y-95742153D01*
X148501500Y-95899846D01*
X148532261Y-96054489D01*
X148532264Y-96054501D01*
X148592602Y-96200172D01*
X148592609Y-96200185D01*
X148680210Y-96331288D01*
X148680213Y-96331292D01*
X148791707Y-96442786D01*
X148791711Y-96442789D01*
X148922814Y-96530390D01*
X148922827Y-96530397D01*
X149068498Y-96590735D01*
X149068503Y-96590737D01*
X149223153Y-96621499D01*
X149223156Y-96621500D01*
X149223158Y-96621500D01*
X149380844Y-96621500D01*
X149380845Y-96621499D01*
X149535497Y-96590737D01*
X149681179Y-96530394D01*
X149812289Y-96442789D01*
X149923789Y-96331289D01*
X149930562Y-96321153D01*
X150879500Y-96321153D01*
X150879500Y-96478846D01*
X150910261Y-96633489D01*
X150910264Y-96633501D01*
X150970602Y-96779172D01*
X150970609Y-96779185D01*
X151058210Y-96910288D01*
X151058213Y-96910292D01*
X151169707Y-97021786D01*
X151169711Y-97021789D01*
X151300814Y-97109390D01*
X151300827Y-97109397D01*
X151446498Y-97169735D01*
X151446503Y-97169737D01*
X151601153Y-97200499D01*
X151601156Y-97200500D01*
X151601158Y-97200500D01*
X151758844Y-97200500D01*
X151758845Y-97200499D01*
X151913497Y-97169737D01*
X152059179Y-97109394D01*
X152190289Y-97021789D01*
X152301789Y-96910289D01*
X152361348Y-96821153D01*
X164599500Y-96821153D01*
X164599500Y-96978846D01*
X164630261Y-97133489D01*
X164630264Y-97133501D01*
X164690602Y-97279172D01*
X164690609Y-97279185D01*
X164778210Y-97410288D01*
X164778213Y-97410292D01*
X164889707Y-97521786D01*
X164889711Y-97521789D01*
X165020814Y-97609390D01*
X165020827Y-97609397D01*
X165166498Y-97669735D01*
X165166503Y-97669737D01*
X165321153Y-97700499D01*
X165321156Y-97700500D01*
X165321158Y-97700500D01*
X165478844Y-97700500D01*
X165478845Y-97700499D01*
X165633497Y-97669737D01*
X165779179Y-97609394D01*
X165813623Y-97586379D01*
X176694500Y-97586379D01*
X176694500Y-97773620D01*
X176731025Y-97957243D01*
X176731027Y-97957251D01*
X176802676Y-98130228D01*
X176802681Y-98130237D01*
X176906697Y-98285907D01*
X176906700Y-98285911D01*
X177039088Y-98418299D01*
X177039092Y-98418302D01*
X177194762Y-98522318D01*
X177194771Y-98522323D01*
X177233956Y-98538554D01*
X177367749Y-98593973D01*
X177551379Y-98630499D01*
X177551383Y-98630500D01*
X177551384Y-98630500D01*
X178442439Y-98630500D01*
X178509478Y-98650185D01*
X178555233Y-98702989D01*
X178565177Y-98772147D01*
X178557000Y-98801952D01*
X178530264Y-98866498D01*
X178530261Y-98866510D01*
X178499500Y-99021153D01*
X178499500Y-99178846D01*
X178530261Y-99333489D01*
X178530264Y-99333501D01*
X178590602Y-99479172D01*
X178590609Y-99479185D01*
X178678210Y-99610288D01*
X178678213Y-99610292D01*
X178789707Y-99721786D01*
X178789711Y-99721789D01*
X178920814Y-99809390D01*
X178920827Y-99809397D01*
X179066498Y-99869735D01*
X179066503Y-99869737D01*
X179218649Y-99900001D01*
X179221153Y-99900499D01*
X179221156Y-99900500D01*
X179221158Y-99900500D01*
X179378844Y-99900500D01*
X179378845Y-99900499D01*
X179533497Y-99869737D01*
X179679179Y-99809394D01*
X179810289Y-99721789D01*
X179921789Y-99610289D01*
X180009394Y-99479179D01*
X180012854Y-99470827D01*
X180050954Y-99378844D01*
X180069737Y-99333497D01*
X180100500Y-99178842D01*
X180100500Y-99021158D01*
X180100500Y-99021155D01*
X180100499Y-99021153D01*
X180080543Y-98920827D01*
X180069737Y-98866503D01*
X180069735Y-98866498D01*
X180009397Y-98720827D01*
X180009390Y-98720814D01*
X179921789Y-98589711D01*
X179921786Y-98589707D01*
X179810292Y-98478213D01*
X179810288Y-98478210D01*
X179679185Y-98390609D01*
X179679175Y-98390604D01*
X179610563Y-98362184D01*
X179556160Y-98318343D01*
X179534095Y-98252049D01*
X179551374Y-98184349D01*
X179554915Y-98178731D01*
X179587317Y-98130238D01*
X179587318Y-98130237D01*
X179587322Y-98130231D01*
X179658973Y-97957251D01*
X179695500Y-97773616D01*
X179695500Y-97586384D01*
X179695499Y-97586379D01*
X181014500Y-97586379D01*
X181014500Y-97773620D01*
X181051025Y-97957243D01*
X181051027Y-97957251D01*
X181122676Y-98130228D01*
X181122681Y-98130237D01*
X181226697Y-98285907D01*
X181226700Y-98285911D01*
X181359088Y-98418299D01*
X181359092Y-98418302D01*
X181514762Y-98522318D01*
X181514771Y-98522323D01*
X181553956Y-98538554D01*
X181687749Y-98593973D01*
X181871379Y-98630499D01*
X181871383Y-98630500D01*
X181871384Y-98630500D01*
X182858617Y-98630500D01*
X182858618Y-98630499D01*
X183042251Y-98593973D01*
X183215231Y-98522322D01*
X183370908Y-98418302D01*
X183503302Y-98285908D01*
X183607322Y-98130231D01*
X183678973Y-97957251D01*
X183715500Y-97773616D01*
X183715500Y-97586384D01*
X183678973Y-97402749D01*
X183607322Y-97229769D01*
X183607321Y-97229768D01*
X183607318Y-97229762D01*
X183503302Y-97074092D01*
X183503299Y-97074088D01*
X183370911Y-96941700D01*
X183370907Y-96941697D01*
X183215237Y-96837681D01*
X183215228Y-96837676D01*
X183042251Y-96766027D01*
X183042243Y-96766025D01*
X182858620Y-96729500D01*
X182858616Y-96729500D01*
X181871384Y-96729500D01*
X181871379Y-96729500D01*
X181687756Y-96766025D01*
X181687748Y-96766027D01*
X181514771Y-96837676D01*
X181514762Y-96837681D01*
X181359092Y-96941697D01*
X181359088Y-96941700D01*
X181226700Y-97074088D01*
X181226697Y-97074092D01*
X181122681Y-97229762D01*
X181122676Y-97229771D01*
X181051027Y-97402748D01*
X181051025Y-97402756D01*
X181014500Y-97586379D01*
X179695499Y-97586379D01*
X179658973Y-97402749D01*
X179587322Y-97229769D01*
X179587321Y-97229768D01*
X179587318Y-97229762D01*
X179483302Y-97074092D01*
X179483299Y-97074088D01*
X179350911Y-96941700D01*
X179350907Y-96941697D01*
X179195237Y-96837681D01*
X179195228Y-96837676D01*
X179022251Y-96766027D01*
X179022243Y-96766025D01*
X178838620Y-96729500D01*
X178838616Y-96729500D01*
X177551384Y-96729500D01*
X177551379Y-96729500D01*
X177367756Y-96766025D01*
X177367748Y-96766027D01*
X177194771Y-96837676D01*
X177194762Y-96837681D01*
X177039092Y-96941697D01*
X177039088Y-96941700D01*
X176906700Y-97074088D01*
X176906697Y-97074092D01*
X176802681Y-97229762D01*
X176802676Y-97229771D01*
X176731027Y-97402748D01*
X176731025Y-97402756D01*
X176694500Y-97586379D01*
X165813623Y-97586379D01*
X165910289Y-97521789D01*
X165910292Y-97521786D01*
X165939468Y-97492611D01*
X166021786Y-97410292D01*
X166021789Y-97410289D01*
X166109394Y-97279179D01*
X166169737Y-97133497D01*
X166200500Y-96978842D01*
X166200500Y-96821158D01*
X166200500Y-96821155D01*
X166200499Y-96821153D01*
X166169738Y-96666510D01*
X166169737Y-96666503D01*
X166151096Y-96621499D01*
X166109397Y-96520827D01*
X166109390Y-96520814D01*
X166021789Y-96389711D01*
X166021786Y-96389707D01*
X165910292Y-96278213D01*
X165910288Y-96278210D01*
X165779185Y-96190609D01*
X165779172Y-96190602D01*
X165633501Y-96130264D01*
X165633489Y-96130261D01*
X165478845Y-96099500D01*
X165478842Y-96099500D01*
X165321158Y-96099500D01*
X165321155Y-96099500D01*
X165166510Y-96130261D01*
X165166498Y-96130264D01*
X165020827Y-96190602D01*
X165020814Y-96190609D01*
X164889711Y-96278210D01*
X164889707Y-96278213D01*
X164778213Y-96389707D01*
X164778210Y-96389711D01*
X164690609Y-96520814D01*
X164690602Y-96520827D01*
X164630264Y-96666498D01*
X164630261Y-96666510D01*
X164599500Y-96821153D01*
X152361348Y-96821153D01*
X152389394Y-96779179D01*
X152449737Y-96633497D01*
X152480500Y-96478842D01*
X152480500Y-96321158D01*
X152480500Y-96321155D01*
X152480499Y-96321153D01*
X152456437Y-96200185D01*
X152449737Y-96166503D01*
X152449735Y-96166498D01*
X152389397Y-96020827D01*
X152389390Y-96020814D01*
X152301789Y-95889711D01*
X152301786Y-95889707D01*
X152190292Y-95778213D01*
X152190288Y-95778210D01*
X152059185Y-95690609D01*
X152059172Y-95690602D01*
X151913501Y-95630264D01*
X151913489Y-95630261D01*
X151758845Y-95599500D01*
X151758842Y-95599500D01*
X151601158Y-95599500D01*
X151601155Y-95599500D01*
X151446510Y-95630261D01*
X151446498Y-95630264D01*
X151300827Y-95690602D01*
X151300814Y-95690609D01*
X151169711Y-95778210D01*
X151169707Y-95778213D01*
X151058213Y-95889707D01*
X151058210Y-95889711D01*
X150970609Y-96020814D01*
X150970602Y-96020827D01*
X150910264Y-96166498D01*
X150910261Y-96166510D01*
X150879500Y-96321153D01*
X149930562Y-96321153D01*
X149959255Y-96278210D01*
X149980661Y-96246175D01*
X150011390Y-96200185D01*
X150011390Y-96200184D01*
X150011394Y-96200179D01*
X150071737Y-96054497D01*
X150102500Y-95899842D01*
X150102500Y-95742158D01*
X150102500Y-95742155D01*
X150102499Y-95742153D01*
X150092246Y-95690609D01*
X150071737Y-95587503D01*
X150068520Y-95579737D01*
X150011397Y-95441827D01*
X150011390Y-95441814D01*
X149923789Y-95310711D01*
X149923786Y-95310707D01*
X149812292Y-95199213D01*
X149812288Y-95199210D01*
X149681185Y-95111609D01*
X149681172Y-95111602D01*
X149535501Y-95051264D01*
X149535489Y-95051261D01*
X149380845Y-95020500D01*
X149380842Y-95020500D01*
X149223158Y-95020500D01*
X149223155Y-95020500D01*
X149068510Y-95051261D01*
X149068498Y-95051264D01*
X148922827Y-95111602D01*
X148922814Y-95111609D01*
X148791711Y-95199210D01*
X148791707Y-95199213D01*
X148680213Y-95310707D01*
X148680210Y-95310711D01*
X148592609Y-95441814D01*
X148592602Y-95441827D01*
X148532264Y-95587498D01*
X148532261Y-95587510D01*
X148501500Y-95742153D01*
X142300091Y-95742153D01*
X142379179Y-95709394D01*
X142407303Y-95690602D01*
X142493565Y-95632964D01*
X142499502Y-95628996D01*
X142510289Y-95621789D01*
X142621789Y-95510289D01*
X142709394Y-95379179D01*
X142769737Y-95233497D01*
X142800500Y-95078842D01*
X142800500Y-94921158D01*
X142800500Y-94921155D01*
X142800499Y-94921153D01*
X142782723Y-94831786D01*
X142769737Y-94766503D01*
X142755097Y-94731158D01*
X142755095Y-94731153D01*
X145089500Y-94731153D01*
X145089500Y-94888846D01*
X145120261Y-95043489D01*
X145120264Y-95043501D01*
X145180602Y-95189172D01*
X145180609Y-95189185D01*
X145268210Y-95320288D01*
X145268213Y-95320292D01*
X145379707Y-95431786D01*
X145379711Y-95431789D01*
X145510814Y-95519390D01*
X145510827Y-95519397D01*
X145656498Y-95579735D01*
X145656503Y-95579737D01*
X145755858Y-95599500D01*
X145811153Y-95610499D01*
X145811156Y-95610500D01*
X145811158Y-95610500D01*
X145968844Y-95610500D01*
X145968845Y-95610499D01*
X146123497Y-95579737D01*
X146269179Y-95519394D01*
X146400289Y-95431789D01*
X146511789Y-95320289D01*
X146599394Y-95189179D01*
X146659737Y-95043497D01*
X146690500Y-94888842D01*
X146690500Y-94731158D01*
X146690500Y-94731155D01*
X146690499Y-94731153D01*
X146684402Y-94700500D01*
X146659737Y-94576503D01*
X146623787Y-94489711D01*
X146599397Y-94430827D01*
X146599390Y-94430814D01*
X146511789Y-94299711D01*
X146511786Y-94299707D01*
X146400292Y-94188213D01*
X146400288Y-94188210D01*
X146314897Y-94131153D01*
X155459500Y-94131153D01*
X155459500Y-94288846D01*
X155490261Y-94443489D01*
X155490264Y-94443501D01*
X155550602Y-94589172D01*
X155550609Y-94589185D01*
X155638210Y-94720288D01*
X155638213Y-94720292D01*
X155749707Y-94831786D01*
X155749711Y-94831789D01*
X155880814Y-94919390D01*
X155880827Y-94919397D01*
X156026498Y-94979735D01*
X156026503Y-94979737D01*
X156181153Y-95010499D01*
X156181156Y-95010500D01*
X156181158Y-95010500D01*
X156338844Y-95010500D01*
X156338845Y-95010499D01*
X156493497Y-94979737D01*
X156606166Y-94933067D01*
X156639172Y-94919397D01*
X156639172Y-94919396D01*
X156639179Y-94919394D01*
X156770289Y-94831789D01*
X156881789Y-94720289D01*
X156969394Y-94589179D01*
X157029737Y-94443497D01*
X157060500Y-94288842D01*
X157060500Y-94131158D01*
X157060500Y-94131155D01*
X157060499Y-94131153D01*
X157054422Y-94100602D01*
X157029737Y-93976503D01*
X156993787Y-93889711D01*
X156969397Y-93830827D01*
X156969390Y-93830814D01*
X156881789Y-93699711D01*
X156881786Y-93699707D01*
X156770292Y-93588213D01*
X156770288Y-93588210D01*
X156710361Y-93548168D01*
X156639185Y-93500609D01*
X156639172Y-93500602D01*
X156519790Y-93451153D01*
X157199500Y-93451153D01*
X157199500Y-93608846D01*
X157230261Y-93763489D01*
X157230264Y-93763501D01*
X157290602Y-93909172D01*
X157290609Y-93909185D01*
X157378210Y-94040288D01*
X157378213Y-94040292D01*
X157489707Y-94151786D01*
X157489711Y-94151789D01*
X157620814Y-94239390D01*
X157620827Y-94239397D01*
X157766440Y-94299711D01*
X157766503Y-94299737D01*
X157921153Y-94330499D01*
X157921156Y-94330500D01*
X157921158Y-94330500D01*
X158078844Y-94330500D01*
X158078845Y-94330499D01*
X158125831Y-94321153D01*
X178839500Y-94321153D01*
X178839500Y-94478846D01*
X178870261Y-94633489D01*
X178870264Y-94633501D01*
X178930602Y-94779172D01*
X178930609Y-94779185D01*
X179018210Y-94910288D01*
X179018213Y-94910292D01*
X179129707Y-95021786D01*
X179129711Y-95021789D01*
X179260814Y-95109390D01*
X179260827Y-95109397D01*
X179406498Y-95169735D01*
X179406503Y-95169737D01*
X179554673Y-95199210D01*
X179561153Y-95200499D01*
X179561156Y-95200500D01*
X179561158Y-95200500D01*
X179718844Y-95200500D01*
X179718845Y-95200499D01*
X179873497Y-95169737D01*
X179986166Y-95123067D01*
X180019172Y-95109397D01*
X180019172Y-95109396D01*
X180019179Y-95109394D01*
X180150289Y-95021789D01*
X180261789Y-94910289D01*
X180349394Y-94779179D01*
X180409737Y-94633497D01*
X180440500Y-94478842D01*
X180440500Y-94321158D01*
X180440500Y-94321155D01*
X180440499Y-94321153D01*
X180432148Y-94279172D01*
X180409737Y-94166503D01*
X180395097Y-94131158D01*
X180349397Y-94020827D01*
X180349390Y-94020814D01*
X180261789Y-93889711D01*
X180261786Y-93889707D01*
X180150292Y-93778213D01*
X180150288Y-93778210D01*
X180019185Y-93690609D01*
X180019172Y-93690602D01*
X179873501Y-93630264D01*
X179873489Y-93630261D01*
X179718845Y-93599500D01*
X179718842Y-93599500D01*
X179561158Y-93599500D01*
X179561155Y-93599500D01*
X179406510Y-93630261D01*
X179406498Y-93630264D01*
X179260827Y-93690602D01*
X179260814Y-93690609D01*
X179129711Y-93778210D01*
X179129707Y-93778213D01*
X179018213Y-93889707D01*
X179018210Y-93889711D01*
X178930609Y-94020814D01*
X178930602Y-94020827D01*
X178870264Y-94166498D01*
X178870261Y-94166510D01*
X178839500Y-94321153D01*
X158125831Y-94321153D01*
X158233497Y-94299737D01*
X158379179Y-94239394D01*
X158392843Y-94230264D01*
X158420232Y-94211964D01*
X158488257Y-94166510D01*
X158510289Y-94151789D01*
X158621789Y-94040289D01*
X158709394Y-93909179D01*
X158769737Y-93763497D01*
X158800500Y-93608842D01*
X158800500Y-93451158D01*
X158800500Y-93451155D01*
X158800499Y-93451153D01*
X158788277Y-93389711D01*
X158769737Y-93296503D01*
X158769735Y-93296498D01*
X158709397Y-93150827D01*
X158709390Y-93150814D01*
X158621789Y-93019711D01*
X158621786Y-93019707D01*
X158510292Y-92908213D01*
X158510288Y-92908210D01*
X158379185Y-92820609D01*
X158379172Y-92820602D01*
X158233501Y-92760264D01*
X158233489Y-92760261D01*
X158078845Y-92729500D01*
X158078842Y-92729500D01*
X157921158Y-92729500D01*
X157921155Y-92729500D01*
X157766510Y-92760261D01*
X157766498Y-92760264D01*
X157620827Y-92820602D01*
X157620814Y-92820609D01*
X157489711Y-92908210D01*
X157489707Y-92908213D01*
X157378213Y-93019707D01*
X157378210Y-93019711D01*
X157290609Y-93150814D01*
X157290602Y-93150827D01*
X157230264Y-93296498D01*
X157230261Y-93296510D01*
X157199500Y-93451153D01*
X156519790Y-93451153D01*
X156493501Y-93440264D01*
X156493489Y-93440261D01*
X156338845Y-93409500D01*
X156338842Y-93409500D01*
X156181158Y-93409500D01*
X156181155Y-93409500D01*
X156026510Y-93440261D01*
X156026498Y-93440264D01*
X155880827Y-93500602D01*
X155880814Y-93500609D01*
X155749711Y-93588210D01*
X155749707Y-93588213D01*
X155638213Y-93699707D01*
X155638210Y-93699711D01*
X155550609Y-93830814D01*
X155550602Y-93830827D01*
X155490264Y-93976498D01*
X155490261Y-93976510D01*
X155459500Y-94131153D01*
X146314897Y-94131153D01*
X146269185Y-94100609D01*
X146269172Y-94100602D01*
X146123501Y-94040264D01*
X146123489Y-94040261D01*
X145968845Y-94009500D01*
X145968842Y-94009500D01*
X145811158Y-94009500D01*
X145811155Y-94009500D01*
X145656510Y-94040261D01*
X145656498Y-94040264D01*
X145510827Y-94100602D01*
X145510814Y-94100609D01*
X145379711Y-94188210D01*
X145379707Y-94188213D01*
X145268213Y-94299707D01*
X145268210Y-94299711D01*
X145180609Y-94430814D01*
X145180602Y-94430827D01*
X145120264Y-94576498D01*
X145120261Y-94576510D01*
X145089500Y-94731153D01*
X142755095Y-94731153D01*
X142709397Y-94620827D01*
X142709390Y-94620814D01*
X142621789Y-94489711D01*
X142621786Y-94489707D01*
X142510292Y-94378213D01*
X142510288Y-94378210D01*
X142379185Y-94290609D01*
X142379172Y-94290602D01*
X142233501Y-94230264D01*
X142233489Y-94230261D01*
X142078845Y-94199500D01*
X142078842Y-94199500D01*
X141921158Y-94199500D01*
X141921155Y-94199500D01*
X141766510Y-94230261D01*
X141766498Y-94230264D01*
X141620827Y-94290602D01*
X141620814Y-94290609D01*
X141489711Y-94378210D01*
X141489707Y-94378213D01*
X141378213Y-94489707D01*
X141378210Y-94489711D01*
X141290609Y-94620814D01*
X141290602Y-94620827D01*
X141230264Y-94766498D01*
X141230261Y-94766510D01*
X141199500Y-94921153D01*
X115000500Y-94921153D01*
X115000500Y-93821153D01*
X132299500Y-93821153D01*
X132299500Y-93978846D01*
X132330261Y-94133489D01*
X132330264Y-94133501D01*
X132390602Y-94279172D01*
X132390609Y-94279185D01*
X132478210Y-94410288D01*
X132478213Y-94410292D01*
X132589707Y-94521786D01*
X132589711Y-94521789D01*
X132720814Y-94609390D01*
X132720827Y-94609397D01*
X132866498Y-94669735D01*
X132866503Y-94669737D01*
X133021153Y-94700499D01*
X133021156Y-94700500D01*
X133021158Y-94700500D01*
X133178844Y-94700500D01*
X133178845Y-94700499D01*
X133333497Y-94669737D01*
X133451592Y-94620821D01*
X133479172Y-94609397D01*
X133479172Y-94609396D01*
X133479179Y-94609394D01*
X133610289Y-94521789D01*
X133721789Y-94410289D01*
X133809394Y-94279179D01*
X133869737Y-94133497D01*
X133900500Y-93978842D01*
X133900500Y-93821158D01*
X133900500Y-93821155D01*
X133900499Y-93821153D01*
X133889029Y-93763489D01*
X133869737Y-93666503D01*
X133869735Y-93666498D01*
X133809397Y-93520827D01*
X133809390Y-93520814D01*
X133721789Y-93389711D01*
X133721786Y-93389707D01*
X133610292Y-93278213D01*
X133610288Y-93278210D01*
X133479185Y-93190609D01*
X133479172Y-93190602D01*
X133333501Y-93130264D01*
X133333489Y-93130261D01*
X133178845Y-93099500D01*
X133178842Y-93099500D01*
X133021158Y-93099500D01*
X133021155Y-93099500D01*
X132866510Y-93130261D01*
X132866498Y-93130264D01*
X132720827Y-93190602D01*
X132720814Y-93190609D01*
X132589711Y-93278210D01*
X132589707Y-93278213D01*
X132478213Y-93389707D01*
X132478210Y-93389711D01*
X132390609Y-93520814D01*
X132390602Y-93520827D01*
X132330264Y-93666498D01*
X132330261Y-93666510D01*
X132299500Y-93821153D01*
X115000500Y-93821153D01*
X115000500Y-91224983D01*
X116649500Y-91224983D01*
X116649500Y-92775001D01*
X116649501Y-92775018D01*
X116660000Y-92877796D01*
X116660001Y-92877799D01*
X116705894Y-93016294D01*
X116715186Y-93044334D01*
X116807288Y-93193656D01*
X116931344Y-93317712D01*
X117080666Y-93409814D01*
X117247203Y-93464999D01*
X117349991Y-93475500D01*
X118650008Y-93475499D01*
X118752797Y-93464999D01*
X118919334Y-93409814D01*
X119068656Y-93317712D01*
X119192712Y-93193656D01*
X119284814Y-93044334D01*
X119284814Y-93044331D01*
X119288178Y-93038879D01*
X119340126Y-92992154D01*
X119409088Y-92980931D01*
X119473170Y-93008774D01*
X119481398Y-93016294D01*
X119620213Y-93155109D01*
X119792179Y-93280048D01*
X119792181Y-93280049D01*
X119792184Y-93280051D01*
X119981588Y-93376557D01*
X120183757Y-93442246D01*
X120393713Y-93475500D01*
X120393714Y-93475500D01*
X120606286Y-93475500D01*
X120606287Y-93475500D01*
X120816243Y-93442246D01*
X121018412Y-93376557D01*
X121207816Y-93280051D01*
X121229789Y-93264086D01*
X121379786Y-93155109D01*
X121379788Y-93155106D01*
X121379792Y-93155104D01*
X121530104Y-93004792D01*
X121649683Y-92840204D01*
X121705011Y-92797540D01*
X121774624Y-92791561D01*
X121836420Y-92824166D01*
X121850313Y-92840199D01*
X121926818Y-92945500D01*
X121969896Y-93004792D01*
X122120213Y-93155109D01*
X122292179Y-93280048D01*
X122292181Y-93280049D01*
X122292184Y-93280051D01*
X122481588Y-93376557D01*
X122683757Y-93442246D01*
X122893713Y-93475500D01*
X122893714Y-93475500D01*
X123106286Y-93475500D01*
X123106287Y-93475500D01*
X123316243Y-93442246D01*
X123518412Y-93376557D01*
X123707816Y-93280051D01*
X123729789Y-93264086D01*
X123879786Y-93155109D01*
X123879788Y-93155106D01*
X123879792Y-93155104D01*
X124030104Y-93004792D01*
X124030106Y-93004788D01*
X124030109Y-93004786D01*
X124155048Y-92832820D01*
X124155047Y-92832820D01*
X124155051Y-92832816D01*
X124251557Y-92643412D01*
X124317246Y-92441243D01*
X124350500Y-92231287D01*
X124350500Y-91768713D01*
X124317246Y-91558757D01*
X124251557Y-91356588D01*
X124155051Y-91167184D01*
X124155049Y-91167181D01*
X124155048Y-91167179D01*
X124030109Y-90995213D01*
X123879786Y-90844890D01*
X123707820Y-90719951D01*
X123518414Y-90623444D01*
X123518413Y-90623443D01*
X123518412Y-90623443D01*
X123316243Y-90557754D01*
X123316241Y-90557753D01*
X123316240Y-90557753D01*
X123154957Y-90532208D01*
X123106287Y-90524500D01*
X122893713Y-90524500D01*
X122845042Y-90532208D01*
X122683760Y-90557753D01*
X122481585Y-90623444D01*
X122292179Y-90719951D01*
X122120213Y-90844890D01*
X121969894Y-90995209D01*
X121969890Y-90995214D01*
X121850318Y-91159793D01*
X121794989Y-91202459D01*
X121725375Y-91208438D01*
X121663580Y-91175833D01*
X121649682Y-91159793D01*
X121530109Y-90995214D01*
X121530105Y-90995209D01*
X121379786Y-90844890D01*
X121207820Y-90719951D01*
X121018414Y-90623444D01*
X121018413Y-90623443D01*
X121018412Y-90623443D01*
X120816243Y-90557754D01*
X120816241Y-90557753D01*
X120816240Y-90557753D01*
X120654957Y-90532208D01*
X120606287Y-90524500D01*
X120393713Y-90524500D01*
X120345042Y-90532208D01*
X120183760Y-90557753D01*
X119981585Y-90623444D01*
X119792179Y-90719951D01*
X119620215Y-90844889D01*
X119481398Y-90983706D01*
X119420075Y-91017190D01*
X119350383Y-91012206D01*
X119294450Y-90970334D01*
X119288178Y-90961120D01*
X119192712Y-90806344D01*
X119068657Y-90682289D01*
X119068656Y-90682288D01*
X118919334Y-90590186D01*
X118752797Y-90535001D01*
X118752795Y-90535000D01*
X118650010Y-90524500D01*
X117349998Y-90524500D01*
X117349981Y-90524501D01*
X117247203Y-90535000D01*
X117247200Y-90535001D01*
X117080668Y-90590185D01*
X117080663Y-90590187D01*
X116931342Y-90682289D01*
X116807289Y-90806342D01*
X116715187Y-90955663D01*
X116715185Y-90955668D01*
X116705894Y-90983706D01*
X116660001Y-91122203D01*
X116660001Y-91122204D01*
X116660000Y-91122204D01*
X116649500Y-91224983D01*
X115000500Y-91224983D01*
X115000500Y-88821153D01*
X126974500Y-88821153D01*
X126974500Y-88978846D01*
X127005261Y-89133489D01*
X127005264Y-89133501D01*
X127065602Y-89279172D01*
X127065609Y-89279185D01*
X127153210Y-89410288D01*
X127153213Y-89410292D01*
X127264707Y-89521786D01*
X127264711Y-89521789D01*
X127395814Y-89609390D01*
X127395827Y-89609397D01*
X127518510Y-89660213D01*
X127541503Y-89669737D01*
X127696153Y-89700499D01*
X127696156Y-89700500D01*
X127696158Y-89700500D01*
X127853844Y-89700500D01*
X127853845Y-89700499D01*
X128008497Y-89669737D01*
X128154179Y-89609394D01*
X128285289Y-89521789D01*
X128396789Y-89410289D01*
X128484394Y-89279179D01*
X128544737Y-89133497D01*
X128575500Y-88978842D01*
X128575500Y-88821158D01*
X128575500Y-88821155D01*
X128575499Y-88821153D01*
X128557419Y-88730261D01*
X128544737Y-88666503D01*
X128488099Y-88529765D01*
X128484397Y-88520827D01*
X128484390Y-88520814D01*
X128396789Y-88389711D01*
X128396786Y-88389707D01*
X128285292Y-88278213D01*
X128285288Y-88278210D01*
X128154185Y-88190609D01*
X128154172Y-88190602D01*
X128008501Y-88130264D01*
X128008489Y-88130261D01*
X127853845Y-88099500D01*
X127853842Y-88099500D01*
X127696158Y-88099500D01*
X127696155Y-88099500D01*
X127541510Y-88130261D01*
X127541498Y-88130264D01*
X127395827Y-88190602D01*
X127395814Y-88190609D01*
X127264711Y-88278210D01*
X127264707Y-88278213D01*
X127153213Y-88389707D01*
X127153210Y-88389711D01*
X127065609Y-88520814D01*
X127065602Y-88520827D01*
X127005264Y-88666498D01*
X127005261Y-88666510D01*
X126974500Y-88821153D01*
X115000500Y-88821153D01*
X115000500Y-87209525D01*
X115020185Y-87142486D01*
X115072989Y-87096731D01*
X115142147Y-87086787D01*
X115205703Y-87115812D01*
X115220347Y-87130854D01*
X115352747Y-87292184D01*
X115403177Y-87353633D01*
X115646367Y-87596823D01*
X115646372Y-87596827D01*
X115646373Y-87596828D01*
X115912240Y-87815019D01*
X116198213Y-88006100D01*
X116198222Y-88006105D01*
X116198224Y-88006106D01*
X116501530Y-88168227D01*
X116501532Y-88168227D01*
X116501538Y-88168231D01*
X116819295Y-88299850D01*
X117148422Y-88399690D01*
X117485750Y-88466789D01*
X117828031Y-88500500D01*
X117828034Y-88500500D01*
X118171966Y-88500500D01*
X118171969Y-88500500D01*
X118514250Y-88466789D01*
X118851578Y-88399690D01*
X119180705Y-88299850D01*
X119498462Y-88168231D01*
X119801787Y-88006100D01*
X120087760Y-87815019D01*
X120353627Y-87596828D01*
X120596828Y-87353627D01*
X120815019Y-87087760D01*
X121006100Y-86801787D01*
X121168231Y-86498462D01*
X121299850Y-86180705D01*
X121399690Y-85851578D01*
X121466789Y-85514250D01*
X121500500Y-85171969D01*
X121500500Y-84828031D01*
X121474312Y-84562135D01*
X141374500Y-84562135D01*
X141374500Y-86357870D01*
X141374501Y-86357876D01*
X141380908Y-86417483D01*
X141431202Y-86552328D01*
X141431206Y-86552335D01*
X141517452Y-86667544D01*
X141517455Y-86667547D01*
X141632664Y-86753793D01*
X141632671Y-86753797D01*
X141764082Y-86802810D01*
X141820016Y-86844681D01*
X141844433Y-86910145D01*
X141829582Y-86978418D01*
X141808431Y-87006673D01*
X141694889Y-87120215D01*
X141569951Y-87292179D01*
X141473444Y-87481585D01*
X141407753Y-87683760D01*
X141388059Y-87808107D01*
X141374500Y-87893713D01*
X141374500Y-88106287D01*
X141378298Y-88130264D01*
X141405157Y-88299850D01*
X141407754Y-88316243D01*
X141467136Y-88499002D01*
X141473444Y-88518414D01*
X141569951Y-88707820D01*
X141694890Y-88879786D01*
X141845213Y-89030109D01*
X142017182Y-89155050D01*
X142025946Y-89159516D01*
X142076742Y-89207491D01*
X142093536Y-89275312D01*
X142070998Y-89341447D01*
X142025946Y-89380484D01*
X142017182Y-89384949D01*
X141845213Y-89509890D01*
X141694890Y-89660213D01*
X141569951Y-89832179D01*
X141473444Y-90021585D01*
X141407753Y-90223760D01*
X141374500Y-90433713D01*
X141374500Y-90646286D01*
X141405956Y-90844896D01*
X141407754Y-90856243D01*
X141452908Y-90995213D01*
X141473444Y-91058414D01*
X141569951Y-91247820D01*
X141694890Y-91419786D01*
X141845213Y-91570109D01*
X142017179Y-91695048D01*
X142017181Y-91695049D01*
X142017184Y-91695051D01*
X142206588Y-91791557D01*
X142408757Y-91857246D01*
X142618713Y-91890500D01*
X142618714Y-91890500D01*
X142831286Y-91890500D01*
X142831287Y-91890500D01*
X143041243Y-91857246D01*
X143243412Y-91791557D01*
X143432816Y-91695051D01*
X143454789Y-91679086D01*
X143604786Y-91570109D01*
X143604788Y-91570106D01*
X143604792Y-91570104D01*
X143755104Y-91419792D01*
X143755106Y-91419788D01*
X143755109Y-91419786D01*
X143880048Y-91247820D01*
X143880047Y-91247820D01*
X143880051Y-91247816D01*
X143884514Y-91239054D01*
X143932488Y-91188259D01*
X144000308Y-91171463D01*
X144066444Y-91193999D01*
X144105486Y-91239056D01*
X144109951Y-91247820D01*
X144234890Y-91419786D01*
X144385213Y-91570109D01*
X144557179Y-91695048D01*
X144557181Y-91695049D01*
X144557184Y-91695051D01*
X144746588Y-91791557D01*
X144948757Y-91857246D01*
X145158713Y-91890500D01*
X145158714Y-91890500D01*
X145371286Y-91890500D01*
X145371287Y-91890500D01*
X145581243Y-91857246D01*
X145783412Y-91791557D01*
X145972816Y-91695051D01*
X145994789Y-91679086D01*
X146144786Y-91570109D01*
X146144788Y-91570106D01*
X146144792Y-91570104D01*
X146295104Y-91419792D01*
X146295106Y-91419788D01*
X146295109Y-91419786D01*
X146420048Y-91247820D01*
X146420047Y-91247820D01*
X146420051Y-91247816D01*
X146516557Y-91058412D01*
X146582246Y-90856243D01*
X146615500Y-90646287D01*
X146615500Y-90521153D01*
X161499500Y-90521153D01*
X161499500Y-90678846D01*
X161530261Y-90833489D01*
X161530264Y-90833501D01*
X161590602Y-90979172D01*
X161590609Y-90979185D01*
X161678210Y-91110288D01*
X161678213Y-91110292D01*
X161789707Y-91221786D01*
X161789711Y-91221789D01*
X161920814Y-91309390D01*
X161920827Y-91309397D01*
X162027380Y-91353532D01*
X162066503Y-91369737D01*
X162221153Y-91400499D01*
X162221156Y-91400500D01*
X162221158Y-91400500D01*
X162378844Y-91400500D01*
X162378845Y-91400499D01*
X162533497Y-91369737D01*
X162679179Y-91309394D01*
X162810289Y-91221789D01*
X162843365Y-91188713D01*
X170399500Y-91188713D01*
X170399500Y-91701286D01*
X170432753Y-91911239D01*
X170498444Y-92113414D01*
X170594951Y-92302820D01*
X170719890Y-92474786D01*
X170870213Y-92625109D01*
X171042179Y-92750048D01*
X171042181Y-92750049D01*
X171042184Y-92750051D01*
X171231588Y-92846557D01*
X171433757Y-92912246D01*
X171643713Y-92945500D01*
X171643714Y-92945500D01*
X171856286Y-92945500D01*
X171856287Y-92945500D01*
X172066243Y-92912246D01*
X172268412Y-92846557D01*
X172457816Y-92750051D01*
X172629792Y-92625104D01*
X172768604Y-92486291D01*
X172829923Y-92452809D01*
X172899615Y-92457793D01*
X172955549Y-92499664D01*
X172961821Y-92508878D01*
X172965185Y-92514333D01*
X172965186Y-92514334D01*
X173057288Y-92663656D01*
X173181344Y-92787712D01*
X173330666Y-92879814D01*
X173497203Y-92934999D01*
X173599991Y-92945500D01*
X174900008Y-92945499D01*
X175002797Y-92934999D01*
X175169334Y-92879814D01*
X175318656Y-92787712D01*
X175442712Y-92663656D01*
X175534814Y-92514334D01*
X175589999Y-92347797D01*
X175600500Y-92245009D01*
X175600499Y-90644992D01*
X175589999Y-90542203D01*
X175534814Y-90375666D01*
X175442712Y-90226344D01*
X175318656Y-90102288D01*
X175169501Y-90010289D01*
X175169336Y-90010187D01*
X175169331Y-90010185D01*
X175167862Y-90009698D01*
X175002797Y-89955001D01*
X175002795Y-89955000D01*
X174900010Y-89944500D01*
X173599998Y-89944500D01*
X173599981Y-89944501D01*
X173497203Y-89955000D01*
X173497200Y-89955001D01*
X173330668Y-90010185D01*
X173330663Y-90010187D01*
X173181342Y-90102289D01*
X173057289Y-90226342D01*
X172961821Y-90381121D01*
X172909873Y-90427845D01*
X172840910Y-90439068D01*
X172776828Y-90411224D01*
X172768601Y-90403705D01*
X172629786Y-90264890D01*
X172457820Y-90139951D01*
X172268414Y-90043444D01*
X172268413Y-90043443D01*
X172268412Y-90043443D01*
X172066243Y-89977754D01*
X172066241Y-89977753D01*
X172066240Y-89977753D01*
X171904957Y-89952208D01*
X171856287Y-89944500D01*
X171643713Y-89944500D01*
X171595042Y-89952208D01*
X171433760Y-89977753D01*
X171231585Y-90043444D01*
X171042179Y-90139951D01*
X170870213Y-90264890D01*
X170719890Y-90415213D01*
X170594951Y-90587179D01*
X170498444Y-90776585D01*
X170432753Y-90978760D01*
X170399500Y-91188713D01*
X162843365Y-91188713D01*
X162921789Y-91110289D01*
X163009394Y-90979179D01*
X163069737Y-90833497D01*
X163100500Y-90678842D01*
X163100500Y-90521158D01*
X163100500Y-90521155D01*
X163100499Y-90521153D01*
X163079425Y-90415208D01*
X163069737Y-90366503D01*
X163042398Y-90300500D01*
X163009397Y-90220827D01*
X163009390Y-90220814D01*
X162921789Y-90089711D01*
X162921786Y-90089707D01*
X162810292Y-89978213D01*
X162810288Y-89978210D01*
X162679185Y-89890609D01*
X162679172Y-89890602D01*
X162533501Y-89830264D01*
X162533489Y-89830261D01*
X162378845Y-89799500D01*
X162378842Y-89799500D01*
X162221158Y-89799500D01*
X162221155Y-89799500D01*
X162066510Y-89830261D01*
X162066498Y-89830264D01*
X161920827Y-89890602D01*
X161920814Y-89890609D01*
X161789711Y-89978210D01*
X161789707Y-89978213D01*
X161678213Y-90089707D01*
X161678210Y-90089711D01*
X161590609Y-90220814D01*
X161590602Y-90220827D01*
X161530264Y-90366498D01*
X161530261Y-90366510D01*
X161499500Y-90521153D01*
X146615500Y-90521153D01*
X146615500Y-90433713D01*
X146582246Y-90223757D01*
X146516557Y-90021588D01*
X146420051Y-89832184D01*
X146420049Y-89832181D01*
X146420048Y-89832179D01*
X146295109Y-89660213D01*
X146144786Y-89509890D01*
X146022648Y-89421153D01*
X148287000Y-89421153D01*
X148287000Y-89578846D01*
X148317761Y-89733489D01*
X148317764Y-89733501D01*
X148378102Y-89879172D01*
X148378109Y-89879185D01*
X148465710Y-90010288D01*
X148465713Y-90010292D01*
X148577207Y-90121786D01*
X148577211Y-90121789D01*
X148708314Y-90209390D01*
X148708327Y-90209397D01*
X148853998Y-90269735D01*
X148854003Y-90269737D01*
X149008653Y-90300499D01*
X149008656Y-90300500D01*
X149008658Y-90300500D01*
X149166344Y-90300500D01*
X149166345Y-90300499D01*
X149320997Y-90269737D01*
X149439092Y-90220821D01*
X149466672Y-90209397D01*
X149466672Y-90209396D01*
X149466679Y-90209394D01*
X149597789Y-90121789D01*
X149709289Y-90010289D01*
X149796894Y-89879179D01*
X149857237Y-89733497D01*
X149888000Y-89578842D01*
X149888000Y-89421158D01*
X149888000Y-89421155D01*
X149887999Y-89421153D01*
X149880798Y-89384951D01*
X149857237Y-89266503D01*
X149812921Y-89159514D01*
X149796897Y-89120827D01*
X149796890Y-89120814D01*
X149709289Y-88989711D01*
X149709286Y-88989707D01*
X149597792Y-88878213D01*
X149597788Y-88878210D01*
X149466685Y-88790609D01*
X149466672Y-88790602D01*
X149321001Y-88730264D01*
X149320989Y-88730261D01*
X149166345Y-88699500D01*
X149166342Y-88699500D01*
X149008658Y-88699500D01*
X149008655Y-88699500D01*
X148854010Y-88730261D01*
X148853998Y-88730264D01*
X148708327Y-88790602D01*
X148708314Y-88790609D01*
X148577211Y-88878210D01*
X148577207Y-88878213D01*
X148465713Y-88989707D01*
X148465710Y-88989711D01*
X148378109Y-89120814D01*
X148378102Y-89120827D01*
X148317764Y-89266498D01*
X148317761Y-89266510D01*
X148287000Y-89421153D01*
X146022648Y-89421153D01*
X145972820Y-89384951D01*
X145972115Y-89384591D01*
X145964054Y-89380485D01*
X145913259Y-89332512D01*
X145896463Y-89264692D01*
X145918999Y-89198556D01*
X145964054Y-89159515D01*
X145972816Y-89155051D01*
X146019940Y-89120814D01*
X146144786Y-89030109D01*
X146144788Y-89030106D01*
X146144792Y-89030104D01*
X146295104Y-88879792D01*
X146295106Y-88879788D01*
X146295109Y-88879786D01*
X146420048Y-88707820D01*
X146420047Y-88707820D01*
X146420051Y-88707816D01*
X146516557Y-88518412D01*
X146582246Y-88316243D01*
X146615500Y-88106287D01*
X146615500Y-87893713D01*
X146582246Y-87683757D01*
X146571413Y-87650418D01*
X157148765Y-87650418D01*
X157148765Y-87808111D01*
X157179526Y-87962754D01*
X157179529Y-87962766D01*
X157239867Y-88108437D01*
X157239874Y-88108450D01*
X157327475Y-88239553D01*
X157327478Y-88239557D01*
X157438972Y-88351051D01*
X157438976Y-88351054D01*
X157570079Y-88438655D01*
X157570092Y-88438662D01*
X157637998Y-88466789D01*
X157715768Y-88499002D01*
X157870418Y-88529764D01*
X157870421Y-88529765D01*
X157870423Y-88529765D01*
X158028109Y-88529765D01*
X158028110Y-88529764D01*
X158182762Y-88499002D01*
X158328444Y-88438659D01*
X158459554Y-88351054D01*
X158571054Y-88239554D01*
X158658659Y-88108444D01*
X158659553Y-88106287D01*
X158719000Y-87962766D01*
X158719002Y-87962762D01*
X158749765Y-87808107D01*
X158749765Y-87650423D01*
X158749765Y-87650420D01*
X158749764Y-87650418D01*
X158719003Y-87495775D01*
X158719002Y-87495768D01*
X158719000Y-87495763D01*
X158658662Y-87350092D01*
X158658655Y-87350079D01*
X158586069Y-87241447D01*
X158565191Y-87174770D01*
X158583675Y-87107389D01*
X158635654Y-87060699D01*
X158704624Y-87049523D01*
X158709879Y-87050374D01*
X158711156Y-87050500D01*
X158711158Y-87050500D01*
X158868844Y-87050500D01*
X158868845Y-87050499D01*
X159023497Y-87019737D01*
X159168853Y-86959529D01*
X159169172Y-86959397D01*
X159169172Y-86959396D01*
X159169179Y-86959394D01*
X159300289Y-86871789D01*
X159411789Y-86760289D01*
X159499394Y-86629179D01*
X159559737Y-86483497D01*
X159590500Y-86328842D01*
X159590500Y-86171158D01*
X159590500Y-86171155D01*
X159590499Y-86171153D01*
X159559738Y-86016510D01*
X159559737Y-86016503D01*
X159543959Y-85978412D01*
X159499397Y-85870827D01*
X159499390Y-85870814D01*
X159411789Y-85739711D01*
X159411786Y-85739707D01*
X159300292Y-85628213D01*
X159300288Y-85628210D01*
X159169185Y-85540609D01*
X159169172Y-85540602D01*
X159023501Y-85480264D01*
X159023489Y-85480261D01*
X158868845Y-85449500D01*
X158868842Y-85449500D01*
X158711158Y-85449500D01*
X158711155Y-85449500D01*
X158556510Y-85480261D01*
X158556498Y-85480264D01*
X158410827Y-85540602D01*
X158410814Y-85540609D01*
X158279711Y-85628210D01*
X158279707Y-85628213D01*
X158168213Y-85739707D01*
X158168210Y-85739711D01*
X158080609Y-85870814D01*
X158080602Y-85870827D01*
X158020264Y-86016498D01*
X158020261Y-86016510D01*
X157989500Y-86171153D01*
X157989500Y-86328846D01*
X158020261Y-86483489D01*
X158020264Y-86483501D01*
X158080602Y-86629172D01*
X158080609Y-86629185D01*
X158153195Y-86737817D01*
X158174073Y-86804495D01*
X158155588Y-86871875D01*
X158103610Y-86918565D01*
X158034640Y-86929741D01*
X158029389Y-86928891D01*
X158028110Y-86928765D01*
X158028107Y-86928765D01*
X157870423Y-86928765D01*
X157870420Y-86928765D01*
X157715775Y-86959526D01*
X157715763Y-86959529D01*
X157570092Y-87019867D01*
X157570079Y-87019874D01*
X157438976Y-87107475D01*
X157438972Y-87107478D01*
X157327478Y-87218972D01*
X157327475Y-87218976D01*
X157239874Y-87350079D01*
X157239867Y-87350092D01*
X157179529Y-87495763D01*
X157179526Y-87495775D01*
X157148765Y-87650418D01*
X146571413Y-87650418D01*
X146553999Y-87596823D01*
X146516557Y-87481588D01*
X146420051Y-87292184D01*
X146420049Y-87292181D01*
X146420048Y-87292179D01*
X146295109Y-87120213D01*
X146144786Y-86969890D01*
X145972820Y-86844951D01*
X145972115Y-86844591D01*
X145964054Y-86840485D01*
X145913259Y-86792512D01*
X145896463Y-86724692D01*
X145918999Y-86658556D01*
X145964054Y-86619515D01*
X145972816Y-86615051D01*
X146059138Y-86552335D01*
X146144786Y-86490109D01*
X146144788Y-86490106D01*
X146144792Y-86490104D01*
X146295104Y-86339792D01*
X146295106Y-86339788D01*
X146295109Y-86339786D01*
X146417625Y-86171155D01*
X146420051Y-86167816D01*
X146516557Y-85978412D01*
X146582246Y-85776243D01*
X146615500Y-85566287D01*
X146615500Y-85353713D01*
X146582246Y-85143757D01*
X146516557Y-84941588D01*
X146420051Y-84752184D01*
X146420049Y-84752181D01*
X146420048Y-84752179D01*
X146295109Y-84580213D01*
X146144786Y-84429890D01*
X145972820Y-84304951D01*
X145783414Y-84208444D01*
X145783413Y-84208443D01*
X145783412Y-84208443D01*
X145581243Y-84142754D01*
X145581241Y-84142753D01*
X145581239Y-84142753D01*
X145548318Y-84137539D01*
X145442449Y-84120771D01*
X145371287Y-84109500D01*
X145158713Y-84109500D01*
X145110042Y-84117208D01*
X144948760Y-84142753D01*
X144746585Y-84208444D01*
X144557179Y-84304951D01*
X144385215Y-84429889D01*
X144271673Y-84543431D01*
X144210350Y-84576915D01*
X144140658Y-84571931D01*
X144084725Y-84530059D01*
X144067810Y-84499082D01*
X144018797Y-84367671D01*
X144018793Y-84367664D01*
X143932547Y-84252455D01*
X143932544Y-84252452D01*
X143817335Y-84166206D01*
X143817328Y-84166202D01*
X143682482Y-84115908D01*
X143682483Y-84115908D01*
X143622883Y-84109501D01*
X143622881Y-84109500D01*
X143622873Y-84109500D01*
X143622864Y-84109500D01*
X141827129Y-84109500D01*
X141827123Y-84109501D01*
X141767516Y-84115908D01*
X141632671Y-84166202D01*
X141632664Y-84166206D01*
X141517455Y-84252452D01*
X141517452Y-84252455D01*
X141431206Y-84367664D01*
X141431202Y-84367671D01*
X141380908Y-84502517D01*
X141374501Y-84562116D01*
X141374500Y-84562135D01*
X121474312Y-84562135D01*
X121466789Y-84485750D01*
X121399690Y-84148422D01*
X121299850Y-83819295D01*
X121196173Y-83568995D01*
X125899499Y-83568995D01*
X125926418Y-83704322D01*
X125926421Y-83704332D01*
X125979221Y-83831804D01*
X125979228Y-83831817D01*
X126055885Y-83946541D01*
X126055888Y-83946545D01*
X126153454Y-84044111D01*
X126153458Y-84044114D01*
X126268182Y-84120771D01*
X126268195Y-84120778D01*
X126395667Y-84173578D01*
X126395672Y-84173580D01*
X126395676Y-84173580D01*
X126395677Y-84173581D01*
X126531004Y-84200500D01*
X126531007Y-84200500D01*
X126668995Y-84200500D01*
X126777874Y-84178842D01*
X126804328Y-84173580D01*
X126931811Y-84120775D01*
X127046542Y-84044114D01*
X127144114Y-83946542D01*
X127220775Y-83831811D01*
X127273580Y-83704328D01*
X127282389Y-83660041D01*
X127300500Y-83568995D01*
X132699499Y-83568995D01*
X132726418Y-83704322D01*
X132726421Y-83704332D01*
X132779221Y-83831804D01*
X132779228Y-83831817D01*
X132855885Y-83946541D01*
X132855888Y-83946545D01*
X132953454Y-84044111D01*
X132953458Y-84044114D01*
X133068182Y-84120771D01*
X133068195Y-84120778D01*
X133195667Y-84173578D01*
X133195672Y-84173580D01*
X133195676Y-84173580D01*
X133195677Y-84173581D01*
X133331004Y-84200500D01*
X133331007Y-84200500D01*
X133468995Y-84200500D01*
X133577874Y-84178842D01*
X133604328Y-84173580D01*
X133731811Y-84120775D01*
X133846542Y-84044114D01*
X133869503Y-84021153D01*
X161899500Y-84021153D01*
X161899500Y-84178846D01*
X161930261Y-84333489D01*
X161930264Y-84333501D01*
X161990602Y-84479172D01*
X161990609Y-84479185D01*
X162078210Y-84610288D01*
X162078213Y-84610292D01*
X162189707Y-84721786D01*
X162189711Y-84721789D01*
X162320814Y-84809390D01*
X162320827Y-84809397D01*
X162466498Y-84869735D01*
X162466503Y-84869737D01*
X162621153Y-84900499D01*
X162621156Y-84900500D01*
X162621158Y-84900500D01*
X162778844Y-84900500D01*
X162778845Y-84900499D01*
X162933497Y-84869737D01*
X163079179Y-84809394D01*
X163210289Y-84721789D01*
X163321789Y-84610289D01*
X163409394Y-84479179D01*
X163469737Y-84333497D01*
X163500500Y-84178842D01*
X163500500Y-84021158D01*
X163500500Y-84021155D01*
X163500499Y-84021153D01*
X163485658Y-83946542D01*
X163469737Y-83866503D01*
X163450182Y-83819293D01*
X163409397Y-83720827D01*
X163409390Y-83720814D01*
X163321789Y-83589711D01*
X163321786Y-83589707D01*
X163210292Y-83478213D01*
X163210288Y-83478210D01*
X163079185Y-83390609D01*
X163079172Y-83390602D01*
X162933501Y-83330264D01*
X162933489Y-83330261D01*
X162778845Y-83299500D01*
X162778842Y-83299500D01*
X162621158Y-83299500D01*
X162621155Y-83299500D01*
X162466510Y-83330261D01*
X162466498Y-83330264D01*
X162320827Y-83390602D01*
X162320814Y-83390609D01*
X162189711Y-83478210D01*
X162189707Y-83478213D01*
X162078213Y-83589707D01*
X162078210Y-83589711D01*
X161990609Y-83720814D01*
X161990602Y-83720827D01*
X161930264Y-83866498D01*
X161930261Y-83866510D01*
X161899500Y-84021153D01*
X133869503Y-84021153D01*
X133944114Y-83946542D01*
X134020775Y-83831811D01*
X134073580Y-83704328D01*
X134082389Y-83660041D01*
X134100500Y-83568995D01*
X134100500Y-83431004D01*
X134073581Y-83295677D01*
X134073580Y-83295676D01*
X134073580Y-83295672D01*
X134033216Y-83198224D01*
X134020778Y-83168195D01*
X134020771Y-83168182D01*
X133944114Y-83053458D01*
X133944111Y-83053454D01*
X133846545Y-82955888D01*
X133846541Y-82955885D01*
X133731817Y-82879228D01*
X133731804Y-82879221D01*
X133604332Y-82826421D01*
X133604322Y-82826418D01*
X133468995Y-82799500D01*
X133468993Y-82799500D01*
X133331007Y-82799500D01*
X133331005Y-82799500D01*
X133195677Y-82826418D01*
X133195667Y-82826421D01*
X133068195Y-82879221D01*
X133068182Y-82879228D01*
X132953458Y-82955885D01*
X132953454Y-82955888D01*
X132855888Y-83053454D01*
X132855885Y-83053458D01*
X132779228Y-83168182D01*
X132779221Y-83168195D01*
X132726421Y-83295667D01*
X132726418Y-83295677D01*
X132699500Y-83431004D01*
X132699500Y-83431007D01*
X132699500Y-83568993D01*
X132699500Y-83568995D01*
X132699499Y-83568995D01*
X127300500Y-83568995D01*
X127300500Y-83431004D01*
X127273581Y-83295677D01*
X127273580Y-83295676D01*
X127273580Y-83295672D01*
X127233216Y-83198224D01*
X127220778Y-83168195D01*
X127220771Y-83168182D01*
X127144114Y-83053458D01*
X127144111Y-83053454D01*
X127046545Y-82955888D01*
X127046541Y-82955885D01*
X126931817Y-82879228D01*
X126931804Y-82879221D01*
X126804332Y-82826421D01*
X126804322Y-82826418D01*
X126668995Y-82799500D01*
X126668993Y-82799500D01*
X126531007Y-82799500D01*
X126531005Y-82799500D01*
X126395677Y-82826418D01*
X126395667Y-82826421D01*
X126268195Y-82879221D01*
X126268182Y-82879228D01*
X126153458Y-82955885D01*
X126153454Y-82955888D01*
X126055888Y-83053454D01*
X126055885Y-83053458D01*
X125979228Y-83168182D01*
X125979221Y-83168195D01*
X125926421Y-83295667D01*
X125926418Y-83295677D01*
X125899500Y-83431004D01*
X125899500Y-83431007D01*
X125899500Y-83568993D01*
X125899500Y-83568995D01*
X125899499Y-83568995D01*
X121196173Y-83568995D01*
X121168231Y-83501538D01*
X121006100Y-83198213D01*
X120815019Y-82912240D01*
X120596828Y-82646373D01*
X120596827Y-82646372D01*
X120596823Y-82646367D01*
X120353632Y-82403176D01*
X120130861Y-82220353D01*
X120091527Y-82162608D01*
X120089656Y-82092763D01*
X120125843Y-82032995D01*
X120188599Y-82002279D01*
X120209526Y-82000500D01*
X178790474Y-82000500D01*
X178857513Y-82020185D01*
G37*
%TD.AperFunction*%
%TD*%
M02*
