M48
; DRILL file {KiCad 9.0.2} date 2025-11-08T13:28:57-0800
; FORMAT={-:-/ absolute / metric / decimal}
; #@! TF.CreationDate,2025-11-08T13:28:57-08:00
; #@! TF.GenerationSoftware,Kicad,Pcbnew,9.0.2
; #@! TF.FileFunction,Plated,1,4,PTH
FMAT,2
METRIC
; #@! TA.AperFunction,Plated,PTH,ViaDrill
T1C0.300
; #@! TA.AperFunction,Plated,PTH,ComponentDrill
T2C0.600
; #@! TA.AperFunction,Plated,PTH,ComponentDrill
T3C0.950
; #@! TA.AperFunction,Plated,PTH,ComponentDrill
T4C1.000
; #@! TA.AperFunction,Plated,PTH,ComponentDrill
T5C3.000
%
G90
G05
T1
X127.3Y-117.5
X127.775Y-88.9
X130.5Y-101.9
X130.55Y-104.7
X131.55Y-99.3
X132.1Y-101.9
X133.1Y-93.9
X133.4Y-104.8
X133.7Y-101.9
X133.7Y-110.2
X133.7Y-111.9
X134.975Y-94.2
X135.7Y-85.0
X137.03Y-107.47
X137.322Y-108.215
X138.475Y-110.12
X138.64Y-108.8
X138.9Y-92.0
X139.3Y-115.3
X140.7Y-115.5
X140.8Y-108.2
X140.95Y-105.3
X141.0Y-111.15
X141.8Y-111.78
X142.0Y-95.0
X142.0Y-108.2
X142.65Y-112.04
X143.445Y-112.59
X144.775Y-115.205
X144.79Y-112.96
X144.82Y-112.08
X144.85Y-108.37
X144.86Y-111.13
X145.185Y-107.045
X145.294Y-105.026
X145.35Y-101.19
X145.45Y-103.9
X145.51Y-100.3
X145.57Y-118.76
X145.6Y-117.6
X145.89Y-94.81
X146.005Y-115.085
X146.28Y-108.27
X147.31Y-99.85
X148.2Y-115.4
X148.2Y-119.4
X148.295Y-99.835
X148.72Y-100.85
X149.088Y-89.5
X149.2Y-116.4
X149.302Y-95.821
X150.384Y-113.716
X150.4Y-109.4
X150.94Y-116.49
X151.15Y-119.75
X151.3Y-113.4
X151.68Y-96.4
X151.84Y-103.23
X152.447Y-103.752
X152.5Y-116.1
X153.5Y-107.5
X153.72Y-114.11
X153.9Y-99.7
X154.0Y-98.1
X154.34Y-117.075
X155.42Y-118.54
X155.5Y-120.5
X155.7Y-107.6
X156.26Y-94.21
X156.312Y-117.109
X157.41Y-114.05
X157.55Y-117.52
X157.949Y-87.729
X158.0Y-93.53
X158.79Y-86.25
X160.0Y-117.1
X160.0Y-119.03
X161.85Y-116.7
X162.1Y-119.03
X162.3Y-90.6
X162.7Y-84.1
X162.76Y-119.84
X163.2Y-99.8
X163.2Y-101.0
X163.2Y-102.2
X164.0Y-110.9
X164.0Y-117.61
X164.05Y-116.5
X164.182Y-119.47
X164.421Y-118.231
X165.4Y-96.9
X165.5Y-120.6
X166.029Y-119.729
X167.0Y-110.4
X167.0Y-116.5
X167.7Y-92.5
X168.4Y-104.4
X169.5Y-99.51
X171.26Y-102.04
X172.6Y-102.2
X176.36Y-105.76
X179.3Y-99.1
X179.6Y-113.4
X179.64Y-94.4
X182.49Y-108.58
X182.5Y-89.48
T3
X118.0Y-92.0
X120.5Y-92.0
X123.0Y-92.0
T4
X119.0Y-108.5
X119.0Y-111.0
X119.025Y-99.25
X119.025Y-101.75
X142.725Y-85.46
X142.725Y-88.0
X142.725Y-90.54
X145.265Y-85.46
X145.265Y-88.0
X145.265Y-90.54
X171.75Y-91.445
X171.75Y-111.555
X174.25Y-91.445
X174.25Y-111.555
T5
X118.0Y-85.0
X118.0Y-118.0
X181.0Y-85.0
X181.0Y-118.0
T2
G00X178.745Y-97.68
M15
G01X177.645Y-97.68
M16
G05
G00X178.745Y-106.32
M15
G01X177.645Y-106.32
M16
G05
G00X182.765Y-97.68
M15
G01X181.965Y-97.68
M16
G05
G00X182.765Y-106.32
M15
G01X181.965Y-106.32
M16
G05
M30
