%TF.GenerationSoftware,KiCad,Pcbnew,9.0.2*%
%TF.CreationDate,2025-12-07T11:16:06-08:00*%
%TF.ProjectId,A3-Flight-Computer-Hardware-Rectangular,41332d46-6c69-4676-9874-2d436f6d7075,rev?*%
%TF.SameCoordinates,Original*%
%TF.FileFunction,Copper,L4,Bot*%
%TF.FilePolarity,Positive*%
%FSLAX46Y46*%
G04 Gerber Fmt 4.6, Leading zero omitted, Abs format (unit mm)*
G04 Created by KiCad (PCBNEW 9.0.2) date 2025-12-07 11:16:06*
%MOMM*%
%LPD*%
G01*
G04 APERTURE LIST*
G04 Aperture macros list*
%AMRoundRect*
0 Rectangle with rounded corners*
0 $1 Rounding radius*
0 $2 $3 $4 $5 $6 $7 $8 $9 X,Y pos of 4 corners*
0 Add a 4 corners polygon primitive as box body*
4,1,4,$2,$3,$4,$5,$6,$7,$8,$9,$2,$3,0*
0 Add four circle primitives for the rounded corners*
1,1,$1+$1,$2,$3*
1,1,$1+$1,$4,$5*
1,1,$1+$1,$6,$7*
1,1,$1+$1,$8,$9*
0 Add four rect primitives between the rounded corners*
20,1,$1+$1,$2,$3,$4,$5,0*
20,1,$1+$1,$4,$5,$6,$7,0*
20,1,$1+$1,$6,$7,$8,$9,0*
20,1,$1+$1,$8,$9,$2,$3,0*%
G04 Aperture macros list end*
%TA.AperFunction,ComponentPad*%
%ADD10RoundRect,0.250000X-0.750000X0.600000X-0.750000X-0.600000X0.750000X-0.600000X0.750000X0.600000X0*%
%TD*%
%TA.AperFunction,ComponentPad*%
%ADD11O,2.000000X1.700000*%
%TD*%
%TA.AperFunction,HeatsinkPad*%
%ADD12O,2.000000X0.900000*%
%TD*%
%TA.AperFunction,HeatsinkPad*%
%ADD13O,1.700000X0.900000*%
%TD*%
%TA.AperFunction,ComponentPad*%
%ADD14C,6.000000*%
%TD*%
%TA.AperFunction,ComponentPad*%
%ADD15R,1.700000X1.700000*%
%TD*%
%TA.AperFunction,ComponentPad*%
%ADD16C,1.700000*%
%TD*%
%TA.AperFunction,ComponentPad*%
%ADD17RoundRect,0.250000X-0.600000X-0.725000X0.600000X-0.725000X0.600000X0.725000X-0.600000X0.725000X0*%
%TD*%
%TA.AperFunction,ComponentPad*%
%ADD18O,1.700000X1.950000*%
%TD*%
%TA.AperFunction,ComponentPad*%
%ADD19RoundRect,0.250000X0.600000X0.750000X-0.600000X0.750000X-0.600000X-0.750000X0.600000X-0.750000X0*%
%TD*%
%TA.AperFunction,ComponentPad*%
%ADD20O,1.700000X2.000000*%
%TD*%
%TA.AperFunction,ComponentPad*%
%ADD21RoundRect,0.250000X-0.600000X-0.750000X0.600000X-0.750000X0.600000X0.750000X-0.600000X0.750000X0*%
%TD*%
%TA.AperFunction,ComponentPad*%
%ADD22R,1.000000X1.000000*%
%TD*%
%TA.AperFunction,ViaPad*%
%ADD23C,0.500000*%
%TD*%
%TA.AperFunction,ViaPad*%
%ADD24C,0.600000*%
%TD*%
%TA.AperFunction,Conductor*%
%ADD25C,0.200000*%
%TD*%
G04 APERTURE END LIST*
D10*
%TO.P,J4,1,Pin_1*%
%TO.N,/CAM1_TX*%
X124445000Y-92750000D03*
D11*
%TO.P,J4,2,Pin_2*%
%TO.N,/CAM1_RX*%
X124445000Y-95250000D03*
%TD*%
D12*
%TO.P,J3,S1,SHIELD*%
%TO.N,GND*%
X178195000Y-106320000D03*
D13*
X182365000Y-106320000D03*
D12*
X178195000Y-97680000D03*
D13*
X182365000Y-97680000D03*
%TD*%
D14*
%TO.P,REF\u002A\u002A,1*%
%TO.N,N/C*%
X118000000Y-118000000D03*
%TD*%
%TO.P,,1*%
%TO.N,N/C*%
X181000000Y-85000000D03*
%TD*%
%TO.P,REF\u002A\u002A,1*%
%TO.N,N/C*%
X118000000Y-85000000D03*
%TD*%
%TO.P,REF\u002A\u002A,1*%
%TO.N,N/C*%
X181000000Y-118000000D03*
%TD*%
D15*
%TO.P,J5,1,Pin_1*%
%TO.N,GND*%
X139690000Y-88275000D03*
D16*
%TO.P,J5,2,Pin_2*%
%TO.N,+3.3V*%
X139690000Y-85735000D03*
%TO.P,J5,3,Pin_3*%
%TO.N,/JTDO-SWO*%
X142230000Y-88275000D03*
%TO.P,J5,4,Pin_4*%
%TO.N,/JTDI*%
X142230000Y-85735000D03*
%TO.P,J5,5,Pin_5*%
%TO.N,/JTCK-SWCLK*%
X144770000Y-88275000D03*
%TO.P,J5,6,Pin_6*%
%TO.N,/JTMS-SWDIO*%
X144770000Y-85735000D03*
%TO.P,J5,7,Pin_7*%
%TO.N,/DEBUG_TX*%
X147310000Y-88275000D03*
%TO.P,J5,8,Pin_8*%
%TO.N,/DEBUG_RX*%
X147310000Y-85735000D03*
%TD*%
D17*
%TO.P,J7,1,Pin_1*%
%TO.N,/TELEM_TX*%
X124500000Y-111555000D03*
D18*
%TO.P,J7,2,Pin_2*%
%TO.N,/TELEM_RX*%
X127000000Y-111555000D03*
%TO.P,J7,3,Pin_3*%
%TO.N,GND*%
X129500000Y-111555000D03*
%TD*%
D10*
%TO.P,J6,1,Pin_1*%
%TO.N,/CAM2_TX*%
X124445000Y-102250000D03*
D11*
%TO.P,J6,2,Pin_2*%
%TO.N,/CAM2_RX*%
X124445000Y-104750000D03*
%TD*%
D19*
%TO.P,J1,1,Pin_1*%
%TO.N,Net-(D1-A)*%
X174250000Y-91445000D03*
D20*
%TO.P,J1,2,Pin_2*%
%TO.N,GND*%
X171750000Y-91445000D03*
%TD*%
D21*
%TO.P,J8,1,Pin_1*%
%TO.N,Net-(D8-A2)*%
X171750000Y-111555000D03*
D20*
%TO.P,J8,2,Pin_2*%
%TO.N,Net-(D7-A1)*%
X174250000Y-111555000D03*
%TD*%
D22*
%TO.P,TP4,1,1*%
%TO.N,/I2C_SCL*%
X162890000Y-118030000D03*
%TD*%
%TO.P,TP3,1,1*%
%TO.N,/I2C_SDA*%
X165860000Y-118020000D03*
%TD*%
D23*
%TO.N,GND*%
X164750000Y-93750000D03*
D24*
%TO.N,+3.3V*%
X163200000Y-99800000D03*
X151800000Y-111200000D03*
D23*
X139351001Y-97683894D03*
X152760000Y-99670000D03*
X156280000Y-111470000D03*
D24*
X141700000Y-112000000D03*
X150130000Y-114200000D03*
D23*
X139530000Y-93280000D03*
D24*
X163200000Y-102200000D03*
X151850000Y-108550000D03*
D23*
X159775000Y-116645000D03*
X164290000Y-115490000D03*
X159670000Y-113270000D03*
X148780000Y-112120000D03*
X137510000Y-107825000D03*
X150880000Y-116630000D03*
X134510000Y-116090000D03*
D24*
X163200000Y-101000000D03*
D23*
X167490000Y-87620000D03*
X164220000Y-112520000D03*
X182500000Y-92030000D03*
X157800000Y-113180000D03*
X134630000Y-88540000D03*
X144560000Y-116490000D03*
D24*
%TO.N,GND*%
X156910000Y-120450000D03*
D23*
X152780000Y-101080000D03*
D24*
X178000000Y-108670000D03*
D23*
X131230000Y-94960000D03*
X142980000Y-95780000D03*
D24*
X133000000Y-106775000D03*
D23*
X147890000Y-112220000D03*
X166900000Y-104400000D03*
X151090000Y-91590000D03*
D24*
X133000000Y-102275000D03*
X164950000Y-108000000D03*
D23*
X134640000Y-106750000D03*
X129440000Y-88520000D03*
X138400000Y-96720000D03*
X159890000Y-117800000D03*
D24*
X165950000Y-105990000D03*
D23*
X167500000Y-90420000D03*
X164560000Y-84100000D03*
X151080000Y-87200000D03*
X141490000Y-93280000D03*
D24*
X139320000Y-109880000D03*
X140750000Y-112000000D03*
D23*
X153570000Y-114180000D03*
D24*
X165950000Y-110020000D03*
X174210000Y-104340000D03*
D23*
X176440000Y-105600000D03*
X153710000Y-111400000D03*
X179220000Y-98690000D03*
X166020000Y-104390000D03*
X128430000Y-92040000D03*
D24*
X149221091Y-112978909D03*
D23*
X153687082Y-113000000D03*
D24*
X180980000Y-108700000D03*
X133720000Y-110580000D03*
D23*
X155370000Y-115660000D03*
X157470000Y-114660000D03*
X135380000Y-107860000D03*
X164250000Y-113460000D03*
X164310000Y-114520000D03*
D24*
X133075000Y-98725000D03*
D23*
X136170000Y-104440000D03*
D24*
X151880000Y-107420000D03*
X173640000Y-100610000D03*
X169490000Y-99370000D03*
X133150000Y-100425000D03*
D23*
X180280000Y-92510000D03*
D24*
X171000000Y-100560000D03*
D23*
X151010000Y-117510000D03*
D24*
%TO.N,/STAT_LED2*%
X146490000Y-107600000D03*
X180430000Y-111010000D03*
D23*
%TO.N,/SD_D0*%
X152380000Y-103730000D03*
X160635000Y-95475000D03*
%TO.N,/SD_D3*%
X150310000Y-96560000D03*
X160470000Y-86760000D03*
%TO.N,/SD_D2*%
X160540000Y-85580000D03*
X148960000Y-97160000D03*
%TO.N,/SD_D1*%
X161555000Y-94355000D03*
X152175000Y-103035000D03*
%TO.N,Net-(J3-D--PadA7)*%
X176160000Y-102140000D03*
X156930000Y-103251000D03*
%TO.N,Net-(J3-D+-PadA6)*%
X176320000Y-101250000D03*
X156800000Y-101500000D03*
D24*
%TO.N,/JTDI*%
X147250000Y-99780000D03*
%TO.N,/JTMS-SWDIO*%
X148790000Y-101280000D03*
%TO.N,/JTCK-SWCLK*%
X147880000Y-100430000D03*
%TO.N,/JTDO-SWO*%
X145520000Y-99770000D03*
D23*
%TO.N,/CAM1_TX*%
X140200000Y-106200000D03*
%TO.N,/CAM1_RX*%
X140713081Y-106599063D03*
%TO.N,/CAM2_RX*%
X137575000Y-111900000D03*
%TO.N,/CAM2_TX*%
X135260000Y-109050000D03*
%TO.N,/TELEM_TX*%
X148750000Y-103500000D03*
%TO.N,/TELEM_RX*%
X148600000Y-102725000D03*
%TO.N,/I2C_SCL*%
X158550000Y-113830000D03*
X153260000Y-112510000D03*
X155980000Y-117770000D03*
%TO.N,/I2C_SDA*%
X159110000Y-114550000D03*
X155340000Y-118250000D03*
X152460000Y-113500000D03*
%TO.N,/LPS22HB_INT*%
X151960000Y-114750000D03*
X145210000Y-111220000D03*
D24*
%TO.N,/LSM6_INT2*%
X150750000Y-110410000D03*
X143980000Y-111000000D03*
%TO.N,/STAT_LED1*%
X177460000Y-111440000D03*
X145830000Y-108230000D03*
%TD*%
D25*
%TO.N,/STAT_LED2*%
X176208000Y-109118000D02*
X177980000Y-110890000D01*
X146490000Y-107600000D02*
X146770000Y-107600000D01*
X180310000Y-110890000D02*
X180430000Y-111010000D01*
X146770000Y-107600000D02*
X148288000Y-109118000D01*
X177980000Y-110890000D02*
X180310000Y-110890000D01*
X148288000Y-109118000D02*
X176208000Y-109118000D01*
%TO.N,/SD_D0*%
X160635000Y-95475000D02*
X152380000Y-103730000D01*
%TO.N,/SD_D3*%
X150310000Y-96560000D02*
X150670000Y-96560000D01*
X150670000Y-96560000D02*
X160470000Y-86760000D01*
%TO.N,/SD_D2*%
X148960000Y-97160000D02*
X160540000Y-85580000D01*
%TO.N,/SD_D1*%
X161555000Y-94355000D02*
X161120000Y-94790000D01*
X160420000Y-94790000D02*
X152175000Y-103035000D01*
X161120000Y-94790000D02*
X160420000Y-94790000D01*
%TO.N,Net-(J3-D--PadA7)*%
X175049000Y-103251000D02*
X176160000Y-102140000D01*
X156930000Y-103251000D02*
X175049000Y-103251000D01*
%TO.N,Net-(J3-D+-PadA6)*%
X168530000Y-102900000D02*
X158200000Y-102900000D01*
X170180000Y-101250000D02*
X168530000Y-102900000D01*
X176320000Y-101250000D02*
X170180000Y-101250000D01*
X158200000Y-102900000D02*
X156800000Y-101500000D01*
%TO.N,/JTDI*%
X145030000Y-97560000D02*
X145030000Y-91290000D01*
X147250000Y-99780000D02*
X145030000Y-97560000D01*
X143460000Y-89720000D02*
X143460000Y-86965000D01*
X143460000Y-86965000D02*
X142230000Y-85735000D01*
X145030000Y-91290000D02*
X143460000Y-89720000D01*
%TO.N,/JTMS-SWDIO*%
X148790000Y-101280000D02*
X148459000Y-100949000D01*
X148459000Y-90981050D02*
X145871000Y-88393050D01*
X145871000Y-88393050D02*
X145871000Y-86836000D01*
X145871000Y-86836000D02*
X144770000Y-85735000D01*
X148459000Y-100949000D02*
X148459000Y-90981050D01*
%TO.N,/JTCK-SWCLK*%
X147880000Y-91385000D02*
X144770000Y-88275000D01*
X147880000Y-100430000D02*
X147880000Y-91385000D01*
%TO.N,/JTDO-SWO*%
X144250000Y-98500000D02*
X144250000Y-91320000D01*
X144250000Y-91320000D02*
X142230000Y-89300000D01*
X145520000Y-99770000D02*
X144250000Y-98500000D01*
X142230000Y-89300000D02*
X142230000Y-88275000D01*
%TO.N,/CAM1_TX*%
X140200000Y-106200000D02*
X140200000Y-99880000D01*
X140200000Y-99880000D02*
X133070000Y-92750000D01*
X133070000Y-92750000D02*
X124445000Y-92750000D01*
%TO.N,/CAM1_RX*%
X121775000Y-92580000D02*
X124445000Y-95250000D01*
X132260000Y-91300000D02*
X122525000Y-91300000D01*
X121775000Y-92050000D02*
X121775000Y-92580000D01*
X140713081Y-106599063D02*
X140713081Y-99753081D01*
X122525000Y-91300000D02*
X121775000Y-92050000D01*
X140713081Y-99753081D02*
X132260000Y-91300000D01*
%TO.N,/CAM2_RX*%
X126250000Y-104750000D02*
X124445000Y-104750000D01*
X137575000Y-111900000D02*
X133400000Y-111900000D01*
X133400000Y-111900000D02*
X126250000Y-104750000D01*
%TO.N,/CAM2_TX*%
X132595000Y-109120000D02*
X125725000Y-102250000D01*
X135190000Y-109120000D02*
X132595000Y-109120000D01*
X135260000Y-109050000D02*
X135190000Y-109120000D01*
X125725000Y-102250000D02*
X124445000Y-102250000D01*
%TO.N,/TELEM_TX*%
X147900000Y-103500000D02*
X137500000Y-113900000D01*
X124500000Y-113575000D02*
X124500000Y-111555000D01*
X124512500Y-113562500D02*
X124500000Y-113575000D01*
X148750000Y-103500000D02*
X147900000Y-103500000D01*
X137500000Y-113900000D02*
X124850000Y-113900000D01*
X124850000Y-113900000D02*
X124512500Y-113562500D01*
%TO.N,/TELEM_RX*%
X127450000Y-113100000D02*
X127000000Y-112650000D01*
X127000000Y-112650000D02*
X127000000Y-111555000D01*
X137500000Y-113100000D02*
X127450000Y-113100000D01*
X147875000Y-102725000D02*
X137500000Y-113100000D01*
X148600000Y-102725000D02*
X147875000Y-102725000D01*
%TO.N,/I2C_SCL*%
X158609000Y-114757521D02*
X158902479Y-115051000D01*
X158911000Y-115051000D02*
X161340000Y-117480000D01*
X153020000Y-112668586D02*
X153020000Y-114810000D01*
X161340000Y-117480000D02*
X162340000Y-117480000D01*
X162340000Y-117480000D02*
X162890000Y-118030000D01*
X158550000Y-114690000D02*
X158609000Y-114749000D01*
X158609000Y-114749000D02*
X158609000Y-114757521D01*
X153260000Y-112510000D02*
X153380000Y-112390000D01*
X158902479Y-115051000D02*
X158911000Y-115051000D01*
X153020000Y-114810000D02*
X155980000Y-117770000D01*
X153178586Y-112510000D02*
X153020000Y-112668586D01*
X153260000Y-112510000D02*
X153178586Y-112510000D01*
X158520000Y-113800000D02*
X158550000Y-113830000D01*
X153380000Y-112390000D02*
X158070000Y-112390000D01*
X158550000Y-113830000D02*
X158550000Y-114690000D01*
X158520000Y-112840000D02*
X158520000Y-113800000D01*
X158070000Y-112390000D02*
X158520000Y-112840000D01*
%TO.N,/I2C_SDA*%
X152460000Y-115370000D02*
X155340000Y-118250000D01*
X163970000Y-116130000D02*
X165860000Y-118020000D01*
X152972479Y-112009000D02*
X152460000Y-112521479D01*
X159110000Y-114550000D02*
X159130000Y-114530000D01*
X160690000Y-116130000D02*
X163970000Y-116130000D01*
X159110000Y-114550000D02*
X160690000Y-116130000D01*
X158397521Y-112009000D02*
X152972479Y-112009000D01*
X159130000Y-112741479D02*
X158397521Y-112009000D01*
X152460000Y-112521479D02*
X152460000Y-113500000D01*
X159130000Y-114530000D02*
X159130000Y-112741479D01*
X152460000Y-113500000D02*
X152460000Y-115370000D01*
%TO.N,/LPS22HB_INT*%
X145210000Y-111780000D02*
X148180000Y-114750000D01*
X148180000Y-114750000D02*
X151960000Y-114750000D01*
X145210000Y-111220000D02*
X145210000Y-111780000D01*
%TO.N,/LSM6_INT2*%
X144940000Y-110040000D02*
X148000000Y-110040000D01*
X148000000Y-110040000D02*
X148370000Y-110410000D01*
X148370000Y-110410000D02*
X150750000Y-110410000D01*
X143980000Y-111000000D02*
X144940000Y-110040000D01*
%TO.N,/STAT_LED1*%
X145830000Y-108230000D02*
X146680000Y-108230000D01*
X175489000Y-109469000D02*
X177460000Y-111440000D01*
X147919000Y-109469000D02*
X175489000Y-109469000D01*
X146680000Y-108230000D02*
X147919000Y-109469000D01*
%TD*%
M02*
