%TF.GenerationSoftware,KiCad,Pcbnew,9.0.2*%
%TF.CreationDate,2025-12-07T11:16:06-08:00*%
%TF.ProjectId,A3-Flight-Computer-Hardware-Rectangular,41332d46-6c69-4676-9874-2d436f6d7075,rev?*%
%TF.SameCoordinates,Original*%
%TF.FileFunction,Soldermask,Top*%
%TF.FilePolarity,Negative*%
%FSLAX46Y46*%
G04 Gerber Fmt 4.6, Leading zero omitted, Abs format (unit mm)*
G04 Created by KiCad (PCBNEW 9.0.2) date 2025-12-07 11:16:06*
%MOMM*%
%LPD*%
G01*
G04 APERTURE LIST*
G04 Aperture macros list*
%AMRoundRect*
0 Rectangle with rounded corners*
0 $1 Rounding radius*
0 $2 $3 $4 $5 $6 $7 $8 $9 X,Y pos of 4 corners*
0 Add a 4 corners polygon primitive as box body*
4,1,4,$2,$3,$4,$5,$6,$7,$8,$9,$2,$3,0*
0 Add four circle primitives for the rounded corners*
1,1,$1+$1,$2,$3*
1,1,$1+$1,$4,$5*
1,1,$1+$1,$6,$7*
1,1,$1+$1,$8,$9*
0 Add four rect primitives between the rounded corners*
20,1,$1+$1,$2,$3,$4,$5,0*
20,1,$1+$1,$4,$5,$6,$7,0*
20,1,$1+$1,$6,$7,$8,$9,0*
20,1,$1+$1,$8,$9,$2,$3,0*%
G04 Aperture macros list end*
%ADD10RoundRect,0.140000X0.140000X0.170000X-0.140000X0.170000X-0.140000X-0.170000X0.140000X-0.170000X0*%
%ADD11RoundRect,0.140000X-0.140000X-0.170000X0.140000X-0.170000X0.140000X0.170000X-0.140000X0.170000X0*%
%ADD12RoundRect,0.250000X0.400000X0.450000X-0.400000X0.450000X-0.400000X-0.450000X0.400000X-0.450000X0*%
%ADD13RoundRect,0.250000X-0.750000X0.600000X-0.750000X-0.600000X0.750000X-0.600000X0.750000X0.600000X0*%
%ADD14O,2.000000X1.700000*%
%ADD15RoundRect,0.135000X-0.135000X-0.185000X0.135000X-0.185000X0.135000X0.185000X-0.135000X0.185000X0*%
%ADD16R,1.900000X1.100000*%
%ADD17RoundRect,0.140000X-0.170000X0.140000X-0.170000X-0.140000X0.170000X-0.140000X0.170000X0.140000X0*%
%ADD18R,1.160000X0.600000*%
%ADD19R,1.160000X0.300000*%
%ADD20O,2.000000X0.900000*%
%ADD21O,1.700000X0.900000*%
%ADD22C,6.000000*%
%ADD23R,0.449200X1.117800*%
%ADD24R,0.813000X0.500000*%
%ADD25C,0.900000*%
%ADD26RoundRect,0.250000X0.375000X1.000000X-0.375000X1.000000X-0.375000X-1.000000X0.375000X-1.000000X0*%
%ADD27RoundRect,0.250000X-0.250000X-0.475000X0.250000X-0.475000X0.250000X0.475000X-0.250000X0.475000X0*%
%ADD28RoundRect,0.140000X0.170000X-0.140000X0.170000X0.140000X-0.170000X0.140000X-0.170000X-0.140000X0*%
%ADD29RoundRect,0.225000X-0.225000X-0.375000X0.225000X-0.375000X0.225000X0.375000X-0.225000X0.375000X0*%
%ADD30R,1.800000X0.800000*%
%ADD31R,1.200000X1.800000*%
%ADD32R,1.400000X1.800000*%
%ADD33RoundRect,0.250000X-0.450000X0.325000X-0.450000X-0.325000X0.450000X-0.325000X0.450000X0.325000X0*%
%ADD34RoundRect,0.135000X0.185000X-0.135000X0.185000X0.135000X-0.185000X0.135000X-0.185000X-0.135000X0*%
%ADD35RoundRect,0.250000X0.450000X-0.325000X0.450000X0.325000X-0.450000X0.325000X-0.450000X-0.325000X0*%
%ADD36R,1.700000X1.700000*%
%ADD37C,1.700000*%
%ADD38R,0.350000X0.430000*%
%ADD39R,0.430000X0.350000*%
%ADD40RoundRect,0.225000X0.375000X-0.225000X0.375000X0.225000X-0.375000X0.225000X-0.375000X-0.225000X0*%
%ADD41RoundRect,0.250000X0.475000X-0.250000X0.475000X0.250000X-0.475000X0.250000X-0.475000X-0.250000X0*%
%ADD42RoundRect,0.135000X-0.185000X0.135000X-0.185000X-0.135000X0.185000X-0.135000X0.185000X0.135000X0*%
%ADD43RoundRect,0.250000X-0.600000X-0.725000X0.600000X-0.725000X0.600000X0.725000X-0.600000X0.725000X0*%
%ADD44O,1.700000X1.950000*%
%ADD45RoundRect,0.150000X-0.587500X-0.150000X0.587500X-0.150000X0.587500X0.150000X-0.587500X0.150000X0*%
%ADD46R,0.350000X0.575000*%
%ADD47R,0.575000X0.350000*%
%ADD48RoundRect,0.135000X0.135000X0.185000X-0.135000X0.185000X-0.135000X-0.185000X0.135000X-0.185000X0*%
%ADD49RoundRect,0.250000X0.600000X0.750000X-0.600000X0.750000X-0.600000X-0.750000X0.600000X-0.750000X0*%
%ADD50O,1.700000X2.000000*%
%ADD51RoundRect,0.250000X-0.600000X-0.750000X0.600000X-0.750000X0.600000X0.750000X-0.600000X0.750000X0*%
%ADD52R,2.200000X1.200000*%
%ADD53R,2.200000X3.500000*%
%ADD54RoundRect,0.075000X-0.700000X-0.075000X0.700000X-0.075000X0.700000X0.075000X-0.700000X0.075000X0*%
%ADD55RoundRect,0.075000X-0.075000X-0.700000X0.075000X-0.700000X0.075000X0.700000X-0.075000X0.700000X0*%
%ADD56RoundRect,0.250000X-0.400000X-0.450000X0.400000X-0.450000X0.400000X0.450000X-0.400000X0.450000X0*%
%ADD57R,1.150000X1.400000*%
%ADD58RoundRect,0.250000X-0.475000X0.250000X-0.475000X-0.250000X0.475000X-0.250000X0.475000X0.250000X0*%
%ADD59R,1.000000X1.000000*%
%ADD60R,1.300000X3.400000*%
%ADD61RoundRect,0.250000X-0.275000X-0.750000X0.275000X-0.750000X0.275000X0.750000X-0.275000X0.750000X0*%
%ADD62R,1.454899X0.558000*%
G04 APERTURE END LIST*
D10*
%TO.C,C4*%
X148480000Y-111500000D03*
X147520000Y-111500000D03*
%TD*%
D11*
%TO.C,C2*%
X140020000Y-96500000D03*
X140980000Y-96500000D03*
%TD*%
D12*
%TO.C,D7*%
X167450000Y-106000000D03*
X164550000Y-106000000D03*
%TD*%
D13*
%TO.C,J4*%
X124445000Y-92750000D03*
D14*
X124445000Y-95250000D03*
%TD*%
D15*
%TO.C,R7*%
X178490000Y-108000000D03*
X179510000Y-108000000D03*
%TD*%
D16*
%TO.C,Y2*%
X136000000Y-98250000D03*
X136000000Y-100750000D03*
%TD*%
D17*
%TO.C,C22*%
X159000000Y-116520000D03*
X159000000Y-117480000D03*
%TD*%
D18*
%TO.C,J3*%
X177615000Y-105200000D03*
X177615000Y-104400000D03*
D19*
X177615000Y-103250000D03*
X177615000Y-102250000D03*
X177615000Y-101750000D03*
X177615000Y-100750000D03*
D18*
X177615000Y-99600000D03*
X177615000Y-98800000D03*
X177615000Y-98800000D03*
X177615000Y-99600000D03*
D19*
X177615000Y-100250000D03*
X177615000Y-101250000D03*
X177615000Y-102750000D03*
X177615000Y-103750000D03*
D18*
X177615000Y-104400000D03*
X177615000Y-105200000D03*
D20*
X178195000Y-106320000D03*
D21*
X182365000Y-106320000D03*
D20*
X178195000Y-97680000D03*
D21*
X182365000Y-97680000D03*
%TD*%
D22*
%TO.C,REF\u002A\u002A*%
X118000000Y-118000000D03*
%TD*%
%TO.C,*%
X181000000Y-85000000D03*
%TD*%
D23*
%TO.C,U2*%
X157500001Y-116629099D03*
X156700000Y-116629099D03*
X155899999Y-116629099D03*
X155100001Y-116629099D03*
X154300000Y-116629099D03*
X153500001Y-116629099D03*
D24*
X153781502Y-118000000D03*
D23*
X153499999Y-119370901D03*
X154300000Y-119370901D03*
X155100001Y-119370901D03*
X155899999Y-119370901D03*
X156700000Y-119370901D03*
X157499999Y-119370901D03*
D24*
X157218498Y-118000000D03*
%TD*%
D25*
%TO.C,SW1*%
X135400000Y-83500000D03*
X128600000Y-83500000D03*
D26*
X134500000Y-86250000D03*
X132000000Y-86250000D03*
X129500000Y-86250000D03*
%TD*%
D22*
%TO.C,REF\u002A\u002A*%
X118000000Y-85000000D03*
%TD*%
D15*
%TO.C,R2*%
X174490000Y-100500000D03*
X175510000Y-100500000D03*
%TD*%
%TO.C,R1*%
X174490000Y-103500000D03*
X175510000Y-103500000D03*
%TD*%
D27*
%TO.C,C1*%
X139550000Y-94500000D03*
X141450000Y-94500000D03*
%TD*%
D10*
%TO.C,C5*%
X136980000Y-107500000D03*
X136020000Y-107500000D03*
%TD*%
D17*
%TO.C,C3*%
X152000000Y-100020000D03*
X152000000Y-100980000D03*
%TD*%
D28*
%TO.C,C11*%
X133000000Y-103980000D03*
X133000000Y-103020000D03*
%TD*%
D17*
%TO.C,C19*%
X163500000Y-112520000D03*
X163500000Y-113480000D03*
%TD*%
D15*
%TO.C,R3*%
X154490000Y-103000000D03*
X155510000Y-103000000D03*
%TD*%
D28*
%TO.C,C18*%
X163500000Y-115480000D03*
X163500000Y-114520000D03*
%TD*%
D29*
%TO.C,D1*%
X171850000Y-96100000D03*
X175150000Y-96100000D03*
%TD*%
D30*
%TO.C,J2*%
X162637500Y-85150000D03*
X162637500Y-86250000D03*
X162637500Y-87350000D03*
X162637500Y-88450000D03*
X162637500Y-89550000D03*
X162637500Y-90650000D03*
X162637500Y-91750000D03*
X162637500Y-92850000D03*
D31*
X151087500Y-85700000D03*
X151087500Y-93050000D03*
D32*
X164637500Y-85750000D03*
X164637500Y-92250000D03*
%TD*%
D10*
%TO.C,C17*%
X132480000Y-94000000D03*
X131520000Y-94000000D03*
%TD*%
D33*
%TO.C,D5*%
X182000000Y-109952500D03*
X182000000Y-112002500D03*
%TD*%
D22*
%TO.C,REF\u002A\u002A*%
X181000000Y-118000000D03*
%TD*%
D34*
%TO.C,R13*%
X161721348Y-107010000D03*
X161721348Y-105990000D03*
%TD*%
D17*
%TO.C,C15*%
X134000000Y-98020000D03*
X134000000Y-98980000D03*
%TD*%
D35*
%TO.C,D3*%
X182500000Y-93025000D03*
X182500000Y-90975000D03*
%TD*%
D36*
%TO.C,J5*%
X139690000Y-88275000D03*
D37*
X139690000Y-85735000D03*
X142230000Y-88275000D03*
X142230000Y-85735000D03*
X144770000Y-88275000D03*
X144770000Y-85735000D03*
X147310000Y-88275000D03*
X147310000Y-85735000D03*
%TD*%
D28*
%TO.C,C16*%
X134000000Y-100980000D03*
X134000000Y-100020000D03*
%TD*%
D38*
%TO.C,U4*%
X155250000Y-112755000D03*
X154750000Y-112755000D03*
D39*
X154255000Y-113000000D03*
X154255000Y-113500000D03*
X154255000Y-114000000D03*
D38*
X154750000Y-114245000D03*
X155250000Y-114245000D03*
D39*
X155745000Y-114000000D03*
X155745000Y-113500000D03*
X155745000Y-113000000D03*
%TD*%
D11*
%TO.C,C25*%
X163020000Y-108000000D03*
X163980000Y-108000000D03*
%TD*%
D40*
%TO.C,D6*%
X134500000Y-117650000D03*
X134500000Y-114350000D03*
%TD*%
D41*
%TO.C,C8*%
X169500000Y-102450000D03*
X169500000Y-100550000D03*
%TD*%
D15*
%TO.C,R6*%
X131490000Y-89000000D03*
X132510000Y-89000000D03*
%TD*%
D42*
%TO.C,R11*%
X151000000Y-111490000D03*
X151000000Y-112510000D03*
%TD*%
D43*
%TO.C,J7*%
X124500000Y-111555000D03*
D44*
X127000000Y-111555000D03*
X129500000Y-111555000D03*
%TD*%
D45*
%TO.C,Q1*%
X133562500Y-109550000D03*
X133562500Y-111450000D03*
X135437500Y-110500000D03*
%TD*%
D34*
%TO.C,R14*%
X161721348Y-110010000D03*
X161721348Y-108990000D03*
%TD*%
D10*
%TO.C,C21*%
X155480000Y-111500000D03*
X154520000Y-111500000D03*
%TD*%
D17*
%TO.C,C10*%
X167500000Y-88520000D03*
X167500000Y-89480000D03*
%TD*%
D13*
%TO.C,J6*%
X124445000Y-102250000D03*
D14*
X124445000Y-104750000D03*
%TD*%
D46*
%TO.C,U3*%
X160337500Y-115662500D03*
X160837500Y-115662500D03*
X161337500Y-115662500D03*
X161837500Y-115662500D03*
D47*
X162000000Y-115000000D03*
X162000000Y-114500000D03*
X162000000Y-114000000D03*
D46*
X161837500Y-113337500D03*
X161337500Y-113337500D03*
X160837500Y-113337500D03*
X160337500Y-113337500D03*
D47*
X160175000Y-114000000D03*
X160175000Y-114500000D03*
X160175000Y-115000000D03*
%TD*%
D48*
%TO.C,R10*%
X138510000Y-110500000D03*
X137490000Y-110500000D03*
%TD*%
D28*
%TO.C,C24*%
X152721348Y-108480000D03*
X152721348Y-107520000D03*
%TD*%
D33*
%TO.C,D4*%
X179000000Y-109952500D03*
X179000000Y-112002500D03*
%TD*%
D34*
%TO.C,R5*%
X179500000Y-92510000D03*
X179500000Y-91490000D03*
%TD*%
D49*
%TO.C,J1*%
X174250000Y-91445000D03*
D50*
X171750000Y-91445000D03*
%TD*%
D11*
%TO.C,C14*%
X142020000Y-96500000D03*
X142980000Y-96500000D03*
%TD*%
D28*
%TO.C,C6*%
X138500000Y-98480000D03*
X138500000Y-97520000D03*
%TD*%
D11*
%TO.C,C13*%
X147520000Y-113000000D03*
X148480000Y-113000000D03*
%TD*%
D51*
%TO.C,J8*%
X171750000Y-111555000D03*
D50*
X174250000Y-111555000D03*
%TD*%
D52*
%TO.C,VR1*%
X166362500Y-103300000D03*
X166362500Y-101000000D03*
X166362500Y-98700000D03*
D53*
X160162500Y-101000000D03*
%TD*%
D54*
%TO.C,U1*%
X138825000Y-100250000D03*
X138825000Y-100750000D03*
X138825000Y-101250000D03*
X138825000Y-101750000D03*
X138825000Y-102250000D03*
X138825000Y-102750000D03*
X138825000Y-103250000D03*
X138825000Y-103750000D03*
X138825000Y-104250000D03*
X138825000Y-104750000D03*
X138825000Y-105250000D03*
X138825000Y-105750000D03*
X138825000Y-106250000D03*
X138825000Y-106750000D03*
X138825000Y-107250000D03*
X138825000Y-107750000D03*
D55*
X140750000Y-109675000D03*
X141250000Y-109675000D03*
X141750000Y-109675000D03*
X142250000Y-109675000D03*
X142750000Y-109675000D03*
X143250000Y-109675000D03*
X143750000Y-109675000D03*
X144250000Y-109675000D03*
X144750000Y-109675000D03*
X145250000Y-109675000D03*
X145750000Y-109675000D03*
X146250000Y-109675000D03*
X146750000Y-109675000D03*
X147250000Y-109675000D03*
X147750000Y-109675000D03*
X148250000Y-109675000D03*
D54*
X150175000Y-107750000D03*
X150175000Y-107250000D03*
X150175000Y-106750000D03*
X150175000Y-106250000D03*
X150175000Y-105750000D03*
X150175000Y-105250000D03*
X150175000Y-104750000D03*
X150175000Y-104250000D03*
X150175000Y-103750000D03*
X150175000Y-103250000D03*
X150175000Y-102750000D03*
X150175000Y-102250000D03*
X150175000Y-101750000D03*
X150175000Y-101250000D03*
X150175000Y-100750000D03*
X150175000Y-100250000D03*
D55*
X148250000Y-98325000D03*
X147750000Y-98325000D03*
X147250000Y-98325000D03*
X146750000Y-98325000D03*
X146250000Y-98325000D03*
X145750000Y-98325000D03*
X145250000Y-98325000D03*
X144750000Y-98325000D03*
X144250000Y-98325000D03*
X143750000Y-98325000D03*
X143250000Y-98325000D03*
X142750000Y-98325000D03*
X142250000Y-98325000D03*
X141750000Y-98325000D03*
X141250000Y-98325000D03*
X140750000Y-98325000D03*
%TD*%
D56*
%TO.C,D8*%
X164550000Y-110000000D03*
X167450000Y-110000000D03*
%TD*%
D17*
%TO.C,C20*%
X157000000Y-113000000D03*
X157000000Y-113960000D03*
%TD*%
%TO.C,C23*%
X152000000Y-116520000D03*
X152000000Y-117480000D03*
%TD*%
D57*
%TO.C,Y1*%
X134537500Y-103400000D03*
X134537500Y-105600000D03*
X136137500Y-105600000D03*
X136137500Y-103400000D03*
%TD*%
D58*
%TO.C,C9*%
X169500000Y-96550000D03*
X169500000Y-98450000D03*
%TD*%
D59*
%TO.C,TP4*%
X162890000Y-118030000D03*
%TD*%
%TO.C,TP3*%
X165860000Y-118020000D03*
%TD*%
D15*
%TO.C,R8*%
X181490000Y-108000000D03*
X182510000Y-108000000D03*
%TD*%
%TO.C,R4*%
X154490000Y-101500000D03*
X155510000Y-101500000D03*
%TD*%
D60*
%TO.C,BZ1*%
X145850000Y-116500000D03*
X137150000Y-116500000D03*
%TD*%
D10*
%TO.C,C7*%
X141730000Y-111240000D03*
X140770000Y-111240000D03*
%TD*%
D29*
%TO.C,D2*%
X171872500Y-98500000D03*
X175172500Y-98500000D03*
%TD*%
D48*
%TO.C,R9*%
X138510000Y-109000000D03*
X137490000Y-109000000D03*
%TD*%
D34*
%TO.C,R12*%
X151000000Y-115010000D03*
X151000000Y-113990000D03*
%TD*%
D17*
%TO.C,C12*%
X133000000Y-105020000D03*
X133000000Y-105980000D03*
%TD*%
D61*
%TO.C,SW2*%
X129775000Y-91500000D03*
X134225000Y-91500000D03*
%TD*%
D62*
%TO.C,U5*%
X154500000Y-106095000D03*
X154500000Y-107365000D03*
X154500000Y-108635000D03*
X154500000Y-109905000D03*
X159942696Y-109905000D03*
X159942696Y-108635000D03*
X159942696Y-107365000D03*
X159942696Y-106095000D03*
%TD*%
M02*
