%TF.GenerationSoftware,KiCad,Pcbnew,9.0.2*%
%TF.CreationDate,2025-12-07T11:16:06-08:00*%
%TF.ProjectId,A3-Flight-Computer-Hardware-Rectangular,41332d46-6c69-4676-9874-2d436f6d7075,rev?*%
%TF.SameCoordinates,Original*%
%TF.FileFunction,Copper,L2,Inr*%
%TF.FilePolarity,Positive*%
%FSLAX46Y46*%
G04 Gerber Fmt 4.6, Leading zero omitted, Abs format (unit mm)*
G04 Created by KiCad (PCBNEW 9.0.2) date 2025-12-07 11:16:06*
%MOMM*%
%LPD*%
G01*
G04 APERTURE LIST*
G04 Aperture macros list*
%AMRoundRect*
0 Rectangle with rounded corners*
0 $1 Rounding radius*
0 $2 $3 $4 $5 $6 $7 $8 $9 X,Y pos of 4 corners*
0 Add a 4 corners polygon primitive as box body*
4,1,4,$2,$3,$4,$5,$6,$7,$8,$9,$2,$3,0*
0 Add four circle primitives for the rounded corners*
1,1,$1+$1,$2,$3*
1,1,$1+$1,$4,$5*
1,1,$1+$1,$6,$7*
1,1,$1+$1,$8,$9*
0 Add four rect primitives between the rounded corners*
20,1,$1+$1,$2,$3,$4,$5,0*
20,1,$1+$1,$4,$5,$6,$7,0*
20,1,$1+$1,$6,$7,$8,$9,0*
20,1,$1+$1,$8,$9,$2,$3,0*%
G04 Aperture macros list end*
%TA.AperFunction,ComponentPad*%
%ADD10RoundRect,0.250000X-0.750000X0.600000X-0.750000X-0.600000X0.750000X-0.600000X0.750000X0.600000X0*%
%TD*%
%TA.AperFunction,ComponentPad*%
%ADD11O,2.000000X1.700000*%
%TD*%
%TA.AperFunction,HeatsinkPad*%
%ADD12O,2.000000X0.900000*%
%TD*%
%TA.AperFunction,HeatsinkPad*%
%ADD13O,1.700000X0.900000*%
%TD*%
%TA.AperFunction,ComponentPad*%
%ADD14C,6.000000*%
%TD*%
%TA.AperFunction,ComponentPad*%
%ADD15R,1.700000X1.700000*%
%TD*%
%TA.AperFunction,ComponentPad*%
%ADD16C,1.700000*%
%TD*%
%TA.AperFunction,ComponentPad*%
%ADD17RoundRect,0.250000X-0.600000X-0.725000X0.600000X-0.725000X0.600000X0.725000X-0.600000X0.725000X0*%
%TD*%
%TA.AperFunction,ComponentPad*%
%ADD18O,1.700000X1.950000*%
%TD*%
%TA.AperFunction,ComponentPad*%
%ADD19RoundRect,0.250000X0.600000X0.750000X-0.600000X0.750000X-0.600000X-0.750000X0.600000X-0.750000X0*%
%TD*%
%TA.AperFunction,ComponentPad*%
%ADD20O,1.700000X2.000000*%
%TD*%
%TA.AperFunction,ComponentPad*%
%ADD21RoundRect,0.250000X-0.600000X-0.750000X0.600000X-0.750000X0.600000X0.750000X-0.600000X0.750000X0*%
%TD*%
%TA.AperFunction,ComponentPad*%
%ADD22R,1.000000X1.000000*%
%TD*%
%TA.AperFunction,ViaPad*%
%ADD23C,0.500000*%
%TD*%
%TA.AperFunction,ViaPad*%
%ADD24C,0.600000*%
%TD*%
G04 APERTURE END LIST*
D10*
%TO.N,/CAM1_TX*%
%TO.C,J4*%
X124445000Y-92750000D03*
D11*
%TO.N,/CAM1_RX*%
X124445000Y-95250000D03*
%TD*%
D12*
%TO.N,GND*%
%TO.C,J3*%
X178195000Y-106320000D03*
D13*
X182365000Y-106320000D03*
D12*
X178195000Y-97680000D03*
D13*
X182365000Y-97680000D03*
%TD*%
D14*
%TO.N,N/C*%
%TO.C,REF\u002A\u002A*%
X118000000Y-118000000D03*
%TD*%
%TO.N,N/C*%
%TO.C,*%
X181000000Y-85000000D03*
%TD*%
%TO.N,N/C*%
%TO.C,REF\u002A\u002A*%
X118000000Y-85000000D03*
%TD*%
%TO.N,N/C*%
%TO.C,REF\u002A\u002A*%
X181000000Y-118000000D03*
%TD*%
D15*
%TO.N,GND*%
%TO.C,J5*%
X139690000Y-88275000D03*
D16*
%TO.N,+3.3V*%
X139690000Y-85735000D03*
%TO.N,/JTDO-SWO*%
X142230000Y-88275000D03*
%TO.N,/JTDI*%
X142230000Y-85735000D03*
%TO.N,/JTCK-SWCLK*%
X144770000Y-88275000D03*
%TO.N,/JTMS-SWDIO*%
X144770000Y-85735000D03*
%TO.N,/DEBUG_TX*%
X147310000Y-88275000D03*
%TO.N,/DEBUG_RX*%
X147310000Y-85735000D03*
%TD*%
D17*
%TO.N,/TELEM_TX*%
%TO.C,J7*%
X124500000Y-111555000D03*
D18*
%TO.N,/TELEM_RX*%
X127000000Y-111555000D03*
%TO.N,GND*%
X129500000Y-111555000D03*
%TD*%
D10*
%TO.N,/CAM2_TX*%
%TO.C,J6*%
X124445000Y-102250000D03*
D11*
%TO.N,/CAM2_RX*%
X124445000Y-104750000D03*
%TD*%
D19*
%TO.N,Net-(D1-A)*%
%TO.C,J1*%
X174250000Y-91445000D03*
D20*
%TO.N,GND*%
X171750000Y-91445000D03*
%TD*%
D21*
%TO.N,Net-(D8-A2)*%
%TO.C,J8*%
X171750000Y-111555000D03*
D20*
%TO.N,Net-(D7-A1)*%
X174250000Y-111555000D03*
%TD*%
D22*
%TO.N,/I2C_SCL*%
%TO.C,TP4*%
X162890000Y-118030000D03*
%TD*%
%TO.N,/I2C_SDA*%
%TO.C,TP3*%
X165860000Y-118020000D03*
%TD*%
D23*
%TO.N,GND*%
X164750000Y-93750000D03*
D24*
%TO.N,+3.3V*%
X163200000Y-99800000D03*
X151800000Y-111200000D03*
D23*
X139351001Y-97683894D03*
X152760000Y-99670000D03*
X156280000Y-111470000D03*
D24*
X141700000Y-112000000D03*
X150130000Y-114200000D03*
D23*
X139530000Y-93280000D03*
D24*
X163200000Y-102200000D03*
X151850000Y-108550000D03*
D23*
X159775000Y-116645000D03*
X164290000Y-115490000D03*
X159670000Y-113270000D03*
X148780000Y-112120000D03*
X137510000Y-107825000D03*
X150880000Y-116630000D03*
X134510000Y-116090000D03*
D24*
X163200000Y-101000000D03*
D23*
X167490000Y-87620000D03*
X164220000Y-112520000D03*
X182500000Y-92030000D03*
X157800000Y-113180000D03*
X134630000Y-88540000D03*
X144560000Y-116490000D03*
D24*
%TO.N,GND*%
X156910000Y-120450000D03*
D23*
X152780000Y-101080000D03*
D24*
X178000000Y-108670000D03*
D23*
X131230000Y-94960000D03*
X142980000Y-95780000D03*
D24*
X133000000Y-106775000D03*
D23*
X147890000Y-112220000D03*
X166900000Y-104400000D03*
X151090000Y-91590000D03*
D24*
X133000000Y-102275000D03*
X164950000Y-108000000D03*
D23*
X134640000Y-106750000D03*
X129440000Y-88520000D03*
X138400000Y-96720000D03*
X159890000Y-117800000D03*
D24*
X165950000Y-105990000D03*
D23*
X167500000Y-90420000D03*
X164560000Y-84100000D03*
X151080000Y-87200000D03*
X141490000Y-93280000D03*
D24*
X139320000Y-109880000D03*
X140750000Y-112000000D03*
D23*
X153570000Y-114180000D03*
D24*
X165950000Y-110020000D03*
X174210000Y-104340000D03*
D23*
X176440000Y-105600000D03*
X153710000Y-111400000D03*
X179220000Y-98690000D03*
X166020000Y-104390000D03*
X128430000Y-92040000D03*
D24*
X149221091Y-112978909D03*
D23*
X153687082Y-113000000D03*
D24*
X180980000Y-108700000D03*
X133720000Y-110580000D03*
D23*
X155370000Y-115660000D03*
X157470000Y-114660000D03*
X135380000Y-107860000D03*
X164250000Y-113460000D03*
X164310000Y-114520000D03*
D24*
X133075000Y-98725000D03*
D23*
X136170000Y-104440000D03*
D24*
X151880000Y-107420000D03*
X173640000Y-100610000D03*
X169490000Y-99370000D03*
X133150000Y-100425000D03*
D23*
X180280000Y-92510000D03*
D24*
X171000000Y-100560000D03*
D23*
X151010000Y-117510000D03*
D24*
%TO.N,/STAT_LED2*%
X146490000Y-107600000D03*
X180430000Y-111010000D03*
D23*
%TO.N,/SD_D0*%
X152380000Y-103730000D03*
X160635000Y-95475000D03*
%TO.N,/SD_D3*%
X150310000Y-96560000D03*
X160470000Y-86760000D03*
%TO.N,/SD_D2*%
X160540000Y-85580000D03*
X148960000Y-97160000D03*
%TO.N,/SD_D1*%
X161555000Y-94355000D03*
X152175000Y-103035000D03*
%TO.N,Net-(J3-D--PadA7)*%
X176160000Y-102140000D03*
X156930000Y-103251000D03*
%TO.N,Net-(J3-D+-PadA6)*%
X176320000Y-101250000D03*
X156800000Y-101500000D03*
D24*
%TO.N,/JTDI*%
X147250000Y-99780000D03*
%TO.N,/JTMS-SWDIO*%
X148790000Y-101280000D03*
%TO.N,/JTCK-SWCLK*%
X147880000Y-100430000D03*
%TO.N,/JTDO-SWO*%
X145520000Y-99770000D03*
D23*
%TO.N,/CAM1_TX*%
X140200000Y-106200000D03*
%TO.N,/CAM1_RX*%
X140713081Y-106599063D03*
%TO.N,/CAM2_RX*%
X137575000Y-111900000D03*
%TO.N,/CAM2_TX*%
X135260000Y-109050000D03*
%TO.N,/TELEM_TX*%
X148750000Y-103500000D03*
%TO.N,/TELEM_RX*%
X148600000Y-102725000D03*
%TO.N,/I2C_SCL*%
X158550000Y-113830000D03*
X153260000Y-112510000D03*
X155980000Y-117770000D03*
%TO.N,/I2C_SDA*%
X159110000Y-114550000D03*
X155340000Y-118250000D03*
X152460000Y-113500000D03*
%TO.N,/LPS22HB_INT*%
X151960000Y-114750000D03*
X145210000Y-111220000D03*
D24*
%TO.N,/LSM6_INT2*%
X150750000Y-110410000D03*
X143980000Y-111000000D03*
%TO.N,/STAT_LED1*%
X177460000Y-111440000D03*
X145830000Y-108230000D03*
%TD*%
%TA.AperFunction,Conductor*%
%TO.N,GND*%
G36*
X178857513Y-82020185D02*
G01*
X178903268Y-82072989D01*
X178913212Y-82142147D01*
X178884187Y-82205703D01*
X178869139Y-82220353D01*
X178646367Y-82403176D01*
X178403176Y-82646367D01*
X178184985Y-82912234D01*
X178184975Y-82912248D01*
X177993904Y-83198206D01*
X177993893Y-83198224D01*
X177831772Y-83501530D01*
X177831770Y-83501535D01*
X177700150Y-83819293D01*
X177600308Y-84148427D01*
X177533210Y-84485750D01*
X177523933Y-84579949D01*
X177499500Y-84828031D01*
X177499500Y-85171969D01*
X177504674Y-85224498D01*
X177533210Y-85514249D01*
X177600308Y-85851572D01*
X177700150Y-86180706D01*
X177831770Y-86498464D01*
X177831772Y-86498469D01*
X177993893Y-86801775D01*
X177993904Y-86801793D01*
X178184975Y-87087751D01*
X178184985Y-87087765D01*
X178403176Y-87353632D01*
X178646367Y-87596823D01*
X178646372Y-87596827D01*
X178646373Y-87596828D01*
X178912240Y-87815019D01*
X179198213Y-88006100D01*
X179198222Y-88006105D01*
X179198224Y-88006106D01*
X179501530Y-88168227D01*
X179501532Y-88168227D01*
X179501538Y-88168231D01*
X179819295Y-88299850D01*
X180148422Y-88399690D01*
X180485750Y-88466789D01*
X180828031Y-88500500D01*
X180828034Y-88500500D01*
X181171966Y-88500500D01*
X181171969Y-88500500D01*
X181514250Y-88466789D01*
X181851578Y-88399690D01*
X182180705Y-88299850D01*
X182498462Y-88168231D01*
X182801787Y-88006100D01*
X183087760Y-87815019D01*
X183353627Y-87596828D01*
X183596828Y-87353627D01*
X183779648Y-87130859D01*
X183837392Y-87091526D01*
X183907237Y-87089655D01*
X183967005Y-87125842D01*
X183997721Y-87188598D01*
X183999500Y-87209525D01*
X183999500Y-115790474D01*
X183979815Y-115857513D01*
X183927011Y-115903268D01*
X183857853Y-115913212D01*
X183794297Y-115884187D01*
X183779647Y-115869139D01*
X183596823Y-115646367D01*
X183353632Y-115403176D01*
X183087765Y-115184985D01*
X183087764Y-115184984D01*
X183087760Y-115184981D01*
X182801787Y-114993900D01*
X182801782Y-114993897D01*
X182801775Y-114993893D01*
X182498469Y-114831772D01*
X182498464Y-114831770D01*
X182481924Y-114824919D01*
X182346714Y-114768913D01*
X182180706Y-114700150D01*
X181851572Y-114600308D01*
X181514248Y-114533210D01*
X181514249Y-114533210D01*
X181256456Y-114507821D01*
X181171969Y-114499500D01*
X180828031Y-114499500D01*
X180749966Y-114507188D01*
X180485750Y-114533210D01*
X180148427Y-114600308D01*
X179819293Y-114700150D01*
X179501535Y-114831770D01*
X179501530Y-114831772D01*
X179198224Y-114993893D01*
X179198206Y-114993904D01*
X178912248Y-115184975D01*
X178912234Y-115184985D01*
X178646367Y-115403176D01*
X178403176Y-115646367D01*
X178184985Y-115912234D01*
X178184975Y-115912248D01*
X177993904Y-116198206D01*
X177993893Y-116198224D01*
X177831772Y-116501530D01*
X177831770Y-116501535D01*
X177700150Y-116819293D01*
X177600308Y-117148427D01*
X177533210Y-117485750D01*
X177507188Y-117749966D01*
X177505060Y-117771584D01*
X177499500Y-117828034D01*
X177499500Y-118171965D01*
X177533210Y-118514249D01*
X177600308Y-118851572D01*
X177700150Y-119180706D01*
X177831770Y-119498464D01*
X177831772Y-119498469D01*
X177993893Y-119801775D01*
X177993904Y-119801793D01*
X178184975Y-120087751D01*
X178184985Y-120087765D01*
X178403176Y-120353632D01*
X178646367Y-120596823D01*
X178869139Y-120779647D01*
X178908473Y-120837392D01*
X178910344Y-120907237D01*
X178874157Y-120967005D01*
X178811401Y-120997721D01*
X178790474Y-120999500D01*
X120209526Y-120999500D01*
X120142487Y-120979815D01*
X120096732Y-120927011D01*
X120086788Y-120857853D01*
X120115813Y-120794297D01*
X120130861Y-120779647D01*
X120133417Y-120777549D01*
X120353627Y-120596828D01*
X120596828Y-120353627D01*
X120815019Y-120087760D01*
X121006100Y-119801787D01*
X121168231Y-119498462D01*
X121299850Y-119180705D01*
X121399690Y-118851578D01*
X121466789Y-118514250D01*
X121485534Y-118323920D01*
X154589499Y-118323920D01*
X154618340Y-118468907D01*
X154618343Y-118468917D01*
X154674912Y-118605488D01*
X154674919Y-118605501D01*
X154757048Y-118728415D01*
X154757051Y-118728419D01*
X154861580Y-118832948D01*
X154861584Y-118832951D01*
X154984498Y-118915080D01*
X154984511Y-118915087D01*
X155102099Y-118963793D01*
X155121087Y-118971658D01*
X155121091Y-118971658D01*
X155121092Y-118971659D01*
X155266079Y-119000500D01*
X155266082Y-119000500D01*
X155413920Y-119000500D01*
X155511462Y-118981096D01*
X155558913Y-118971658D01*
X155695495Y-118915084D01*
X155818416Y-118832951D01*
X155922951Y-118728416D01*
X156005084Y-118605495D01*
X156013701Y-118584689D01*
X156057539Y-118530286D01*
X156104065Y-118510524D01*
X156198913Y-118491658D01*
X156335495Y-118435084D01*
X156458416Y-118352951D01*
X156562951Y-118248416D01*
X156645084Y-118125495D01*
X156701658Y-117988913D01*
X156720436Y-117894511D01*
X156730500Y-117843920D01*
X156730500Y-117696079D01*
X156701659Y-117551092D01*
X156701658Y-117551091D01*
X156701658Y-117551087D01*
X156680290Y-117499500D01*
X156673097Y-117482135D01*
X161889500Y-117482135D01*
X161889500Y-118577870D01*
X161889501Y-118577876D01*
X161895908Y-118637483D01*
X161946202Y-118772328D01*
X161946206Y-118772335D01*
X162032452Y-118887544D01*
X162032455Y-118887547D01*
X162147664Y-118973793D01*
X162147671Y-118973797D01*
X162282517Y-119024091D01*
X162282516Y-119024091D01*
X162289444Y-119024835D01*
X162342127Y-119030500D01*
X163437872Y-119030499D01*
X163497483Y-119024091D01*
X163632331Y-118973796D01*
X163747546Y-118887546D01*
X163833796Y-118772331D01*
X163884091Y-118637483D01*
X163890500Y-118577873D01*
X163890499Y-117482128D01*
X163889424Y-117472135D01*
X164859500Y-117472135D01*
X164859500Y-118567870D01*
X164859501Y-118567876D01*
X164865908Y-118627483D01*
X164916202Y-118762328D01*
X164916206Y-118762335D01*
X165002452Y-118877544D01*
X165002455Y-118877547D01*
X165117664Y-118963793D01*
X165117671Y-118963797D01*
X165252517Y-119014091D01*
X165252516Y-119014091D01*
X165259444Y-119014835D01*
X165312127Y-119020500D01*
X166407872Y-119020499D01*
X166467483Y-119014091D01*
X166602331Y-118963796D01*
X166717546Y-118877546D01*
X166803796Y-118762331D01*
X166854091Y-118627483D01*
X166860500Y-118567873D01*
X166860499Y-117472128D01*
X166854091Y-117412517D01*
X166842149Y-117380500D01*
X166803797Y-117277671D01*
X166803793Y-117277664D01*
X166717547Y-117162455D01*
X166717544Y-117162452D01*
X166602335Y-117076206D01*
X166602328Y-117076202D01*
X166467482Y-117025908D01*
X166467483Y-117025908D01*
X166407883Y-117019501D01*
X166407881Y-117019500D01*
X166407873Y-117019500D01*
X166407864Y-117019500D01*
X165312129Y-117019500D01*
X165312123Y-117019501D01*
X165252516Y-117025908D01*
X165117671Y-117076202D01*
X165117664Y-117076206D01*
X165002455Y-117162452D01*
X165002452Y-117162455D01*
X164916206Y-117277664D01*
X164916202Y-117277671D01*
X164865908Y-117412517D01*
X164859501Y-117472116D01*
X164859501Y-117472123D01*
X164859500Y-117472135D01*
X163889424Y-117472135D01*
X163889423Y-117472123D01*
X163888562Y-117464116D01*
X163884091Y-117422517D01*
X163833796Y-117287669D01*
X163833795Y-117287668D01*
X163833793Y-117287664D01*
X163747547Y-117172455D01*
X163747544Y-117172452D01*
X163632335Y-117086206D01*
X163632328Y-117086202D01*
X163497482Y-117035908D01*
X163497483Y-117035908D01*
X163437883Y-117029501D01*
X163437881Y-117029500D01*
X163437873Y-117029500D01*
X163437864Y-117029500D01*
X162342129Y-117029500D01*
X162342123Y-117029501D01*
X162282516Y-117035908D01*
X162147671Y-117086202D01*
X162147664Y-117086206D01*
X162032455Y-117172452D01*
X162032452Y-117172455D01*
X161946206Y-117287664D01*
X161946202Y-117287671D01*
X161895908Y-117422517D01*
X161889501Y-117482116D01*
X161889500Y-117482135D01*
X156673097Y-117482135D01*
X156645087Y-117414511D01*
X156645080Y-117414498D01*
X156562951Y-117291584D01*
X156562948Y-117291580D01*
X156458419Y-117187051D01*
X156458415Y-117187048D01*
X156335501Y-117104919D01*
X156335488Y-117104912D01*
X156198917Y-117048343D01*
X156198907Y-117048340D01*
X156053920Y-117019500D01*
X156053918Y-117019500D01*
X155906082Y-117019500D01*
X155906080Y-117019500D01*
X155761092Y-117048340D01*
X155761082Y-117048343D01*
X155624511Y-117104912D01*
X155624498Y-117104919D01*
X155501584Y-117187048D01*
X155501580Y-117187051D01*
X155397051Y-117291580D01*
X155397048Y-117291584D01*
X155314919Y-117414498D01*
X155314916Y-117414504D01*
X155306297Y-117435313D01*
X155262455Y-117489716D01*
X155215928Y-117509476D01*
X155121092Y-117528340D01*
X155121082Y-117528343D01*
X154984511Y-117584912D01*
X154984498Y-117584919D01*
X154861584Y-117667048D01*
X154861580Y-117667051D01*
X154757051Y-117771580D01*
X154757048Y-117771584D01*
X154674919Y-117894498D01*
X154674912Y-117894511D01*
X154618343Y-118031082D01*
X154618340Y-118031092D01*
X154589500Y-118176079D01*
X154589500Y-118176082D01*
X154589500Y-118323918D01*
X154589500Y-118323920D01*
X154589499Y-118323920D01*
X121485534Y-118323920D01*
X121500500Y-118171969D01*
X121500500Y-117828031D01*
X121466789Y-117485750D01*
X121399690Y-117148422D01*
X121299850Y-116819295D01*
X121168231Y-116501538D01*
X121138275Y-116445495D01*
X121006106Y-116198224D01*
X121006105Y-116198222D01*
X121006100Y-116198213D01*
X120983186Y-116163920D01*
X133759499Y-116163920D01*
X133788340Y-116308907D01*
X133788343Y-116308917D01*
X133844912Y-116445488D01*
X133844919Y-116445501D01*
X133927048Y-116568415D01*
X133927051Y-116568419D01*
X134031580Y-116672948D01*
X134031584Y-116672951D01*
X134154498Y-116755080D01*
X134154511Y-116755087D01*
X134291082Y-116811656D01*
X134291087Y-116811658D01*
X134291091Y-116811658D01*
X134291092Y-116811659D01*
X134436079Y-116840500D01*
X134436082Y-116840500D01*
X134583920Y-116840500D01*
X134690530Y-116819293D01*
X134728913Y-116811658D01*
X134865495Y-116755084D01*
X134988416Y-116672951D01*
X135092951Y-116568416D01*
X135095955Y-116563920D01*
X143809499Y-116563920D01*
X143838340Y-116708907D01*
X143838343Y-116708917D01*
X143894912Y-116845488D01*
X143894919Y-116845501D01*
X143977048Y-116968415D01*
X143977051Y-116968419D01*
X144081580Y-117072948D01*
X144081584Y-117072951D01*
X144204498Y-117155080D01*
X144204511Y-117155087D01*
X144281675Y-117187049D01*
X144341087Y-117211658D01*
X144341091Y-117211658D01*
X144341092Y-117211659D01*
X144486079Y-117240500D01*
X144486082Y-117240500D01*
X144633920Y-117240500D01*
X144731462Y-117221096D01*
X144778913Y-117211658D01*
X144915495Y-117155084D01*
X145038416Y-117072951D01*
X145142951Y-116968416D01*
X145225084Y-116845495D01*
X145281658Y-116708913D01*
X145282651Y-116703920D01*
X150129499Y-116703920D01*
X150158340Y-116848907D01*
X150158343Y-116848917D01*
X150214912Y-116985488D01*
X150214919Y-116985501D01*
X150297048Y-117108415D01*
X150297051Y-117108419D01*
X150401580Y-117212948D01*
X150401584Y-117212951D01*
X150524498Y-117295080D01*
X150524511Y-117295087D01*
X150661082Y-117351656D01*
X150661087Y-117351658D01*
X150661091Y-117351658D01*
X150661092Y-117351659D01*
X150806079Y-117380500D01*
X150806082Y-117380500D01*
X150953920Y-117380500D01*
X151051462Y-117361096D01*
X151098913Y-117351658D01*
X151235495Y-117295084D01*
X151358416Y-117212951D01*
X151462951Y-117108416D01*
X151545084Y-116985495D01*
X151601658Y-116848913D01*
X151627516Y-116718920D01*
X159024499Y-116718920D01*
X159053340Y-116863907D01*
X159053343Y-116863917D01*
X159109912Y-117000488D01*
X159109919Y-117000501D01*
X159192048Y-117123415D01*
X159192051Y-117123419D01*
X159296580Y-117227948D01*
X159296584Y-117227951D01*
X159419498Y-117310080D01*
X159419511Y-117310087D01*
X159519876Y-117351659D01*
X159556087Y-117366658D01*
X159556091Y-117366658D01*
X159556092Y-117366659D01*
X159701079Y-117395500D01*
X159701082Y-117395500D01*
X159848920Y-117395500D01*
X159946462Y-117376096D01*
X159993913Y-117366658D01*
X160130495Y-117310084D01*
X160253416Y-117227951D01*
X160357951Y-117123416D01*
X160440084Y-117000495D01*
X160496658Y-116863913D01*
X160507053Y-116811656D01*
X160525500Y-116718920D01*
X160525500Y-116571079D01*
X160496659Y-116426092D01*
X160496658Y-116426091D01*
X160496658Y-116426087D01*
X160448121Y-116308907D01*
X160440087Y-116289511D01*
X160440080Y-116289498D01*
X160357951Y-116166584D01*
X160357948Y-116166580D01*
X160253419Y-116062051D01*
X160253415Y-116062048D01*
X160130501Y-115979919D01*
X160130488Y-115979912D01*
X159993917Y-115923343D01*
X159993907Y-115923340D01*
X159848920Y-115894500D01*
X159848918Y-115894500D01*
X159701082Y-115894500D01*
X159701080Y-115894500D01*
X159556092Y-115923340D01*
X159556082Y-115923343D01*
X159419511Y-115979912D01*
X159419498Y-115979919D01*
X159296584Y-116062048D01*
X159296580Y-116062051D01*
X159192051Y-116166580D01*
X159192048Y-116166584D01*
X159109919Y-116289498D01*
X159109912Y-116289511D01*
X159053343Y-116426082D01*
X159053340Y-116426092D01*
X159024500Y-116571079D01*
X159024500Y-116571082D01*
X159024500Y-116718918D01*
X159024500Y-116718920D01*
X159024499Y-116718920D01*
X151627516Y-116718920D01*
X151630500Y-116703920D01*
X151630500Y-116556079D01*
X151601659Y-116411092D01*
X151601658Y-116411091D01*
X151601658Y-116411087D01*
X151601656Y-116411082D01*
X151545087Y-116274511D01*
X151545080Y-116274498D01*
X151462951Y-116151584D01*
X151462948Y-116151580D01*
X151358419Y-116047051D01*
X151358415Y-116047048D01*
X151235501Y-115964919D01*
X151235488Y-115964912D01*
X151098917Y-115908343D01*
X151098907Y-115908340D01*
X150953920Y-115879500D01*
X150953918Y-115879500D01*
X150806082Y-115879500D01*
X150806080Y-115879500D01*
X150661092Y-115908340D01*
X150661082Y-115908343D01*
X150524511Y-115964912D01*
X150524498Y-115964919D01*
X150401584Y-116047048D01*
X150401580Y-116047051D01*
X150297051Y-116151580D01*
X150297048Y-116151584D01*
X150214919Y-116274498D01*
X150214912Y-116274511D01*
X150158343Y-116411082D01*
X150158340Y-116411092D01*
X150129500Y-116556079D01*
X150129500Y-116556082D01*
X150129500Y-116703918D01*
X150129500Y-116703920D01*
X150129499Y-116703920D01*
X145282651Y-116703920D01*
X145309605Y-116568419D01*
X145310500Y-116563920D01*
X145310500Y-116416079D01*
X145281659Y-116271092D01*
X145281658Y-116271091D01*
X145281658Y-116271087D01*
X145281656Y-116271082D01*
X145225087Y-116134511D01*
X145225080Y-116134498D01*
X145142951Y-116011584D01*
X145142948Y-116011580D01*
X145038419Y-115907051D01*
X145038415Y-115907048D01*
X144915501Y-115824919D01*
X144915488Y-115824912D01*
X144778917Y-115768343D01*
X144778907Y-115768340D01*
X144633920Y-115739500D01*
X144633918Y-115739500D01*
X144486082Y-115739500D01*
X144486080Y-115739500D01*
X144341092Y-115768340D01*
X144341082Y-115768343D01*
X144204511Y-115824912D01*
X144204498Y-115824919D01*
X144081584Y-115907048D01*
X144081580Y-115907051D01*
X143977051Y-116011580D01*
X143977048Y-116011584D01*
X143894919Y-116134498D01*
X143894912Y-116134511D01*
X143838343Y-116271082D01*
X143838340Y-116271092D01*
X143809500Y-116416079D01*
X143809500Y-116416082D01*
X143809500Y-116563918D01*
X143809500Y-116563920D01*
X143809499Y-116563920D01*
X135095955Y-116563920D01*
X135175084Y-116445495D01*
X135187267Y-116416082D01*
X135209446Y-116362538D01*
X135209446Y-116362537D01*
X135231658Y-116308913D01*
X135245267Y-116240500D01*
X135260500Y-116163920D01*
X135260500Y-116016079D01*
X135231659Y-115871092D01*
X135231658Y-115871091D01*
X135231658Y-115871087D01*
X135230851Y-115869139D01*
X135175087Y-115734511D01*
X135175080Y-115734498D01*
X135092951Y-115611584D01*
X135092948Y-115611580D01*
X135045288Y-115563920D01*
X163539499Y-115563920D01*
X163568340Y-115708907D01*
X163568343Y-115708917D01*
X163624912Y-115845488D01*
X163624919Y-115845501D01*
X163707048Y-115968415D01*
X163707051Y-115968419D01*
X163811580Y-116072948D01*
X163811584Y-116072951D01*
X163934498Y-116155080D01*
X163934511Y-116155087D01*
X164038654Y-116198224D01*
X164071087Y-116211658D01*
X164071091Y-116211658D01*
X164071092Y-116211659D01*
X164216079Y-116240500D01*
X164216082Y-116240500D01*
X164363920Y-116240500D01*
X164461462Y-116221096D01*
X164508913Y-116211658D01*
X164614547Y-116167902D01*
X164645488Y-116155087D01*
X164645488Y-116155086D01*
X164645495Y-116155084D01*
X164768416Y-116072951D01*
X164872951Y-115968416D01*
X164955084Y-115845495D01*
X165011658Y-115708913D01*
X165024098Y-115646373D01*
X165040500Y-115563920D01*
X165040500Y-115416079D01*
X165011659Y-115271092D01*
X165011658Y-115271091D01*
X165011658Y-115271087D01*
X165011656Y-115271082D01*
X164955087Y-115134511D01*
X164955080Y-115134498D01*
X164872951Y-115011584D01*
X164872948Y-115011580D01*
X164768419Y-114907051D01*
X164768415Y-114907048D01*
X164645501Y-114824919D01*
X164645488Y-114824912D01*
X164508917Y-114768343D01*
X164508907Y-114768340D01*
X164363920Y-114739500D01*
X164363918Y-114739500D01*
X164216082Y-114739500D01*
X164216080Y-114739500D01*
X164071092Y-114768340D01*
X164071082Y-114768343D01*
X163934511Y-114824912D01*
X163934498Y-114824919D01*
X163811584Y-114907048D01*
X163811580Y-114907051D01*
X163707051Y-115011580D01*
X163707048Y-115011584D01*
X163624919Y-115134498D01*
X163624912Y-115134511D01*
X163568343Y-115271082D01*
X163568340Y-115271092D01*
X163539500Y-115416079D01*
X163539500Y-115416082D01*
X163539500Y-115563918D01*
X163539500Y-115563920D01*
X163539499Y-115563920D01*
X135045288Y-115563920D01*
X134988419Y-115507051D01*
X134988415Y-115507048D01*
X134865501Y-115424919D01*
X134865488Y-115424912D01*
X134728917Y-115368343D01*
X134728907Y-115368340D01*
X134583920Y-115339500D01*
X134583918Y-115339500D01*
X134436082Y-115339500D01*
X134436080Y-115339500D01*
X134291092Y-115368340D01*
X134291082Y-115368343D01*
X134154511Y-115424912D01*
X134154498Y-115424919D01*
X134031584Y-115507048D01*
X134031580Y-115507051D01*
X133927051Y-115611580D01*
X133927048Y-115611584D01*
X133844919Y-115734498D01*
X133844912Y-115734511D01*
X133788343Y-115871082D01*
X133788340Y-115871092D01*
X133759500Y-116016079D01*
X133759500Y-116016082D01*
X133759500Y-116163918D01*
X133759500Y-116163920D01*
X133759499Y-116163920D01*
X120983186Y-116163920D01*
X120915119Y-116062051D01*
X120884402Y-116016079D01*
X120815019Y-115912240D01*
X120596828Y-115646373D01*
X120596827Y-115646372D01*
X120596823Y-115646367D01*
X120353632Y-115403176D01*
X120087765Y-115184985D01*
X120087764Y-115184984D01*
X120087760Y-115184981D01*
X119801787Y-114993900D01*
X119801782Y-114993897D01*
X119801775Y-114993893D01*
X119498469Y-114831772D01*
X119498464Y-114831770D01*
X119481924Y-114824919D01*
X119346714Y-114768913D01*
X119180706Y-114700150D01*
X118851572Y-114600308D01*
X118514248Y-114533210D01*
X118514249Y-114533210D01*
X118256456Y-114507821D01*
X118171969Y-114499500D01*
X117828031Y-114499500D01*
X117749966Y-114507188D01*
X117485750Y-114533210D01*
X117148427Y-114600308D01*
X116819293Y-114700150D01*
X116501535Y-114831770D01*
X116501530Y-114831772D01*
X116198224Y-114993893D01*
X116198206Y-114993904D01*
X115912248Y-115184975D01*
X115912234Y-115184985D01*
X115646367Y-115403176D01*
X115403176Y-115646367D01*
X115220353Y-115869139D01*
X115162608Y-115908473D01*
X115092763Y-115910344D01*
X115032995Y-115874157D01*
X115002279Y-115811401D01*
X115000500Y-115790474D01*
X115000500Y-114121153D01*
X149329500Y-114121153D01*
X149329500Y-114278846D01*
X149360261Y-114433489D01*
X149360264Y-114433501D01*
X149420602Y-114579172D01*
X149420609Y-114579185D01*
X149508210Y-114710288D01*
X149508213Y-114710292D01*
X149619707Y-114821786D01*
X149619711Y-114821789D01*
X149750814Y-114909390D01*
X149750827Y-114909397D01*
X149894523Y-114968917D01*
X149896503Y-114969737D01*
X150017943Y-114993893D01*
X150051153Y-115000499D01*
X150051156Y-115000500D01*
X150051158Y-115000500D01*
X150208844Y-115000500D01*
X150208845Y-115000499D01*
X150363497Y-114969737D01*
X150509179Y-114909394D01*
X150637100Y-114823920D01*
X151209499Y-114823920D01*
X151238340Y-114968907D01*
X151238343Y-114968917D01*
X151294912Y-115105488D01*
X151294919Y-115105501D01*
X151377048Y-115228415D01*
X151377051Y-115228419D01*
X151481580Y-115332948D01*
X151481584Y-115332951D01*
X151604498Y-115415080D01*
X151604511Y-115415087D01*
X151741082Y-115471656D01*
X151741087Y-115471658D01*
X151741091Y-115471658D01*
X151741092Y-115471659D01*
X151886079Y-115500500D01*
X151886082Y-115500500D01*
X152033920Y-115500500D01*
X152131462Y-115481096D01*
X152178913Y-115471658D01*
X152315495Y-115415084D01*
X152438416Y-115332951D01*
X152542951Y-115228416D01*
X152625084Y-115105495D01*
X152681658Y-114968913D01*
X152708938Y-114831770D01*
X152710500Y-114823920D01*
X152710500Y-114676079D01*
X152681659Y-114531092D01*
X152681658Y-114531091D01*
X152681658Y-114531087D01*
X152668574Y-114499500D01*
X152625087Y-114394511D01*
X152623694Y-114391905D01*
X152623376Y-114390382D01*
X152622753Y-114388876D01*
X152623038Y-114388757D01*
X152609451Y-114323503D01*
X152634449Y-114258258D01*
X152685597Y-114218889D01*
X152766204Y-114185501D01*
X152815489Y-114165087D01*
X152815492Y-114165085D01*
X152815495Y-114165084D01*
X152938416Y-114082951D01*
X153042951Y-113978416D01*
X153125084Y-113855495D01*
X153181658Y-113718913D01*
X153200239Y-113625501D01*
X153210500Y-113573920D01*
X153210500Y-113426081D01*
X153207041Y-113408693D01*
X153213267Y-113339102D01*
X153256130Y-113283924D01*
X153322019Y-113260678D01*
X153328658Y-113260500D01*
X153333920Y-113260500D01*
X153366997Y-113253920D01*
X157049499Y-113253920D01*
X157078340Y-113398907D01*
X157078343Y-113398917D01*
X157134912Y-113535488D01*
X157134919Y-113535501D01*
X157217048Y-113658415D01*
X157217051Y-113658419D01*
X157321580Y-113762948D01*
X157321584Y-113762951D01*
X157444498Y-113845080D01*
X157444511Y-113845087D01*
X157581082Y-113901656D01*
X157581087Y-113901658D01*
X157581091Y-113901658D01*
X157581092Y-113901659D01*
X157726769Y-113930637D01*
X157788680Y-113963022D01*
X157823254Y-114023738D01*
X157824194Y-114028062D01*
X157828340Y-114048907D01*
X157828343Y-114048917D01*
X157884912Y-114185488D01*
X157884919Y-114185501D01*
X157967048Y-114308415D01*
X157967051Y-114308419D01*
X158071580Y-114412948D01*
X158071584Y-114412951D01*
X158194498Y-114495080D01*
X158194511Y-114495087D01*
X158285152Y-114532631D01*
X158339556Y-114576471D01*
X158359317Y-114623000D01*
X158388340Y-114768907D01*
X158388343Y-114768917D01*
X158444912Y-114905488D01*
X158444919Y-114905501D01*
X158527048Y-115028415D01*
X158527051Y-115028419D01*
X158631580Y-115132948D01*
X158631584Y-115132951D01*
X158754498Y-115215080D01*
X158754511Y-115215087D01*
X158891082Y-115271656D01*
X158891087Y-115271658D01*
X158891091Y-115271658D01*
X158891092Y-115271659D01*
X159036079Y-115300500D01*
X159036082Y-115300500D01*
X159183920Y-115300500D01*
X159244885Y-115288373D01*
X159300811Y-115277247D01*
X159328913Y-115271658D01*
X159465495Y-115215084D01*
X159588416Y-115132951D01*
X159692951Y-115028416D01*
X159775084Y-114905495D01*
X159831658Y-114768913D01*
X159860500Y-114623918D01*
X159860500Y-114476082D01*
X159860500Y-114476079D01*
X159831659Y-114331092D01*
X159831658Y-114331091D01*
X159831658Y-114331087D01*
X159822269Y-114308419D01*
X159775087Y-114194511D01*
X159775085Y-114194507D01*
X159775084Y-114194505D01*
X159775080Y-114194499D01*
X159771901Y-114189740D01*
X159751026Y-114123062D01*
X159769513Y-114055682D01*
X159821494Y-114008994D01*
X159850809Y-113999237D01*
X159888913Y-113991658D01*
X160025495Y-113935084D01*
X160148416Y-113852951D01*
X160252951Y-113748416D01*
X160335084Y-113625495D01*
X160391658Y-113488913D01*
X160403324Y-113430264D01*
X160420500Y-113343920D01*
X160420500Y-113196079D01*
X160391659Y-113051092D01*
X160391658Y-113051091D01*
X160391658Y-113051087D01*
X160389136Y-113044998D01*
X160335087Y-112914511D01*
X160335080Y-112914498D01*
X160252951Y-112791584D01*
X160252948Y-112791580D01*
X160148419Y-112687051D01*
X160148415Y-112687048D01*
X160025501Y-112604919D01*
X160025492Y-112604914D01*
X159998950Y-112593920D01*
X163469499Y-112593920D01*
X163498340Y-112738907D01*
X163498343Y-112738917D01*
X163554912Y-112875488D01*
X163554919Y-112875501D01*
X163637048Y-112998415D01*
X163637051Y-112998419D01*
X163741580Y-113102948D01*
X163741584Y-113102951D01*
X163864498Y-113185080D01*
X163864511Y-113185087D01*
X163976947Y-113231659D01*
X164001087Y-113241658D01*
X164001091Y-113241658D01*
X164001092Y-113241659D01*
X164146079Y-113270500D01*
X164146082Y-113270500D01*
X164293920Y-113270500D01*
X164391462Y-113251096D01*
X164438913Y-113241658D01*
X164575495Y-113185084D01*
X164698416Y-113102951D01*
X164802951Y-112998416D01*
X164885084Y-112875495D01*
X164941658Y-112738913D01*
X164959245Y-112650500D01*
X164970500Y-112593920D01*
X164970500Y-112446079D01*
X164941659Y-112301092D01*
X164941658Y-112301091D01*
X164941658Y-112301087D01*
X164922773Y-112255495D01*
X164885087Y-112164511D01*
X164885080Y-112164498D01*
X164802951Y-112041584D01*
X164802948Y-112041580D01*
X164698419Y-111937051D01*
X164698415Y-111937048D01*
X164575501Y-111854919D01*
X164575488Y-111854912D01*
X164438917Y-111798343D01*
X164438907Y-111798340D01*
X164293920Y-111769500D01*
X164293918Y-111769500D01*
X164146082Y-111769500D01*
X164146080Y-111769500D01*
X164001092Y-111798340D01*
X164001082Y-111798343D01*
X163864511Y-111854912D01*
X163864498Y-111854919D01*
X163741584Y-111937048D01*
X163741580Y-111937051D01*
X163637051Y-112041580D01*
X163637048Y-112041584D01*
X163554919Y-112164498D01*
X163554912Y-112164511D01*
X163498343Y-112301082D01*
X163498340Y-112301092D01*
X163469500Y-112446079D01*
X163469500Y-112446082D01*
X163469500Y-112593918D01*
X163469500Y-112593920D01*
X163469499Y-112593920D01*
X159998950Y-112593920D01*
X159903906Y-112554552D01*
X159903905Y-112554552D01*
X159888913Y-112548342D01*
X159888908Y-112548341D01*
X159888907Y-112548340D01*
X159743920Y-112519500D01*
X159743918Y-112519500D01*
X159596082Y-112519500D01*
X159596080Y-112519500D01*
X159451092Y-112548340D01*
X159451082Y-112548343D01*
X159314511Y-112604912D01*
X159314498Y-112604919D01*
X159191584Y-112687048D01*
X159191580Y-112687051D01*
X159087051Y-112791580D01*
X159087048Y-112791584D01*
X159004919Y-112914498D01*
X159004914Y-112914507D01*
X158949275Y-113048834D01*
X158905434Y-113103237D01*
X158839140Y-113125302D01*
X158806578Y-113122147D01*
X158796666Y-113119837D01*
X158768913Y-113108342D01*
X158623918Y-113079500D01*
X158623531Y-113079500D01*
X158619286Y-113078511D01*
X158590543Y-113062263D01*
X158561319Y-113046976D01*
X158560284Y-113045158D01*
X158558461Y-113044128D01*
X158543067Y-113014923D01*
X158526745Y-112986260D01*
X158525892Y-112982341D01*
X158525881Y-112982319D01*
X158525882Y-112982296D01*
X158525811Y-112981968D01*
X158521658Y-112961087D01*
X158509426Y-112931557D01*
X158465087Y-112824511D01*
X158465080Y-112824498D01*
X158382951Y-112701584D01*
X158382948Y-112701580D01*
X158278419Y-112597051D01*
X158278415Y-112597048D01*
X158155501Y-112514919D01*
X158155488Y-112514912D01*
X158018917Y-112458343D01*
X158018907Y-112458340D01*
X157873920Y-112429500D01*
X157873918Y-112429500D01*
X157726082Y-112429500D01*
X157726080Y-112429500D01*
X157581092Y-112458340D01*
X157581082Y-112458343D01*
X157444511Y-112514912D01*
X157444498Y-112514919D01*
X157321584Y-112597048D01*
X157321580Y-112597051D01*
X157217051Y-112701580D01*
X157217048Y-112701584D01*
X157134919Y-112824498D01*
X157134912Y-112824511D01*
X157078343Y-112961082D01*
X157078340Y-112961092D01*
X157049500Y-113106079D01*
X157049500Y-113106082D01*
X157049500Y-113253918D01*
X157049500Y-113253920D01*
X157049499Y-113253920D01*
X153366997Y-113253920D01*
X153431462Y-113241096D01*
X153478913Y-113231658D01*
X153591353Y-113185084D01*
X153615488Y-113175087D01*
X153615488Y-113175086D01*
X153615495Y-113175084D01*
X153738416Y-113092951D01*
X153775869Y-113055498D01*
X153819059Y-113012309D01*
X153842948Y-112988419D01*
X153842951Y-112988416D01*
X153925084Y-112865495D01*
X153981658Y-112728913D01*
X154002967Y-112621789D01*
X154010500Y-112583920D01*
X154010500Y-112436079D01*
X153981659Y-112291092D01*
X153981658Y-112291091D01*
X153981658Y-112291087D01*
X153966918Y-112255501D01*
X153925087Y-112154511D01*
X153925080Y-112154498D01*
X153842951Y-112031584D01*
X153842948Y-112031580D01*
X153738419Y-111927051D01*
X153738415Y-111927048D01*
X153615501Y-111844919D01*
X153615488Y-111844912D01*
X153478917Y-111788343D01*
X153478907Y-111788340D01*
X153333920Y-111759500D01*
X153333918Y-111759500D01*
X153186082Y-111759500D01*
X153186080Y-111759500D01*
X153041092Y-111788340D01*
X153041082Y-111788343D01*
X152904511Y-111844912D01*
X152904498Y-111844919D01*
X152781584Y-111927048D01*
X152781580Y-111927051D01*
X152677051Y-112031580D01*
X152677048Y-112031584D01*
X152594919Y-112154498D01*
X152594912Y-112154511D01*
X152538343Y-112291082D01*
X152538340Y-112291092D01*
X152509500Y-112436079D01*
X152509500Y-112436082D01*
X152509500Y-112583918D01*
X152512384Y-112598419D01*
X152512959Y-112601307D01*
X152506733Y-112670898D01*
X152463870Y-112726076D01*
X152397981Y-112749322D01*
X152391342Y-112749500D01*
X152386080Y-112749500D01*
X152241092Y-112778340D01*
X152241082Y-112778343D01*
X152104511Y-112834912D01*
X152104498Y-112834919D01*
X151981584Y-112917048D01*
X151981580Y-112917051D01*
X151877051Y-113021580D01*
X151877048Y-113021584D01*
X151794919Y-113144498D01*
X151794912Y-113144511D01*
X151738343Y-113281082D01*
X151738340Y-113281092D01*
X151709500Y-113426079D01*
X151709500Y-113426081D01*
X151709500Y-113426082D01*
X151709500Y-113573918D01*
X151709500Y-113573920D01*
X151709499Y-113573920D01*
X151738340Y-113718907D01*
X151738343Y-113718917D01*
X151794916Y-113855496D01*
X151796307Y-113858099D01*
X151796623Y-113859618D01*
X151797247Y-113861124D01*
X151796961Y-113861242D01*
X151810548Y-113926502D01*
X151785547Y-113991745D01*
X151734401Y-114031111D01*
X151604508Y-114084914D01*
X151604498Y-114084919D01*
X151481584Y-114167048D01*
X151481580Y-114167051D01*
X151377051Y-114271580D01*
X151377048Y-114271584D01*
X151294919Y-114394498D01*
X151294912Y-114394511D01*
X151238343Y-114531082D01*
X151238340Y-114531092D01*
X151209500Y-114676079D01*
X151209500Y-114676082D01*
X151209500Y-114823918D01*
X151209500Y-114823920D01*
X151209499Y-114823920D01*
X150637100Y-114823920D01*
X150640289Y-114821789D01*
X150751789Y-114710289D01*
X150809499Y-114623920D01*
X150824748Y-114601099D01*
X150831008Y-114591729D01*
X150839394Y-114579179D01*
X150850794Y-114551658D01*
X150899735Y-114433501D01*
X150899737Y-114433497D01*
X150930500Y-114278842D01*
X150930500Y-114121158D01*
X150930500Y-114121155D01*
X150930499Y-114121153D01*
X150899737Y-113966503D01*
X150856088Y-113861124D01*
X150839397Y-113820827D01*
X150839390Y-113820814D01*
X150751789Y-113689711D01*
X150751786Y-113689707D01*
X150640292Y-113578213D01*
X150640288Y-113578210D01*
X150509185Y-113490609D01*
X150509172Y-113490602D01*
X150363501Y-113430264D01*
X150363489Y-113430261D01*
X150208845Y-113399500D01*
X150208842Y-113399500D01*
X150051158Y-113399500D01*
X150051155Y-113399500D01*
X149896510Y-113430261D01*
X149896498Y-113430264D01*
X149750827Y-113490602D01*
X149750814Y-113490609D01*
X149619711Y-113578210D01*
X149619707Y-113578213D01*
X149508213Y-113689707D01*
X149508210Y-113689711D01*
X149420609Y-113820814D01*
X149420602Y-113820827D01*
X149360264Y-113966498D01*
X149360261Y-113966510D01*
X149329500Y-114121153D01*
X115000500Y-114121153D01*
X115000500Y-110779983D01*
X123149500Y-110779983D01*
X123149500Y-112330001D01*
X123149501Y-112330018D01*
X123160000Y-112432796D01*
X123160001Y-112432799D01*
X123215185Y-112599331D01*
X123215187Y-112599336D01*
X123218628Y-112604914D01*
X123307288Y-112748656D01*
X123431344Y-112872712D01*
X123580666Y-112964814D01*
X123747203Y-113019999D01*
X123849991Y-113030500D01*
X125150008Y-113030499D01*
X125252797Y-113019999D01*
X125419334Y-112964814D01*
X125568656Y-112872712D01*
X125692712Y-112748656D01*
X125784814Y-112599334D01*
X125784814Y-112599331D01*
X125788178Y-112593879D01*
X125840126Y-112547154D01*
X125909088Y-112535931D01*
X125973170Y-112563774D01*
X125981398Y-112571294D01*
X126120213Y-112710109D01*
X126292179Y-112835048D01*
X126292181Y-112835049D01*
X126292184Y-112835051D01*
X126481588Y-112931557D01*
X126683757Y-112997246D01*
X126893713Y-113030500D01*
X126893714Y-113030500D01*
X127106286Y-113030500D01*
X127106287Y-113030500D01*
X127316243Y-112997246D01*
X127518412Y-112931557D01*
X127707816Y-112835051D01*
X127776596Y-112785080D01*
X127879786Y-112710109D01*
X127879788Y-112710106D01*
X127879792Y-112710104D01*
X128030104Y-112559792D01*
X128149991Y-112394779D01*
X128205320Y-112352115D01*
X128274933Y-112346136D01*
X128336729Y-112378741D01*
X128350627Y-112394781D01*
X128470272Y-112559459D01*
X128470276Y-112559464D01*
X128620535Y-112709723D01*
X128620540Y-112709727D01*
X128792442Y-112834620D01*
X128981782Y-112931095D01*
X129183871Y-112996757D01*
X129250000Y-113007231D01*
X129250000Y-111959145D01*
X129316657Y-111997630D01*
X129437465Y-112030000D01*
X129562535Y-112030000D01*
X129683343Y-111997630D01*
X129750000Y-111959145D01*
X129750000Y-113007230D01*
X129816126Y-112996757D01*
X129816129Y-112996757D01*
X130018217Y-112931095D01*
X130207557Y-112834620D01*
X130379459Y-112709727D01*
X130379464Y-112709723D01*
X130529723Y-112559464D01*
X130529727Y-112559459D01*
X130654620Y-112387557D01*
X130751095Y-112198217D01*
X130816757Y-111996130D01*
X130816757Y-111996127D01*
X130820274Y-111973920D01*
X136824499Y-111973920D01*
X136853340Y-112118907D01*
X136853343Y-112118917D01*
X136909912Y-112255488D01*
X136909919Y-112255501D01*
X136992048Y-112378415D01*
X136992051Y-112378419D01*
X137096580Y-112482948D01*
X137096584Y-112482951D01*
X137219498Y-112565080D01*
X137219511Y-112565087D01*
X137306955Y-112601307D01*
X137356087Y-112621658D01*
X137356091Y-112621658D01*
X137356092Y-112621659D01*
X137501079Y-112650500D01*
X137501082Y-112650500D01*
X137648920Y-112650500D01*
X137746462Y-112631096D01*
X137793913Y-112621658D01*
X137899547Y-112577902D01*
X137930488Y-112565087D01*
X137930488Y-112565086D01*
X137930495Y-112565084D01*
X138053416Y-112482951D01*
X138157951Y-112378416D01*
X138240084Y-112255495D01*
X138296658Y-112118913D01*
X138316087Y-112021239D01*
X138325500Y-111973920D01*
X138325500Y-111921153D01*
X140899500Y-111921153D01*
X140899500Y-112078846D01*
X140930261Y-112233489D01*
X140930264Y-112233501D01*
X140990602Y-112379172D01*
X140990609Y-112379185D01*
X141078210Y-112510288D01*
X141078213Y-112510292D01*
X141189707Y-112621786D01*
X141189711Y-112621789D01*
X141320814Y-112709390D01*
X141320827Y-112709397D01*
X141466498Y-112769735D01*
X141466503Y-112769737D01*
X141576335Y-112791584D01*
X141621153Y-112800499D01*
X141621156Y-112800500D01*
X141621158Y-112800500D01*
X141778844Y-112800500D01*
X141778845Y-112800499D01*
X141933497Y-112769737D01*
X142079179Y-112709394D01*
X142210289Y-112621789D01*
X142321789Y-112510289D01*
X142409394Y-112379179D01*
X142409576Y-112378741D01*
X142441738Y-112301092D01*
X142469737Y-112233497D01*
X142477609Y-112193920D01*
X148029499Y-112193920D01*
X148058340Y-112338907D01*
X148058343Y-112338917D01*
X148114912Y-112475488D01*
X148114919Y-112475501D01*
X148197048Y-112598415D01*
X148197051Y-112598419D01*
X148301580Y-112702948D01*
X148301584Y-112702951D01*
X148424498Y-112785080D01*
X148424511Y-112785087D01*
X148545129Y-112835048D01*
X148561087Y-112841658D01*
X148561091Y-112841658D01*
X148561092Y-112841659D01*
X148706079Y-112870500D01*
X148706082Y-112870500D01*
X148853920Y-112870500D01*
X148951462Y-112851096D01*
X148998913Y-112841658D01*
X149135495Y-112785084D01*
X149258416Y-112702951D01*
X149362951Y-112598416D01*
X149445084Y-112475495D01*
X149501658Y-112338913D01*
X149524633Y-112223412D01*
X149530500Y-112193920D01*
X149530500Y-112046079D01*
X149501659Y-111901092D01*
X149501658Y-111901091D01*
X149501658Y-111901087D01*
X149482535Y-111854919D01*
X149445087Y-111764511D01*
X149445080Y-111764498D01*
X149362951Y-111641584D01*
X149362948Y-111641580D01*
X149258419Y-111537051D01*
X149258415Y-111537048D01*
X149135501Y-111454919D01*
X149135488Y-111454912D01*
X148998917Y-111398343D01*
X148998907Y-111398340D01*
X148853920Y-111369500D01*
X148853918Y-111369500D01*
X148706082Y-111369500D01*
X148706080Y-111369500D01*
X148561092Y-111398340D01*
X148561082Y-111398343D01*
X148424511Y-111454912D01*
X148424498Y-111454919D01*
X148301584Y-111537048D01*
X148301580Y-111537051D01*
X148197051Y-111641580D01*
X148197048Y-111641584D01*
X148114919Y-111764498D01*
X148114912Y-111764511D01*
X148058343Y-111901082D01*
X148058340Y-111901092D01*
X148029500Y-112046079D01*
X148029500Y-112046082D01*
X148029500Y-112193918D01*
X148029500Y-112193920D01*
X148029499Y-112193920D01*
X142477609Y-112193920D01*
X142500500Y-112078842D01*
X142500500Y-111921158D01*
X142500500Y-111921155D01*
X142500499Y-111921153D01*
X142493324Y-111885084D01*
X142469737Y-111766503D01*
X142450224Y-111719394D01*
X142409397Y-111620827D01*
X142409390Y-111620814D01*
X142321789Y-111489711D01*
X142321786Y-111489707D01*
X142210292Y-111378213D01*
X142210288Y-111378210D01*
X142079185Y-111290609D01*
X142079172Y-111290602D01*
X141933501Y-111230264D01*
X141933489Y-111230261D01*
X141778845Y-111199500D01*
X141778842Y-111199500D01*
X141621158Y-111199500D01*
X141621155Y-111199500D01*
X141466510Y-111230261D01*
X141466498Y-111230264D01*
X141320827Y-111290602D01*
X141320814Y-111290609D01*
X141189711Y-111378210D01*
X141189707Y-111378213D01*
X141078213Y-111489707D01*
X141078210Y-111489711D01*
X140990609Y-111620814D01*
X140990602Y-111620827D01*
X140930264Y-111766498D01*
X140930261Y-111766510D01*
X140899500Y-111921153D01*
X138325500Y-111921153D01*
X138325500Y-111826079D01*
X138296659Y-111681092D01*
X138296658Y-111681091D01*
X138296658Y-111681087D01*
X138283269Y-111648763D01*
X138240087Y-111544511D01*
X138240080Y-111544498D01*
X138157951Y-111421584D01*
X138157948Y-111421580D01*
X138053419Y-111317051D01*
X138053415Y-111317048D01*
X137930501Y-111234919D01*
X137930488Y-111234912D01*
X137793917Y-111178343D01*
X137793907Y-111178340D01*
X137648920Y-111149500D01*
X137648918Y-111149500D01*
X137501082Y-111149500D01*
X137501080Y-111149500D01*
X137356092Y-111178340D01*
X137356082Y-111178343D01*
X137219511Y-111234912D01*
X137219498Y-111234919D01*
X137096584Y-111317048D01*
X137096580Y-111317051D01*
X136992051Y-111421580D01*
X136992048Y-111421584D01*
X136909919Y-111544498D01*
X136909912Y-111544511D01*
X136853343Y-111681082D01*
X136853340Y-111681092D01*
X136824500Y-111826079D01*
X136824500Y-111826082D01*
X136824500Y-111973918D01*
X136824500Y-111973920D01*
X136824499Y-111973920D01*
X130820274Y-111973920D01*
X130847030Y-111805000D01*
X129904146Y-111805000D01*
X129942630Y-111738343D01*
X129975000Y-111617535D01*
X129975000Y-111492465D01*
X129942630Y-111371657D01*
X129904146Y-111305000D01*
X130847030Y-111305000D01*
X130816757Y-111113872D01*
X130816757Y-111113869D01*
X130764613Y-110953384D01*
X130754139Y-110921153D01*
X143179500Y-110921153D01*
X143179500Y-111078846D01*
X143210261Y-111233489D01*
X143210264Y-111233501D01*
X143270602Y-111379172D01*
X143270609Y-111379185D01*
X143358210Y-111510288D01*
X143358213Y-111510292D01*
X143469707Y-111621786D01*
X143469711Y-111621789D01*
X143600814Y-111709390D01*
X143600827Y-111709397D01*
X143733886Y-111764511D01*
X143746503Y-111769737D01*
X143890299Y-111798340D01*
X143901153Y-111800499D01*
X143901156Y-111800500D01*
X143901158Y-111800500D01*
X144058844Y-111800500D01*
X144058845Y-111800499D01*
X144213497Y-111769737D01*
X144326166Y-111723067D01*
X144359172Y-111709397D01*
X144359172Y-111709396D01*
X144359179Y-111709394D01*
X144401536Y-111681092D01*
X144446337Y-111651157D01*
X144513014Y-111630279D01*
X144580394Y-111648763D01*
X144618329Y-111685367D01*
X144627046Y-111698413D01*
X144627051Y-111698419D01*
X144731580Y-111802948D01*
X144731584Y-111802951D01*
X144854498Y-111885080D01*
X144854511Y-111885087D01*
X144991082Y-111941656D01*
X144991087Y-111941658D01*
X144991091Y-111941658D01*
X144991092Y-111941659D01*
X145136079Y-111970500D01*
X145136082Y-111970500D01*
X145283920Y-111970500D01*
X145394944Y-111948415D01*
X145428913Y-111941658D01*
X145565495Y-111885084D01*
X145688416Y-111802951D01*
X145792951Y-111698416D01*
X145875084Y-111575495D01*
X145931658Y-111438913D01*
X145945036Y-111371657D01*
X145960500Y-111293920D01*
X145960500Y-111146079D01*
X145931659Y-111001092D01*
X145931658Y-111001091D01*
X145931658Y-111001087D01*
X145902693Y-110931158D01*
X145875087Y-110864511D01*
X145875080Y-110864498D01*
X145792951Y-110741584D01*
X145792948Y-110741580D01*
X145688419Y-110637051D01*
X145688415Y-110637048D01*
X145565501Y-110554919D01*
X145565488Y-110554912D01*
X145428917Y-110498343D01*
X145428907Y-110498340D01*
X145283920Y-110469500D01*
X145283918Y-110469500D01*
X145136082Y-110469500D01*
X145136080Y-110469500D01*
X144991092Y-110498340D01*
X144991082Y-110498343D01*
X144854511Y-110554912D01*
X144854498Y-110554919D01*
X144813015Y-110582638D01*
X144811407Y-110583141D01*
X144810294Y-110584405D01*
X144778180Y-110593545D01*
X144746337Y-110603516D01*
X144744713Y-110603070D01*
X144743093Y-110603532D01*
X144711124Y-110593855D01*
X144678957Y-110585031D01*
X144677315Y-110583622D01*
X144676220Y-110583291D01*
X144671619Y-110578734D01*
X144649739Y-110559957D01*
X144645044Y-110554447D01*
X144601789Y-110489711D01*
X144521329Y-110409251D01*
X144521324Y-110409245D01*
X144490292Y-110378213D01*
X144490288Y-110378210D01*
X144419863Y-110331153D01*
X149949500Y-110331153D01*
X149949500Y-110488846D01*
X149980261Y-110643489D01*
X149980264Y-110643501D01*
X150040602Y-110789172D01*
X150040609Y-110789185D01*
X150128210Y-110920288D01*
X150128213Y-110920292D01*
X150239707Y-111031786D01*
X150239711Y-111031789D01*
X150370814Y-111119390D01*
X150370827Y-111119397D01*
X150516498Y-111179735D01*
X150516503Y-111179737D01*
X150615858Y-111199500D01*
X150671153Y-111210499D01*
X150671156Y-111210500D01*
X150671158Y-111210500D01*
X150828841Y-111210500D01*
X150828842Y-111210500D01*
X150858310Y-111204638D01*
X150927898Y-111210864D01*
X150983076Y-111253725D01*
X151004118Y-111302063D01*
X151030261Y-111433491D01*
X151030264Y-111433501D01*
X151090602Y-111579172D01*
X151090609Y-111579185D01*
X151178210Y-111710288D01*
X151178213Y-111710292D01*
X151289707Y-111821786D01*
X151289711Y-111821789D01*
X151420814Y-111909390D01*
X151420827Y-111909397D01*
X151519558Y-111950292D01*
X151566503Y-111969737D01*
X151699174Y-111996127D01*
X151721153Y-112000499D01*
X151721156Y-112000500D01*
X151721158Y-112000500D01*
X151878844Y-112000500D01*
X151878845Y-112000499D01*
X152033497Y-111969737D01*
X152179179Y-111909394D01*
X152310289Y-111821789D01*
X152421789Y-111710289D01*
X152509394Y-111579179D01*
X152510918Y-111575501D01*
X152523999Y-111543920D01*
X155529499Y-111543920D01*
X155558340Y-111688907D01*
X155558343Y-111688917D01*
X155614912Y-111825488D01*
X155614919Y-111825501D01*
X155697048Y-111948415D01*
X155697051Y-111948419D01*
X155801580Y-112052948D01*
X155801584Y-112052951D01*
X155924498Y-112135080D01*
X155924511Y-112135087D01*
X155995548Y-112164511D01*
X156061087Y-112191658D01*
X156061091Y-112191658D01*
X156061092Y-112191659D01*
X156206079Y-112220500D01*
X156206082Y-112220500D01*
X156353920Y-112220500D01*
X156487551Y-112193918D01*
X156498913Y-112191658D01*
X156635495Y-112135084D01*
X156758416Y-112052951D01*
X156862951Y-111948416D01*
X156945084Y-111825495D01*
X157001658Y-111688913D01*
X157015011Y-111621786D01*
X157030500Y-111543920D01*
X157030500Y-111396079D01*
X157001659Y-111251092D01*
X157001658Y-111251091D01*
X157001658Y-111251087D01*
X156993033Y-111230264D01*
X156945087Y-111114511D01*
X156945080Y-111114498D01*
X156862951Y-110991584D01*
X156862948Y-110991580D01*
X156758419Y-110887051D01*
X156758415Y-110887048D01*
X156710356Y-110854936D01*
X156635501Y-110804919D01*
X156635488Y-110804912D01*
X156514948Y-110754983D01*
X170399500Y-110754983D01*
X170399500Y-112355001D01*
X170399501Y-112355018D01*
X170410000Y-112457796D01*
X170410001Y-112457799D01*
X170458750Y-112604912D01*
X170465186Y-112624334D01*
X170557288Y-112773656D01*
X170681344Y-112897712D01*
X170830666Y-112989814D01*
X170997203Y-113044999D01*
X171099991Y-113055500D01*
X172400008Y-113055499D01*
X172502797Y-113044999D01*
X172669334Y-112989814D01*
X172818656Y-112897712D01*
X172942712Y-112773656D01*
X173034814Y-112624334D01*
X173034814Y-112624331D01*
X173038178Y-112618879D01*
X173090126Y-112572154D01*
X173159088Y-112560931D01*
X173223170Y-112588774D01*
X173231398Y-112596294D01*
X173370213Y-112735109D01*
X173542179Y-112860048D01*
X173542181Y-112860049D01*
X173542184Y-112860051D01*
X173731588Y-112956557D01*
X173933757Y-113022246D01*
X174143713Y-113055500D01*
X174143714Y-113055500D01*
X174356286Y-113055500D01*
X174356287Y-113055500D01*
X174566243Y-113022246D01*
X174768412Y-112956557D01*
X174957816Y-112860051D01*
X174992230Y-112835048D01*
X175129786Y-112735109D01*
X175129788Y-112735106D01*
X175129792Y-112735104D01*
X175280104Y-112584792D01*
X175280106Y-112584788D01*
X175280109Y-112584786D01*
X175405048Y-112412820D01*
X175405047Y-112412820D01*
X175405051Y-112412816D01*
X175501557Y-112223412D01*
X175567246Y-112021243D01*
X175600500Y-111811287D01*
X175600500Y-111361153D01*
X176659500Y-111361153D01*
X176659500Y-111518846D01*
X176690261Y-111673489D01*
X176690264Y-111673501D01*
X176750602Y-111819172D01*
X176750609Y-111819185D01*
X176838210Y-111950288D01*
X176838213Y-111950292D01*
X176949707Y-112061786D01*
X176949711Y-112061789D01*
X177080814Y-112149390D01*
X177080827Y-112149397D01*
X177226498Y-112209735D01*
X177226503Y-112209737D01*
X177345912Y-112233489D01*
X177381153Y-112240499D01*
X177381156Y-112240500D01*
X177381158Y-112240500D01*
X177538844Y-112240500D01*
X177538845Y-112240499D01*
X177693497Y-112209737D01*
X177806166Y-112163067D01*
X177839172Y-112149397D01*
X177839172Y-112149396D01*
X177839179Y-112149394D01*
X177970289Y-112061789D01*
X178081789Y-111950289D01*
X178169394Y-111819179D01*
X178178025Y-111798343D01*
X178192038Y-111764511D01*
X178229737Y-111673497D01*
X178260500Y-111518842D01*
X178260500Y-111361158D01*
X178260500Y-111361155D01*
X178260499Y-111361153D01*
X178253052Y-111323713D01*
X178229737Y-111206503D01*
X178229735Y-111206498D01*
X178169397Y-111060827D01*
X178169395Y-111060823D01*
X178169394Y-111060821D01*
X178123129Y-110991580D01*
X178082753Y-110931153D01*
X179629500Y-110931153D01*
X179629500Y-111088846D01*
X179660261Y-111243489D01*
X179660264Y-111243501D01*
X179720602Y-111389172D01*
X179720609Y-111389185D01*
X179808210Y-111520288D01*
X179808213Y-111520292D01*
X179919707Y-111631786D01*
X179919711Y-111631789D01*
X180050814Y-111719390D01*
X180050827Y-111719397D01*
X180172363Y-111769738D01*
X180196503Y-111779737D01*
X180313192Y-111802948D01*
X180351153Y-111810499D01*
X180351156Y-111810500D01*
X180351158Y-111810500D01*
X180508844Y-111810500D01*
X180508845Y-111810499D01*
X180663497Y-111779737D01*
X180809179Y-111719394D01*
X180940289Y-111631789D01*
X181051789Y-111520289D01*
X181139394Y-111389179D01*
X181143938Y-111378210D01*
X181180224Y-111290606D01*
X181199737Y-111243497D01*
X181230500Y-111088842D01*
X181230500Y-110931158D01*
X181230500Y-110931155D01*
X181230499Y-110931153D01*
X181226607Y-110911588D01*
X181199737Y-110776503D01*
X181188073Y-110748343D01*
X181139397Y-110630827D01*
X181139390Y-110630814D01*
X181051789Y-110499711D01*
X181051786Y-110499707D01*
X180940292Y-110388213D01*
X180940288Y-110388210D01*
X180809185Y-110300609D01*
X180809172Y-110300602D01*
X180663501Y-110240264D01*
X180663489Y-110240261D01*
X180508845Y-110209500D01*
X180508842Y-110209500D01*
X180351158Y-110209500D01*
X180351155Y-110209500D01*
X180196510Y-110240261D01*
X180196498Y-110240264D01*
X180050827Y-110300602D01*
X180050814Y-110300609D01*
X179919711Y-110388210D01*
X179919707Y-110388213D01*
X179808213Y-110499707D01*
X179808210Y-110499711D01*
X179720609Y-110630814D01*
X179720602Y-110630827D01*
X179660264Y-110776498D01*
X179660261Y-110776510D01*
X179629500Y-110931153D01*
X178082753Y-110931153D01*
X178081789Y-110929710D01*
X177970292Y-110818213D01*
X177970288Y-110818210D01*
X177839185Y-110730609D01*
X177839172Y-110730602D01*
X177693501Y-110670264D01*
X177693489Y-110670261D01*
X177538845Y-110639500D01*
X177538842Y-110639500D01*
X177381158Y-110639500D01*
X177381155Y-110639500D01*
X177226510Y-110670261D01*
X177226498Y-110670264D01*
X177080827Y-110730602D01*
X177080814Y-110730609D01*
X176949711Y-110818210D01*
X176949707Y-110818213D01*
X176838213Y-110929707D01*
X176838210Y-110929711D01*
X176750609Y-111060814D01*
X176750602Y-111060827D01*
X176690264Y-111206498D01*
X176690261Y-111206510D01*
X176659500Y-111361153D01*
X175600500Y-111361153D01*
X175600500Y-111298713D01*
X175567246Y-111088757D01*
X175501557Y-110886588D01*
X175405051Y-110697184D01*
X175405049Y-110697181D01*
X175405048Y-110697179D01*
X175280109Y-110525213D01*
X175129786Y-110374890D01*
X174957820Y-110249951D01*
X174768414Y-110153444D01*
X174768413Y-110153443D01*
X174768412Y-110153443D01*
X174566243Y-110087754D01*
X174566241Y-110087753D01*
X174566240Y-110087753D01*
X174404957Y-110062208D01*
X174356287Y-110054500D01*
X174143713Y-110054500D01*
X174095042Y-110062208D01*
X173933760Y-110087753D01*
X173731585Y-110153444D01*
X173542179Y-110249951D01*
X173370215Y-110374889D01*
X173231398Y-110513706D01*
X173170075Y-110547190D01*
X173100383Y-110542206D01*
X173044450Y-110500334D01*
X173038178Y-110491120D01*
X173004729Y-110436891D01*
X172942712Y-110336344D01*
X172818656Y-110212288D01*
X172669334Y-110120186D01*
X172502797Y-110065001D01*
X172502795Y-110065000D01*
X172400010Y-110054500D01*
X171099998Y-110054500D01*
X171099981Y-110054501D01*
X170997203Y-110065000D01*
X170997200Y-110065001D01*
X170830668Y-110120185D01*
X170830663Y-110120187D01*
X170681342Y-110212289D01*
X170557289Y-110336342D01*
X170465187Y-110485663D01*
X170465185Y-110485668D01*
X170443689Y-110550540D01*
X170410001Y-110652203D01*
X170410001Y-110652204D01*
X170410000Y-110652204D01*
X170399500Y-110754983D01*
X156514948Y-110754983D01*
X156498917Y-110748343D01*
X156498907Y-110748340D01*
X156353920Y-110719500D01*
X156353918Y-110719500D01*
X156206082Y-110719500D01*
X156206080Y-110719500D01*
X156061092Y-110748340D01*
X156061082Y-110748343D01*
X155924511Y-110804912D01*
X155924498Y-110804919D01*
X155801584Y-110887048D01*
X155801580Y-110887051D01*
X155697051Y-110991580D01*
X155697048Y-110991584D01*
X155614919Y-111114498D01*
X155614912Y-111114511D01*
X155558343Y-111251082D01*
X155558340Y-111251092D01*
X155529500Y-111396079D01*
X155529500Y-111396082D01*
X155529500Y-111543918D01*
X155529500Y-111543920D01*
X155529499Y-111543920D01*
X152523999Y-111543920D01*
X152533787Y-111520288D01*
X152569737Y-111433497D01*
X152576730Y-111398342D01*
X152583204Y-111365798D01*
X152583204Y-111365797D01*
X152600499Y-111278846D01*
X152600500Y-111278844D01*
X152600500Y-111121155D01*
X152600499Y-111121153D01*
X152592313Y-111080000D01*
X152569737Y-110966503D01*
X152555097Y-110931158D01*
X152509397Y-110820827D01*
X152509390Y-110820814D01*
X152421789Y-110689711D01*
X152421786Y-110689707D01*
X152310292Y-110578213D01*
X152310288Y-110578210D01*
X152179185Y-110490609D01*
X152179172Y-110490602D01*
X152033501Y-110430264D01*
X152033489Y-110430261D01*
X151878845Y-110399500D01*
X151878842Y-110399500D01*
X151721158Y-110399500D01*
X151721153Y-110399500D01*
X151691689Y-110405361D01*
X151622097Y-110399134D01*
X151566920Y-110356271D01*
X151545881Y-110307935D01*
X151526855Y-110212288D01*
X151519737Y-110176503D01*
X151506765Y-110145185D01*
X151459397Y-110030827D01*
X151459390Y-110030814D01*
X151371789Y-109899711D01*
X151371786Y-109899707D01*
X151260292Y-109788213D01*
X151260288Y-109788210D01*
X151129185Y-109700609D01*
X151129172Y-109700602D01*
X150983501Y-109640264D01*
X150983489Y-109640261D01*
X150828845Y-109609500D01*
X150828842Y-109609500D01*
X150671158Y-109609500D01*
X150671155Y-109609500D01*
X150516510Y-109640261D01*
X150516498Y-109640264D01*
X150370827Y-109700602D01*
X150370814Y-109700609D01*
X150239711Y-109788210D01*
X150239707Y-109788213D01*
X150128213Y-109899707D01*
X150128210Y-109899711D01*
X150040609Y-110030814D01*
X150040602Y-110030827D01*
X149980264Y-110176498D01*
X149980261Y-110176510D01*
X149949500Y-110331153D01*
X144419863Y-110331153D01*
X144359185Y-110290609D01*
X144359172Y-110290602D01*
X144213501Y-110230264D01*
X144213489Y-110230261D01*
X144058845Y-110199500D01*
X144058842Y-110199500D01*
X143901158Y-110199500D01*
X143901155Y-110199500D01*
X143746510Y-110230261D01*
X143746498Y-110230264D01*
X143600827Y-110290602D01*
X143600814Y-110290609D01*
X143469711Y-110378210D01*
X143469707Y-110378213D01*
X143358213Y-110489707D01*
X143358210Y-110489711D01*
X143270609Y-110620814D01*
X143270602Y-110620827D01*
X143210264Y-110766498D01*
X143210261Y-110766510D01*
X143179500Y-110921153D01*
X130754139Y-110921153D01*
X130751094Y-110911781D01*
X130654620Y-110722442D01*
X130529727Y-110550540D01*
X130529723Y-110550535D01*
X130379464Y-110400276D01*
X130379459Y-110400272D01*
X130207557Y-110275379D01*
X130018215Y-110178903D01*
X129816124Y-110113241D01*
X129750000Y-110102768D01*
X129750000Y-111150854D01*
X129683343Y-111112370D01*
X129562535Y-111080000D01*
X129437465Y-111080000D01*
X129316657Y-111112370D01*
X129250000Y-111150854D01*
X129250000Y-110102768D01*
X129249999Y-110102768D01*
X129183875Y-110113241D01*
X128981784Y-110178903D01*
X128792442Y-110275379D01*
X128620540Y-110400272D01*
X128620535Y-110400276D01*
X128470276Y-110550535D01*
X128470272Y-110550540D01*
X128350627Y-110715218D01*
X128295297Y-110757884D01*
X128225684Y-110763863D01*
X128163889Y-110731257D01*
X128149991Y-110715218D01*
X128030109Y-110550214D01*
X128030105Y-110550209D01*
X127879786Y-110399890D01*
X127707820Y-110274951D01*
X127518414Y-110178444D01*
X127518413Y-110178443D01*
X127518412Y-110178443D01*
X127316243Y-110112754D01*
X127316241Y-110112753D01*
X127316240Y-110112753D01*
X127154957Y-110087208D01*
X127106287Y-110079500D01*
X126893713Y-110079500D01*
X126845042Y-110087208D01*
X126683760Y-110112753D01*
X126481585Y-110178444D01*
X126292179Y-110274951D01*
X126120215Y-110399889D01*
X125981398Y-110538706D01*
X125920075Y-110572190D01*
X125850383Y-110567206D01*
X125794450Y-110525334D01*
X125788178Y-110516120D01*
X125692712Y-110361344D01*
X125568657Y-110237289D01*
X125568656Y-110237288D01*
X125470099Y-110176498D01*
X125419336Y-110145187D01*
X125419331Y-110145185D01*
X125417862Y-110144698D01*
X125252797Y-110090001D01*
X125252795Y-110090000D01*
X125150010Y-110079500D01*
X123849998Y-110079500D01*
X123849981Y-110079501D01*
X123747203Y-110090000D01*
X123747200Y-110090001D01*
X123580668Y-110145185D01*
X123580663Y-110145187D01*
X123431342Y-110237289D01*
X123307289Y-110361342D01*
X123215187Y-110510663D01*
X123215185Y-110510668D01*
X123196450Y-110567206D01*
X123160001Y-110677203D01*
X123160001Y-110677204D01*
X123160000Y-110677204D01*
X123149500Y-110779983D01*
X115000500Y-110779983D01*
X115000500Y-109123920D01*
X134509499Y-109123920D01*
X134538340Y-109268907D01*
X134538343Y-109268917D01*
X134594912Y-109405488D01*
X134594919Y-109405501D01*
X134677048Y-109528415D01*
X134677051Y-109528419D01*
X134781580Y-109632948D01*
X134781584Y-109632951D01*
X134904498Y-109715080D01*
X134904511Y-109715087D01*
X135041082Y-109771656D01*
X135041087Y-109771658D01*
X135041091Y-109771658D01*
X135041092Y-109771659D01*
X135186079Y-109800500D01*
X135186082Y-109800500D01*
X135333920Y-109800500D01*
X135431462Y-109781096D01*
X135478913Y-109771658D01*
X135615495Y-109715084D01*
X135738416Y-109632951D01*
X135842951Y-109528416D01*
X135925084Y-109405495D01*
X135981658Y-109268913D01*
X136010500Y-109123918D01*
X136010500Y-108976082D01*
X136010500Y-108976079D01*
X135981659Y-108831092D01*
X135981658Y-108831091D01*
X135981658Y-108831087D01*
X135961946Y-108783497D01*
X135925087Y-108694511D01*
X135925080Y-108694498D01*
X135842951Y-108571584D01*
X135842948Y-108571580D01*
X135738419Y-108467051D01*
X135738415Y-108467048D01*
X135615501Y-108384919D01*
X135615488Y-108384912D01*
X135478917Y-108328343D01*
X135478907Y-108328340D01*
X135333920Y-108299500D01*
X135333918Y-108299500D01*
X135186082Y-108299500D01*
X135186080Y-108299500D01*
X135041092Y-108328340D01*
X135041082Y-108328343D01*
X134904511Y-108384912D01*
X134904498Y-108384919D01*
X134781584Y-108467048D01*
X134781580Y-108467051D01*
X134677051Y-108571580D01*
X134677048Y-108571584D01*
X134594919Y-108694498D01*
X134594912Y-108694511D01*
X134538343Y-108831082D01*
X134538340Y-108831092D01*
X134509500Y-108976079D01*
X134509500Y-108976082D01*
X134509500Y-109123918D01*
X134509500Y-109123920D01*
X134509499Y-109123920D01*
X115000500Y-109123920D01*
X115000500Y-107898920D01*
X136759499Y-107898920D01*
X136788340Y-108043907D01*
X136788343Y-108043917D01*
X136844912Y-108180488D01*
X136844919Y-108180501D01*
X136927048Y-108303415D01*
X136927051Y-108303419D01*
X137031580Y-108407948D01*
X137031584Y-108407951D01*
X137154498Y-108490080D01*
X137154511Y-108490087D01*
X137291082Y-108546656D01*
X137291087Y-108546658D01*
X137291091Y-108546658D01*
X137291092Y-108546659D01*
X137436079Y-108575500D01*
X137436082Y-108575500D01*
X137583920Y-108575500D01*
X137681462Y-108556096D01*
X137728913Y-108546658D01*
X137865495Y-108490084D01*
X137988416Y-108407951D01*
X138092951Y-108303416D01*
X138175084Y-108180495D01*
X138187238Y-108151153D01*
X145029500Y-108151153D01*
X145029500Y-108308846D01*
X145060261Y-108463489D01*
X145060264Y-108463501D01*
X145120602Y-108609172D01*
X145120609Y-108609185D01*
X145208210Y-108740288D01*
X145208213Y-108740292D01*
X145319707Y-108851786D01*
X145319711Y-108851789D01*
X145450814Y-108939390D01*
X145450827Y-108939397D01*
X145539387Y-108976079D01*
X145596503Y-108999737D01*
X145751153Y-109030499D01*
X145751156Y-109030500D01*
X145751158Y-109030500D01*
X145908844Y-109030500D01*
X145908845Y-109030499D01*
X146063497Y-108999737D01*
X146209179Y-108939394D01*
X146340289Y-108851789D01*
X146451789Y-108740289D01*
X146539394Y-108609179D01*
X146596566Y-108471153D01*
X151049500Y-108471153D01*
X151049500Y-108628846D01*
X151080261Y-108783489D01*
X151080264Y-108783501D01*
X151140602Y-108929172D01*
X151140609Y-108929185D01*
X151228210Y-109060288D01*
X151228213Y-109060292D01*
X151339707Y-109171786D01*
X151339711Y-109171789D01*
X151470814Y-109259390D01*
X151470827Y-109259397D01*
X151616498Y-109319735D01*
X151616503Y-109319737D01*
X151771153Y-109350499D01*
X151771156Y-109350500D01*
X151771158Y-109350500D01*
X151928844Y-109350500D01*
X151928845Y-109350499D01*
X152083497Y-109319737D01*
X152229179Y-109259394D01*
X152360289Y-109171789D01*
X152471789Y-109060289D01*
X152559394Y-108929179D01*
X152619737Y-108783497D01*
X152650500Y-108628842D01*
X152650500Y-108471158D01*
X152650500Y-108471155D01*
X152650499Y-108471153D01*
X152646055Y-108448812D01*
X152619737Y-108316503D01*
X152616564Y-108308842D01*
X152559397Y-108170827D01*
X152559390Y-108170814D01*
X152471789Y-108039711D01*
X152471786Y-108039707D01*
X152360292Y-107928213D01*
X152360288Y-107928210D01*
X152229185Y-107840609D01*
X152229172Y-107840602D01*
X152083501Y-107780264D01*
X152083489Y-107780261D01*
X151928845Y-107749500D01*
X151928842Y-107749500D01*
X151771158Y-107749500D01*
X151771155Y-107749500D01*
X151616510Y-107780261D01*
X151616498Y-107780264D01*
X151470827Y-107840602D01*
X151470814Y-107840609D01*
X151339711Y-107928210D01*
X151339707Y-107928213D01*
X151228213Y-108039707D01*
X151228210Y-108039711D01*
X151140609Y-108170814D01*
X151140602Y-108170827D01*
X151080264Y-108316498D01*
X151080261Y-108316510D01*
X151049500Y-108471153D01*
X146596566Y-108471153D01*
X146599737Y-108463497D01*
X146599739Y-108463486D01*
X146600481Y-108461042D01*
X146601222Y-108459910D01*
X146602068Y-108457869D01*
X146602455Y-108458029D01*
X146604143Y-108455451D01*
X146604903Y-108448812D01*
X146623050Y-108426599D01*
X146638775Y-108402602D01*
X146645919Y-108398607D01*
X146649108Y-108394704D01*
X146664428Y-108388257D01*
X146680774Y-108379118D01*
X146687754Y-108376846D01*
X146723497Y-108369737D01*
X146869179Y-108309394D01*
X147000289Y-108221789D01*
X147111789Y-108110289D01*
X147199394Y-107979179D01*
X147259737Y-107833497D01*
X147290500Y-107678842D01*
X147290500Y-107521158D01*
X147290500Y-107521155D01*
X147290499Y-107521153D01*
X147280227Y-107469511D01*
X147259737Y-107366503D01*
X147240773Y-107320719D01*
X147199397Y-107220827D01*
X147199390Y-107220814D01*
X147111789Y-107089711D01*
X147111786Y-107089707D01*
X147000292Y-106978213D01*
X147000288Y-106978210D01*
X146869185Y-106890609D01*
X146869172Y-106890602D01*
X146723501Y-106830264D01*
X146723489Y-106830261D01*
X146568845Y-106799500D01*
X146568842Y-106799500D01*
X146411158Y-106799500D01*
X146411155Y-106799500D01*
X146256510Y-106830261D01*
X146256498Y-106830264D01*
X146110827Y-106890602D01*
X146110814Y-106890609D01*
X145979711Y-106978210D01*
X145979707Y-106978213D01*
X145868213Y-107089707D01*
X145868210Y-107089711D01*
X145780609Y-107220814D01*
X145780602Y-107220827D01*
X145720261Y-107366505D01*
X145719514Y-107368970D01*
X145718771Y-107370102D01*
X145717932Y-107372130D01*
X145717547Y-107371970D01*
X145681213Y-107427406D01*
X145625049Y-107454584D01*
X145596506Y-107460261D01*
X145596500Y-107460263D01*
X145450827Y-107520602D01*
X145450814Y-107520609D01*
X145319711Y-107608210D01*
X145319707Y-107608213D01*
X145208213Y-107719707D01*
X145208210Y-107719711D01*
X145120609Y-107850814D01*
X145120602Y-107850827D01*
X145060264Y-107996498D01*
X145060261Y-107996510D01*
X145029500Y-108151153D01*
X138187238Y-108151153D01*
X138231658Y-108043913D01*
X138254673Y-107928211D01*
X138260500Y-107898920D01*
X138260500Y-107751079D01*
X138231659Y-107606092D01*
X138231658Y-107606091D01*
X138231658Y-107606087D01*
X138231656Y-107606082D01*
X138175087Y-107469511D01*
X138175080Y-107469498D01*
X138092951Y-107346584D01*
X138092948Y-107346580D01*
X137988419Y-107242051D01*
X137988415Y-107242048D01*
X137865501Y-107159919D01*
X137865488Y-107159912D01*
X137728917Y-107103343D01*
X137728907Y-107103340D01*
X137583920Y-107074500D01*
X137583918Y-107074500D01*
X137436082Y-107074500D01*
X137436080Y-107074500D01*
X137291092Y-107103340D01*
X137291082Y-107103343D01*
X137154511Y-107159912D01*
X137154498Y-107159919D01*
X137031584Y-107242048D01*
X137031580Y-107242051D01*
X136927051Y-107346580D01*
X136927048Y-107346584D01*
X136844919Y-107469498D01*
X136844912Y-107469511D01*
X136788343Y-107606082D01*
X136788340Y-107606092D01*
X136759500Y-107751079D01*
X136759500Y-107751082D01*
X136759500Y-107898918D01*
X136759500Y-107898920D01*
X136759499Y-107898920D01*
X115000500Y-107898920D01*
X115000500Y-106273920D01*
X139449499Y-106273920D01*
X139478340Y-106418907D01*
X139478343Y-106418917D01*
X139534912Y-106555488D01*
X139534919Y-106555501D01*
X139617048Y-106678415D01*
X139617051Y-106678419D01*
X139721580Y-106782948D01*
X139721584Y-106782951D01*
X139844498Y-106865080D01*
X139844511Y-106865087D01*
X139981082Y-106921656D01*
X139981087Y-106921658D01*
X139981089Y-106921658D01*
X139981091Y-106921659D01*
X139982519Y-106921943D01*
X139983198Y-106922298D01*
X139986919Y-106923427D01*
X139986704Y-106924132D01*
X140044431Y-106954325D01*
X140061435Y-106974670D01*
X140130129Y-107077479D01*
X140234661Y-107182011D01*
X140234665Y-107182014D01*
X140357579Y-107264143D01*
X140357592Y-107264150D01*
X140494163Y-107320719D01*
X140494168Y-107320721D01*
X140494172Y-107320721D01*
X140494173Y-107320722D01*
X140639160Y-107349563D01*
X140639163Y-107349563D01*
X140787001Y-107349563D01*
X140884543Y-107330159D01*
X140931994Y-107320721D01*
X141068576Y-107264147D01*
X141191497Y-107182014D01*
X141296032Y-107077479D01*
X141378165Y-106954558D01*
X141434739Y-106817976D01*
X141444284Y-106769991D01*
X141463581Y-106672983D01*
X141463581Y-106525142D01*
X141434740Y-106380155D01*
X141434739Y-106380154D01*
X141434739Y-106380150D01*
X141426184Y-106359496D01*
X141378168Y-106243574D01*
X141378161Y-106243561D01*
X141330492Y-106172219D01*
X141296032Y-106120647D01*
X141296029Y-106120643D01*
X141245385Y-106069999D01*
X176726115Y-106069999D01*
X176726116Y-106070000D01*
X177478012Y-106070000D01*
X177460795Y-106079940D01*
X177404940Y-106135795D01*
X177365444Y-106204204D01*
X177345000Y-106280504D01*
X177345000Y-106359496D01*
X177365444Y-106435796D01*
X177404940Y-106504205D01*
X177460795Y-106560060D01*
X177478012Y-106570000D01*
X176726116Y-106570000D01*
X176731506Y-106597100D01*
X176731507Y-106597103D01*
X176803119Y-106769991D01*
X176803124Y-106770000D01*
X176907086Y-106925589D01*
X176907089Y-106925593D01*
X177039406Y-107057910D01*
X177039410Y-107057913D01*
X177194999Y-107161875D01*
X177195008Y-107161880D01*
X177367894Y-107233491D01*
X177367902Y-107233493D01*
X177551428Y-107269999D01*
X177551431Y-107270000D01*
X177945000Y-107270000D01*
X177945000Y-106620000D01*
X178445000Y-106620000D01*
X178445000Y-107270000D01*
X178838569Y-107270000D01*
X178838571Y-107269999D01*
X179022097Y-107233493D01*
X179022105Y-107233491D01*
X179194991Y-107161880D01*
X179195000Y-107161875D01*
X179350589Y-107057913D01*
X179350593Y-107057910D01*
X179482910Y-106925593D01*
X179482913Y-106925589D01*
X179586875Y-106770000D01*
X179586880Y-106769991D01*
X179658492Y-106597103D01*
X179658493Y-106597100D01*
X179663884Y-106570000D01*
X178911988Y-106570000D01*
X178929205Y-106560060D01*
X178985060Y-106504205D01*
X179024556Y-106435796D01*
X179045000Y-106359496D01*
X179045000Y-106280504D01*
X179024556Y-106204204D01*
X178985060Y-106135795D01*
X178929205Y-106079940D01*
X178911988Y-106070000D01*
X179663884Y-106070000D01*
X179663884Y-106069999D01*
X181046115Y-106069999D01*
X181046116Y-106070000D01*
X181798012Y-106070000D01*
X181780795Y-106079940D01*
X181724940Y-106135795D01*
X181685444Y-106204204D01*
X181665000Y-106280504D01*
X181665000Y-106359496D01*
X181685444Y-106435796D01*
X181724940Y-106504205D01*
X181780795Y-106560060D01*
X181798012Y-106570000D01*
X181046116Y-106570000D01*
X181051506Y-106597100D01*
X181051507Y-106597103D01*
X181123119Y-106769991D01*
X181123124Y-106770000D01*
X181227086Y-106925589D01*
X181227089Y-106925593D01*
X181359406Y-107057910D01*
X181359410Y-107057913D01*
X181514999Y-107161875D01*
X181515008Y-107161880D01*
X181687894Y-107233491D01*
X181687902Y-107233493D01*
X181871428Y-107269999D01*
X181871431Y-107270000D01*
X182115000Y-107270000D01*
X182115000Y-106620000D01*
X182615000Y-106620000D01*
X182615000Y-107270000D01*
X182858569Y-107270000D01*
X182858571Y-107269999D01*
X183042097Y-107233493D01*
X183042105Y-107233491D01*
X183214991Y-107161880D01*
X183215000Y-107161875D01*
X183370589Y-107057913D01*
X183370593Y-107057910D01*
X183502910Y-106925593D01*
X183502913Y-106925589D01*
X183606875Y-106770000D01*
X183606880Y-106769991D01*
X183678492Y-106597103D01*
X183678493Y-106597100D01*
X183683884Y-106570000D01*
X182931988Y-106570000D01*
X182949205Y-106560060D01*
X183005060Y-106504205D01*
X183044556Y-106435796D01*
X183065000Y-106359496D01*
X183065000Y-106280504D01*
X183044556Y-106204204D01*
X183005060Y-106135795D01*
X182949205Y-106079940D01*
X182931988Y-106070000D01*
X183683884Y-106070000D01*
X183683884Y-106069999D01*
X183678493Y-106042899D01*
X183678492Y-106042896D01*
X183606880Y-105870008D01*
X183606875Y-105869999D01*
X183502913Y-105714410D01*
X183502910Y-105714406D01*
X183370593Y-105582089D01*
X183370589Y-105582086D01*
X183215000Y-105478124D01*
X183214991Y-105478119D01*
X183042105Y-105406508D01*
X183042097Y-105406506D01*
X182858570Y-105370000D01*
X182615000Y-105370000D01*
X182615000Y-106020000D01*
X182115000Y-106020000D01*
X182115000Y-105370000D01*
X181871430Y-105370000D01*
X181687902Y-105406506D01*
X181687894Y-105406508D01*
X181515008Y-105478119D01*
X181514999Y-105478124D01*
X181359410Y-105582086D01*
X181359406Y-105582089D01*
X181227089Y-105714406D01*
X181227086Y-105714410D01*
X181123124Y-105869999D01*
X181123119Y-105870008D01*
X181051507Y-106042896D01*
X181051506Y-106042899D01*
X181046115Y-106069999D01*
X179663884Y-106069999D01*
X179658493Y-106042899D01*
X179658492Y-106042896D01*
X179586880Y-105870008D01*
X179586875Y-105869999D01*
X179482913Y-105714410D01*
X179482910Y-105714406D01*
X179350593Y-105582089D01*
X179350589Y-105582086D01*
X179195000Y-105478124D01*
X179194991Y-105478119D01*
X179022105Y-105406508D01*
X179022097Y-105406506D01*
X178838570Y-105370000D01*
X178445000Y-105370000D01*
X178445000Y-106020000D01*
X177945000Y-106020000D01*
X177945000Y-105370000D01*
X177551430Y-105370000D01*
X177367902Y-105406506D01*
X177367894Y-105406508D01*
X177195008Y-105478119D01*
X177194999Y-105478124D01*
X177039410Y-105582086D01*
X177039406Y-105582089D01*
X176907089Y-105714406D01*
X176907086Y-105714410D01*
X176803124Y-105869999D01*
X176803119Y-105870008D01*
X176731507Y-106042896D01*
X176731506Y-106042899D01*
X176726115Y-106069999D01*
X141245385Y-106069999D01*
X141191500Y-106016114D01*
X141191496Y-106016111D01*
X141068582Y-105933982D01*
X141068569Y-105933975D01*
X140931996Y-105877405D01*
X140931992Y-105877404D01*
X140930552Y-105877118D01*
X140929867Y-105876759D01*
X140926160Y-105875635D01*
X140926373Y-105874931D01*
X140868642Y-105844730D01*
X140851645Y-105824391D01*
X140782954Y-105721588D01*
X140782948Y-105721580D01*
X140678419Y-105617051D01*
X140678415Y-105617048D01*
X140555501Y-105534919D01*
X140555488Y-105534912D01*
X140418917Y-105478343D01*
X140418907Y-105478340D01*
X140273920Y-105449500D01*
X140273918Y-105449500D01*
X140126082Y-105449500D01*
X140126080Y-105449500D01*
X139981092Y-105478340D01*
X139981082Y-105478343D01*
X139844511Y-105534912D01*
X139844498Y-105534919D01*
X139721584Y-105617048D01*
X139721580Y-105617051D01*
X139617051Y-105721580D01*
X139617048Y-105721584D01*
X139534919Y-105844498D01*
X139534912Y-105844511D01*
X139478343Y-105981082D01*
X139478340Y-105981092D01*
X139449500Y-106126079D01*
X139449500Y-106126082D01*
X139449500Y-106273918D01*
X139449500Y-106273920D01*
X139449499Y-106273920D01*
X115000500Y-106273920D01*
X115000500Y-101599983D01*
X122944500Y-101599983D01*
X122944500Y-102900001D01*
X122944501Y-102900018D01*
X122955000Y-103002796D01*
X122955001Y-103002799D01*
X123010185Y-103169331D01*
X123010187Y-103169336D01*
X123031208Y-103203416D01*
X123102288Y-103318656D01*
X123226344Y-103442712D01*
X123340972Y-103513415D01*
X123381120Y-103538178D01*
X123427845Y-103590126D01*
X123439068Y-103659088D01*
X123411224Y-103723171D01*
X123403706Y-103731398D01*
X123264889Y-103870215D01*
X123139951Y-104042179D01*
X123043444Y-104231585D01*
X122977753Y-104433760D01*
X122944500Y-104643713D01*
X122944500Y-104856286D01*
X122977753Y-105066239D01*
X123043444Y-105268414D01*
X123139951Y-105457820D01*
X123264890Y-105629786D01*
X123415213Y-105780109D01*
X123587179Y-105905048D01*
X123587181Y-105905049D01*
X123587184Y-105905051D01*
X123776588Y-106001557D01*
X123978757Y-106067246D01*
X124188713Y-106100500D01*
X124188714Y-106100500D01*
X124701286Y-106100500D01*
X124701287Y-106100500D01*
X124911243Y-106067246D01*
X125113412Y-106001557D01*
X125302816Y-105905051D01*
X125351061Y-105869999D01*
X125474786Y-105780109D01*
X125474788Y-105780106D01*
X125474792Y-105780104D01*
X125625104Y-105629792D01*
X125625106Y-105629788D01*
X125625109Y-105629786D01*
X125750048Y-105457820D01*
X125750047Y-105457820D01*
X125750051Y-105457816D01*
X125846557Y-105268412D01*
X125912246Y-105066243D01*
X125945500Y-104856287D01*
X125945500Y-104643713D01*
X125912246Y-104433757D01*
X125846557Y-104231588D01*
X125750051Y-104042184D01*
X125750049Y-104042181D01*
X125750048Y-104042179D01*
X125625109Y-103870213D01*
X125486294Y-103731398D01*
X125452809Y-103670075D01*
X125457793Y-103600383D01*
X125499665Y-103544450D01*
X125508879Y-103538178D01*
X125514331Y-103534814D01*
X125514334Y-103534814D01*
X125663656Y-103442712D01*
X125787712Y-103318656D01*
X125879814Y-103169334D01*
X125934999Y-103002797D01*
X125945500Y-102900009D01*
X125945499Y-101599992D01*
X125934999Y-101497203D01*
X125879814Y-101330666D01*
X125787712Y-101181344D01*
X125663656Y-101057288D01*
X125514334Y-100965186D01*
X125347797Y-100910001D01*
X125347795Y-100910000D01*
X125245010Y-100899500D01*
X123644998Y-100899500D01*
X123644981Y-100899501D01*
X123542203Y-100910000D01*
X123542200Y-100910001D01*
X123375668Y-100965185D01*
X123375663Y-100965187D01*
X123226342Y-101057289D01*
X123102289Y-101181342D01*
X123010187Y-101330663D01*
X123010186Y-101330666D01*
X122955001Y-101497203D01*
X122955001Y-101497204D01*
X122955000Y-101497204D01*
X122944500Y-101599983D01*
X115000500Y-101599983D01*
X115000500Y-99691153D01*
X144719500Y-99691153D01*
X144719500Y-99848846D01*
X144750261Y-100003489D01*
X144750264Y-100003501D01*
X144810602Y-100149172D01*
X144810609Y-100149185D01*
X144898210Y-100280288D01*
X144898213Y-100280292D01*
X145009707Y-100391786D01*
X145009711Y-100391789D01*
X145140814Y-100479390D01*
X145140827Y-100479397D01*
X145258995Y-100528343D01*
X145286503Y-100539737D01*
X145441153Y-100570499D01*
X145441156Y-100570500D01*
X145441158Y-100570500D01*
X145598844Y-100570500D01*
X145598845Y-100570499D01*
X145753497Y-100539737D01*
X145874281Y-100489707D01*
X145899172Y-100479397D01*
X145899172Y-100479396D01*
X145899179Y-100479394D01*
X146030289Y-100391789D01*
X146141789Y-100280289D01*
X146229394Y-100149179D01*
X146268369Y-100055084D01*
X146312206Y-100000684D01*
X146378500Y-99978618D01*
X146446200Y-99995896D01*
X146493811Y-100047033D01*
X146497489Y-100055086D01*
X146540604Y-100159175D01*
X146540609Y-100159185D01*
X146628210Y-100290288D01*
X146628213Y-100290292D01*
X146739707Y-100401786D01*
X146739711Y-100401789D01*
X146870814Y-100489390D01*
X146870827Y-100489397D01*
X146964853Y-100528343D01*
X147016503Y-100549737D01*
X147016515Y-100549739D01*
X147021076Y-100551123D01*
X147079516Y-100589419D01*
X147106701Y-100645593D01*
X147110261Y-100663491D01*
X147110263Y-100663499D01*
X147170602Y-100809172D01*
X147170609Y-100809185D01*
X147258210Y-100940288D01*
X147258213Y-100940292D01*
X147369707Y-101051786D01*
X147369711Y-101051789D01*
X147500814Y-101139390D01*
X147500827Y-101139397D01*
X147589387Y-101176079D01*
X147646503Y-101199737D01*
X147801153Y-101230499D01*
X147801156Y-101230500D01*
X147865500Y-101230500D01*
X147932539Y-101250185D01*
X147978294Y-101302989D01*
X147989500Y-101354500D01*
X147989500Y-101358846D01*
X148020261Y-101513489D01*
X148020264Y-101513501D01*
X148080602Y-101659172D01*
X148080609Y-101659185D01*
X148168210Y-101790288D01*
X148168213Y-101790292D01*
X148253558Y-101875637D01*
X148287043Y-101936960D01*
X148282059Y-102006652D01*
X148240187Y-102062585D01*
X148234769Y-102066420D01*
X148121580Y-102142051D01*
X148017051Y-102246580D01*
X148017048Y-102246584D01*
X147934919Y-102369498D01*
X147934912Y-102369511D01*
X147878343Y-102506082D01*
X147878340Y-102506092D01*
X147849500Y-102651079D01*
X147849500Y-102651082D01*
X147849500Y-102798918D01*
X147849500Y-102798920D01*
X147849499Y-102798920D01*
X147878340Y-102943907D01*
X147878343Y-102943917D01*
X147934912Y-103080488D01*
X147934919Y-103080501D01*
X148009121Y-103191551D01*
X148029999Y-103258228D01*
X148027636Y-103284634D01*
X147999500Y-103426079D01*
X147999500Y-103426082D01*
X147999500Y-103573918D01*
X147999500Y-103573920D01*
X147999499Y-103573920D01*
X148028340Y-103718907D01*
X148028343Y-103718917D01*
X148084912Y-103855488D01*
X148084919Y-103855501D01*
X148167048Y-103978415D01*
X148167051Y-103978419D01*
X148271580Y-104082948D01*
X148271584Y-104082951D01*
X148394498Y-104165080D01*
X148394511Y-104165087D01*
X148499125Y-104208419D01*
X148531087Y-104221658D01*
X148531091Y-104221658D01*
X148531092Y-104221659D01*
X148676079Y-104250500D01*
X148676082Y-104250500D01*
X148823920Y-104250500D01*
X148921462Y-104231096D01*
X148968913Y-104221658D01*
X149105495Y-104165084D01*
X149228416Y-104082951D01*
X149332951Y-103978416D01*
X149415084Y-103855495D01*
X149471658Y-103718913D01*
X149494020Y-103606495D01*
X149500500Y-103573920D01*
X149500500Y-103426079D01*
X149471659Y-103281092D01*
X149471658Y-103281091D01*
X149471658Y-103281087D01*
X149460400Y-103253907D01*
X149415087Y-103144511D01*
X149415080Y-103144498D01*
X149391308Y-103108920D01*
X151424499Y-103108920D01*
X151453340Y-103253907D01*
X151453343Y-103253917D01*
X151509912Y-103390488D01*
X151509919Y-103390501D01*
X151592048Y-103513415D01*
X151592051Y-103513419D01*
X151600089Y-103521457D01*
X151633574Y-103582780D01*
X151634025Y-103633327D01*
X151629500Y-103656082D01*
X151629500Y-103803918D01*
X151629500Y-103803920D01*
X151629499Y-103803920D01*
X151658340Y-103948907D01*
X151658343Y-103948917D01*
X151714912Y-104085488D01*
X151714919Y-104085501D01*
X151797048Y-104208415D01*
X151797051Y-104208419D01*
X151901580Y-104312948D01*
X151901584Y-104312951D01*
X152024498Y-104395080D01*
X152024511Y-104395087D01*
X152117870Y-104433757D01*
X152161087Y-104451658D01*
X152161091Y-104451658D01*
X152161092Y-104451659D01*
X152306079Y-104480500D01*
X152306082Y-104480500D01*
X152453920Y-104480500D01*
X152551462Y-104461096D01*
X152598913Y-104451658D01*
X152735495Y-104395084D01*
X152858416Y-104312951D01*
X152962951Y-104208416D01*
X153045084Y-104085495D01*
X153101658Y-103948913D01*
X153111096Y-103901462D01*
X153130500Y-103803920D01*
X153130500Y-103656079D01*
X153101659Y-103511092D01*
X153101658Y-103511091D01*
X153101658Y-103511087D01*
X153051710Y-103390501D01*
X153045087Y-103374511D01*
X153045080Y-103374498D01*
X153011953Y-103324920D01*
X156179499Y-103324920D01*
X156208340Y-103469907D01*
X156208343Y-103469917D01*
X156264912Y-103606488D01*
X156264919Y-103606501D01*
X156347048Y-103729415D01*
X156347051Y-103729419D01*
X156451580Y-103833948D01*
X156451584Y-103833951D01*
X156574498Y-103916080D01*
X156574511Y-103916087D01*
X156711082Y-103972656D01*
X156711087Y-103972658D01*
X156711091Y-103972658D01*
X156711092Y-103972659D01*
X156856079Y-104001500D01*
X156856082Y-104001500D01*
X157003920Y-104001500D01*
X157119971Y-103978415D01*
X157148913Y-103972658D01*
X157285495Y-103916084D01*
X157408416Y-103833951D01*
X157512951Y-103729416D01*
X157595084Y-103606495D01*
X157599867Y-103594949D01*
X157633637Y-103513419D01*
X157651658Y-103469913D01*
X157661096Y-103422462D01*
X157680500Y-103324920D01*
X157680500Y-103177079D01*
X157651659Y-103032092D01*
X157651658Y-103032091D01*
X157651658Y-103032087D01*
X157628264Y-102975609D01*
X157595087Y-102895511D01*
X157595080Y-102895498D01*
X157512951Y-102772584D01*
X157512948Y-102772580D01*
X157408419Y-102668051D01*
X157408415Y-102668048D01*
X157285501Y-102585919D01*
X157285488Y-102585912D01*
X157148917Y-102529343D01*
X157148907Y-102529340D01*
X157003920Y-102500500D01*
X157003918Y-102500500D01*
X156856082Y-102500500D01*
X156856080Y-102500500D01*
X156711092Y-102529340D01*
X156711082Y-102529343D01*
X156574511Y-102585912D01*
X156574498Y-102585919D01*
X156451584Y-102668048D01*
X156451580Y-102668051D01*
X156347051Y-102772580D01*
X156347048Y-102772584D01*
X156264919Y-102895498D01*
X156264912Y-102895511D01*
X156208343Y-103032082D01*
X156208340Y-103032092D01*
X156179500Y-103177079D01*
X156179500Y-103177082D01*
X156179500Y-103324918D01*
X156179500Y-103324920D01*
X156179499Y-103324920D01*
X153011953Y-103324920D01*
X152963598Y-103252552D01*
X152963597Y-103252551D01*
X152962951Y-103251584D01*
X152954185Y-103242818D01*
X152953452Y-103242060D01*
X152937680Y-103211989D01*
X152921425Y-103182219D01*
X152921413Y-103180973D01*
X152921000Y-103180184D01*
X152921369Y-103176003D01*
X152920974Y-103131670D01*
X152925500Y-103108918D01*
X152925500Y-102961082D01*
X152925500Y-102961079D01*
X152896659Y-102816092D01*
X152896658Y-102816091D01*
X152896658Y-102816087D01*
X152892102Y-102805087D01*
X152840087Y-102679511D01*
X152840080Y-102679498D01*
X152757951Y-102556584D01*
X152757948Y-102556580D01*
X152653419Y-102452051D01*
X152653415Y-102452048D01*
X152530501Y-102369919D01*
X152530488Y-102369912D01*
X152393917Y-102313343D01*
X152393907Y-102313340D01*
X152248920Y-102284500D01*
X152248918Y-102284500D01*
X152101082Y-102284500D01*
X152101080Y-102284500D01*
X151956092Y-102313340D01*
X151956082Y-102313343D01*
X151819511Y-102369912D01*
X151819498Y-102369919D01*
X151696584Y-102452048D01*
X151696580Y-102452051D01*
X151592051Y-102556580D01*
X151592048Y-102556584D01*
X151509919Y-102679498D01*
X151509912Y-102679511D01*
X151453343Y-102816082D01*
X151453340Y-102816092D01*
X151424500Y-102961079D01*
X151424500Y-102961082D01*
X151424500Y-103108918D01*
X151424500Y-103108920D01*
X151424499Y-103108920D01*
X149391308Y-103108920D01*
X149340879Y-103033448D01*
X149331709Y-103004162D01*
X149320475Y-102975609D01*
X149320810Y-102969354D01*
X149320001Y-102966770D01*
X149322364Y-102940366D01*
X149324267Y-102930799D01*
X149324267Y-102930798D01*
X149350500Y-102798920D01*
X149350500Y-102651079D01*
X149321659Y-102506092D01*
X149321658Y-102506091D01*
X149321658Y-102506087D01*
X149299275Y-102452049D01*
X149265087Y-102369511D01*
X149265080Y-102369498D01*
X149182951Y-102246584D01*
X149182948Y-102246580D01*
X149128281Y-102191913D01*
X149094796Y-102130590D01*
X149099780Y-102060898D01*
X149141652Y-102004965D01*
X149163843Y-101992328D01*
X149163809Y-101992264D01*
X149166228Y-101990971D01*
X149168513Y-101989669D01*
X149169179Y-101989394D01*
X149300289Y-101901789D01*
X149411789Y-101790289D01*
X149499394Y-101659179D01*
X149534709Y-101573920D01*
X156049499Y-101573920D01*
X156078340Y-101718907D01*
X156078343Y-101718917D01*
X156134912Y-101855488D01*
X156134919Y-101855501D01*
X156217048Y-101978415D01*
X156217051Y-101978419D01*
X156321580Y-102082948D01*
X156321584Y-102082951D01*
X156444498Y-102165080D01*
X156444511Y-102165087D01*
X156581082Y-102221656D01*
X156581087Y-102221658D01*
X156581091Y-102221658D01*
X156581092Y-102221659D01*
X156726079Y-102250500D01*
X156726082Y-102250500D01*
X156873920Y-102250500D01*
X156971462Y-102231096D01*
X157018913Y-102221658D01*
X157155495Y-102165084D01*
X157278416Y-102082951D01*
X157382951Y-101978416D01*
X157465084Y-101855495D01*
X157521658Y-101718913D01*
X157545312Y-101600000D01*
X157550500Y-101573920D01*
X157550500Y-101426079D01*
X157521659Y-101281092D01*
X157521658Y-101281091D01*
X157521658Y-101281087D01*
X157501946Y-101233497D01*
X157465087Y-101144511D01*
X157465080Y-101144498D01*
X157382951Y-101021584D01*
X157382948Y-101021580D01*
X157278419Y-100917051D01*
X157278415Y-100917048D01*
X157155501Y-100834919D01*
X157155488Y-100834912D01*
X157018917Y-100778343D01*
X157018907Y-100778340D01*
X156873920Y-100749500D01*
X156873918Y-100749500D01*
X156726082Y-100749500D01*
X156726080Y-100749500D01*
X156581092Y-100778340D01*
X156581082Y-100778343D01*
X156444511Y-100834912D01*
X156444498Y-100834919D01*
X156321584Y-100917048D01*
X156321580Y-100917051D01*
X156217051Y-101021580D01*
X156217048Y-101021584D01*
X156134919Y-101144498D01*
X156134912Y-101144511D01*
X156078343Y-101281082D01*
X156078340Y-101281092D01*
X156049500Y-101426079D01*
X156049500Y-101426082D01*
X156049500Y-101573918D01*
X156049500Y-101573920D01*
X156049499Y-101573920D01*
X149534709Y-101573920D01*
X149559737Y-101513497D01*
X149586233Y-101380291D01*
X149590500Y-101358843D01*
X149590500Y-101201155D01*
X149590499Y-101201153D01*
X149579231Y-101144505D01*
X149559737Y-101046503D01*
X149553352Y-101031087D01*
X149499397Y-100900827D01*
X149499390Y-100900814D01*
X149411789Y-100769711D01*
X149411786Y-100769707D01*
X149300292Y-100658213D01*
X149300288Y-100658210D01*
X149169185Y-100570609D01*
X149169172Y-100570602D01*
X149023501Y-100510264D01*
X149023489Y-100510261D01*
X148868845Y-100479500D01*
X148868842Y-100479500D01*
X148804500Y-100479500D01*
X148737461Y-100459815D01*
X148691706Y-100407011D01*
X148680500Y-100355500D01*
X148680500Y-100351155D01*
X148680499Y-100351153D01*
X148673307Y-100314999D01*
X148649737Y-100196503D01*
X148642558Y-100179172D01*
X148589397Y-100050827D01*
X148589390Y-100050814D01*
X148501789Y-99919711D01*
X148501786Y-99919707D01*
X148390292Y-99808213D01*
X148390288Y-99808210D01*
X148294072Y-99743920D01*
X152009499Y-99743920D01*
X152038340Y-99888907D01*
X152038343Y-99888917D01*
X152094912Y-100025488D01*
X152094919Y-100025501D01*
X152177048Y-100148415D01*
X152177051Y-100148419D01*
X152281580Y-100252948D01*
X152281584Y-100252951D01*
X152404498Y-100335080D01*
X152404511Y-100335087D01*
X152497592Y-100373642D01*
X152541087Y-100391658D01*
X152541091Y-100391658D01*
X152541092Y-100391659D01*
X152686079Y-100420500D01*
X152686082Y-100420500D01*
X152833920Y-100420500D01*
X152936976Y-100400000D01*
X152978913Y-100391658D01*
X153115495Y-100335084D01*
X153238416Y-100252951D01*
X153342951Y-100148416D01*
X153425084Y-100025495D01*
X153481658Y-99888913D01*
X153510500Y-99743918D01*
X153510500Y-99721153D01*
X162399500Y-99721153D01*
X162399500Y-99878846D01*
X162430261Y-100033489D01*
X162430264Y-100033501D01*
X162490602Y-100179172D01*
X162490609Y-100179185D01*
X162578210Y-100310288D01*
X162578213Y-100310292D01*
X162580240Y-100312319D01*
X162580962Y-100313642D01*
X162582076Y-100314999D01*
X162581818Y-100315210D01*
X162613725Y-100373642D01*
X162608741Y-100443334D01*
X162582001Y-100484939D01*
X162582076Y-100485001D01*
X162581552Y-100485639D01*
X162580240Y-100487681D01*
X162578213Y-100489707D01*
X162578210Y-100489711D01*
X162490609Y-100620814D01*
X162490602Y-100620827D01*
X162430264Y-100766498D01*
X162430261Y-100766510D01*
X162399500Y-100921153D01*
X162399500Y-101078846D01*
X162430261Y-101233489D01*
X162430264Y-101233501D01*
X162490602Y-101379172D01*
X162490609Y-101379185D01*
X162578210Y-101510288D01*
X162578213Y-101510292D01*
X162580240Y-101512319D01*
X162580962Y-101513642D01*
X162582076Y-101514999D01*
X162581818Y-101515210D01*
X162613725Y-101573642D01*
X162608741Y-101643334D01*
X162582001Y-101684939D01*
X162582076Y-101685001D01*
X162581552Y-101685639D01*
X162580240Y-101687681D01*
X162578213Y-101689707D01*
X162578210Y-101689711D01*
X162490609Y-101820814D01*
X162490602Y-101820827D01*
X162430264Y-101966498D01*
X162430261Y-101966510D01*
X162399500Y-102121153D01*
X162399500Y-102278846D01*
X162430261Y-102433489D01*
X162430264Y-102433501D01*
X162490602Y-102579172D01*
X162490609Y-102579185D01*
X162578210Y-102710288D01*
X162578213Y-102710292D01*
X162689707Y-102821786D01*
X162689711Y-102821789D01*
X162820814Y-102909390D01*
X162820827Y-102909397D01*
X162959340Y-102966770D01*
X162966503Y-102969737D01*
X163121153Y-103000499D01*
X163121156Y-103000500D01*
X163121158Y-103000500D01*
X163278844Y-103000500D01*
X163278845Y-103000499D01*
X163433497Y-102969737D01*
X163579179Y-102909394D01*
X163710289Y-102821789D01*
X163821789Y-102710289D01*
X163909394Y-102579179D01*
X163969737Y-102433497D01*
X164000500Y-102278842D01*
X164000500Y-102213920D01*
X175409499Y-102213920D01*
X175438340Y-102358907D01*
X175438343Y-102358917D01*
X175494912Y-102495488D01*
X175494919Y-102495501D01*
X175577048Y-102618415D01*
X175577051Y-102618419D01*
X175681580Y-102722948D01*
X175681584Y-102722951D01*
X175804498Y-102805080D01*
X175804511Y-102805087D01*
X175941082Y-102861656D01*
X175941087Y-102861658D01*
X175941091Y-102861658D01*
X175941092Y-102861659D01*
X176086079Y-102890500D01*
X176086082Y-102890500D01*
X176233920Y-102890500D01*
X176331462Y-102871096D01*
X176378913Y-102861658D01*
X176515495Y-102805084D01*
X176638416Y-102722951D01*
X176742951Y-102618416D01*
X176825084Y-102495495D01*
X176881658Y-102358913D01*
X176897585Y-102278844D01*
X176910500Y-102213920D01*
X176910500Y-102066079D01*
X176881659Y-101921092D01*
X176881658Y-101921091D01*
X176881658Y-101921087D01*
X176863168Y-101876450D01*
X176855700Y-101806981D01*
X176886975Y-101744502D01*
X176890001Y-101741365D01*
X176902951Y-101728416D01*
X176985084Y-101605495D01*
X177041658Y-101468913D01*
X177056202Y-101395797D01*
X177070500Y-101323920D01*
X177070500Y-101176079D01*
X177041659Y-101031092D01*
X177041658Y-101031091D01*
X177041658Y-101031087D01*
X177037720Y-101021580D01*
X176985087Y-100894511D01*
X176985080Y-100894498D01*
X176902951Y-100771584D01*
X176902948Y-100771580D01*
X176798419Y-100667051D01*
X176798415Y-100667048D01*
X176675501Y-100584919D01*
X176675488Y-100584912D01*
X176538917Y-100528343D01*
X176538907Y-100528340D01*
X176393920Y-100499500D01*
X176393918Y-100499500D01*
X176246082Y-100499500D01*
X176246080Y-100499500D01*
X176101092Y-100528340D01*
X176101082Y-100528343D01*
X175964511Y-100584912D01*
X175964498Y-100584919D01*
X175841584Y-100667048D01*
X175841580Y-100667051D01*
X175737051Y-100771580D01*
X175737048Y-100771584D01*
X175654919Y-100894498D01*
X175654912Y-100894511D01*
X175598343Y-101031082D01*
X175598340Y-101031092D01*
X175569500Y-101176079D01*
X175569500Y-101176082D01*
X175569500Y-101323918D01*
X175569500Y-101323920D01*
X175569499Y-101323920D01*
X175598340Y-101468907D01*
X175598341Y-101468908D01*
X175598342Y-101468913D01*
X175616806Y-101513489D01*
X175616831Y-101513549D01*
X175624299Y-101583019D01*
X175593023Y-101645498D01*
X175589953Y-101648680D01*
X175577046Y-101661587D01*
X175494919Y-101784498D01*
X175494912Y-101784511D01*
X175438343Y-101921082D01*
X175438340Y-101921092D01*
X175409500Y-102066079D01*
X175409500Y-102066082D01*
X175409500Y-102213918D01*
X175409500Y-102213920D01*
X175409499Y-102213920D01*
X164000500Y-102213920D01*
X164000500Y-102121158D01*
X163988513Y-102060898D01*
X163977723Y-102006652D01*
X163969737Y-101966503D01*
X163957500Y-101936960D01*
X163909397Y-101820827D01*
X163909390Y-101820814D01*
X163821789Y-101689711D01*
X163819766Y-101687688D01*
X163819043Y-101686365D01*
X163817924Y-101685001D01*
X163818182Y-101684788D01*
X163786276Y-101626368D01*
X163791255Y-101556676D01*
X163817999Y-101515060D01*
X163817924Y-101514999D01*
X163818454Y-101514351D01*
X163819766Y-101512312D01*
X163821789Y-101510289D01*
X163909394Y-101379179D01*
X163969737Y-101233497D01*
X164000500Y-101078842D01*
X164000500Y-100921158D01*
X164000500Y-100921155D01*
X164000499Y-100921153D01*
X163998281Y-100910001D01*
X163969737Y-100766503D01*
X163927071Y-100663497D01*
X163909397Y-100620827D01*
X163909390Y-100620814D01*
X163821789Y-100489711D01*
X163819766Y-100487688D01*
X163819043Y-100486365D01*
X163817924Y-100485001D01*
X163818182Y-100484788D01*
X163786276Y-100426368D01*
X163791255Y-100356676D01*
X163817999Y-100315060D01*
X163817924Y-100314999D01*
X163818454Y-100314351D01*
X163819766Y-100312312D01*
X163821789Y-100310289D01*
X163909394Y-100179179D01*
X163969737Y-100033497D01*
X164000500Y-99878842D01*
X164000500Y-99721158D01*
X164000500Y-99721155D01*
X164000499Y-99721153D01*
X163988387Y-99660263D01*
X163969737Y-99566503D01*
X163961453Y-99546503D01*
X163909397Y-99420827D01*
X163909390Y-99420814D01*
X163821789Y-99289711D01*
X163821786Y-99289707D01*
X163710292Y-99178213D01*
X163710288Y-99178210D01*
X163579185Y-99090609D01*
X163579172Y-99090602D01*
X163433501Y-99030264D01*
X163433489Y-99030261D01*
X163278845Y-98999500D01*
X163278842Y-98999500D01*
X163121158Y-98999500D01*
X163121155Y-98999500D01*
X162966510Y-99030261D01*
X162966498Y-99030264D01*
X162820827Y-99090602D01*
X162820814Y-99090609D01*
X162689711Y-99178210D01*
X162689707Y-99178213D01*
X162578213Y-99289707D01*
X162578210Y-99289711D01*
X162490609Y-99420814D01*
X162490602Y-99420827D01*
X162430264Y-99566498D01*
X162430261Y-99566510D01*
X162399500Y-99721153D01*
X153510500Y-99721153D01*
X153510500Y-99596082D01*
X153510500Y-99596079D01*
X153481659Y-99451092D01*
X153481658Y-99451091D01*
X153481658Y-99451087D01*
X153469124Y-99420827D01*
X153425087Y-99314511D01*
X153425080Y-99314498D01*
X153342951Y-99191584D01*
X153342948Y-99191580D01*
X153238419Y-99087051D01*
X153238415Y-99087048D01*
X153115501Y-99004919D01*
X153115488Y-99004912D01*
X152978917Y-98948343D01*
X152978907Y-98948340D01*
X152833920Y-98919500D01*
X152833918Y-98919500D01*
X152686082Y-98919500D01*
X152686080Y-98919500D01*
X152541092Y-98948340D01*
X152541082Y-98948343D01*
X152404511Y-99004912D01*
X152404498Y-99004919D01*
X152281584Y-99087048D01*
X152281580Y-99087051D01*
X152177051Y-99191580D01*
X152177048Y-99191584D01*
X152094919Y-99314498D01*
X152094912Y-99314511D01*
X152038343Y-99451082D01*
X152038340Y-99451092D01*
X152009500Y-99596079D01*
X152009500Y-99596082D01*
X152009500Y-99743918D01*
X152009500Y-99743920D01*
X152009499Y-99743920D01*
X148294072Y-99743920D01*
X148259185Y-99720609D01*
X148259172Y-99720602D01*
X148220969Y-99704778D01*
X148220860Y-99704733D01*
X148113497Y-99660263D01*
X148108605Y-99659290D01*
X148098384Y-99655152D01*
X148075203Y-99636777D01*
X148050473Y-99620567D01*
X148047809Y-99615061D01*
X148043630Y-99611749D01*
X148037433Y-99593619D01*
X148023297Y-99564404D01*
X148019737Y-99546503D01*
X148001703Y-99502965D01*
X147959397Y-99400827D01*
X147959390Y-99400814D01*
X147871789Y-99269711D01*
X147871786Y-99269707D01*
X147760292Y-99158213D01*
X147760288Y-99158210D01*
X147629185Y-99070609D01*
X147629172Y-99070602D01*
X147483501Y-99010264D01*
X147483489Y-99010261D01*
X147328845Y-98979500D01*
X147328842Y-98979500D01*
X147171158Y-98979500D01*
X147171155Y-98979500D01*
X147016510Y-99010261D01*
X147016498Y-99010264D01*
X146870827Y-99070602D01*
X146870814Y-99070609D01*
X146739711Y-99158210D01*
X146739707Y-99158213D01*
X146628213Y-99269707D01*
X146628210Y-99269711D01*
X146540609Y-99400814D01*
X146540602Y-99400827D01*
X146501632Y-99494912D01*
X146457791Y-99549316D01*
X146391497Y-99571381D01*
X146323798Y-99554102D01*
X146276187Y-99502965D01*
X146272510Y-99494912D01*
X146229397Y-99390827D01*
X146229390Y-99390814D01*
X146141789Y-99259711D01*
X146141786Y-99259707D01*
X146030292Y-99148213D01*
X146030288Y-99148210D01*
X145899185Y-99060609D01*
X145899172Y-99060602D01*
X145753501Y-99000264D01*
X145753489Y-99000261D01*
X145598845Y-98969500D01*
X145598842Y-98969500D01*
X145441158Y-98969500D01*
X145441155Y-98969500D01*
X145286510Y-99000261D01*
X145286498Y-99000264D01*
X145140827Y-99060602D01*
X145140814Y-99060609D01*
X145009711Y-99148210D01*
X145009707Y-99148213D01*
X144898213Y-99259707D01*
X144898210Y-99259711D01*
X144810609Y-99390814D01*
X144810602Y-99390827D01*
X144750264Y-99536498D01*
X144750261Y-99536510D01*
X144719500Y-99691153D01*
X115000500Y-99691153D01*
X115000500Y-97757814D01*
X138600500Y-97757814D01*
X138629341Y-97902801D01*
X138629344Y-97902811D01*
X138685913Y-98039382D01*
X138685920Y-98039395D01*
X138768049Y-98162309D01*
X138768052Y-98162313D01*
X138872581Y-98266842D01*
X138872585Y-98266845D01*
X138995499Y-98348974D01*
X138995512Y-98348981D01*
X139132083Y-98405550D01*
X139132088Y-98405552D01*
X139132092Y-98405552D01*
X139132093Y-98405553D01*
X139277080Y-98434394D01*
X139277083Y-98434394D01*
X139424921Y-98434394D01*
X139522463Y-98414990D01*
X139569914Y-98405552D01*
X139706496Y-98348978D01*
X139829417Y-98266845D01*
X139933952Y-98162310D01*
X140016085Y-98039389D01*
X140072659Y-97902807D01*
X140088119Y-97825087D01*
X140101501Y-97757814D01*
X140101501Y-97609973D01*
X140072660Y-97464986D01*
X140072659Y-97464985D01*
X140072659Y-97464981D01*
X140062287Y-97439940D01*
X140016088Y-97328405D01*
X140016081Y-97328392D01*
X139952956Y-97233920D01*
X148209499Y-97233920D01*
X148238340Y-97378907D01*
X148238343Y-97378917D01*
X148294912Y-97515488D01*
X148294919Y-97515501D01*
X148377048Y-97638415D01*
X148377051Y-97638419D01*
X148481580Y-97742948D01*
X148481584Y-97742951D01*
X148604498Y-97825080D01*
X148604511Y-97825087D01*
X148741082Y-97881656D01*
X148741087Y-97881658D01*
X148741091Y-97881658D01*
X148741092Y-97881659D01*
X148886079Y-97910500D01*
X148886082Y-97910500D01*
X149033920Y-97910500D01*
X149131462Y-97891096D01*
X149178913Y-97881658D01*
X149315495Y-97825084D01*
X149359328Y-97795796D01*
X149362660Y-97793570D01*
X149397664Y-97770180D01*
X149438416Y-97742951D01*
X149542951Y-97638416D01*
X149625084Y-97515495D01*
X149660498Y-97429999D01*
X176726115Y-97429999D01*
X176726116Y-97430000D01*
X177478012Y-97430000D01*
X177460795Y-97439940D01*
X177404940Y-97495795D01*
X177365444Y-97564204D01*
X177345000Y-97640504D01*
X177345000Y-97719496D01*
X177365444Y-97795796D01*
X177404940Y-97864205D01*
X177460795Y-97920060D01*
X177478012Y-97930000D01*
X176726116Y-97930000D01*
X176731506Y-97957100D01*
X176731507Y-97957103D01*
X176803119Y-98129991D01*
X176803124Y-98130000D01*
X176907086Y-98285589D01*
X176907089Y-98285593D01*
X177039406Y-98417910D01*
X177039410Y-98417913D01*
X177194999Y-98521875D01*
X177195008Y-98521880D01*
X177367894Y-98593491D01*
X177367902Y-98593493D01*
X177551428Y-98629999D01*
X177551431Y-98630000D01*
X177945000Y-98630000D01*
X177945000Y-97980000D01*
X178445000Y-97980000D01*
X178445000Y-98630000D01*
X178838569Y-98630000D01*
X178838571Y-98629999D01*
X179022097Y-98593493D01*
X179022105Y-98593491D01*
X179194991Y-98521880D01*
X179195000Y-98521875D01*
X179350589Y-98417913D01*
X179350593Y-98417910D01*
X179482910Y-98285593D01*
X179482913Y-98285589D01*
X179586875Y-98130000D01*
X179586880Y-98129991D01*
X179658492Y-97957103D01*
X179658493Y-97957100D01*
X179663884Y-97930000D01*
X178911988Y-97930000D01*
X178929205Y-97920060D01*
X178985060Y-97864205D01*
X179024556Y-97795796D01*
X179045000Y-97719496D01*
X179045000Y-97640504D01*
X179024556Y-97564204D01*
X178985060Y-97495795D01*
X178929205Y-97439940D01*
X178911988Y-97430000D01*
X179663884Y-97430000D01*
X179663884Y-97429999D01*
X181046115Y-97429999D01*
X181046116Y-97430000D01*
X181798012Y-97430000D01*
X181780795Y-97439940D01*
X181724940Y-97495795D01*
X181685444Y-97564204D01*
X181665000Y-97640504D01*
X181665000Y-97719496D01*
X181685444Y-97795796D01*
X181724940Y-97864205D01*
X181780795Y-97920060D01*
X181798012Y-97930000D01*
X181046116Y-97930000D01*
X181051506Y-97957100D01*
X181051507Y-97957103D01*
X181123119Y-98129991D01*
X181123124Y-98130000D01*
X181227086Y-98285589D01*
X181227089Y-98285593D01*
X181359406Y-98417910D01*
X181359410Y-98417913D01*
X181514999Y-98521875D01*
X181515008Y-98521880D01*
X181687894Y-98593491D01*
X181687902Y-98593493D01*
X181871428Y-98629999D01*
X181871431Y-98630000D01*
X182115000Y-98630000D01*
X182115000Y-97980000D01*
X182615000Y-97980000D01*
X182615000Y-98630000D01*
X182858569Y-98630000D01*
X182858571Y-98629999D01*
X183042097Y-98593493D01*
X183042105Y-98593491D01*
X183214991Y-98521880D01*
X183215000Y-98521875D01*
X183370589Y-98417913D01*
X183370593Y-98417910D01*
X183502910Y-98285593D01*
X183502913Y-98285589D01*
X183606875Y-98130000D01*
X183606880Y-98129991D01*
X183678492Y-97957103D01*
X183678493Y-97957100D01*
X183683884Y-97930000D01*
X182931988Y-97930000D01*
X182949205Y-97920060D01*
X183005060Y-97864205D01*
X183044556Y-97795796D01*
X183065000Y-97719496D01*
X183065000Y-97640504D01*
X183044556Y-97564204D01*
X183005060Y-97495795D01*
X182949205Y-97439940D01*
X182931988Y-97430000D01*
X183683884Y-97430000D01*
X183683884Y-97429999D01*
X183678493Y-97402899D01*
X183678492Y-97402896D01*
X183606880Y-97230008D01*
X183606875Y-97229999D01*
X183502913Y-97074410D01*
X183502910Y-97074406D01*
X183370593Y-96942089D01*
X183370589Y-96942086D01*
X183215000Y-96838124D01*
X183214991Y-96838119D01*
X183042105Y-96766508D01*
X183042097Y-96766506D01*
X182858570Y-96730000D01*
X182615000Y-96730000D01*
X182615000Y-97380000D01*
X182115000Y-97380000D01*
X182115000Y-96730000D01*
X181871430Y-96730000D01*
X181687902Y-96766506D01*
X181687894Y-96766508D01*
X181515008Y-96838119D01*
X181514999Y-96838124D01*
X181359410Y-96942086D01*
X181359406Y-96942089D01*
X181227089Y-97074406D01*
X181227086Y-97074410D01*
X181123124Y-97229999D01*
X181123119Y-97230008D01*
X181051507Y-97402896D01*
X181051506Y-97402899D01*
X181046115Y-97429999D01*
X179663884Y-97429999D01*
X179658493Y-97402899D01*
X179658492Y-97402896D01*
X179586880Y-97230008D01*
X179586875Y-97229999D01*
X179482913Y-97074410D01*
X179482910Y-97074406D01*
X179350593Y-96942089D01*
X179350589Y-96942086D01*
X179195000Y-96838124D01*
X179194991Y-96838119D01*
X179022105Y-96766508D01*
X179022097Y-96766506D01*
X178838570Y-96730000D01*
X178445000Y-96730000D01*
X178445000Y-97380000D01*
X177945000Y-97380000D01*
X177945000Y-96730000D01*
X177551430Y-96730000D01*
X177367902Y-96766506D01*
X177367894Y-96766508D01*
X177195008Y-96838119D01*
X177194999Y-96838124D01*
X177039410Y-96942086D01*
X177039406Y-96942089D01*
X176907089Y-97074406D01*
X176907086Y-97074410D01*
X176803124Y-97229999D01*
X176803119Y-97230008D01*
X176731507Y-97402896D01*
X176731506Y-97402899D01*
X176726115Y-97429999D01*
X149660498Y-97429999D01*
X149681658Y-97378913D01*
X149705157Y-97260776D01*
X149706029Y-97257402D01*
X149722225Y-97230282D01*
X149736857Y-97202311D01*
X149739999Y-97200521D01*
X149741854Y-97197416D01*
X149770138Y-97183359D01*
X149797572Y-97167737D01*
X149801182Y-97167930D01*
X149804423Y-97166320D01*
X149835813Y-97169786D01*
X149867342Y-97171476D01*
X149871935Y-97173775D01*
X149873871Y-97173989D01*
X149876307Y-97175963D01*
X149894980Y-97185311D01*
X149954498Y-97225080D01*
X149954511Y-97225087D01*
X150091082Y-97281656D01*
X150091087Y-97281658D01*
X150091091Y-97281658D01*
X150091092Y-97281659D01*
X150236079Y-97310500D01*
X150236082Y-97310500D01*
X150383920Y-97310500D01*
X150481462Y-97291096D01*
X150528913Y-97281658D01*
X150652946Y-97230282D01*
X150665488Y-97225087D01*
X150665488Y-97225086D01*
X150665495Y-97225084D01*
X150788416Y-97142951D01*
X150892951Y-97038416D01*
X150975084Y-96915495D01*
X151031658Y-96778913D01*
X151041388Y-96730000D01*
X151060500Y-96633920D01*
X151060500Y-96486079D01*
X151031659Y-96341092D01*
X151031658Y-96341091D01*
X151031658Y-96341087D01*
X151006398Y-96280104D01*
X150975087Y-96204511D01*
X150975080Y-96204498D01*
X150892951Y-96081584D01*
X150892948Y-96081580D01*
X150788419Y-95977051D01*
X150788415Y-95977048D01*
X150665501Y-95894919D01*
X150665488Y-95894912D01*
X150528917Y-95838343D01*
X150528907Y-95838340D01*
X150383920Y-95809500D01*
X150383918Y-95809500D01*
X150236082Y-95809500D01*
X150236080Y-95809500D01*
X150091092Y-95838340D01*
X150091082Y-95838343D01*
X149954511Y-95894912D01*
X149954498Y-95894919D01*
X149831584Y-95977048D01*
X149831580Y-95977051D01*
X149727051Y-96081580D01*
X149727048Y-96081584D01*
X149644919Y-96204498D01*
X149644912Y-96204511D01*
X149588343Y-96341082D01*
X149588340Y-96341092D01*
X149565527Y-96455778D01*
X149533141Y-96517689D01*
X149472425Y-96552263D01*
X149402656Y-96548522D01*
X149375019Y-96534688D01*
X149315501Y-96494919D01*
X149315488Y-96494912D01*
X149178917Y-96438343D01*
X149178907Y-96438340D01*
X149033920Y-96409500D01*
X149033918Y-96409500D01*
X148886082Y-96409500D01*
X148886080Y-96409500D01*
X148741092Y-96438340D01*
X148741082Y-96438343D01*
X148604511Y-96494912D01*
X148604498Y-96494919D01*
X148481584Y-96577048D01*
X148481580Y-96577051D01*
X148377051Y-96681580D01*
X148377048Y-96681584D01*
X148294919Y-96804498D01*
X148294912Y-96804511D01*
X148238343Y-96941082D01*
X148238340Y-96941092D01*
X148209500Y-97086079D01*
X148209500Y-97086082D01*
X148209500Y-97233918D01*
X148209500Y-97233920D01*
X148209499Y-97233920D01*
X139952956Y-97233920D01*
X139933952Y-97205478D01*
X139933949Y-97205474D01*
X139829420Y-97100945D01*
X139829416Y-97100942D01*
X139706502Y-97018813D01*
X139706489Y-97018806D01*
X139569918Y-96962237D01*
X139569908Y-96962234D01*
X139424921Y-96933394D01*
X139424919Y-96933394D01*
X139277083Y-96933394D01*
X139277081Y-96933394D01*
X139132093Y-96962234D01*
X139132083Y-96962237D01*
X138995512Y-97018806D01*
X138995499Y-97018813D01*
X138872585Y-97100942D01*
X138872581Y-97100945D01*
X138768052Y-97205474D01*
X138768049Y-97205478D01*
X138685920Y-97328392D01*
X138685913Y-97328405D01*
X138629344Y-97464976D01*
X138629341Y-97464986D01*
X138600501Y-97609973D01*
X138600501Y-97609976D01*
X138600501Y-97757812D01*
X138600501Y-97757814D01*
X138600500Y-97757814D01*
X115000500Y-97757814D01*
X115000500Y-92099983D01*
X122944500Y-92099983D01*
X122944500Y-93400001D01*
X122944501Y-93400018D01*
X122955000Y-93502796D01*
X122955001Y-93502799D01*
X123010185Y-93669331D01*
X123010187Y-93669336D01*
X123102289Y-93818657D01*
X123226344Y-93942712D01*
X123381120Y-94038178D01*
X123427845Y-94090126D01*
X123439068Y-94159088D01*
X123411224Y-94223171D01*
X123403706Y-94231398D01*
X123264889Y-94370215D01*
X123139951Y-94542179D01*
X123043444Y-94731585D01*
X122977753Y-94933760D01*
X122944500Y-95143713D01*
X122944500Y-95356287D01*
X122947558Y-95375592D01*
X122977753Y-95566239D01*
X123043444Y-95768414D01*
X123139951Y-95957820D01*
X123264890Y-96129786D01*
X123415213Y-96280109D01*
X123587179Y-96405048D01*
X123587181Y-96405049D01*
X123587184Y-96405051D01*
X123776588Y-96501557D01*
X123978757Y-96567246D01*
X124188713Y-96600500D01*
X124188714Y-96600500D01*
X124701286Y-96600500D01*
X124701287Y-96600500D01*
X124911243Y-96567246D01*
X125113412Y-96501557D01*
X125302816Y-96405051D01*
X125390856Y-96341087D01*
X125474786Y-96280109D01*
X125474788Y-96280106D01*
X125474792Y-96280104D01*
X125625104Y-96129792D01*
X125625106Y-96129788D01*
X125625109Y-96129786D01*
X125736076Y-95977051D01*
X125750051Y-95957816D01*
X125846557Y-95768412D01*
X125912246Y-95566243D01*
X125914990Y-95548920D01*
X159884499Y-95548920D01*
X159913340Y-95693907D01*
X159913343Y-95693917D01*
X159969912Y-95830488D01*
X159969919Y-95830501D01*
X160052048Y-95953415D01*
X160052051Y-95953419D01*
X160156580Y-96057948D01*
X160156584Y-96057951D01*
X160279498Y-96140080D01*
X160279511Y-96140087D01*
X160416082Y-96196656D01*
X160416087Y-96196658D01*
X160416091Y-96196658D01*
X160416092Y-96196659D01*
X160561079Y-96225500D01*
X160561082Y-96225500D01*
X160708920Y-96225500D01*
X160814464Y-96204505D01*
X160853913Y-96196658D01*
X160990495Y-96140084D01*
X161113416Y-96057951D01*
X161217951Y-95953416D01*
X161300084Y-95830495D01*
X161356658Y-95693913D01*
X161382054Y-95566243D01*
X161385500Y-95548920D01*
X161385500Y-95401079D01*
X161356182Y-95253692D01*
X161362409Y-95184100D01*
X161405272Y-95128923D01*
X161471161Y-95105678D01*
X161477799Y-95105500D01*
X161628920Y-95105500D01*
X161726462Y-95086096D01*
X161773913Y-95076658D01*
X161910495Y-95020084D01*
X162033416Y-94937951D01*
X162137951Y-94833416D01*
X162220084Y-94710495D01*
X162276658Y-94573913D01*
X162305500Y-94428918D01*
X162305500Y-94281082D01*
X162305500Y-94281079D01*
X162276659Y-94136092D01*
X162276658Y-94136091D01*
X162276658Y-94136087D01*
X162259496Y-94094653D01*
X162220087Y-93999511D01*
X162220080Y-93999498D01*
X162137951Y-93876584D01*
X162137948Y-93876580D01*
X162033419Y-93772051D01*
X162033415Y-93772048D01*
X161910501Y-93689919D01*
X161910488Y-93689912D01*
X161773917Y-93633343D01*
X161773907Y-93633340D01*
X161628920Y-93604500D01*
X161628918Y-93604500D01*
X161481082Y-93604500D01*
X161481080Y-93604500D01*
X161336092Y-93633340D01*
X161336082Y-93633343D01*
X161199511Y-93689912D01*
X161199498Y-93689919D01*
X161076584Y-93772048D01*
X161076580Y-93772051D01*
X160972051Y-93876580D01*
X160972048Y-93876584D01*
X160889919Y-93999498D01*
X160889912Y-93999511D01*
X160833343Y-94136082D01*
X160833340Y-94136092D01*
X160804500Y-94281079D01*
X160804500Y-94281082D01*
X160804500Y-94428918D01*
X160804500Y-94428920D01*
X160804499Y-94428920D01*
X160833818Y-94576308D01*
X160827591Y-94645900D01*
X160784728Y-94701077D01*
X160718839Y-94724322D01*
X160712201Y-94724500D01*
X160561080Y-94724500D01*
X160416092Y-94753340D01*
X160416082Y-94753343D01*
X160279511Y-94809912D01*
X160279498Y-94809919D01*
X160156584Y-94892048D01*
X160156580Y-94892051D01*
X160052051Y-94996580D01*
X160052048Y-94996584D01*
X159969919Y-95119498D01*
X159969912Y-95119511D01*
X159913343Y-95256082D01*
X159913340Y-95256092D01*
X159884500Y-95401079D01*
X159884500Y-95401082D01*
X159884500Y-95548918D01*
X159884500Y-95548920D01*
X159884499Y-95548920D01*
X125914990Y-95548920D01*
X125945500Y-95356287D01*
X125945500Y-95143713D01*
X125912246Y-94933757D01*
X125846557Y-94731588D01*
X125750051Y-94542184D01*
X125750049Y-94542181D01*
X125750048Y-94542179D01*
X125625109Y-94370213D01*
X125486294Y-94231398D01*
X125452809Y-94170075D01*
X125457793Y-94100383D01*
X125499665Y-94044450D01*
X125508879Y-94038178D01*
X125514331Y-94034814D01*
X125514334Y-94034814D01*
X125663656Y-93942712D01*
X125787712Y-93818656D01*
X125879814Y-93669334D01*
X125934999Y-93502797D01*
X125945500Y-93400009D01*
X125945500Y-93353920D01*
X138779499Y-93353920D01*
X138808340Y-93498907D01*
X138808343Y-93498917D01*
X138864912Y-93635488D01*
X138864919Y-93635501D01*
X138947048Y-93758415D01*
X138947051Y-93758419D01*
X139051580Y-93862948D01*
X139051584Y-93862951D01*
X139174498Y-93945080D01*
X139174511Y-93945087D01*
X139311082Y-94001656D01*
X139311087Y-94001658D01*
X139311091Y-94001658D01*
X139311092Y-94001659D01*
X139456079Y-94030500D01*
X139456082Y-94030500D01*
X139603920Y-94030500D01*
X139701462Y-94011096D01*
X139748913Y-94001658D01*
X139885495Y-93945084D01*
X140008416Y-93862951D01*
X140112951Y-93758416D01*
X140195084Y-93635495D01*
X140251658Y-93498913D01*
X140271330Y-93400018D01*
X140280500Y-93353920D01*
X140280500Y-93206079D01*
X140251659Y-93061092D01*
X140251658Y-93061091D01*
X140251658Y-93061087D01*
X140251656Y-93061082D01*
X140195087Y-92924511D01*
X140195080Y-92924498D01*
X140112951Y-92801584D01*
X140112948Y-92801580D01*
X140008419Y-92697051D01*
X140008415Y-92697048D01*
X139885501Y-92614919D01*
X139885488Y-92614912D01*
X139748917Y-92558343D01*
X139748907Y-92558340D01*
X139603920Y-92529500D01*
X139603918Y-92529500D01*
X139456082Y-92529500D01*
X139456080Y-92529500D01*
X139311092Y-92558340D01*
X139311082Y-92558343D01*
X139174511Y-92614912D01*
X139174498Y-92614919D01*
X139051584Y-92697048D01*
X139051580Y-92697051D01*
X138947051Y-92801580D01*
X138947048Y-92801584D01*
X138864919Y-92924498D01*
X138864912Y-92924511D01*
X138808343Y-93061082D01*
X138808340Y-93061092D01*
X138779500Y-93206079D01*
X138779500Y-93206082D01*
X138779500Y-93353918D01*
X138779500Y-93353920D01*
X138779499Y-93353920D01*
X125945500Y-93353920D01*
X125945499Y-92749620D01*
X125945499Y-92099998D01*
X125945498Y-92099981D01*
X125934999Y-91997203D01*
X125934998Y-91997200D01*
X125919354Y-91949990D01*
X125879814Y-91830666D01*
X125787712Y-91681344D01*
X125663656Y-91557288D01*
X125514334Y-91465186D01*
X125347797Y-91410001D01*
X125347795Y-91410000D01*
X125245010Y-91399500D01*
X123644998Y-91399500D01*
X123644981Y-91399501D01*
X123542203Y-91410000D01*
X123542200Y-91410001D01*
X123375668Y-91465185D01*
X123375663Y-91465187D01*
X123226342Y-91557289D01*
X123102289Y-91681342D01*
X123010187Y-91830663D01*
X123010186Y-91830666D01*
X122955001Y-91997203D01*
X122955001Y-91997204D01*
X122955000Y-91997204D01*
X122944500Y-92099983D01*
X115000500Y-92099983D01*
X115000500Y-91188753D01*
X170400000Y-91188753D01*
X170400000Y-91195000D01*
X171316988Y-91195000D01*
X171284075Y-91252007D01*
X171250000Y-91379174D01*
X171250000Y-91510826D01*
X171284075Y-91637993D01*
X171316988Y-91695000D01*
X170400000Y-91695000D01*
X170400000Y-91701246D01*
X170433242Y-91911127D01*
X170433242Y-91911130D01*
X170498904Y-92113217D01*
X170595379Y-92302557D01*
X170720272Y-92474459D01*
X170720276Y-92474464D01*
X170870535Y-92624723D01*
X170870540Y-92624727D01*
X171042442Y-92749620D01*
X171231782Y-92846095D01*
X171433871Y-92911757D01*
X171500000Y-92922231D01*
X171500000Y-91878012D01*
X171557007Y-91910925D01*
X171684174Y-91945000D01*
X171815826Y-91945000D01*
X171942993Y-91910925D01*
X172000000Y-91878012D01*
X172000000Y-92922230D01*
X172066126Y-92911757D01*
X172066129Y-92911757D01*
X172268217Y-92846095D01*
X172457557Y-92749620D01*
X172629458Y-92624728D01*
X172768330Y-92485856D01*
X172829653Y-92452371D01*
X172899345Y-92457355D01*
X172955279Y-92499226D01*
X172961551Y-92508440D01*
X172965185Y-92514331D01*
X172965186Y-92514334D01*
X173057288Y-92663656D01*
X173181344Y-92787712D01*
X173330666Y-92879814D01*
X173497203Y-92934999D01*
X173599991Y-92945500D01*
X174900008Y-92945499D01*
X175002797Y-92934999D01*
X175169334Y-92879814D01*
X175318656Y-92787712D01*
X175442712Y-92663656D01*
X175534814Y-92514334D01*
X175589999Y-92347797D01*
X175600500Y-92245009D01*
X175600500Y-92103920D01*
X181749499Y-92103920D01*
X181778340Y-92248907D01*
X181778343Y-92248917D01*
X181834912Y-92385488D01*
X181834919Y-92385501D01*
X181917048Y-92508415D01*
X181917051Y-92508419D01*
X182021580Y-92612948D01*
X182021584Y-92612951D01*
X182144498Y-92695080D01*
X182144511Y-92695087D01*
X182276167Y-92749620D01*
X182281087Y-92751658D01*
X182281091Y-92751658D01*
X182281092Y-92751659D01*
X182426079Y-92780500D01*
X182426082Y-92780500D01*
X182573920Y-92780500D01*
X182671462Y-92761096D01*
X182718913Y-92751658D01*
X182850751Y-92697049D01*
X182855488Y-92695087D01*
X182855488Y-92695086D01*
X182855495Y-92695084D01*
X182978416Y-92612951D01*
X183082951Y-92508416D01*
X183165084Y-92385495D01*
X183221658Y-92248913D01*
X183231096Y-92201462D01*
X183250500Y-92103920D01*
X183250500Y-91956079D01*
X183221659Y-91811092D01*
X183221658Y-91811091D01*
X183221658Y-91811087D01*
X183221656Y-91811082D01*
X183165087Y-91674511D01*
X183165080Y-91674498D01*
X183082951Y-91551584D01*
X183082948Y-91551580D01*
X182978419Y-91447051D01*
X182978415Y-91447048D01*
X182855501Y-91364919D01*
X182855488Y-91364912D01*
X182718917Y-91308343D01*
X182718907Y-91308340D01*
X182573920Y-91279500D01*
X182573918Y-91279500D01*
X182426082Y-91279500D01*
X182426080Y-91279500D01*
X182281092Y-91308340D01*
X182281082Y-91308343D01*
X182144511Y-91364912D01*
X182144498Y-91364919D01*
X182021584Y-91447048D01*
X182021580Y-91447051D01*
X181917051Y-91551580D01*
X181917048Y-91551584D01*
X181834919Y-91674498D01*
X181834912Y-91674511D01*
X181778343Y-91811082D01*
X181778340Y-91811092D01*
X181749500Y-91956079D01*
X181749500Y-91956082D01*
X181749500Y-92103918D01*
X181749500Y-92103920D01*
X181749499Y-92103920D01*
X175600500Y-92103920D01*
X175600499Y-91410001D01*
X175600499Y-90644998D01*
X175600498Y-90644981D01*
X175589999Y-90542203D01*
X175589998Y-90542200D01*
X175534814Y-90375666D01*
X175442712Y-90226344D01*
X175318656Y-90102288D01*
X175169334Y-90010186D01*
X175002797Y-89955001D01*
X175002795Y-89955000D01*
X174900010Y-89944500D01*
X173599998Y-89944500D01*
X173599981Y-89944501D01*
X173497203Y-89955000D01*
X173497200Y-89955001D01*
X173330668Y-90010185D01*
X173330663Y-90010187D01*
X173181342Y-90102289D01*
X173057289Y-90226342D01*
X172961551Y-90381559D01*
X172909603Y-90428283D01*
X172840640Y-90439506D01*
X172776558Y-90411662D01*
X172768331Y-90404143D01*
X172629464Y-90265276D01*
X172629459Y-90265272D01*
X172457557Y-90140379D01*
X172268215Y-90043903D01*
X172066124Y-89978241D01*
X172000000Y-89967768D01*
X172000000Y-91011988D01*
X171942993Y-90979075D01*
X171815826Y-90945000D01*
X171684174Y-90945000D01*
X171557007Y-90979075D01*
X171500000Y-91011988D01*
X171500000Y-89967768D01*
X171499999Y-89967768D01*
X171433875Y-89978241D01*
X171231784Y-90043903D01*
X171042442Y-90140379D01*
X170870540Y-90265272D01*
X170870535Y-90265276D01*
X170720276Y-90415535D01*
X170720272Y-90415540D01*
X170595379Y-90587442D01*
X170498904Y-90776782D01*
X170433242Y-90978869D01*
X170433242Y-90978872D01*
X170400000Y-91188753D01*
X115000500Y-91188753D01*
X115000500Y-88613920D01*
X133879499Y-88613920D01*
X133908340Y-88758907D01*
X133908343Y-88758917D01*
X133964912Y-88895488D01*
X133964919Y-88895501D01*
X134047048Y-89018415D01*
X134047051Y-89018419D01*
X134151580Y-89122948D01*
X134151584Y-89122951D01*
X134274498Y-89205080D01*
X134274511Y-89205087D01*
X134411082Y-89261656D01*
X134411087Y-89261658D01*
X134411091Y-89261658D01*
X134411092Y-89261659D01*
X134556079Y-89290500D01*
X134556082Y-89290500D01*
X134703920Y-89290500D01*
X134801462Y-89271096D01*
X134848913Y-89261658D01*
X134985495Y-89205084D01*
X135108416Y-89122951D01*
X135212951Y-89018416D01*
X135295084Y-88895495D01*
X135351658Y-88758913D01*
X135380500Y-88613918D01*
X135380500Y-88466082D01*
X135380500Y-88466079D01*
X135351659Y-88321092D01*
X135351658Y-88321091D01*
X135351658Y-88321087D01*
X135351656Y-88321082D01*
X135295087Y-88184511D01*
X135295080Y-88184498D01*
X135212951Y-88061584D01*
X135212948Y-88061580D01*
X135108419Y-87957051D01*
X135108415Y-87957048D01*
X134985501Y-87874919D01*
X134985488Y-87874912D01*
X134848917Y-87818343D01*
X134848907Y-87818340D01*
X134703920Y-87789500D01*
X134703918Y-87789500D01*
X134556082Y-87789500D01*
X134556080Y-87789500D01*
X134411092Y-87818340D01*
X134411082Y-87818343D01*
X134274511Y-87874912D01*
X134274498Y-87874919D01*
X134151584Y-87957048D01*
X134151580Y-87957051D01*
X134047051Y-88061580D01*
X134047048Y-88061584D01*
X133964919Y-88184498D01*
X133964912Y-88184511D01*
X133908343Y-88321082D01*
X133908340Y-88321092D01*
X133879500Y-88466079D01*
X133879500Y-88466082D01*
X133879500Y-88613918D01*
X133879500Y-88613920D01*
X133879499Y-88613920D01*
X115000500Y-88613920D01*
X115000500Y-87209525D01*
X115020185Y-87142486D01*
X115072989Y-87096731D01*
X115142147Y-87086787D01*
X115205703Y-87115812D01*
X115220347Y-87130854D01*
X115396459Y-87345447D01*
X115403177Y-87353633D01*
X115646367Y-87596823D01*
X115646372Y-87596827D01*
X115646373Y-87596828D01*
X115912240Y-87815019D01*
X116198213Y-88006100D01*
X116198222Y-88006105D01*
X116198224Y-88006106D01*
X116501530Y-88168227D01*
X116501532Y-88168227D01*
X116501538Y-88168231D01*
X116819295Y-88299850D01*
X117148422Y-88399690D01*
X117485750Y-88466789D01*
X117828031Y-88500500D01*
X117828034Y-88500500D01*
X118171966Y-88500500D01*
X118171969Y-88500500D01*
X118514250Y-88466789D01*
X118851578Y-88399690D01*
X119180705Y-88299850D01*
X119498462Y-88168231D01*
X119801787Y-88006100D01*
X120087760Y-87815019D01*
X120353627Y-87596828D01*
X120596828Y-87353627D01*
X120815019Y-87087760D01*
X121006100Y-86801787D01*
X121168231Y-86498462D01*
X121299850Y-86180705D01*
X121399690Y-85851578D01*
X121444021Y-85628713D01*
X138339500Y-85628713D01*
X138339500Y-85841287D01*
X138372754Y-86051243D01*
X138428240Y-86222012D01*
X138438444Y-86253414D01*
X138534951Y-86442820D01*
X138659890Y-86614786D01*
X138773818Y-86728714D01*
X138807303Y-86790037D01*
X138802319Y-86859729D01*
X138760447Y-86915662D01*
X138729471Y-86932577D01*
X138597912Y-86981646D01*
X138597906Y-86981649D01*
X138482812Y-87067809D01*
X138482809Y-87067812D01*
X138396649Y-87182906D01*
X138396645Y-87182913D01*
X138346403Y-87317620D01*
X138346401Y-87317627D01*
X138340000Y-87377155D01*
X138340000Y-88025000D01*
X139256988Y-88025000D01*
X139224075Y-88082007D01*
X139190000Y-88209174D01*
X139190000Y-88340826D01*
X139224075Y-88467993D01*
X139256988Y-88525000D01*
X138340000Y-88525000D01*
X138340000Y-89172844D01*
X138346401Y-89232372D01*
X138346403Y-89232379D01*
X138396645Y-89367086D01*
X138396649Y-89367093D01*
X138482809Y-89482187D01*
X138482812Y-89482190D01*
X138597906Y-89568350D01*
X138597913Y-89568354D01*
X138732620Y-89618596D01*
X138732627Y-89618598D01*
X138792155Y-89624999D01*
X138792172Y-89625000D01*
X139440000Y-89625000D01*
X139440000Y-88708012D01*
X139497007Y-88740925D01*
X139624174Y-88775000D01*
X139755826Y-88775000D01*
X139882993Y-88740925D01*
X139940000Y-88708012D01*
X139940000Y-89625000D01*
X140587828Y-89625000D01*
X140587844Y-89624999D01*
X140647372Y-89618598D01*
X140647379Y-89618596D01*
X140782086Y-89568354D01*
X140782093Y-89568350D01*
X140897187Y-89482190D01*
X140897190Y-89482187D01*
X140983350Y-89367093D01*
X140983354Y-89367086D01*
X141032422Y-89235529D01*
X141074293Y-89179595D01*
X141139757Y-89155178D01*
X141208030Y-89170030D01*
X141236285Y-89191181D01*
X141350213Y-89305109D01*
X141522179Y-89430048D01*
X141522181Y-89430049D01*
X141522184Y-89430051D01*
X141711588Y-89526557D01*
X141913757Y-89592246D01*
X142123713Y-89625500D01*
X142123714Y-89625500D01*
X142336286Y-89625500D01*
X142336287Y-89625500D01*
X142546243Y-89592246D01*
X142748412Y-89526557D01*
X142937816Y-89430051D01*
X143024471Y-89367093D01*
X143109786Y-89305109D01*
X143109788Y-89305106D01*
X143109792Y-89305104D01*
X143260104Y-89154792D01*
X143260106Y-89154788D01*
X143260109Y-89154786D01*
X143385048Y-88982820D01*
X143385047Y-88982820D01*
X143385051Y-88982816D01*
X143389514Y-88974054D01*
X143437488Y-88923259D01*
X143505308Y-88906463D01*
X143571444Y-88928999D01*
X143610486Y-88974056D01*
X143614951Y-88982820D01*
X143739890Y-89154786D01*
X143890213Y-89305109D01*
X144062179Y-89430048D01*
X144062181Y-89430049D01*
X144062184Y-89430051D01*
X144251588Y-89526557D01*
X144453757Y-89592246D01*
X144663713Y-89625500D01*
X144663714Y-89625500D01*
X144876286Y-89625500D01*
X144876287Y-89625500D01*
X145086243Y-89592246D01*
X145288412Y-89526557D01*
X145477816Y-89430051D01*
X145564471Y-89367093D01*
X145649786Y-89305109D01*
X145649788Y-89305106D01*
X145649792Y-89305104D01*
X145800104Y-89154792D01*
X145800106Y-89154788D01*
X145800109Y-89154786D01*
X145925048Y-88982820D01*
X145925047Y-88982820D01*
X145925051Y-88982816D01*
X145929514Y-88974054D01*
X145977488Y-88923259D01*
X146045308Y-88906463D01*
X146111444Y-88928999D01*
X146150486Y-88974056D01*
X146154951Y-88982820D01*
X146279890Y-89154786D01*
X146430213Y-89305109D01*
X146602179Y-89430048D01*
X146602181Y-89430049D01*
X146602184Y-89430051D01*
X146791588Y-89526557D01*
X146993757Y-89592246D01*
X147203713Y-89625500D01*
X147203714Y-89625500D01*
X147416286Y-89625500D01*
X147416287Y-89625500D01*
X147626243Y-89592246D01*
X147828412Y-89526557D01*
X148017816Y-89430051D01*
X148104471Y-89367093D01*
X148189786Y-89305109D01*
X148189788Y-89305106D01*
X148189792Y-89305104D01*
X148340104Y-89154792D01*
X148340106Y-89154788D01*
X148340109Y-89154786D01*
X148465048Y-88982820D01*
X148465047Y-88982820D01*
X148465051Y-88982816D01*
X148561557Y-88793412D01*
X148627246Y-88591243D01*
X148660500Y-88381287D01*
X148660500Y-88168713D01*
X148627246Y-87958757D01*
X148561557Y-87756588D01*
X148529626Y-87693920D01*
X166739499Y-87693920D01*
X166768340Y-87838907D01*
X166768343Y-87838917D01*
X166824912Y-87975488D01*
X166824919Y-87975501D01*
X166907048Y-88098415D01*
X166907051Y-88098419D01*
X167011580Y-88202948D01*
X167011584Y-88202951D01*
X167134498Y-88285080D01*
X167134511Y-88285087D01*
X167221424Y-88321087D01*
X167271087Y-88341658D01*
X167271091Y-88341658D01*
X167271092Y-88341659D01*
X167416079Y-88370500D01*
X167416082Y-88370500D01*
X167563920Y-88370500D01*
X167679599Y-88347489D01*
X167708913Y-88341658D01*
X167845495Y-88285084D01*
X167968416Y-88202951D01*
X168072951Y-88098416D01*
X168155084Y-87975495D01*
X168211658Y-87838913D01*
X168228034Y-87756588D01*
X168240500Y-87693920D01*
X168240500Y-87546079D01*
X168211659Y-87401092D01*
X168211658Y-87401091D01*
X168211658Y-87401087D01*
X168192002Y-87353632D01*
X168155087Y-87264511D01*
X168155080Y-87264498D01*
X168072951Y-87141584D01*
X168072948Y-87141580D01*
X167968419Y-87037051D01*
X167968415Y-87037048D01*
X167845501Y-86954919D01*
X167845488Y-86954912D01*
X167708917Y-86898343D01*
X167708907Y-86898340D01*
X167563920Y-86869500D01*
X167563918Y-86869500D01*
X167416082Y-86869500D01*
X167416080Y-86869500D01*
X167271092Y-86898340D01*
X167271082Y-86898343D01*
X167134511Y-86954912D01*
X167134498Y-86954919D01*
X167011584Y-87037048D01*
X167011580Y-87037051D01*
X166907051Y-87141580D01*
X166907048Y-87141584D01*
X166824919Y-87264498D01*
X166824912Y-87264511D01*
X166768343Y-87401082D01*
X166768340Y-87401092D01*
X166739500Y-87546079D01*
X166739500Y-87546082D01*
X166739500Y-87693918D01*
X166739500Y-87693920D01*
X166739499Y-87693920D01*
X148529626Y-87693920D01*
X148465051Y-87567184D01*
X148465049Y-87567181D01*
X148465048Y-87567179D01*
X148340109Y-87395213D01*
X148189786Y-87244890D01*
X148017820Y-87119951D01*
X148017115Y-87119591D01*
X148009054Y-87115485D01*
X147958259Y-87067512D01*
X147941463Y-86999692D01*
X147963999Y-86933556D01*
X148009054Y-86894515D01*
X148017816Y-86890051D01*
X148059551Y-86859729D01*
X148095075Y-86833920D01*
X159719499Y-86833920D01*
X159748340Y-86978907D01*
X159748343Y-86978917D01*
X159804912Y-87115488D01*
X159804919Y-87115501D01*
X159887048Y-87238415D01*
X159887051Y-87238419D01*
X159991580Y-87342948D01*
X159991584Y-87342951D01*
X160114498Y-87425080D01*
X160114511Y-87425087D01*
X160251082Y-87481656D01*
X160251087Y-87481658D01*
X160251091Y-87481658D01*
X160251092Y-87481659D01*
X160396079Y-87510500D01*
X160396082Y-87510500D01*
X160543920Y-87510500D01*
X160641462Y-87491096D01*
X160688913Y-87481658D01*
X160824660Y-87425430D01*
X160824661Y-87425430D01*
X160825099Y-87425247D01*
X160825495Y-87425084D01*
X160948416Y-87342951D01*
X161052951Y-87238416D01*
X161135084Y-87115495D01*
X161191658Y-86978913D01*
X161208446Y-86894516D01*
X161220500Y-86833920D01*
X161220500Y-86686079D01*
X161191659Y-86541092D01*
X161191658Y-86541091D01*
X161191658Y-86541087D01*
X161150953Y-86442816D01*
X161135087Y-86404511D01*
X161135080Y-86404498D01*
X161049567Y-86276519D01*
X161051378Y-86275308D01*
X161027896Y-86220040D01*
X161039677Y-86151171D01*
X161063375Y-86117991D01*
X161122951Y-86058416D01*
X161205084Y-85935495D01*
X161261658Y-85798913D01*
X161290500Y-85653918D01*
X161290500Y-85506082D01*
X161290500Y-85506079D01*
X161261659Y-85361092D01*
X161261658Y-85361091D01*
X161261658Y-85361087D01*
X161225316Y-85273349D01*
X161205087Y-85224511D01*
X161205080Y-85224498D01*
X161122951Y-85101584D01*
X161122948Y-85101580D01*
X161018419Y-84997051D01*
X161018415Y-84997048D01*
X160895501Y-84914919D01*
X160895488Y-84914912D01*
X160758917Y-84858343D01*
X160758907Y-84858340D01*
X160613920Y-84829500D01*
X160613918Y-84829500D01*
X160466082Y-84829500D01*
X160466080Y-84829500D01*
X160321092Y-84858340D01*
X160321082Y-84858343D01*
X160184511Y-84914912D01*
X160184498Y-84914919D01*
X160061584Y-84997048D01*
X160061580Y-84997051D01*
X159957051Y-85101580D01*
X159957048Y-85101584D01*
X159874919Y-85224498D01*
X159874912Y-85224511D01*
X159818343Y-85361082D01*
X159818340Y-85361092D01*
X159789500Y-85506079D01*
X159789500Y-85506082D01*
X159789500Y-85653918D01*
X159789500Y-85653920D01*
X159789499Y-85653920D01*
X159818340Y-85798907D01*
X159818343Y-85798917D01*
X159874912Y-85935488D01*
X159874919Y-85935501D01*
X159960433Y-86063481D01*
X159958628Y-86064687D01*
X159982107Y-86120003D01*
X159970301Y-86188868D01*
X159946620Y-86222012D01*
X159887048Y-86281584D01*
X159804919Y-86404498D01*
X159804912Y-86404511D01*
X159748343Y-86541082D01*
X159748340Y-86541092D01*
X159719500Y-86686079D01*
X159719500Y-86686082D01*
X159719500Y-86833918D01*
X159719500Y-86833920D01*
X159719499Y-86833920D01*
X148095075Y-86833920D01*
X148189786Y-86765109D01*
X148189788Y-86765106D01*
X148189792Y-86765104D01*
X148340104Y-86614792D01*
X148465051Y-86442816D01*
X148561557Y-86253412D01*
X148627246Y-86051243D01*
X148660500Y-85841287D01*
X148660500Y-85628713D01*
X148627246Y-85418757D01*
X148561557Y-85216588D01*
X148465051Y-85027184D01*
X148465049Y-85027181D01*
X148465048Y-85027179D01*
X148340109Y-84855213D01*
X148189786Y-84704890D01*
X148017820Y-84579951D01*
X147828414Y-84483444D01*
X147828413Y-84483443D01*
X147828412Y-84483443D01*
X147626243Y-84417754D01*
X147626241Y-84417753D01*
X147626240Y-84417753D01*
X147464957Y-84392208D01*
X147416287Y-84384500D01*
X147203713Y-84384500D01*
X147155042Y-84392208D01*
X146993760Y-84417753D01*
X146791585Y-84483444D01*
X146602179Y-84579951D01*
X146430213Y-84704890D01*
X146279890Y-84855213D01*
X146154949Y-85027182D01*
X146150484Y-85035946D01*
X146102509Y-85086742D01*
X146034688Y-85103536D01*
X145968553Y-85080998D01*
X145929516Y-85035946D01*
X145925050Y-85027182D01*
X145800109Y-84855213D01*
X145649786Y-84704890D01*
X145477820Y-84579951D01*
X145288414Y-84483444D01*
X145288413Y-84483443D01*
X145288412Y-84483443D01*
X145086243Y-84417754D01*
X145086241Y-84417753D01*
X145086240Y-84417753D01*
X144924957Y-84392208D01*
X144876287Y-84384500D01*
X144663713Y-84384500D01*
X144615042Y-84392208D01*
X144453760Y-84417753D01*
X144251585Y-84483444D01*
X144062179Y-84579951D01*
X143890213Y-84704890D01*
X143739890Y-84855213D01*
X143614949Y-85027182D01*
X143610484Y-85035946D01*
X143562509Y-85086742D01*
X143494688Y-85103536D01*
X143428553Y-85080998D01*
X143389516Y-85035946D01*
X143385050Y-85027182D01*
X143260109Y-84855213D01*
X143109786Y-84704890D01*
X142937820Y-84579951D01*
X142748414Y-84483444D01*
X142748413Y-84483443D01*
X142748412Y-84483443D01*
X142546243Y-84417754D01*
X142546241Y-84417753D01*
X142546240Y-84417753D01*
X142384957Y-84392208D01*
X142336287Y-84384500D01*
X142123713Y-84384500D01*
X142075042Y-84392208D01*
X141913760Y-84417753D01*
X141711585Y-84483444D01*
X141522179Y-84579951D01*
X141350213Y-84704890D01*
X141199890Y-84855213D01*
X141074949Y-85027182D01*
X141070484Y-85035946D01*
X141022509Y-85086742D01*
X140954688Y-85103536D01*
X140888553Y-85080998D01*
X140849516Y-85035946D01*
X140845050Y-85027182D01*
X140720109Y-84855213D01*
X140569786Y-84704890D01*
X140397820Y-84579951D01*
X140208414Y-84483444D01*
X140208413Y-84483443D01*
X140208412Y-84483443D01*
X140006243Y-84417754D01*
X140006241Y-84417753D01*
X140006240Y-84417753D01*
X139844957Y-84392208D01*
X139796287Y-84384500D01*
X139583713Y-84384500D01*
X139535042Y-84392208D01*
X139373760Y-84417753D01*
X139171585Y-84483444D01*
X138982179Y-84579951D01*
X138810213Y-84704890D01*
X138659890Y-84855213D01*
X138534951Y-85027179D01*
X138438444Y-85216585D01*
X138372753Y-85418760D01*
X138358923Y-85506079D01*
X138339500Y-85628713D01*
X121444021Y-85628713D01*
X121466789Y-85514250D01*
X121500500Y-85171969D01*
X121500500Y-84828031D01*
X121466789Y-84485750D01*
X121399690Y-84148422D01*
X121299850Y-83819295D01*
X121196173Y-83568995D01*
X127899499Y-83568995D01*
X127926418Y-83704322D01*
X127926421Y-83704332D01*
X127979221Y-83831804D01*
X127979228Y-83831817D01*
X128055885Y-83946541D01*
X128055888Y-83946545D01*
X128153454Y-84044111D01*
X128153458Y-84044114D01*
X128268182Y-84120771D01*
X128268195Y-84120778D01*
X128395667Y-84173578D01*
X128395672Y-84173580D01*
X128395676Y-84173580D01*
X128395677Y-84173581D01*
X128531004Y-84200500D01*
X128531007Y-84200500D01*
X128668995Y-84200500D01*
X128760041Y-84182389D01*
X128804328Y-84173580D01*
X128931811Y-84120775D01*
X129046542Y-84044114D01*
X129144114Y-83946542D01*
X129220775Y-83831811D01*
X129273580Y-83704328D01*
X129282389Y-83660041D01*
X129300500Y-83568995D01*
X134699499Y-83568995D01*
X134726418Y-83704322D01*
X134726421Y-83704332D01*
X134779221Y-83831804D01*
X134779228Y-83831817D01*
X134855885Y-83946541D01*
X134855888Y-83946545D01*
X134953454Y-84044111D01*
X134953458Y-84044114D01*
X135068182Y-84120771D01*
X135068195Y-84120778D01*
X135195667Y-84173578D01*
X135195672Y-84173580D01*
X135195676Y-84173580D01*
X135195677Y-84173581D01*
X135331004Y-84200500D01*
X135331007Y-84200500D01*
X135468995Y-84200500D01*
X135560041Y-84182389D01*
X135604328Y-84173580D01*
X135731811Y-84120775D01*
X135846542Y-84044114D01*
X135944114Y-83946542D01*
X136020775Y-83831811D01*
X136073580Y-83704328D01*
X136082389Y-83660041D01*
X136100500Y-83568995D01*
X136100500Y-83431004D01*
X136073581Y-83295677D01*
X136073580Y-83295676D01*
X136073580Y-83295672D01*
X136033216Y-83198224D01*
X136020778Y-83168195D01*
X136020771Y-83168182D01*
X135944114Y-83053458D01*
X135944111Y-83053454D01*
X135846545Y-82955888D01*
X135846541Y-82955885D01*
X135731817Y-82879228D01*
X135731804Y-82879221D01*
X135604332Y-82826421D01*
X135604322Y-82826418D01*
X135468995Y-82799500D01*
X135468993Y-82799500D01*
X135331007Y-82799500D01*
X135331005Y-82799500D01*
X135195677Y-82826418D01*
X135195667Y-82826421D01*
X135068195Y-82879221D01*
X135068182Y-82879228D01*
X134953458Y-82955885D01*
X134953454Y-82955888D01*
X134855888Y-83053454D01*
X134855885Y-83053458D01*
X134779228Y-83168182D01*
X134779221Y-83168195D01*
X134726421Y-83295667D01*
X134726418Y-83295677D01*
X134699500Y-83431004D01*
X134699500Y-83431007D01*
X134699500Y-83568993D01*
X134699500Y-83568995D01*
X134699499Y-83568995D01*
X129300500Y-83568995D01*
X129300500Y-83431004D01*
X129273581Y-83295677D01*
X129273580Y-83295676D01*
X129273580Y-83295672D01*
X129233216Y-83198224D01*
X129220778Y-83168195D01*
X129220771Y-83168182D01*
X129144114Y-83053458D01*
X129144111Y-83053454D01*
X129046545Y-82955888D01*
X129046541Y-82955885D01*
X128931817Y-82879228D01*
X128931804Y-82879221D01*
X128804332Y-82826421D01*
X128804322Y-82826418D01*
X128668995Y-82799500D01*
X128668993Y-82799500D01*
X128531007Y-82799500D01*
X128531005Y-82799500D01*
X128395677Y-82826418D01*
X128395667Y-82826421D01*
X128268195Y-82879221D01*
X128268182Y-82879228D01*
X128153458Y-82955885D01*
X128153454Y-82955888D01*
X128055888Y-83053454D01*
X128055885Y-83053458D01*
X127979228Y-83168182D01*
X127979221Y-83168195D01*
X127926421Y-83295667D01*
X127926418Y-83295677D01*
X127899500Y-83431004D01*
X127899500Y-83431007D01*
X127899500Y-83568993D01*
X127899500Y-83568995D01*
X127899499Y-83568995D01*
X121196173Y-83568995D01*
X121168231Y-83501538D01*
X121006100Y-83198213D01*
X120815019Y-82912240D01*
X120596828Y-82646373D01*
X120596827Y-82646372D01*
X120596823Y-82646367D01*
X120353632Y-82403176D01*
X120130861Y-82220353D01*
X120091527Y-82162608D01*
X120089656Y-82092763D01*
X120125843Y-82032995D01*
X120188599Y-82002279D01*
X120209526Y-82000500D01*
X178790474Y-82000500D01*
X178857513Y-82020185D01*
G37*
%TD.AperFunction*%
%TD*%
M02*
