%TF.GenerationSoftware,KiCad,Pcbnew,9.0.2*%
%TF.CreationDate,2026-01-12T19:12:32-08:00*%
%TF.ProjectId,A3-Flight-Computer-Hardware-Rectangular,41332d46-6c69-4676-9874-2d436f6d7075,rev?*%
%TF.SameCoordinates,Original*%
%TF.FileFunction,Copper,L3,Inr*%
%TF.FilePolarity,Positive*%
%FSLAX46Y46*%
G04 Gerber Fmt 4.6, Leading zero omitted, Abs format (unit mm)*
G04 Created by KiCad (PCBNEW 9.0.2) date 2026-01-12 19:12:32*
%MOMM*%
%LPD*%
G01*
G04 APERTURE LIST*
G04 Aperture macros list*
%AMRoundRect*
0 Rectangle with rounded corners*
0 $1 Rounding radius*
0 $2 $3 $4 $5 $6 $7 $8 $9 X,Y pos of 4 corners*
0 Add a 4 corners polygon primitive as box body*
4,1,4,$2,$3,$4,$5,$6,$7,$8,$9,$2,$3,0*
0 Add four circle primitives for the rounded corners*
1,1,$1+$1,$2,$3*
1,1,$1+$1,$4,$5*
1,1,$1+$1,$6,$7*
1,1,$1+$1,$8,$9*
0 Add four rect primitives between the rounded corners*
20,1,$1+$1,$2,$3,$4,$5,0*
20,1,$1+$1,$4,$5,$6,$7,0*
20,1,$1+$1,$6,$7,$8,$9,0*
20,1,$1+$1,$8,$9,$2,$3,0*%
G04 Aperture macros list end*
%TA.AperFunction,ComponentPad*%
%ADD10RoundRect,0.250000X-0.750000X0.600000X-0.750000X-0.600000X0.750000X-0.600000X0.750000X0.600000X0*%
%TD*%
%TA.AperFunction,ComponentPad*%
%ADD11O,2.000000X1.700000*%
%TD*%
%TA.AperFunction,HeatsinkPad*%
%ADD12O,2.000000X0.900000*%
%TD*%
%TA.AperFunction,HeatsinkPad*%
%ADD13O,1.700000X0.900000*%
%TD*%
%TA.AperFunction,ComponentPad*%
%ADD14C,6.000000*%
%TD*%
%TA.AperFunction,ComponentPad*%
%ADD15R,1.700000X1.700000*%
%TD*%
%TA.AperFunction,ComponentPad*%
%ADD16C,1.700000*%
%TD*%
%TA.AperFunction,ComponentPad*%
%ADD17RoundRect,0.250000X-0.600000X-0.725000X0.600000X-0.725000X0.600000X0.725000X-0.600000X0.725000X0*%
%TD*%
%TA.AperFunction,ComponentPad*%
%ADD18O,1.700000X1.950000*%
%TD*%
%TA.AperFunction,ComponentPad*%
%ADD19RoundRect,0.250000X0.600000X0.750000X-0.600000X0.750000X-0.600000X-0.750000X0.600000X-0.750000X0*%
%TD*%
%TA.AperFunction,ComponentPad*%
%ADD20O,1.700000X2.000000*%
%TD*%
%TA.AperFunction,ComponentPad*%
%ADD21RoundRect,0.250000X-0.600000X-0.750000X0.600000X-0.750000X0.600000X0.750000X-0.600000X0.750000X0*%
%TD*%
%TA.AperFunction,ComponentPad*%
%ADD22R,1.000000X1.000000*%
%TD*%
%TA.AperFunction,ViaPad*%
%ADD23C,0.500000*%
%TD*%
%TA.AperFunction,ViaPad*%
%ADD24C,0.600000*%
%TD*%
G04 APERTURE END LIST*
D10*
%TO.N,/CAM1_TX*%
%TO.C,J4*%
X124445000Y-92750000D03*
D11*
%TO.N,/CAM1_RX*%
X124445000Y-95250000D03*
%TD*%
D12*
%TO.N,GND*%
%TO.C,J3*%
X178195000Y-106320000D03*
D13*
X182365000Y-106320000D03*
D12*
X178195000Y-97680000D03*
D13*
X182365000Y-97680000D03*
%TD*%
D14*
%TO.N,N/C*%
%TO.C,REF\u002A\u002A*%
X118000000Y-118000000D03*
%TD*%
%TO.N,N/C*%
%TO.C,*%
X181000000Y-85000000D03*
%TD*%
%TO.N,N/C*%
%TO.C,REF\u002A\u002A*%
X118000000Y-85000000D03*
%TD*%
%TO.N,N/C*%
%TO.C,REF\u002A\u002A*%
X181000000Y-118000000D03*
%TD*%
D15*
%TO.N,GND*%
%TO.C,J5*%
X139690000Y-88275000D03*
D16*
%TO.N,+3.3V*%
X139690000Y-85735000D03*
%TO.N,/JTDO-SWO*%
X142230000Y-88275000D03*
%TO.N,/JTDI*%
X142230000Y-85735000D03*
%TO.N,/JTCK-SWCLK*%
X144770000Y-88275000D03*
%TO.N,/JTMS-SWDIO*%
X144770000Y-85735000D03*
%TO.N,/DEBUG_TX*%
X147310000Y-88275000D03*
%TO.N,/DEBUG_RX*%
X147310000Y-85735000D03*
%TD*%
D17*
%TO.N,/TELEM_TX*%
%TO.C,J7*%
X124500000Y-111555000D03*
D18*
%TO.N,/TELEM_RX*%
X127000000Y-111555000D03*
%TO.N,GND*%
X129500000Y-111555000D03*
%TD*%
D10*
%TO.N,/CAM2_TX*%
%TO.C,J6*%
X124445000Y-102250000D03*
D11*
%TO.N,/CAM2_RX*%
X124445000Y-104750000D03*
%TD*%
D19*
%TO.N,Net-(D1-A)*%
%TO.C,J1*%
X174250000Y-91445000D03*
D20*
%TO.N,GND*%
X171750000Y-91445000D03*
%TD*%
D21*
%TO.N,Net-(D8-A2)*%
%TO.C,J8*%
X171750000Y-111555000D03*
D20*
%TO.N,Net-(D7-A1)*%
X174250000Y-111555000D03*
%TD*%
D22*
%TO.N,/I2C_SCL*%
%TO.C,TP4*%
X162890000Y-118030000D03*
%TD*%
%TO.N,/I2C_SDA*%
%TO.C,TP3*%
X165860000Y-118020000D03*
%TD*%
D23*
%TO.N,GND*%
X136300000Y-100900000D03*
X135100000Y-105000000D03*
X133100000Y-100800000D03*
X131200000Y-105000000D03*
X134800000Y-96400000D03*
X134800000Y-100600000D03*
D24*
%TO.N,+3.3V*%
X163200000Y-99800000D03*
X151800000Y-111200000D03*
D23*
X139351001Y-97683894D03*
X152760000Y-99670000D03*
X156280000Y-111470000D03*
D24*
X141700000Y-112000000D03*
X150130000Y-114200000D03*
D23*
X139530000Y-93280000D03*
D24*
X163200000Y-102200000D03*
X151850000Y-108550000D03*
D23*
X159775000Y-116645000D03*
X164290000Y-115490000D03*
X159670000Y-113270000D03*
X148780000Y-112120000D03*
X137510000Y-107825000D03*
X150880000Y-116630000D03*
X134510000Y-116090000D03*
D24*
X163200000Y-101000000D03*
D23*
X167490000Y-87620000D03*
X164220000Y-112520000D03*
X182500000Y-92030000D03*
X157800000Y-113180000D03*
X134630000Y-88540000D03*
X144560000Y-116490000D03*
D24*
%TO.N,GND*%
X156910000Y-120450000D03*
D23*
X152780000Y-101080000D03*
D24*
X178000000Y-108670000D03*
D23*
X131230000Y-94960000D03*
X164750000Y-93750000D03*
X142980000Y-95780000D03*
X147890000Y-112220000D03*
X166900000Y-104400000D03*
X151090000Y-91590000D03*
D24*
X164950000Y-108000000D03*
D23*
X129440000Y-88520000D03*
X138400000Y-96720000D03*
X159890000Y-117800000D03*
D24*
X165950000Y-105990000D03*
D23*
X167500000Y-90420000D03*
X164560000Y-84100000D03*
X151080000Y-87200000D03*
X141490000Y-93280000D03*
D24*
X139320000Y-109880000D03*
X140750000Y-112000000D03*
D23*
X153570000Y-114180000D03*
D24*
X165950000Y-110020000D03*
X174210000Y-104340000D03*
D23*
X176440000Y-105600000D03*
X153710000Y-111400000D03*
X179220000Y-98690000D03*
X166020000Y-104390000D03*
X128430000Y-92040000D03*
D24*
X149221091Y-112978909D03*
D23*
X153687082Y-113000000D03*
D24*
X180980000Y-108700000D03*
X133720000Y-110580000D03*
D23*
X155370000Y-115660000D03*
X157470000Y-114660000D03*
X135380000Y-107860000D03*
X164250000Y-113460000D03*
X164310000Y-114520000D03*
D24*
X151880000Y-107420000D03*
X173640000Y-100610000D03*
X169490000Y-99370000D03*
D23*
X180280000Y-92510000D03*
D24*
X171000000Y-100560000D03*
D23*
X151010000Y-117510000D03*
D24*
%TO.N,/STAT_LED2*%
X146490000Y-107600000D03*
X180430000Y-111010000D03*
D23*
%TO.N,/SD_D0*%
X152380000Y-103730000D03*
X160635000Y-95475000D03*
%TO.N,/SD_D3*%
X150310000Y-96560000D03*
X160470000Y-86760000D03*
%TO.N,/SD_D2*%
X160540000Y-85580000D03*
X148960000Y-97160000D03*
%TO.N,/SD_D1*%
X161555000Y-94355000D03*
X152175000Y-103035000D03*
%TO.N,Net-(J3-D--PadA7)*%
X176160000Y-102140000D03*
X156849500Y-103170500D03*
%TO.N,Net-(J3-D+-PadA6)*%
X176320000Y-101250000D03*
X156800000Y-101500000D03*
D24*
%TO.N,/JTDI*%
X147250000Y-99780000D03*
%TO.N,/JTMS-SWDIO*%
X148790000Y-101280000D03*
%TO.N,/JTCK-SWCLK*%
X147880000Y-100430000D03*
%TO.N,/JTDO-SWO*%
X145520000Y-99770000D03*
D23*
%TO.N,/CAM1_TX*%
X140200000Y-106200000D03*
%TO.N,/CAM1_RX*%
X140713081Y-106599063D03*
%TO.N,/CAM2_RX*%
X137575000Y-111900000D03*
%TO.N,/CAM2_TX*%
X135260000Y-109050000D03*
%TO.N,/TELEM_TX*%
X148645109Y-103373436D03*
%TO.N,/TELEM_RX*%
X148600000Y-102725000D03*
%TO.N,/I2C_SCL*%
X158550000Y-113830000D03*
X153260000Y-112510000D03*
X155980000Y-117770000D03*
%TO.N,/I2C_SDA*%
X159110000Y-114550000D03*
X155340000Y-118250000D03*
X152460000Y-113500000D03*
%TO.N,/LPS22HB_INT*%
X151960000Y-114750000D03*
X145210000Y-111220000D03*
D24*
%TO.N,/LSM6_INT2*%
X150750000Y-110410000D03*
X143980000Y-111000000D03*
%TO.N,/STAT_LED1*%
X177460000Y-111440000D03*
X145830000Y-108230000D03*
%TD*%
%TA.AperFunction,Conductor*%
%TO.N,+3.3V*%
G36*
X140805270Y-86496717D02*
G01*
X140805270Y-86496716D01*
X140844622Y-86442555D01*
X140849232Y-86433507D01*
X140897205Y-86382709D01*
X140965025Y-86365912D01*
X141031161Y-86388447D01*
X141070204Y-86433504D01*
X141074949Y-86442817D01*
X141199890Y-86614786D01*
X141350213Y-86765109D01*
X141522182Y-86890050D01*
X141530946Y-86894516D01*
X141581742Y-86942491D01*
X141598536Y-87010312D01*
X141575998Y-87076447D01*
X141530946Y-87115484D01*
X141522182Y-87119949D01*
X141350215Y-87244889D01*
X141236673Y-87358431D01*
X141175350Y-87391915D01*
X141105658Y-87386931D01*
X141049725Y-87345059D01*
X141032810Y-87314082D01*
X140983797Y-87182671D01*
X140983793Y-87182664D01*
X140897547Y-87067455D01*
X140897544Y-87067452D01*
X140782335Y-86981206D01*
X140782328Y-86981202D01*
X140647482Y-86930908D01*
X140647483Y-86930908D01*
X140587883Y-86924501D01*
X140587881Y-86924500D01*
X140587873Y-86924500D01*
X140587865Y-86924500D01*
X140577309Y-86924500D01*
X140510270Y-86904815D01*
X140489628Y-86888181D01*
X139819408Y-86217962D01*
X139882993Y-86200925D01*
X139997007Y-86135099D01*
X140090099Y-86042007D01*
X140155925Y-85927993D01*
X140172962Y-85864409D01*
X140805270Y-86496717D01*
G37*
%TD.AperFunction*%
%TA.AperFunction,Conductor*%
G36*
X178857513Y-82020185D02*
G01*
X178903268Y-82072989D01*
X178913212Y-82142147D01*
X178884187Y-82205703D01*
X178869139Y-82220353D01*
X178646367Y-82403176D01*
X178403176Y-82646367D01*
X178184985Y-82912234D01*
X178184975Y-82912248D01*
X177993904Y-83198206D01*
X177993893Y-83198224D01*
X177831772Y-83501530D01*
X177831770Y-83501535D01*
X177700150Y-83819293D01*
X177600308Y-84148427D01*
X177533210Y-84485750D01*
X177514164Y-84679141D01*
X177499500Y-84828031D01*
X177499500Y-85171969D01*
X177503914Y-85216782D01*
X177533210Y-85514249D01*
X177600308Y-85851572D01*
X177700150Y-86180706D01*
X177730185Y-86253217D01*
X177823435Y-86478343D01*
X177831770Y-86498464D01*
X177831772Y-86498469D01*
X177993893Y-86801775D01*
X177993904Y-86801793D01*
X178184975Y-87087751D01*
X178184985Y-87087765D01*
X178403176Y-87353632D01*
X178646367Y-87596823D01*
X178646372Y-87596827D01*
X178646373Y-87596828D01*
X178912240Y-87815019D01*
X179198213Y-88006100D01*
X179198222Y-88006105D01*
X179198224Y-88006106D01*
X179501530Y-88168227D01*
X179501532Y-88168227D01*
X179501538Y-88168231D01*
X179819295Y-88299850D01*
X180148422Y-88399690D01*
X180485750Y-88466789D01*
X180828031Y-88500500D01*
X180828034Y-88500500D01*
X181171966Y-88500500D01*
X181171969Y-88500500D01*
X181514250Y-88466789D01*
X181851578Y-88399690D01*
X182180705Y-88299850D01*
X182498462Y-88168231D01*
X182801787Y-88006100D01*
X183087760Y-87815019D01*
X183353627Y-87596828D01*
X183596828Y-87353627D01*
X183779648Y-87130859D01*
X183837392Y-87091526D01*
X183907237Y-87089655D01*
X183967005Y-87125842D01*
X183997721Y-87188598D01*
X183999500Y-87209525D01*
X183999500Y-115790474D01*
X183979815Y-115857513D01*
X183927011Y-115903268D01*
X183857853Y-115913212D01*
X183794297Y-115884187D01*
X183779647Y-115869139D01*
X183596823Y-115646367D01*
X183353632Y-115403176D01*
X183087765Y-115184985D01*
X183087764Y-115184984D01*
X183087760Y-115184981D01*
X182801787Y-114993900D01*
X182801782Y-114993897D01*
X182801775Y-114993893D01*
X182498469Y-114831772D01*
X182498464Y-114831770D01*
X182479512Y-114823920D01*
X182393564Y-114788319D01*
X182180706Y-114700150D01*
X181851572Y-114600308D01*
X181514248Y-114533210D01*
X181514249Y-114533210D01*
X181256456Y-114507821D01*
X181171969Y-114499500D01*
X180828031Y-114499500D01*
X180749966Y-114507188D01*
X180485750Y-114533210D01*
X180148427Y-114600308D01*
X179819293Y-114700150D01*
X179501535Y-114831770D01*
X179501530Y-114831772D01*
X179198224Y-114993893D01*
X179198206Y-114993904D01*
X178912248Y-115184975D01*
X178912234Y-115184985D01*
X178646367Y-115403176D01*
X178403176Y-115646367D01*
X178184985Y-115912234D01*
X178184975Y-115912248D01*
X177993904Y-116198206D01*
X177993893Y-116198224D01*
X177831772Y-116501530D01*
X177831770Y-116501535D01*
X177700150Y-116819293D01*
X177600308Y-117148427D01*
X177533210Y-117485750D01*
X177509541Y-117726079D01*
X177499500Y-117828031D01*
X177499500Y-118171969D01*
X177499807Y-118175084D01*
X177533210Y-118514249D01*
X177600308Y-118851572D01*
X177700150Y-119180706D01*
X177831770Y-119498464D01*
X177831772Y-119498469D01*
X177993893Y-119801775D01*
X177993904Y-119801793D01*
X178184975Y-120087751D01*
X178184985Y-120087765D01*
X178403176Y-120353632D01*
X178646367Y-120596823D01*
X178869139Y-120779647D01*
X178908473Y-120837392D01*
X178910344Y-120907237D01*
X178874157Y-120967005D01*
X178811401Y-120997721D01*
X178790474Y-120999500D01*
X157734424Y-120999500D01*
X157667385Y-120979815D01*
X157621630Y-120927011D01*
X157611686Y-120857853D01*
X157619863Y-120828048D01*
X157679735Y-120683501D01*
X157679737Y-120683497D01*
X157710500Y-120528842D01*
X157710500Y-120371158D01*
X157710500Y-120371155D01*
X157710499Y-120371153D01*
X157679738Y-120216510D01*
X157679737Y-120216503D01*
X157679735Y-120216498D01*
X157619397Y-120070827D01*
X157619390Y-120070814D01*
X157531789Y-119939711D01*
X157531786Y-119939707D01*
X157420292Y-119828213D01*
X157420288Y-119828210D01*
X157289185Y-119740609D01*
X157289172Y-119740602D01*
X157143501Y-119680264D01*
X157143489Y-119680261D01*
X156988845Y-119649500D01*
X156988842Y-119649500D01*
X156831158Y-119649500D01*
X156831155Y-119649500D01*
X156676510Y-119680261D01*
X156676498Y-119680264D01*
X156530827Y-119740602D01*
X156530814Y-119740609D01*
X156399711Y-119828210D01*
X156399707Y-119828213D01*
X156288213Y-119939707D01*
X156288210Y-119939711D01*
X156200609Y-120070814D01*
X156200602Y-120070827D01*
X156140264Y-120216498D01*
X156140261Y-120216510D01*
X156109500Y-120371153D01*
X156109500Y-120528846D01*
X156140261Y-120683489D01*
X156140264Y-120683501D01*
X156200137Y-120828048D01*
X156207606Y-120897517D01*
X156176331Y-120959996D01*
X156116241Y-120995648D01*
X156085576Y-120999500D01*
X120209526Y-120999500D01*
X120142487Y-120979815D01*
X120096732Y-120927011D01*
X120086788Y-120857853D01*
X120115813Y-120794297D01*
X120130861Y-120779647D01*
X120248020Y-120683497D01*
X120353627Y-120596828D01*
X120596828Y-120353627D01*
X120815019Y-120087760D01*
X121006100Y-119801787D01*
X121168231Y-119498462D01*
X121299850Y-119180705D01*
X121399690Y-118851578D01*
X121466789Y-118514250D01*
X121485534Y-118323920D01*
X154589499Y-118323920D01*
X154618340Y-118468907D01*
X154618343Y-118468917D01*
X154674912Y-118605488D01*
X154674919Y-118605501D01*
X154757048Y-118728415D01*
X154757051Y-118728419D01*
X154861580Y-118832948D01*
X154861584Y-118832951D01*
X154984498Y-118915080D01*
X154984511Y-118915087D01*
X155102099Y-118963793D01*
X155121087Y-118971658D01*
X155121091Y-118971658D01*
X155121092Y-118971659D01*
X155266079Y-119000500D01*
X155266082Y-119000500D01*
X155413920Y-119000500D01*
X155511462Y-118981096D01*
X155558913Y-118971658D01*
X155695495Y-118915084D01*
X155818416Y-118832951D01*
X155922951Y-118728416D01*
X156005084Y-118605495D01*
X156013701Y-118584689D01*
X156057539Y-118530286D01*
X156104065Y-118510524D01*
X156198913Y-118491658D01*
X156335495Y-118435084D01*
X156458416Y-118352951D01*
X156562951Y-118248416D01*
X156645084Y-118125495D01*
X156701658Y-117988913D01*
X156720436Y-117894511D01*
X156724532Y-117873920D01*
X159139499Y-117873920D01*
X159168340Y-118018907D01*
X159168343Y-118018917D01*
X159224912Y-118155488D01*
X159224919Y-118155501D01*
X159307048Y-118278415D01*
X159307051Y-118278419D01*
X159411580Y-118382948D01*
X159411584Y-118382951D01*
X159534498Y-118465080D01*
X159534511Y-118465087D01*
X159644202Y-118510522D01*
X159671087Y-118521658D01*
X159671091Y-118521658D01*
X159671092Y-118521659D01*
X159816079Y-118550500D01*
X159816082Y-118550500D01*
X159963920Y-118550500D01*
X160065538Y-118530286D01*
X160108913Y-118521658D01*
X160236251Y-118468913D01*
X160245488Y-118465087D01*
X160245488Y-118465086D01*
X160245495Y-118465084D01*
X160368416Y-118382951D01*
X160472951Y-118278416D01*
X160555084Y-118155495D01*
X160611658Y-118018913D01*
X160636405Y-117894505D01*
X160640500Y-117873920D01*
X160640500Y-117726079D01*
X160611659Y-117581092D01*
X160611658Y-117581091D01*
X160611658Y-117581087D01*
X160570671Y-117482135D01*
X161889500Y-117482135D01*
X161889500Y-118577870D01*
X161889501Y-118577876D01*
X161895908Y-118637483D01*
X161946202Y-118772328D01*
X161946206Y-118772335D01*
X162032452Y-118887544D01*
X162032455Y-118887547D01*
X162147664Y-118973793D01*
X162147671Y-118973797D01*
X162282517Y-119024091D01*
X162282516Y-119024091D01*
X162289444Y-119024835D01*
X162342127Y-119030500D01*
X163437872Y-119030499D01*
X163497483Y-119024091D01*
X163632331Y-118973796D01*
X163747546Y-118887546D01*
X163833796Y-118772331D01*
X163884091Y-118637483D01*
X163890500Y-118577873D01*
X163890499Y-117482128D01*
X163889424Y-117472135D01*
X164859500Y-117472135D01*
X164859500Y-118567870D01*
X164859501Y-118567876D01*
X164865908Y-118627483D01*
X164916202Y-118762328D01*
X164916206Y-118762335D01*
X165002452Y-118877544D01*
X165002455Y-118877547D01*
X165117664Y-118963793D01*
X165117671Y-118963797D01*
X165252517Y-119014091D01*
X165252516Y-119014091D01*
X165259444Y-119014835D01*
X165312127Y-119020500D01*
X166407872Y-119020499D01*
X166467483Y-119014091D01*
X166602331Y-118963796D01*
X166717546Y-118877546D01*
X166803796Y-118762331D01*
X166854091Y-118627483D01*
X166860500Y-118567873D01*
X166860499Y-117472128D01*
X166854091Y-117412517D01*
X166820175Y-117321584D01*
X166803797Y-117277671D01*
X166803793Y-117277664D01*
X166717547Y-117162455D01*
X166717544Y-117162452D01*
X166602335Y-117076206D01*
X166602328Y-117076202D01*
X166467482Y-117025908D01*
X166467483Y-117025908D01*
X166407883Y-117019501D01*
X166407881Y-117019500D01*
X166407873Y-117019500D01*
X166407864Y-117019500D01*
X165312129Y-117019500D01*
X165312123Y-117019501D01*
X165252516Y-117025908D01*
X165117671Y-117076202D01*
X165117664Y-117076206D01*
X165002455Y-117162452D01*
X165002452Y-117162455D01*
X164916206Y-117277664D01*
X164916202Y-117277671D01*
X164865908Y-117412517D01*
X164859501Y-117472116D01*
X164859501Y-117472123D01*
X164859500Y-117472135D01*
X163889424Y-117472135D01*
X163889423Y-117472123D01*
X163888562Y-117464116D01*
X163884091Y-117422517D01*
X163833796Y-117287669D01*
X163833795Y-117287668D01*
X163833793Y-117287664D01*
X163747547Y-117172455D01*
X163747544Y-117172452D01*
X163632335Y-117086206D01*
X163632328Y-117086202D01*
X163497482Y-117035908D01*
X163497483Y-117035908D01*
X163437883Y-117029501D01*
X163437881Y-117029500D01*
X163437873Y-117029500D01*
X163437864Y-117029500D01*
X162342129Y-117029500D01*
X162342123Y-117029501D01*
X162282516Y-117035908D01*
X162147671Y-117086202D01*
X162147664Y-117086206D01*
X162032455Y-117172452D01*
X162032452Y-117172455D01*
X161946206Y-117287664D01*
X161946202Y-117287671D01*
X161895908Y-117422517D01*
X161889501Y-117482116D01*
X161889500Y-117482135D01*
X160570671Y-117482135D01*
X160555084Y-117444505D01*
X160555082Y-117444502D01*
X160555080Y-117444498D01*
X160472951Y-117321584D01*
X160472948Y-117321580D01*
X160368419Y-117217051D01*
X160368415Y-117217048D01*
X160245501Y-117134919D01*
X160245488Y-117134912D01*
X160108917Y-117078343D01*
X160108907Y-117078340D01*
X159963920Y-117049500D01*
X159963918Y-117049500D01*
X159816082Y-117049500D01*
X159816080Y-117049500D01*
X159671092Y-117078340D01*
X159671082Y-117078343D01*
X159534511Y-117134912D01*
X159534498Y-117134919D01*
X159411584Y-117217048D01*
X159411580Y-117217051D01*
X159307051Y-117321580D01*
X159307048Y-117321584D01*
X159224919Y-117444498D01*
X159224912Y-117444511D01*
X159168343Y-117581082D01*
X159168340Y-117581092D01*
X159139500Y-117726079D01*
X159139500Y-117726082D01*
X159139500Y-117873918D01*
X159139500Y-117873920D01*
X159139499Y-117873920D01*
X156724532Y-117873920D01*
X156730500Y-117843920D01*
X156730500Y-117696079D01*
X156701659Y-117551092D01*
X156701658Y-117551091D01*
X156701658Y-117551087D01*
X156680290Y-117499500D01*
X156645087Y-117414511D01*
X156645080Y-117414498D01*
X156562951Y-117291584D01*
X156562948Y-117291580D01*
X156458419Y-117187051D01*
X156458415Y-117187048D01*
X156335501Y-117104919D01*
X156335488Y-117104912D01*
X156198917Y-117048343D01*
X156198907Y-117048340D01*
X156053920Y-117019500D01*
X156053918Y-117019500D01*
X155906082Y-117019500D01*
X155906080Y-117019500D01*
X155761092Y-117048340D01*
X155761082Y-117048343D01*
X155624511Y-117104912D01*
X155624498Y-117104919D01*
X155501584Y-117187048D01*
X155501580Y-117187051D01*
X155397051Y-117291580D01*
X155397048Y-117291584D01*
X155314919Y-117414498D01*
X155314916Y-117414504D01*
X155306297Y-117435313D01*
X155262455Y-117489716D01*
X155215928Y-117509476D01*
X155121092Y-117528340D01*
X155121082Y-117528343D01*
X154984511Y-117584912D01*
X154984498Y-117584919D01*
X154861584Y-117667048D01*
X154861580Y-117667051D01*
X154757051Y-117771580D01*
X154757048Y-117771584D01*
X154674919Y-117894498D01*
X154674912Y-117894511D01*
X154618343Y-118031082D01*
X154618340Y-118031092D01*
X154589500Y-118176079D01*
X154589500Y-118176082D01*
X154589500Y-118323918D01*
X154589500Y-118323920D01*
X154589499Y-118323920D01*
X121485534Y-118323920D01*
X121500500Y-118171969D01*
X121500500Y-117828031D01*
X121476458Y-117583920D01*
X150259499Y-117583920D01*
X150288340Y-117728907D01*
X150288343Y-117728917D01*
X150344912Y-117865488D01*
X150344919Y-117865501D01*
X150427048Y-117988415D01*
X150427051Y-117988419D01*
X150531580Y-118092948D01*
X150531584Y-118092951D01*
X150654498Y-118175080D01*
X150654511Y-118175087D01*
X150791082Y-118231656D01*
X150791087Y-118231658D01*
X150791091Y-118231658D01*
X150791092Y-118231659D01*
X150936079Y-118260500D01*
X150936082Y-118260500D01*
X151083920Y-118260500D01*
X151181462Y-118241096D01*
X151228913Y-118231658D01*
X151365495Y-118175084D01*
X151488416Y-118092951D01*
X151488419Y-118092948D01*
X151499059Y-118082309D01*
X151592948Y-117988419D01*
X151592951Y-117988416D01*
X151675084Y-117865495D01*
X151731658Y-117728913D01*
X151760301Y-117584919D01*
X151760500Y-117583920D01*
X151760500Y-117436079D01*
X151731659Y-117291092D01*
X151731658Y-117291091D01*
X151731658Y-117291087D01*
X151726098Y-117277664D01*
X151675087Y-117154511D01*
X151675080Y-117154498D01*
X151592951Y-117031584D01*
X151592948Y-117031580D01*
X151488419Y-116927051D01*
X151488415Y-116927048D01*
X151365501Y-116844919D01*
X151365488Y-116844912D01*
X151228917Y-116788343D01*
X151228907Y-116788340D01*
X151083920Y-116759500D01*
X151083918Y-116759500D01*
X150936082Y-116759500D01*
X150936080Y-116759500D01*
X150791092Y-116788340D01*
X150791082Y-116788343D01*
X150654511Y-116844912D01*
X150654498Y-116844919D01*
X150531584Y-116927048D01*
X150531580Y-116927051D01*
X150427051Y-117031580D01*
X150427048Y-117031584D01*
X150344919Y-117154498D01*
X150344912Y-117154511D01*
X150288343Y-117291082D01*
X150288340Y-117291092D01*
X150259500Y-117436079D01*
X150259500Y-117436082D01*
X150259500Y-117583918D01*
X150259500Y-117583920D01*
X150259499Y-117583920D01*
X121476458Y-117583920D01*
X121466790Y-117485758D01*
X121466789Y-117485755D01*
X121466789Y-117485750D01*
X121458585Y-117444508D01*
X121413341Y-117217051D01*
X121399690Y-117148422D01*
X121299850Y-116819295D01*
X121168231Y-116501538D01*
X121030011Y-116242948D01*
X121006106Y-116198224D01*
X121006105Y-116198222D01*
X121006100Y-116198213D01*
X120815019Y-115912240D01*
X120668676Y-115733920D01*
X154619499Y-115733920D01*
X154648340Y-115878907D01*
X154648343Y-115878917D01*
X154704912Y-116015488D01*
X154704919Y-116015501D01*
X154787048Y-116138415D01*
X154787051Y-116138419D01*
X154891580Y-116242948D01*
X154891584Y-116242951D01*
X155014498Y-116325080D01*
X155014511Y-116325087D01*
X155151082Y-116381656D01*
X155151087Y-116381658D01*
X155151091Y-116381658D01*
X155151092Y-116381659D01*
X155296079Y-116410500D01*
X155296082Y-116410500D01*
X155443920Y-116410500D01*
X155541462Y-116391096D01*
X155588913Y-116381658D01*
X155725495Y-116325084D01*
X155848416Y-116242951D01*
X155952951Y-116138416D01*
X156035084Y-116015495D01*
X156091658Y-115878913D01*
X156120500Y-115733918D01*
X156120500Y-115586082D01*
X156120500Y-115586079D01*
X156091659Y-115441092D01*
X156091658Y-115441091D01*
X156091658Y-115441087D01*
X156091656Y-115441082D01*
X156035087Y-115304511D01*
X156035080Y-115304498D01*
X155952951Y-115181584D01*
X155952948Y-115181580D01*
X155848419Y-115077051D01*
X155848415Y-115077048D01*
X155725501Y-114994919D01*
X155725488Y-114994912D01*
X155588917Y-114938343D01*
X155588907Y-114938340D01*
X155443920Y-114909500D01*
X155443918Y-114909500D01*
X155296082Y-114909500D01*
X155296080Y-114909500D01*
X155151092Y-114938340D01*
X155151082Y-114938343D01*
X155014511Y-114994912D01*
X155014498Y-114994919D01*
X154891584Y-115077048D01*
X154891580Y-115077051D01*
X154787051Y-115181580D01*
X154787048Y-115181584D01*
X154704919Y-115304498D01*
X154704912Y-115304511D01*
X154648343Y-115441082D01*
X154648340Y-115441092D01*
X154619500Y-115586079D01*
X154619500Y-115586082D01*
X154619500Y-115733918D01*
X154619500Y-115733920D01*
X154619499Y-115733920D01*
X120668676Y-115733920D01*
X120596828Y-115646373D01*
X120596827Y-115646372D01*
X120596823Y-115646367D01*
X120353632Y-115403176D01*
X120087765Y-115184985D01*
X120087764Y-115184984D01*
X120087760Y-115184981D01*
X119801787Y-114993900D01*
X119801782Y-114993897D01*
X119801775Y-114993893D01*
X119498469Y-114831772D01*
X119498464Y-114831770D01*
X119498462Y-114831769D01*
X119479513Y-114823920D01*
X151209499Y-114823920D01*
X151238340Y-114968907D01*
X151238343Y-114968917D01*
X151294912Y-115105488D01*
X151294919Y-115105501D01*
X151377048Y-115228415D01*
X151377051Y-115228419D01*
X151481580Y-115332948D01*
X151481584Y-115332951D01*
X151604498Y-115415080D01*
X151604511Y-115415087D01*
X151726049Y-115465429D01*
X151741087Y-115471658D01*
X151741091Y-115471658D01*
X151741092Y-115471659D01*
X151886079Y-115500500D01*
X151886082Y-115500500D01*
X152033920Y-115500500D01*
X152131462Y-115481096D01*
X152178913Y-115471658D01*
X152186415Y-115468550D01*
X152193952Y-115465429D01*
X152315488Y-115415087D01*
X152315488Y-115415086D01*
X152315495Y-115415084D01*
X152438416Y-115332951D01*
X152542951Y-115228416D01*
X152625084Y-115105495D01*
X152681658Y-114968913D01*
X152700239Y-114875501D01*
X152710500Y-114823920D01*
X152710500Y-114676082D01*
X152709891Y-114673021D01*
X152710037Y-114671383D01*
X152709903Y-114670017D01*
X152710162Y-114669991D01*
X152716117Y-114603429D01*
X152758979Y-114548251D01*
X152824868Y-114525005D01*
X152892865Y-114541071D01*
X152934610Y-114579936D01*
X152987048Y-114658415D01*
X152987051Y-114658419D01*
X153091580Y-114762948D01*
X153091584Y-114762951D01*
X153214498Y-114845080D01*
X153214511Y-114845087D01*
X153296185Y-114878917D01*
X153351087Y-114901658D01*
X153351091Y-114901658D01*
X153351092Y-114901659D01*
X153496079Y-114930500D01*
X153496082Y-114930500D01*
X153643920Y-114930500D01*
X153741462Y-114911096D01*
X153788913Y-114901658D01*
X153925495Y-114845084D01*
X154048416Y-114762951D01*
X154077447Y-114733920D01*
X156719499Y-114733920D01*
X156748340Y-114878907D01*
X156748343Y-114878917D01*
X156804912Y-115015488D01*
X156804919Y-115015501D01*
X156887048Y-115138415D01*
X156887051Y-115138419D01*
X156991580Y-115242948D01*
X156991584Y-115242951D01*
X157114498Y-115325080D01*
X157114511Y-115325087D01*
X157251082Y-115381656D01*
X157251087Y-115381658D01*
X157251091Y-115381658D01*
X157251092Y-115381659D01*
X157396079Y-115410500D01*
X157396082Y-115410500D01*
X157543920Y-115410500D01*
X157641462Y-115391096D01*
X157688913Y-115381658D01*
X157825495Y-115325084D01*
X157948416Y-115242951D01*
X158052951Y-115138416D01*
X158135084Y-115015495D01*
X158191658Y-114878913D01*
X158191659Y-114878905D01*
X158193427Y-114873081D01*
X158196217Y-114873927D01*
X158222661Y-114823052D01*
X158283287Y-114788319D01*
X158353066Y-114791877D01*
X158409844Y-114832595D01*
X158426679Y-114861468D01*
X158444914Y-114905491D01*
X158444919Y-114905501D01*
X158527048Y-115028415D01*
X158527051Y-115028419D01*
X158631580Y-115132948D01*
X158631584Y-115132951D01*
X158754498Y-115215080D01*
X158754511Y-115215087D01*
X158888291Y-115270500D01*
X158891087Y-115271658D01*
X158891091Y-115271658D01*
X158891092Y-115271659D01*
X159036079Y-115300500D01*
X159036082Y-115300500D01*
X159183920Y-115300500D01*
X159281462Y-115281096D01*
X159328913Y-115271658D01*
X159465495Y-115215084D01*
X159588416Y-115132951D01*
X159692951Y-115028416D01*
X159775084Y-114905495D01*
X159831658Y-114768913D01*
X159850733Y-114673021D01*
X159860500Y-114623920D01*
X159860500Y-114476079D01*
X159831659Y-114331092D01*
X159831658Y-114331091D01*
X159831658Y-114331087D01*
X159820650Y-114304511D01*
X159775087Y-114194511D01*
X159775080Y-114194498D01*
X159692951Y-114071584D01*
X159692948Y-114071580D01*
X159588419Y-113967051D01*
X159588415Y-113967048D01*
X159465501Y-113884919D01*
X159465492Y-113884914D01*
X159374846Y-113847368D01*
X159320443Y-113803527D01*
X159300682Y-113756998D01*
X159299020Y-113748644D01*
X159271658Y-113611087D01*
X159252995Y-113566031D01*
X159239694Y-113533920D01*
X163499499Y-113533920D01*
X163528340Y-113678907D01*
X163528343Y-113678917D01*
X163584912Y-113815488D01*
X163584919Y-113815501D01*
X163667048Y-113938415D01*
X163667051Y-113938419D01*
X163672380Y-113943748D01*
X163705865Y-114005071D01*
X163700881Y-114074763D01*
X163687802Y-114100318D01*
X163644921Y-114164495D01*
X163644912Y-114164511D01*
X163588343Y-114301082D01*
X163588340Y-114301092D01*
X163559500Y-114446079D01*
X163559500Y-114446082D01*
X163559500Y-114593918D01*
X163559500Y-114593920D01*
X163559499Y-114593920D01*
X163588340Y-114738907D01*
X163588343Y-114738917D01*
X163644912Y-114875488D01*
X163644919Y-114875501D01*
X163727048Y-114998415D01*
X163727051Y-114998419D01*
X163831580Y-115102948D01*
X163831584Y-115102951D01*
X163954498Y-115185080D01*
X163954511Y-115185087D01*
X164059125Y-115228419D01*
X164091087Y-115241658D01*
X164091091Y-115241658D01*
X164091092Y-115241659D01*
X164236079Y-115270500D01*
X164236082Y-115270500D01*
X164383920Y-115270500D01*
X164481462Y-115251096D01*
X164528913Y-115241658D01*
X164665495Y-115185084D01*
X164788416Y-115102951D01*
X164892951Y-114998416D01*
X164975084Y-114875495D01*
X164975734Y-114873927D01*
X164996448Y-114823918D01*
X165031658Y-114738913D01*
X165047670Y-114658416D01*
X165060500Y-114593920D01*
X165060500Y-114446079D01*
X165031659Y-114301092D01*
X165031658Y-114301091D01*
X165031658Y-114301087D01*
X165031656Y-114301082D01*
X164975087Y-114164511D01*
X164975080Y-114164498D01*
X164892951Y-114041584D01*
X164892948Y-114041580D01*
X164887619Y-114036251D01*
X164854134Y-113974928D01*
X164859118Y-113905236D01*
X164872198Y-113879679D01*
X164915080Y-113815501D01*
X164915080Y-113815500D01*
X164915084Y-113815495D01*
X164971658Y-113678913D01*
X164987217Y-113600695D01*
X165000500Y-113533920D01*
X165000500Y-113386079D01*
X164971659Y-113241092D01*
X164971658Y-113241091D01*
X164971658Y-113241087D01*
X164959775Y-113212398D01*
X164915087Y-113104511D01*
X164915080Y-113104498D01*
X164832951Y-112981584D01*
X164832948Y-112981580D01*
X164728419Y-112877051D01*
X164728415Y-112877048D01*
X164605501Y-112794919D01*
X164605488Y-112794912D01*
X164468917Y-112738343D01*
X164468907Y-112738340D01*
X164323920Y-112709500D01*
X164323918Y-112709500D01*
X164176082Y-112709500D01*
X164176080Y-112709500D01*
X164031092Y-112738340D01*
X164031082Y-112738343D01*
X163894511Y-112794912D01*
X163894498Y-112794919D01*
X163771584Y-112877048D01*
X163771580Y-112877051D01*
X163667051Y-112981580D01*
X163667048Y-112981584D01*
X163584919Y-113104498D01*
X163584912Y-113104511D01*
X163528343Y-113241082D01*
X163528340Y-113241092D01*
X163499500Y-113386079D01*
X163499500Y-113386082D01*
X163499500Y-113533918D01*
X163499500Y-113533920D01*
X163499499Y-113533920D01*
X159239694Y-113533920D01*
X159215087Y-113474511D01*
X159215085Y-113474507D01*
X159215084Y-113474505D01*
X159137297Y-113358088D01*
X159132951Y-113351583D01*
X159028419Y-113247051D01*
X159028415Y-113247048D01*
X158905501Y-113164919D01*
X158905488Y-113164912D01*
X158768917Y-113108343D01*
X158768907Y-113108340D01*
X158623920Y-113079500D01*
X158623918Y-113079500D01*
X158476082Y-113079500D01*
X158476080Y-113079500D01*
X158331092Y-113108340D01*
X158331082Y-113108343D01*
X158194511Y-113164912D01*
X158194498Y-113164919D01*
X158071584Y-113247048D01*
X158071580Y-113247051D01*
X157967051Y-113351580D01*
X157967048Y-113351584D01*
X157884919Y-113474498D01*
X157884912Y-113474511D01*
X157828343Y-113611082D01*
X157828340Y-113611092D01*
X157799500Y-113756079D01*
X157799500Y-113809244D01*
X157779815Y-113876283D01*
X157727011Y-113922038D01*
X157657853Y-113931982D01*
X157651308Y-113930861D01*
X157543920Y-113909500D01*
X157543918Y-113909500D01*
X157396082Y-113909500D01*
X157396080Y-113909500D01*
X157251092Y-113938340D01*
X157251082Y-113938343D01*
X157114511Y-113994912D01*
X157114498Y-113994919D01*
X156991584Y-114077048D01*
X156991580Y-114077051D01*
X156887051Y-114181580D01*
X156887048Y-114181584D01*
X156804919Y-114304498D01*
X156804912Y-114304511D01*
X156748343Y-114441082D01*
X156748340Y-114441092D01*
X156719500Y-114586079D01*
X156719500Y-114586082D01*
X156719500Y-114733918D01*
X156719500Y-114733920D01*
X156719499Y-114733920D01*
X154077447Y-114733920D01*
X154152951Y-114658416D01*
X154235084Y-114535495D01*
X154291658Y-114398913D01*
X154310436Y-114304511D01*
X154320500Y-114253920D01*
X154320500Y-114106079D01*
X154291659Y-113961092D01*
X154291658Y-113961091D01*
X154291658Y-113961087D01*
X154282269Y-113938419D01*
X154235087Y-113824511D01*
X154235080Y-113824498D01*
X154166996Y-113722604D01*
X154146118Y-113655927D01*
X154164602Y-113588547D01*
X154182413Y-113566035D01*
X154270033Y-113478416D01*
X154352166Y-113355495D01*
X154408740Y-113218913D01*
X154423541Y-113144505D01*
X154437582Y-113073920D01*
X154437582Y-112926079D01*
X154408741Y-112781092D01*
X154408740Y-112781091D01*
X154408740Y-112781087D01*
X154391035Y-112738343D01*
X154352169Y-112644511D01*
X154352162Y-112644498D01*
X154270033Y-112521584D01*
X154270030Y-112521580D01*
X154165501Y-112417051D01*
X154165497Y-112417048D01*
X154042583Y-112334919D01*
X154042567Y-112334910D01*
X154038399Y-112333184D01*
X154014509Y-112313929D01*
X153989311Y-112296434D01*
X153986111Y-112291041D01*
X153983999Y-112289339D01*
X153971301Y-112266081D01*
X153961485Y-112242384D01*
X153954015Y-112172915D01*
X153985289Y-112110435D01*
X154028590Y-112080370D01*
X154065495Y-112065084D01*
X154188416Y-111982951D01*
X154292951Y-111878416D01*
X154375084Y-111755495D01*
X154431658Y-111618913D01*
X154446459Y-111544505D01*
X154460500Y-111473920D01*
X154460500Y-111326079D01*
X154431659Y-111181092D01*
X154431658Y-111181091D01*
X154431658Y-111181087D01*
X154418574Y-111149500D01*
X154375087Y-111044511D01*
X154375080Y-111044498D01*
X154292951Y-110921584D01*
X154292948Y-110921580D01*
X154188419Y-110817051D01*
X154188415Y-110817048D01*
X154065501Y-110734919D01*
X154065488Y-110734912D01*
X153928917Y-110678343D01*
X153928907Y-110678340D01*
X153783920Y-110649500D01*
X153783918Y-110649500D01*
X153636082Y-110649500D01*
X153636080Y-110649500D01*
X153491092Y-110678340D01*
X153491082Y-110678343D01*
X153354511Y-110734912D01*
X153354498Y-110734919D01*
X153231584Y-110817048D01*
X153231580Y-110817051D01*
X153127051Y-110921580D01*
X153127048Y-110921584D01*
X153044919Y-111044498D01*
X153044912Y-111044511D01*
X152988343Y-111181082D01*
X152988340Y-111181092D01*
X152959500Y-111326079D01*
X152959500Y-111326082D01*
X152959500Y-111473918D01*
X152959500Y-111473920D01*
X152959499Y-111473920D01*
X152988340Y-111618907D01*
X152988341Y-111618908D01*
X152988342Y-111618913D01*
X153001698Y-111651157D01*
X153008516Y-111667617D01*
X153015984Y-111737087D01*
X152984708Y-111799566D01*
X152941408Y-111829630D01*
X152904505Y-111844916D01*
X152904498Y-111844919D01*
X152781584Y-111927048D01*
X152781580Y-111927051D01*
X152677051Y-112031580D01*
X152677048Y-112031584D01*
X152594919Y-112154498D01*
X152594912Y-112154511D01*
X152538343Y-112291082D01*
X152538340Y-112291092D01*
X152509500Y-112436079D01*
X152509500Y-112583918D01*
X152512959Y-112601307D01*
X152506733Y-112670898D01*
X152463870Y-112726076D01*
X152397981Y-112749322D01*
X152391342Y-112749500D01*
X152386080Y-112749500D01*
X152241092Y-112778340D01*
X152241082Y-112778343D01*
X152104511Y-112834912D01*
X152104498Y-112834919D01*
X151981584Y-112917048D01*
X151981580Y-112917051D01*
X151877051Y-113021580D01*
X151877048Y-113021584D01*
X151794919Y-113144498D01*
X151794912Y-113144511D01*
X151738343Y-113281082D01*
X151738340Y-113281092D01*
X151709500Y-113426079D01*
X151709500Y-113426082D01*
X151709500Y-113573918D01*
X151709500Y-113573920D01*
X151709499Y-113573920D01*
X151738340Y-113718907D01*
X151738343Y-113718917D01*
X151794916Y-113855496D01*
X151796307Y-113858099D01*
X151796623Y-113859618D01*
X151797247Y-113861124D01*
X151796961Y-113861242D01*
X151810548Y-113926502D01*
X151785547Y-113991745D01*
X151734401Y-114031111D01*
X151604508Y-114084914D01*
X151604498Y-114084919D01*
X151481584Y-114167048D01*
X151481580Y-114167051D01*
X151377051Y-114271580D01*
X151377048Y-114271584D01*
X151294919Y-114394498D01*
X151294912Y-114394511D01*
X151238343Y-114531082D01*
X151238340Y-114531092D01*
X151209500Y-114676079D01*
X151209500Y-114676082D01*
X151209500Y-114823918D01*
X151209500Y-114823920D01*
X151209499Y-114823920D01*
X119479513Y-114823920D01*
X119274297Y-114738917D01*
X119180706Y-114700150D01*
X118851572Y-114600308D01*
X118514248Y-114533210D01*
X118514249Y-114533210D01*
X118256456Y-114507821D01*
X118171969Y-114499500D01*
X117828031Y-114499500D01*
X117749966Y-114507188D01*
X117485750Y-114533210D01*
X117148427Y-114600308D01*
X116819293Y-114700150D01*
X116501535Y-114831770D01*
X116501530Y-114831772D01*
X116198224Y-114993893D01*
X116198206Y-114993904D01*
X115912248Y-115184975D01*
X115912234Y-115184985D01*
X115646367Y-115403176D01*
X115403176Y-115646367D01*
X115220353Y-115869139D01*
X115162608Y-115908473D01*
X115092763Y-115910344D01*
X115032995Y-115874157D01*
X115002279Y-115811401D01*
X115000500Y-115790474D01*
X115000500Y-110779983D01*
X123149500Y-110779983D01*
X123149500Y-112330001D01*
X123149501Y-112330018D01*
X123160000Y-112432796D01*
X123160001Y-112432799D01*
X123215185Y-112599331D01*
X123215187Y-112599336D01*
X123243051Y-112644511D01*
X123307288Y-112748656D01*
X123431344Y-112872712D01*
X123580666Y-112964814D01*
X123747203Y-113019999D01*
X123849991Y-113030500D01*
X125150008Y-113030499D01*
X125252797Y-113019999D01*
X125419334Y-112964814D01*
X125568656Y-112872712D01*
X125692712Y-112748656D01*
X125784814Y-112599334D01*
X125784814Y-112599331D01*
X125788178Y-112593879D01*
X125840126Y-112547154D01*
X125909088Y-112535931D01*
X125973170Y-112563774D01*
X125981398Y-112571294D01*
X126120213Y-112710109D01*
X126292179Y-112835048D01*
X126292181Y-112835049D01*
X126292184Y-112835051D01*
X126481588Y-112931557D01*
X126683757Y-112997246D01*
X126893713Y-113030500D01*
X126893714Y-113030500D01*
X127106286Y-113030500D01*
X127106287Y-113030500D01*
X127316243Y-112997246D01*
X127518412Y-112931557D01*
X127707816Y-112835051D01*
X127755373Y-112800499D01*
X127879786Y-112710109D01*
X127879788Y-112710106D01*
X127879792Y-112710104D01*
X128030104Y-112559792D01*
X128149683Y-112395204D01*
X128205011Y-112352540D01*
X128274624Y-112346561D01*
X128336420Y-112379166D01*
X128350313Y-112395199D01*
X128452560Y-112535931D01*
X128469896Y-112559792D01*
X128620213Y-112710109D01*
X128792179Y-112835048D01*
X128792181Y-112835049D01*
X128792184Y-112835051D01*
X128981588Y-112931557D01*
X129183757Y-112997246D01*
X129393713Y-113030500D01*
X129393714Y-113030500D01*
X129606286Y-113030500D01*
X129606287Y-113030500D01*
X129816243Y-112997246D01*
X130018412Y-112931557D01*
X130207816Y-112835051D01*
X130255373Y-112800499D01*
X130379786Y-112710109D01*
X130379788Y-112710106D01*
X130379792Y-112710104D01*
X130530104Y-112559792D01*
X130530106Y-112559788D01*
X130530109Y-112559786D01*
X130655048Y-112387820D01*
X130655047Y-112387820D01*
X130655051Y-112387816D01*
X130751557Y-112198412D01*
X130817246Y-111996243D01*
X130820782Y-111973920D01*
X136824499Y-111973920D01*
X136853340Y-112118907D01*
X136853343Y-112118917D01*
X136909912Y-112255488D01*
X136909919Y-112255501D01*
X136992048Y-112378415D01*
X136992051Y-112378419D01*
X137096580Y-112482948D01*
X137096584Y-112482951D01*
X137219498Y-112565080D01*
X137219511Y-112565087D01*
X137306955Y-112601307D01*
X137356087Y-112621658D01*
X137356091Y-112621658D01*
X137356092Y-112621659D01*
X137501079Y-112650500D01*
X137501082Y-112650500D01*
X137648920Y-112650500D01*
X137746462Y-112631096D01*
X137793913Y-112621658D01*
X137905361Y-112575495D01*
X137930488Y-112565087D01*
X137930488Y-112565086D01*
X137930495Y-112565084D01*
X138053416Y-112482951D01*
X138157951Y-112378416D01*
X138240084Y-112255495D01*
X138296658Y-112118913D01*
X138321060Y-111996239D01*
X138325500Y-111973920D01*
X138325500Y-111921153D01*
X139949500Y-111921153D01*
X139949500Y-112078846D01*
X139980261Y-112233489D01*
X139980264Y-112233501D01*
X140040602Y-112379172D01*
X140040609Y-112379185D01*
X140128210Y-112510288D01*
X140128213Y-112510292D01*
X140239707Y-112621786D01*
X140239711Y-112621789D01*
X140370814Y-112709390D01*
X140370827Y-112709397D01*
X140516498Y-112769735D01*
X140516503Y-112769737D01*
X140643086Y-112794916D01*
X140671153Y-112800499D01*
X140671156Y-112800500D01*
X140671158Y-112800500D01*
X140828844Y-112800500D01*
X140828845Y-112800499D01*
X140983497Y-112769737D01*
X141129179Y-112709394D01*
X141260289Y-112621789D01*
X141371789Y-112510289D01*
X141459394Y-112379179D01*
X141459711Y-112378415D01*
X141494709Y-112293920D01*
X147139499Y-112293920D01*
X147168340Y-112438907D01*
X147168343Y-112438917D01*
X147224912Y-112575488D01*
X147224919Y-112575501D01*
X147307048Y-112698415D01*
X147307051Y-112698419D01*
X147411580Y-112802948D01*
X147411584Y-112802951D01*
X147534498Y-112885080D01*
X147534511Y-112885087D01*
X147633483Y-112926082D01*
X147671087Y-112941658D01*
X147671091Y-112941658D01*
X147671092Y-112941659D01*
X147816079Y-112970500D01*
X147816082Y-112970500D01*
X147963920Y-112970500D01*
X148061462Y-112951096D01*
X148108913Y-112941658D01*
X148245495Y-112885084D01*
X148245495Y-112885083D01*
X148249138Y-112883575D01*
X148318608Y-112876106D01*
X148381087Y-112907381D01*
X148416739Y-112967470D01*
X148420591Y-112998136D01*
X148420591Y-113057755D01*
X148451352Y-113212398D01*
X148451355Y-113212410D01*
X148511693Y-113358081D01*
X148511700Y-113358094D01*
X148599301Y-113489197D01*
X148599304Y-113489201D01*
X148710798Y-113600695D01*
X148710802Y-113600698D01*
X148841905Y-113688299D01*
X148841918Y-113688306D01*
X148987589Y-113748644D01*
X148987594Y-113748646D01*
X149142244Y-113779408D01*
X149142247Y-113779409D01*
X149142249Y-113779409D01*
X149299935Y-113779409D01*
X149299936Y-113779408D01*
X149454588Y-113748646D01*
X149600270Y-113688303D01*
X149731380Y-113600698D01*
X149842880Y-113489198D01*
X149930485Y-113358088D01*
X149933180Y-113351583D01*
X149944158Y-113325075D01*
X149990828Y-113212406D01*
X150021591Y-113057751D01*
X150021591Y-112900067D01*
X150021591Y-112900064D01*
X150021590Y-112900062D01*
X150018610Y-112885080D01*
X149990828Y-112745412D01*
X149971362Y-112698416D01*
X149930488Y-112599736D01*
X149930481Y-112599723D01*
X149842880Y-112468620D01*
X149842877Y-112468616D01*
X149731383Y-112357122D01*
X149731379Y-112357119D01*
X149600276Y-112269518D01*
X149600263Y-112269511D01*
X149454592Y-112209173D01*
X149454580Y-112209170D01*
X149299936Y-112178409D01*
X149299933Y-112178409D01*
X149142249Y-112178409D01*
X149142246Y-112178409D01*
X148987601Y-112209170D01*
X148987589Y-112209173D01*
X148841918Y-112269511D01*
X148841900Y-112269521D01*
X148833386Y-112275210D01*
X148766708Y-112296085D01*
X148699328Y-112277598D01*
X148652641Y-112225617D01*
X148640500Y-112172105D01*
X148640500Y-112146079D01*
X148611659Y-112001092D01*
X148611658Y-112001091D01*
X148611658Y-112001087D01*
X148600404Y-111973918D01*
X148555087Y-111864511D01*
X148555080Y-111864498D01*
X148472951Y-111741584D01*
X148472948Y-111741580D01*
X148368419Y-111637051D01*
X148368415Y-111637048D01*
X148245501Y-111554919D01*
X148245488Y-111554912D01*
X148108917Y-111498343D01*
X148108907Y-111498340D01*
X147963920Y-111469500D01*
X147963918Y-111469500D01*
X147816082Y-111469500D01*
X147816080Y-111469500D01*
X147671092Y-111498340D01*
X147671082Y-111498343D01*
X147534511Y-111554912D01*
X147534498Y-111554919D01*
X147411584Y-111637048D01*
X147411580Y-111637051D01*
X147307051Y-111741580D01*
X147307048Y-111741584D01*
X147224919Y-111864498D01*
X147224912Y-111864511D01*
X147168343Y-112001082D01*
X147168340Y-112001092D01*
X147139500Y-112146079D01*
X147139500Y-112146082D01*
X147139500Y-112293918D01*
X147139500Y-112293920D01*
X147139499Y-112293920D01*
X141494709Y-112293920D01*
X141494710Y-112293918D01*
X141519737Y-112233497D01*
X141541083Y-112126183D01*
X141543149Y-112115799D01*
X141543149Y-112115797D01*
X141550500Y-112078843D01*
X141550500Y-111921155D01*
X141550499Y-111921153D01*
X141543324Y-111885084D01*
X141519737Y-111766503D01*
X141515177Y-111755495D01*
X141459397Y-111620827D01*
X141459390Y-111620814D01*
X141371789Y-111489711D01*
X141371786Y-111489707D01*
X141260292Y-111378213D01*
X141260288Y-111378210D01*
X141129185Y-111290609D01*
X141129172Y-111290602D01*
X140983501Y-111230264D01*
X140983489Y-111230261D01*
X140828845Y-111199500D01*
X140828842Y-111199500D01*
X140671158Y-111199500D01*
X140671155Y-111199500D01*
X140516510Y-111230261D01*
X140516498Y-111230264D01*
X140370827Y-111290602D01*
X140370814Y-111290609D01*
X140239711Y-111378210D01*
X140239707Y-111378213D01*
X140128213Y-111489707D01*
X140128210Y-111489711D01*
X140040609Y-111620814D01*
X140040602Y-111620827D01*
X139980264Y-111766498D01*
X139980261Y-111766510D01*
X139949500Y-111921153D01*
X138325500Y-111921153D01*
X138325500Y-111826079D01*
X138296659Y-111681092D01*
X138296658Y-111681091D01*
X138296658Y-111681087D01*
X138278417Y-111637049D01*
X138240087Y-111544511D01*
X138240080Y-111544498D01*
X138157951Y-111421584D01*
X138157948Y-111421580D01*
X138053419Y-111317051D01*
X138053415Y-111317048D01*
X137930501Y-111234919D01*
X137930488Y-111234912D01*
X137793917Y-111178343D01*
X137793907Y-111178340D01*
X137648920Y-111149500D01*
X137648918Y-111149500D01*
X137501082Y-111149500D01*
X137501080Y-111149500D01*
X137356092Y-111178340D01*
X137356082Y-111178343D01*
X137219511Y-111234912D01*
X137219498Y-111234919D01*
X137096584Y-111317048D01*
X137096580Y-111317051D01*
X136992051Y-111421580D01*
X136992048Y-111421584D01*
X136909919Y-111544498D01*
X136909912Y-111544511D01*
X136853343Y-111681082D01*
X136853340Y-111681092D01*
X136824500Y-111826079D01*
X136824500Y-111826082D01*
X136824500Y-111973918D01*
X136824500Y-111973920D01*
X136824499Y-111973920D01*
X130820782Y-111973920D01*
X130850500Y-111786287D01*
X130850500Y-111323713D01*
X130817246Y-111113757D01*
X130751557Y-110911588D01*
X130655051Y-110722184D01*
X130655049Y-110722181D01*
X130655048Y-110722179D01*
X130542996Y-110567951D01*
X130530109Y-110550214D01*
X130530105Y-110550209D01*
X130481049Y-110501153D01*
X132919500Y-110501153D01*
X132919500Y-110658846D01*
X132950261Y-110813489D01*
X132950264Y-110813501D01*
X133010602Y-110959172D01*
X133010609Y-110959185D01*
X133098210Y-111090288D01*
X133098213Y-111090292D01*
X133209707Y-111201786D01*
X133209711Y-111201789D01*
X133340814Y-111289390D01*
X133340827Y-111289397D01*
X133429387Y-111326079D01*
X133486503Y-111349737D01*
X133629661Y-111378213D01*
X133641153Y-111380499D01*
X133641156Y-111380500D01*
X133641158Y-111380500D01*
X133798844Y-111380500D01*
X133798845Y-111380499D01*
X133953497Y-111349737D01*
X134099179Y-111289394D01*
X134230289Y-111201789D01*
X134341789Y-111090289D01*
X134429394Y-110959179D01*
X134445145Y-110921153D01*
X143179500Y-110921153D01*
X143179500Y-111078846D01*
X143210261Y-111233489D01*
X143210264Y-111233501D01*
X143270602Y-111379172D01*
X143270609Y-111379185D01*
X143358210Y-111510288D01*
X143358213Y-111510292D01*
X143469707Y-111621786D01*
X143469711Y-111621789D01*
X143600814Y-111709390D01*
X143600827Y-111709397D01*
X143712134Y-111755501D01*
X143746503Y-111769737D01*
X143901153Y-111800499D01*
X143901156Y-111800500D01*
X143901158Y-111800500D01*
X144058844Y-111800500D01*
X144058845Y-111800499D01*
X144213497Y-111769737D01*
X144326166Y-111723067D01*
X144359172Y-111709397D01*
X144359172Y-111709396D01*
X144359179Y-111709394D01*
X144401536Y-111681092D01*
X144446337Y-111651157D01*
X144513014Y-111630279D01*
X144580394Y-111648763D01*
X144618329Y-111685367D01*
X144627046Y-111698413D01*
X144627051Y-111698419D01*
X144731580Y-111802948D01*
X144731584Y-111802951D01*
X144854498Y-111885080D01*
X144854511Y-111885087D01*
X144991082Y-111941656D01*
X144991087Y-111941658D01*
X144991091Y-111941658D01*
X144991092Y-111941659D01*
X145136079Y-111970500D01*
X145136082Y-111970500D01*
X145283920Y-111970500D01*
X145385528Y-111950288D01*
X145428913Y-111941658D01*
X145565495Y-111885084D01*
X145688416Y-111802951D01*
X145792951Y-111698416D01*
X145875084Y-111575495D01*
X145931658Y-111438913D01*
X145947125Y-111361158D01*
X145960500Y-111293920D01*
X145960500Y-111146079D01*
X145931659Y-111001092D01*
X145931658Y-111001091D01*
X145931658Y-111001087D01*
X145902693Y-110931158D01*
X145875087Y-110864511D01*
X145875080Y-110864498D01*
X145792951Y-110741584D01*
X145792948Y-110741580D01*
X145688419Y-110637051D01*
X145688415Y-110637048D01*
X145565501Y-110554919D01*
X145565488Y-110554912D01*
X145428917Y-110498343D01*
X145428907Y-110498340D01*
X145283920Y-110469500D01*
X145283918Y-110469500D01*
X145136082Y-110469500D01*
X145136080Y-110469500D01*
X144991092Y-110498340D01*
X144991082Y-110498343D01*
X144854511Y-110554912D01*
X144854498Y-110554919D01*
X144813015Y-110582638D01*
X144811407Y-110583141D01*
X144810294Y-110584405D01*
X144778180Y-110593545D01*
X144746337Y-110603516D01*
X144744713Y-110603070D01*
X144743093Y-110603532D01*
X144711124Y-110593855D01*
X144678957Y-110585031D01*
X144677315Y-110583622D01*
X144676220Y-110583291D01*
X144671619Y-110578734D01*
X144649739Y-110559957D01*
X144645044Y-110554447D01*
X144601789Y-110489711D01*
X144521329Y-110409251D01*
X144521324Y-110409245D01*
X144490292Y-110378213D01*
X144490288Y-110378210D01*
X144419863Y-110331153D01*
X149949500Y-110331153D01*
X149949500Y-110488846D01*
X149980261Y-110643489D01*
X149980264Y-110643501D01*
X150040602Y-110789172D01*
X150040609Y-110789185D01*
X150128210Y-110920288D01*
X150128213Y-110920292D01*
X150239707Y-111031786D01*
X150239711Y-111031789D01*
X150370814Y-111119390D01*
X150370827Y-111119397D01*
X150516498Y-111179735D01*
X150516503Y-111179737D01*
X150651039Y-111206498D01*
X150671153Y-111210499D01*
X150671156Y-111210500D01*
X150671158Y-111210500D01*
X150828844Y-111210500D01*
X150828845Y-111210499D01*
X150983497Y-111179737D01*
X151129179Y-111119394D01*
X151260289Y-111031789D01*
X151371789Y-110920289D01*
X151459394Y-110789179D01*
X151519737Y-110643497D01*
X151550500Y-110488842D01*
X151550500Y-110331158D01*
X151550500Y-110331155D01*
X151550499Y-110331153D01*
X151539319Y-110274949D01*
X151519737Y-110176503D01*
X151506765Y-110145185D01*
X151459397Y-110030827D01*
X151459391Y-110030816D01*
X151441444Y-110003956D01*
X151441443Y-110003955D01*
X151399480Y-109941153D01*
X165149500Y-109941153D01*
X165149500Y-110098846D01*
X165180261Y-110253489D01*
X165180264Y-110253501D01*
X165240602Y-110399172D01*
X165240609Y-110399185D01*
X165328210Y-110530288D01*
X165328213Y-110530292D01*
X165439707Y-110641786D01*
X165439711Y-110641789D01*
X165570814Y-110729390D01*
X165570827Y-110729397D01*
X165692974Y-110779991D01*
X165716503Y-110789737D01*
X165859661Y-110818213D01*
X165871153Y-110820499D01*
X165871156Y-110820500D01*
X165871158Y-110820500D01*
X166028844Y-110820500D01*
X166028845Y-110820499D01*
X166183497Y-110789737D01*
X166267401Y-110754983D01*
X170399500Y-110754983D01*
X170399500Y-112355001D01*
X170399501Y-112355018D01*
X170410000Y-112457796D01*
X170410001Y-112457799D01*
X170463378Y-112618879D01*
X170465186Y-112624334D01*
X170557288Y-112773656D01*
X170681344Y-112897712D01*
X170830666Y-112989814D01*
X170997203Y-113044999D01*
X171099991Y-113055500D01*
X172400008Y-113055499D01*
X172502797Y-113044999D01*
X172669334Y-112989814D01*
X172818656Y-112897712D01*
X172942712Y-112773656D01*
X173034814Y-112624334D01*
X173034814Y-112624331D01*
X173038178Y-112618879D01*
X173090126Y-112572154D01*
X173159088Y-112560931D01*
X173223170Y-112588774D01*
X173231398Y-112596294D01*
X173370213Y-112735109D01*
X173542179Y-112860048D01*
X173542181Y-112860049D01*
X173542184Y-112860051D01*
X173731588Y-112956557D01*
X173933757Y-113022246D01*
X174143713Y-113055500D01*
X174143714Y-113055500D01*
X174356286Y-113055500D01*
X174356287Y-113055500D01*
X174566243Y-113022246D01*
X174768412Y-112956557D01*
X174957816Y-112860051D01*
X174992230Y-112835048D01*
X175129786Y-112735109D01*
X175129788Y-112735106D01*
X175129792Y-112735104D01*
X175280104Y-112584792D01*
X175280106Y-112584788D01*
X175280109Y-112584786D01*
X175401974Y-112417051D01*
X175405051Y-112412816D01*
X175501557Y-112223412D01*
X175567246Y-112021243D01*
X175600500Y-111811287D01*
X175600500Y-111361153D01*
X176659500Y-111361153D01*
X176659500Y-111518846D01*
X176690261Y-111673489D01*
X176690264Y-111673501D01*
X176750602Y-111819172D01*
X176750609Y-111819185D01*
X176838210Y-111950288D01*
X176838213Y-111950292D01*
X176949707Y-112061786D01*
X176949711Y-112061789D01*
X177080814Y-112149390D01*
X177080827Y-112149397D01*
X177206537Y-112201467D01*
X177226503Y-112209737D01*
X177345912Y-112233489D01*
X177381153Y-112240499D01*
X177381156Y-112240500D01*
X177381158Y-112240500D01*
X177538844Y-112240500D01*
X177538845Y-112240499D01*
X177693497Y-112209737D01*
X177806166Y-112163067D01*
X177839172Y-112149397D01*
X177839172Y-112149396D01*
X177839179Y-112149394D01*
X177970289Y-112061789D01*
X178081789Y-111950289D01*
X178169394Y-111819179D01*
X178229737Y-111673497D01*
X178260500Y-111518842D01*
X178260500Y-111361158D01*
X178260500Y-111361155D01*
X178260499Y-111361153D01*
X178253052Y-111323713D01*
X178229737Y-111206503D01*
X178226836Y-111199500D01*
X178169397Y-111060827D01*
X178169395Y-111060823D01*
X178169394Y-111060821D01*
X178101477Y-110959176D01*
X178082753Y-110931153D01*
X179629500Y-110931153D01*
X179629500Y-111088846D01*
X179660261Y-111243489D01*
X179660264Y-111243501D01*
X179720602Y-111389172D01*
X179720609Y-111389185D01*
X179808210Y-111520288D01*
X179808213Y-111520292D01*
X179919707Y-111631786D01*
X179919711Y-111631789D01*
X180050814Y-111719390D01*
X180050827Y-111719397D01*
X180172363Y-111769738D01*
X180196503Y-111779737D01*
X180313192Y-111802948D01*
X180351153Y-111810499D01*
X180351156Y-111810500D01*
X180351158Y-111810500D01*
X180508844Y-111810500D01*
X180508845Y-111810499D01*
X180663497Y-111779737D01*
X180809179Y-111719394D01*
X180940289Y-111631789D01*
X181051789Y-111520289D01*
X181139394Y-111389179D01*
X181143938Y-111378210D01*
X181180224Y-111290606D01*
X181199737Y-111243497D01*
X181230500Y-111088842D01*
X181230500Y-110931158D01*
X181230500Y-110931155D01*
X181230499Y-110931153D01*
X181217240Y-110864498D01*
X181199737Y-110776503D01*
X181185272Y-110741580D01*
X181139397Y-110630827D01*
X181139390Y-110630814D01*
X181051789Y-110499711D01*
X181051786Y-110499707D01*
X180940292Y-110388213D01*
X180940288Y-110388210D01*
X180809185Y-110300609D01*
X180809172Y-110300602D01*
X180663501Y-110240264D01*
X180663489Y-110240261D01*
X180508845Y-110209500D01*
X180508842Y-110209500D01*
X180351158Y-110209500D01*
X180351155Y-110209500D01*
X180196510Y-110240261D01*
X180196498Y-110240264D01*
X180050827Y-110300602D01*
X180050814Y-110300609D01*
X179919711Y-110388210D01*
X179919707Y-110388213D01*
X179808213Y-110499707D01*
X179808210Y-110499711D01*
X179720609Y-110630814D01*
X179720602Y-110630827D01*
X179660264Y-110776498D01*
X179660261Y-110776510D01*
X179629500Y-110931153D01*
X178082753Y-110931153D01*
X178081789Y-110929710D01*
X177970292Y-110818213D01*
X177970288Y-110818210D01*
X177839185Y-110730609D01*
X177839172Y-110730602D01*
X177693501Y-110670264D01*
X177693489Y-110670261D01*
X177538845Y-110639500D01*
X177538842Y-110639500D01*
X177381158Y-110639500D01*
X177381155Y-110639500D01*
X177226510Y-110670261D01*
X177226498Y-110670264D01*
X177080827Y-110730602D01*
X177080814Y-110730609D01*
X176949711Y-110818210D01*
X176949707Y-110818213D01*
X176838213Y-110929707D01*
X176838210Y-110929711D01*
X176750609Y-111060814D01*
X176750602Y-111060827D01*
X176690264Y-111206498D01*
X176690261Y-111206510D01*
X176659500Y-111361153D01*
X175600500Y-111361153D01*
X175600500Y-111298713D01*
X175567246Y-111088757D01*
X175501557Y-110886588D01*
X175405051Y-110697184D01*
X175405049Y-110697181D01*
X175405048Y-110697179D01*
X175280109Y-110525213D01*
X175129786Y-110374890D01*
X174957820Y-110249951D01*
X174768414Y-110153444D01*
X174768413Y-110153443D01*
X174768412Y-110153443D01*
X174566243Y-110087754D01*
X174566241Y-110087753D01*
X174566240Y-110087753D01*
X174404957Y-110062208D01*
X174356287Y-110054500D01*
X174143713Y-110054500D01*
X174095042Y-110062208D01*
X173933760Y-110087753D01*
X173731585Y-110153444D01*
X173542179Y-110249951D01*
X173370215Y-110374889D01*
X173231398Y-110513706D01*
X173170075Y-110547190D01*
X173100383Y-110542206D01*
X173044450Y-110500334D01*
X173038178Y-110491120D01*
X172942712Y-110336344D01*
X172818657Y-110212289D01*
X172818656Y-110212288D01*
X172669334Y-110120186D01*
X172502797Y-110065001D01*
X172502795Y-110065000D01*
X172400010Y-110054500D01*
X171099998Y-110054500D01*
X171099981Y-110054501D01*
X170997203Y-110065000D01*
X170997200Y-110065001D01*
X170830668Y-110120185D01*
X170830663Y-110120187D01*
X170681342Y-110212289D01*
X170557289Y-110336342D01*
X170465187Y-110485663D01*
X170465185Y-110485668D01*
X170443797Y-110550214D01*
X170410001Y-110652203D01*
X170410001Y-110652204D01*
X170410000Y-110652204D01*
X170399500Y-110754983D01*
X166267401Y-110754983D01*
X166299759Y-110741580D01*
X166329172Y-110729397D01*
X166329172Y-110729396D01*
X166329179Y-110729394D01*
X166329185Y-110729390D01*
X166449899Y-110648732D01*
X166449899Y-110648731D01*
X166460289Y-110641789D01*
X166571789Y-110530289D01*
X166659394Y-110399179D01*
X166663938Y-110388210D01*
X166700224Y-110300606D01*
X166719737Y-110253497D01*
X166750500Y-110098842D01*
X166750500Y-109941158D01*
X166750500Y-109941155D01*
X166750499Y-109941153D01*
X166724463Y-109810263D01*
X166719737Y-109786503D01*
X166716836Y-109779500D01*
X166659397Y-109640827D01*
X166659390Y-109640814D01*
X166571789Y-109509711D01*
X166571786Y-109509707D01*
X166460292Y-109398213D01*
X166460288Y-109398210D01*
X166329185Y-109310609D01*
X166329172Y-109310602D01*
X166183501Y-109250264D01*
X166183489Y-109250261D01*
X166028845Y-109219500D01*
X166028842Y-109219500D01*
X165871158Y-109219500D01*
X165871155Y-109219500D01*
X165716510Y-109250261D01*
X165716498Y-109250264D01*
X165570827Y-109310602D01*
X165570814Y-109310609D01*
X165439711Y-109398210D01*
X165439707Y-109398213D01*
X165328213Y-109509707D01*
X165328210Y-109509711D01*
X165240609Y-109640814D01*
X165240602Y-109640827D01*
X165180264Y-109786498D01*
X165180261Y-109786510D01*
X165149500Y-109941153D01*
X151399480Y-109941153D01*
X151371789Y-109899711D01*
X151371786Y-109899707D01*
X151260292Y-109788213D01*
X151260288Y-109788210D01*
X151129185Y-109700609D01*
X151129172Y-109700602D01*
X150983501Y-109640264D01*
X150983489Y-109640261D01*
X150828845Y-109609500D01*
X150828842Y-109609500D01*
X150671158Y-109609500D01*
X150671155Y-109609500D01*
X150516510Y-109640261D01*
X150516498Y-109640264D01*
X150370827Y-109700602D01*
X150370814Y-109700609D01*
X150239711Y-109788210D01*
X150239707Y-109788213D01*
X150128213Y-109899707D01*
X150128210Y-109899711D01*
X150040609Y-110030814D01*
X150040602Y-110030827D01*
X149980264Y-110176498D01*
X149980261Y-110176510D01*
X149949500Y-110331153D01*
X144419863Y-110331153D01*
X144359185Y-110290609D01*
X144359172Y-110290602D01*
X144213501Y-110230264D01*
X144213489Y-110230261D01*
X144058845Y-110199500D01*
X144058842Y-110199500D01*
X143901158Y-110199500D01*
X143901155Y-110199500D01*
X143746510Y-110230261D01*
X143746498Y-110230264D01*
X143600827Y-110290602D01*
X143600814Y-110290609D01*
X143469711Y-110378210D01*
X143469707Y-110378213D01*
X143358213Y-110489707D01*
X143358210Y-110489711D01*
X143270609Y-110620814D01*
X143270602Y-110620827D01*
X143210264Y-110766498D01*
X143210261Y-110766510D01*
X143179500Y-110921153D01*
X134445145Y-110921153D01*
X134468607Y-110864511D01*
X134472361Y-110855445D01*
X134489737Y-110813497D01*
X134520500Y-110658842D01*
X134520500Y-110501158D01*
X134520500Y-110501155D01*
X134520499Y-110501153D01*
X134502217Y-110409245D01*
X134489737Y-110346503D01*
X134470726Y-110300606D01*
X134429397Y-110200827D01*
X134429390Y-110200814D01*
X134341789Y-110069711D01*
X134341786Y-110069707D01*
X134230292Y-109958213D01*
X134230288Y-109958210D01*
X134099185Y-109870609D01*
X134099172Y-109870602D01*
X133953501Y-109810264D01*
X133953489Y-109810261D01*
X133907701Y-109801153D01*
X138519500Y-109801153D01*
X138519500Y-109958846D01*
X138550261Y-110113489D01*
X138550264Y-110113501D01*
X138610602Y-110259172D01*
X138610609Y-110259185D01*
X138698210Y-110390288D01*
X138698213Y-110390292D01*
X138809707Y-110501786D01*
X138809711Y-110501789D01*
X138940814Y-110589390D01*
X138940827Y-110589397D01*
X139071419Y-110643489D01*
X139086503Y-110649737D01*
X139189699Y-110670264D01*
X139241153Y-110680499D01*
X139241156Y-110680500D01*
X139241158Y-110680500D01*
X139398844Y-110680500D01*
X139398845Y-110680499D01*
X139553497Y-110649737D01*
X139699179Y-110589394D01*
X139830289Y-110501789D01*
X139941789Y-110390289D01*
X140029394Y-110259179D01*
X140038462Y-110237288D01*
X140063641Y-110176498D01*
X140089737Y-110113497D01*
X140120500Y-109958842D01*
X140120500Y-109801158D01*
X140120500Y-109801155D01*
X140120499Y-109801153D01*
X140103379Y-109715087D01*
X140089737Y-109646503D01*
X140087386Y-109640827D01*
X140029397Y-109500827D01*
X140029390Y-109500814D01*
X139941789Y-109369711D01*
X139941786Y-109369707D01*
X139830292Y-109258213D01*
X139830288Y-109258210D01*
X139699185Y-109170609D01*
X139699172Y-109170602D01*
X139553501Y-109110264D01*
X139553489Y-109110261D01*
X139398845Y-109079500D01*
X139398842Y-109079500D01*
X139241158Y-109079500D01*
X139241155Y-109079500D01*
X139086510Y-109110261D01*
X139086498Y-109110264D01*
X138940827Y-109170602D01*
X138940814Y-109170609D01*
X138809711Y-109258210D01*
X138809707Y-109258213D01*
X138698213Y-109369707D01*
X138698210Y-109369711D01*
X138610609Y-109500814D01*
X138610602Y-109500827D01*
X138550264Y-109646498D01*
X138550261Y-109646510D01*
X138519500Y-109801153D01*
X133907701Y-109801153D01*
X133798845Y-109779500D01*
X133798842Y-109779500D01*
X133641158Y-109779500D01*
X133641155Y-109779500D01*
X133486510Y-109810261D01*
X133486498Y-109810264D01*
X133340827Y-109870602D01*
X133340814Y-109870609D01*
X133209711Y-109958210D01*
X133209707Y-109958213D01*
X133098213Y-110069707D01*
X133098210Y-110069711D01*
X133010609Y-110200814D01*
X133010602Y-110200827D01*
X132950264Y-110346498D01*
X132950261Y-110346510D01*
X132919500Y-110501153D01*
X130481049Y-110501153D01*
X130379786Y-110399890D01*
X130207820Y-110274951D01*
X130018414Y-110178444D01*
X130018413Y-110178443D01*
X130018412Y-110178443D01*
X129816243Y-110112754D01*
X129816241Y-110112753D01*
X129816240Y-110112753D01*
X129654957Y-110087208D01*
X129606287Y-110079500D01*
X129393713Y-110079500D01*
X129345042Y-110087208D01*
X129183760Y-110112753D01*
X128981585Y-110178444D01*
X128792179Y-110274951D01*
X128620213Y-110399890D01*
X128469894Y-110550209D01*
X128469890Y-110550214D01*
X128350318Y-110714793D01*
X128294989Y-110757459D01*
X128225375Y-110763438D01*
X128163580Y-110730833D01*
X128149682Y-110714793D01*
X128030109Y-110550214D01*
X128030105Y-110550209D01*
X127879786Y-110399890D01*
X127707820Y-110274951D01*
X127518414Y-110178444D01*
X127518413Y-110178443D01*
X127518412Y-110178443D01*
X127316243Y-110112754D01*
X127316241Y-110112753D01*
X127316240Y-110112753D01*
X127154957Y-110087208D01*
X127106287Y-110079500D01*
X126893713Y-110079500D01*
X126845042Y-110087208D01*
X126683760Y-110112753D01*
X126481585Y-110178444D01*
X126292179Y-110274951D01*
X126120215Y-110399889D01*
X125981398Y-110538706D01*
X125920075Y-110572190D01*
X125850383Y-110567206D01*
X125794450Y-110525334D01*
X125788178Y-110516120D01*
X125692712Y-110361344D01*
X125568657Y-110237289D01*
X125568656Y-110237288D01*
X125470099Y-110176498D01*
X125419336Y-110145187D01*
X125419331Y-110145185D01*
X125417862Y-110144698D01*
X125252797Y-110090001D01*
X125252795Y-110090000D01*
X125150010Y-110079500D01*
X123849998Y-110079500D01*
X123849981Y-110079501D01*
X123747203Y-110090000D01*
X123747200Y-110090001D01*
X123580668Y-110145185D01*
X123580663Y-110145187D01*
X123431342Y-110237289D01*
X123307289Y-110361342D01*
X123215187Y-110510663D01*
X123215185Y-110510668D01*
X123194799Y-110572190D01*
X123160001Y-110677203D01*
X123160001Y-110677204D01*
X123160000Y-110677204D01*
X123149500Y-110779983D01*
X115000500Y-110779983D01*
X115000500Y-109123920D01*
X134509499Y-109123920D01*
X134538340Y-109268907D01*
X134538343Y-109268917D01*
X134594912Y-109405488D01*
X134594919Y-109405501D01*
X134677048Y-109528415D01*
X134677051Y-109528419D01*
X134781580Y-109632948D01*
X134781584Y-109632951D01*
X134904498Y-109715080D01*
X134904511Y-109715087D01*
X135041082Y-109771656D01*
X135041087Y-109771658D01*
X135041091Y-109771658D01*
X135041092Y-109771659D01*
X135186079Y-109800500D01*
X135186082Y-109800500D01*
X135333920Y-109800500D01*
X135431462Y-109781096D01*
X135478913Y-109771658D01*
X135615495Y-109715084D01*
X135718124Y-109646510D01*
X135738416Y-109632951D01*
X135842948Y-109528419D01*
X135842951Y-109528416D01*
X135925084Y-109405495D01*
X135981658Y-109268913D01*
X135999287Y-109180288D01*
X136010500Y-109123920D01*
X136010500Y-108976079D01*
X135981659Y-108831092D01*
X135981658Y-108831091D01*
X135981658Y-108831087D01*
X135981656Y-108831082D01*
X135925087Y-108694511D01*
X135925077Y-108694493D01*
X135854160Y-108588357D01*
X135833282Y-108521680D01*
X135851767Y-108454300D01*
X135869577Y-108431789D01*
X135962951Y-108338416D01*
X136045084Y-108215495D01*
X136055766Y-108189707D01*
X136071736Y-108151153D01*
X145029500Y-108151153D01*
X145029500Y-108308846D01*
X145060261Y-108463489D01*
X145060264Y-108463501D01*
X145120602Y-108609172D01*
X145120609Y-108609185D01*
X145208210Y-108740288D01*
X145208213Y-108740292D01*
X145319707Y-108851786D01*
X145319711Y-108851789D01*
X145450814Y-108939390D01*
X145450827Y-108939397D01*
X145539387Y-108976079D01*
X145596503Y-108999737D01*
X145751153Y-109030499D01*
X145751156Y-109030500D01*
X145751158Y-109030500D01*
X145908844Y-109030500D01*
X145908845Y-109030499D01*
X146063497Y-108999737D01*
X146209179Y-108939394D01*
X146340289Y-108851789D01*
X146451789Y-108740289D01*
X146539394Y-108609179D01*
X146599737Y-108463497D01*
X146599739Y-108463486D01*
X146600481Y-108461042D01*
X146601222Y-108459910D01*
X146602068Y-108457869D01*
X146602455Y-108458029D01*
X146638775Y-108402602D01*
X146694950Y-108375415D01*
X146723497Y-108369737D01*
X146869179Y-108309394D01*
X147000289Y-108221789D01*
X147111789Y-108110289D01*
X147199394Y-107979179D01*
X147259737Y-107833497D01*
X147290500Y-107678842D01*
X147290500Y-107521158D01*
X147290500Y-107521155D01*
X147290499Y-107521153D01*
X147259739Y-107366510D01*
X147259735Y-107366498D01*
X147249237Y-107341153D01*
X151079500Y-107341153D01*
X151079500Y-107498846D01*
X151110261Y-107653489D01*
X151110264Y-107653501D01*
X151170602Y-107799172D01*
X151170609Y-107799185D01*
X151258210Y-107930288D01*
X151258213Y-107930292D01*
X151369707Y-108041786D01*
X151369711Y-108041789D01*
X151500814Y-108129390D01*
X151500827Y-108129397D01*
X151646440Y-108189711D01*
X151646503Y-108189737D01*
X151801153Y-108220499D01*
X151801156Y-108220500D01*
X151801158Y-108220500D01*
X151958844Y-108220500D01*
X151958845Y-108220499D01*
X152113497Y-108189737D01*
X152259179Y-108129394D01*
X152390289Y-108041789D01*
X152501789Y-107930289D01*
X152507893Y-107921153D01*
X164149500Y-107921153D01*
X164149500Y-108078846D01*
X164180261Y-108233489D01*
X164180264Y-108233501D01*
X164240602Y-108379172D01*
X164240609Y-108379185D01*
X164328210Y-108510288D01*
X164328213Y-108510292D01*
X164439707Y-108621786D01*
X164439711Y-108621789D01*
X164570814Y-108709390D01*
X164570827Y-108709397D01*
X164666062Y-108748844D01*
X164716503Y-108769737D01*
X164871153Y-108800499D01*
X164871156Y-108800500D01*
X164871158Y-108800500D01*
X165028844Y-108800500D01*
X165028845Y-108800499D01*
X165183497Y-108769737D01*
X165329179Y-108709394D01*
X165460289Y-108621789D01*
X165490925Y-108591153D01*
X177199500Y-108591153D01*
X177199500Y-108748846D01*
X177230261Y-108903489D01*
X177230264Y-108903501D01*
X177290602Y-109049172D01*
X177290609Y-109049185D01*
X177378210Y-109180288D01*
X177378213Y-109180292D01*
X177489707Y-109291786D01*
X177489711Y-109291789D01*
X177620814Y-109379390D01*
X177620827Y-109379397D01*
X177766498Y-109439735D01*
X177766503Y-109439737D01*
X177917312Y-109469735D01*
X177921153Y-109470499D01*
X177921156Y-109470500D01*
X177921158Y-109470500D01*
X178078844Y-109470500D01*
X178078845Y-109470499D01*
X178233497Y-109439737D01*
X178379179Y-109379394D01*
X178510289Y-109291789D01*
X178621789Y-109180289D01*
X178709394Y-109049179D01*
X178769737Y-108903497D01*
X178800500Y-108748842D01*
X178800500Y-108621153D01*
X180179500Y-108621153D01*
X180179500Y-108778846D01*
X180210261Y-108933489D01*
X180210264Y-108933501D01*
X180270602Y-109079172D01*
X180270609Y-109079185D01*
X180358210Y-109210288D01*
X180358213Y-109210292D01*
X180469707Y-109321786D01*
X180469711Y-109321789D01*
X180600814Y-109409390D01*
X180600827Y-109409397D01*
X180674078Y-109439738D01*
X180746503Y-109469737D01*
X180901153Y-109500499D01*
X180901156Y-109500500D01*
X180901158Y-109500500D01*
X181058844Y-109500500D01*
X181058845Y-109500499D01*
X181213497Y-109469737D01*
X181359179Y-109409394D01*
X181490289Y-109321789D01*
X181601789Y-109210289D01*
X181689394Y-109079179D01*
X181749737Y-108933497D01*
X181780500Y-108778842D01*
X181780500Y-108621158D01*
X181780500Y-108621155D01*
X181780499Y-108621153D01*
X181758447Y-108510290D01*
X181749737Y-108466503D01*
X181737309Y-108436498D01*
X181689397Y-108320827D01*
X181689390Y-108320814D01*
X181601789Y-108189711D01*
X181601786Y-108189707D01*
X181490292Y-108078213D01*
X181490288Y-108078210D01*
X181359185Y-107990609D01*
X181359172Y-107990602D01*
X181213501Y-107930264D01*
X181213489Y-107930261D01*
X181058845Y-107899500D01*
X181058842Y-107899500D01*
X180901158Y-107899500D01*
X180901155Y-107899500D01*
X180746510Y-107930261D01*
X180746498Y-107930264D01*
X180600827Y-107990602D01*
X180600814Y-107990609D01*
X180469711Y-108078210D01*
X180469707Y-108078213D01*
X180358213Y-108189707D01*
X180358210Y-108189711D01*
X180270609Y-108320814D01*
X180270602Y-108320827D01*
X180210264Y-108466498D01*
X180210261Y-108466510D01*
X180179500Y-108621153D01*
X178800500Y-108621153D01*
X178800500Y-108591158D01*
X178800500Y-108591155D01*
X178800499Y-108591153D01*
X178786680Y-108521680D01*
X178769737Y-108436503D01*
X178749779Y-108388319D01*
X178709397Y-108290827D01*
X178709390Y-108290814D01*
X178621789Y-108159711D01*
X178621786Y-108159707D01*
X178510292Y-108048213D01*
X178510288Y-108048210D01*
X178379185Y-107960609D01*
X178379172Y-107960602D01*
X178233501Y-107900264D01*
X178233489Y-107900261D01*
X178078845Y-107869500D01*
X178078842Y-107869500D01*
X177921158Y-107869500D01*
X177921155Y-107869500D01*
X177766510Y-107900261D01*
X177766498Y-107900264D01*
X177620827Y-107960602D01*
X177620814Y-107960609D01*
X177489711Y-108048210D01*
X177489707Y-108048213D01*
X177378213Y-108159707D01*
X177378210Y-108159711D01*
X177290609Y-108290814D01*
X177290602Y-108290827D01*
X177230264Y-108436498D01*
X177230261Y-108436510D01*
X177199500Y-108591153D01*
X165490925Y-108591153D01*
X165571789Y-108510289D01*
X165659394Y-108379179D01*
X165719737Y-108233497D01*
X165750500Y-108078842D01*
X165750500Y-107921158D01*
X165750500Y-107921155D01*
X165750499Y-107921153D01*
X165746192Y-107899500D01*
X165719737Y-107766503D01*
X165683427Y-107678842D01*
X165659397Y-107620827D01*
X165659390Y-107620814D01*
X165571789Y-107489711D01*
X165571786Y-107489707D01*
X165460292Y-107378213D01*
X165460288Y-107378210D01*
X165329185Y-107290609D01*
X165329172Y-107290602D01*
X165183501Y-107230264D01*
X165183489Y-107230261D01*
X165028845Y-107199500D01*
X165028842Y-107199500D01*
X164871158Y-107199500D01*
X164871155Y-107199500D01*
X164716510Y-107230261D01*
X164716498Y-107230264D01*
X164570827Y-107290602D01*
X164570814Y-107290609D01*
X164439711Y-107378210D01*
X164439707Y-107378213D01*
X164328213Y-107489707D01*
X164328210Y-107489711D01*
X164240609Y-107620814D01*
X164240602Y-107620827D01*
X164180264Y-107766498D01*
X164180261Y-107766510D01*
X164149500Y-107921153D01*
X152507893Y-107921153D01*
X152542407Y-107869500D01*
X152557993Y-107846175D01*
X152589390Y-107799185D01*
X152589390Y-107799184D01*
X152589394Y-107799179D01*
X152649737Y-107653497D01*
X152680500Y-107498842D01*
X152680500Y-107341158D01*
X152680500Y-107341155D01*
X152680499Y-107341153D01*
X152670445Y-107290609D01*
X152649737Y-107186503D01*
X152647876Y-107182011D01*
X152589397Y-107040827D01*
X152589390Y-107040814D01*
X152501789Y-106909711D01*
X152501786Y-106909707D01*
X152390292Y-106798213D01*
X152390288Y-106798210D01*
X152259185Y-106710609D01*
X152259172Y-106710602D01*
X152113501Y-106650264D01*
X152113489Y-106650261D01*
X151958845Y-106619500D01*
X151958842Y-106619500D01*
X151801158Y-106619500D01*
X151801155Y-106619500D01*
X151646510Y-106650261D01*
X151646498Y-106650264D01*
X151500827Y-106710602D01*
X151500814Y-106710609D01*
X151369711Y-106798210D01*
X151369707Y-106798213D01*
X151258213Y-106909707D01*
X151258210Y-106909711D01*
X151170609Y-107040814D01*
X151170602Y-107040827D01*
X151110264Y-107186498D01*
X151110261Y-107186510D01*
X151079500Y-107341153D01*
X147249237Y-107341153D01*
X147199397Y-107220827D01*
X147199390Y-107220814D01*
X147111789Y-107089711D01*
X147111786Y-107089707D01*
X147000292Y-106978213D01*
X147000288Y-106978210D01*
X146869185Y-106890609D01*
X146869172Y-106890602D01*
X146723501Y-106830264D01*
X146723489Y-106830261D01*
X146568845Y-106799500D01*
X146568842Y-106799500D01*
X146411158Y-106799500D01*
X146411155Y-106799500D01*
X146256510Y-106830261D01*
X146256498Y-106830264D01*
X146110827Y-106890602D01*
X146110814Y-106890609D01*
X145979711Y-106978210D01*
X145979707Y-106978213D01*
X145868213Y-107089707D01*
X145868210Y-107089711D01*
X145780609Y-107220814D01*
X145780602Y-107220827D01*
X145720261Y-107366505D01*
X145719514Y-107368970D01*
X145718771Y-107370102D01*
X145717932Y-107372130D01*
X145717547Y-107371970D01*
X145681213Y-107427406D01*
X145625049Y-107454584D01*
X145596506Y-107460261D01*
X145596500Y-107460263D01*
X145450827Y-107520602D01*
X145450814Y-107520609D01*
X145319711Y-107608210D01*
X145319707Y-107608213D01*
X145208213Y-107719707D01*
X145208210Y-107719711D01*
X145120609Y-107850814D01*
X145120602Y-107850827D01*
X145060264Y-107996498D01*
X145060261Y-107996510D01*
X145029500Y-108151153D01*
X136071736Y-108151153D01*
X136093912Y-108097614D01*
X136093912Y-108097613D01*
X136101658Y-108078913D01*
X136111096Y-108031462D01*
X136130500Y-107933920D01*
X136130500Y-107786079D01*
X136101659Y-107641092D01*
X136101658Y-107641091D01*
X136101658Y-107641087D01*
X136088041Y-107608213D01*
X136045087Y-107504511D01*
X136045080Y-107504498D01*
X135962951Y-107381584D01*
X135962948Y-107381580D01*
X135858419Y-107277051D01*
X135858415Y-107277048D01*
X135735501Y-107194919D01*
X135735488Y-107194912D01*
X135598917Y-107138343D01*
X135598907Y-107138340D01*
X135453920Y-107109500D01*
X135453918Y-107109500D01*
X135306082Y-107109500D01*
X135306080Y-107109500D01*
X135161092Y-107138340D01*
X135161082Y-107138343D01*
X135024511Y-107194912D01*
X135024498Y-107194919D01*
X134901584Y-107277048D01*
X134901580Y-107277051D01*
X134797051Y-107381580D01*
X134797048Y-107381584D01*
X134714919Y-107504498D01*
X134714912Y-107504511D01*
X134658343Y-107641082D01*
X134658340Y-107641092D01*
X134629500Y-107786079D01*
X134629500Y-107786082D01*
X134629500Y-107933918D01*
X134629500Y-107933920D01*
X134629499Y-107933920D01*
X134658340Y-108078907D01*
X134658343Y-108078917D01*
X134714912Y-108215488D01*
X134714918Y-108215499D01*
X134785840Y-108321642D01*
X134806717Y-108388319D01*
X134788232Y-108455699D01*
X134770419Y-108478213D01*
X134677048Y-108571584D01*
X134594919Y-108694498D01*
X134594912Y-108694511D01*
X134538343Y-108831082D01*
X134538340Y-108831092D01*
X134509500Y-108976079D01*
X134509500Y-108976082D01*
X134509500Y-109123918D01*
X134509500Y-109123920D01*
X134509499Y-109123920D01*
X115000500Y-109123920D01*
X115000500Y-106273920D01*
X139449499Y-106273920D01*
X139478340Y-106418907D01*
X139478343Y-106418917D01*
X139534912Y-106555488D01*
X139534919Y-106555501D01*
X139617048Y-106678415D01*
X139617051Y-106678419D01*
X139721580Y-106782948D01*
X139721584Y-106782951D01*
X139844498Y-106865080D01*
X139844511Y-106865087D01*
X139952244Y-106909711D01*
X139981087Y-106921658D01*
X139981089Y-106921658D01*
X139981091Y-106921659D01*
X139982519Y-106921943D01*
X139983198Y-106922298D01*
X139986919Y-106923427D01*
X139986704Y-106924132D01*
X140044431Y-106954325D01*
X140061435Y-106974670D01*
X140130129Y-107077479D01*
X140234661Y-107182011D01*
X140234665Y-107182014D01*
X140357579Y-107264143D01*
X140357592Y-107264150D01*
X140494163Y-107320719D01*
X140494168Y-107320721D01*
X140494172Y-107320721D01*
X140494173Y-107320722D01*
X140639160Y-107349563D01*
X140639163Y-107349563D01*
X140787001Y-107349563D01*
X140884543Y-107330159D01*
X140931994Y-107320721D01*
X141037628Y-107276965D01*
X141068569Y-107264150D01*
X141068569Y-107264149D01*
X141068576Y-107264147D01*
X141191497Y-107182014D01*
X141296032Y-107077479D01*
X141378165Y-106954558D01*
X141434739Y-106817976D01*
X141456098Y-106710602D01*
X141463581Y-106672983D01*
X141463581Y-106525142D01*
X141434740Y-106380155D01*
X141434739Y-106380154D01*
X141434739Y-106380150D01*
X141419161Y-106342541D01*
X141378168Y-106243574D01*
X141378161Y-106243561D01*
X141296032Y-106120647D01*
X141296029Y-106120643D01*
X141191500Y-106016114D01*
X141191495Y-106016110D01*
X141179610Y-106008169D01*
X141179608Y-106008168D01*
X141068582Y-105933982D01*
X141068569Y-105933975D01*
X141013471Y-105911153D01*
X165149500Y-105911153D01*
X165149500Y-106068846D01*
X165180261Y-106223489D01*
X165180264Y-106223501D01*
X165240602Y-106369172D01*
X165240609Y-106369185D01*
X165328210Y-106500288D01*
X165328213Y-106500292D01*
X165439707Y-106611786D01*
X165439711Y-106611789D01*
X165570814Y-106699390D01*
X165570827Y-106699397D01*
X165716498Y-106759735D01*
X165716503Y-106759737D01*
X165833192Y-106782948D01*
X165871153Y-106790499D01*
X165871156Y-106790500D01*
X165871158Y-106790500D01*
X166028844Y-106790500D01*
X166028845Y-106790499D01*
X166183497Y-106759737D01*
X166329179Y-106699394D01*
X166460289Y-106611789D01*
X166571789Y-106500289D01*
X166659394Y-106369179D01*
X166719737Y-106223497D01*
X166750500Y-106068842D01*
X166750500Y-105911158D01*
X166750500Y-105911155D01*
X166750499Y-105911153D01*
X166743729Y-105877118D01*
X166719737Y-105756503D01*
X166719735Y-105756498D01*
X166685531Y-105673920D01*
X175689499Y-105673920D01*
X175718340Y-105818907D01*
X175718343Y-105818917D01*
X175774912Y-105955488D01*
X175774919Y-105955501D01*
X175857048Y-106078415D01*
X175857051Y-106078419D01*
X175961580Y-106182948D01*
X175961584Y-106182951D01*
X176084498Y-106265080D01*
X176084511Y-106265087D01*
X176185499Y-106306917D01*
X176221087Y-106321658D01*
X176221091Y-106321658D01*
X176221092Y-106321659D01*
X176366079Y-106350500D01*
X176366082Y-106350500D01*
X176513919Y-106350500D01*
X176553931Y-106342541D01*
X176623522Y-106348768D01*
X176678700Y-106391630D01*
X176699740Y-106439966D01*
X176731025Y-106597245D01*
X176731027Y-106597251D01*
X176802676Y-106770228D01*
X176802681Y-106770237D01*
X176906697Y-106925907D01*
X176906700Y-106925911D01*
X177039088Y-107058299D01*
X177039092Y-107058302D01*
X177194762Y-107162318D01*
X177194768Y-107162321D01*
X177194769Y-107162322D01*
X177367749Y-107233973D01*
X177551379Y-107270499D01*
X177551383Y-107270500D01*
X177551384Y-107270500D01*
X178838617Y-107270500D01*
X178838618Y-107270499D01*
X179022251Y-107233973D01*
X179195231Y-107162322D01*
X179350908Y-107058302D01*
X179483302Y-106925908D01*
X179587322Y-106770231D01*
X179658973Y-106597251D01*
X179695500Y-106413616D01*
X179695500Y-106226384D01*
X179695499Y-106226379D01*
X181014500Y-106226379D01*
X181014500Y-106413620D01*
X181051025Y-106597243D01*
X181051027Y-106597251D01*
X181122676Y-106770228D01*
X181122681Y-106770237D01*
X181226697Y-106925907D01*
X181226700Y-106925911D01*
X181359088Y-107058299D01*
X181359092Y-107058302D01*
X181514762Y-107162318D01*
X181514768Y-107162321D01*
X181514769Y-107162322D01*
X181687749Y-107233973D01*
X181871379Y-107270499D01*
X181871383Y-107270500D01*
X181871384Y-107270500D01*
X182858617Y-107270500D01*
X182858618Y-107270499D01*
X183042251Y-107233973D01*
X183215231Y-107162322D01*
X183370908Y-107058302D01*
X183503302Y-106925908D01*
X183607322Y-106770231D01*
X183678973Y-106597251D01*
X183715500Y-106413616D01*
X183715500Y-106226384D01*
X183678973Y-106042749D01*
X183610366Y-105877118D01*
X183607323Y-105869771D01*
X183607318Y-105869762D01*
X183503302Y-105714092D01*
X183503299Y-105714088D01*
X183370911Y-105581700D01*
X183370907Y-105581697D01*
X183215237Y-105477681D01*
X183215228Y-105477676D01*
X183042251Y-105406027D01*
X183042243Y-105406025D01*
X182858620Y-105369500D01*
X182858616Y-105369500D01*
X181871384Y-105369500D01*
X181871379Y-105369500D01*
X181687756Y-105406025D01*
X181687748Y-105406027D01*
X181514771Y-105477676D01*
X181514762Y-105477681D01*
X181359092Y-105581697D01*
X181359088Y-105581700D01*
X181226700Y-105714088D01*
X181226697Y-105714092D01*
X181122681Y-105869762D01*
X181122676Y-105869771D01*
X181051027Y-106042748D01*
X181051025Y-106042756D01*
X181014500Y-106226379D01*
X179695499Y-106226379D01*
X179658973Y-106042749D01*
X179590366Y-105877118D01*
X179587323Y-105869771D01*
X179587318Y-105869762D01*
X179483302Y-105714092D01*
X179483299Y-105714088D01*
X179350911Y-105581700D01*
X179350907Y-105581697D01*
X179195237Y-105477681D01*
X179195228Y-105477676D01*
X179022251Y-105406027D01*
X179022243Y-105406025D01*
X178838620Y-105369500D01*
X178838616Y-105369500D01*
X177551384Y-105369500D01*
X177551379Y-105369500D01*
X177367756Y-105406025D01*
X177367744Y-105406028D01*
X177315217Y-105427786D01*
X177245748Y-105435255D01*
X177183269Y-105403980D01*
X177153204Y-105360677D01*
X177105087Y-105244511D01*
X177105080Y-105244498D01*
X177022951Y-105121584D01*
X177022948Y-105121580D01*
X176918419Y-105017051D01*
X176918415Y-105017048D01*
X176795501Y-104934919D01*
X176795488Y-104934912D01*
X176658917Y-104878343D01*
X176658907Y-104878340D01*
X176513920Y-104849500D01*
X176513918Y-104849500D01*
X176366082Y-104849500D01*
X176366080Y-104849500D01*
X176221092Y-104878340D01*
X176221082Y-104878343D01*
X176084511Y-104934912D01*
X176084498Y-104934919D01*
X175961584Y-105017048D01*
X175961580Y-105017051D01*
X175857051Y-105121580D01*
X175857048Y-105121584D01*
X175774919Y-105244498D01*
X175774912Y-105244511D01*
X175718343Y-105381082D01*
X175718340Y-105381092D01*
X175689500Y-105526079D01*
X175689500Y-105526082D01*
X175689500Y-105673918D01*
X175689500Y-105673920D01*
X175689499Y-105673920D01*
X166685531Y-105673920D01*
X166659397Y-105610827D01*
X166659391Y-105610816D01*
X166644734Y-105588880D01*
X166644733Y-105588879D01*
X166571789Y-105479711D01*
X166571786Y-105479707D01*
X166460292Y-105368213D01*
X166460288Y-105368210D01*
X166331439Y-105282115D01*
X166327871Y-105277846D01*
X166322727Y-105275728D01*
X166305706Y-105251324D01*
X166286634Y-105228502D01*
X166285940Y-105222983D01*
X166282758Y-105218420D01*
X166281633Y-105188686D01*
X166277927Y-105159177D01*
X166280327Y-105154160D01*
X166280117Y-105148600D01*
X166295245Y-105122979D01*
X166308082Y-105096150D01*
X166313560Y-105091962D01*
X166315643Y-105088436D01*
X166331747Y-105078062D01*
X166344592Y-105068246D01*
X166348655Y-105066201D01*
X166375495Y-105055084D01*
X166389970Y-105045411D01*
X166396778Y-105041986D01*
X166423946Y-105037025D01*
X166450300Y-105028773D01*
X166457829Y-105030838D01*
X166465511Y-105029436D01*
X166491045Y-105039949D01*
X166517681Y-105047256D01*
X166521407Y-105049651D01*
X166544498Y-105065080D01*
X166544511Y-105065087D01*
X166680899Y-105121580D01*
X166681087Y-105121658D01*
X166681091Y-105121658D01*
X166681092Y-105121659D01*
X166826079Y-105150500D01*
X166826082Y-105150500D01*
X166973920Y-105150500D01*
X167071462Y-105131096D01*
X167118913Y-105121658D01*
X167255495Y-105065084D01*
X167378416Y-104982951D01*
X167482951Y-104878416D01*
X167565084Y-104755495D01*
X167621658Y-104618913D01*
X167631096Y-104571462D01*
X167650500Y-104473920D01*
X167650500Y-104326080D01*
X167641186Y-104279259D01*
X167641186Y-104279258D01*
X167637585Y-104261153D01*
X173409500Y-104261153D01*
X173409500Y-104418846D01*
X173440261Y-104573489D01*
X173440264Y-104573501D01*
X173500602Y-104719172D01*
X173500609Y-104719185D01*
X173588210Y-104850288D01*
X173588213Y-104850292D01*
X173699707Y-104961786D01*
X173699711Y-104961789D01*
X173830814Y-105049390D01*
X173830827Y-105049397D01*
X173976498Y-105109735D01*
X173976503Y-105109737D01*
X174131153Y-105140499D01*
X174131156Y-105140500D01*
X174131158Y-105140500D01*
X174288844Y-105140500D01*
X174288845Y-105140499D01*
X174443497Y-105109737D01*
X174589179Y-105049394D01*
X174720289Y-104961789D01*
X174831789Y-104850289D01*
X174919394Y-104719179D01*
X174979737Y-104573497D01*
X175010500Y-104418842D01*
X175010500Y-104261158D01*
X175010500Y-104261155D01*
X175010499Y-104261153D01*
X175004618Y-104231588D01*
X174979737Y-104106503D01*
X174975011Y-104095094D01*
X174919397Y-103960827D01*
X174919390Y-103960814D01*
X174831789Y-103829711D01*
X174831786Y-103829707D01*
X174720292Y-103718213D01*
X174720288Y-103718210D01*
X174589185Y-103630609D01*
X174589172Y-103630602D01*
X174443501Y-103570264D01*
X174443489Y-103570261D01*
X174288845Y-103539500D01*
X174288842Y-103539500D01*
X174131158Y-103539500D01*
X174131155Y-103539500D01*
X173976510Y-103570261D01*
X173976498Y-103570264D01*
X173830827Y-103630602D01*
X173830814Y-103630609D01*
X173699711Y-103718210D01*
X173699707Y-103718213D01*
X173588213Y-103829707D01*
X173588210Y-103829711D01*
X173500609Y-103960814D01*
X173500602Y-103960827D01*
X173440264Y-104106498D01*
X173440261Y-104106510D01*
X173409500Y-104261153D01*
X167637585Y-104261153D01*
X167621659Y-104181092D01*
X167621658Y-104181091D01*
X167621658Y-104181087D01*
X167617514Y-104171082D01*
X167565087Y-104044511D01*
X167565080Y-104044498D01*
X167482951Y-103921584D01*
X167482948Y-103921580D01*
X167378419Y-103817051D01*
X167378415Y-103817048D01*
X167255501Y-103734919D01*
X167255488Y-103734912D01*
X167118917Y-103678343D01*
X167118907Y-103678340D01*
X166973920Y-103649500D01*
X166973918Y-103649500D01*
X166826082Y-103649500D01*
X166826080Y-103649500D01*
X166681092Y-103678340D01*
X166681082Y-103678343D01*
X166544506Y-103734914D01*
X166544503Y-103734916D01*
X166536364Y-103740354D01*
X166469685Y-103761226D01*
X166402306Y-103742736D01*
X166398592Y-103740349D01*
X166375491Y-103724913D01*
X166238917Y-103668343D01*
X166238907Y-103668340D01*
X166093920Y-103639500D01*
X166093918Y-103639500D01*
X165946082Y-103639500D01*
X165946080Y-103639500D01*
X165801092Y-103668340D01*
X165801082Y-103668343D01*
X165664511Y-103724912D01*
X165664498Y-103724919D01*
X165541584Y-103807048D01*
X165541580Y-103807051D01*
X165437051Y-103911580D01*
X165437048Y-103911584D01*
X165354919Y-104034498D01*
X165354912Y-104034511D01*
X165298343Y-104171082D01*
X165298340Y-104171092D01*
X165269500Y-104316079D01*
X165269500Y-104316082D01*
X165269500Y-104463918D01*
X165269500Y-104463920D01*
X165269499Y-104463920D01*
X165298340Y-104608907D01*
X165298343Y-104608917D01*
X165354912Y-104745488D01*
X165354919Y-104745501D01*
X165437048Y-104868415D01*
X165437051Y-104868419D01*
X165541580Y-104972948D01*
X165541584Y-104972951D01*
X165644117Y-105041462D01*
X165688922Y-105095074D01*
X165697629Y-105164399D01*
X165667474Y-105227427D01*
X165622680Y-105259125D01*
X165570820Y-105280606D01*
X165570814Y-105280609D01*
X165439711Y-105368210D01*
X165439707Y-105368213D01*
X165328213Y-105479707D01*
X165328210Y-105479711D01*
X165240609Y-105610814D01*
X165240602Y-105610827D01*
X165180264Y-105756498D01*
X165180261Y-105756510D01*
X165149500Y-105911153D01*
X141013471Y-105911153D01*
X140931996Y-105877405D01*
X140931992Y-105877404D01*
X140930552Y-105877118D01*
X140929867Y-105876759D01*
X140926160Y-105875635D01*
X140926373Y-105874931D01*
X140868642Y-105844730D01*
X140851645Y-105824391D01*
X140782954Y-105721588D01*
X140782948Y-105721580D01*
X140678419Y-105617051D01*
X140678415Y-105617048D01*
X140555501Y-105534919D01*
X140555488Y-105534912D01*
X140418917Y-105478343D01*
X140418907Y-105478340D01*
X140273920Y-105449500D01*
X140273918Y-105449500D01*
X140126082Y-105449500D01*
X140126080Y-105449500D01*
X139981092Y-105478340D01*
X139981082Y-105478343D01*
X139844511Y-105534912D01*
X139844498Y-105534919D01*
X139721584Y-105617048D01*
X139721580Y-105617051D01*
X139617051Y-105721580D01*
X139617048Y-105721584D01*
X139534919Y-105844498D01*
X139534912Y-105844511D01*
X139478343Y-105981082D01*
X139478340Y-105981092D01*
X139449500Y-106126079D01*
X139449500Y-106126082D01*
X139449500Y-106273918D01*
X139449500Y-106273920D01*
X139449499Y-106273920D01*
X115000500Y-106273920D01*
X115000500Y-101599983D01*
X122944500Y-101599983D01*
X122944500Y-102900001D01*
X122944501Y-102900018D01*
X122955000Y-103002796D01*
X122955001Y-103002799D01*
X123010185Y-103169331D01*
X123010187Y-103169336D01*
X123045069Y-103225888D01*
X123102288Y-103318656D01*
X123226344Y-103442712D01*
X123340972Y-103513415D01*
X123381120Y-103538178D01*
X123427845Y-103590126D01*
X123439068Y-103659088D01*
X123411224Y-103723171D01*
X123403706Y-103731398D01*
X123264889Y-103870215D01*
X123139951Y-104042179D01*
X123043444Y-104231585D01*
X122977753Y-104433760D01*
X122944500Y-104643713D01*
X122944500Y-104856286D01*
X122977569Y-105065080D01*
X122977754Y-105066243D01*
X123040425Y-105259125D01*
X123043444Y-105268414D01*
X123139951Y-105457820D01*
X123264890Y-105629786D01*
X123415213Y-105780109D01*
X123587179Y-105905048D01*
X123587181Y-105905049D01*
X123587184Y-105905051D01*
X123776588Y-106001557D01*
X123978757Y-106067246D01*
X124188713Y-106100500D01*
X124188714Y-106100500D01*
X124701286Y-106100500D01*
X124701287Y-106100500D01*
X124911243Y-106067246D01*
X125113412Y-106001557D01*
X125302816Y-105905051D01*
X125351378Y-105869769D01*
X125474786Y-105780109D01*
X125474788Y-105780106D01*
X125474792Y-105780104D01*
X125625104Y-105629792D01*
X125625106Y-105629788D01*
X125625109Y-105629786D01*
X125750048Y-105457820D01*
X125750047Y-105457820D01*
X125750051Y-105457816D01*
X125846557Y-105268412D01*
X125909752Y-105073920D01*
X130449499Y-105073920D01*
X130478340Y-105218907D01*
X130478343Y-105218917D01*
X130534912Y-105355488D01*
X130534919Y-105355501D01*
X130617048Y-105478415D01*
X130617051Y-105478419D01*
X130721580Y-105582948D01*
X130721584Y-105582951D01*
X130844498Y-105665080D01*
X130844511Y-105665087D01*
X130962811Y-105714088D01*
X130981087Y-105721658D01*
X130981091Y-105721658D01*
X130981092Y-105721659D01*
X131126079Y-105750500D01*
X131126082Y-105750500D01*
X131273920Y-105750500D01*
X131371462Y-105731096D01*
X131418913Y-105721658D01*
X131555495Y-105665084D01*
X131678416Y-105582951D01*
X131782951Y-105478416D01*
X131865084Y-105355495D01*
X131921658Y-105218913D01*
X131933541Y-105159177D01*
X131950500Y-105073920D01*
X134349499Y-105073920D01*
X134378340Y-105218907D01*
X134378343Y-105218917D01*
X134434912Y-105355488D01*
X134434919Y-105355501D01*
X134517048Y-105478415D01*
X134517051Y-105478419D01*
X134621580Y-105582948D01*
X134621584Y-105582951D01*
X134744498Y-105665080D01*
X134744511Y-105665087D01*
X134862811Y-105714088D01*
X134881087Y-105721658D01*
X134881091Y-105721658D01*
X134881092Y-105721659D01*
X135026079Y-105750500D01*
X135026082Y-105750500D01*
X135173920Y-105750500D01*
X135271462Y-105731096D01*
X135318913Y-105721658D01*
X135455495Y-105665084D01*
X135578416Y-105582951D01*
X135682951Y-105478416D01*
X135765084Y-105355495D01*
X135821658Y-105218913D01*
X135833541Y-105159177D01*
X135850500Y-105073920D01*
X135850500Y-104926079D01*
X135821659Y-104781092D01*
X135821658Y-104781091D01*
X135821658Y-104781087D01*
X135811060Y-104755501D01*
X135765087Y-104644511D01*
X135765080Y-104644498D01*
X135682951Y-104521584D01*
X135682948Y-104521580D01*
X135578419Y-104417051D01*
X135578415Y-104417048D01*
X135455501Y-104334919D01*
X135455488Y-104334912D01*
X135318917Y-104278343D01*
X135318907Y-104278340D01*
X135173920Y-104249500D01*
X135173918Y-104249500D01*
X135026082Y-104249500D01*
X135026080Y-104249500D01*
X134881092Y-104278340D01*
X134881082Y-104278343D01*
X134744511Y-104334912D01*
X134744498Y-104334919D01*
X134621584Y-104417048D01*
X134621580Y-104417051D01*
X134517051Y-104521580D01*
X134517048Y-104521584D01*
X134434919Y-104644498D01*
X134434912Y-104644511D01*
X134378343Y-104781082D01*
X134378340Y-104781092D01*
X134349500Y-104926079D01*
X134349500Y-104926082D01*
X134349500Y-105073918D01*
X134349500Y-105073920D01*
X134349499Y-105073920D01*
X131950500Y-105073920D01*
X131950500Y-104926079D01*
X131921659Y-104781092D01*
X131921658Y-104781091D01*
X131921658Y-104781087D01*
X131911060Y-104755501D01*
X131865087Y-104644511D01*
X131865080Y-104644498D01*
X131782951Y-104521584D01*
X131782948Y-104521580D01*
X131678419Y-104417051D01*
X131678415Y-104417048D01*
X131555501Y-104334919D01*
X131555488Y-104334912D01*
X131418917Y-104278343D01*
X131418907Y-104278340D01*
X131273920Y-104249500D01*
X131273918Y-104249500D01*
X131126082Y-104249500D01*
X131126080Y-104249500D01*
X130981092Y-104278340D01*
X130981082Y-104278343D01*
X130844511Y-104334912D01*
X130844498Y-104334919D01*
X130721584Y-104417048D01*
X130721580Y-104417051D01*
X130617051Y-104521580D01*
X130617048Y-104521584D01*
X130534919Y-104644498D01*
X130534912Y-104644511D01*
X130478343Y-104781082D01*
X130478340Y-104781092D01*
X130449500Y-104926079D01*
X130449500Y-104926082D01*
X130449500Y-105073918D01*
X130449500Y-105073920D01*
X130449499Y-105073920D01*
X125909752Y-105073920D01*
X125912246Y-105066243D01*
X125933047Y-104934912D01*
X125938483Y-104900592D01*
X125938483Y-104900591D01*
X125945500Y-104856287D01*
X125945500Y-104643713D01*
X125934379Y-104573497D01*
X125912246Y-104433757D01*
X125846557Y-104231588D01*
X125750051Y-104042184D01*
X125750049Y-104042181D01*
X125750048Y-104042179D01*
X125625109Y-103870213D01*
X125486294Y-103731398D01*
X125452809Y-103670075D01*
X125457793Y-103600383D01*
X125499665Y-103544450D01*
X125508879Y-103538178D01*
X125514331Y-103534814D01*
X125514334Y-103534814D01*
X125663656Y-103442712D01*
X125787712Y-103318656D01*
X125879814Y-103169334D01*
X125934999Y-103002797D01*
X125945500Y-102900009D01*
X125945499Y-101599992D01*
X125941933Y-101565087D01*
X125934999Y-101497203D01*
X125934998Y-101497200D01*
X125925626Y-101468917D01*
X125879814Y-101330666D01*
X125787712Y-101181344D01*
X125663656Y-101057288D01*
X125514334Y-100965186D01*
X125347797Y-100910001D01*
X125347795Y-100910000D01*
X125245010Y-100899500D01*
X123644998Y-100899500D01*
X123644981Y-100899501D01*
X123542203Y-100910000D01*
X123542200Y-100910001D01*
X123375668Y-100965185D01*
X123375663Y-100965187D01*
X123226342Y-101057289D01*
X123102289Y-101181342D01*
X123010187Y-101330663D01*
X123010185Y-101330668D01*
X122994363Y-101378416D01*
X122955001Y-101497203D01*
X122955001Y-101497204D01*
X122955000Y-101497204D01*
X122944500Y-101599983D01*
X115000500Y-101599983D01*
X115000500Y-100873920D01*
X132349499Y-100873920D01*
X132378340Y-101018907D01*
X132378343Y-101018917D01*
X132434912Y-101155488D01*
X132434919Y-101155501D01*
X132517048Y-101278415D01*
X132517051Y-101278419D01*
X132621580Y-101382948D01*
X132621584Y-101382951D01*
X132744498Y-101465080D01*
X132744511Y-101465087D01*
X132861394Y-101513501D01*
X132881087Y-101521658D01*
X132881091Y-101521658D01*
X132881092Y-101521659D01*
X133026079Y-101550500D01*
X133026082Y-101550500D01*
X133173920Y-101550500D01*
X133271462Y-101531096D01*
X133318913Y-101521658D01*
X133446263Y-101468908D01*
X133455488Y-101465087D01*
X133455488Y-101465086D01*
X133455495Y-101465084D01*
X133578416Y-101382951D01*
X133682951Y-101278416D01*
X133765084Y-101155495D01*
X133821658Y-101018913D01*
X133837517Y-100939185D01*
X133851689Y-100867943D01*
X133853909Y-100868384D01*
X133876256Y-100812987D01*
X133933276Y-100772607D01*
X134003075Y-100769465D01*
X134063492Y-100804558D01*
X134088087Y-100842440D01*
X134134914Y-100955492D01*
X134134919Y-100955501D01*
X134217048Y-101078415D01*
X134217051Y-101078419D01*
X134321580Y-101182948D01*
X134321584Y-101182951D01*
X134444498Y-101265080D01*
X134444511Y-101265087D01*
X134575621Y-101319394D01*
X134581087Y-101321658D01*
X134581091Y-101321658D01*
X134581092Y-101321659D01*
X134726079Y-101350500D01*
X134726082Y-101350500D01*
X134873920Y-101350500D01*
X135007551Y-101323918D01*
X135018913Y-101321658D01*
X135124547Y-101277902D01*
X135155488Y-101265087D01*
X135155488Y-101265086D01*
X135155495Y-101265084D01*
X135278416Y-101182951D01*
X135378029Y-101083337D01*
X135439350Y-101049854D01*
X135509042Y-101054838D01*
X135564976Y-101096709D01*
X135580270Y-101123568D01*
X135634912Y-101255488D01*
X135634919Y-101255501D01*
X135717048Y-101378415D01*
X135717051Y-101378419D01*
X135821580Y-101482948D01*
X135821584Y-101482951D01*
X135944498Y-101565080D01*
X135944511Y-101565087D01*
X136042049Y-101605488D01*
X136081087Y-101621658D01*
X136081091Y-101621658D01*
X136081092Y-101621659D01*
X136226079Y-101650500D01*
X136226082Y-101650500D01*
X136373920Y-101650500D01*
X136471462Y-101631096D01*
X136518913Y-101621658D01*
X136655495Y-101565084D01*
X136778416Y-101482951D01*
X136882951Y-101378416D01*
X136965084Y-101255495D01*
X136967284Y-101250185D01*
X136988180Y-101199737D01*
X137021658Y-101118913D01*
X137039129Y-101031082D01*
X137050500Y-100973920D01*
X137050500Y-100826079D01*
X137021659Y-100681092D01*
X137021658Y-100681091D01*
X137021658Y-100681087D01*
X137012183Y-100658213D01*
X136965087Y-100544511D01*
X136965080Y-100544498D01*
X136882951Y-100421584D01*
X136882948Y-100421580D01*
X136778419Y-100317051D01*
X136778415Y-100317048D01*
X136655501Y-100234919D01*
X136655488Y-100234912D01*
X136518917Y-100178343D01*
X136518907Y-100178340D01*
X136373920Y-100149500D01*
X136373918Y-100149500D01*
X136226082Y-100149500D01*
X136226080Y-100149500D01*
X136081092Y-100178340D01*
X136081082Y-100178343D01*
X135944511Y-100234912D01*
X135944498Y-100234919D01*
X135821584Y-100317048D01*
X135721971Y-100416661D01*
X135660648Y-100450145D01*
X135590956Y-100445161D01*
X135535023Y-100403289D01*
X135519729Y-100376431D01*
X135512236Y-100358342D01*
X135484050Y-100290292D01*
X135465087Y-100244511D01*
X135465080Y-100244498D01*
X135382951Y-100121584D01*
X135382948Y-100121580D01*
X135278419Y-100017051D01*
X135278415Y-100017048D01*
X135155501Y-99934919D01*
X135155488Y-99934912D01*
X135018917Y-99878343D01*
X135018907Y-99878340D01*
X134873920Y-99849500D01*
X134873918Y-99849500D01*
X134726082Y-99849500D01*
X134726080Y-99849500D01*
X134581092Y-99878340D01*
X134581082Y-99878343D01*
X134444511Y-99934912D01*
X134444498Y-99934919D01*
X134321584Y-100017048D01*
X134321580Y-100017051D01*
X134217051Y-100121580D01*
X134217048Y-100121584D01*
X134134919Y-100244498D01*
X134134912Y-100244511D01*
X134078343Y-100381082D01*
X134078340Y-100381092D01*
X134048311Y-100532057D01*
X134046100Y-100531617D01*
X134023706Y-100587059D01*
X133966666Y-100627411D01*
X133896866Y-100630519D01*
X133836465Y-100595397D01*
X133811912Y-100557558D01*
X133765087Y-100444511D01*
X133765080Y-100444498D01*
X133682951Y-100321584D01*
X133682948Y-100321580D01*
X133578419Y-100217051D01*
X133578415Y-100217048D01*
X133455501Y-100134919D01*
X133455488Y-100134912D01*
X133318917Y-100078343D01*
X133318907Y-100078340D01*
X133173920Y-100049500D01*
X133173918Y-100049500D01*
X133026082Y-100049500D01*
X133026080Y-100049500D01*
X132881092Y-100078340D01*
X132881082Y-100078343D01*
X132744511Y-100134912D01*
X132744498Y-100134919D01*
X132621584Y-100217048D01*
X132621580Y-100217051D01*
X132517051Y-100321580D01*
X132517048Y-100321584D01*
X132434919Y-100444498D01*
X132434912Y-100444511D01*
X132378343Y-100581082D01*
X132378340Y-100581092D01*
X132349500Y-100726079D01*
X132349500Y-100726082D01*
X132349500Y-100873918D01*
X132349500Y-100873920D01*
X132349499Y-100873920D01*
X115000500Y-100873920D01*
X115000500Y-99691153D01*
X144719500Y-99691153D01*
X144719500Y-99848846D01*
X144750261Y-100003489D01*
X144750264Y-100003501D01*
X144810602Y-100149172D01*
X144810609Y-100149185D01*
X144898210Y-100280288D01*
X144898213Y-100280292D01*
X145009707Y-100391786D01*
X145009711Y-100391789D01*
X145140814Y-100479390D01*
X145140827Y-100479397D01*
X145286498Y-100539735D01*
X145286503Y-100539737D01*
X145441153Y-100570499D01*
X145441156Y-100570500D01*
X145441158Y-100570500D01*
X145598844Y-100570500D01*
X145598845Y-100570499D01*
X145753497Y-100539737D01*
X145866166Y-100493067D01*
X145899172Y-100479397D01*
X145899172Y-100479396D01*
X145899179Y-100479394D01*
X146030289Y-100391789D01*
X146141789Y-100280289D01*
X146229394Y-100149179D01*
X146268369Y-100055084D01*
X146312206Y-100000684D01*
X146378500Y-99978618D01*
X146446200Y-99995896D01*
X146493811Y-100047033D01*
X146497489Y-100055086D01*
X146540604Y-100159175D01*
X146540609Y-100159185D01*
X146628210Y-100290288D01*
X146628213Y-100290292D01*
X146739707Y-100401786D01*
X146739711Y-100401789D01*
X146870814Y-100489390D01*
X146870827Y-100489397D01*
X146964853Y-100528343D01*
X147016503Y-100549737D01*
X147016515Y-100549739D01*
X147021076Y-100551123D01*
X147079516Y-100589419D01*
X147106701Y-100645593D01*
X147110261Y-100663491D01*
X147110263Y-100663499D01*
X147170602Y-100809172D01*
X147170609Y-100809185D01*
X147258210Y-100940288D01*
X147258213Y-100940292D01*
X147369707Y-101051786D01*
X147369711Y-101051789D01*
X147500814Y-101139390D01*
X147500827Y-101139397D01*
X147605980Y-101182952D01*
X147646503Y-101199737D01*
X147801153Y-101230499D01*
X147801156Y-101230500D01*
X147865500Y-101230500D01*
X147932539Y-101250185D01*
X147978294Y-101302989D01*
X147989500Y-101354500D01*
X147989500Y-101358846D01*
X148020261Y-101513489D01*
X148020264Y-101513501D01*
X148080602Y-101659172D01*
X148080609Y-101659185D01*
X148168210Y-101790288D01*
X148168213Y-101790292D01*
X148253558Y-101875637D01*
X148287043Y-101936960D01*
X148282059Y-102006652D01*
X148240187Y-102062585D01*
X148234769Y-102066420D01*
X148121580Y-102142051D01*
X148017051Y-102246580D01*
X148017048Y-102246584D01*
X147934919Y-102369498D01*
X147934912Y-102369511D01*
X147878343Y-102506082D01*
X147878340Y-102506092D01*
X147849500Y-102651079D01*
X147849500Y-102651082D01*
X147849500Y-102798918D01*
X147849500Y-102798920D01*
X147849499Y-102798920D01*
X147878340Y-102943907D01*
X147878343Y-102943917D01*
X147924859Y-103056217D01*
X147932328Y-103125686D01*
X147924861Y-103151118D01*
X147923450Y-103154522D01*
X147923450Y-103154524D01*
X147894609Y-103299515D01*
X147894609Y-103299518D01*
X147894609Y-103447354D01*
X147894609Y-103447356D01*
X147894608Y-103447356D01*
X147923449Y-103592343D01*
X147923452Y-103592353D01*
X147980021Y-103728924D01*
X147980028Y-103728937D01*
X148062157Y-103851851D01*
X148062160Y-103851855D01*
X148166689Y-103956384D01*
X148166693Y-103956387D01*
X148289607Y-104038516D01*
X148289620Y-104038523D01*
X148403005Y-104085488D01*
X148426196Y-104095094D01*
X148426200Y-104095094D01*
X148426201Y-104095095D01*
X148571188Y-104123936D01*
X148571191Y-104123936D01*
X148719029Y-104123936D01*
X148816571Y-104104532D01*
X148864022Y-104095094D01*
X148969656Y-104051338D01*
X149000597Y-104038523D01*
X149000597Y-104038522D01*
X149000604Y-104038520D01*
X149123525Y-103956387D01*
X149228060Y-103851852D01*
X149310193Y-103728931D01*
X149366767Y-103592349D01*
X149382468Y-103513415D01*
X149395609Y-103447356D01*
X149395609Y-103299515D01*
X149366768Y-103154528D01*
X149366767Y-103154524D01*
X149366767Y-103154523D01*
X149347877Y-103108920D01*
X151424499Y-103108920D01*
X151453340Y-103253907D01*
X151453343Y-103253917D01*
X151509912Y-103390488D01*
X151509919Y-103390501D01*
X151592048Y-103513415D01*
X151592051Y-103513419D01*
X151600089Y-103521457D01*
X151633574Y-103582780D01*
X151634025Y-103633327D01*
X151629500Y-103656082D01*
X151629500Y-103803918D01*
X151629500Y-103803920D01*
X151629499Y-103803920D01*
X151658340Y-103948907D01*
X151658343Y-103948917D01*
X151714912Y-104085488D01*
X151714919Y-104085501D01*
X151797048Y-104208415D01*
X151797051Y-104208419D01*
X151901580Y-104312948D01*
X151901584Y-104312951D01*
X152024498Y-104395080D01*
X152024511Y-104395087D01*
X152117870Y-104433757D01*
X152161087Y-104451658D01*
X152161091Y-104451658D01*
X152161092Y-104451659D01*
X152306079Y-104480500D01*
X152306082Y-104480500D01*
X152453920Y-104480500D01*
X152551462Y-104461096D01*
X152598913Y-104451658D01*
X152735495Y-104395084D01*
X152858416Y-104312951D01*
X152962951Y-104208416D01*
X153045084Y-104085495D01*
X153101658Y-103948913D01*
X153112948Y-103892156D01*
X153130500Y-103803920D01*
X153130500Y-103656079D01*
X153101659Y-103511092D01*
X153101658Y-103511091D01*
X153101658Y-103511087D01*
X153051710Y-103390501D01*
X153045087Y-103374511D01*
X153045080Y-103374498D01*
X152962951Y-103251584D01*
X152962948Y-103251580D01*
X152954910Y-103243542D01*
X152921425Y-103182219D01*
X152920974Y-103131670D01*
X152925500Y-103108918D01*
X152925500Y-102961082D01*
X152925500Y-102961079D01*
X152896659Y-102816092D01*
X152896658Y-102816091D01*
X152896658Y-102816087D01*
X152892102Y-102805087D01*
X152840087Y-102679511D01*
X152840080Y-102679498D01*
X152757951Y-102556584D01*
X152757948Y-102556580D01*
X152653419Y-102452051D01*
X152653415Y-102452048D01*
X152530501Y-102369919D01*
X152530488Y-102369912D01*
X152393917Y-102313343D01*
X152393907Y-102313340D01*
X152248920Y-102284500D01*
X152248918Y-102284500D01*
X152101082Y-102284500D01*
X152101080Y-102284500D01*
X151956092Y-102313340D01*
X151956082Y-102313343D01*
X151819511Y-102369912D01*
X151819498Y-102369919D01*
X151696584Y-102452048D01*
X151696580Y-102452051D01*
X151592051Y-102556580D01*
X151592048Y-102556584D01*
X151509919Y-102679498D01*
X151509912Y-102679511D01*
X151453343Y-102816082D01*
X151453340Y-102816092D01*
X151424500Y-102961079D01*
X151424500Y-102961082D01*
X151424500Y-103108918D01*
X151424500Y-103108920D01*
X151424499Y-103108920D01*
X149347877Y-103108920D01*
X149320248Y-103042218D01*
X149317742Y-103018909D01*
X149310822Y-102996510D01*
X149313712Y-102981426D01*
X149312780Y-102972749D01*
X149315353Y-102961508D01*
X149317368Y-102954268D01*
X149321658Y-102943913D01*
X149325178Y-102926218D01*
X149350500Y-102798920D01*
X149350500Y-102651079D01*
X149321659Y-102506092D01*
X149321658Y-102506091D01*
X149321658Y-102506087D01*
X149299275Y-102452049D01*
X149265087Y-102369511D01*
X149265080Y-102369498D01*
X149182951Y-102246584D01*
X149182948Y-102246580D01*
X149128281Y-102191913D01*
X149094796Y-102130590D01*
X149099780Y-102060898D01*
X149141652Y-102004965D01*
X149163843Y-101992328D01*
X149163809Y-101992264D01*
X149166228Y-101990971D01*
X149168513Y-101989669D01*
X149169179Y-101989394D01*
X149300289Y-101901789D01*
X149411789Y-101790289D01*
X149499394Y-101659179D01*
X149559737Y-101513497D01*
X149590500Y-101358842D01*
X149590500Y-101201158D01*
X149590500Y-101201155D01*
X149590499Y-101201153D01*
X149581417Y-101155495D01*
X149581104Y-101153920D01*
X152029499Y-101153920D01*
X152058340Y-101298907D01*
X152058343Y-101298917D01*
X152114912Y-101435488D01*
X152114919Y-101435501D01*
X152197048Y-101558415D01*
X152197051Y-101558419D01*
X152301580Y-101662948D01*
X152301584Y-101662951D01*
X152424498Y-101745080D01*
X152424511Y-101745087D01*
X152533647Y-101790292D01*
X152561087Y-101801658D01*
X152561091Y-101801658D01*
X152561092Y-101801659D01*
X152706079Y-101830500D01*
X152706082Y-101830500D01*
X152853920Y-101830500D01*
X152972153Y-101806981D01*
X152998913Y-101801658D01*
X153135495Y-101745084D01*
X153258416Y-101662951D01*
X153347447Y-101573920D01*
X156049499Y-101573920D01*
X156078340Y-101718907D01*
X156078343Y-101718917D01*
X156134912Y-101855488D01*
X156134919Y-101855501D01*
X156217048Y-101978415D01*
X156217051Y-101978419D01*
X156321580Y-102082948D01*
X156321584Y-102082951D01*
X156444498Y-102165080D01*
X156444511Y-102165087D01*
X156581082Y-102221656D01*
X156581087Y-102221658D01*
X156584140Y-102222265D01*
X156585591Y-102223024D01*
X156586919Y-102223427D01*
X156586842Y-102223678D01*
X156646052Y-102254649D01*
X156680627Y-102315364D01*
X156676889Y-102385134D01*
X156636023Y-102441806D01*
X156607404Y-102458444D01*
X156494008Y-102505414D01*
X156493998Y-102505419D01*
X156371084Y-102587548D01*
X156371080Y-102587551D01*
X156266551Y-102692080D01*
X156266548Y-102692084D01*
X156184419Y-102814998D01*
X156184412Y-102815011D01*
X156127843Y-102951582D01*
X156127840Y-102951592D01*
X156099000Y-103096579D01*
X156099000Y-103096582D01*
X156099000Y-103244418D01*
X156099000Y-103244420D01*
X156098999Y-103244420D01*
X156127840Y-103389407D01*
X156127843Y-103389417D01*
X156184412Y-103525988D01*
X156184419Y-103526001D01*
X156266548Y-103648915D01*
X156266551Y-103648919D01*
X156371080Y-103753448D01*
X156371084Y-103753451D01*
X156493998Y-103835580D01*
X156494011Y-103835587D01*
X156630582Y-103892156D01*
X156630587Y-103892158D01*
X156630591Y-103892158D01*
X156630592Y-103892159D01*
X156775579Y-103921000D01*
X156775582Y-103921000D01*
X156923420Y-103921000D01*
X157020962Y-103901596D01*
X157068413Y-103892158D01*
X157204995Y-103835584D01*
X157327916Y-103753451D01*
X157432451Y-103648916D01*
X157514584Y-103525995D01*
X157571158Y-103389413D01*
X157589040Y-103299515D01*
X157600000Y-103244420D01*
X157600000Y-103096579D01*
X157571159Y-102951592D01*
X157571158Y-102951591D01*
X157571158Y-102951587D01*
X157560650Y-102926218D01*
X157514587Y-102815011D01*
X157514580Y-102814998D01*
X157432451Y-102692084D01*
X157432448Y-102692080D01*
X157327919Y-102587551D01*
X157327915Y-102587548D01*
X157205001Y-102505419D01*
X157204988Y-102505412D01*
X157068417Y-102448843D01*
X157068407Y-102448840D01*
X157065349Y-102448232D01*
X157063896Y-102447472D01*
X157062581Y-102447073D01*
X157062656Y-102446823D01*
X157003440Y-102415843D01*
X156968870Y-102355125D01*
X156972614Y-102285355D01*
X157013484Y-102228686D01*
X157038887Y-102213920D01*
X175409499Y-102213920D01*
X175438340Y-102358907D01*
X175438343Y-102358917D01*
X175494912Y-102495488D01*
X175494919Y-102495501D01*
X175577048Y-102618415D01*
X175577051Y-102618419D01*
X175681580Y-102722948D01*
X175681584Y-102722951D01*
X175804498Y-102805080D01*
X175804511Y-102805087D01*
X175941082Y-102861656D01*
X175941087Y-102861658D01*
X175941091Y-102861658D01*
X175941092Y-102861659D01*
X176086079Y-102890500D01*
X176086082Y-102890500D01*
X176233920Y-102890500D01*
X176331462Y-102871096D01*
X176378913Y-102861658D01*
X176515495Y-102805084D01*
X176638416Y-102722951D01*
X176742951Y-102618416D01*
X176825084Y-102495495D01*
X176881658Y-102358913D01*
X176904003Y-102246580D01*
X176910500Y-102213920D01*
X176910500Y-102066079D01*
X176881659Y-101921092D01*
X176881658Y-101921091D01*
X176881658Y-101921087D01*
X176863168Y-101876450D01*
X176855700Y-101806981D01*
X176886975Y-101744502D01*
X176890001Y-101741365D01*
X176902951Y-101728416D01*
X176985084Y-101605495D01*
X177041658Y-101468913D01*
X177058758Y-101382948D01*
X177070500Y-101323920D01*
X177070500Y-101176079D01*
X177041659Y-101031092D01*
X177041658Y-101031091D01*
X177041658Y-101031087D01*
X177031301Y-101006082D01*
X176985087Y-100894511D01*
X176985080Y-100894498D01*
X176902951Y-100771584D01*
X176902948Y-100771580D01*
X176798419Y-100667051D01*
X176798415Y-100667048D01*
X176675501Y-100584919D01*
X176675488Y-100584912D01*
X176538917Y-100528343D01*
X176538907Y-100528340D01*
X176393920Y-100499500D01*
X176393918Y-100499500D01*
X176246082Y-100499500D01*
X176246080Y-100499500D01*
X176101092Y-100528340D01*
X176101082Y-100528343D01*
X175964511Y-100584912D01*
X175964498Y-100584919D01*
X175841584Y-100667048D01*
X175841580Y-100667051D01*
X175737051Y-100771580D01*
X175737048Y-100771584D01*
X175654919Y-100894498D01*
X175654912Y-100894511D01*
X175598343Y-101031082D01*
X175598340Y-101031092D01*
X175569500Y-101176079D01*
X175569500Y-101176082D01*
X175569500Y-101323918D01*
X175569500Y-101323920D01*
X175569499Y-101323920D01*
X175598340Y-101468907D01*
X175598341Y-101468908D01*
X175598342Y-101468913D01*
X175616806Y-101513489D01*
X175616831Y-101513549D01*
X175624299Y-101583019D01*
X175593023Y-101645498D01*
X175589953Y-101648680D01*
X175577046Y-101661587D01*
X175494919Y-101784498D01*
X175494912Y-101784511D01*
X175438343Y-101921082D01*
X175438340Y-101921092D01*
X175409500Y-102066079D01*
X175409500Y-102066082D01*
X175409500Y-102213918D01*
X175409500Y-102213920D01*
X175409499Y-102213920D01*
X157038887Y-102213920D01*
X157042094Y-102212056D01*
X157155495Y-102165084D01*
X157278416Y-102082951D01*
X157382951Y-101978416D01*
X157465084Y-101855495D01*
X157521658Y-101718913D01*
X157536262Y-101645498D01*
X157550500Y-101573920D01*
X157550500Y-101426079D01*
X157521659Y-101281092D01*
X157521658Y-101281091D01*
X157521658Y-101281087D01*
X157511060Y-101255501D01*
X157465087Y-101144511D01*
X157465080Y-101144498D01*
X157382951Y-101021584D01*
X157382948Y-101021580D01*
X157278419Y-100917051D01*
X157278415Y-100917048D01*
X157155501Y-100834919D01*
X157155488Y-100834912D01*
X157018917Y-100778343D01*
X157018907Y-100778340D01*
X156873920Y-100749500D01*
X156873918Y-100749500D01*
X156726082Y-100749500D01*
X156726080Y-100749500D01*
X156581092Y-100778340D01*
X156581082Y-100778343D01*
X156444511Y-100834912D01*
X156444498Y-100834919D01*
X156321584Y-100917048D01*
X156321580Y-100917051D01*
X156217051Y-101021580D01*
X156217048Y-101021584D01*
X156134919Y-101144498D01*
X156134912Y-101144511D01*
X156078343Y-101281082D01*
X156078340Y-101281092D01*
X156049500Y-101426079D01*
X156049500Y-101426082D01*
X156049500Y-101573918D01*
X156049500Y-101573920D01*
X156049499Y-101573920D01*
X153347447Y-101573920D01*
X153362951Y-101558416D01*
X153445084Y-101435495D01*
X153455438Y-101410499D01*
X153471162Y-101372538D01*
X153488505Y-101330668D01*
X153501658Y-101298913D01*
X153524725Y-101182951D01*
X153530500Y-101153920D01*
X153530500Y-101006079D01*
X153501659Y-100861092D01*
X153501658Y-100861091D01*
X153501658Y-100861087D01*
X153490816Y-100834912D01*
X153445087Y-100724511D01*
X153445080Y-100724498D01*
X153362951Y-100601584D01*
X153362948Y-100601580D01*
X153258419Y-100497051D01*
X153258415Y-100497048D01*
X153234627Y-100481153D01*
X170199500Y-100481153D01*
X170199500Y-100638846D01*
X170230261Y-100793489D01*
X170230264Y-100793501D01*
X170290602Y-100939172D01*
X170290609Y-100939185D01*
X170378210Y-101070288D01*
X170378213Y-101070292D01*
X170489707Y-101181786D01*
X170489711Y-101181789D01*
X170620814Y-101269390D01*
X170620827Y-101269397D01*
X170752459Y-101323920D01*
X170766503Y-101329737D01*
X170912823Y-101358842D01*
X170921153Y-101360499D01*
X170921156Y-101360500D01*
X170921158Y-101360500D01*
X171078844Y-101360500D01*
X171078845Y-101360499D01*
X171233497Y-101329737D01*
X171379179Y-101269394D01*
X171510289Y-101181789D01*
X171621789Y-101070289D01*
X171709394Y-100939179D01*
X171718561Y-100917049D01*
X171741738Y-100861092D01*
X171769737Y-100793497D01*
X171800500Y-100638842D01*
X171800500Y-100531153D01*
X172839500Y-100531153D01*
X172839500Y-100688846D01*
X172870261Y-100843489D01*
X172870264Y-100843501D01*
X172930602Y-100989172D01*
X172930609Y-100989185D01*
X173018210Y-101120288D01*
X173018213Y-101120292D01*
X173129707Y-101231786D01*
X173129711Y-101231789D01*
X173260814Y-101319390D01*
X173260827Y-101319397D01*
X173360060Y-101360500D01*
X173406503Y-101379737D01*
X173561153Y-101410499D01*
X173561156Y-101410500D01*
X173561158Y-101410500D01*
X173718844Y-101410500D01*
X173718845Y-101410499D01*
X173873497Y-101379737D01*
X174019179Y-101319394D01*
X174150289Y-101231789D01*
X174261789Y-101120289D01*
X174349394Y-100989179D01*
X174409737Y-100843497D01*
X174440500Y-100688842D01*
X174440500Y-100531158D01*
X174440500Y-100531155D01*
X174440499Y-100531153D01*
X174432193Y-100489397D01*
X174409737Y-100376503D01*
X174390268Y-100329500D01*
X174349397Y-100230827D01*
X174349390Y-100230814D01*
X174261789Y-100099711D01*
X174261786Y-100099707D01*
X174150292Y-99988213D01*
X174150288Y-99988210D01*
X174019185Y-99900609D01*
X174019172Y-99900602D01*
X173873501Y-99840264D01*
X173873489Y-99840261D01*
X173718845Y-99809500D01*
X173718842Y-99809500D01*
X173561158Y-99809500D01*
X173561155Y-99809500D01*
X173406510Y-99840261D01*
X173406498Y-99840264D01*
X173260827Y-99900602D01*
X173260814Y-99900609D01*
X173129711Y-99988210D01*
X173129707Y-99988213D01*
X173018213Y-100099707D01*
X173018210Y-100099711D01*
X172930609Y-100230814D01*
X172930602Y-100230827D01*
X172870264Y-100376498D01*
X172870261Y-100376510D01*
X172839500Y-100531153D01*
X171800500Y-100531153D01*
X171800500Y-100481158D01*
X171800500Y-100481155D01*
X171800499Y-100481153D01*
X171788649Y-100421580D01*
X171769737Y-100326503D01*
X171769735Y-100326498D01*
X171709397Y-100180827D01*
X171709390Y-100180814D01*
X171621789Y-100049711D01*
X171621786Y-100049707D01*
X171510292Y-99938213D01*
X171510288Y-99938210D01*
X171379185Y-99850609D01*
X171379172Y-99850602D01*
X171233501Y-99790264D01*
X171233489Y-99790261D01*
X171078845Y-99759500D01*
X171078842Y-99759500D01*
X170921158Y-99759500D01*
X170921155Y-99759500D01*
X170766510Y-99790261D01*
X170766498Y-99790264D01*
X170620827Y-99850602D01*
X170620814Y-99850609D01*
X170489711Y-99938210D01*
X170489707Y-99938213D01*
X170378213Y-100049707D01*
X170378210Y-100049711D01*
X170290609Y-100180814D01*
X170290602Y-100180827D01*
X170230264Y-100326498D01*
X170230261Y-100326510D01*
X170199500Y-100481153D01*
X153234627Y-100481153D01*
X153135501Y-100414919D01*
X153135488Y-100414912D01*
X152998917Y-100358343D01*
X152998907Y-100358340D01*
X152853920Y-100329500D01*
X152853918Y-100329500D01*
X152706082Y-100329500D01*
X152706080Y-100329500D01*
X152561092Y-100358340D01*
X152561082Y-100358343D01*
X152424511Y-100414912D01*
X152424498Y-100414919D01*
X152301584Y-100497048D01*
X152301580Y-100497051D01*
X152197051Y-100601580D01*
X152197048Y-100601584D01*
X152114919Y-100724498D01*
X152114912Y-100724511D01*
X152058343Y-100861082D01*
X152058340Y-100861092D01*
X152029500Y-101006079D01*
X152029500Y-101006082D01*
X152029500Y-101153918D01*
X152029500Y-101153920D01*
X152029499Y-101153920D01*
X149581104Y-101153920D01*
X149559737Y-101046503D01*
X149515282Y-100939179D01*
X149499397Y-100900827D01*
X149499390Y-100900814D01*
X149411789Y-100769711D01*
X149411786Y-100769707D01*
X149300292Y-100658213D01*
X149300288Y-100658210D01*
X149169185Y-100570609D01*
X149169172Y-100570602D01*
X149023501Y-100510264D01*
X149023489Y-100510261D01*
X148868845Y-100479500D01*
X148868842Y-100479500D01*
X148804500Y-100479500D01*
X148737461Y-100459815D01*
X148691706Y-100407011D01*
X148680500Y-100355500D01*
X148680500Y-100351155D01*
X148680499Y-100351153D01*
X148674617Y-100321584D01*
X148649737Y-100196503D01*
X148643241Y-100180821D01*
X148589397Y-100050827D01*
X148589390Y-100050814D01*
X148501789Y-99919711D01*
X148501786Y-99919707D01*
X148390292Y-99808213D01*
X148390288Y-99808210D01*
X148259185Y-99720609D01*
X148259172Y-99720602D01*
X148113492Y-99660260D01*
X148108909Y-99658870D01*
X148050473Y-99620567D01*
X148023297Y-99564404D01*
X148019737Y-99546503D01*
X148001703Y-99502965D01*
X147959397Y-99400827D01*
X147959390Y-99400814D01*
X147928081Y-99353957D01*
X147886116Y-99291153D01*
X168689500Y-99291153D01*
X168689500Y-99448846D01*
X168720261Y-99603489D01*
X168720264Y-99603501D01*
X168780602Y-99749172D01*
X168780609Y-99749185D01*
X168868210Y-99880288D01*
X168868213Y-99880292D01*
X168979707Y-99991786D01*
X168979711Y-99991789D01*
X169110814Y-100079390D01*
X169110827Y-100079397D01*
X169212677Y-100121584D01*
X169256503Y-100139737D01*
X169411153Y-100170499D01*
X169411156Y-100170500D01*
X169411158Y-100170500D01*
X169568844Y-100170500D01*
X169568845Y-100170499D01*
X169723497Y-100139737D01*
X169869179Y-100079394D01*
X170000289Y-99991789D01*
X170111789Y-99880289D01*
X170199394Y-99749179D01*
X170259737Y-99603497D01*
X170290500Y-99448842D01*
X170290500Y-99291158D01*
X170290500Y-99291155D01*
X170290499Y-99291153D01*
X170284244Y-99259707D01*
X170259737Y-99136503D01*
X170222038Y-99045488D01*
X170199397Y-98990827D01*
X170199390Y-98990814D01*
X170111789Y-98859711D01*
X170111786Y-98859707D01*
X170000292Y-98748213D01*
X170000288Y-98748210D01*
X169869185Y-98660609D01*
X169869172Y-98660602D01*
X169723501Y-98600264D01*
X169723489Y-98600261D01*
X169568845Y-98569500D01*
X169568842Y-98569500D01*
X169411158Y-98569500D01*
X169411155Y-98569500D01*
X169256510Y-98600261D01*
X169256498Y-98600264D01*
X169110827Y-98660602D01*
X169110814Y-98660609D01*
X168979711Y-98748210D01*
X168979707Y-98748213D01*
X168868213Y-98859707D01*
X168868210Y-98859711D01*
X168780609Y-98990814D01*
X168780602Y-98990827D01*
X168720264Y-99136498D01*
X168720261Y-99136510D01*
X168689500Y-99291153D01*
X147886116Y-99291153D01*
X147871789Y-99269711D01*
X147871786Y-99269707D01*
X147760292Y-99158213D01*
X147760288Y-99158210D01*
X147629185Y-99070609D01*
X147629172Y-99070602D01*
X147483501Y-99010264D01*
X147483489Y-99010261D01*
X147328845Y-98979500D01*
X147328842Y-98979500D01*
X147171158Y-98979500D01*
X147171155Y-98979500D01*
X147016510Y-99010261D01*
X147016498Y-99010264D01*
X146870827Y-99070602D01*
X146870814Y-99070609D01*
X146739711Y-99158210D01*
X146739707Y-99158213D01*
X146628213Y-99269707D01*
X146628210Y-99269711D01*
X146540609Y-99400814D01*
X146540602Y-99400827D01*
X146501632Y-99494912D01*
X146457791Y-99549316D01*
X146391497Y-99571381D01*
X146323798Y-99554102D01*
X146276187Y-99502965D01*
X146272510Y-99494912D01*
X146229397Y-99390827D01*
X146229390Y-99390814D01*
X146141789Y-99259711D01*
X146141786Y-99259707D01*
X146030292Y-99148213D01*
X146030288Y-99148210D01*
X145899185Y-99060609D01*
X145899172Y-99060602D01*
X145753501Y-99000264D01*
X145753489Y-99000261D01*
X145598845Y-98969500D01*
X145598842Y-98969500D01*
X145441158Y-98969500D01*
X145441155Y-98969500D01*
X145286510Y-99000261D01*
X145286498Y-99000264D01*
X145140827Y-99060602D01*
X145140814Y-99060609D01*
X145009711Y-99148210D01*
X145009707Y-99148213D01*
X144898213Y-99259707D01*
X144898210Y-99259711D01*
X144810609Y-99390814D01*
X144810602Y-99390827D01*
X144750264Y-99536498D01*
X144750261Y-99536510D01*
X144719500Y-99691153D01*
X115000500Y-99691153D01*
X115000500Y-92099983D01*
X122944500Y-92099983D01*
X122944500Y-93400001D01*
X122944501Y-93400018D01*
X122955000Y-93502796D01*
X122955001Y-93502799D01*
X123010185Y-93669331D01*
X123010187Y-93669336D01*
X123022881Y-93689916D01*
X123073541Y-93772050D01*
X123102289Y-93818657D01*
X123226344Y-93942712D01*
X123381120Y-94038178D01*
X123427845Y-94090126D01*
X123439068Y-94159088D01*
X123411224Y-94223171D01*
X123403706Y-94231398D01*
X123264889Y-94370215D01*
X123139951Y-94542179D01*
X123043444Y-94731585D01*
X122977753Y-94933760D01*
X122944500Y-95143713D01*
X122944500Y-95356286D01*
X122976936Y-95561082D01*
X122977754Y-95566243D01*
X123032560Y-95734919D01*
X123043444Y-95768414D01*
X123139951Y-95957820D01*
X123264890Y-96129786D01*
X123415213Y-96280109D01*
X123587179Y-96405048D01*
X123587181Y-96405049D01*
X123587184Y-96405051D01*
X123776588Y-96501557D01*
X123978757Y-96567246D01*
X124188713Y-96600500D01*
X124188714Y-96600500D01*
X124701286Y-96600500D01*
X124701287Y-96600500D01*
X124911243Y-96567246D01*
X125113412Y-96501557D01*
X125167653Y-96473920D01*
X134049499Y-96473920D01*
X134078340Y-96618907D01*
X134078343Y-96618917D01*
X134134912Y-96755488D01*
X134134919Y-96755501D01*
X134217048Y-96878415D01*
X134217051Y-96878419D01*
X134321580Y-96982948D01*
X134321584Y-96982951D01*
X134444498Y-97065080D01*
X134444511Y-97065087D01*
X134581082Y-97121656D01*
X134581087Y-97121658D01*
X134581091Y-97121658D01*
X134581092Y-97121659D01*
X134726079Y-97150500D01*
X134726082Y-97150500D01*
X134873920Y-97150500D01*
X134971462Y-97131096D01*
X135018913Y-97121658D01*
X135130368Y-97075492D01*
X135155488Y-97065087D01*
X135155488Y-97065086D01*
X135155495Y-97065084D01*
X135278416Y-96982951D01*
X135382951Y-96878416D01*
X135439409Y-96793920D01*
X137649499Y-96793920D01*
X137678340Y-96938907D01*
X137678343Y-96938917D01*
X137734912Y-97075488D01*
X137734919Y-97075501D01*
X137817048Y-97198415D01*
X137817051Y-97198419D01*
X137921580Y-97302948D01*
X137921584Y-97302951D01*
X138044498Y-97385080D01*
X138044511Y-97385087D01*
X138181082Y-97441656D01*
X138181087Y-97441658D01*
X138181091Y-97441658D01*
X138181092Y-97441659D01*
X138326079Y-97470500D01*
X138326082Y-97470500D01*
X138473920Y-97470500D01*
X138571462Y-97451096D01*
X138618913Y-97441658D01*
X138755495Y-97385084D01*
X138878416Y-97302951D01*
X138947447Y-97233920D01*
X148209499Y-97233920D01*
X148238340Y-97378907D01*
X148238343Y-97378917D01*
X148294912Y-97515488D01*
X148294919Y-97515501D01*
X148377048Y-97638415D01*
X148377051Y-97638419D01*
X148481580Y-97742948D01*
X148481584Y-97742951D01*
X148604498Y-97825080D01*
X148604511Y-97825087D01*
X148741082Y-97881656D01*
X148741087Y-97881658D01*
X148741091Y-97881658D01*
X148741092Y-97881659D01*
X148886079Y-97910500D01*
X148886082Y-97910500D01*
X149033920Y-97910500D01*
X149131462Y-97891096D01*
X149178913Y-97881658D01*
X149315495Y-97825084D01*
X149438416Y-97742951D01*
X149542951Y-97638416D01*
X149577721Y-97586379D01*
X176694500Y-97586379D01*
X176694500Y-97773620D01*
X176731025Y-97957243D01*
X176731027Y-97957251D01*
X176802676Y-98130228D01*
X176802681Y-98130237D01*
X176906697Y-98285907D01*
X176906700Y-98285911D01*
X177039088Y-98418299D01*
X177039092Y-98418302D01*
X177194762Y-98522318D01*
X177194768Y-98522321D01*
X177194769Y-98522322D01*
X177367749Y-98593973D01*
X177551379Y-98630499D01*
X177551383Y-98630500D01*
X177551384Y-98630500D01*
X178345500Y-98630500D01*
X178412539Y-98650185D01*
X178458294Y-98702989D01*
X178469500Y-98754500D01*
X178469500Y-98763918D01*
X178469500Y-98763920D01*
X178469499Y-98763920D01*
X178498340Y-98908907D01*
X178498343Y-98908917D01*
X178554912Y-99045488D01*
X178554919Y-99045501D01*
X178637048Y-99168415D01*
X178637051Y-99168419D01*
X178741580Y-99272948D01*
X178741584Y-99272951D01*
X178864498Y-99355080D01*
X178864511Y-99355087D01*
X179001082Y-99411656D01*
X179001087Y-99411658D01*
X179001091Y-99411658D01*
X179001092Y-99411659D01*
X179146079Y-99440500D01*
X179146082Y-99440500D01*
X179293920Y-99440500D01*
X179391462Y-99421096D01*
X179438913Y-99411658D01*
X179575495Y-99355084D01*
X179698416Y-99272951D01*
X179802951Y-99168416D01*
X179885084Y-99045495D01*
X179941658Y-98908913D01*
X179970500Y-98763918D01*
X179970500Y-98616082D01*
X179970500Y-98616079D01*
X179941659Y-98471092D01*
X179941658Y-98471091D01*
X179941658Y-98471087D01*
X179919793Y-98418299D01*
X179885087Y-98334511D01*
X179885080Y-98334498D01*
X179802951Y-98211584D01*
X179802948Y-98211580D01*
X179698420Y-98107052D01*
X179693766Y-98103233D01*
X179654429Y-98045490D01*
X179652555Y-97975645D01*
X179657864Y-97959926D01*
X179658973Y-97957251D01*
X179695500Y-97773616D01*
X179695500Y-97586384D01*
X179695499Y-97586379D01*
X181014500Y-97586379D01*
X181014500Y-97773620D01*
X181051025Y-97957243D01*
X181051027Y-97957251D01*
X181122676Y-98130228D01*
X181122681Y-98130237D01*
X181226697Y-98285907D01*
X181226700Y-98285911D01*
X181359088Y-98418299D01*
X181359092Y-98418302D01*
X181514762Y-98522318D01*
X181514768Y-98522321D01*
X181514769Y-98522322D01*
X181687749Y-98593973D01*
X181871379Y-98630499D01*
X181871383Y-98630500D01*
X181871384Y-98630500D01*
X182858617Y-98630500D01*
X182858618Y-98630499D01*
X183042251Y-98593973D01*
X183215231Y-98522322D01*
X183370908Y-98418302D01*
X183503302Y-98285908D01*
X183607322Y-98130231D01*
X183678973Y-97957251D01*
X183715500Y-97773616D01*
X183715500Y-97586384D01*
X183678973Y-97402749D01*
X183621593Y-97264222D01*
X183607323Y-97229771D01*
X183607318Y-97229762D01*
X183503302Y-97074092D01*
X183503299Y-97074088D01*
X183370911Y-96941700D01*
X183370907Y-96941697D01*
X183215237Y-96837681D01*
X183215228Y-96837676D01*
X183042251Y-96766027D01*
X183042243Y-96766025D01*
X182858620Y-96729500D01*
X182858616Y-96729500D01*
X181871384Y-96729500D01*
X181871379Y-96729500D01*
X181687756Y-96766025D01*
X181687748Y-96766027D01*
X181514771Y-96837676D01*
X181514762Y-96837681D01*
X181359092Y-96941697D01*
X181359088Y-96941700D01*
X181226700Y-97074088D01*
X181226697Y-97074092D01*
X181122681Y-97229762D01*
X181122676Y-97229771D01*
X181051027Y-97402748D01*
X181051025Y-97402756D01*
X181014500Y-97586379D01*
X179695499Y-97586379D01*
X179658973Y-97402749D01*
X179601593Y-97264222D01*
X179587323Y-97229771D01*
X179587318Y-97229762D01*
X179483302Y-97074092D01*
X179483299Y-97074088D01*
X179350911Y-96941700D01*
X179350907Y-96941697D01*
X179195237Y-96837681D01*
X179195228Y-96837676D01*
X179022251Y-96766027D01*
X179022243Y-96766025D01*
X178838620Y-96729500D01*
X178838616Y-96729500D01*
X177551384Y-96729500D01*
X177551379Y-96729500D01*
X177367756Y-96766025D01*
X177367748Y-96766027D01*
X177194771Y-96837676D01*
X177194762Y-96837681D01*
X177039092Y-96941697D01*
X177039088Y-96941700D01*
X176906700Y-97074088D01*
X176906697Y-97074092D01*
X176802681Y-97229762D01*
X176802676Y-97229771D01*
X176731027Y-97402748D01*
X176731025Y-97402756D01*
X176694500Y-97586379D01*
X149577721Y-97586379D01*
X149625084Y-97515495D01*
X149681658Y-97378913D01*
X149704472Y-97264221D01*
X149736857Y-97202311D01*
X149797572Y-97167737D01*
X149867342Y-97171476D01*
X149894980Y-97185311D01*
X149954498Y-97225080D01*
X149954511Y-97225087D01*
X150091082Y-97281656D01*
X150091087Y-97281658D01*
X150091091Y-97281658D01*
X150091092Y-97281659D01*
X150236079Y-97310500D01*
X150236082Y-97310500D01*
X150383920Y-97310500D01*
X150481462Y-97291096D01*
X150528913Y-97281658D01*
X150654180Y-97229771D01*
X150665488Y-97225087D01*
X150665488Y-97225086D01*
X150665495Y-97225084D01*
X150788416Y-97142951D01*
X150892951Y-97038416D01*
X150975084Y-96915495D01*
X151031658Y-96778913D01*
X151041487Y-96729500D01*
X151060500Y-96633920D01*
X151060500Y-96486079D01*
X151031659Y-96341092D01*
X151031658Y-96341091D01*
X151031658Y-96341087D01*
X151025443Y-96326082D01*
X150975087Y-96204511D01*
X150975080Y-96204498D01*
X150892951Y-96081584D01*
X150892948Y-96081580D01*
X150788419Y-95977051D01*
X150788415Y-95977048D01*
X150665501Y-95894919D01*
X150665488Y-95894912D01*
X150528917Y-95838343D01*
X150528907Y-95838340D01*
X150383920Y-95809500D01*
X150383918Y-95809500D01*
X150236082Y-95809500D01*
X150236080Y-95809500D01*
X150091092Y-95838340D01*
X150091082Y-95838343D01*
X149954511Y-95894912D01*
X149954498Y-95894919D01*
X149831584Y-95977048D01*
X149831580Y-95977051D01*
X149727051Y-96081580D01*
X149727048Y-96081584D01*
X149644919Y-96204498D01*
X149644912Y-96204511D01*
X149588343Y-96341082D01*
X149588340Y-96341092D01*
X149565527Y-96455778D01*
X149533141Y-96517689D01*
X149472425Y-96552263D01*
X149402656Y-96548522D01*
X149375019Y-96534688D01*
X149315501Y-96494919D01*
X149315488Y-96494912D01*
X149178917Y-96438343D01*
X149178907Y-96438340D01*
X149033920Y-96409500D01*
X149033918Y-96409500D01*
X148886082Y-96409500D01*
X148886080Y-96409500D01*
X148741092Y-96438340D01*
X148741082Y-96438343D01*
X148604511Y-96494912D01*
X148604498Y-96494919D01*
X148481584Y-96577048D01*
X148481580Y-96577051D01*
X148377051Y-96681580D01*
X148377048Y-96681584D01*
X148294919Y-96804498D01*
X148294912Y-96804511D01*
X148238343Y-96941082D01*
X148238340Y-96941092D01*
X148209500Y-97086079D01*
X148209500Y-97086082D01*
X148209500Y-97233918D01*
X148209500Y-97233920D01*
X148209499Y-97233920D01*
X138947447Y-97233920D01*
X138982951Y-97198416D01*
X139065084Y-97075495D01*
X139073839Y-97054357D01*
X139082878Y-97032537D01*
X139082878Y-97032536D01*
X139121658Y-96938913D01*
X139141795Y-96837681D01*
X139150500Y-96793920D01*
X139150500Y-96646079D01*
X139121659Y-96501092D01*
X139121658Y-96501091D01*
X139121658Y-96501087D01*
X139115443Y-96486082D01*
X139065087Y-96364511D01*
X139065080Y-96364498D01*
X138982951Y-96241584D01*
X138982948Y-96241580D01*
X138878419Y-96137051D01*
X138878415Y-96137048D01*
X138755501Y-96054919D01*
X138755488Y-96054912D01*
X138618917Y-95998343D01*
X138618907Y-95998340D01*
X138473920Y-95969500D01*
X138473918Y-95969500D01*
X138326082Y-95969500D01*
X138326080Y-95969500D01*
X138181092Y-95998340D01*
X138181082Y-95998343D01*
X138044511Y-96054912D01*
X138044498Y-96054919D01*
X137921584Y-96137048D01*
X137921580Y-96137051D01*
X137817051Y-96241580D01*
X137817048Y-96241584D01*
X137734919Y-96364498D01*
X137734912Y-96364511D01*
X137678343Y-96501082D01*
X137678340Y-96501092D01*
X137649500Y-96646079D01*
X137649500Y-96646082D01*
X137649500Y-96793918D01*
X137649500Y-96793920D01*
X137649499Y-96793920D01*
X135439409Y-96793920D01*
X135465084Y-96755495D01*
X135521658Y-96618913D01*
X135529985Y-96577051D01*
X135550500Y-96473920D01*
X135550500Y-96326079D01*
X135521659Y-96181092D01*
X135521658Y-96181091D01*
X135521658Y-96181087D01*
X135504674Y-96140084D01*
X135465087Y-96044511D01*
X135465080Y-96044498D01*
X135382951Y-95921584D01*
X135382948Y-95921580D01*
X135315288Y-95853920D01*
X142229499Y-95853920D01*
X142258340Y-95998907D01*
X142258343Y-95998917D01*
X142314912Y-96135488D01*
X142314919Y-96135501D01*
X142397048Y-96258415D01*
X142397051Y-96258419D01*
X142501580Y-96362948D01*
X142501584Y-96362951D01*
X142624498Y-96445080D01*
X142624511Y-96445087D01*
X142760838Y-96501555D01*
X142761087Y-96501658D01*
X142761091Y-96501658D01*
X142761092Y-96501659D01*
X142906079Y-96530500D01*
X142906082Y-96530500D01*
X143053920Y-96530500D01*
X143151462Y-96511096D01*
X143198913Y-96501658D01*
X143335495Y-96445084D01*
X143458416Y-96362951D01*
X143562951Y-96258416D01*
X143645084Y-96135495D01*
X143701658Y-95998913D01*
X143730500Y-95853918D01*
X143730500Y-95706082D01*
X143730500Y-95706079D01*
X143701659Y-95561092D01*
X143701658Y-95561091D01*
X143701658Y-95561087D01*
X143696618Y-95548920D01*
X159884499Y-95548920D01*
X159913340Y-95693907D01*
X159913343Y-95693917D01*
X159969912Y-95830488D01*
X159969919Y-95830501D01*
X160052048Y-95953415D01*
X160052051Y-95953419D01*
X160156580Y-96057948D01*
X160156584Y-96057951D01*
X160279498Y-96140080D01*
X160279511Y-96140087D01*
X160378483Y-96181082D01*
X160416087Y-96196658D01*
X160416091Y-96196658D01*
X160416092Y-96196659D01*
X160561079Y-96225500D01*
X160561082Y-96225500D01*
X160708920Y-96225500D01*
X160814464Y-96204505D01*
X160853913Y-96196658D01*
X160990495Y-96140084D01*
X161113416Y-96057951D01*
X161217951Y-95953416D01*
X161300084Y-95830495D01*
X161356658Y-95693913D01*
X161382055Y-95566239D01*
X161385500Y-95548920D01*
X161385500Y-95401079D01*
X161356182Y-95253692D01*
X161362409Y-95184100D01*
X161405272Y-95128923D01*
X161471161Y-95105678D01*
X161477799Y-95105500D01*
X161628920Y-95105500D01*
X161726462Y-95086096D01*
X161773913Y-95076658D01*
X161910495Y-95020084D01*
X162033416Y-94937951D01*
X162137951Y-94833416D01*
X162220084Y-94710495D01*
X162276658Y-94573913D01*
X162296998Y-94471659D01*
X162305500Y-94428920D01*
X162305500Y-94281079D01*
X162276659Y-94136092D01*
X162276658Y-94136091D01*
X162276658Y-94136087D01*
X162263989Y-94105501D01*
X162220087Y-93999511D01*
X162220080Y-93999498D01*
X162137951Y-93876584D01*
X162137948Y-93876580D01*
X162085288Y-93823920D01*
X163999499Y-93823920D01*
X164028340Y-93968907D01*
X164028343Y-93968917D01*
X164084912Y-94105488D01*
X164084919Y-94105501D01*
X164167048Y-94228415D01*
X164167051Y-94228419D01*
X164271580Y-94332948D01*
X164271584Y-94332951D01*
X164394498Y-94415080D01*
X164394511Y-94415087D01*
X164531082Y-94471656D01*
X164531087Y-94471658D01*
X164531091Y-94471658D01*
X164531092Y-94471659D01*
X164676079Y-94500500D01*
X164676082Y-94500500D01*
X164823920Y-94500500D01*
X164921462Y-94481096D01*
X164968913Y-94471658D01*
X165105495Y-94415084D01*
X165228416Y-94332951D01*
X165332951Y-94228416D01*
X165415084Y-94105495D01*
X165417202Y-94100383D01*
X165440370Y-94044450D01*
X165471658Y-93968913D01*
X165492736Y-93862951D01*
X165500500Y-93823920D01*
X165500500Y-93676079D01*
X165471659Y-93531092D01*
X165471658Y-93531091D01*
X165471658Y-93531087D01*
X165417364Y-93400009D01*
X165415087Y-93394511D01*
X165415080Y-93394498D01*
X165332951Y-93271584D01*
X165332948Y-93271580D01*
X165228419Y-93167051D01*
X165228415Y-93167048D01*
X165105501Y-93084919D01*
X165105488Y-93084912D01*
X164968917Y-93028343D01*
X164968907Y-93028340D01*
X164823920Y-92999500D01*
X164823918Y-92999500D01*
X164676082Y-92999500D01*
X164676080Y-92999500D01*
X164531092Y-93028340D01*
X164531082Y-93028343D01*
X164394511Y-93084912D01*
X164394498Y-93084919D01*
X164271584Y-93167048D01*
X164271580Y-93167051D01*
X164167051Y-93271580D01*
X164167048Y-93271584D01*
X164084919Y-93394498D01*
X164084912Y-93394511D01*
X164028343Y-93531082D01*
X164028340Y-93531092D01*
X163999500Y-93676079D01*
X163999500Y-93676082D01*
X163999500Y-93823918D01*
X163999500Y-93823920D01*
X163999499Y-93823920D01*
X162085288Y-93823920D01*
X162033419Y-93772051D01*
X162033417Y-93772050D01*
X162033414Y-93772048D01*
X162002999Y-93751725D01*
X161910501Y-93689919D01*
X161910488Y-93689912D01*
X161773917Y-93633343D01*
X161773907Y-93633340D01*
X161628920Y-93604500D01*
X161628918Y-93604500D01*
X161481082Y-93604500D01*
X161481080Y-93604500D01*
X161336092Y-93633340D01*
X161336082Y-93633343D01*
X161199511Y-93689912D01*
X161199498Y-93689919D01*
X161076584Y-93772048D01*
X161076580Y-93772051D01*
X160972051Y-93876580D01*
X160972048Y-93876584D01*
X160889919Y-93999498D01*
X160889912Y-93999511D01*
X160833343Y-94136082D01*
X160833340Y-94136092D01*
X160804500Y-94281079D01*
X160804500Y-94281082D01*
X160804500Y-94428918D01*
X160804500Y-94428920D01*
X160804499Y-94428920D01*
X160833818Y-94576308D01*
X160827591Y-94645900D01*
X160784728Y-94701077D01*
X160718839Y-94724322D01*
X160712201Y-94724500D01*
X160561080Y-94724500D01*
X160416092Y-94753340D01*
X160416082Y-94753343D01*
X160279511Y-94809912D01*
X160279498Y-94809919D01*
X160156584Y-94892048D01*
X160156580Y-94892051D01*
X160052051Y-94996580D01*
X160052048Y-94996584D01*
X159969919Y-95119498D01*
X159969912Y-95119511D01*
X159913343Y-95256082D01*
X159913340Y-95256092D01*
X159884500Y-95401079D01*
X159884500Y-95401082D01*
X159884500Y-95548918D01*
X159884500Y-95548920D01*
X159884499Y-95548920D01*
X143696618Y-95548920D01*
X143645084Y-95424505D01*
X143645080Y-95424498D01*
X143562951Y-95301584D01*
X143562948Y-95301580D01*
X143458419Y-95197051D01*
X143458415Y-95197048D01*
X143335501Y-95114919D01*
X143335488Y-95114912D01*
X143198917Y-95058343D01*
X143198907Y-95058340D01*
X143053920Y-95029500D01*
X143053918Y-95029500D01*
X142906082Y-95029500D01*
X142906080Y-95029500D01*
X142761092Y-95058340D01*
X142761082Y-95058343D01*
X142624511Y-95114912D01*
X142624498Y-95114919D01*
X142501584Y-95197048D01*
X142501580Y-95197051D01*
X142397051Y-95301580D01*
X142397048Y-95301584D01*
X142314919Y-95424498D01*
X142314912Y-95424511D01*
X142258343Y-95561082D01*
X142258340Y-95561092D01*
X142229500Y-95706079D01*
X142229500Y-95706082D01*
X142229500Y-95853918D01*
X142229500Y-95853920D01*
X142229499Y-95853920D01*
X135315288Y-95853920D01*
X135278418Y-95817050D01*
X135257529Y-95803093D01*
X135257528Y-95803092D01*
X135155501Y-95734919D01*
X135155488Y-95734912D01*
X135018917Y-95678343D01*
X135018907Y-95678340D01*
X134873920Y-95649500D01*
X134873918Y-95649500D01*
X134726082Y-95649500D01*
X134726080Y-95649500D01*
X134581092Y-95678340D01*
X134581082Y-95678343D01*
X134444511Y-95734912D01*
X134444498Y-95734919D01*
X134321584Y-95817048D01*
X134321580Y-95817051D01*
X134217051Y-95921580D01*
X134217048Y-95921584D01*
X134134919Y-96044498D01*
X134134912Y-96044511D01*
X134078343Y-96181082D01*
X134078340Y-96181092D01*
X134049500Y-96326079D01*
X134049500Y-96326082D01*
X134049500Y-96473918D01*
X134049500Y-96473920D01*
X134049499Y-96473920D01*
X125167653Y-96473920D01*
X125302816Y-96405051D01*
X125390856Y-96341087D01*
X125474786Y-96280109D01*
X125474788Y-96280106D01*
X125474792Y-96280104D01*
X125625104Y-96129792D01*
X125625106Y-96129788D01*
X125625109Y-96129786D01*
X125736076Y-95977051D01*
X125750051Y-95957816D01*
X125846557Y-95768412D01*
X125912246Y-95566243D01*
X125945500Y-95356287D01*
X125945500Y-95143713D01*
X125928110Y-95033920D01*
X130479499Y-95033920D01*
X130508340Y-95178907D01*
X130508343Y-95178917D01*
X130564912Y-95315488D01*
X130564919Y-95315501D01*
X130647048Y-95438415D01*
X130647051Y-95438419D01*
X130751580Y-95542948D01*
X130751584Y-95542951D01*
X130874498Y-95625080D01*
X130874511Y-95625087D01*
X131003081Y-95678342D01*
X131011087Y-95681658D01*
X131011091Y-95681658D01*
X131011092Y-95681659D01*
X131156079Y-95710500D01*
X131156082Y-95710500D01*
X131303920Y-95710500D01*
X131401462Y-95691096D01*
X131448913Y-95681658D01*
X131585495Y-95625084D01*
X131708416Y-95542951D01*
X131812951Y-95438416D01*
X131895084Y-95315495D01*
X131951658Y-95178913D01*
X131971998Y-95076659D01*
X131980500Y-95033920D01*
X131980500Y-94886079D01*
X131951659Y-94741092D01*
X131951658Y-94741091D01*
X131951658Y-94741087D01*
X131947722Y-94731585D01*
X131895087Y-94604511D01*
X131895080Y-94604498D01*
X131812951Y-94481584D01*
X131812948Y-94481580D01*
X131708419Y-94377051D01*
X131708415Y-94377048D01*
X131585501Y-94294919D01*
X131585488Y-94294912D01*
X131448917Y-94238343D01*
X131448907Y-94238340D01*
X131303920Y-94209500D01*
X131303918Y-94209500D01*
X131156082Y-94209500D01*
X131156080Y-94209500D01*
X131011092Y-94238340D01*
X131011082Y-94238343D01*
X130874511Y-94294912D01*
X130874498Y-94294919D01*
X130751584Y-94377048D01*
X130751580Y-94377051D01*
X130647051Y-94481580D01*
X130647048Y-94481584D01*
X130564919Y-94604498D01*
X130564912Y-94604511D01*
X130508343Y-94741082D01*
X130508340Y-94741092D01*
X130479500Y-94886079D01*
X130479500Y-94886082D01*
X130479500Y-95033918D01*
X130479500Y-95033920D01*
X130479499Y-95033920D01*
X125928110Y-95033920D01*
X125912246Y-94933757D01*
X125846557Y-94731588D01*
X125750051Y-94542184D01*
X125750049Y-94542181D01*
X125750048Y-94542179D01*
X125625109Y-94370213D01*
X125486294Y-94231398D01*
X125452809Y-94170075D01*
X125457793Y-94100383D01*
X125499665Y-94044450D01*
X125508879Y-94038178D01*
X125514331Y-94034814D01*
X125514334Y-94034814D01*
X125663656Y-93942712D01*
X125787712Y-93818656D01*
X125879814Y-93669334D01*
X125934999Y-93502797D01*
X125945500Y-93400009D01*
X125945500Y-93353920D01*
X140739499Y-93353920D01*
X140768340Y-93498907D01*
X140768343Y-93498917D01*
X140824912Y-93635488D01*
X140824919Y-93635501D01*
X140907048Y-93758415D01*
X140907051Y-93758419D01*
X141011580Y-93862948D01*
X141011584Y-93862951D01*
X141134498Y-93945080D01*
X141134511Y-93945087D01*
X141271082Y-94001656D01*
X141271087Y-94001658D01*
X141271091Y-94001658D01*
X141271092Y-94001659D01*
X141416079Y-94030500D01*
X141416082Y-94030500D01*
X141563920Y-94030500D01*
X141661462Y-94011096D01*
X141708913Y-94001658D01*
X141845495Y-93945084D01*
X141968416Y-93862951D01*
X142072951Y-93758416D01*
X142155084Y-93635495D01*
X142211658Y-93498913D01*
X142231330Y-93400018D01*
X142240500Y-93353920D01*
X142240500Y-93206079D01*
X142211659Y-93061092D01*
X142211658Y-93061091D01*
X142211658Y-93061087D01*
X142181557Y-92988416D01*
X142155087Y-92924511D01*
X142155080Y-92924498D01*
X142072951Y-92801584D01*
X142072948Y-92801580D01*
X141968419Y-92697051D01*
X141968415Y-92697048D01*
X141845501Y-92614919D01*
X141845488Y-92614912D01*
X141708917Y-92558343D01*
X141708907Y-92558340D01*
X141563920Y-92529500D01*
X141563918Y-92529500D01*
X141416082Y-92529500D01*
X141416080Y-92529500D01*
X141271092Y-92558340D01*
X141271082Y-92558343D01*
X141134511Y-92614912D01*
X141134498Y-92614919D01*
X141011584Y-92697048D01*
X141011580Y-92697051D01*
X140907051Y-92801580D01*
X140907048Y-92801584D01*
X140824919Y-92924498D01*
X140824912Y-92924511D01*
X140768343Y-93061082D01*
X140768340Y-93061092D01*
X140739500Y-93206079D01*
X140739500Y-93206082D01*
X140739500Y-93353918D01*
X140739500Y-93353920D01*
X140739499Y-93353920D01*
X125945500Y-93353920D01*
X125945499Y-92728917D01*
X125945499Y-92113920D01*
X127679499Y-92113920D01*
X127708340Y-92258907D01*
X127708343Y-92258917D01*
X127764912Y-92395488D01*
X127764919Y-92395501D01*
X127847048Y-92518415D01*
X127847051Y-92518419D01*
X127951580Y-92622948D01*
X127951584Y-92622951D01*
X128074498Y-92705080D01*
X128074511Y-92705087D01*
X128183058Y-92750048D01*
X128211087Y-92761658D01*
X128211091Y-92761658D01*
X128211092Y-92761659D01*
X128356079Y-92790500D01*
X128356082Y-92790500D01*
X128503920Y-92790500D01*
X128601462Y-92771096D01*
X128648913Y-92761658D01*
X128785495Y-92705084D01*
X128908416Y-92622951D01*
X129012951Y-92518416D01*
X129095084Y-92395495D01*
X129151658Y-92258913D01*
X129168758Y-92172948D01*
X129180500Y-92113920D01*
X129180500Y-91966079D01*
X129151659Y-91821092D01*
X129151658Y-91821091D01*
X129151658Y-91821087D01*
X129126148Y-91759500D01*
X129095087Y-91684511D01*
X129095080Y-91684498D01*
X129081330Y-91663920D01*
X150339499Y-91663920D01*
X150368340Y-91808907D01*
X150368343Y-91808917D01*
X150424912Y-91945488D01*
X150424919Y-91945501D01*
X150507048Y-92068415D01*
X150507051Y-92068419D01*
X150611580Y-92172948D01*
X150611584Y-92172951D01*
X150734498Y-92255080D01*
X150734511Y-92255087D01*
X150849740Y-92302816D01*
X150871087Y-92311658D01*
X150871091Y-92311658D01*
X150871092Y-92311659D01*
X151016079Y-92340500D01*
X151016082Y-92340500D01*
X151163920Y-92340500D01*
X151261462Y-92321096D01*
X151308913Y-92311658D01*
X151436251Y-92258913D01*
X151445488Y-92255087D01*
X151445488Y-92255086D01*
X151445495Y-92255084D01*
X151568416Y-92172951D01*
X151672951Y-92068416D01*
X151755084Y-91945495D01*
X151811658Y-91808913D01*
X151836405Y-91684505D01*
X151840500Y-91663920D01*
X151840500Y-91516079D01*
X151811659Y-91371092D01*
X151811658Y-91371091D01*
X151811658Y-91371087D01*
X151789811Y-91318343D01*
X151755087Y-91234511D01*
X151755080Y-91234498D01*
X151724487Y-91188713D01*
X170399500Y-91188713D01*
X170399500Y-91701286D01*
X170418474Y-91821087D01*
X170432754Y-91911243D01*
X170494082Y-92099991D01*
X170498444Y-92113414D01*
X170594951Y-92302820D01*
X170719890Y-92474786D01*
X170870213Y-92625109D01*
X171042179Y-92750048D01*
X171042181Y-92750049D01*
X171042184Y-92750051D01*
X171231588Y-92846557D01*
X171433757Y-92912246D01*
X171643713Y-92945500D01*
X171643714Y-92945500D01*
X171856286Y-92945500D01*
X171856287Y-92945500D01*
X172066243Y-92912246D01*
X172268412Y-92846557D01*
X172457816Y-92750051D01*
X172629792Y-92625104D01*
X172768604Y-92486291D01*
X172829923Y-92452809D01*
X172899615Y-92457793D01*
X172955549Y-92499664D01*
X172961821Y-92508878D01*
X172965185Y-92514333D01*
X172965186Y-92514334D01*
X173057288Y-92663656D01*
X173181344Y-92787712D01*
X173330666Y-92879814D01*
X173497203Y-92934999D01*
X173599991Y-92945500D01*
X174900008Y-92945499D01*
X175002797Y-92934999D01*
X175169334Y-92879814D01*
X175318656Y-92787712D01*
X175442712Y-92663656D01*
X175491893Y-92583920D01*
X179529499Y-92583920D01*
X179558340Y-92728907D01*
X179558343Y-92728917D01*
X179614912Y-92865488D01*
X179614919Y-92865501D01*
X179697048Y-92988415D01*
X179697051Y-92988419D01*
X179801580Y-93092948D01*
X179801584Y-93092951D01*
X179924498Y-93175080D01*
X179924511Y-93175087D01*
X180061082Y-93231656D01*
X180061087Y-93231658D01*
X180061091Y-93231658D01*
X180061092Y-93231659D01*
X180206079Y-93260500D01*
X180206082Y-93260500D01*
X180353920Y-93260500D01*
X180451462Y-93241096D01*
X180498913Y-93231658D01*
X180635495Y-93175084D01*
X180758416Y-93092951D01*
X180862951Y-92988416D01*
X180945084Y-92865495D01*
X181001658Y-92728913D01*
X181022306Y-92625110D01*
X181030500Y-92583920D01*
X181030500Y-92436079D01*
X181001659Y-92291092D01*
X181001658Y-92291091D01*
X181001658Y-92291087D01*
X180988329Y-92258907D01*
X180945087Y-92154511D01*
X180945080Y-92154498D01*
X180862951Y-92031584D01*
X180862948Y-92031580D01*
X180758419Y-91927051D01*
X180758415Y-91927048D01*
X180635501Y-91844919D01*
X180635488Y-91844912D01*
X180498917Y-91788343D01*
X180498907Y-91788340D01*
X180353920Y-91759500D01*
X180353918Y-91759500D01*
X180206082Y-91759500D01*
X180206080Y-91759500D01*
X180061092Y-91788340D01*
X180061082Y-91788343D01*
X179924511Y-91844912D01*
X179924498Y-91844919D01*
X179801584Y-91927048D01*
X179801580Y-91927051D01*
X179697051Y-92031580D01*
X179697048Y-92031584D01*
X179614919Y-92154498D01*
X179614912Y-92154511D01*
X179558343Y-92291082D01*
X179558340Y-92291092D01*
X179529500Y-92436079D01*
X179529500Y-92436082D01*
X179529500Y-92583918D01*
X179529500Y-92583920D01*
X179529499Y-92583920D01*
X175491893Y-92583920D01*
X175534814Y-92514334D01*
X175589999Y-92347797D01*
X175600500Y-92245009D01*
X175600499Y-90644992D01*
X175599878Y-90638917D01*
X175589999Y-90542203D01*
X175589998Y-90542200D01*
X175534814Y-90375666D01*
X175442712Y-90226344D01*
X175318656Y-90102288D01*
X175169334Y-90010186D01*
X175002797Y-89955001D01*
X175002795Y-89955000D01*
X174900010Y-89944500D01*
X173599998Y-89944500D01*
X173599981Y-89944501D01*
X173497203Y-89955000D01*
X173497200Y-89955001D01*
X173330668Y-90010185D01*
X173330663Y-90010187D01*
X173181342Y-90102289D01*
X173057289Y-90226342D01*
X172961821Y-90381121D01*
X172909873Y-90427845D01*
X172840910Y-90439068D01*
X172776828Y-90411224D01*
X172768601Y-90403705D01*
X172629786Y-90264890D01*
X172457820Y-90139951D01*
X172268414Y-90043444D01*
X172268413Y-90043443D01*
X172268412Y-90043443D01*
X172066243Y-89977754D01*
X172066241Y-89977753D01*
X172066240Y-89977753D01*
X171904957Y-89952208D01*
X171856287Y-89944500D01*
X171643713Y-89944500D01*
X171595042Y-89952208D01*
X171433760Y-89977753D01*
X171231585Y-90043444D01*
X171042179Y-90139951D01*
X170870213Y-90264890D01*
X170719890Y-90415213D01*
X170594951Y-90587179D01*
X170498444Y-90776585D01*
X170432753Y-90978760D01*
X170399500Y-91188713D01*
X151724487Y-91188713D01*
X151672951Y-91111584D01*
X151672948Y-91111580D01*
X151568419Y-91007051D01*
X151568415Y-91007048D01*
X151445501Y-90924919D01*
X151445488Y-90924912D01*
X151308917Y-90868343D01*
X151308907Y-90868340D01*
X151163920Y-90839500D01*
X151163918Y-90839500D01*
X151016082Y-90839500D01*
X151016080Y-90839500D01*
X150871092Y-90868340D01*
X150871082Y-90868343D01*
X150734511Y-90924912D01*
X150734498Y-90924919D01*
X150611584Y-91007048D01*
X150611580Y-91007051D01*
X150507051Y-91111580D01*
X150507048Y-91111584D01*
X150424919Y-91234498D01*
X150424912Y-91234511D01*
X150368343Y-91371082D01*
X150368340Y-91371092D01*
X150339500Y-91516079D01*
X150339500Y-91516082D01*
X150339500Y-91663918D01*
X150339500Y-91663920D01*
X150339499Y-91663920D01*
X129081330Y-91663920D01*
X129024509Y-91578881D01*
X129012951Y-91561584D01*
X129012948Y-91561580D01*
X128908419Y-91457051D01*
X128908415Y-91457048D01*
X128785501Y-91374919D01*
X128785488Y-91374912D01*
X128648917Y-91318343D01*
X128648907Y-91318340D01*
X128503920Y-91289500D01*
X128503918Y-91289500D01*
X128356082Y-91289500D01*
X128356080Y-91289500D01*
X128211092Y-91318340D01*
X128211082Y-91318343D01*
X128074511Y-91374912D01*
X128074498Y-91374919D01*
X127951584Y-91457048D01*
X127951580Y-91457051D01*
X127847051Y-91561580D01*
X127847048Y-91561584D01*
X127764919Y-91684498D01*
X127764912Y-91684511D01*
X127708343Y-91821082D01*
X127708340Y-91821092D01*
X127679500Y-91966079D01*
X127679500Y-91966082D01*
X127679500Y-92113918D01*
X127679500Y-92113920D01*
X127679499Y-92113920D01*
X125945499Y-92113920D01*
X125945499Y-92099998D01*
X125945498Y-92099981D01*
X125934999Y-91997203D01*
X125934998Y-91997201D01*
X125879814Y-91830666D01*
X125787712Y-91681344D01*
X125663656Y-91557288D01*
X125514334Y-91465186D01*
X125347797Y-91410001D01*
X125347795Y-91410000D01*
X125245010Y-91399500D01*
X123644998Y-91399500D01*
X123644981Y-91399501D01*
X123542203Y-91410000D01*
X123542200Y-91410001D01*
X123375668Y-91465185D01*
X123375663Y-91465187D01*
X123226342Y-91557289D01*
X123102289Y-91681342D01*
X123010187Y-91830663D01*
X123010186Y-91830666D01*
X122955001Y-91997203D01*
X122955001Y-91997204D01*
X122955000Y-91997204D01*
X122944500Y-92099983D01*
X115000500Y-92099983D01*
X115000500Y-90493920D01*
X166749499Y-90493920D01*
X166778340Y-90638907D01*
X166778343Y-90638917D01*
X166834912Y-90775488D01*
X166834919Y-90775501D01*
X166917048Y-90898415D01*
X166917051Y-90898419D01*
X167021580Y-91002948D01*
X167021584Y-91002951D01*
X167144498Y-91085080D01*
X167144511Y-91085087D01*
X167281082Y-91141656D01*
X167281087Y-91141658D01*
X167281091Y-91141658D01*
X167281092Y-91141659D01*
X167426079Y-91170500D01*
X167426082Y-91170500D01*
X167573920Y-91170500D01*
X167671462Y-91151096D01*
X167718913Y-91141658D01*
X167855495Y-91085084D01*
X167858095Y-91083346D01*
X167862000Y-91080738D01*
X167862000Y-91080737D01*
X167978416Y-91002951D01*
X168082951Y-90898416D01*
X168165084Y-90775495D01*
X168221658Y-90638913D01*
X168250500Y-90493918D01*
X168250500Y-90346082D01*
X168250500Y-90346079D01*
X168221659Y-90201092D01*
X168221658Y-90201091D01*
X168221658Y-90201087D01*
X168180735Y-90102289D01*
X168165087Y-90064511D01*
X168165080Y-90064498D01*
X168082951Y-89941584D01*
X168082948Y-89941580D01*
X167978419Y-89837051D01*
X167978415Y-89837048D01*
X167855501Y-89754919D01*
X167855488Y-89754912D01*
X167718917Y-89698343D01*
X167718907Y-89698340D01*
X167573920Y-89669500D01*
X167573918Y-89669500D01*
X167426082Y-89669500D01*
X167426080Y-89669500D01*
X167281092Y-89698340D01*
X167281082Y-89698343D01*
X167144511Y-89754912D01*
X167144498Y-89754919D01*
X167021584Y-89837048D01*
X167021580Y-89837051D01*
X166917051Y-89941580D01*
X166917048Y-89941584D01*
X166834919Y-90064498D01*
X166834912Y-90064511D01*
X166778343Y-90201082D01*
X166778340Y-90201092D01*
X166749500Y-90346079D01*
X166749500Y-90346082D01*
X166749500Y-90493918D01*
X166749500Y-90493920D01*
X166749499Y-90493920D01*
X115000500Y-90493920D01*
X115000500Y-88593920D01*
X128689499Y-88593920D01*
X128718340Y-88738907D01*
X128718343Y-88738917D01*
X128774912Y-88875488D01*
X128774919Y-88875501D01*
X128857048Y-88998415D01*
X128857051Y-88998419D01*
X128961580Y-89102948D01*
X128961584Y-89102951D01*
X129084498Y-89185080D01*
X129084511Y-89185087D01*
X129207227Y-89235917D01*
X129221087Y-89241658D01*
X129221091Y-89241658D01*
X129221092Y-89241659D01*
X129366079Y-89270500D01*
X129366082Y-89270500D01*
X129513920Y-89270500D01*
X129611462Y-89251096D01*
X129658913Y-89241658D01*
X129795495Y-89185084D01*
X129918416Y-89102951D01*
X130022951Y-88998416D01*
X130105084Y-88875495D01*
X130161658Y-88738913D01*
X130190500Y-88593918D01*
X130190500Y-88446082D01*
X130190500Y-88446079D01*
X130161659Y-88301092D01*
X130161658Y-88301091D01*
X130161658Y-88301087D01*
X130161145Y-88299849D01*
X130105087Y-88164511D01*
X130105080Y-88164498D01*
X130022951Y-88041584D01*
X130022948Y-88041580D01*
X129918419Y-87937051D01*
X129918415Y-87937048D01*
X129795501Y-87854919D01*
X129795488Y-87854912D01*
X129658917Y-87798343D01*
X129658907Y-87798340D01*
X129513920Y-87769500D01*
X129513918Y-87769500D01*
X129366082Y-87769500D01*
X129366080Y-87769500D01*
X129221092Y-87798340D01*
X129221082Y-87798343D01*
X129084511Y-87854912D01*
X129084498Y-87854919D01*
X128961584Y-87937048D01*
X128961580Y-87937051D01*
X128857051Y-88041580D01*
X128857048Y-88041584D01*
X128774919Y-88164498D01*
X128774912Y-88164511D01*
X128718343Y-88301082D01*
X128718340Y-88301092D01*
X128689500Y-88446079D01*
X128689500Y-88446082D01*
X128689500Y-88593918D01*
X128689500Y-88593920D01*
X128689499Y-88593920D01*
X115000500Y-88593920D01*
X115000500Y-87209525D01*
X115020185Y-87142486D01*
X115072989Y-87096731D01*
X115142147Y-87086787D01*
X115205703Y-87115812D01*
X115220347Y-87130854D01*
X115403172Y-87353627D01*
X115403177Y-87353633D01*
X115646367Y-87596823D01*
X115646372Y-87596827D01*
X115646373Y-87596828D01*
X115912240Y-87815019D01*
X116198213Y-88006100D01*
X116198222Y-88006105D01*
X116198224Y-88006106D01*
X116501530Y-88168227D01*
X116501532Y-88168227D01*
X116501538Y-88168231D01*
X116819295Y-88299850D01*
X117148422Y-88399690D01*
X117485750Y-88466789D01*
X117828031Y-88500500D01*
X117828034Y-88500500D01*
X118171966Y-88500500D01*
X118171969Y-88500500D01*
X118514250Y-88466789D01*
X118851578Y-88399690D01*
X119180705Y-88299850D01*
X119498462Y-88168231D01*
X119801787Y-88006100D01*
X120087760Y-87815019D01*
X120353627Y-87596828D01*
X120573320Y-87377135D01*
X138339500Y-87377135D01*
X138339500Y-89172870D01*
X138339501Y-89172876D01*
X138345908Y-89232483D01*
X138396202Y-89367328D01*
X138396206Y-89367335D01*
X138482452Y-89482544D01*
X138482455Y-89482547D01*
X138597664Y-89568793D01*
X138597671Y-89568797D01*
X138732517Y-89619091D01*
X138732516Y-89619091D01*
X138739444Y-89619835D01*
X138792127Y-89625500D01*
X140587872Y-89625499D01*
X140647483Y-89619091D01*
X140782331Y-89568796D01*
X140897546Y-89482546D01*
X140983796Y-89367331D01*
X141032810Y-89235916D01*
X141074681Y-89179984D01*
X141140145Y-89155566D01*
X141208418Y-89170417D01*
X141236673Y-89191569D01*
X141350213Y-89305109D01*
X141522179Y-89430048D01*
X141522181Y-89430049D01*
X141522184Y-89430051D01*
X141711588Y-89526557D01*
X141913757Y-89592246D01*
X142123713Y-89625500D01*
X142123714Y-89625500D01*
X142336286Y-89625500D01*
X142336287Y-89625500D01*
X142546243Y-89592246D01*
X142748412Y-89526557D01*
X142937816Y-89430051D01*
X143024138Y-89367335D01*
X143109786Y-89305109D01*
X143109788Y-89305106D01*
X143109792Y-89305104D01*
X143260104Y-89154792D01*
X143260106Y-89154788D01*
X143260109Y-89154786D01*
X143385048Y-88982820D01*
X143385047Y-88982820D01*
X143385051Y-88982816D01*
X143389514Y-88974054D01*
X143437488Y-88923259D01*
X143505308Y-88906463D01*
X143571444Y-88928999D01*
X143610486Y-88974056D01*
X143614951Y-88982820D01*
X143739890Y-89154786D01*
X143890213Y-89305109D01*
X144062179Y-89430048D01*
X144062181Y-89430049D01*
X144062184Y-89430051D01*
X144251588Y-89526557D01*
X144453757Y-89592246D01*
X144663713Y-89625500D01*
X144663714Y-89625500D01*
X144876286Y-89625500D01*
X144876287Y-89625500D01*
X145086243Y-89592246D01*
X145288412Y-89526557D01*
X145477816Y-89430051D01*
X145564138Y-89367335D01*
X145649786Y-89305109D01*
X145649788Y-89305106D01*
X145649792Y-89305104D01*
X145800104Y-89154792D01*
X145800106Y-89154788D01*
X145800109Y-89154786D01*
X145925048Y-88982820D01*
X145925047Y-88982820D01*
X145925051Y-88982816D01*
X145929514Y-88974054D01*
X145977488Y-88923259D01*
X146045308Y-88906463D01*
X146111444Y-88928999D01*
X146150486Y-88974056D01*
X146154951Y-88982820D01*
X146279890Y-89154786D01*
X146430213Y-89305109D01*
X146602179Y-89430048D01*
X146602181Y-89430049D01*
X146602184Y-89430051D01*
X146791588Y-89526557D01*
X146993757Y-89592246D01*
X147203713Y-89625500D01*
X147203714Y-89625500D01*
X147416286Y-89625500D01*
X147416287Y-89625500D01*
X147626243Y-89592246D01*
X147828412Y-89526557D01*
X148017816Y-89430051D01*
X148104138Y-89367335D01*
X148189786Y-89305109D01*
X148189788Y-89305106D01*
X148189792Y-89305104D01*
X148340104Y-89154792D01*
X148340106Y-89154788D01*
X148340109Y-89154786D01*
X148465048Y-88982820D01*
X148465047Y-88982820D01*
X148465051Y-88982816D01*
X148561557Y-88793412D01*
X148627246Y-88591243D01*
X148660500Y-88381287D01*
X148660500Y-88168713D01*
X148627246Y-87958757D01*
X148561557Y-87756588D01*
X148465051Y-87567184D01*
X148465049Y-87567181D01*
X148465048Y-87567179D01*
X148340109Y-87395213D01*
X148218816Y-87273920D01*
X150329499Y-87273920D01*
X150358340Y-87418907D01*
X150358343Y-87418917D01*
X150414912Y-87555488D01*
X150414919Y-87555501D01*
X150497048Y-87678415D01*
X150497051Y-87678419D01*
X150601580Y-87782948D01*
X150601584Y-87782951D01*
X150724498Y-87865080D01*
X150724511Y-87865087D01*
X150861082Y-87921656D01*
X150861087Y-87921658D01*
X150861091Y-87921658D01*
X150861092Y-87921659D01*
X151006079Y-87950500D01*
X151006082Y-87950500D01*
X151153920Y-87950500D01*
X151251462Y-87931096D01*
X151298913Y-87921658D01*
X151435495Y-87865084D01*
X151558416Y-87782951D01*
X151662951Y-87678416D01*
X151745084Y-87555495D01*
X151801658Y-87418913D01*
X151816769Y-87342948D01*
X151830500Y-87273920D01*
X151830500Y-87126079D01*
X151801659Y-86981092D01*
X151801658Y-86981091D01*
X151801658Y-86981087D01*
X151800755Y-86978907D01*
X151745087Y-86844511D01*
X151745080Y-86844498D01*
X151738012Y-86833920D01*
X159719499Y-86833920D01*
X159748340Y-86978907D01*
X159748343Y-86978917D01*
X159804912Y-87115488D01*
X159804919Y-87115501D01*
X159887048Y-87238415D01*
X159887051Y-87238419D01*
X159991580Y-87342948D01*
X159991584Y-87342951D01*
X160114498Y-87425080D01*
X160114511Y-87425087D01*
X160251082Y-87481656D01*
X160251087Y-87481658D01*
X160251091Y-87481658D01*
X160251092Y-87481659D01*
X160396079Y-87510500D01*
X160396082Y-87510500D01*
X160543920Y-87510500D01*
X160641462Y-87491096D01*
X160688913Y-87481658D01*
X160825495Y-87425084D01*
X160948416Y-87342951D01*
X161052951Y-87238416D01*
X161135084Y-87115495D01*
X161191658Y-86978913D01*
X161201973Y-86927056D01*
X161220500Y-86833920D01*
X161220500Y-86686079D01*
X161191659Y-86541092D01*
X161191658Y-86541091D01*
X161191658Y-86541087D01*
X161174002Y-86498462D01*
X161135087Y-86404511D01*
X161135080Y-86404498D01*
X161049567Y-86276519D01*
X161051378Y-86275308D01*
X161027896Y-86220040D01*
X161039677Y-86151171D01*
X161063375Y-86117991D01*
X161122951Y-86058416D01*
X161205084Y-85935495D01*
X161261658Y-85798913D01*
X161274372Y-85734999D01*
X161290500Y-85653920D01*
X161290500Y-85506079D01*
X161261659Y-85361092D01*
X161261658Y-85361091D01*
X161261658Y-85361087D01*
X161261656Y-85361082D01*
X161205087Y-85224511D01*
X161205080Y-85224498D01*
X161122951Y-85101584D01*
X161122948Y-85101580D01*
X161018419Y-84997051D01*
X161018415Y-84997048D01*
X160895501Y-84914919D01*
X160895488Y-84914912D01*
X160758917Y-84858343D01*
X160758907Y-84858340D01*
X160613920Y-84829500D01*
X160613918Y-84829500D01*
X160466082Y-84829500D01*
X160466080Y-84829500D01*
X160321092Y-84858340D01*
X160321082Y-84858343D01*
X160184511Y-84914912D01*
X160184498Y-84914919D01*
X160061584Y-84997048D01*
X160061580Y-84997051D01*
X159957051Y-85101580D01*
X159957048Y-85101584D01*
X159874919Y-85224498D01*
X159874912Y-85224511D01*
X159818343Y-85361082D01*
X159818340Y-85361092D01*
X159789500Y-85506079D01*
X159789500Y-85506082D01*
X159789500Y-85653918D01*
X159789500Y-85653920D01*
X159789499Y-85653920D01*
X159818340Y-85798907D01*
X159818343Y-85798917D01*
X159874912Y-85935488D01*
X159874919Y-85935501D01*
X159960433Y-86063481D01*
X159958628Y-86064687D01*
X159982107Y-86120003D01*
X159970301Y-86188868D01*
X159946620Y-86222012D01*
X159887048Y-86281584D01*
X159804919Y-86404498D01*
X159804912Y-86404511D01*
X159748343Y-86541082D01*
X159748340Y-86541092D01*
X159719500Y-86686079D01*
X159719500Y-86686082D01*
X159719500Y-86833918D01*
X159719500Y-86833920D01*
X159719499Y-86833920D01*
X151738012Y-86833920D01*
X151681192Y-86748883D01*
X151681191Y-86748882D01*
X151662948Y-86721580D01*
X151558419Y-86617051D01*
X151558415Y-86617048D01*
X151435501Y-86534919D01*
X151435488Y-86534912D01*
X151298917Y-86478343D01*
X151298907Y-86478340D01*
X151153920Y-86449500D01*
X151153918Y-86449500D01*
X151006082Y-86449500D01*
X151006080Y-86449500D01*
X150861092Y-86478340D01*
X150861082Y-86478343D01*
X150724511Y-86534912D01*
X150724498Y-86534919D01*
X150601584Y-86617048D01*
X150601580Y-86617051D01*
X150497051Y-86721580D01*
X150497048Y-86721584D01*
X150414919Y-86844498D01*
X150414912Y-86844511D01*
X150358343Y-86981082D01*
X150358340Y-86981092D01*
X150329500Y-87126079D01*
X150329500Y-87126082D01*
X150329500Y-87273918D01*
X150329500Y-87273920D01*
X150329499Y-87273920D01*
X148218816Y-87273920D01*
X148189790Y-87244894D01*
X148189785Y-87244890D01*
X148156723Y-87220869D01*
X148156674Y-87220834D01*
X148017816Y-87119949D01*
X148001211Y-87111488D01*
X147994011Y-87106424D01*
X147977517Y-87085699D01*
X147958259Y-87067512D01*
X147956098Y-87058787D01*
X147950502Y-87051756D01*
X147947830Y-87025402D01*
X147941463Y-86999692D01*
X147944361Y-86991185D01*
X147943455Y-86982242D01*
X147955456Y-86958626D01*
X147963999Y-86933556D01*
X147971499Y-86927056D01*
X147975109Y-86919954D01*
X147989236Y-86911687D01*
X148009054Y-86894515D01*
X148017816Y-86890051D01*
X148080515Y-86844498D01*
X148189786Y-86765109D01*
X148189788Y-86765106D01*
X148189792Y-86765104D01*
X148340104Y-86614792D01*
X148340106Y-86614788D01*
X148340109Y-86614786D01*
X148465048Y-86442820D01*
X148465050Y-86442817D01*
X148465051Y-86442816D01*
X148561557Y-86253412D01*
X148627246Y-86051243D01*
X148660500Y-85841287D01*
X148660500Y-85628713D01*
X148627246Y-85418757D01*
X148561557Y-85216588D01*
X148465051Y-85027184D01*
X148465049Y-85027181D01*
X148465048Y-85027179D01*
X148340109Y-84855213D01*
X148189786Y-84704890D01*
X148017820Y-84579951D01*
X147828414Y-84483444D01*
X147828413Y-84483443D01*
X147828412Y-84483443D01*
X147626243Y-84417754D01*
X147626241Y-84417753D01*
X147626240Y-84417753D01*
X147464957Y-84392208D01*
X147416287Y-84384500D01*
X147203713Y-84384500D01*
X147155042Y-84392208D01*
X146993760Y-84417753D01*
X146791585Y-84483444D01*
X146602179Y-84579951D01*
X146430213Y-84704890D01*
X146279890Y-84855213D01*
X146154949Y-85027182D01*
X146150484Y-85035946D01*
X146102509Y-85086742D01*
X146034688Y-85103536D01*
X145968553Y-85080998D01*
X145929516Y-85035946D01*
X145925050Y-85027182D01*
X145800109Y-84855213D01*
X145649786Y-84704890D01*
X145477820Y-84579951D01*
X145288414Y-84483444D01*
X145288413Y-84483443D01*
X145288412Y-84483443D01*
X145086243Y-84417754D01*
X145086241Y-84417753D01*
X145086240Y-84417753D01*
X144924957Y-84392208D01*
X144876287Y-84384500D01*
X144663713Y-84384500D01*
X144615042Y-84392208D01*
X144453760Y-84417753D01*
X144251585Y-84483444D01*
X144062179Y-84579951D01*
X143890213Y-84704890D01*
X143739890Y-84855213D01*
X143614949Y-85027182D01*
X143610484Y-85035946D01*
X143562509Y-85086742D01*
X143494688Y-85103536D01*
X143428553Y-85080998D01*
X143389516Y-85035946D01*
X143385050Y-85027182D01*
X143260109Y-84855213D01*
X143109786Y-84704890D01*
X142937820Y-84579951D01*
X142748414Y-84483444D01*
X142748413Y-84483443D01*
X142748412Y-84483443D01*
X142546243Y-84417754D01*
X142546241Y-84417753D01*
X142546240Y-84417753D01*
X142384957Y-84392208D01*
X142336287Y-84384500D01*
X142123713Y-84384500D01*
X142075042Y-84392208D01*
X141913760Y-84417753D01*
X141711585Y-84483444D01*
X141522179Y-84579951D01*
X141350213Y-84704890D01*
X141199890Y-84855213D01*
X141074949Y-85027182D01*
X141070202Y-85036499D01*
X141022227Y-85087293D01*
X140954405Y-85104087D01*
X140888271Y-85081548D01*
X140849234Y-85036495D01*
X140844626Y-85027452D01*
X140805270Y-84973282D01*
X140805269Y-84973282D01*
X140172962Y-85605590D01*
X140155925Y-85542007D01*
X140090099Y-85427993D01*
X139997007Y-85334901D01*
X139882993Y-85269075D01*
X139819409Y-85252037D01*
X140451716Y-84619728D01*
X140397550Y-84580375D01*
X140208217Y-84483904D01*
X140006129Y-84418242D01*
X139796246Y-84385000D01*
X139583754Y-84385000D01*
X139373872Y-84418242D01*
X139373869Y-84418242D01*
X139171782Y-84483904D01*
X138982439Y-84580380D01*
X138928282Y-84619727D01*
X138928282Y-84619728D01*
X139560591Y-85252037D01*
X139497007Y-85269075D01*
X139382993Y-85334901D01*
X139289901Y-85427993D01*
X139224075Y-85542007D01*
X139207037Y-85605591D01*
X138574728Y-84973282D01*
X138574727Y-84973282D01*
X138535380Y-85027439D01*
X138438904Y-85216782D01*
X138373242Y-85418869D01*
X138373242Y-85418872D01*
X138340000Y-85628753D01*
X138340000Y-85841246D01*
X138373242Y-86051127D01*
X138373242Y-86051130D01*
X138438904Y-86253217D01*
X138535375Y-86442550D01*
X138574728Y-86496716D01*
X139207037Y-85864408D01*
X139224075Y-85927993D01*
X139289901Y-86042007D01*
X139382993Y-86135099D01*
X139497007Y-86200925D01*
X139560590Y-86217962D01*
X138890370Y-86888181D01*
X138829047Y-86921666D01*
X138802698Y-86924500D01*
X138792134Y-86924500D01*
X138792123Y-86924501D01*
X138732516Y-86930908D01*
X138597671Y-86981202D01*
X138597664Y-86981206D01*
X138482455Y-87067452D01*
X138482452Y-87067455D01*
X138396206Y-87182664D01*
X138396202Y-87182671D01*
X138345908Y-87317517D01*
X138339501Y-87377116D01*
X138339500Y-87377135D01*
X120573320Y-87377135D01*
X120596828Y-87353627D01*
X120815019Y-87087760D01*
X121006100Y-86801787D01*
X121168231Y-86498462D01*
X121299850Y-86180705D01*
X121399690Y-85851578D01*
X121466789Y-85514250D01*
X121500500Y-85171969D01*
X121500500Y-84828031D01*
X121466789Y-84485750D01*
X121399690Y-84148422D01*
X121299850Y-83819295D01*
X121196173Y-83568995D01*
X127899499Y-83568995D01*
X127926418Y-83704322D01*
X127926421Y-83704332D01*
X127979221Y-83831804D01*
X127979228Y-83831817D01*
X128055885Y-83946541D01*
X128055888Y-83946545D01*
X128153454Y-84044111D01*
X128153458Y-84044114D01*
X128268182Y-84120771D01*
X128268195Y-84120778D01*
X128395667Y-84173578D01*
X128395672Y-84173580D01*
X128395676Y-84173580D01*
X128395677Y-84173581D01*
X128531004Y-84200500D01*
X128531007Y-84200500D01*
X128668995Y-84200500D01*
X128760041Y-84182389D01*
X128804328Y-84173580D01*
X128931811Y-84120775D01*
X129046542Y-84044114D01*
X129144114Y-83946542D01*
X129220775Y-83831811D01*
X129273580Y-83704328D01*
X129282389Y-83660041D01*
X129300500Y-83568995D01*
X134699499Y-83568995D01*
X134726418Y-83704322D01*
X134726421Y-83704332D01*
X134779221Y-83831804D01*
X134779228Y-83831817D01*
X134855885Y-83946541D01*
X134855888Y-83946545D01*
X134953454Y-84044111D01*
X134953458Y-84044114D01*
X135068182Y-84120771D01*
X135068195Y-84120778D01*
X135195667Y-84173578D01*
X135195672Y-84173580D01*
X135195676Y-84173580D01*
X135195677Y-84173581D01*
X135331004Y-84200500D01*
X135331007Y-84200500D01*
X135468995Y-84200500D01*
X135560041Y-84182389D01*
X135602619Y-84173920D01*
X163809499Y-84173920D01*
X163838340Y-84318907D01*
X163838343Y-84318917D01*
X163894912Y-84455488D01*
X163894919Y-84455501D01*
X163977048Y-84578415D01*
X163977051Y-84578419D01*
X164081580Y-84682948D01*
X164081584Y-84682951D01*
X164204498Y-84765080D01*
X164204511Y-84765087D01*
X164341082Y-84821656D01*
X164341087Y-84821658D01*
X164341091Y-84821658D01*
X164341092Y-84821659D01*
X164486079Y-84850500D01*
X164486082Y-84850500D01*
X164633920Y-84850500D01*
X164731462Y-84831096D01*
X164778913Y-84821658D01*
X164915495Y-84765084D01*
X165038416Y-84682951D01*
X165142951Y-84578416D01*
X165225084Y-84455495D01*
X165281658Y-84318913D01*
X165291096Y-84271462D01*
X165310500Y-84173920D01*
X165310500Y-84026079D01*
X165281659Y-83881092D01*
X165281658Y-83881091D01*
X165281658Y-83881087D01*
X165261250Y-83831817D01*
X165225087Y-83744511D01*
X165225080Y-83744498D01*
X165142951Y-83621584D01*
X165142948Y-83621580D01*
X165038419Y-83517051D01*
X165038415Y-83517048D01*
X164915501Y-83434919D01*
X164915488Y-83434912D01*
X164778917Y-83378343D01*
X164778907Y-83378340D01*
X164633920Y-83349500D01*
X164633918Y-83349500D01*
X164486082Y-83349500D01*
X164486080Y-83349500D01*
X164341092Y-83378340D01*
X164341082Y-83378343D01*
X164204511Y-83434912D01*
X164204498Y-83434919D01*
X164081584Y-83517048D01*
X164081580Y-83517051D01*
X163977051Y-83621580D01*
X163977048Y-83621584D01*
X163894919Y-83744498D01*
X163894912Y-83744511D01*
X163838343Y-83881082D01*
X163838340Y-83881092D01*
X163809500Y-84026079D01*
X163809500Y-84026082D01*
X163809500Y-84173918D01*
X163809500Y-84173920D01*
X163809499Y-84173920D01*
X135602619Y-84173920D01*
X135604328Y-84173580D01*
X135731811Y-84120775D01*
X135846542Y-84044114D01*
X135944114Y-83946542D01*
X136020775Y-83831811D01*
X136073580Y-83704328D01*
X136082389Y-83660041D01*
X136100500Y-83568995D01*
X136100500Y-83431004D01*
X136073581Y-83295677D01*
X136073580Y-83295676D01*
X136073580Y-83295672D01*
X136033216Y-83198224D01*
X136020778Y-83168195D01*
X136020771Y-83168182D01*
X135944114Y-83053458D01*
X135944111Y-83053454D01*
X135846545Y-82955888D01*
X135846541Y-82955885D01*
X135731817Y-82879228D01*
X135731804Y-82879221D01*
X135604332Y-82826421D01*
X135604322Y-82826418D01*
X135468995Y-82799500D01*
X135468993Y-82799500D01*
X135331007Y-82799500D01*
X135331005Y-82799500D01*
X135195677Y-82826418D01*
X135195667Y-82826421D01*
X135068195Y-82879221D01*
X135068182Y-82879228D01*
X134953458Y-82955885D01*
X134953454Y-82955888D01*
X134855888Y-83053454D01*
X134855885Y-83053458D01*
X134779228Y-83168182D01*
X134779221Y-83168195D01*
X134726421Y-83295667D01*
X134726418Y-83295677D01*
X134699500Y-83431004D01*
X134699500Y-83431007D01*
X134699500Y-83568993D01*
X134699500Y-83568995D01*
X134699499Y-83568995D01*
X129300500Y-83568995D01*
X129300500Y-83431004D01*
X129273581Y-83295677D01*
X129273580Y-83295676D01*
X129273580Y-83295672D01*
X129233216Y-83198224D01*
X129220778Y-83168195D01*
X129220771Y-83168182D01*
X129144114Y-83053458D01*
X129144111Y-83053454D01*
X129046545Y-82955888D01*
X129046541Y-82955885D01*
X128931817Y-82879228D01*
X128931804Y-82879221D01*
X128804332Y-82826421D01*
X128804322Y-82826418D01*
X128668995Y-82799500D01*
X128668993Y-82799500D01*
X128531007Y-82799500D01*
X128531005Y-82799500D01*
X128395677Y-82826418D01*
X128395667Y-82826421D01*
X128268195Y-82879221D01*
X128268182Y-82879228D01*
X128153458Y-82955885D01*
X128153454Y-82955888D01*
X128055888Y-83053454D01*
X128055885Y-83053458D01*
X127979228Y-83168182D01*
X127979221Y-83168195D01*
X127926421Y-83295667D01*
X127926418Y-83295677D01*
X127899500Y-83431004D01*
X127899500Y-83431007D01*
X127899500Y-83568993D01*
X127899500Y-83568995D01*
X127899499Y-83568995D01*
X121196173Y-83568995D01*
X121168231Y-83501538D01*
X121006100Y-83198213D01*
X120815019Y-82912240D01*
X120596828Y-82646373D01*
X120596827Y-82646372D01*
X120596823Y-82646367D01*
X120353632Y-82403176D01*
X120130861Y-82220353D01*
X120091527Y-82162608D01*
X120089656Y-82092763D01*
X120125843Y-82032995D01*
X120188599Y-82002279D01*
X120209526Y-82000500D01*
X178790474Y-82000500D01*
X178857513Y-82020185D01*
G37*
%TD.AperFunction*%
%TD*%
M02*
