M48
; DRILL file {KiCad 9.0.2} date 2025-12-07T11:11:45-0800
; FORMAT={-:-/ absolute / metric / decimal}
; #@! TF.CreationDate,2025-12-07T11:11:45-08:00
; #@! TF.GenerationSoftware,Kicad,Pcbnew,9.0.2
; #@! TF.FileFunction,Plated,1,4,PTH
FMAT,2
METRIC
; #@! TA.AperFunction,Plated,PTH,ViaDrill
T1C0.300
; #@! TA.AperFunction,Plated,PTH,ComponentDrill
T2C0.500
; #@! TA.AperFunction,Plated,PTH,ComponentDrill
T3C0.600
; #@! TA.AperFunction,Plated,PTH,ComponentDrill
T4C0.950
; #@! TA.AperFunction,Plated,PTH,ComponentDrill
T5C1.000
; #@! TA.AperFunction,Plated,PTH,ComponentDrill
T6C3.000
%
G90
G05
T1
X128.43Y-92.04
X129.44Y-88.52
X131.23Y-94.96
X133.0Y-102.275
X133.0Y-106.775
X133.075Y-98.725
X133.15Y-100.425
X133.72Y-110.58
X134.51Y-116.09
X134.63Y-88.54
X134.64Y-106.75
X135.26Y-109.05
X135.38Y-107.86
X136.17Y-104.44
X137.51Y-107.825
X137.575Y-111.9
X138.4Y-96.72
X139.32Y-109.88
X139.351Y-97.684
X139.53Y-93.28
X140.2Y-106.2
X140.713Y-106.599
X140.75Y-112.0
X141.49Y-93.28
X141.7Y-112.0
X142.98Y-95.78
X143.98Y-111.0
X144.56Y-116.49
X145.21Y-111.22
X145.52Y-99.77
X145.83Y-108.23
X146.49Y-107.6
X147.25Y-99.78
X147.88Y-100.43
X147.89Y-112.22
X148.6Y-102.725
X148.75Y-103.5
X148.78Y-112.12
X148.79Y-101.28
X148.96Y-97.16
X149.221Y-112.979
X150.13Y-114.2
X150.31Y-96.56
X150.75Y-110.41
X150.88Y-116.63
X151.01Y-117.51
X151.08Y-87.2
X151.09Y-91.59
X151.8Y-111.2
X151.85Y-108.55
X151.88Y-107.42
X151.96Y-114.75
X152.175Y-103.035
X152.38Y-103.73
X152.46Y-113.5
X152.76Y-99.67
X152.78Y-101.08
X153.26Y-112.51
X153.57Y-114.18
X153.687Y-113.0
X153.71Y-111.4
X155.34Y-118.25
X155.37Y-115.66
X155.98Y-117.77
X156.28Y-111.47
X156.8Y-101.5
X156.91Y-120.45
X156.93Y-103.251
X157.47Y-114.66
X157.8Y-113.18
X158.55Y-113.83
X159.11Y-114.55
X159.67Y-113.27
X159.775Y-116.645
X159.89Y-117.8
X160.47Y-86.76
X160.54Y-85.58
X160.635Y-95.475
X161.555Y-94.355
X163.2Y-99.8
X163.2Y-101.0
X163.2Y-102.2
X164.22Y-112.52
X164.25Y-113.46
X164.29Y-115.49
X164.31Y-114.52
X164.56Y-84.1
X164.75Y-93.75
X164.95Y-108.0
X165.95Y-105.99
X165.95Y-110.02
X166.02Y-104.39
X166.9Y-104.4
X167.49Y-87.62
X167.5Y-90.42
X169.49Y-99.37
X171.0Y-100.56
X173.64Y-100.61
X174.21Y-104.34
X176.16Y-102.14
X176.32Y-101.25
X176.44Y-105.6
X177.46Y-111.44
X178.0Y-108.67
X179.22Y-98.69
X180.28Y-92.51
X180.43Y-111.01
X180.98Y-108.7
X182.5Y-92.03
T2
X162.89Y-118.03
X165.86Y-118.02
T4
X124.5Y-111.555
X127.0Y-111.555
X129.5Y-111.555
T5
X124.445Y-92.75
X124.445Y-95.25
X124.445Y-102.25
X124.445Y-104.75
X139.69Y-85.735
X139.69Y-88.275
X142.23Y-85.735
X142.23Y-88.275
X144.77Y-85.735
X144.77Y-88.275
X147.31Y-85.735
X147.31Y-88.275
X171.75Y-91.445
X171.75Y-111.555
X174.25Y-91.445
X174.25Y-111.555
T6
X118.0Y-85.0
X118.0Y-118.0
X181.0Y-85.0
X181.0Y-118.0
T3
G00X178.745Y-97.68
M15
G01X177.645Y-97.68
M16
G05
G00X178.745Y-106.32
M15
G01X177.645Y-106.32
M16
G05
G00X182.765Y-97.68
M15
G01X181.965Y-97.68
M16
G05
G00X182.765Y-106.32
M15
G01X181.965Y-106.32
M16
G05
M30
